<svg width="111" height="111" fill="none" xmlns="http://www.w3.org/2000/svg"><path fill="#fff" d="M0 0h111v111H0z"/><path fill-rule="evenodd" clip-rule="evenodd" d="M8.582 78.295C12 96.687 36.75 102.605 63.86 91.511c27.11-11.093 46.316-34.995 42.897-53.388-2.453-13.193-15.882-19.967-33.285-18.648 14.9-.233 26.205 6.296 28.416 18.188 3.262 17.552-14.52 40.139-39.718 50.45-25.198 10.31-48.27 4.44-51.534-13.11-1.431-7.701 1.188-16.37 6.708-24.548-6.94 9.222-10.379 19.147-8.762 27.84z" fill="#FF4F31"/><path d="M67.626 19.032l11.606-5.925-7.483 6.233 6.47 7.28-10.593-7.588z" fill="#FF4F31"/><path d="M5.988 50.135a1.715 1.715 0 011.691-1.434h99.809c1.059 0 1.865.95 1.691 1.995l-4.172 25.15a1.715 1.715 0 01-1.692 1.433H3.507c-1.06 0-1.865-.95-1.692-1.995l4.173-25.149z" fill="#fff"/><path d="M11.482 54.228L8.457 71.7H4.953l3.024-17.473h3.505zm10.092 0l-8.268 10.26H8.937l.12-3.204h2.724l5.34-7.056h4.453zM14.926 71.7l-3.457-7.969 2.749-2.436L18.934 71.7h-4.008zm17.304-2.807l-.49 2.807h-9.037l.48-2.808h9.049zm-5.34-14.665L23.854 71.7h-3.516l3.024-17.473h3.528zm5.473 7.116l-.48 2.736h-7.86l.48-2.736h7.86zm2.388-7.116l-.492 2.82h-9.025l.504-2.82h9.013zm2.004 0h3.516l-2.544 14.665h4.716l2.544-14.665h3.517l-2.557 14.665h4.669l2.544-14.665h3.504L53.628 71.7h-19.91l3.037-17.473zm33.985 0l-.48 2.82h-7.632l-2.544 14.653H56.58l3.024-17.473h11.137zM60.793 60.6l3.768.012c1.08.024 2.069.24 2.965.648.896.408 1.596 1.008 2.1 1.8.512.784.724 1.76.636 2.928-.08.953-.332 1.789-.756 2.509a5.853 5.853 0 01-1.644 1.788 7.36 7.36 0 01-2.257 1.08 9.125 9.125 0 01-2.568.336h-6.444l3.024-17.473h3.528L60.6 68.893l2.544.012c.608 0 1.168-.116 1.68-.348a3.3 3.3 0 001.284-.996c.344-.44.56-.973.648-1.597.073-.528.02-.976-.156-1.344a1.781 1.781 0 00-.816-.864c-.368-.208-.808-.32-1.32-.336l-4.152-.012.48-2.808zm24.048.96l-.492 2.82h-7.236l.504-2.82h7.224zm-13.02 4.332h3.48c0 .648.088 1.213.264 1.693.176.48.464.86.864 1.14.408.272.956.42 1.644.444.784.024 1.444-.128 1.98-.456.536-.336.976-.78 1.32-1.332.352-.56.624-1.172.816-1.837.2-.672.344-1.328.432-1.968l.168-1.224c.056-.416.096-.868.12-1.356a9.079 9.079 0 00-.048-1.476 4.355 4.355 0 00-.36-1.332 2.285 2.285 0 00-.792-.984c-.352-.256-.812-.396-1.38-.42-.752-.024-1.396.1-1.932.372a3.208 3.208 0 00-1.284 1.164c-.32.512-.548 1.116-.684 1.812l-3.492.012c.2-1.28.656-2.384 1.368-3.312a7.057 7.057 0 012.676-2.136c1.072-.496 2.248-.736 3.528-.72 1.168.024 2.152.28 2.952.768a5.29 5.29 0 011.885 1.944c.463.8.767 1.696.911 2.688.153.984.164 1.988.036 3.012l-.18 1.188a12.734 12.734 0 01-.864 3.169 9.938 9.938 0 01-1.668 2.712 7.481 7.481 0 01-2.448 1.86c-.952.448-2.036.66-3.252.636-1.232-.024-2.3-.284-3.204-.78a5.245 5.245 0 01-2.088-2.088c-.488-.904-.744-1.968-.768-3.192zM93.71 54.228L90.686 71.7h-3.504l3.024-17.473h3.504zm10.093 0l-8.269 10.26h-4.368l.12-3.204h2.724l5.34-7.056h4.453zM97.154 71.7l-3.456-7.969 2.748-2.436 4.716 10.405h-4.008zM20.242 23.331l-3.488 20.686H12.77l2.765-15.893-5.02 1.545.582-3.374 8.635-2.964h.51zm18.559 8.549l-.538 3.56a17.785 17.785 0 01-.823 3.303 10.595 10.595 0 01-1.503 2.864 6.897 6.897 0 01-2.353 2.013c-.936.483-2.056.71-3.36.681-.993-.019-1.839-.203-2.538-.553a4.919 4.919 0 01-1.702-1.39 6.492 6.492 0 01-.992-1.999 10.28 10.28 0 01-.383-2.382c-.029-.84.01-1.682.113-2.523l.525-3.573a17.47 17.47 0 01.822-3.275 10.674 10.674 0 011.517-2.85 6.62 6.62 0 012.354-1.985c.945-.482 2.065-.71 3.36-.68.993.018 1.834.203 2.524.552.7.34 1.266.799 1.701 1.375.444.577.775 1.239.993 1.985a9.22 9.22 0 01.383 2.368c.037.832.004 1.669-.1 2.51zm-4.593 4.113l.694-4.694c.038-.34.076-.723.114-1.148a7.73 7.73 0 00.028-1.319 4.266 4.266 0 00-.227-1.233 1.954 1.954 0 00-.61-.936c-.283-.245-.67-.383-1.162-.41-.68-.03-1.248.117-1.702.439a3.44 3.44 0 00-1.077 1.261 7.802 7.802 0 00-.61 1.688 23.2 23.2 0 00-.34 1.687l-.68 4.679-.128 1.162c-.038.435-.047.88-.028 1.333.028.454.103.874.226 1.262.123.387.326.704.61.95s.671.383 1.163.411c.68.038 1.247-.104 1.701-.425a3.514 3.514 0 001.078-1.29c.274-.54.482-1.111.623-1.716.142-.614.25-1.182.327-1.702zm7.897-7.557l.085-1.092c.085-.85.34-1.602.766-2.255a4.27 4.27 0 011.672-1.502c.69-.36 1.466-.53 2.326-.51.841.009 1.564.198 2.169.566a3.558 3.558 0 011.375 1.517c.322.634.454 1.361.397 2.184l-.085 1.091c-.085.851-.34 1.603-.765 2.255a4.308 4.308 0 01-1.673 1.489c-.681.35-1.447.515-2.297.496-.832-.01-1.555-.194-2.17-.553a3.674 3.674 0 01-1.39-1.503c-.32-.643-.458-1.37-.41-2.183zm2.793-1.092l-.142 1.134c-.019.312.01.614.085.907.076.293.213.534.411.723.208.18.492.275.851.284.388.01.718-.075.992-.255.284-.19.51-.435.681-.737a2.94 2.94 0 00.34-.964l.156-1.106a2.707 2.707 0 00-.07-.922 1.36 1.36 0 00-.412-.737c-.208-.199-.496-.303-.865-.312-.387-.01-.723.08-1.006.27-.284.179-.51.425-.68.736a3.09 3.09 0 00-.341.979zm4.778 12.703l.085-1.091c.076-.85.33-1.598.766-2.24a4.376 4.376 0 011.687-1.503c.69-.36 1.465-.534 2.325-.525.841.019 1.564.213 2.17.581.604.37 1.063.87 1.375 1.503.321.634.458 1.361.41 2.184l-.098 1.091c-.086.86-.34 1.617-.766 2.269a4.31 4.31 0 01-1.659 1.503c-.69.35-1.46.515-2.31.496-.842-.019-1.57-.208-2.184-.567a3.673 3.673 0 01-1.39-1.503c-.321-.643-.458-1.375-.411-2.197zm2.793-1.091l-.113 1.148c-.029.303-.005.6.07.893.086.294.232.535.44.724.208.189.482.288.822.297.416.02.761-.056 1.035-.227.284-.18.506-.42.667-.723.17-.312.279-.652.326-1.02l.156-1.106a2.97 2.97 0 00-.085-.922 1.353 1.353 0 00-.411-.723c-.208-.199-.492-.303-.851-.312-.388-.01-.728.08-1.02.27-.285.179-.516.42-.696.722-.17.303-.283.629-.34.979zm4.906-12.505L44.926 42.429l-1.928-1.162 12.463-15.965 1.914 1.149z" fill="#FF4F31"/><path d="M23.01 79.876l4.742 1.805 4.513-2.32-1.805 4.742 2.32 4.513-4.742-1.805-4.513 2.32 1.805-4.743-2.32-4.512zm66.297-44.011l4.742 1.805 4.513-2.32-1.805 4.742 2.32 4.513-4.743-1.805-4.512 2.32 1.805-4.742-2.32-4.513zM39.223 83.907l3.106 1.183 2.957-1.52-1.182 3.107 1.52 2.957-3.108-1.183-2.956 1.52 1.182-3.107-1.52-2.957zm42.859-56.013l3.107 1.183 2.957-1.52-1.183 3.107 1.52 2.956-3.107-1.182-2.957 1.52 1.183-3.107-1.52-2.957zM55.014 83.542l1.642.625 1.563-.803-.625 1.642.803 1.563-1.642-.625-1.563.803.625-1.642-.803-1.563z" fill="#FECA0A"/></svg>