<svg width="42" height="42" fill="none" xmlns="http://www.w3.org/2000/svg"><mask id="a" maskUnits="userSpaceOnUse" x="1.25" y="5" width="35" height="8" fill="#000"><path fill="#fff" d="M1.25 5h35v8h-35z"/><path d="M2.875 12.25a.625.625 0 010-1.25c17.98 0 28.832 0 31.98-4.721A.624.624 0 0136 6.625V9.75a.625.625 0 01-1.25 0V8.283C30.3 12.25 19.602 12.25 2.875 12.25z"/></mask><path d="M2.875 12.25a.625.625 0 010-1.25c17.98 0 28.832 0 31.98-4.721A.624.624 0 0136 6.625V9.75a.625.625 0 01-1.25 0V8.283C30.3 12.25 19.602 12.25 2.875 12.25z" fill="#231F20"/><path d="M2.875 12.25a.625.625 0 010-1.25c17.98 0 28.832 0 31.98-4.721A.624.624 0 0136 6.625V9.75a.625.625 0 01-1.25 0V8.283C30.3 12.25 19.602 12.25 2.875 12.25z" stroke="#231F20" stroke-width=".4" mask="url(#a)"/><mask id="b" maskUnits="userSpaceOnUse" x="1.25" y="10" width="38" height="6" fill="#000"><path fill="#fff" d="M1.25 10h38v6h-38z"/><path d="M18.474 14.822c-2.225 0-4.608-.017-7.142-.033-2.69-.02-5.518-.04-8.457-.04a.625.625 0 010-1.25c2.942 0 5.772.02 8.465.038 13.24.087 23.696.163 26.081-2.343a.626.626 0 011.079.43v2.5a.625.625 0 01-1.25 0v-1.26c-3.01 1.673-9.514 1.958-18.776 1.958z"/></mask><path d="M18.474 14.822c-2.225 0-4.608-.017-7.142-.033-2.69-.02-5.518-.04-8.457-.04a.625.625 0 010-1.25c2.942 0 5.772.02 8.465.038 13.24.087 23.696.163 26.081-2.343a.626.626 0 011.079.43v2.5a.625.625 0 01-1.25 0v-1.26c-3.01 1.673-9.514 1.958-18.776 1.958z" fill="#231F20"/><path d="M18.474 14.822c-2.225 0-4.608-.017-7.142-.033-2.69-.02-5.518-.04-8.457-.04a.625.625 0 010-1.25c2.942 0 5.772.02 8.465.038 13.24.087 23.696.163 26.081-2.343a.626.626 0 011.079.43v2.5a.625.625 0 01-1.25 0v-1.26c-3.01 1.673-9.514 1.958-18.776 1.958z" stroke="#231F20" stroke-width=".4" mask="url(#b)"/><mask id="c" maskUnits="userSpaceOnUse" x="1.25" y="15" width="39" height="22" fill="#000"><path fill="#fff" d="M1.25 15h39v22h-39z"/><path d="M2.875 16a.625.625 0 000 1.25H38.5v17.5H2.875a.625.625 0 000 1.25h36.25c.345 0 .625-.28.625-.625v-18.75a.625.625 0 00-.625-.625H2.875z"/></mask><path d="M2.875 16a.625.625 0 000 1.25H38.5v17.5H2.875a.625.625 0 000 1.25h36.25c.345 0 .625-.28.625-.625v-18.75a.625.625 0 00-.625-.625H2.875z" fill="#231F20"/><path d="M2.875 16a.625.625 0 000 1.25H38.5v17.5H2.875a.625.625 0 000 1.25h36.25c.345 0 .625-.28.625-.625v-18.75a.625.625 0 00-.625-.625H2.875z" stroke="#231F20" stroke-width=".4" mask="url(#c)"/><mask id="d" maskUnits="userSpaceOnUse" x="1.25" y="17.5" width="3" height="19" fill="#000"><path fill="#fff" d="M1.25 17.5h3v19h-3z"/><path d="M2.25 19.125v16.251a.625.625 0 001.25 0V19.125a.625.625 0 00-1.25 0z"/></mask><path d="M2.25 19.125v16.251a.625.625 0 001.25 0V19.125a.625.625 0 00-1.25 0z" fill="#231F20"/><path d="M2.25 19.125v16.251a.625.625 0 001.25 0V19.125a.625.625 0 00-1.25 0z" stroke="#231F20" stroke-width=".4" mask="url(#d)"/><mask id="e" maskUnits="userSpaceOnUse" x="16.25" y="20" width="9" height="8" fill="#000"><path fill="#fff" d="M16.25 20h9v8h-9z"/><path d="M17.875 27.25a.625.625 0 010-1.25h3.75a1.877 1.877 0 001.875-1.875 1.877 1.877 0 00-1.875-1.875H18.5v-.625c0-.345.28-.625.625-.625h2.5a3.13 3.13 0 013.125 3.125 3.128 3.128 0 01-3.125 3.125h-3.75z"/></mask><path d="M17.875 27.25a.625.625 0 010-1.25h3.75a1.877 1.877 0 001.875-1.875 1.877 1.877 0 00-1.875-1.875H18.5v-.625c0-.345.28-.625.625-.625h2.5a3.13 3.13 0 013.125 3.125 3.128 3.128 0 01-3.125 3.125h-3.75z" fill="#231F20"/><path d="M17.875 27.25a.625.625 0 010-1.25h3.75a1.877 1.877 0 001.875-1.875 1.877 1.877 0 00-1.875-1.875H18.5v-.625c0-.345.28-.625.625-.625h2.5a3.13 3.13 0 013.125 3.125 3.128 3.128 0 01-3.125 3.125h-3.75z" stroke="#231F20" stroke-width=".4" mask="url(#e)"/><mask id="f" maskUnits="userSpaceOnUse" x="17.5" y="20.625" width="3" height="12" fill="#000"><path fill="#fff" d="M17.5 20.625h3v12h-3z"/><path d="M19.125 32.25a.625.625 0 01-.625-.625V22.25a.625.625 0 011.25 0v9.375c0 .345-.28.625-.625.625z"/></mask><path d="M19.125 32.25a.625.625 0 01-.625-.625V22.25a.625.625 0 011.25 0v9.375c0 .345-.28.625-.625.625z" fill="#231F20"/><path d="M19.125 32.25a.625.625 0 01-.625-.625V22.25a.625.625 0 011.25 0v9.375c0 .345-.28.625-.625.625z" stroke="#231F20" stroke-width=".4" mask="url(#f)"/><mask id="g" maskUnits="userSpaceOnUse" x="16.25" y="27.5" width="8" height="3" fill="#000"><path fill="#fff" d="M16.25 27.5h8v3h-8z"/><path d="M22.875 29.75h-5a.625.625 0 010-1.25h5a.625.625 0 010 1.25z"/></mask><path d="M22.875 29.75h-5a.625.625 0 010-1.25h5a.625.625 0 010 1.25z" fill="#231F20"/><path d="M22.875 29.75h-5a.625.625 0 010-1.25h5a.625.625 0 010 1.25z" stroke="#231F20" stroke-width=".4" mask="url(#g)"/></svg>