<svg width="25" height="25" fill="none" xmlns="http://www.w3.org/2000/svg"><mask id="a" maskUnits="userSpaceOnUse" x="-.531" y=".475" width="24" height="3" fill="#000"><path fill="#fff" d="M-.531.475h24v3h-24z"/><path d="M.469 1.977c0-.277.224-.502.501-.502h21.6a.502.502 0 110 1.003H.97a.502.502 0 01-.501-.501z"/></mask><path d="M.469 1.977c0-.277.224-.502.501-.502h21.6a.502.502 0 110 1.003H.97a.502.502 0 01-.501-.501z" fill="#231F20"/><path d="M.469 1.977c0-.277.224-.502.501-.502h21.6a.502.502 0 110 1.003H.97a.502.502 0 01-.501-.501z" stroke="#231F20" stroke-width=".5" mask="url(#a)"/><mask id="b" maskUnits="userSpaceOnUse" x="-.531" y="5.491" width="11" height="3" fill="#000"><path fill="#fff" d="M-.531 5.491h11v3h-11z"/><path d="M.469 6.992a.5.5 0 01.501-.501h7.842a.502.502 0 010 1.003H.97a.502.502 0 01-.501-.502z"/></mask><path d="M.469 6.992a.5.5 0 01.501-.501h7.842a.502.502 0 010 1.003H.97a.502.502 0 01-.501-.502z" fill="#231F20"/><path d="M.469 6.992a.5.5 0 01.501-.501h7.842a.502.502 0 010 1.003H.97a.502.502 0 01-.501-.502z" stroke="#231F20" stroke-width=".5" mask="url(#b)"/><mask id="c" maskUnits="userSpaceOnUse" x="-.531" y="10.506" width="9" height="3" fill="#000"><path fill="#fff" d="M-.531 10.506h9v3h-9z"/><path d="M.469 12.008c0-.277.224-.502.501-.502h5.876a.502.502 0 010 1.003H.97a.502.502 0 01-.501-.501z"/></mask><path d="M.469 12.008c0-.277.224-.502.501-.502h5.876a.502.502 0 010 1.003H.97a.502.502 0 01-.501-.501z" fill="#231F20"/><path d="M.469 12.008c0-.277.224-.502.501-.502h5.876a.502.502 0 010 1.003H.97a.502.502 0 01-.501-.501z" stroke="#231F20" stroke-width=".5" mask="url(#c)"/><mask id="d" maskUnits="userSpaceOnUse" x="-.531" y="15.522" width="9" height="3" fill="#000"><path fill="#fff" d="M-.531 15.522h9v3h-9z"/><path d="M.469 17.023c0-.276.224-.501.501-.501h5.876a.501.501 0 110 1.003H.97a.501.501 0 01-.501-.502z"/></mask><path d="M.469 17.023c0-.276.224-.501.501-.501h5.876a.501.501 0 110 1.003H.97a.501.501 0 01-.501-.502z" fill="#231F20"/><path d="M.469 17.023c0-.276.224-.501.501-.501h5.876a.501.501 0 110 1.003H.97a.501.501 0 01-.501-.502z" stroke="#231F20" stroke-width=".5" mask="url(#d)"/><mask id="e" maskUnits="userSpaceOnUse" x="9.032" y="4.488" width="16" height="16" fill="#000"><path fill="#fff" d="M9.032 4.488h16v16h-16z"/><path d="M17.053 19.53c-3.87 0-7.021-3.15-7.021-7.02a7.029 7.029 0 017.021-7.022c3.87 0 7.021 3.15 7.021 7.021s-3.15 7.022-7.02 7.022zm0-13.04c-3.32 0-6.018 2.7-6.018 6.02a6.024 6.024 0 006.018 6.018c3.32 0 6.019-2.7 6.019-6.019s-2.7-6.018-6.019-6.018z"/></mask><path d="M17.053 19.53c-3.87 0-7.021-3.15-7.021-7.02a7.029 7.029 0 017.021-7.022c3.87 0 7.021 3.15 7.021 7.021s-3.15 7.022-7.02 7.022zm0-13.04c-3.32 0-6.018 2.7-6.018 6.02a6.024 6.024 0 006.018 6.018c3.32 0 6.019-2.7 6.019-6.019s-2.7-6.018-6.019-6.018z" fill="#231F20"/><path d="M17.053 19.53c-3.87 0-7.021-3.15-7.021-7.02a7.029 7.029 0 017.021-7.022c3.87 0 7.021 3.15 7.021 7.021s-3.15 7.022-7.02 7.022zm0-13.04c-3.32 0-6.018 2.7-6.018 6.02a6.024 6.024 0 006.018 6.018c3.32 0 6.019-2.7 6.019-6.019s-2.7-6.018-6.019-6.018z" stroke="#231F20" stroke-width=".5" mask="url(#e)"/><mask id="f" maskUnits="userSpaceOnUse" x="5.035" y="15.539" width="9" height="9" fill="#000"><path fill="#fff" d="M5.035 15.539h9v9h-9z"/><path d="M6.39 23.17a.502.502 0 010-.71l5.567-5.566a.502.502 0 01.709.709L7.099 23.17a.502.502 0 01-.71 0z"/></mask><path d="M6.39 23.17a.502.502 0 010-.71l5.567-5.566a.502.502 0 01.709.709L7.099 23.17a.502.502 0 01-.71 0z" fill="#231F20"/><path d="M6.39 23.17a.502.502 0 010-.71l5.567-5.566a.502.502 0 01.709.709L7.099 23.17a.502.502 0 01-.71 0z" stroke="#231F20" stroke-width=".5" mask="url(#f)"/></svg>