<svg width="38" height="38" fill="none" xmlns="http://www.w3.org/2000/svg"><path d="M27.241 10.688v16.15H15.77a2.874 2.874 0 00-5.736 0H7.125v-16.15h20.116z" stroke="#F58220" stroke-width="1.5" stroke-linecap="round" stroke-linejoin="round"/><path d="M36.813 21.137v5.7H34.9a2.874 2.874 0 00-5.736 0H27.24v-11.4h4.002l5.57 5.7z" stroke="#F58220" stroke-width="1.5" stroke-linecap="round" stroke-linejoin="round"/><path d="M36.813 21.137v5.7H34.9a2.874 2.874 0 00-5.736 0H27.24v-5.7h9.572zm-23.917 8.551c1.587 0 2.874-1.276 2.874-2.85s-1.287-2.85-2.874-2.85c-1.587 0-2.873 1.276-2.873 2.85s1.286 2.85 2.873 2.85z" stroke="#F58220" stroke-width="1.5" stroke-linecap="round" stroke-linejoin="round"/><path d="M32.027 29.688c1.587 0 2.874-1.276 2.874-2.85s-1.287-2.85-2.874-2.85c-1.587 0-2.874 1.276-2.874 2.85s1.287 2.85 2.874 2.85zM1.188 12.586h3.099m-3.099 3.801h3.099m-3.099 3.801h3.099" stroke="#F58220" stroke-width="1.5" stroke-linecap="round" stroke-linejoin="round"/></svg>