<svg width="23" height="21" fill="none" xmlns="http://www.w3.org/2000/svg"><g clip-path="url(#clip0_1529_357925)"><mask id="a" maskUnits="userSpaceOnUse" x="1.582" y=".152" width="20" height="19" fill="#000"><path fill="#fff" d="M1.582.152h20v19h-20z"/><path d="M20.637 4.593a1.048 1.048 0 00-.805-.372H5.581l-.46-2.247a1.023 1.023 0 00-.361-.59 1.059 1.059 0 00-.661-.232H2.93a.345.345 0 00-.348.34c0 .189.156.342.348.342h1.169c.166 0 .308.114.341.273L6.54 12.4c.08.386.293.733.604.983.31.25.7.387 1.1.388h9.543a1.76 1.76 0 001.107-.391c.312-.253.524-.603.6-.992l1.364-6.95c.06-.3-.022-.61-.221-.845zm-.463.716l-1.364 6.95a1.02 1.02 0 01-.36.595 1.057 1.057 0 01-.663.235h-9.54a1.06 1.06 0 01-.662-.233 1.022 1.022 0 01-.362-.59L5.72 4.904h14.111a.35.35 0 01.269.124.337.337 0 01.073.281zM9.54 15.393c-.462 0-.904.18-1.23.5-.327.32-.51.753-.51 1.206 0 .452.183.886.51 1.206.326.32.768.499 1.23.499.461 0 .903-.18 1.23-.5.326-.32.51-.753.51-1.205a1.7 1.7 0 00-.51-1.206 1.76 1.76 0 00-1.23-.5zm0 2.729c-.277 0-.543-.108-.738-.3a1.013 1.013 0 010-1.447 1.055 1.055 0 011.476 0 1.013 1.013 0 010 1.447c-.196.192-.462.3-.738.3zm6.958-2.729c-.461 0-.903.18-1.23.5a1.69 1.69 0 00-.51 1.206c0 .452.184.886.51 1.206.326.32.769.499 1.23.499.462 0 .904-.18 1.23-.5.327-.32.51-.753.51-1.205 0-.452-.184-.886-.51-1.206a1.76 1.76 0 00-1.23-.5zm0 2.729c-.276 0-.542-.108-.738-.3a1.013 1.013 0 010-1.447 1.055 1.055 0 011.476 0 1.013 1.013 0 010 1.447c-.195.192-.46.3-.738.3z"/></mask><path d="M20.637 4.593a1.048 1.048 0 00-.805-.372H5.581l-.46-2.247a1.023 1.023 0 00-.361-.59 1.059 1.059 0 00-.661-.232H2.93a.345.345 0 00-.348.34c0 .189.156.342.348.342h1.169c.166 0 .308.114.341.273L6.54 12.4c.08.386.293.733.604.983.31.25.7.387 1.1.388h9.543a1.76 1.76 0 001.107-.391c.312-.253.524-.603.6-.992l1.364-6.95c.06-.3-.022-.61-.221-.845zm-.463.716l-1.364 6.95a1.02 1.02 0 01-.36.595 1.057 1.057 0 01-.663.235h-9.54a1.06 1.06 0 01-.662-.233 1.022 1.022 0 01-.362-.59L5.72 4.904h14.111a.35.35 0 01.269.124.337.337 0 01.073.281zM9.54 15.393c-.462 0-.904.18-1.23.5-.327.32-.51.753-.51 1.206 0 .452.183.886.51 1.206.326.32.768.499 1.23.499.461 0 .903-.18 1.23-.5.326-.32.51-.753.51-1.205a1.7 1.7 0 00-.51-1.206 1.76 1.76 0 00-1.23-.5zm0 2.729c-.277 0-.543-.108-.738-.3a1.013 1.013 0 010-1.447 1.055 1.055 0 011.476 0 1.013 1.013 0 010 1.447c-.196.192-.462.3-.738.3zm6.958-2.729c-.461 0-.903.18-1.23.5a1.69 1.69 0 00-.51 1.206c0 .452.184.886.51 1.206.326.32.769.499 1.23.499.462 0 .904-.18 1.23-.5.327-.32.51-.753.51-1.205 0-.452-.184-.886-.51-1.206a1.76 1.76 0 00-1.23-.5zm0 2.729c-.276 0-.542-.108-.738-.3a1.013 1.013 0 010-1.447 1.055 1.055 0 011.476 0 1.013 1.013 0 010 1.447c-.195.192-.46.3-.738.3z" fill="#959699"/><path d="M20.637 4.593a1.048 1.048 0 00-.805-.372H5.581l-.46-2.247a1.023 1.023 0 00-.361-.59 1.059 1.059 0 00-.661-.232H2.93a.345.345 0 00-.348.34c0 .189.156.342.348.342h1.169c.166 0 .308.114.341.273L6.54 12.4c.08.386.293.733.604.983.31.25.7.387 1.1.388h9.543a1.76 1.76 0 001.107-.391c.312-.253.524-.603.6-.992l1.364-6.95c.06-.3-.022-.61-.221-.845zm-.463.716l-1.364 6.95a1.02 1.02 0 01-.36.595 1.057 1.057 0 01-.663.235h-9.54a1.06 1.06 0 01-.662-.233 1.022 1.022 0 01-.362-.59L5.72 4.904h14.111a.35.35 0 01.269.124.337.337 0 01.073.281zM9.54 15.393c-.462 0-.904.18-1.23.5-.327.32-.51.753-.51 1.206 0 .452.183.886.51 1.206.326.32.768.499 1.23.499.461 0 .903-.18 1.23-.5.326-.32.51-.753.51-1.205a1.7 1.7 0 00-.51-1.206 1.76 1.76 0 00-1.23-.5zm0 2.729c-.277 0-.543-.108-.738-.3a1.013 1.013 0 010-1.447 1.055 1.055 0 011.476 0 1.013 1.013 0 010 1.447c-.196.192-.462.3-.738.3zm6.958-2.729c-.461 0-.903.18-1.23.5a1.69 1.69 0 00-.51 1.206c0 .452.184.886.51 1.206.326.32.769.499 1.23.499.462 0 .904-.18 1.23-.5.327-.32.51-.753.51-1.205 0-.452-.184-.886-.51-1.206a1.76 1.76 0 00-1.23-.5zm0 2.729c-.276 0-.542-.108-.738-.3a1.013 1.013 0 010-1.447 1.055 1.055 0 011.476 0 1.013 1.013 0 010 1.447c-.195.192-.46.3-.738.3z" stroke="#959699" stroke-width=".4" mask="url(#a)"/></g><defs><clipPath id="clip0_1529_357925"><path fill="#fff" transform="translate(.918 .706)" d="M0 0h21.622v19.411H0z"/></clipPath></defs></svg>