<svg width="35" height="33" fill="none" xmlns="http://www.w3.org/2000/svg"><mask id="a" maskUnits="userSpaceOnUse" x="0" y="-.362" width="35" height="34" fill="#000"><path fill="#fff" d="M0-.362h35v34H0z"/><path d="M33.566 6.843a1.89 1.89 0 00-1.451-.67H6.409L5.581 2.12a1.844 1.844 0 00-.653-1.064 1.91 1.91 0 00-1.192-.42H1.628A.621.621 0 001 1.254c0 .34.281.615.628.615h2.108c.299 0 .556.205.616.492L8.139 20.92a3.073 3.073 0 001.089 1.773c.56.45 1.262.697 1.986.7h17.211a3.183 3.183 0 001.998-.706 3.068 3.068 0 001.084-1.789l2.46-12.532a1.81 1.81 0 00-.4-1.522zm-.835 1.291l-2.46 12.532c-.082.42-.311.8-.648 1.073-.337.273-.76.422-1.198.423H11.217a1.911 1.911 0 01-1.193-.42 1.844 1.844 0 01-.654-1.064L6.661 7.403h25.454c.187 0 .365.082.484.223.12.142.168.328.132.508zm-19.18 18.183a3.17 3.17 0 00-2.218.9 3.045 3.045 0 00-.92 2.175c0 .815.331 1.597.92 2.174.588.577 1.386.9 2.219.9a3.17 3.17 0 002.219-.9 3.045 3.045 0 00.919-2.174 3.049 3.049 0 00-.92-2.174 3.177 3.177 0 00-2.218-.901zm0 4.92c-.499 0-.978-.195-1.33-.54a1.827 1.827 0 01-.552-1.305c0-.49.198-.959.551-1.305.353-.346.832-.54 1.332-.54.499 0 .978.194 1.331.54.353.346.551.816.551 1.305s-.198.958-.551 1.304c-.353.346-.832.54-1.331.54zm12.552-4.92c-.832 0-1.63.324-2.219.9a3.045 3.045 0 00-.919 2.175c0 .815.331 1.597.92 2.174.588.577 1.386.9 2.218.9.832 0 1.63-.323 2.22-.9a3.045 3.045 0 00.918-2.174 3.05 3.05 0 00-.92-2.174 3.177 3.177 0 00-2.218-.901zm0 4.92c-.499 0-.978-.195-1.331-.54a1.827 1.827 0 01-.551-1.305c0-.49.198-.959.551-1.305.353-.346.832-.54 1.331-.54.5 0 .979.194 1.332.54.353.346.551.816.551 1.305s-.198.958-.551 1.304c-.353.346-.832.54-1.332.54z"/></mask><path d="M33.566 6.843a1.89 1.89 0 00-1.451-.67H6.409L5.581 2.12a1.844 1.844 0 00-.653-1.064 1.91 1.91 0 00-1.192-.42H1.628A.621.621 0 001 1.254c0 .34.281.615.628.615h2.108c.299 0 .556.205.616.492L8.139 20.92a3.073 3.073 0 001.089 1.773c.56.45 1.262.697 1.986.7h17.211a3.183 3.183 0 001.998-.706 3.068 3.068 0 001.084-1.789l2.46-12.532a1.81 1.81 0 00-.4-1.522zm-.835 1.291l-2.46 12.532c-.082.42-.311.8-.648 1.073-.337.273-.76.422-1.198.423H11.217a1.911 1.911 0 01-1.193-.42 1.844 1.844 0 01-.654-1.064L6.661 7.403h25.454c.187 0 .365.082.484.223.12.142.168.328.132.508zm-19.18 18.183a3.17 3.17 0 00-2.218.9 3.045 3.045 0 00-.92 2.175c0 .815.331 1.597.92 2.174.588.577 1.386.9 2.219.9a3.17 3.17 0 002.219-.9 3.045 3.045 0 00.919-2.174 3.049 3.049 0 00-.92-2.174 3.177 3.177 0 00-2.218-.901zm0 4.92c-.499 0-.978-.195-1.33-.54a1.827 1.827 0 01-.552-1.305c0-.49.198-.959.551-1.305.353-.346.832-.54 1.332-.54.499 0 .978.194 1.331.54.353.346.551.816.551 1.305s-.198.958-.551 1.304c-.353.346-.832.54-1.331.54zm12.552-4.92c-.832 0-1.63.324-2.219.9a3.045 3.045 0 00-.919 2.175c0 .815.331 1.597.92 2.174.588.577 1.386.9 2.218.9.832 0 1.63-.323 2.22-.9a3.045 3.045 0 00.918-2.174 3.05 3.05 0 00-.92-2.174 3.177 3.177 0 00-2.218-.901zm0 4.92c-.499 0-.978-.195-1.331-.54a1.827 1.827 0 01-.551-1.305c0-.49.198-.959.551-1.305.353-.346.832-.54 1.331-.54.5 0 .979.194 1.332.54.353.346.551.816.551 1.305s-.198.958-.551 1.304c-.353.346-.832.54-1.332.54z" fill="#fff"/><path d="M33.566 6.843a1.89 1.89 0 00-1.451-.67H6.409L5.581 2.12a1.844 1.844 0 00-.653-1.064 1.91 1.91 0 00-1.192-.42H1.628A.621.621 0 001 1.254c0 .34.281.615.628.615h2.108c.299 0 .556.205.616.492L8.139 20.92a3.073 3.073 0 001.089 1.773c.56.45 1.262.697 1.986.7h17.211a3.183 3.183 0 001.998-.706 3.068 3.068 0 001.084-1.789l2.46-12.532a1.81 1.81 0 00-.4-1.522zm-.835 1.291l-2.46 12.532c-.082.42-.311.8-.648 1.073-.337.273-.76.422-1.198.423H11.217a1.911 1.911 0 01-1.193-.42 1.844 1.844 0 01-.654-1.064L6.661 7.403h25.454c.187 0 .365.082.484.223.12.142.168.328.132.508zm-19.18 18.183a3.17 3.17 0 00-2.218.9 3.045 3.045 0 00-.92 2.175c0 .815.331 1.597.92 2.174.588.577 1.386.9 2.219.9a3.17 3.17 0 002.219-.9 3.045 3.045 0 00.919-2.174 3.049 3.049 0 00-.92-2.174 3.177 3.177 0 00-2.218-.901zm0 4.92c-.499 0-.978-.195-1.33-.54a1.827 1.827 0 01-.552-1.305c0-.49.198-.959.551-1.305.353-.346.832-.54 1.332-.54.499 0 .978.194 1.331.54.353.346.551.816.551 1.305s-.198.958-.551 1.304c-.353.346-.832.54-1.331.54zm12.552-4.92c-.832 0-1.63.324-2.219.9a3.045 3.045 0 00-.919 2.175c0 .815.331 1.597.92 2.174.588.577 1.386.9 2.218.9.832 0 1.63-.323 2.22-.9a3.045 3.045 0 00.918-2.174 3.05 3.05 0 00-.92-2.174 3.177 3.177 0 00-2.218-.901zm0 4.92c-.499 0-.978-.195-1.331-.54a1.827 1.827 0 01-.551-1.305c0-.49.198-.959.551-1.305.353-.346.832-.54 1.331-.54.5 0 .979.194 1.332.54.353.346.551.816.551 1.305s-.198.958-.551 1.304c-.353.346-.832.54-1.332.54z" stroke="#fff" mask="url(#a)"/></svg>