<svg width="81" height="75" fill="none" xmlns="http://www.w3.org/2000/svg"><path d="M36.289 35.062h-3.64l-3.256-4.905h-.767v4.905h-3.052V22.91h3.052v4.953c.479-.022.835-.128 1.07-.318.239-.19.521-.61.848-1.257.092-.19.198-.416.318-.677l.327-.686c.353-.734.783-1.256 1.289-1.567.511-.315 1.183-.473 2.016-.473.272 0 .497.006.677.016.18.006.318.009.416.009v2.603h-.702a1.39 1.39 0 00-.914.326c-.255.212-.516.64-.783 1.281-.212.512-.413.9-.604 1.167-.185.261-.359.438-.522.53l4.227 6.244zm10.34-6.251c0 2.045-.547 3.64-1.641 4.782-1.088 1.137-2.562 1.705-4.423 1.705a8.43 8.43 0 01-2.424-.334c-.74-.224-1.294-.425-1.664-.604v-2.75h.285c.104.092.278.236.523.432.25.19.495.348.734.474.316.163.653.296 1.012.4a4.385 4.385 0 002.277.008 2.85 2.85 0 001.036-.515 3.24 3.24 0 00.824-.979c.229-.397.373-.917.433-1.558h-4.84v-2.318h4.774c-.081-.479-.223-.884-.424-1.216a2.768 2.768 0 00-.75-.832 2.93 2.93 0 00-.947-.457 3.925 3.925 0 00-2.179.016 5.44 5.44 0 00-.988.4 4.892 4.892 0 00-.775.514c-.217.174-.389.313-.514.416h-.318v-2.774a10.015 10.015 0 011.828-.662 8.745 8.745 0 012.31-.285c1.784 0 3.203.552 4.259 1.657 1.06 1.098 1.591 2.592 1.591 4.48zm17.503 6.25H48.44v-12.15h3.044v9.857h3.28v-9.857h3.044v9.857h3.28v-9.857h3.044v12.15zM37.735 48.955c0 .593-.114 1.14-.342 1.64-.224.495-.53.9-.923 1.216a4.344 4.344 0 01-1.517.8c-.539.152-1.197.228-1.975.228h-4.995V40.69h8.83v2.317H31.02v2.244h2.008c.729 0 1.382.054 1.958.163a3.46 3.46 0 011.55.694c.42.326.724.737.915 1.232.19.49.285 1.028.285 1.616zm-3.15.09c0-.202-.021-.392-.065-.572a1.082 1.082 0 00-.286-.497 1.54 1.54 0 00-.603-.351c-.256-.087-.61-.13-1.061-.13h-1.55v3.092h1.55c.625 0 1.118-.133 1.477-.4.359-.266.538-.647.538-1.142zm14.224-2.457c0 2.046-.547 3.64-1.64 4.782-1.088 1.138-2.563 1.706-4.423 1.706-.87 0-1.678-.111-2.424-.335-.74-.223-1.295-.424-1.665-.603v-2.75h.286c.103.092.278.236.522.432.25.19.495.348.735.473.315.163.653.297 1.012.4a4.385 4.385 0 002.276.008 2.85 2.85 0 001.037-.514c.326-.255.601-.582.824-.98.229-.396.373-.916.433-1.558h-4.84v-2.317h4.774c-.081-.479-.223-.884-.424-1.216a2.768 2.768 0 00-.75-.833 2.933 2.933 0 00-.948-.457 3.925 3.925 0 00-2.179.016 5.43 5.43 0 00-.987.4 4.963 4.963 0 00-.775.515c-.218.174-.389.313-.514.416h-.318v-2.775a10.004 10.004 0 011.828-.66 8.742 8.742 0 012.309-.286c1.785 0 3.204.552 4.26 1.656 1.06 1.1 1.591 2.593 1.591 4.48zm12.526 6.251h-3.64l-3.255-4.904h-.767v4.904H50.62V40.69h3.052v4.953c.478-.022.835-.128 1.069-.319.24-.19.522-.609.849-1.256.092-.19.198-.416.318-.678.125-.26.234-.49.326-.685.354-.734.784-1.257 1.29-1.567.51-.315 1.183-.473 2.015-.473.272 0 .498.005.678.016.179.006.318.008.416.008v2.604h-.702c-.348 0-.653.108-.914.326-.256.212-.517.64-.784 1.281-.212.512-.413.9-.603 1.167-.185.261-.36.438-.523.53l4.227 6.243z" fill="#231F20"/><path fill-rule="evenodd" clip-rule="evenodd" d="M43.912 74.242c20.48 0 37.081-16.602 37.081-37.082S64.391.08 43.912.08c-9.876 0-18.85 3.86-25.495 10.154a34.85 34.85 0 0122.35-8.066c19.325 0 34.992 15.666 34.992 34.992 0 19.326-15.667 34.992-34.993 34.992a34.85 34.85 0 01-22.352-8.068c6.646 6.296 15.62 10.158 25.498 10.158z" fill="#F58220"/><path fill-rule="evenodd" clip-rule="evenodd" d="M43.917 74.242c20.48 0 37.081-16.602 37.081-37.082S64.397.08 43.918.08c-4.015 0-7.88.637-11.5 1.816 2.359-.037 4.766.051 7.106.137 1.868.068 3.694.135 5.418.135 17.018 0 30.814 14.497 30.814 32.38 0 17.884-13.796 32.382-30.814 32.382S16.74 52.432 16.74 34.549c0-1.036-2.598-1.043-5.378-1.051-1.52-.005-3.095-.01-4.33-.182a37.51 37.51 0 00-.196 3.844c0 20.48 16.602 37.082 37.081 37.082z" fill="#F58220"/><path d="M13.858 19.749l7.773 17.796L.923 34.233 13.858 19.75z" fill="#F58220"/></svg>