<svg width="20" height="20" fill="none" xmlns="http://www.w3.org/2000/svg"><mask id="a" maskUnits="userSpaceOnUse" x="-.625" y=".18" width="20" height="2" fill="#000"><path fill="#fff" d="M-.625.18h20v2h-20z"/><path d="M.375 1.581a.4.4 0 01.401-.4h17.28a.401.401 0 110 .802H.776a.401.401 0 01-.401-.402z"/></mask><path d="M.375 1.581a.4.4 0 01.401-.4h17.28a.401.401 0 110 .802H.776a.401.401 0 01-.401-.402z" fill="#959699"/><path d="M.375 1.581a.4.4 0 01.401-.4h17.28a.401.401 0 110 .802H.776a.401.401 0 01-.401-.402z" stroke="#959699" stroke-width=".3" mask="url(#a)"/><mask id="b" maskUnits="userSpaceOnUse" x="-.625" y="4.193" width="9" height="2" fill="#000"><path fill="#fff" d="M-.625 4.193h9v2h-9z"/><path d="M.375 5.594c0-.222.18-.401.401-.401H7.05a.401.401 0 110 .802H.776a.401.401 0 01-.401-.401z"/></mask><path d="M.375 5.594c0-.222.18-.401.401-.401H7.05a.401.401 0 110 .802H.776a.401.401 0 01-.401-.401z" fill="#959699"/><path d="M.375 5.594c0-.222.18-.401.401-.401H7.05a.401.401 0 110 .802H.776a.401.401 0 01-.401-.401z" stroke="#959699" stroke-width=".3" mask="url(#b)"/><mask id="c" maskUnits="userSpaceOnUse" x="-.625" y="8.205" width="7" height="2" fill="#000"><path fill="#fff" d="M-.625 8.205h7v2h-7z"/><path d="M.375 9.606a.4.4 0 01.401-.4h4.7a.401.401 0 010 .802h-4.7a.401.401 0 01-.401-.402z"/></mask><path d="M.375 9.606a.4.4 0 01.401-.4h4.7a.401.401 0 010 .802h-4.7a.401.401 0 01-.401-.402z" fill="#959699"/><path d="M.375 9.606a.4.4 0 01.401-.4h4.7a.401.401 0 010 .802h-4.7a.401.401 0 01-.401-.402z" stroke="#959699" stroke-width=".3" mask="url(#c)"/><mask id="d" maskUnits="userSpaceOnUse" x="-.625" y="12.218" width="7" height="2" fill="#000"><path fill="#fff" d="M-.625 12.218h7v2h-7z"/><path d="M.375 13.619c0-.222.18-.401.401-.401h4.7a.401.401 0 110 .802h-4.7a.401.401 0 01-.401-.401z"/></mask><path d="M.375 13.619c0-.222.18-.401.401-.401h4.7a.401.401 0 110 .802h-4.7a.401.401 0 01-.401-.401z" fill="#959699"/><path d="M.375 13.619c0-.222.18-.401.401-.401h4.7a.401.401 0 110 .802h-4.7a.401.401 0 01-.401-.401z" stroke="#959699" stroke-width=".3" mask="url(#d)"/><mask id="e" maskUnits="userSpaceOnUse" x="7.025" y="3.39" width="13" height="13" fill="#000"><path fill="#fff" d="M7.025 3.39h13v13h-13z"/><path d="M13.643 15.625a5.624 5.624 0 01-5.618-5.617 5.624 5.624 0 015.617-5.618 5.624 5.624 0 015.618 5.618 5.624 5.624 0 01-5.618 5.617zm0-10.432a4.82 4.82 0 00-4.815 4.815 4.82 4.82 0 004.815 4.814 4.82 4.82 0 004.814-4.814 4.82 4.82 0 00-4.815-4.815z"/></mask><path d="M13.643 15.625a5.624 5.624 0 01-5.618-5.617 5.624 5.624 0 015.617-5.618 5.624 5.624 0 015.618 5.618 5.624 5.624 0 01-5.618 5.617zm0-10.432a4.82 4.82 0 00-4.815 4.815 4.82 4.82 0 004.815 4.814 4.82 4.82 0 004.814-4.814 4.82 4.82 0 00-4.815-4.815z" fill="#959699"/><path d="M13.643 15.625a5.624 5.624 0 01-5.618-5.617 5.624 5.624 0 015.617-5.618 5.624 5.624 0 015.618 5.618 5.624 5.624 0 01-5.618 5.617zm0-10.432a4.82 4.82 0 00-4.815 4.815 4.82 4.82 0 004.815 4.814 4.82 4.82 0 004.814-4.814 4.82 4.82 0 00-4.815-4.815z" stroke="#959699" stroke-width=".3" mask="url(#e)"/><mask id="f" maskUnits="userSpaceOnUse" x="4.828" y="13.231" width="6" height="6" fill="#000"><path fill="#fff" d="M4.828 13.231h6v6h-6z"/><path d="M5.112 18.536a.401.401 0 010-.567l4.454-4.454a.401.401 0 01.567.568l-4.454 4.453a.401.401 0 01-.567 0z"/></mask><path d="M5.112 18.536a.401.401 0 010-.567l4.454-4.454a.401.401 0 01.567.568l-4.454 4.453a.401.401 0 01-.567 0z" fill="#959699"/><path d="M5.112 18.536a.401.401 0 010-.567l4.454-4.454a.401.401 0 01.567.568l-4.454 4.453a.401.401 0 01-.567 0z" stroke="#959699" stroke-width=".3" mask="url(#f)"/></svg>