<svg width="24" height="24" fill="none" xmlns="http://www.w3.org/2000/svg"><path d="M12 3c-1.99 0-3.897.776-5.303 2.157A7.296 7.296 0 004.5 10.364C4.5 16.909 12 21 12 21s7.5-4.09 7.5-10.636c0-1.953-.79-3.826-2.197-5.207A7.571 7.571 0 0012 3zm0 10.636a3.38 3.38 0 01-1.852-.551 3.286 3.286 0 01-1.228-1.469 3.218 3.218 0 01-.19-1.89 3.255 3.255 0 01.913-1.677 3.353 3.353 0 011.707-.895 3.39 3.39 0 011.926.186c.609.248 1.13.667 1.496 1.205a3.235 3.235 0 01-.415 4.133 3.365 3.365 0 01-2.357.958z" fill="#231F20"/></svg>