<svg width="24" height="24" fill="none" xmlns="http://www.w3.org/2000/svg"><path d="M1 23s0-1.512.126-2.303c.103-.625.968-1.45 4.646-2.802 3.621-1.329 3.398-.681 3.398-3.128 0-1.587-.808-.664-1.324-3.678-.2-1.186-.36-.395-.796-2.297-.23-.997.155-1.072.109-1.547-.046-.476-.092-.9-.178-1.874C6.878 4.168 7.995 1 12 1s5.122 3.168 5.013 4.377c-.086.968-.132 1.398-.178 1.874-.045.475.338.55.11 1.546-.436 1.897-.597 1.106-.797 2.298-.516 3.013-1.323 2.09-1.323 3.678 0 2.452-.224 1.805 3.397 3.128 3.678 1.346 4.549 2.177 4.646 2.802C23 21.488 23 23 23 23H1z" fill="#F58220"/></svg>