<svg width="172" height="136" fill="none" xmlns="http://www.w3.org/2000/svg"><g clip-path="url(#clip0_1758_432413)" fill-rule="evenodd" clip-rule="evenodd"><path d="M56.04 40.837C27.118 50.962 5.447 76.126.719 106.766H.427C4.517 74.54 26.616 48.135 56.04 37.615v3.221zm49.643-5.42c32.945 8.567 58.34 36.573 62.748 71.355h-.291c-5.108-33.113-30.008-59.824-62.463-68.086v-3.269h.006z" fill="#EE761C"/><path d="M107.101 43.917V32.583h8.499L95.767 15.578l-11.334 9.917 4.077 2.72 7.257-5.549 7.082 5.664v11.334l4.252 4.253z" fill="#C95621"/><path d="M100.013 60.914v-4.253h2.835v4.253h-2.835zm0-9.916h2.835v4.252h-2.835v-4.252zM95.76 56.66h2.835v4.253H95.76V56.66zm0-5.663h2.835v4.252H95.76v-4.252zM98.595 34H87.261v12.75l-4.253 2.836V29.754h1.418L71.159 16.412 57.51 29.754h1.418l.007 30.984-4.26.183V34H44.76l26.087-23.435v-.746h-.4v-.204c.576-.027.44-.312.21-.712-.265-.454-.428-1.038-.72-1.41-.38-.489-.691-.557-1.16-1.317-.854-1.37.78-2.489.415-3.873-.17.36-.455.258-.685.095-.272-.19-.36-.352-.163-.556a.61.61 0 00.183-.285.59.59 0 01-.21-.122.606.606 0 00.23-.108c-.095-.122-.244-.163-.4-.183.034-.109.115-.156.21-.19-.034-.061-.122-.177-.142-.299-.02-.122.027-.196.102-.244.034-.061.06-.136.081-.203a.51.51 0 00.332-.136c.102.013.251.136.367.075.115-.055.183-.251.38-.075.216.19.149.665.013.882.76.23 1.051.698 1.235 1.58.162.794.101 1.764 1.078 2.028.44.122.889-.414 1.16-.74.488-.576 1.2-1.39 1.987-1.783 1.479-.746 2.584.522 2.144 1.37-.407-1.126-1.615-1.479-2.734-.04.699-.557 2.177-.74 2.157.413-.536-.536-1.506-.55-2.103.197.543-.143 1.35-.258 1.438.38-.42-.21-.922-.156-1.526.074.428.095 1.126.36.862 1.018-.136-.299-.475-.468-.78-.482.21.305.352.617.135 1.058-.06-.237-.17-.475-.346-.583-.04.04-.047.095-.04.156.06.393.047 1.044-.306 1.289.055-.272.048-.53 0-.767-.04.373-.176.74-.407.95.061-.278.095-.61-.027-.848.014.264-.013.624-.183.827a.491.491 0 00-.102-.312c-.162.346-.481.638-.834.882-.163.116-.4.34-.522.577-.13.264-.658 1.41.034 1.438v.17h-.394v.712l27.166 23.468.013.014zM71.043 9.188c.109.353.034.59.34-.59.162-.617-.774-.855-.34.59z" fill="#90241F"/><path d="M114.182 56.66v4.253h-4.253v-8.499h2.836l-14.17-12.751-14.169 12.751h2.835v8.5h-4.253V56.66h-9.916l25.503-22.668L124.1 56.66h-9.917zm-42.5-21.25h2.834v4.253h-2.835V35.41zm0-5.67h2.834v4.252h-2.835V29.74zm-4.254 5.67h2.835v4.253h-2.835V35.41zm0-5.67h2.835v4.252h-2.835V29.74zm58.36 63.678c.427 1.24 1.024 2.177 1.79 2.814h-9.041c.475-.529.936-1.227 1.39-2.102v-4.151c-1.377.06-2.774 1.37-4.32 3.839-2.422 3.86-6.173 4.178-9.062.787 2.489-1.784 3.296-4.3 6.131-5.99-4.361-1.492-5.433-7.732-2.021-10.574 3.412-2.849 10.249-1.248 13.688-1.248h3.066c-.726.637-1.269 1.634-1.628 2.998v13.64l.007-.013zm-5.854-13.125c-1.533-.238-5.67-.814-5.501 3.194.136 3.243 3.487 2.7 5.501 2.55v-5.744zm-23.842 16.78c-6.213 0-11.245-4.68-11.245-10.459s5.032-10.459 11.245-10.459c6.214 0 11.246 4.68 11.246 10.46 0 5.778-5.039 10.459-11.246 10.459zm-.067-16.923c-2.55 0-4.626 2.863-4.626 6.39 0 3.527 2.069 6.39 4.626 6.39 2.557 0 4.625-2.863 4.625-6.39 0-3.527-2.068-6.39-4.625-6.39zM81.61 94.774c-3.826 2.924-10.276 1.465-14.698 1.465h-3.181c.807-.766 1.376-1.736 1.695-2.916V79.655c-.244-1.153-.685-2.11-1.322-2.862h3.031c6.16 0 11.22-1.553 13.797 1.2 1.96 2.09 1.716 5.698-.57 7.082 4.361 1.214 4.734 7.04 1.248 9.706v-.007zM71.28 80.177v4.26c2.069.109 5.507.509 5.65-1.892.17-2.971-4.07-2.544-5.65-2.368zm0 7.99v4.254c1.933.352 6.416.888 6.627-1.839.237-3.133-4.6-2.462-6.627-2.421v.007zM56.637 80.68v13.139c.38.848 1.017 1.655 1.906 2.415h-9.666c.889-.76 1.52-1.567 1.906-2.415v-13.14c-2.55-.176-4.287.245-5.202 1.262-.618-.678-1.052-2.394-1.303-5.148h18.87c-.25 2.754-.678 4.476-1.302 5.148-.923-1.017-2.659-1.438-5.203-1.262h-.006z" fill="#EE761C"/><path d="M169.883 129.841c.387.976 1.051 1.75 1.974 2.143h-9.788c.38-1.282.095-2.7-.854-4.26h-8.52c-1.038 1.954-1.465 3.371-1.275 4.26h-7.787c.794-.387 1.567-.929 1.947-1.865l6.763-16.686c.549-1.357.244-2.544-.373-3.344h11.741c-.529.99-.787 2.13-.346 3.242l6.525 16.503-.007.007zm-12.82-15.309l-3.038 8.817h6.016l-2.984-8.817h.006zm-12.697 10.296a8.456 8.456 0 01-.17 1.492c-1.689 7.774-15.105 5.657-19.399 5.657h-3.513c.827-.712 1.451-1.838 1.865-3.371V113.25c-.488-1.397-1.173-2.449-2.055-3.168h22.18c-.59 2.924-1.004 4.307-1.804 5.304-1.499-2.021-7.584-1.58-11.613-1.397v4.083c5.067-.04 14.712-1.682 14.509 6.749v.007zm-14.509 2.523c1.757.272 7.638 1.181 7.421-2.909-.176-3.351-5.114-2.388-7.421-2.225v5.134zm-19.27 5.02c-3.466.162-7.217-.394-9.591-.394h-3.513c.828-.712 1.451-1.838 1.865-3.371V113.25c-.488-1.397-1.173-2.449-2.055-3.168h10.357c-.542.597-1.071 1.384-1.594 2.367v4.199c13.532-2.32 14.936 4.565 14.801 7.475-.285 6.064-6.254 8.044-10.276 8.234l.006.014zm-4.524-11.667v6.464c1.757.272 7.841 1.364 7.685-3.595-.115-3.825-5.379-3.038-7.685-2.876v.007zM91.84 135.999v-4.497H75.066v2.605c-.685 1.174-2.306 1.811-4.877 1.892v-4.015h-9.591c.38-1.282.095-2.7-.855-4.26h-8.519c-1.038 1.954-1.465 3.371-1.275 4.26h-7.787c.794-.387 1.567-.929 1.947-1.865l6.762-16.686c.55-1.357.244-2.544-.373-3.344H62.24c-.529.99-.786 2.13-.346 3.242l6.525 16.503c.36.902.957 1.635 1.77 2.048v-4.985h2.232l5.46-13.471c.55-1.356.245-2.543-.373-3.344H89.25c-.53.991-.787 2.13-.346 3.242l5.365 13.566h2.448v7.204c-.685 1.173-2.306 1.811-4.87 1.892l-.006.013zm-36.248-21.467l-3.039 8.817h6.017l-2.985-8.817h.007zm27.01 0l-4.26 12.372h8.444l-4.185-12.372zm-52.052 1.492c-2.15 2.367-2.286 6.708-.482 9.455 2.408 3.663 8.37 2.903 11.714-.257v4.564a12.399 12.399 0 01-8.275 3.127c-6.735 0-12.195-5.27-12.195-11.775 0-6.504 5.46-11.775 12.195-11.775 3.86 0 7.299 1.73 9.537 4.429l-3.893 4.443c-1.133-4.585-5.807-5.29-8.601-2.218v.007zm-15.418 11.07c-1.254 3.235-3.777 5.311-6.769 5.521-1.662.115-3.466-.339-5.433-1.804l.197-5.623c1.546 2.597 4.734 4.341 6.722 1.316l-7.455-13.668c-.583-1.072-1.322-2.021-2.394-2.747h9.584c-.44.8-.732 1.777-.292 2.659l3.33 6.728 2.673-7.21c.23-.63.109-1.675-.217-2.17h8.16c-1.214.739-2.218 1.757-2.767 3.181L15.126 127.1l.007-.006z" fill="#90241F"/></g><defs><clipPath id="clip0_1758_432413"><path fill="#fff" d="M0 0h172v136H0z"/></clipPath></defs></svg>