<svg width="26" height="25" fill="none" xmlns="http://www.w3.org/2000/svg"><mask id="a" fill="#fff"><path d="M21.843 16.05a12.56 12.56 0 00-4.75-2.83c1.894-1.24 3.137-3.313 3.137-5.657C20.23 3.778 16.99.7 13.005.7 9.021.7 5.78 3.78 5.78 7.563c0 2.344 1.244 4.418 3.137 5.656a12.561 12.561 0 00-4.749 2.83C2.051 18.06.788 20.666.55 23.47c-.046.537.396.976.935.976.54 0 .971-.439 1.026-.976.518-5.067 5.027-9.042 10.495-9.042 5.469 0 9.978 3.975 10.496 9.043.054.536.486.975 1.025.975.54 0 .981-.439.936-.976-.239-2.803-1.503-5.409-3.62-7.42zm-8.838-3.478c-2.907 0-5.272-2.247-5.272-5.009 0-2.762 2.365-5.009 5.272-5.009s5.273 2.247 5.273 5.01c0 2.761-2.365 5.008-5.273 5.008z"/></mask><path d="M21.843 16.05a12.56 12.56 0 00-4.75-2.83c1.894-1.24 3.137-3.313 3.137-5.657C20.23 3.778 16.99.7 13.005.7 9.021.7 5.78 3.78 5.78 7.563c0 2.344 1.244 4.418 3.137 5.656a12.561 12.561 0 00-4.749 2.83C2.051 18.06.788 20.666.55 23.47c-.046.537.396.976.935.976v0c.54 0 .971-.439 1.026-.976.518-5.067 5.027-9.042 10.495-9.042 5.469 0 9.978 3.975 10.496 9.043.054.536.486.975 1.025.975v0c.54 0 .981-.439.936-.976-.239-2.803-1.503-5.409-3.62-7.42zm-8.838-3.478c-2.907 0-5.272-2.247-5.272-5.009 0-2.762 2.365-5.009 5.272-5.009s5.273 2.247 5.273 5.01c0 2.761-2.365 5.008-5.273 5.008z" fill="#F58220" stroke="#fff" stroke-width=".4" mask="url(#a)"/></svg>