<svg width="64" height="64" fill="none" xmlns="http://www.w3.org/2000/svg"><g clip-path="url(#clip0_1529_449820)"><path d="M54.629 9.373C48.836 3.58 40.83 0 32.009 0A31.915 31.915 0 009.37 9.373C3.596 15.167 0 23.176 0 32c0 8.842 3.596 16.833 9.37 22.627A31.913 31.913 0 0032.01 64c8.821 0 16.827-3.58 22.62-9.373C60.404 48.833 64 40.842 64 32c0-8.824-3.596-16.833-9.371-22.627z" fill="#999"/><path fill-rule="evenodd" clip-rule="evenodd" d="M31.613 41.912h2.152s.65-.073.982-.439c.306-.335.296-.966.296-.966S35 37.554 36.34 37.12c1.32-.429 3.017 2.853 4.815 4.115 1.36.955 2.393.745 2.393.745l4.808-.068s2.515-.158 1.322-2.18c-.098-.166-.694-1.496-3.574-4.23-3.015-2.86-2.611-2.398 1.02-7.347 2.212-3.013 3.096-4.854 2.82-5.642-.264-.75-1.89-.552-1.89-.552l-5.413.035s-.402-.056-.7.126c-.29.178-.477.594-.477.594s-.857 2.332-2 4.316c-2.41 4.185-3.374 4.406-3.768 4.146-.916-.606-.688-2.433-.688-3.732 0-4.056.602-5.747-1.17-6.184-.59-.146-1.022-.242-2.527-.257-1.932-.02-3.566.006-4.492.47-.616.308-1.09.995-.802 1.034.358.05 1.168.224 1.598.822.555.772.535 2.505.535 2.505s.319 4.774-.744 5.367c-.73.407-1.73-.424-3.88-4.22-1.1-1.945-1.932-4.095-1.932-4.095s-.16-.402-.446-.617c-.347-.26-.832-.343-.832-.343l-5.144.034s-.772.022-1.056.366c-.252.305-.02.937-.02.937s4.028 9.633 8.587 14.488c4.181 4.451 8.93 4.16 8.93 4.16z" fill="#fff"/></g><defs><clipPath id="clip0_1529_449820"><path fill="#fff" d="M0 0h64v64H0z"/></clipPath></defs></svg>