<svg width="29" height="25" viewBox="0 0 29 25" fill="none" xmlns="http://www.w3.org/2000/svg">
	<mask id="path-1-outside-1_1529_366034" maskUnits="userSpaceOnUse" x="1.23242" y="0.188477" width="27" height="25" fill="black">
		<rect fill="white" x="1.23242" y="0.188477" width="27" height="25" />
		<path d="M26.4485 5.62076C26.1831 5.317 25.7871 5.14129 25.3692 5.14188H6.25466L5.63904 2.24801C5.57487 1.94975 5.40341 1.68129 5.15342 1.48832C4.90342 1.29515 4.59027 1.18926 4.26697 1.18848H2.69909C2.44138 1.18848 2.23242 1.38517 2.23242 1.62774C2.23242 1.87031 2.44138 2.067 2.69909 2.067H4.26697C4.48905 2.06681 4.68051 2.21369 4.72488 2.41841L7.54113 15.6751C7.648 16.1724 7.93383 16.6197 8.35051 16.9414C8.76696 17.2632 9.28885 17.4397 9.82778 17.441H22.6256C23.1678 17.4404 23.6931 17.2624 24.111 16.9374C24.5291 16.6123 24.8139 16.1605 24.9168 15.6595L26.7457 6.70804C26.8247 6.32192 26.7156 5.92312 26.4485 5.62076ZM25.8275 6.54321L23.9985 15.4941C23.9371 15.7946 23.7665 16.0656 23.516 16.2607C23.2654 16.4556 22.9506 16.5625 22.6256 16.5629H9.82947C9.50593 16.5621 9.19262 16.4564 8.94259 16.2633C8.69239 16.0703 8.52072 15.8018 8.45656 15.5034L6.44201 6.0208H25.3693C25.5085 6.0208 25.6406 6.07924 25.7291 6.18043C25.8179 6.28142 25.8537 6.41457 25.8275 6.54321ZM11.5657 19.5307C10.9469 19.5307 10.3535 19.7621 9.9157 20.1739C9.47821 20.5859 9.2324 21.1446 9.2324 21.727C9.2324 22.3095 9.47823 22.8681 9.9157 23.2802C10.3534 23.692 10.9469 23.9234 11.5657 23.9234C12.1845 23.9234 12.778 23.692 13.2157 23.2802C13.6532 22.8682 13.899 22.3095 13.899 21.727C13.8982 21.1448 13.6522 20.5865 13.2149 20.1747C12.7774 19.7631 12.1843 19.5315 11.5657 19.5307ZM11.5657 23.0448C11.1945 23.0448 10.8382 22.906 10.5758 22.6589C10.3133 22.4118 10.1658 22.0765 10.1658 21.7271C10.1658 21.3777 10.3133 21.0423 10.5758 20.7952C10.8383 20.5482 11.1945 20.4093 11.5657 20.4093C11.9369 20.4093 12.2932 20.5481 12.5557 20.7952C12.8181 21.0423 12.9657 21.3777 12.9657 21.7271C12.9657 22.0765 12.8182 22.4119 12.5557 22.6589C12.2932 22.9059 11.9369 23.0448 11.5657 23.0448ZM20.899 19.5307C20.2802 19.5307 19.6867 19.7621 19.249 20.1739C18.8115 20.5859 18.5657 21.1446 18.5657 21.727C18.5657 22.3095 18.8115 22.8681 19.249 23.2802C19.6867 23.692 20.2802 23.9234 20.899 23.9234C21.5178 23.9234 22.1112 23.692 22.549 23.2802C22.9865 22.8682 23.2323 22.3095 23.2323 21.727C23.2315 21.1448 22.9854 20.5865 22.5481 20.1747C22.1107 19.7631 21.5175 19.5315 20.899 19.5307ZM20.899 23.0448C20.5277 23.0448 20.1715 22.906 19.909 22.6589C19.6466 22.4118 19.499 22.0765 19.499 21.7271C19.499 21.3777 19.6465 21.0423 19.909 20.7952C20.1715 20.5482 20.5278 20.4093 20.899 20.4093C21.2702 20.4093 21.6265 20.5481 21.889 20.7952C22.1514 21.0423 22.299 21.3777 22.299 21.7271C22.299 22.0765 22.1515 22.4119 21.889 22.6589C21.6265 22.9059 21.2702 23.0448 20.899 23.0448Z" />
	</mask>
	<path d="M26.4485 5.62076C26.1831 5.317 25.7871 5.14129 25.3692 5.14188H6.25466L5.63904 2.24801C5.57487 1.94975 5.40341 1.68129 5.15342 1.48832C4.90342 1.29515 4.59027 1.18926 4.26697 1.18848H2.69909C2.44138 1.18848 2.23242 1.38517 2.23242 1.62774C2.23242 1.87031 2.44138 2.067 2.69909 2.067H4.26697C4.48905 2.06681 4.68051 2.21369 4.72488 2.41841L7.54113 15.6751C7.648 16.1724 7.93383 16.6197 8.35051 16.9414C8.76696 17.2632 9.28885 17.4397 9.82778 17.441H22.6256C23.1678 17.4404 23.6931 17.2624 24.111 16.9374C24.5291 16.6123 24.8139 16.1605 24.9168 15.6595L26.7457 6.70804C26.8247 6.32192 26.7156 5.92312 26.4485 5.62076ZM25.8275 6.54321L23.9985 15.4941C23.9371 15.7946 23.7665 16.0656 23.516 16.2607C23.2654 16.4556 22.9506 16.5625 22.6256 16.5629H9.82947C9.50593 16.5621 9.19262 16.4564 8.94259 16.2633C8.69239 16.0703 8.52072 15.8018 8.45656 15.5034L6.44201 6.0208H25.3693C25.5085 6.0208 25.6406 6.07924 25.7291 6.18043C25.8179 6.28142 25.8537 6.41457 25.8275 6.54321ZM11.5657 19.5307C10.9469 19.5307 10.3535 19.7621 9.9157 20.1739C9.47821 20.5859 9.2324 21.1446 9.2324 21.727C9.2324 22.3095 9.47823 22.8681 9.9157 23.2802C10.3534 23.692 10.9469 23.9234 11.5657 23.9234C12.1845 23.9234 12.778 23.692 13.2157 23.2802C13.6532 22.8682 13.899 22.3095 13.899 21.727C13.8982 21.1448 13.6522 20.5865 13.2149 20.1747C12.7774 19.7631 12.1843 19.5315 11.5657 19.5307ZM11.5657 23.0448C11.1945 23.0448 10.8382 22.906 10.5758 22.6589C10.3133 22.4118 10.1658 22.0765 10.1658 21.7271C10.1658 21.3777 10.3133 21.0423 10.5758 20.7952C10.8383 20.5482 11.1945 20.4093 11.5657 20.4093C11.9369 20.4093 12.2932 20.5481 12.5557 20.7952C12.8181 21.0423 12.9657 21.3777 12.9657 21.7271C12.9657 22.0765 12.8182 22.4119 12.5557 22.6589C12.2932 22.9059 11.9369 23.0448 11.5657 23.0448ZM20.899 19.5307C20.2802 19.5307 19.6867 19.7621 19.249 20.1739C18.8115 20.5859 18.5657 21.1446 18.5657 21.727C18.5657 22.3095 18.8115 22.8681 19.249 23.2802C19.6867 23.692 20.2802 23.9234 20.899 23.9234C21.5178 23.9234 22.1112 23.692 22.549 23.2802C22.9865 22.8682 23.2323 22.3095 23.2323 21.727C23.2315 21.1448 22.9854 20.5865 22.5481 20.1747C22.1107 19.7631 21.5175 19.5315 20.899 19.5307ZM20.899 23.0448C20.5277 23.0448 20.1715 22.906 19.909 22.6589C19.6466 22.4118 19.499 22.0765 19.499 21.7271C19.499 21.3777 19.6465 21.0423 19.909 20.7952C20.1715 20.5482 20.5278 20.4093 20.899 20.4093C21.2702 20.4093 21.6265 20.5481 21.889 20.7952C22.1514 21.0423 22.299 21.3777 22.299 21.7271C22.299 22.0765 22.1515 22.4119 21.889 22.6589C21.6265 22.9059 21.2702 23.0448 20.899 23.0448Z" fill="white" />
	<path d="M26.4485 5.62076C26.1831 5.317 25.7871 5.14129 25.3692 5.14188H6.25466L5.63904 2.24801C5.57487 1.94975 5.40341 1.68129 5.15342 1.48832C4.90342 1.29515 4.59027 1.18926 4.26697 1.18848H2.69909C2.44138 1.18848 2.23242 1.38517 2.23242 1.62774C2.23242 1.87031 2.44138 2.067 2.69909 2.067H4.26697C4.48905 2.06681 4.68051 2.21369 4.72488 2.41841L7.54113 15.6751C7.648 16.1724 7.93383 16.6197 8.35051 16.9414C8.76696 17.2632 9.28885 17.4397 9.82778 17.441H22.6256C23.1678 17.4404 23.6931 17.2624 24.111 16.9374C24.5291 16.6123 24.8139 16.1605 24.9168 15.6595L26.7457 6.70804C26.8247 6.32192 26.7156 5.92312 26.4485 5.62076ZM25.8275 6.54321L23.9985 15.4941C23.9371 15.7946 23.7665 16.0656 23.516 16.2607C23.2654 16.4556 22.9506 16.5625 22.6256 16.5629H9.82947C9.50593 16.5621 9.19262 16.4564 8.94259 16.2633C8.69239 16.0703 8.52072 15.8018 8.45656 15.5034L6.44201 6.0208H25.3693C25.5085 6.0208 25.6406 6.07924 25.7291 6.18043C25.8179 6.28142 25.8537 6.41457 25.8275 6.54321ZM11.5657 19.5307C10.9469 19.5307 10.3535 19.7621 9.9157 20.1739C9.47821 20.5859 9.2324 21.1446 9.2324 21.727C9.2324 22.3095 9.47823 22.8681 9.9157 23.2802C10.3534 23.692 10.9469 23.9234 11.5657 23.9234C12.1845 23.9234 12.778 23.692 13.2157 23.2802C13.6532 22.8682 13.899 22.3095 13.899 21.727C13.8982 21.1448 13.6522 20.5865 13.2149 20.1747C12.7774 19.7631 12.1843 19.5315 11.5657 19.5307ZM11.5657 23.0448C11.1945 23.0448 10.8382 22.906 10.5758 22.6589C10.3133 22.4118 10.1658 22.0765 10.1658 21.7271C10.1658 21.3777 10.3133 21.0423 10.5758 20.7952C10.8383 20.5482 11.1945 20.4093 11.5657 20.4093C11.9369 20.4093 12.2932 20.5481 12.5557 20.7952C12.8181 21.0423 12.9657 21.3777 12.9657 21.7271C12.9657 22.0765 12.8182 22.4119 12.5557 22.6589C12.2932 22.9059 11.9369 23.0448 11.5657 23.0448ZM20.899 19.5307C20.2802 19.5307 19.6867 19.7621 19.249 20.1739C18.8115 20.5859 18.5657 21.1446 18.5657 21.727C18.5657 22.3095 18.8115 22.8681 19.249 23.2802C19.6867 23.692 20.2802 23.9234 20.899 23.9234C21.5178 23.9234 22.1112 23.692 22.549 23.2802C22.9865 22.8682 23.2323 22.3095 23.2323 21.727C23.2315 21.1448 22.9854 20.5865 22.5481 20.1747C22.1107 19.7631 21.5175 19.5315 20.899 19.5307ZM20.899 23.0448C20.5277 23.0448 20.1715 22.906 19.909 22.6589C19.6466 22.4118 19.499 22.0765 19.499 21.7271C19.499 21.3777 19.6465 21.0423 19.909 20.7952C20.1715 20.5482 20.5278 20.4093 20.899 20.4093C21.2702 20.4093 21.6265 20.5481 21.889 20.7952C22.1514 21.0423 22.299 21.3777 22.299 21.7271C22.299 22.0765 22.1515 22.4119 21.889 22.6589C21.6265 22.9059 21.2702 23.0448 20.899 23.0448Z" stroke="white" mask="url(#path-1-outside-1_1529_366034)" />
</svg>