<svg width="18" height="18" viewBox="0 0 18 18" fill="none" xmlns="http://www.w3.org/2000/svg">
	<path d="M9.00363 1.51172C4.87297 1.51172 1.51562 4.86925 1.51562 8.99972C1.51562 13.1302 4.87315 16.4877 9.00363 16.4877C13.1341 16.4877 16.4916 13.1302 16.4916 8.99972C16.4916 4.86925 13.1341 1.51172 9.00363 1.51172ZM9.00363 2.34379C12.6846 2.34379 15.6596 5.31886 15.6596 8.9998C15.6596 12.6807 12.6846 15.6558 9.00363 15.6558C5.32269 15.6558 2.34763 12.6807 2.34763 8.9998C2.34763 5.31886 5.32269 2.34379 9.00363 2.34379ZM9.00363 4.83976C7.64806 4.83976 6.50766 5.98015 6.50766 7.33572C6.50607 7.44715 6.54916 7.55437 6.62736 7.63373C6.70557 7.7131 6.81221 7.75764 6.92364 7.75764C7.03507 7.75764 7.14171 7.7131 7.21991 7.63373C7.29811 7.55437 7.3412 7.44715 7.33961 7.33572C7.33961 6.45937 8.1273 5.67168 9.00365 5.67168C9.88 5.67168 10.6677 6.45937 10.6677 7.33572C10.6739 8.05711 10.2838 8.4197 9.77061 8.8763C9.51409 9.10466 9.23754 9.33768 9.00368 9.64322C8.7698 9.94878 8.58772 10.3411 8.58772 10.8067V11.0797C8.58613 11.191 8.62922 11.2984 8.70742 11.3778C8.78563 11.457 8.89227 11.5017 9.0037 11.5017C9.11512 11.5017 9.22177 11.457 9.29997 11.3778C9.37817 11.2984 9.42126 11.191 9.41967 11.0797V10.8067C9.41967 10.5393 9.50164 10.3573 9.66023 10.1503C9.81867 9.94325 10.0578 9.72999 10.3232 9.49376C10.8527 9.02249 11.5059 8.38137 11.4997 7.33568V7.32916C11.4961 5.97663 10.3571 4.83973 9.00373 4.83973L9.00363 4.83976ZM9.00363 12.1198C8.65904 12.1198 8.37959 12.3991 8.37959 12.7438C8.37959 13.0884 8.65903 13.3678 9.00363 13.3678C9.34822 13.3678 9.62766 13.0884 9.62766 12.7438C9.62766 12.3991 9.34822 12.1198 9.00363 12.1198Z" fill="#959699" />
</svg>