<svg width="25" height="25" viewBox="0 0 25 25" fill="none" xmlns="http://www.w3.org/2000/svg">
	<path d="M21.3377 3.125H17.1797L17.7005 8.33333C17.7005 8.33333 18.7422 9.375 20.3047 9.375C21.4266 9.375 22.1904 8.83797 22.5321 8.5351C22.6682 8.4144 22.718 8.23011 22.6881 8.05064L21.9542 3.64725C21.904 3.34589 21.6432 3.125 21.3377 3.125Z" stroke="#231F20" stroke-width="1.5" />
	<path d="M17.1797 3.125L17.7005 8.33333C17.7005 8.33333 16.6589 9.375 15.0964 9.375C13.5339 9.375 12.4922 8.33333 12.4922 8.33333V3.125H17.1797Z" stroke="#231F20" stroke-width="1.5" />
	<path d="M12.4935 3.125V8.33333C12.4935 8.33333 11.4518 9.375 9.88932 9.375C8.32682 9.375 7.28516 8.33333 7.28516 8.33333L7.80599 3.125H12.4935Z" stroke="#231F20" stroke-width="1.5" />
	<path d="M7.80588 3.125H3.64783C3.34231 3.125 3.08157 3.34589 3.03134 3.64725L2.29743 8.05065C2.26753 8.23011 2.31735 8.4144 2.4535 8.5351C2.79508 8.83797 3.55895 9.375 4.68086 9.375C6.24336 9.375 7.28505 8.33333 7.28505 8.33333L7.80588 3.125Z" stroke="#231F20" stroke-width="1.5" />
	<path d="M3.125 9.375V19.7917C3.125 20.9423 4.05774 21.875 5.20833 21.875H19.7917C20.9423 21.875 21.875 20.9423 21.875 19.7917V9.375" stroke="#231F20" stroke-width="1.5" />
	<path d="M15.4512 21.8748V15.6248C15.4512 14.4742 14.5185 13.5415 13.3678 13.5415H11.2845C10.1339 13.5415 9.20117 14.4742 9.20117 15.6248V21.8748" stroke="#231F20" stroke-width="1.5" stroke-miterlimit="16" />
</svg>