<svg width="24" height="25" viewBox="0 0 24 25" fill="none" xmlns="http://www.w3.org/2000/svg">
	<mask id="path-1-inside-1_1529_366061" fill="white">
		<path d="M11.6657 1.40796C11.7671 1.34764 11.8818 1.31592 11.9986 1.31592C12.1153 1.31592 12.23 1.34764 12.3314 1.40796L17.3643 4.404C17.467 4.46511 17.5524 4.55342 17.6118 4.65997C17.6712 4.76652 17.7025 4.88754 17.7025 5.01075V10.596L22.3972 13.3921C22.4995 13.453 22.5846 13.5408 22.644 13.6469C22.7034 13.7529 22.7349 13.8733 22.7354 13.996V19.9881C22.7354 20.1113 22.7041 20.2323 22.6447 20.3389C22.5853 20.4454 22.4999 20.5338 22.3972 20.5949L17.3643 23.5909C17.2629 23.6512 17.1482 23.6829 17.0315 23.6829C16.9147 23.6829 16.8 23.6512 16.6986 23.5909L11.9986 20.7948L7.29851 23.5923C7.19714 23.6526 7.08241 23.6843 6.96567 23.6843C6.84892 23.6843 6.7342 23.6526 6.63282 23.5923L1.59993 20.5963C1.49722 20.5351 1.41185 20.4468 1.35245 20.3403C1.29306 20.2337 1.26176 20.1127 1.26172 19.9895V13.9974C1.26176 13.8742 1.29306 13.7532 1.35245 13.6467C1.41185 13.5401 1.49722 13.4518 1.59993 13.3907L6.29461 10.596V5.01075C6.29465 4.88754 6.32595 4.76652 6.38535 4.65997C6.44474 4.55342 6.53012 4.46511 6.63282 4.404L11.6657 1.40796ZM6.96567 11.8067L3.28561 13.9974L6.96567 16.1882L10.6457 13.9974L6.96567 11.8067ZM11.3275 15.2026L7.63672 17.3989V21.7804L11.3275 19.5841V15.2026ZM12.6696 19.5841L16.3604 21.7804V17.3989L12.6696 15.2026V19.5841ZM13.3514 13.9974L17.0315 16.1882L20.7115 13.9974L17.0315 11.8067L13.3514 13.9974ZM16.3604 10.596V6.21448L12.6696 8.41222V12.7937L16.3604 10.596ZM11.3275 12.7937V8.41222L7.63672 6.21448V10.596L11.3275 12.7937ZM8.31851 5.01075L11.9986 7.2015L15.6786 5.01075L11.9986 2.82L8.31851 5.01075ZM21.3933 15.2026L17.7025 17.3989V21.7804L21.3933 19.5841V15.2026ZM6.29461 21.7804V17.3989L2.60382 15.2026V19.5841L6.29461 21.7804Z" />
	</mask>
	<path d="M11.6657 1.40796C11.7671 1.34764 11.8818 1.31592 11.9986 1.31592C12.1153 1.31592 12.23 1.34764 12.3314 1.40796L17.3643 4.404C17.467 4.46511 17.5524 4.55342 17.6118 4.65997C17.6712 4.76652 17.7025 4.88754 17.7025 5.01075V10.596L22.3972 13.3921C22.4995 13.453 22.5846 13.5408 22.644 13.6469C22.7034 13.7529 22.7349 13.8733 22.7354 13.996V19.9881C22.7354 20.1113 22.7041 20.2323 22.6447 20.3389C22.5853 20.4454 22.4999 20.5338 22.3972 20.5949L17.3643 23.5909C17.2629 23.6512 17.1482 23.6829 17.0315 23.6829C16.9147 23.6829 16.8 23.6512 16.6986 23.5909L11.9986 20.7948L7.29851 23.5923C7.19714 23.6526 7.08241 23.6843 6.96567 23.6843C6.84892 23.6843 6.7342 23.6526 6.63282 23.5923L1.59993 20.5963C1.49722 20.5351 1.41185 20.4468 1.35245 20.3403C1.29306 20.2337 1.26176 20.1127 1.26172 19.9895V13.9974C1.26176 13.8742 1.29306 13.7532 1.35245 13.6467C1.41185 13.5401 1.49722 13.4518 1.59993 13.3907L6.29461 10.596V5.01075C6.29465 4.88754 6.32595 4.76652 6.38535 4.65997C6.44474 4.55342 6.53012 4.46511 6.63282 4.404L11.6657 1.40796ZM6.96567 11.8067L3.28561 13.9974L6.96567 16.1882L10.6457 13.9974L6.96567 11.8067ZM11.3275 15.2026L7.63672 17.3989V21.7804L11.3275 19.5841V15.2026ZM12.6696 19.5841L16.3604 21.7804V17.3989L12.6696 15.2026V19.5841ZM13.3514 13.9974L17.0315 16.1882L20.7115 13.9974L17.0315 11.8067L13.3514 13.9974ZM16.3604 10.596V6.21448L12.6696 8.41222V12.7937L16.3604 10.596ZM11.3275 12.7937V8.41222L7.63672 6.21448V10.596L11.3275 12.7937ZM8.31851 5.01075L11.9986 7.2015L15.6786 5.01075L11.9986 2.82L8.31851 5.01075ZM21.3933 15.2026L17.7025 17.3989V21.7804L21.3933 19.5841V15.2026ZM6.29461 21.7804V17.3989L2.60382 15.2026V19.5841L6.29461 21.7804Z" fill="#231F20" stroke="white" stroke-width="0.2" mask="url(#path-1-inside-1_1529_366061)" />
</svg>