<svg width="40" height="38" fill="none" xmlns="http://www.w3.org/2000/svg"><mask id="a" maskUnits="userSpaceOnUse" x="2.077" y="2.772" width="36" height="35" fill="#000"><path fill="#fff" d="M2.077 2.772h36v35h-36z"/><path d="M36.479 10.139a1.939 1.939 0 00-1.49-.688H8.626l-.85-4.157a1.892 1.892 0 00-.669-1.091 1.959 1.959 0 00-1.223-.43H3.721a.637.637 0 00-.644.63c0 .349.288.631.644.631h2.162c.307 0 .57.21.632.505L10.4 24.58a3.153 3.153 0 001.116 1.82 3.265 3.265 0 002.037.717h17.653a3.27 3.27 0 002.049-.723 3.148 3.148 0 001.11-1.836L36.89 11.7a1.858 1.858 0 00-.41-1.562zm-.857 1.325L33.1 24.32c-.084.432-.32.821-.665 1.101-.346.28-.78.434-1.228.434h-17.65a1.96 1.96 0 01-1.223-.43 1.891 1.891 0 01-.67-1.091l-2.78-13.622H34.99c.192 0 .374.084.496.23a.622.622 0 01.136.52zM15.951 30.119c-.854 0-1.672.333-2.276.924a3.124 3.124 0 00-.943 2.231c0 .837.34 1.64.943 2.231a3.252 3.252 0 002.276.924c.853 0 1.672-.332 2.276-.924a3.124 3.124 0 00.942-2.23 3.129 3.129 0 00-.944-2.23 3.258 3.258 0 00-2.274-.926zm0 5.048c-.512 0-1.004-.2-1.366-.554a1.875 1.875 0 01-.565-1.339c0-.502.203-.983.565-1.338a1.952 1.952 0 011.366-.555c.512 0 1.003.2 1.365.555.362.355.566.837.566 1.338 0 .502-.204.984-.566 1.339a1.951 1.951 0 01-1.365.554zm12.873-5.048c-.853 0-1.672.333-2.276.924a3.124 3.124 0 00-.942 2.231c0 .837.339 1.64.942 2.231a3.252 3.252 0 002.276.924 3.25 3.25 0 002.276-.924 3.124 3.124 0 00.942-2.23 3.129 3.129 0 00-.943-2.23 3.257 3.257 0 00-2.275-.926zm0 5.048c-.512 0-1.003-.2-1.365-.554a1.875 1.875 0 01-.566-1.339c0-.502.204-.983.566-1.338a1.951 1.951 0 011.365-.555c.512 0 1.004.2 1.366.555.362.355.565.837.565 1.338 0 .502-.203.984-.565 1.339a1.952 1.952 0 01-1.366.554z"/></mask><path d="M36.479 10.139a1.939 1.939 0 00-1.49-.688H8.626l-.85-4.157a1.892 1.892 0 00-.669-1.091 1.959 1.959 0 00-1.223-.43H3.721a.637.637 0 00-.644.63c0 .349.288.631.644.631h2.162c.307 0 .57.21.632.505L10.4 24.58a3.153 3.153 0 001.116 1.82 3.265 3.265 0 002.037.717h17.653a3.27 3.27 0 002.049-.723 3.148 3.148 0 001.11-1.836L36.89 11.7a1.858 1.858 0 00-.41-1.562zm-.857 1.325L33.1 24.32c-.084.432-.32.821-.665 1.101-.346.28-.78.434-1.228.434h-17.65a1.96 1.96 0 01-1.223-.43 1.891 1.891 0 01-.67-1.091l-2.78-13.622H34.99c.192 0 .374.084.496.23a.622.622 0 01.136.52zM15.951 30.119c-.854 0-1.672.333-2.276.924a3.124 3.124 0 00-.943 2.231c0 .837.34 1.64.943 2.231a3.252 3.252 0 002.276.924c.853 0 1.672-.332 2.276-.924a3.124 3.124 0 00.942-2.23 3.129 3.129 0 00-.944-2.23 3.258 3.258 0 00-2.274-.926zm0 5.048c-.512 0-1.004-.2-1.366-.554a1.875 1.875 0 01-.565-1.339c0-.502.203-.983.565-1.338a1.952 1.952 0 011.366-.555c.512 0 1.003.2 1.365.555.362.355.566.837.566 1.338 0 .502-.204.984-.566 1.339a1.951 1.951 0 01-1.365.554zm12.873-5.048c-.853 0-1.672.333-2.276.924a3.124 3.124 0 00-.942 2.231c0 .837.339 1.64.942 2.231a3.252 3.252 0 002.276.924 3.25 3.25 0 002.276-.924 3.124 3.124 0 00.942-2.23 3.129 3.129 0 00-.943-2.23 3.257 3.257 0 00-2.275-.926zm0 5.048c-.512 0-1.003-.2-1.365-.554a1.875 1.875 0 01-.566-1.339c0-.502.204-.983.566-1.338a1.951 1.951 0 011.365-.555c.512 0 1.004.2 1.366.555.362.355.565.837.565 1.338 0 .502-.203.984-.565 1.339a1.952 1.952 0 01-1.366.554z" fill="#959699"/><path d="M36.479 10.139a1.939 1.939 0 00-1.49-.688H8.626l-.85-4.157a1.892 1.892 0 00-.669-1.091 1.959 1.959 0 00-1.223-.43H3.721a.637.637 0 00-.644.63c0 .349.288.631.644.631h2.162c.307 0 .57.21.632.505L10.4 24.58a3.153 3.153 0 001.116 1.82 3.265 3.265 0 002.037.717h17.653a3.27 3.27 0 002.049-.723 3.148 3.148 0 001.11-1.836L36.89 11.7a1.858 1.858 0 00-.41-1.562zm-.857 1.325L33.1 24.32c-.084.432-.32.821-.665 1.101-.346.28-.78.434-1.228.434h-17.65a1.96 1.96 0 01-1.223-.43 1.891 1.891 0 01-.67-1.091l-2.78-13.622H34.99c.192 0 .374.084.496.23a.622.622 0 01.136.52zM15.951 30.119c-.854 0-1.672.333-2.276.924a3.124 3.124 0 00-.943 2.231c0 .837.34 1.64.943 2.231a3.252 3.252 0 002.276.924c.853 0 1.672-.332 2.276-.924a3.124 3.124 0 00.942-2.23 3.129 3.129 0 00-.944-2.23 3.258 3.258 0 00-2.274-.926zm0 5.048c-.512 0-1.004-.2-1.366-.554a1.875 1.875 0 01-.565-1.339c0-.502.203-.983.565-1.338a1.952 1.952 0 011.366-.555c.512 0 1.003.2 1.365.555.362.355.566.837.566 1.338 0 .502-.204.984-.566 1.339a1.951 1.951 0 01-1.365.554zm12.873-5.048c-.853 0-1.672.333-2.276.924a3.124 3.124 0 00-.942 2.231c0 .837.339 1.64.942 2.231a3.252 3.252 0 002.276.924 3.25 3.25 0 002.276-.924 3.124 3.124 0 00.942-2.23 3.129 3.129 0 00-.943-2.23 3.257 3.257 0 00-2.275-.926zm0 5.048c-.512 0-1.003-.2-1.365-.554a1.875 1.875 0 01-.566-1.339c0-.502.204-.983.566-1.338a1.951 1.951 0 011.365-.555c.512 0 1.004.2 1.366.555.362.355.565.837.565 1.338 0 .502-.203.984-.565 1.339a1.952 1.952 0 01-1.366.554z" stroke="#959699" mask="url(#a)"/></svg>