<svg width="38" height="37" fill="none" xmlns="http://www.w3.org/2000/svg"><path d="M18.526 37a2.211 2.211 0 01-1.432-.523 425.424 425.424 0 00-4.213-3.517l-.007-.006c-3.733-3.088-6.956-5.754-9.199-8.381C1.168 21.636 0 18.85 0 15.809c0-2.955 1.044-5.682 2.94-7.677C4.856 6.112 7.49 5 10.35 5c2.14 0 4.098.656 5.823 1.95.87.654 1.659 1.454 2.353 2.387A11.722 11.722 0 0120.88 6.95C22.604 5.656 24.563 5 26.702 5c2.861 0 5.494 1.112 7.412 3.132 1.895 1.995 2.939 4.722 2.939 7.678 0 3.041-1.168 5.826-3.675 8.762-2.243 2.628-5.466 5.294-9.198 8.382a421.326 421.326 0 00-4.222 3.524 2.213 2.213 0 01-1.432.522zM10.351 7.107c-2.248 0-4.314.87-5.816 2.453-1.525 1.605-2.365 3.825-2.365 6.25 0 2.558.98 4.846 3.176 7.418 2.123 2.487 5.28 5.099 8.936 8.123l.007.005a430.722 430.722 0 014.234 3.536 503.413 503.413 0 014.249-3.542c3.655-3.024 6.812-5.635 8.935-8.122 2.196-2.572 3.175-4.86 3.175-7.419 0-2.424-.84-4.644-2.364-6.25-1.503-1.581-3.568-2.452-5.816-2.452-1.647 0-3.16.508-4.494 1.51-1.19.894-2.019 2.023-2.505 2.814a1.37 1.37 0 01-1.177.649c-.487 0-.927-.243-1.177-.65-.485-.79-1.314-1.92-2.504-2.813-1.335-1.002-2.847-1.51-4.494-1.51z" fill="#959699"/></svg>