<svg width="115" height="100" fill="none" xmlns="http://www.w3.org/2000/svg"><path d="M31.052 44.28v13.366" stroke="#505050" stroke-width="1.6" stroke-miterlimit="10" stroke-linecap="round" stroke-linejoin="round"/><path d="M35.6 43.309l1.943 12.254" stroke="#505050" stroke-width="1.6" stroke-miterlimit="10"/><path d="M49.659 48.55l-.07-11.212-16.94 7.255-3.993-.764a1.449 1.449 0 01-1.18-1.423c0-.451.278-.833.694-1.007l21.142-8.053s.52-6.7 1.18-12.984c.66-6.144 2.048-12.358 2.048-12.358h2.083l.66.867 6.179-1.7s3.333-.869 6.318-.869c5.312 0 8.748 1.493 8.748 1.493l7.047 3.368.799-1.007 2.465.555-.451 12.637-1.424 3.367-.416 12.428 2.29.66v2.152L71.599 52.89l-3.887-.312c-.868-.07-1.597-.625-1.84-1.458l-.104-.347c-.382-1.111.104-2.361 1.11-2.951l13.574-7.776M56.15 47.023l-4.477 1.736" stroke="#505050" stroke-width="1.6" stroke-miterlimit="10" stroke-linecap="round" stroke-linejoin="round"/><path d="M65.767 52.022l-13.678-3.194c-.59-.139-1.18-.035-1.736.104-1.666.417-5.38 1.91-6.77 2.639-6.803 3.61-8.817 6.491-8.817 6.491s-3.228 2.673 13.227 6.457c7.637 1.736 14.094 2.916 15.726 2.257l1.25-.521 3.61-2.395 4.304-.972 6.7-4.444-.07-3.645-5.831-1.805-7.915-.972z" fill="#FFAC62" stroke="#FF7500" stroke-width="1.6" stroke-miterlimit="10" stroke-linecap="round" stroke-linejoin="round"/><path d="M79.653 47.058l-.73 33.604 1.806.73 3.576-3.403 1.25-29.126a1.11 1.11 0 00-.105-.486c-.208-.486-.66-1.562-.798-2.013-.174-.625-.382-2.465-.382-2.465l-.035-.035-4.582 3.194z" fill="#fff" stroke="#4F5050" stroke-width="1.389" stroke-miterlimit="10" stroke-linecap="round" stroke-linejoin="round"/><path d="M79.653 47.058l-.73 33.604 1.806.73 3.576-3.403 1.25-29.126a1.11 1.11 0 00-.105-.486c-.208-.486-.66-1.562-.798-2.013-.174-.625-.382-2.465-.382-2.465l-.035-.035-4.582 3.194zM65.038 74.691v20.1l4.582 1.667 2.95-3.09.244-27.911.139-12.601-5.45.138-2.465 9.894v11.803z" fill="#fff" stroke="#505050" stroke-width="1.6" stroke-miterlimit="10" stroke-linecap="round" stroke-linejoin="round"/><path d="M63.962 66.498l6.63 1.632v8.054L30.114 64.936l-.208-6.839 34.056 8.401z" fill="#fff" stroke="#505050" stroke-width="1.6" stroke-miterlimit="10" stroke-linecap="round" stroke-linejoin="round"/><path d="M34.766 58.097s-3.228 2.673 13.227 6.457c7.637 1.736 14.129 2.986 15.76 2.326l1.263-.974" fill="#FFAC62"/><path d="M34.766 58.097s-3.228 2.673 13.227 6.457c7.637 1.736 14.129 2.986 15.76 2.326l1.263-.974" stroke="#FF7500" stroke-width="1.6" stroke-miterlimit="10" stroke-linecap="round" stroke-linejoin="round"/><path d="M70.592 68.13l-5.554-1.354v-3.888l2.464-9.894 5.45-.139-.138 11.208" stroke="#505050" stroke-width="1.6" stroke-miterlimit="10" stroke-linecap="round"/><path d="M38.724 67.61l.972 14.788-3.16 2.222-3.68-1.354-1.492-17.601M55.456 8.836s-1.18 7.603-1.7 12.255c-.556 4.93-1.875 17.704-1.875 17.704s2.916 1.32 3.714 1.98c.73.59 2.5 3.02 2.5 3.02l11.838 2.187" stroke="#505050" stroke-width="1.6" stroke-miterlimit="10" stroke-linecap="round" stroke-linejoin="round"/><path d="M61.462 7.032L58.13 43.795l12.359 2.291 1.284-.798 4.41-37.77s-3.472-2.986-7.326-3.263c-3.645-.278-7.394 2.777-7.394 2.777z" fill="#FFAC62" stroke="#FF7500" stroke-width="1.6" stroke-miterlimit="10" stroke-linecap="round" stroke-linejoin="round"/><path d="M80.416 39.594s.66-9.859 1.007-13.122c.417-3.853 2.153-15.344 2.153-15.344s-1.667 11.005-2.083 14.72c-.382 3.54-1.077 14.163-1.077 14.163l-13.573 7.776c-1.042.59-1.493 1.805-1.111 2.951l.104.347c.278.799.956 1.627 1.789 1.696l4.313.094L86.803 41.92v-2.152l-2.291-.66.416-12.428 1.424-3.367.451-12.636-2.465-.556-.798 1.007" fill="#fff"/><path d="M80.416 39.594s.66-9.859 1.007-13.122c.417-3.853 2.153-15.344 2.153-15.344s-1.667 11.005-2.083 14.72c-.382 3.54-1.077 14.163-1.077 14.163l-13.573 7.776c-1.042.59-1.493 1.805-1.111 2.951l.104.347c.278.799.956 1.627 1.789 1.696l4.313.094L86.803 41.92v-2.152l-2.291-.66.416-12.428 1.424-3.367.451-12.636-2.465-.556-.798 1.007m-29.472 7.915s2.5 4.687 2.118 8.366c-.521 4.583-3.784 6.666-3.784 6.666" stroke="#505050" stroke-width="1.6" stroke-miterlimit="10" stroke-linecap="round" stroke-linejoin="round"/><path d="M81.736 22.966s-2.986 1.84-3.437 7.394c-.347 4.41 2.117 8.124 2.117 8.124m-1.11 24.404l-6.145 4.895M55.942 41.607l.209 5.416 9.268 2.013m9.721 1.806l4.409 1.007" stroke="#505050" stroke-width="1.6" stroke-miterlimit="10" stroke-linecap="round" stroke-linejoin="round"/><path d="M46.083 54.452l-4.304 4.79m8.158-5.484l-4.305 4.756" stroke="#fff" stroke-width="1.6" stroke-miterlimit="10" stroke-linecap="round" stroke-linejoin="round"/><path d="M69.447 95.694V75.87m11.143 5.07l.694-34.646M36.502 84.099l-1.32-17.392" stroke="#505050" stroke-width=".8" stroke-miterlimit="10" stroke-linecap="round" stroke-linejoin="round"/><path d="M80.416 40.01l2.292.417 1.874-1.354" fill="#fff"/><path d="M80.416 40.01l2.292.417 1.874-1.354" stroke="#505050" stroke-width="1.6" stroke-miterlimit="10" stroke-linecap="round" stroke-linejoin="round"/><path d="M49.312 33.276v.972l.694.208v2.777" fill="#fff"/><path d="M49.312 33.276v.972l.694.208v2.777" stroke="#505050" stroke-width="1.6" stroke-miterlimit="10" stroke-linecap="round" stroke-linejoin="round"/><path d="M71.946 50.078l14.546-9.998M33.03 41.746l16.56-6.804" stroke="#505050" stroke-width=".8" stroke-miterlimit="10" stroke-linecap="round" stroke-linejoin="round"/></svg>