<svg width="37" height="36" fill="none" xmlns="http://www.w3.org/2000/svg"><path d="M24.497 18.45l-.174.114.197.064a18.494 18.494 0 016.993 4.167c3.116 2.96 4.976 6.795 5.326 10.92.062.731-.539 1.335-1.284 1.335-.741 0-1.343-.604-1.42-1.353C33.364 26.14 26.642 20.22 18.5 20.22S3.636 26.14 2.864 33.697c-.076.75-.678 1.353-1.419 1.353C.7 35.05.1 34.446.161 33.715c.35-4.125 2.21-7.96 5.326-10.92a18.494 18.494 0 016.993-4.167l.197-.064-.174-.114c-2.777-1.817-4.598-4.856-4.598-8.29C7.905 4.619 12.653.1 18.5.1s10.595 4.518 10.595 10.06c0 3.434-1.821 6.473-4.598 8.29zm-13.902-8.29c0 4.149 3.551 7.515 7.905 7.515s7.905-3.366 7.905-7.514c0-4.149-3.551-7.515-7.905-7.515s-7.905 3.366-7.905 7.515z" fill="#959699" stroke="#fff" stroke-width=".2"/></svg>