<svg width="40" height="38" viewBox="0 0 40 38" fill="none" xmlns="http://www.w3.org/2000/svg">
	<mask id="path-1-outside-1_5_378928" maskUnits="userSpaceOnUse" x="2.07715" y="2.77222" width="36" height="35" fill="black">
		<rect fill="white" x="2.07715" y="2.77222" width="36" height="35" />
		<path d="M36.4787 10.1389C36.1126 9.70254 35.5664 9.45015 34.9899 9.451H8.62506L7.77593 5.29417C7.68743 4.86573 7.45093 4.48011 7.10611 4.20291C6.76128 3.92545 6.32936 3.77335 5.88342 3.77222H3.72082C3.36537 3.77222 3.07715 4.05475 3.07715 4.40319C3.07715 4.75163 3.36537 5.03416 3.72082 5.03416H5.88342C6.18974 5.03387 6.45382 5.24486 6.51502 5.53893L10.3995 24.5812C10.5469 25.2956 10.9412 25.9381 11.5159 26.4001C12.0903 26.8623 12.8101 27.1159 13.5535 27.1178H31.2056C31.9536 27.117 32.678 26.8612 33.2545 26.3945C33.8312 25.9274 34.224 25.2784 34.3659 24.5588L36.8886 11.7007C36.9975 11.146 36.8471 10.5732 36.4787 10.1389ZM35.6221 11.4639L33.0994 24.3213C33.0146 24.7528 32.7793 25.1421 32.4339 25.4224C32.0882 25.7024 31.654 25.8559 31.2057 25.8565H13.5558C13.1096 25.8553 12.6774 25.7035 12.3326 25.4261C11.9874 25.1489 11.7507 24.7633 11.6622 24.3345L8.88348 10.7135H34.9901C35.1821 10.7135 35.3643 10.7974 35.4864 10.9428C35.6088 11.0879 35.6583 11.2791 35.6221 11.4639ZM15.9507 30.1195C15.0972 30.1195 14.2786 30.4519 13.6748 31.0434C13.0713 31.6352 12.7323 32.4377 12.7323 33.2744C12.7323 34.111 13.0714 34.9134 13.6748 35.5053C14.2785 36.0969 15.0972 36.4292 15.9507 36.4292C16.8041 36.4292 17.6227 36.0968 18.2265 35.5053C18.83 34.9135 19.169 34.111 19.169 33.2744C19.1679 32.438 18.8285 31.6361 18.2254 31.0446C17.6219 30.4533 16.8038 30.1207 15.9507 30.1195ZM15.9507 35.1673C15.4386 35.1673 14.9472 34.9678 14.5852 34.6129C14.2232 34.258 14.0197 33.7763 14.0197 33.2744C14.0197 32.7725 14.2231 32.2907 14.5852 31.9359C14.9473 31.581 15.4387 31.3815 15.9507 31.3815C16.4627 31.3815 16.9541 31.581 17.3161 31.9359C17.6781 32.2908 17.8816 32.7725 17.8816 33.2744C17.8816 33.7763 17.6782 34.2581 17.3161 34.6129C16.9541 34.9678 16.4627 35.1673 15.9507 35.1673ZM28.8241 30.1195C27.9707 30.1195 27.1521 30.4519 26.5483 31.0434C25.9448 31.6352 25.6058 32.4377 25.6058 33.2744C25.6058 34.111 25.9448 34.9134 26.5483 35.5053C27.152 36.0969 27.9707 36.4292 28.8241 36.4292C29.6776 36.4292 30.4962 36.0968 31.1 35.5053C31.7035 34.9135 32.0425 34.111 32.0425 33.2744C32.0414 32.438 31.702 31.6361 31.0988 31.0446C30.4954 30.4533 29.6773 30.1207 28.8241 30.1195ZM28.8241 35.1673C28.3121 35.1673 27.8207 34.9678 27.4587 34.6129C27.0967 34.258 26.8932 33.7763 26.8932 33.2744C26.8932 32.7725 27.0966 32.2907 27.4587 31.9359C27.8207 31.581 28.3121 31.3815 28.8241 31.3815C29.3361 31.3815 29.8276 31.581 30.1896 31.9359C30.5516 32.2908 30.7551 32.7725 30.7551 33.2744C30.7551 33.7763 30.5517 34.2581 30.1896 34.6129C29.8275 34.9678 29.3361 35.1673 28.8241 35.1673Z" />
	</mask>
	<path d="M36.4787 10.1389C36.1126 9.70254 35.5664 9.45015 34.9899 9.451H8.62506L7.77593 5.29417C7.68743 4.86573 7.45093 4.48011 7.10611 4.20291C6.76128 3.92545 6.32936 3.77335 5.88342 3.77222H3.72082C3.36537 3.77222 3.07715 4.05475 3.07715 4.40319C3.07715 4.75163 3.36537 5.03416 3.72082 5.03416H5.88342C6.18974 5.03387 6.45382 5.24486 6.51502 5.53893L10.3995 24.5812C10.5469 25.2956 10.9412 25.9381 11.5159 26.4001C12.0903 26.8623 12.8101 27.1159 13.5535 27.1178H31.2056C31.9536 27.117 32.678 26.8612 33.2545 26.3945C33.8312 25.9274 34.224 25.2784 34.3659 24.5588L36.8886 11.7007C36.9975 11.146 36.8471 10.5732 36.4787 10.1389ZM35.6221 11.4639L33.0994 24.3213C33.0146 24.7528 32.7793 25.1421 32.4339 25.4224C32.0882 25.7024 31.654 25.8559 31.2057 25.8565H13.5558C13.1096 25.8553 12.6774 25.7035 12.3326 25.4261C11.9874 25.1489 11.7507 24.7633 11.6622 24.3345L8.88348 10.7135H34.9901C35.1821 10.7135 35.3643 10.7974 35.4864 10.9428C35.6088 11.0879 35.6583 11.2791 35.6221 11.4639ZM15.9507 30.1195C15.0972 30.1195 14.2786 30.4519 13.6748 31.0434C13.0713 31.6352 12.7323 32.4377 12.7323 33.2744C12.7323 34.111 13.0714 34.9134 13.6748 35.5053C14.2785 36.0969 15.0972 36.4292 15.9507 36.4292C16.8041 36.4292 17.6227 36.0968 18.2265 35.5053C18.83 34.9135 19.169 34.111 19.169 33.2744C19.1679 32.438 18.8285 31.6361 18.2254 31.0446C17.6219 30.4533 16.8038 30.1207 15.9507 30.1195ZM15.9507 35.1673C15.4386 35.1673 14.9472 34.9678 14.5852 34.6129C14.2232 34.258 14.0197 33.7763 14.0197 33.2744C14.0197 32.7725 14.2231 32.2907 14.5852 31.9359C14.9473 31.581 15.4387 31.3815 15.9507 31.3815C16.4627 31.3815 16.9541 31.581 17.3161 31.9359C17.6781 32.2908 17.8816 32.7725 17.8816 33.2744C17.8816 33.7763 17.6782 34.2581 17.3161 34.6129C16.9541 34.9678 16.4627 35.1673 15.9507 35.1673ZM28.8241 30.1195C27.9707 30.1195 27.1521 30.4519 26.5483 31.0434C25.9448 31.6352 25.6058 32.4377 25.6058 33.2744C25.6058 34.111 25.9448 34.9134 26.5483 35.5053C27.152 36.0969 27.9707 36.4292 28.8241 36.4292C29.6776 36.4292 30.4962 36.0968 31.1 35.5053C31.7035 34.9135 32.0425 34.111 32.0425 33.2744C32.0414 32.438 31.702 31.6361 31.0988 31.0446C30.4954 30.4533 29.6773 30.1207 28.8241 30.1195ZM28.8241 35.1673C28.3121 35.1673 27.8207 34.9678 27.4587 34.6129C27.0967 34.258 26.8932 33.7763 26.8932 33.2744C26.8932 32.7725 27.0966 32.2907 27.4587 31.9359C27.8207 31.581 28.3121 31.3815 28.8241 31.3815C29.3361 31.3815 29.8276 31.581 30.1896 31.9359C30.5516 32.2908 30.7551 32.7725 30.7551 33.2744C30.7551 33.7763 30.5517 34.2581 30.1896 34.6129C29.8275 34.9678 29.3361 35.1673 28.8241 35.1673Z" fill="#959699" />
	<path d="M36.4787 10.1389C36.1126 9.70254 35.5664 9.45015 34.9899 9.451H8.62506L7.77593 5.29417C7.68743 4.86573 7.45093 4.48011 7.10611 4.20291C6.76128 3.92545 6.32936 3.77335 5.88342 3.77222H3.72082C3.36537 3.77222 3.07715 4.05475 3.07715 4.40319C3.07715 4.75163 3.36537 5.03416 3.72082 5.03416H5.88342C6.18974 5.03387 6.45382 5.24486 6.51502 5.53893L10.3995 24.5812C10.5469 25.2956 10.9412 25.9381 11.5159 26.4001C12.0903 26.8623 12.8101 27.1159 13.5535 27.1178H31.2056C31.9536 27.117 32.678 26.8612 33.2545 26.3945C33.8312 25.9274 34.224 25.2784 34.3659 24.5588L36.8886 11.7007C36.9975 11.146 36.8471 10.5732 36.4787 10.1389ZM35.6221 11.4639L33.0994 24.3213C33.0146 24.7528 32.7793 25.1421 32.4339 25.4224C32.0882 25.7024 31.654 25.8559 31.2057 25.8565H13.5558C13.1096 25.8553 12.6774 25.7035 12.3326 25.4261C11.9874 25.1489 11.7507 24.7633 11.6622 24.3345L8.88348 10.7135H34.9901C35.1821 10.7135 35.3643 10.7974 35.4864 10.9428C35.6088 11.0879 35.6583 11.2791 35.6221 11.4639ZM15.9507 30.1195C15.0972 30.1195 14.2786 30.4519 13.6748 31.0434C13.0713 31.6352 12.7323 32.4377 12.7323 33.2744C12.7323 34.111 13.0714 34.9134 13.6748 35.5053C14.2785 36.0969 15.0972 36.4292 15.9507 36.4292C16.8041 36.4292 17.6227 36.0968 18.2265 35.5053C18.83 34.9135 19.169 34.111 19.169 33.2744C19.1679 32.438 18.8285 31.6361 18.2254 31.0446C17.6219 30.4533 16.8038 30.1207 15.9507 30.1195ZM15.9507 35.1673C15.4386 35.1673 14.9472 34.9678 14.5852 34.6129C14.2232 34.258 14.0197 33.7763 14.0197 33.2744C14.0197 32.7725 14.2231 32.2907 14.5852 31.9359C14.9473 31.581 15.4387 31.3815 15.9507 31.3815C16.4627 31.3815 16.9541 31.581 17.3161 31.9359C17.6781 32.2908 17.8816 32.7725 17.8816 33.2744C17.8816 33.7763 17.6782 34.2581 17.3161 34.6129C16.9541 34.9678 16.4627 35.1673 15.9507 35.1673ZM28.8241 30.1195C27.9707 30.1195 27.1521 30.4519 26.5483 31.0434C25.9448 31.6352 25.6058 32.4377 25.6058 33.2744C25.6058 34.111 25.9448 34.9134 26.5483 35.5053C27.152 36.0969 27.9707 36.4292 28.8241 36.4292C29.6776 36.4292 30.4962 36.0968 31.1 35.5053C31.7035 34.9135 32.0425 34.111 32.0425 33.2744C32.0414 32.438 31.702 31.6361 31.0988 31.0446C30.4954 30.4533 29.6773 30.1207 28.8241 30.1195ZM28.8241 35.1673C28.3121 35.1673 27.8207 34.9678 27.4587 34.6129C27.0967 34.258 26.8932 33.7763 26.8932 33.2744C26.8932 32.7725 27.0966 32.2907 27.4587 31.9359C27.8207 31.581 28.3121 31.3815 28.8241 31.3815C29.3361 31.3815 29.8276 31.581 30.1896 31.9359C30.5516 32.2908 30.7551 32.7725 30.7551 33.2744C30.7551 33.7763 30.5517 34.2581 30.1896 34.6129C29.8275 34.9678 29.3361 35.1673 28.8241 35.1673Z" stroke="#959699" mask="url(#path-1-outside-1_5_378928)" />
</svg>