<svg width="38" height="37" viewBox="0 0 38 37" fill="none" xmlns="http://www.w3.org/2000/svg">
	<path d="M18.5263 37C17.9988 37 17.4903 36.8145 17.0939 36.4775C15.5971 35.207 14.154 34.013 12.8807 32.9598L12.8742 32.9543C9.14132 29.8663 5.91781 27.1996 3.67496 24.5726C1.16779 21.6358 0 18.8513 0 15.8095C0 12.854 1.04397 10.1274 2.9394 8.13162C4.85745 6.1122 7.48928 5 10.3509 5C12.4898 5 14.4485 5.6564 16.1726 6.95081C17.0428 7.60419 17.8315 8.40384 18.5263 9.33657C19.2214 8.40384 20.0099 7.60419 20.8803 6.95081C22.6044 5.6564 24.5631 5 26.702 5C29.5633 5 32.1955 6.1122 34.1135 8.13162C36.0089 10.1274 37.0526 12.854 37.0526 15.8095C37.0526 18.8513 35.8851 21.6358 33.378 24.5723C31.1351 27.1996 27.9119 29.8661 24.1795 32.9538C22.904 34.0086 21.4587 35.2045 19.9584 36.4781C19.5624 36.8145 19.0535 37 18.5263 37ZM10.3509 7.10695C8.10272 7.10695 6.03739 7.97794 4.5349 9.55967C3.01007 11.1653 2.1702 13.3847 2.1702 15.8095C2.1702 18.3678 3.14972 20.6559 5.34593 23.2282C7.46865 25.7147 10.626 28.3266 14.2817 31.3509L14.2885 31.3564C15.5666 32.4137 17.0153 33.6124 18.5232 34.8922C20.0401 33.6099 21.4912 32.4093 22.7717 31.3504C26.4272 28.326 29.5843 25.7147 31.707 23.2282C33.9029 20.6559 34.8824 18.3678 34.8824 15.8095C34.8824 13.3847 34.0426 11.1653 32.5177 9.55967C31.0155 7.97794 28.9499 7.10695 26.702 7.10695C25.055 7.10695 23.5429 7.61517 22.2078 8.61733C21.0179 9.51082 20.1891 10.6403 19.7031 11.4306C19.4533 11.837 19.0134 12.0796 18.5263 12.0796C18.0392 12.0796 17.5994 11.837 17.3495 11.4306C16.8638 10.6403 16.035 9.51082 14.8449 8.61733C13.5097 7.61517 11.9976 7.10695 10.3509 7.10695Z" fill="#959699" />
</svg>