<svg width="23" height="23" viewBox="0 0 23 23" fill="none" xmlns="http://www.w3.org/2000/svg">
	<mask id="path-1-outside-1_1_377975" maskUnits="userSpaceOnUse" x="0" y="0" width="23" height="23" fill="black">
		<rect fill="white" width="23" height="23" />
		<path d="M3.64076 3.64083C5.34374 1.93786 7.60793 1 10.0163 1C12.4246 1 14.6888 1.93786 16.3917 3.64083C18.0946 5.34376 19.0325 7.60795 19.0325 10.0162C19.0325 12.2181 18.2482 14.2991 16.8123 15.9413L21.8196 20.9486C22.0601 21.1891 22.0601 21.5791 21.8196 21.8196C21.6994 21.9398 21.5417 22 21.3841 22C21.2266 22 21.0689 21.9399 20.9487 21.8196L15.9413 16.8123C14.2992 18.2481 12.2181 19.0325 10.0163 19.0325C7.60789 19.0325 5.34378 18.0947 3.6408 16.3917C1.93787 14.6888 1 12.4246 1 10.0163C1 7.60794 1.93783 5.34376 3.64076 3.64083ZM4.51177 15.5207C7.54698 18.5559 12.4855 18.5559 15.5207 15.5207C18.5559 12.4856 18.5559 7.547 15.5207 4.51184C14.0029 2.9941 12.0099 2.23547 10.0162 2.23547C8.02301 2.23547 6.02915 2.99447 4.51173 4.51184C1.47664 7.54696 1.47664 12.4855 4.51177 15.5207Z" />
	</mask>
	<path d="M3.64076 3.64083C5.34374 1.93786 7.60793 1 10.0163 1C12.4246 1 14.6888 1.93786 16.3917 3.64083C18.0946 5.34376 19.0325 7.60795 19.0325 10.0162C19.0325 12.2181 18.2482 14.2991 16.8123 15.9413L21.8196 20.9486C22.0601 21.1891 22.0601 21.5791 21.8196 21.8196C21.6994 21.9398 21.5417 22 21.3841 22C21.2266 22 21.0689 21.9399 20.9487 21.8196L15.9413 16.8123C14.2992 18.2481 12.2181 19.0325 10.0163 19.0325C7.60789 19.0325 5.34378 18.0947 3.6408 16.3917C1.93787 14.6888 1 12.4246 1 10.0163C1 7.60794 1.93783 5.34376 3.64076 3.64083ZM4.51177 15.5207C7.54698 18.5559 12.4855 18.5559 15.5207 15.5207C18.5559 12.4856 18.5559 7.547 15.5207 4.51184C14.0029 2.9941 12.0099 2.23547 10.0162 2.23547C8.02301 2.23547 6.02915 2.99447 4.51173 4.51184C1.47664 7.54696 1.47664 12.4855 4.51177 15.5207Z" fill="white" />
	<path d="M3.64076 3.64083C5.34374 1.93786 7.60793 1 10.0163 1C12.4246 1 14.6888 1.93786 16.3917 3.64083C18.0946 5.34376 19.0325 7.60795 19.0325 10.0162C19.0325 12.2181 18.2482 14.2991 16.8123 15.9413L21.8196 20.9486C22.0601 21.1891 22.0601 21.5791 21.8196 21.8196C21.6994 21.9398 21.5417 22 21.3841 22C21.2266 22 21.0689 21.9399 20.9487 21.8196L15.9413 16.8123C14.2992 18.2481 12.2181 19.0325 10.0163 19.0325C7.60789 19.0325 5.34378 18.0947 3.6408 16.3917C1.93787 14.6888 1 12.4246 1 10.0163C1 7.60794 1.93783 5.34376 3.64076 3.64083ZM4.51177 15.5207C7.54698 18.5559 12.4855 18.5559 15.5207 15.5207C18.5559 12.4856 18.5559 7.547 15.5207 4.51184C14.0029 2.9941 12.0099 2.23547 10.0162 2.23547C8.02301 2.23547 6.02915 2.99447 4.51173 4.51184C1.47664 7.54696 1.47664 12.4855 4.51177 15.5207Z" stroke="white" stroke-width="0.8" mask="url(#path-1-outside-1_1_377975)" />
</svg>