<svg width="348" height="81" viewBox="0 0 348 81" fill="none" xmlns="http://www.w3.org/2000/svg">
	<g clip-path="url(#clip0_1758_432443)">
		<path fill-rule="evenodd" clip-rule="evenodd" d="M87.9568 55.0616V40.8497H99.9491L71.9669 19.5381L55.9771 31.9719L61.728 35.3808L71.9669 28.4159L81.9606 35.5279V49.7398L87.9568 55.0616Z" fill="#C95621" />
		<path fill-rule="evenodd" clip-rule="evenodd" d="M77.9628 76.3729V71.0389H81.9603V76.3729H77.9628ZM77.9628 63.9391H81.9603V69.2732H77.9628V63.9391ZM71.9666 71.0389H75.9641V76.3729H71.9666V71.0389ZM71.9666 63.9391H75.9641V69.2732H71.9666V63.9391ZM75.9641 42.6275H59.9742V58.6173L53.978 62.1734V37.3057H55.9768L37.2524 20.5801L17.9886 37.3057H19.9873L19.9996 76.1522L13.9911 76.3852V42.6398H0L36.811 13.2596V12.3277H36.2469V12.0702C37.0685 12.0334 36.8723 11.6778 36.5412 11.1751C36.1734 10.5987 35.9404 9.87526 35.5235 9.39704C34.9962 8.78393 34.5548 8.69809 33.8926 7.74165C32.6909 6.02494 34.9962 4.6148 34.4812 2.88583C34.2359 3.33953 33.8436 3.21691 33.5125 2.99619C33.1324 2.75095 33.0097 2.55475 33.2795 2.29725C33.3899 2.18689 33.5002 2.08879 33.537 1.94165C33.4266 1.90486 33.3285 1.85581 33.2427 1.7945C33.3531 1.76997 33.488 1.72093 33.5738 1.65962C33.4389 1.51247 33.2305 1.45116 33.0097 1.42663C33.0588 1.29175 33.1691 1.23044 33.304 1.19365C33.255 1.12008 33.1324 0.972935 33.1078 0.825789C33.0833 0.666381 33.1446 0.580546 33.255 0.519235C33.304 0.445662 33.3408 0.347565 33.3776 0.261729C33.5861 0.249467 33.7087 0.200419 33.8436 0.0900592C33.9907 0.102321 34.1992 0.261729 34.3708 0.188156C34.5302 0.114584 34.6283 -0.13066 34.9104 0.0900592C35.2169 0.335302 35.1188 0.923886 34.9349 1.19365C36.014 1.48795 36.4186 2.06427 36.6761 3.18012C36.9091 4.17336 36.8233 5.38731 38.1966 5.73065C38.822 5.8778 39.4474 5.21564 39.8398 4.81099C40.5264 4.08752 41.5319 3.06976 42.6478 2.57928C44.7324 1.64735 46.2897 3.24143 45.6765 4.29598C45.1002 2.88583 43.3958 2.44439 41.814 4.24693C42.7949 3.54799 44.8795 3.31501 44.855 4.76194C44.107 4.09979 42.7336 4.07526 41.8875 5.00718C42.6601 4.82325 43.8004 4.68837 43.9231 5.48541C43.3345 5.21564 42.611 5.28921 41.7649 5.58351C42.3658 5.69387 43.359 6.03721 42.9789 6.85877C42.7949 6.49091 42.3044 6.27019 41.8753 6.25793C42.1696 6.63805 42.378 7.03044 42.0715 7.58224C41.9856 7.28795 41.8262 6.99365 41.581 6.84651C41.5197 6.89556 41.5074 6.96913 41.5319 7.0427C41.6178 7.53319 41.6055 8.35475 41.1028 8.66131C41.1763 8.31797 41.1763 7.99915 41.1028 7.70486C41.0537 8.17082 40.8575 8.63678 40.5387 8.89429C40.6245 8.55095 40.6736 8.13404 40.5019 7.82748C40.5264 8.15856 40.4896 8.61226 40.2444 8.86977C40.2444 8.71036 40.1831 8.56321 40.0973 8.47738C39.8643 8.91881 39.4228 9.27442 38.9201 9.58097C38.6871 9.72812 38.356 10.0101 38.1844 10.3044C38.0004 10.6355 37.2647 12.0702 38.2334 12.107V12.3277H37.6816V13.2228L76.0131 42.652L75.9641 42.6275ZM37.093 11.5184C37.2402 11.9598 37.1421 12.2664 37.5713 10.7827C37.792 10.0101 36.4799 9.70359 37.093 11.5184Z" fill="#90241F" />
		<path fill-rule="evenodd" clip-rule="evenodd" d="M97.9498 71.0511V76.3852H91.9537V65.7293H95.9511L75.9638 49.7395L55.9765 65.7293H59.9739V76.3852H53.9777V71.0511H39.9866L75.9638 42.6397L111.941 71.0511H97.9498ZM37.9879 44.4055H41.9854V49.7395H37.9879V44.4055ZM37.9879 37.3057H41.9854V42.6397H37.9879V37.3057ZM31.9917 44.4055H35.9892V49.7395H31.9917V44.4055ZM31.9917 37.3057H35.9892V42.6397H31.9917V37.3057Z" fill="#EE761C" />
		<path fill-rule="evenodd" clip-rule="evenodd" d="M226.556 35.6873C227.181 37.2936 228.052 38.5198 229.18 39.3414H215.961C216.66 38.6547 217.335 37.7473 217.997 36.6069V31.2116C215.986 31.2851 213.938 32.9896 211.682 36.2023C208.138 41.2175 202.657 41.6344 198.427 37.22C202.068 34.9025 203.246 31.6407 207.402 29.4336C201.026 27.4961 199.457 19.3908 204.447 15.6877C209.438 11.9845 219.432 14.0691 224.459 14.0691H228.947C227.892 14.8906 227.095 16.1904 226.568 17.9562V35.675L226.556 35.6873ZM217.997 18.6306C215.753 18.324 209.708 17.576 209.953 22.7752C210.149 26.9811 215.042 26.2822 217.997 26.086V18.6183V18.6306ZM183.136 40.4327C174.049 40.4327 166.692 34.3507 166.692 26.8462C166.692 19.3418 174.049 13.2598 183.136 13.2598C192.222 13.2598 199.579 19.3418 199.579 26.8462C199.579 34.3507 192.21 40.4327 183.136 40.4327ZM183.038 18.4467C179.31 18.4467 176.281 22.1621 176.281 26.7481C176.281 31.3342 179.31 35.0496 183.038 35.0496C186.777 35.0496 189.794 31.3342 189.794 26.7481C189.794 22.1621 186.765 18.4467 183.038 18.4467ZM161.959 37.4407C156.367 41.242 146.925 39.3414 140.463 39.3414H135.804C136.981 38.3481 137.815 37.0851 138.281 35.5524V17.7968C137.925 16.3008 137.287 15.05 136.343 14.0691H140.782C149.783 14.0691 157.189 12.0458 160.966 15.6264C163.835 18.3486 163.479 23.0327 160.132 24.823C166.508 26.4048 167.06 33.9706 161.959 37.4407ZM146.852 18.4712V24.0014C149.881 24.1363 154.908 24.6636 155.117 21.549C155.374 17.6864 149.157 18.2505 146.852 18.4712ZM146.852 28.8572V34.3875C149.672 34.8534 156.232 35.5401 156.539 31.9963C156.895 27.9253 149.807 28.7959 146.852 28.8572ZM125.442 19.1211V36.19C126.006 37.2936 126.938 38.3481 128.226 39.3291H114.087C115.387 38.3359 116.307 37.2936 116.871 36.19V19.1211C113.143 18.8881 110.605 19.4399 109.256 20.7642C108.349 19.8813 107.711 17.6496 107.355 14.0691H134.945C134.577 17.6496 133.952 19.8813 133.045 20.7642C131.696 19.4399 129.158 18.9004 125.43 19.1211H125.442Z" fill="#EE761C" />
		<path fill-rule="evenodd" clip-rule="evenodd" d="M345.389 73.5038C345.904 74.6564 346.774 75.5638 348 76.0298H335.052C335.554 74.5215 335.174 72.8539 333.923 71.0268H322.642C321.269 73.3198 320.705 74.9875 320.95 76.0298H310.65C311.704 75.5761 312.722 74.9384 313.225 73.8349L322.176 54.2154C322.9 52.6213 322.495 51.2234 321.686 50.2915H337.222C336.523 51.4564 336.18 52.793 336.756 54.105L345.389 73.516V73.5038ZM328.418 55.5029L324.396 65.8645H332.354L328.405 55.5029H328.418ZM311.619 67.6179C311.606 68.2433 311.52 68.8319 311.398 69.3714C309.166 78.5067 291.41 76.0298 285.733 76.0298H281.086C282.189 75.196 283.011 73.8716 283.55 72.0691V54.0192C282.901 52.3761 282.005 51.1376 280.828 50.2915H310.184C309.399 53.7372 308.86 55.3558 307.793 56.533C305.806 54.1541 297.762 54.6814 292.428 54.8898V59.6843C299.136 59.6353 311.901 57.6979 311.631 67.6179H311.619ZM292.416 70.5854C294.746 70.9042 302.52 71.971 302.238 67.1642C302.005 63.2158 295.469 64.3562 292.416 64.5524V70.5976V70.5854ZM266.911 76.4835C262.325 76.6797 257.358 76.0175 254.219 76.0175H249.572C250.676 75.1837 251.497 73.8594 252.037 72.0568V54.0069C251.387 52.3638 250.492 51.1253 249.315 50.2792H263.024C262.3 50.9782 261.601 51.9101 260.915 53.0628V58.0044C278.83 55.2699 280.681 63.363 280.497 66.7964C280.117 73.933 272.22 76.2505 266.898 76.4835H266.911ZM260.927 62.7621V70.3647C263.257 70.6835 271.301 71.9587 271.104 66.1342C270.945 61.634 263.992 62.5659 260.927 62.7499V62.7621ZM242.104 80.7385V75.4535H219.91V78.519C219.002 79.9046 216.857 80.6404 213.46 80.7507V76.0298H200.769C201.271 74.5215 200.891 72.8539 199.641 71.0268H188.359C186.986 73.3198 186.422 74.9875 186.667 76.0298H176.367C177.421 75.5761 178.439 74.9384 178.942 73.8349L187.893 54.2154C188.617 52.6213 188.212 51.2234 187.403 50.2915H202.939C202.24 51.4564 201.897 52.793 202.485 54.105L211.118 73.516C211.596 74.5828 212.381 75.4412 213.46 75.9194V70.0581H216.415L223.638 54.2154C224.361 52.6213 223.956 51.2234 223.147 50.2915H238.683C237.984 51.4564 237.641 52.793 238.23 54.105L245.329 70.0581H248.567V78.5313C247.659 79.9169 245.513 80.6526 242.117 80.763L242.104 80.7385ZM194.147 55.4907L190.125 65.8522H198.095L194.147 55.4907ZM229.891 55.4907L224.251 70.0336H235.421L229.879 55.4907H229.891ZM161.015 57.2442C158.17 60.0277 157.998 65.1287 160.377 68.3659C163.565 72.67 171.45 71.7748 175.876 68.0594V73.4302C172.995 75.711 169.157 77.1089 164.926 77.1089C156.012 77.1089 148.789 70.9165 148.789 63.2649C148.789 55.6133 156.012 49.4209 164.926 49.4209C170.027 49.4209 174.589 51.4564 177.544 54.6323L172.394 59.856C170.898 54.4606 164.706 53.6268 161.015 57.2442ZM140.61 70.2543C138.955 74.0556 135.608 76.4957 131.659 76.7532C129.464 76.8881 127.073 76.3609 124.473 74.6319L124.743 68.0226C126.791 71.0759 131.009 73.1237 133.646 69.5676L123.775 53.4919C123.002 52.2289 122.021 51.1131 120.599 50.2547H133.278C132.701 51.1989 132.309 52.3393 132.898 53.3816L137.312 61.2907L140.843 52.8053C141.15 52.0695 140.991 50.8433 140.561 50.2547H151.364C149.758 51.1253 148.434 52.3148 147.698 53.9947L140.623 70.242L140.61 70.2543Z" fill="#90241F" />
	</g>
	<defs>
		<clipPath id="clip0_1758_432443">
			<rect width="348" height="81" fill="white" />
		</clipPath>
	</defs>
</svg>