<svg width="115" height="100" viewBox="0 0 115 100" fill="none" xmlns="http://www.w3.org/2000/svg">
	<path d="M49.3148 6.45508C49.1412 6.90637 49.0023 7.4271 48.9329 7.91311C48.8287 8.71156 48.7593 10.1696 48.7593 10.1696" stroke="#4F5050" stroke-width="1.3886" stroke-miterlimit="10" stroke-linecap="round" stroke-linejoin="round" />
	<path d="M29.7007 25.6181C29.7007 38.2197 40.2541 48.4607 53.3069 48.4607C66.3598 48.4607 76.9132 38.2544 76.9132 25.6181C76.9132 12.9818 66.3598 9.82275 53.3069 9.82275C40.2541 9.82275 29.7007 12.9818 29.7007 25.6181Z" fill="white" stroke="#505050" stroke-width="1.6" stroke-miterlimit="10" stroke-linecap="round" stroke-linejoin="round" />
	<path d="M29.7699 23.7084C29.7699 23.7084 33.6927 26.4508 53.8275 26.4508C72.1223 26.4508 76.7741 23.5001 76.7741 23.5001C75.6633 12.6342 65.5611 9.7876 53.272 9.7876C40.9481 9.82231 30.7766 12.669 29.7699 23.7084Z" fill="#FFAC62" />
	<path d="M76.8123 23.5001C75.7006 12.6342 65.5902 9.7876 53.2911 9.7876C40.9225 9.7876 30.7775 12.669 29.7352 23.6736" stroke="#FF7500" stroke-width="1.6" stroke-miterlimit="10" stroke-linecap="round" stroke-linejoin="round" />
	<path d="M29.0411 23.0139C29.0411 24.9232 39.8375 26.4507 53.1681 26.4507C66.4987 26.4507 77.2951 24.9232 77.2951 23.0139" stroke="#505050" stroke-width="1.6" stroke-miterlimit="10" stroke-linecap="round" stroke-linejoin="round" />
	<path d="M43.5172 58.5623C43.5172 60.4716 47.8566 61.9991 53.2027 61.9991C58.5489 61.9991 62.8883 60.4716 62.8883 58.5623" stroke="#505050" stroke-width="1.6" stroke-miterlimit="10" stroke-linecap="round" stroke-linejoin="round" />
	<path d="M57.924 11.4892C57.9587 10.8991 57.9934 10.2395 57.8892 9.61462C57.438 6.03897 56.0494 4.12964 52.4737 4.12964C50.2172 4.12964 49.2105 6.03897 48.9327 7.91358" stroke="#505050" stroke-width="1.6" stroke-miterlimit="10" stroke-linecap="round" stroke-linejoin="round" />
	<path d="M42.7882 46.6555L43.5172 58.2851" stroke="#505050" stroke-width="1.6" stroke-miterlimit="10" stroke-linecap="round" stroke-linejoin="round" />
	<path d="M63.3391 46.6555L62.9225 58.2851" stroke="#505050" stroke-width="1.6" stroke-miterlimit="10" stroke-linecap="round" stroke-linejoin="round" />
	<path d="M62.9225 47.2109L76.0796 77.9685" stroke="#505050" stroke-width="2.3" stroke-miterlimit="10" stroke-linecap="round" stroke-linejoin="round" />
	<path d="M45.5308 47.5928L30.2214 95.1177" stroke="#505050" stroke-width="2.3" stroke-miterlimit="10" stroke-linecap="round" stroke-linejoin="round" />
	<path d="M48.8287 62.3809L48.1691 73.6286" stroke="#505050" stroke-width="2.3" stroke-miterlimit="10" stroke-linecap="round" stroke-linejoin="round" />
	<path d="M43.5172 53.772C43.5172 55.23 47.8219 56.4103 53.0986 56.4103C58.3753 56.4103 62.68 55.23 62.68 53.772" stroke="#505050" stroke-width="0.8" stroke-miterlimit="10" stroke-linecap="round" stroke-linejoin="round" />
	<path d="M85.4169 85.8803C86.3905 82.0725 85.1168 78.4583 82.5721 77.8076C80.0274 77.157 77.1753 79.7164 76.2017 83.5241C75.2282 87.3319 76.5019 90.9461 79.0466 91.5968C81.5912 92.2474 84.4434 89.688 85.4169 85.8803Z" stroke="#505050" stroke-width="1.6" stroke-miterlimit="10" stroke-linecap="round" stroke-linejoin="round" />
	<path d="M86.1638 85.4749C87.2276 81.3142 85.485 77.2753 82.2716 76.4537C79.0582 75.6321 75.5909 78.339 74.5271 82.4997C73.4633 86.6603 75.2059 90.6992 78.4193 91.5208C81.6327 92.3424 85.1 89.6356 86.1638 85.4749Z" stroke="#505050" stroke-width="1.6" stroke-miterlimit="10" stroke-linecap="round" stroke-linejoin="round" />
	<path d="M51.2583 74.9535C52.1797 71.3501 50.969 67.9285 48.5544 67.3111C46.1397 66.6937 43.4353 69.1144 42.514 72.7178C41.5927 76.3213 42.8033 79.7429 45.218 80.3603C47.6327 80.9777 50.337 78.557 51.2583 74.9535Z" stroke="#505050" stroke-width="1.6" stroke-miterlimit="10" stroke-linecap="round" stroke-linejoin="round" />
	<path d="M48.1692 73.6292L74.518 82.4815L33.5195 86.439L48.1692 73.6292Z" stroke="#505050" stroke-width="0.8" stroke-miterlimit="10" stroke-linecap="round" stroke-linejoin="round" />
	<path d="M80.6624 26.9026L76.9132 26" stroke="#505050" stroke-width="1.6" stroke-miterlimit="10" stroke-linecap="round" stroke-linejoin="round" />
	<path d="M77.052 22.6323C77.052 22.6323 81.0095 23.9862 81.565 25.0277C81.9815 25.8261 80.7665 26.9023 80.7665 26.9023" stroke="#505050" stroke-width="0.8" stroke-miterlimit="10" stroke-linecap="round" stroke-linejoin="round" />
	<path d="M26.3334 27.1108C26.3334 27.1108 28.7982 28.0481 30.8116 28.3259C33.5541 28.7077 37.6852 28.6383 37.7894 28.6036V30.8601L46.1557 31.2419" stroke="#505050" stroke-width="1.6" stroke-miterlimit="10" stroke-linecap="round" stroke-linejoin="round" />
	<path d="M51.9529 74.5909C52.9597 70.6531 51.3064 66.8295 48.2602 66.0507C45.214 65.2718 41.9284 67.8326 40.9216 71.7704C39.9148 75.7082 41.5681 79.5318 44.6143 80.3106C47.6605 81.0895 50.9461 78.5287 51.9529 74.5909Z" stroke="#505050" stroke-width="1.6" stroke-miterlimit="10" stroke-linecap="round" stroke-linejoin="round" />
	<path d="M43.0659 14.5093L38.9695 19.0917" stroke="white" stroke-width="1.6" stroke-miterlimit="10" stroke-linecap="round" stroke-linejoin="round" />
	<path d="M46.7803 13.8149L42.6492 18.3973" stroke="white" stroke-width="1.6" stroke-miterlimit="10" stroke-linecap="round" stroke-linejoin="round" />
</svg>