<svg width="115" height="100" viewBox="0 0 115 100" fill="none" xmlns="http://www.w3.org/2000/svg">
	<path d="M85.4966 7.95285L57.8981 22.8803L31.1675 19.5824L61.196 5.27979L85.4966 7.95285Z" stroke="#505050" stroke-width="1.6" stroke-miterlimit="10" stroke-linecap="round" stroke-linejoin="round" />
	<path d="M63.1053 8.75086V3.54359C63.1053 3.54359 64.2856 2.36328 68.8333 2.36328C73.5892 2.36328 74.5613 3.54359 74.5613 3.54359V8.75086C74.5613 8.75086 72.2354 9.37573 68.9721 9.37573C65.8478 9.37573 63.1053 8.75086 63.1053 8.75086Z" fill="white" stroke="#505050" stroke-width="1.6" stroke-miterlimit="10" stroke-linecap="round" stroke-linejoin="round" />
	<path d="M31.1675 19.8599L32.8685 22.2899V25.5184" stroke="#505050" stroke-width="1.6" stroke-miterlimit="10" stroke-linecap="round" stroke-linejoin="round" />
	<path d="M32.6603 25.761L30.751 27.3926V27.5315V44.889" stroke="#505050" stroke-width="1.6" stroke-miterlimit="10" stroke-linecap="round" stroke-linejoin="round" />
	<path d="M57.7596 22.9493L59.7036 24.9975L84.3861 11.1115L85.4969 7.95239" stroke="#505050" stroke-width="1.6" stroke-miterlimit="10" stroke-linecap="round" stroke-linejoin="round" />
	<path d="M59.2867 24.8586V49.7147" stroke="#505050" stroke-width="1.6" stroke-miterlimit="10" stroke-linecap="round" stroke-linejoin="round" />
	<path d="M72.3743 18.4016L74.5961 21.2482L65.9868 31.8711L59.2867 34.2664" stroke="#505050" stroke-width="1.6" stroke-miterlimit="10" stroke-linecap="round" stroke-linejoin="round" />
	<path d="M84.1427 12.083L86.3645 14.6172L78.5536 24.2333L74.5961 25.5177" stroke="#505050" stroke-width="1.6" stroke-miterlimit="10" stroke-linecap="round" stroke-linejoin="round" />
	<path d="M59.0625 75.0312V82.4062L65.9867 80.8191L74.5961 73.9803V21.248" stroke="#505050" stroke-width="1.6" stroke-miterlimit="10" stroke-linecap="round" stroke-linejoin="round" />
	<path d="M86.3645 14.6174V64.4683L78.3453 70.9253L74.5961 71.3072" stroke="#505050" stroke-width="1.6" stroke-miterlimit="10" stroke-linecap="round" stroke-linejoin="round" />
	<path d="M77.7899 71.3079V76.0638L79.4562 76.3763L81.5391 78.355L60.6407 96.5804L54.7391 97.5525L52.9686 96.9623V94.0115" stroke="#505050" stroke-width="1.6" stroke-miterlimit="10" stroke-linecap="round" stroke-linejoin="round" />
	<path d="M38.4577 89.5332L35.6111 91.5467L37.0344 93.9767H38.4577V91.4078" stroke="#505050" stroke-width="1.6" stroke-miterlimit="10" stroke-linecap="round" stroke-linejoin="round" />
	<path d="M40.2637 92.6919L38.4576 93.977" stroke="#505050" stroke-width="1.6" stroke-miterlimit="10" stroke-linecap="round" stroke-linejoin="round" />
	<path d="M37.6593 82.5207L33.2505 77.5565L31.3759 74.814" stroke="#505050" stroke-width="1.6" stroke-miterlimit="10" stroke-linecap="round" stroke-linejoin="round" />
	<path d="M59.2868 49.8188V62.5592V78.2851L55.121 78.91L30.7857 74.5706L29.3971 73.0779V46.9721L31.1328 45.2017L59.2868 49.8188Z" fill="#FFAC62" stroke="#FF7500" stroke-width="1.3886" stroke-miterlimit="10" stroke-linecap="round" stroke-linejoin="round" />
	<path d="M39.1685 56.7402L32.8685 63.7976" stroke="white" stroke-width="1.6" stroke-miterlimit="10" stroke-linecap="round" stroke-linejoin="round" />
	<path d="M44.8833 55.7073L38.5488 62.7647" stroke="white" stroke-width="1.6" stroke-miterlimit="10" stroke-linecap="round" stroke-linejoin="round" />
	<path d="M58.6273 63.0803V74.6752L59.9117 74.8487C60.6755 74.9529 61.3351 74.4669 61.3351 73.842V64.1912C61.3351 63.6358 60.849 63.1845 60.1894 63.1498L58.6273 63.0803Z" fill="white" stroke="#505050" stroke-width="1.6" stroke-miterlimit="10" stroke-linecap="round" stroke-linejoin="round" />
	<path d="M78.3107 28.8855L78.1371 70.7519" stroke="#505050" stroke-width="0.8" stroke-miterlimit="10" stroke-linecap="round" stroke-linejoin="round" />
	<path d="M66.0214 35.8633L65.8826 80.1945" stroke="#505050" stroke-width="0.8" stroke-miterlimit="10" stroke-linecap="round" stroke-linejoin="round" />
	<path d="M32.8338 25.761L32.6949 45.3056" stroke="#505050" stroke-width="1.6" stroke-miterlimit="10" stroke-linecap="round" stroke-linejoin="round" />
	<path d="M58.9743 82.4509L53.6976 85.124L52.9685 94.7401L38.4576 92.067V85.4364" stroke="#505050" stroke-width="1.6" stroke-miterlimit="10" stroke-linecap="round" stroke-linejoin="round" />
	<path d="M77.5123 76.5837L53.42 96.4408" stroke="#505050" stroke-width="0.8" stroke-miterlimit="10" stroke-linecap="round" stroke-linejoin="round" />
	<path d="M53.42 85.0546L37.3469 82.7634V84.2909C37.3469 84.8463 37.7635 85.3323 38.3537 85.4018L51.3371 87.45C52.2397 87.5888 53.1076 86.9987 53.2464 86.1308L53.42 85.0546Z" stroke="#505050" stroke-width="1.6" stroke-miterlimit="10" stroke-linecap="round" stroke-linejoin="round" />
	<path d="M40.7487 67.9053L45.0187 68.5301C45.5394 68.5996 45.8866 69.0161 45.8866 69.5021V72.1405C45.8866 72.7306 45.3311 73.2167 44.7062 73.1125L40.4363 72.5224C39.9156 72.4529 39.5337 72.0364 39.5337 71.5503V68.8773C39.5337 68.2871 40.1238 67.8011 40.7487 67.9053Z" fill="white" stroke="#FF7500" stroke-width="1.3886" stroke-miterlimit="10" stroke-linecap="round" stroke-linejoin="round" />
	<path d="M60.1894 49.8534L30.4039 44.8892L29.0153 45.8612L30.4386 47.2845L31.48 49.7146L52.5868 52.8736L55.3987 50.9296L59.4604 50.4089L60.1894 49.8534Z" fill="white" stroke="#505050" stroke-width="1.6" stroke-miterlimit="10" stroke-linecap="round" stroke-linejoin="round" />
</svg>