<svg width="115" height="100" viewBox="0 0 115 100" fill="none" xmlns="http://www.w3.org/2000/svg">
	<path d="M31.0516 44.2808V57.6461" stroke="#505050" stroke-width="1.6" stroke-miterlimit="10" stroke-linecap="round" stroke-linejoin="round" />
	<path d="M35.5993 43.3086L37.5434 55.563" stroke="#505050" stroke-width="1.6" stroke-miterlimit="10" />
	<path d="M49.6589 48.5508L49.5895 37.3378L32.6485 44.5932L28.6563 43.8295C27.962 43.6906 27.476 43.1005 27.476 42.4062C27.476 41.9549 27.7537 41.573 28.1703 41.3994L49.3117 33.3455C49.3117 33.3455 49.8325 26.6455 50.4921 20.3621C51.1516 14.2175 52.5402 8.00353 52.5402 8.00353H54.6231L55.2827 8.8714L61.462 7.17037C61.462 7.17037 64.7947 6.30249 67.7802 6.30249C73.0916 6.30249 76.5284 7.79523 76.5284 7.79523L83.5755 11.1626L84.374 10.1559L86.8388 10.7113L86.3875 23.3476L84.9641 26.715L84.5476 39.143L86.8388 39.8026V41.9549L71.5988 52.8901L67.7107 52.5777C66.8429 52.5083 66.1138 51.9528 65.8708 51.1197L65.7667 50.7725C65.3848 49.6616 65.8708 48.4119 66.8776 47.8217L80.4512 40.0456" stroke="#505050" stroke-width="1.6" stroke-miterlimit="10" stroke-linecap="round" stroke-linejoin="round" />
	<path d="M56.1507 47.0229L51.6725 48.7587" stroke="#505050" stroke-width="1.6" stroke-miterlimit="10" stroke-linecap="round" stroke-linejoin="round" />
	<path d="M65.7668 52.0218L52.089 48.828C51.4988 48.6892 50.9087 48.7933 50.3532 48.9322C48.6869 49.3487 44.9724 50.8415 43.5838 51.5705C36.7796 55.1809 34.7662 58.0622 34.7662 58.0622C34.7662 58.0622 31.5377 60.7353 47.9926 64.5193C55.6299 66.255 62.0869 67.4353 63.7186 66.7757L64.9683 66.255L68.5787 63.8597L72.8833 62.8876L79.5834 58.4441L79.5139 54.799L73.6818 52.9938L65.7668 52.0218Z" fill="#FFAC62" stroke="#FF7500" stroke-width="1.6" stroke-miterlimit="10" stroke-linecap="round" stroke-linejoin="round" />
	<path d="M79.6529 47.058L78.9238 80.6623L80.729 81.3913L84.3047 77.9892L85.5544 48.8632C85.5544 48.6896 85.5197 48.5161 85.4503 48.3772C85.242 47.8912 84.7907 46.815 84.6518 46.3637C84.4782 45.7389 84.27 43.899 84.27 43.899L84.2353 43.8643L79.6529 47.058Z" fill="white" stroke="#4F5050" stroke-width="1.3886" stroke-miterlimit="10" stroke-linecap="round" stroke-linejoin="round" />
	<path d="M79.6529 47.058L78.9238 80.6623L80.729 81.3913L84.3047 77.9892L85.5544 48.8632C85.5544 48.6896 85.5197 48.5161 85.4503 48.3772C85.242 47.8912 84.7907 46.815 84.6518 46.3637C84.4782 45.7389 84.27 43.899 84.27 43.899L84.2353 43.8643L79.6529 47.058Z" fill="white" stroke="#505050" stroke-width="1.6" stroke-miterlimit="10" stroke-linecap="round" stroke-linejoin="round" />
	<path d="M65.0376 74.6913V94.7913L69.62 96.4576L72.5708 93.368L72.8138 65.457L72.9527 52.8555L67.5024 52.9943L65.0376 62.8881V66.1166V66.9498V74.6913Z" fill="white" stroke="#505050" stroke-width="1.6" stroke-miterlimit="10" stroke-linecap="round" stroke-linejoin="round" />
	<path d="M63.9616 66.4984L70.5921 68.1301V76.184L30.1143 64.9363L29.9061 58.0974L63.9616 66.4984Z" fill="white" stroke="#505050" stroke-width="1.6" stroke-miterlimit="10" stroke-linecap="round" stroke-linejoin="round" />
	<path d="M34.7662 58.0974C34.7662 58.0974 31.5377 60.7705 47.9926 64.5544C55.6299 66.2902 62.1217 67.5399 63.7533 66.8803L65.0156 65.9062" fill="#FFAC62" />
	<path d="M34.7662 58.0974C34.7662 58.0974 31.5377 60.7705 47.9926 64.5544C55.6299 66.2902 62.1217 67.5399 63.7533 66.8803L65.0156 65.9062" stroke="#FF7500" stroke-width="1.6" stroke-miterlimit="10" stroke-linecap="round" stroke-linejoin="round" />
	<path d="M70.592 68.1301L65.0376 66.7762V62.8881L67.5024 52.9943L72.9527 52.8555L72.8138 64.0625" stroke="#505050" stroke-width="1.6" stroke-miterlimit="10" stroke-linecap="round" />
	<path d="M38.7236 67.6091L39.6956 82.3977L36.5366 84.6195L32.8568 83.2656L31.364 65.665" stroke="#505050" stroke-width="1.6" stroke-miterlimit="10" stroke-linecap="round" stroke-linejoin="round" />
	<path d="M55.4564 8.83643C55.4564 8.83643 54.2761 16.439 53.7554 21.0908C53.2 26.0204 51.8808 38.7955 51.8808 38.7955C51.8808 38.7955 54.7969 40.1147 55.5953 40.7743C56.3243 41.3645 58.0948 43.7945 58.0948 43.7945L69.9326 45.9816" stroke="#505050" stroke-width="1.6" stroke-miterlimit="10" stroke-linecap="round" stroke-linejoin="round" />
	<path d="M61.4621 7.03187L58.1295 43.7952L70.488 46.0863L71.7725 45.2879L76.1813 7.51789C76.1813 7.51789 72.7098 4.53239 68.8564 4.25467C65.2113 3.97695 61.4621 7.03187 61.4621 7.03187Z" fill="#FFAC62" stroke="#FF7500" stroke-width="1.6" stroke-miterlimit="10" stroke-linecap="round" stroke-linejoin="round" />
	<path d="M80.4164 39.5944C80.4164 39.5944 81.076 29.7354 81.4232 26.4721C81.8398 22.6188 83.5755 11.1281 83.5755 11.1281C83.5755 11.1281 81.9092 22.1328 81.4926 25.8473C81.1107 29.3882 80.4164 40.011 80.4164 40.011L66.8428 47.7872C65.8014 48.3774 65.3501 49.5924 65.7319 50.738L65.8361 51.0851C66.1138 51.8836 66.7918 52.7118 67.625 52.7812L71.9375 52.875L86.804 41.9204V39.768L84.5128 39.1084L84.9294 26.6804L86.3527 23.3131L86.804 10.6768L84.3392 10.1213L83.5408 11.1281" fill="white" />
	<path d="M80.4164 39.5944C80.4164 39.5944 81.076 29.7354 81.4232 26.4721C81.8398 22.6188 83.5755 11.1281 83.5755 11.1281C83.5755 11.1281 81.9092 22.1328 81.4926 25.8473C81.1107 29.3882 80.4164 40.011 80.4164 40.011L66.8428 47.7872C65.8014 48.3774 65.3501 49.5924 65.7319 50.738L65.8361 51.0851C66.1138 51.8836 66.7918 52.7118 67.625 52.7812L71.9375 52.875L86.804 41.9204V39.768L84.5128 39.1084L84.9294 26.6804L86.3527 23.3131L86.804 10.6768L84.3392 10.1213L83.5408 11.1281" stroke="#505050" stroke-width="1.6" stroke-miterlimit="10" stroke-linecap="round" stroke-linejoin="round" />
	<path d="M54.068 19.043C54.068 19.043 56.5675 23.7295 56.1856 27.4093C55.6649 31.9917 52.4017 34.0746 52.4017 34.0746" stroke="#505050" stroke-width="1.6" stroke-miterlimit="10" stroke-linecap="round" stroke-linejoin="round" />
	<path d="M81.7356 22.9661C81.7356 22.9661 78.7501 24.806 78.2988 30.3604C77.9517 34.7692 80.4165 38.4837 80.4165 38.4837" stroke="#505050" stroke-width="1.6" stroke-miterlimit="10" stroke-linecap="round" stroke-linejoin="round" />
	<path d="M79.3058 62.8877L73.1612 67.7825" stroke="#505050" stroke-width="1.6" stroke-miterlimit="10" stroke-linecap="round" stroke-linejoin="round" />
	<path d="M55.9423 41.6074L56.1506 47.023L65.4195 49.0364" stroke="#505050" stroke-width="1.6" stroke-miterlimit="10" stroke-linecap="round" stroke-linejoin="round" />
	<path d="M75.14 50.8418L79.5488 51.8485" stroke="#505050" stroke-width="1.6" stroke-miterlimit="10" stroke-linecap="round" stroke-linejoin="round" />
	<path d="M46.0833 54.4521L41.7786 59.2428" stroke="white" stroke-width="1.6" stroke-miterlimit="10" stroke-linecap="round" stroke-linejoin="round" />
	<path d="M49.9366 53.7578L45.6319 58.5138" stroke="white" stroke-width="1.6" stroke-miterlimit="10" stroke-linecap="round" stroke-linejoin="round" />
	<path d="M69.4467 95.6937V75.8713" stroke="#505050" stroke-width="0.8" stroke-miterlimit="10" stroke-linecap="round" stroke-linejoin="round" />
	<path d="M80.5898 80.9396L81.2841 46.2939" stroke="#505050" stroke-width="0.8" stroke-miterlimit="10" stroke-linecap="round" stroke-linejoin="round" />
	<path d="M36.5017 84.099L35.1826 66.7068" stroke="#505050" stroke-width="0.8" stroke-miterlimit="10" stroke-linecap="round" stroke-linejoin="round" />
	<path d="M80.4164 40.0106L82.7076 40.4271L84.5822 39.0732" fill="white" />
	<path d="M80.4164 40.0106L82.7076 40.4271L84.5822 39.0732" stroke="#505050" stroke-width="1.6" stroke-miterlimit="10" stroke-linecap="round" stroke-linejoin="round" />
	<path d="M49.3119 33.2759V34.2479L50.0062 34.4562V37.2334" fill="white" />
	<path d="M49.3119 33.2759V34.2479L50.0062 34.4562V37.2334" stroke="#505050" stroke-width="1.6" stroke-miterlimit="10" stroke-linecap="round" stroke-linejoin="round" />
	<path d="M71.9461 50.0783L86.4917 40.0803" stroke="#505050" stroke-width="0.8" stroke-miterlimit="10" stroke-linecap="round" stroke-linejoin="round" />
	<path d="M33.0304 41.7465L49.5895 34.9424" stroke="#505050" stroke-width="0.8" stroke-miterlimit="10" stroke-linecap="round" stroke-linejoin="round" />
</svg>