<svg width="115" height="100" viewBox="0 0 115 100" fill="none" xmlns="http://www.w3.org/2000/svg">
	<path d="M86.4017 16.2354C91.366 16.5825 94.8722 17.4504 94.8722 18.4571C94.8722 19.7763 88.7276 20.8525 81.1597 20.8525C73.5918 20.8525 67.4473 19.7763 67.4473 18.4571C67.4473 17.4504 70.9882 16.5825 75.9872 16.2354" stroke="#505050" stroke-width="1.6" stroke-miterlimit="10" stroke-linecap="round" stroke-linejoin="round" />
	<path d="M68.0375 68.3081C68.0375 70.634 73.9044 72.5086 81.1598 72.5086C88.4153 72.5086 94.2821 70.634 94.2821 68.3081" stroke="#505050" stroke-width="1.6" stroke-miterlimit="10" stroke-linecap="round" stroke-linejoin="round" />
	<path d="M76.9594 85.0757C76.9594 86.013 79.0075 86.7767 81.5417 86.7767C84.0759 86.7767 86.1241 86.013 86.1241 85.0757" stroke="#505050" stroke-width="0.8" stroke-miterlimit="10" stroke-linecap="round" stroke-linejoin="round" />
	<path d="M76.9594 88.3735C76.9594 89.3803 79.0075 90.1787 81.5417 90.1787C84.0759 90.1787 86.1241 89.3803 86.1241 88.3735" stroke="#505050" stroke-width="1.6" stroke-miterlimit="10" stroke-linecap="round" stroke-linejoin="round" />
	<path d="M67.4473 18.457L68.0374 68.3079" stroke="#505050" stroke-width="1.6" stroke-miterlimit="10" stroke-linecap="round" stroke-linejoin="round" />
	<path d="M86.0894 72.4043V88.3732" stroke="#505050" stroke-width="1.6" stroke-miterlimit="10" stroke-linecap="round" stroke-linejoin="round" />
	<path d="M81.1945 8.52835C83.9362 8.52835 86.1588 7.99991 86.1588 7.34804C86.1588 6.69617 83.9362 6.16772 81.1945 6.16772C78.4528 6.16772 76.2302 6.69617 76.2302 7.34804C76.2302 7.99991 78.4528 8.52835 81.1945 8.52835Z" stroke="#505050" stroke-width="1.6" stroke-miterlimit="10" stroke-linecap="round" stroke-linejoin="round" />
	<path d="M76.2302 11.5835C76.2302 12.1389 78.452 12.5902 81.1945 12.5902C83.937 12.5902 86.1588 12.1389 86.1588 11.5835" stroke="#505050" stroke-width="0.8" stroke-miterlimit="10" stroke-linecap="round" stroke-linejoin="round" />
	<path d="M76.2302 17.8323C76.2302 18.4919 78.452 19.0126 81.1945 19.0126C83.937 19.0126 86.1588 18.4919 86.1588 17.8323" stroke="#505050" stroke-width="1.6" stroke-miterlimit="10" stroke-linecap="round" stroke-linejoin="round" />
	<path d="M76.2302 7.45215V17.6931" stroke="#505050" stroke-width="1.6" stroke-miterlimit="10" stroke-linecap="round" stroke-linejoin="round" />
	<path d="M86.1589 7.34814V17.8321" stroke="#505050" stroke-width="1.6" stroke-miterlimit="10" stroke-linecap="round" stroke-linejoin="round" />
	<path d="M94.8723 18.457L94.2821 68.3079" stroke="#4F5050" stroke-width="1.6" stroke-miterlimit="10" stroke-linecap="round" stroke-linejoin="round" />
	<path d="M76.9594 72.4395V88.4431" stroke="#505050" stroke-width="1.6" stroke-miterlimit="10" stroke-linecap="round" stroke-linejoin="round" />
	<path d="M28.9482 36.1621C28.9482 38.002 35.4747 39.4948 43.5633 39.4948C51.6519 39.4948 58.1784 38.002 58.1784 36.1621" stroke="#505050" stroke-width="0.8" stroke-miterlimit="10" stroke-linecap="round" stroke-linejoin="round" />
	<path d="M28.9483 26.3721V44.5281L13.5001 47.7913" stroke="#505050" stroke-width="1.6" stroke-miterlimit="10" stroke-linecap="round" stroke-linejoin="round" />
	<path d="M22.6302 45.8821C26.1017 45.292 30.0592 51.3671 31.4478 59.4557C32.8364 67.5443 31.1354 74.5915 27.6639 75.1817" stroke="#505050" stroke-width="0.8" stroke-miterlimit="10" stroke-linecap="round" stroke-linejoin="round" />
	<path d="M58.1783 26.3721V87.7831C58.1783 90.5256 51.6519 92.7473 43.5633 92.7473C35.4746 92.7473 28.9482 90.5256 28.9482 87.7831L28.9135 75.2509L18.3254 77.1255" stroke="#505050" stroke-width="1.6" stroke-miterlimit="10" stroke-linecap="round" stroke-linejoin="round" />
	<path d="M28.9483 44.5286C28.9483 44.5286 34.1208 46.299 40.4043 50.9161C45.9934 55.0472 48.7012 58.9353 48.7012 61.2612C48.7012 64.7675 46.2364 67.9613 42.5913 70.7385C37.6618 74.453 28.9136 75.2514 28.9136 75.2514" stroke="#505050" stroke-width="1.6" stroke-miterlimit="10" stroke-linecap="round" stroke-linejoin="round" />
	<path d="M43.5633 30.0175C51.6912 30.0175 58.2802 28.3855 58.2802 26.3724C58.2802 24.3593 51.6912 22.7273 43.5633 22.7273C35.4355 22.7273 28.8465 24.3593 28.8465 26.3724C28.8465 28.3855 35.4355 30.0175 43.5633 30.0175Z" fill="#FFAC62" stroke="#FF7500" stroke-width="1.3886" stroke-miterlimit="10" stroke-linecap="round" stroke-linejoin="round" />
	<path d="M18.535 77.1969C22.0308 76.5968 23.7309 69.5054 22.3322 61.3579C20.9335 53.2104 16.9657 47.092 13.4698 47.6922C9.97397 48.2923 8.27388 55.3837 9.67258 63.5312C11.0713 71.6787 15.0391 77.797 18.535 77.1969Z" fill="#FFAC62" stroke="#FF7500" stroke-width="1.3886" stroke-miterlimit="10" stroke-linecap="round" stroke-linejoin="round" />
</svg>