<svg width="115" height="100" viewBox="0 0 115 100" fill="none" xmlns="http://www.w3.org/2000/svg">
	<path d="M37.9656 8.0495L22.1639 11.8364C22.0951 11.8708 22.0607 11.9052 22.0607 11.9741C22.0607 12.0429 22.0951 12.1118 22.1984 12.1118L74.8705 17.62C76.041 17.7577 77.2459 17.62 78.382 17.2413L92.2558 12.7659C92.359 12.7315 92.3246 12.5938 92.2213 12.5938L40.9951 7.80851C39.9967 7.73966 38.9639 7.80851 37.9656 8.0495Z" stroke="#505050" stroke-width="1.6" stroke-miterlimit="10" stroke-linecap="round" stroke-linejoin="round" />
	<path d="M22.0263 12.0771L21.5443 84.2001L23.3689 84.9919C23.3689 84.9919 24.023 76.0066 25.0214 73.2181C25.5378 71.7722 26.605 69.5689 30.4951 69.6722C35.7623 69.9821 41.5804 71.0493 47.5705 72.0821C52.941 72.9771 60.6869 74.3542 64.9902 75.8001C68.2607 76.9017 71.6001 78.3821 72.4607 84.0968C73.0804 87.8149 73.4591 95.0099 73.4591 95.0099C73.4591 95.0099 74.9738 95.5263 76.6607 95.3542C78.2099 95.1821 78.8984 94.7001 78.8984 94.7001C78.8984 94.7001 79.1738 80.7575 79.346 78.2099C79.5181 75.6624 80.5164 75.0083 81.6869 74.3542L90.6722 69.7755C90.6722 69.7755 91.2919 71.3247 91.5673 73.1149C92.1525 76.9362 92.1181 85.1984 92.1181 85.1984L92.5656 85.5771V12.628" stroke="#505050" stroke-width="1.6" stroke-miterlimit="10" stroke-linecap="round" stroke-linejoin="round" />
	<path d="M24.2295 19.9606V56.1082C24.2295 56.5901 24.5738 57.0033 25.0557 57.0721L69.6721 64.5082C70.2574 64.6115 70.8082 64.1639 70.8082 63.5443V24.4361C70.8082 23.9197 70.4295 23.5065 69.9131 23.4721L25.2967 19.0311C24.7115 18.9279 24.2295 19.4098 24.2295 19.9606Z" stroke="#505050" stroke-width="1.6" stroke-miterlimit="10" stroke-linecap="round" stroke-linejoin="round" />
	<path d="M27.6377 26.0887V48.0526C27.6377 48.0526 30.8738 52.769 46.0902 54.9723C60.1016 57.0035 66.2295 54.3871 66.2295 54.3871V30.7707C66.2295 30.7707 63.1656 26.3297 47.5016 24.574C28.5672 22.4051 27.6377 26.0887 27.6377 26.0887Z" fill="#FFAC62" stroke="#FF7500" stroke-width="1.6" stroke-miterlimit="10" stroke-linecap="round" stroke-linejoin="round" />
	<path d="M76.7639 21.5652L76.7639 95.3542" stroke="#505050" stroke-width="0.8" stroke-miterlimit="10" stroke-linecap="round" stroke-linejoin="round" />
	<path d="M37.4836 70.7051V76.0756C37.4836 76.0756 39.3771 75.387 40.4099 75.2149C41.4771 75.0428 42.7853 75.1805 42.7853 75.1805V71.428" stroke="#505050" stroke-width="1.6" stroke-miterlimit="10" stroke-linecap="round" stroke-linejoin="round" />
	<path d="M88.641 71.2559C88.641 71.2559 89.4328 72.3919 89.7771 75.6969C90.018 77.8657 90.2934 84.6821 90.2934 84.6821L92.3934 85.646" stroke="#505050" stroke-width="1.6" stroke-miterlimit="10" stroke-linecap="round" stroke-linejoin="round" />
	<path d="M70.6706 43.4394L69.5345 43.3705C68.9837 43.3361 68.5017 43.7836 68.5017 44.3345V59.5508C68.5017 60.0328 68.846 60.4459 69.3624 60.5148L70.5673 60.6869" stroke="#505050" stroke-width="1.6" stroke-miterlimit="10" stroke-linecap="round" stroke-linejoin="round" />
	<path d="M89.6739 32.6294L79.8624 36.7261" stroke="#505050" stroke-width="0.8" stroke-miterlimit="10" stroke-linecap="round" stroke-linejoin="round" />
	<path d="M89.6739 50.8408L79.8624 55.9015" stroke="#505050" stroke-width="0.8" stroke-miterlimit="10" stroke-linecap="round" stroke-linejoin="round" />
	<path d="M39.9295 32.0115L33.6295 39.0689" stroke="white" stroke-width="1.6" stroke-miterlimit="10" stroke-linecap="round" stroke-linejoin="round" />
	<path d="M45.6442 30.9785L39.3098 38.0359" stroke="white" stroke-width="1.6" stroke-miterlimit="10" stroke-linecap="round" stroke-linejoin="round" />
</svg>