<svg width="115" height="100" viewBox="0 0 115 100" fill="none" xmlns="http://www.w3.org/2000/svg">
	<path d="M27.7705 89.4998V86.7457V43.1621L63.6771 45.7441V95.0424L27.7705 89.4998Z" stroke="#505050" stroke-width="1.6" stroke-miterlimit="10" stroke-linecap="round" stroke-linejoin="round" />
	<path d="M27.3919 87.0212L25.3951 86.6769V42.2671" stroke="#505050" stroke-width="1.6" stroke-miterlimit="10" stroke-linecap="round" stroke-linejoin="round" />
	<path d="M66.2591 45.6064V93.2868L63.8148 94.9392" stroke="#505050" stroke-width="1.6" stroke-miterlimit="10" stroke-linecap="round" stroke-linejoin="round" />
	<path d="M72.6278 44.7805L71.0097 45.228L67.4638 45.6067H62.5409L26.7376 42.7838L24.2933 41.8198C24.2933 41.8198 24.2933 36.0707 24.2933 34.7969C24.2933 33.5231 25.4294 31.1133 25.4294 31.1133L72.6622 33.6264V44.7805H72.6278Z" stroke="#505050" stroke-width="1.6" stroke-miterlimit="10" stroke-linecap="round" stroke-linejoin="round" />
	<path d="M29.5952 37.4821C29.5952 37.4821 38.6928 37.204 44.5018 37.5854C50.4106 37.9734 59.546 39.4789 59.546 39.4789" stroke="#505050" stroke-width="0.8" stroke-miterlimit="10" stroke-linecap="round" stroke-linejoin="round" />
	<path d="M71.9738 45.6064V93.8376L66.4656 93.0458" stroke="#505050" stroke-width="1.6" stroke-miterlimit="10" stroke-linecap="round" stroke-linejoin="round" />
	<path d="M31.6608 79.964V78.0017V46.4673L59.2706 48.3263V83.9919L31.6608 79.964Z" fill="#FFAC62" stroke="#FF7500" stroke-width="1.6" stroke-miterlimit="10" stroke-linecap="round" stroke-linejoin="round" />
	<path d="M46.1541 31.8704V13.7966" stroke="#4F5050" stroke-width="1.6" stroke-miterlimit="10" stroke-linecap="round" stroke-linejoin="round" />
	<path d="M89.4968 13.7966V80.6179L79.9263 87.1245C79.9263 87.1245 75.6919 87.2622 72.6279 87.2622" stroke="#505050" stroke-width="1.6" stroke-miterlimit="10" stroke-linecap="round" stroke-linejoin="round" />
	<path d="M90.1853 13.3492C90.1853 13.3492 82.2328 14.7607 68.1181 14.5542C51.4558 14.2787 45.0869 12.8328 45.0869 12.8328C45.0869 12.8328 45.0869 10.5263 45.0869 9.73448C48.9427 9.35579 58.582 9.39022 68.7722 9.39022C79.4099 9.39022 90.8049 10.3542 90.2541 10.3197L90.1853 13.3492Z" stroke="#505050" stroke-width="1.6" stroke-miterlimit="10" stroke-linecap="round" stroke-linejoin="round" />
	<path d="M79.9262 87.1246L79.9261 18.3279" stroke="#505050" stroke-width="0.8" stroke-miterlimit="10" stroke-linecap="round" stroke-linejoin="round" />
	<path d="M62.0245 10.1222V4.88942C62.0245 4.88942 64.0557 4.61401 66.8098 4.61401C69.3229 4.61401 71.595 4.88942 71.595 4.88942V10.1222C71.595 10.1222 69.6672 10.3976 66.9475 10.3976C64.2967 10.3632 62.0245 10.1222 62.0245 10.1222Z" fill="white" stroke="#505050" stroke-width="1.6" stroke-miterlimit="10" stroke-linecap="round" stroke-linejoin="round" />
	<path d="M35.3616 84.9856V87.361" stroke="#505050" stroke-width="0.8" stroke-miterlimit="10" stroke-linecap="round" stroke-linejoin="round" />
	<path d="M39.4585 85.6055V87.9465" stroke="#505050" stroke-width="0.8" stroke-miterlimit="10" stroke-linecap="round" stroke-linejoin="round" />
	<path d="M43.3486 86.1907V88.5661" stroke="#505050" stroke-width="0.8" stroke-miterlimit="10" stroke-linecap="round" stroke-linejoin="round" />
	<path d="M47.3765 86.8103V89.1513" stroke="#505050" stroke-width="0.8" stroke-miterlimit="10" stroke-linecap="round" stroke-linejoin="round" />
	<path d="M51.5076 87.4299V89.8053" stroke="#505050" stroke-width="0.8" stroke-miterlimit="10" stroke-linecap="round" stroke-linejoin="round" />
	<path d="M55.5698 88.0498V90.3908" stroke="#505050" stroke-width="0.8" stroke-miterlimit="10" stroke-linecap="round" stroke-linejoin="round" />
	<path d="M43.7458 58.1394L37.4114 65.1968" stroke="white" stroke-width="1.6" stroke-miterlimit="10" stroke-linecap="round" stroke-linejoin="round" />
	<path d="M49.4262 57.1067L43.0918 64.1641" stroke="white" stroke-width="1.6" stroke-miterlimit="10" stroke-linecap="round" stroke-linejoin="round" />
</svg>