<svg width="37" height="36" viewBox="0 0 37 36" fill="none" xmlns="http://www.w3.org/2000/svg">
	<path d="M24.4967 18.4498L24.3226 18.5637L24.5203 18.6285C27.1232 19.4818 29.5086 20.8913 31.5127 22.7951C34.6289 25.7556 36.4885 29.5897 36.8392 33.7147C36.9014 34.4461 36.3002 35.05 35.5547 35.05C34.814 35.05 34.2121 34.4461 34.1355 33.6965C33.3637 26.14 26.6422 20.2211 18.5 20.2211C10.3578 20.2211 3.63628 26.14 2.86448 33.6965C2.78793 34.4461 2.18599 35.05 1.44531 35.05C0.699817 35.05 0.0985739 34.4461 0.160754 33.7147C0.511477 29.5897 2.37108 25.7556 5.48742 22.7951C7.49148 20.8913 9.87688 19.4818 12.4798 18.6285L12.6775 18.5637L12.5034 18.4498C9.72635 16.6329 7.90469 13.5941 7.90469 10.1605C7.90469 4.61803 12.653 0.1 18.5 0.1C24.347 0.1 29.0953 4.61803 29.0953 10.1605C29.0953 13.5941 27.2736 16.6329 24.4967 18.4498ZM10.5953 10.1605C10.5953 14.3089 14.1462 17.675 18.5 17.675C22.8538 17.675 26.4047 14.3089 26.4047 10.1605C26.4047 6.01216 22.8538 2.64609 18.5 2.64609C14.1462 2.64609 10.5953 6.01216 10.5953 10.1605Z" fill="#959699" stroke="white" stroke-width="0.2" />
</svg>