<svg width="29" height="29" fill="none" xmlns="http://www.w3.org/2000/svg"><mask id="a" fill="#fff"><path d="M22.202 9.43c-.76-1.197-1.592-1.449-2.156-1.449H9.483c-.564 0-1.396.252-2.134 1.418C7.253 9.534 5 12.739 5 17.991c0 5.253 2.253 8.458 2.327 8.56C8.087 27.749 8.92 28 9.483 28h10.563c.564 0 1.396-.251 2.134-1.418.096-.134 2.35-3.338 2.35-8.59 0-5.253-2.254-8.459-2.328-8.562zm-2.156-.11c.318 0 .69.302 1.045.858.007.01.232.335.53.928h-2.108a21.443 21.443 0 00-.488-1.785h1.02zm-4.612 0h2.174c.198.56.375 1.158.529 1.786h-2.703V9.321zm-3.515 0h2.176v1.786h-2.703c.154-.629.33-1.226.527-1.785zm-3.46.828c.333-.526.706-.828 1.024-.828h1.021a21.712 21.712 0 00-.484 1.786H7.91c.303-.603.535-.938.548-.958zm-1.132 2.298h14.876c.104.275.206.572.304.893H7.024c.097-.321.2-.617.303-.893zm11.595 5.545c0 1.134-.063 2.243-.175 3.312h-3.313v-6.625h3.309c.114 1.07.18 2.177.18 3.313zm-4.827-3.313v6.625H10.78a31.815 31.815 0 01-.175-3.312c0-1.135.065-2.242.179-3.313h3.31zm-7.756 3.313c0-1.23.138-2.34.342-3.313h2.758a32.53 32.53 0 00-.004 6.625H6.68a16.06 16.06 0 01-.342-3.312zm3.144 8.67c-.318 0-.691-.302-1.045-.858a8.376 8.376 0 01-.53-.928h2.107c.144.621.305 1.22.488 1.785h-1.02zm4.612 0H11.92a18.537 18.537 0 01-.53-1.786h2.705v1.785zm3.515 0h-2.176v-1.786h2.706c-.154.63-.332 1.226-.53 1.785zm3.461-.828c-.334.526-.707.828-1.025.828h-1.02a21.78 21.78 0 00.49-1.786h2.104c-.304.603-.536.938-.549.958zm1.13-2.298H7.326a15.083 15.083 0 01-.303-.893h15.484c-.098.32-.2.617-.304.893zm-2.106-2.232c.107-1.074.167-2.183.167-3.312 0-1.132-.063-2.24-.172-3.313h2.759a16.185 16.185 0 010 6.625h-2.754zM10.542 5.724a.67.67 0 101.14.703c.703-1.14.292-1.906.02-2.413-.234-.436-.33-.615-.017-1.136a.67.67 0 00-1.147-.692c-.707 1.174-.291 1.948-.016 2.461.231.432.319.593.02 1.077zm3.654-1.264a.67.67 0 001.14.703c.703-1.142.292-1.907.02-2.414-.233-.435-.33-.616-.016-1.136A.67.67 0 0014.192.92c-.708 1.174-.292 1.949-.017 2.462.233.43.32.592.021 1.077zm3.655 1.264a.669.669 0 101.14.703c.703-1.14.291-1.906.02-2.413-.234-.436-.33-.615-.017-1.136a.67.67 0 00-1.147-.692c-.708 1.174-.292 1.948-.016 2.461.232.432.319.593.02 1.077z"/></mask><path d="M22.202 9.43c-.76-1.197-1.592-1.449-2.156-1.449H9.483c-.564 0-1.396.252-2.134 1.418C7.253 9.534 5 12.739 5 17.991c0 5.253 2.253 8.458 2.327 8.56C8.087 27.749 8.92 28 9.483 28h10.563c.564 0 1.396-.251 2.134-1.418.096-.134 2.35-3.338 2.35-8.59 0-5.253-2.254-8.459-2.328-8.562zm-2.156-.11c.318 0 .69.302 1.045.858.007.01.232.335.53.928h-2.108a21.443 21.443 0 00-.488-1.785h1.02zm-4.612 0h2.174c.198.56.375 1.158.529 1.786h-2.703V9.321zm-3.515 0h2.176v1.786h-2.703c.154-.629.33-1.226.527-1.785h0zm-3.46.828c.333-.526.706-.828 1.024-.828h1.021a21.712 21.712 0 00-.484 1.786H7.91c.303-.603.535-.938.548-.958h0zm-1.132 2.298h14.876c.104.275.206.572.304.893H7.024c.097-.321.2-.617.303-.893h0zm11.595 5.545c0 1.134-.063 2.243-.175 3.312h-3.313v-6.625h3.309c.114 1.07.18 2.177.18 3.313h0zm-4.827-3.313v6.625H10.78a31.815 31.815 0 01-.175-3.312c0-1.135.065-2.242.179-3.313h3.31zm-7.756 3.313c0-1.23.138-2.34.342-3.313h2.758a32.53 32.53 0 00-.004 6.625H6.68a16.06 16.06 0 01-.342-3.312h0zm3.144 8.67c-.318 0-.691-.302-1.045-.858a8.376 8.376 0 01-.53-.928h2.107c.144.621.305 1.22.488 1.785h-1.02zm4.612 0H11.92a18.537 18.537 0 01-.53-1.786h2.705v1.785zm3.515 0h-2.176v-1.786h2.706c-.154.63-.332 1.226-.53 1.785h0zm3.461-.828c-.334.526-.707.828-1.025.828h-1.02a21.78 21.78 0 00.49-1.786h2.104c-.304.603-.536.938-.549.958h0zm1.13-2.298H7.326a15.083 15.083 0 01-.303-.893h15.484c-.098.32-.2.617-.304.893h0zm-2.106-2.232c.107-1.074.167-2.183.167-3.312 0-1.132-.063-2.24-.172-3.313h2.759a16.185 16.185 0 010 6.625h-2.754zM10.542 5.724a.67.67 0 101.14.703c.703-1.14.292-1.906.02-2.413-.234-.436-.33-.615-.017-1.136a.67.67 0 00-1.147-.692c-.707 1.174-.291 1.948-.016 2.461.231.432.319.593.02 1.077h0zm3.654-1.264a.67.67 0 001.14.703c.703-1.142.292-1.907.02-2.414-.233-.435-.33-.616-.016-1.136A.67.67 0 0014.192.92c-.708 1.174-.292 1.949-.017 2.462.233.43.32.592.021 1.077h0zm3.655 1.264a.669.669 0 101.14.703c.703-1.14.291-1.906.02-2.413-.234-.436-.33-.615-.017-1.136a.67.67 0 00-1.147-.692c-.708 1.174-.292 1.948-.016 2.461.232.432.319.593.02 1.077h0z" fill="#444" stroke="#fff" stroke-width=".4" mask="url(#a)"/></svg>