<svg width="29" height="29" fill="none" xmlns="http://www.w3.org/2000/svg"><mask id="a" fill="#fff"><path d="M25.989 11.69l.01-1.392H3v1.278l.347 1.917H3v1.278h.578l1.273 7.027h-.573v1.278h.804l.579 3.195H23.34l.58-3.195h.803V21.8h-.57l1.277-7.028H26v-1.278h-.337l.327-1.802zm-1.626 1.803h-1.886l.25-1.917h1.984l-.348 1.917zm-11.669 0l-.083-1.917h3.777l-.083 1.917h-3.61zm3.554 1.278l-.305 7.028h-2.888l-.306-7.028h3.5zm-4.833-1.278H7.81l-.25-1.917h3.772l.083 1.917zm.056 1.278l.305 7.027H8.893l-.917-7.027h3.494zm.36 8.306l.084 1.916H9.309l-.25-1.916h2.773zm1.28 0h2.776l-.083 1.916h-2.61l-.083-1.916zm4.055 0h2.773l-.25 1.916h-2.606l.083-1.916zm.056-1.278l.305-7.028h3.495l-.917 7.028h-2.883zm.361-8.306l.083-1.917h3.772l-.25 1.917h-3.605zM4.287 11.576h1.984l.25 1.917H4.635l-.348-1.917zm.58 3.195h1.821l.917 7.027H6.146l-1.278-7.027zm1.51 8.306h1.394l.25 1.916H6.726l-.349-1.916zm15.894 1.916h-1.295l.25-1.916h1.394l-.35 1.916zm.58-3.194h-1.458l.917-7.028h1.82l-1.278 7.028zM4.277 9.659H2.998V7.743c0-1.678 1.286-2.556 2.556-2.556s2.555.878 2.555 2.556v1.916H6.832V7.743c0-.943-.688-1.278-1.278-1.278-.59 0-1.278.335-1.278 1.278v1.916zm1.731-2.37a.735.735 0 01.134.21.64.64 0 01.052.244c0 .166-.07.332-.186.453a.672.672 0 01-.453.186.671.671 0 01-.454-.186.67.67 0 01-.185-.453c0-.083.013-.167.05-.243a.738.738 0 01.135-.211.669.669 0 01.907 0zm4.019-.822l-1.278-.002c0-.085.018-2.105 1.523-3.433.978-.864 2.328-1.225 4.007-1.067 1.08-.927 2.605-1.275 4.058-.91 1.339.338 2.368 1.22 2.893 2.45.52.004 1.046.09 1.546.298 1.18.489 2.585 1.79 2.585 5.217h-1.278c0-1.502-.311-3.422-1.796-4.036-1.323-.55-2.984.135-3.503.655l-.903-.904c.425-.425 1.158-.833 2.008-1.057a2.956 2.956 0 00-1.865-1.384c-1.11-.28-2.315.03-3.074.788l-.22.221-.31-.039c-1.436-.178-2.546.062-3.295.718-1.073.94-1.098 2.47-1.098 2.486zm7.648 1.76l-1.24.31c-.264-1.058-1.208-1.433-1.936-1.433-.727 0-1.671.375-1.936 1.433l-1.239-.31c.359-1.436 1.635-2.401 3.175-2.401 1.54 0 2.817.965 3.176 2.4z"/></mask><path d="M25.989 11.69l.01-1.392H3v1.278l.347 1.917H3v1.278h.578l1.273 7.027h-.573v1.278h.804l.579 3.195H23.34l.58-3.195h.803V21.8h-.57l1.277-7.028H26v-1.278h-.337l.327-1.802zm-1.626 1.803h-1.886l.25-1.917h1.984l-.348 1.917zm-11.669 0l-.083-1.917h3.777l-.083 1.917h-3.61zm3.554 1.278l-.305 7.028h-2.888l-.306-7.028h3.5zm-4.833-1.278H7.81l-.25-1.917h3.772l.083 1.917zm.056 1.278l.305 7.027H8.893l-.917-7.027h3.494zm.36 8.306l.084 1.916H9.309l-.25-1.916h2.773zm1.28 0h2.776l-.083 1.916h-2.61l-.083-1.916zm4.055 0h2.773l-.25 1.916h-2.606l.083-1.916zm.056-1.278l.305-7.028h3.495l-.917 7.028h-2.883zm.361-8.306l.083-1.917h3.772l-.25 1.917h-3.605zM4.287 11.576h1.984l.25 1.917H4.635l-.348-1.917zm.58 3.195h1.821l.917 7.027H6.146l-1.278-7.027zm1.51 8.306h1.394l.25 1.916H6.726l-.349-1.916zm15.894 1.916h-1.295l.25-1.916h1.394l-.35 1.916zm.58-3.194h-1.458l.917-7.028h1.82l-1.278 7.028zM4.277 9.659H2.998V7.743c0-1.678 1.286-2.556 2.556-2.556s2.555.878 2.555 2.556v1.916H6.832V7.743c0-.943-.688-1.278-1.278-1.278-.59 0-1.278.335-1.278 1.278v1.916zm1.731-2.37a.735.735 0 01.134.21.64.64 0 01.052.244c0 .166-.07.332-.186.453a.672.672 0 01-.453.186.671.671 0 01-.454-.186.67.67 0 01-.185-.453c0-.083.013-.167.05-.243a.738.738 0 01.135-.211.669.669 0 01.907 0h0zm4.019-.822l-1.278-.002c0-.085.018-2.105 1.523-3.433.978-.864 2.328-1.225 4.007-1.067 1.08-.927 2.605-1.275 4.058-.91 1.339.338 2.368 1.22 2.893 2.45.52.004 1.046.09 1.546.298 1.18.489 2.585 1.79 2.585 5.217h-1.278c0-1.502-.311-3.422-1.796-4.036-1.323-.55-2.984.135-3.503.655l-.903-.904c.425-.425 1.158-.833 2.008-1.057a2.956 2.956 0 00-1.865-1.384c-1.11-.28-2.315.03-3.074.788l-.22.221-.31-.039c-1.436-.178-2.546.062-3.295.718-1.073.94-1.098 2.47-1.098 2.486h0zm7.648 1.76l-1.24.31c-.264-1.058-1.208-1.433-1.936-1.433-.727 0-1.671.375-1.936 1.433l-1.239-.31c.359-1.436 1.635-2.401 3.175-2.401 1.54 0 2.817.965 3.176 2.4z" fill="#444" stroke="#fff" stroke-width=".4" mask="url(#a)"/></svg>