<svg width="29" height="29" fill="none" xmlns="http://www.w3.org/2000/svg"><path d="M19.18 2.207l-5.826 5.757a.553.553 0 00-.003.786l3.254 3.254 1.188 1.188-1.07 1.071-4.143-4.143-.69-.788a.554.554 0 00-.938.177l-5.92 16.403a.554.554 0 00.693.714l16.779-5.442a.554.554 0 00.22-.919l-5.218-5.218 1.462-1.463a.555.555 0 000-.783l-1.188-1.188 5.392-5.391a2.83 2.83 0 00-3.992-4.016zm2.122 18.202L6.459 25.224l5.216-14.456.084.096a.58.58 0 00.025.027l4.156 4.155-2.012 2.012a.554.554 0 00.783.783l2.012-2.012 4.579 4.58zm-1.07-12.813l-2.45-2.45.654-.645 2.445 2.445-.65.65zm-3.238-1.67l2.454 2.453-2.45 2.45-2.47-2.468 2.466-2.436zm5.394-.487l-.724.724-2.44-2.441.735-.727a1.723 1.723 0 012.43 2.444z" fill="#444"/></svg>