<svg width="29" height="29" fill="none" xmlns="http://www.w3.org/2000/svg"><path d="M24.701 1c-1.82 0-3.3 1.534-3.3 3.421 0 .784.26 1.506.692 2.083l-3.888 3.964a4.797 4.797 0 00-3.37-1.394 4.8 4.8 0 00-2.835.94l-1.663-1.892a2.53 2.53 0 00.389-1.35c0-1.365-1.075-2.48-2.393-2.48-1.317 0-2.392 1.115-2.392 2.48 0 1.367 1.075 2.482 2.392 2.482.448 0 .859-.135 1.22-.359l1.642 1.865a5.198 5.198 0 00-.945 5.23l-3.634 3.146a3.105 3.105 0 00-2.457-1.22C2.415 17.91 1 19.382 1 21.185s1.415 3.275 3.16 3.275c1.743 0 3.158-1.467 3.158-3.275 0-.37-.065-.723-.173-1.059l3.613-3.124c.886 1.36 2.382 2.257 4.077 2.257a4.77 4.77 0 002.997-1.064l2.614 2.816a4.315 4.315 0 00-.983 2.75c0 2.334 1.83 4.238 4.088 4.238 2.252 0 4.088-1.898 4.088-4.239 0-2.34-1.831-4.238-4.088-4.238-.853 0-1.642.274-2.3.739l-2.642-2.839a5.21 5.21 0 001.14-3.259 5.19 5.19 0 00-.843-2.85l3.975-4.048c.524.358 1.15.57 1.82.57 1.82 0 3.299-1.533 3.299-3.42C28 2.534 26.52 1 24.7 1h.001zM4.159 23.341c-1.145 0-2.079-.969-2.079-2.155 0-1.188.934-2.156 2.079-2.156s2.08.968 2.08 2.155c0 1.188-.935 2.156-2.08 2.156zM7.021 6.767c0-.75.589-1.36 1.312-1.36.724 0 1.313.61 1.313 1.36 0 .75-.589 1.36-1.313 1.36-.723 0-1.312-.61-1.312-1.36zm19.532 16.994c0 1.72-1.35 3.12-3.007 3.12-1.658 0-3.008-1.4-3.008-3.12 0-1.719 1.35-3.119 3.008-3.119 1.663.006 3.008 1.406 3.008 3.12zm-11.718-5.616c-2.117 0-3.834-1.786-3.834-3.975 0-2.19 1.723-3.976 3.834-3.976 2.111 0 3.834 1.78 3.834 3.976 0 2.194-1.722 3.975-3.834 3.975zm9.866-11.422c-1.226 0-2.22-1.03-2.22-2.302 0-1.27.994-2.301 2.22-2.301 1.226 0 2.22 1.03 2.22 2.301 0 1.266-.994 2.302-2.22 2.302z" fill="#444"/></svg>