<svg width="29" height="29" fill="none" xmlns="http://www.w3.org/2000/svg"><mask id="a" maskUnits="userSpaceOnUse" x="1.001" y=".253" width="27" height="28" fill="#000"><path fill="#fff" d="M1.001.253h27v28h-27z"/><path d="M26.18 26.064h-.163V16.028h.771a.212.212 0 000-.424h-.77V6.58a1.837 1.837 0 00-.28-1.094 1.798 1.798 0 00-.556-.551.212.212 0 00-.114-.033h-.034v-1.97a1.69 1.69 0 00-1.695-1.679h-8.338a1.69 1.69 0 00-1.695 1.68v.266h-.526a.212.212 0 00-.212.212v9.518h-1.783a4.485 4.485 0 00-1.234-.238V9.01a.703.703 0 00-.702-.702H4.915a.703.703 0 00-.702.702v.966c0 .314.207.58.492.67v.793a.21.21 0 00.211.211h1.229a.212.212 0 00.212-.211v-.761h.805v2.014a4.393 4.393 0 00-3.64 2.257l-.705.582A2.228 2.228 0 002 17.254v8.45c0 1.237 1.016 2.243 2.264 2.243h8.183a2.256 2.256 0 002.264-2.243v-8.45a2.23 2.23 0 00-.815-1.724l-.705-.581a4.46 4.46 0 00-.238-.38h1.055c.794 0 1.44-.641 1.44-1.428v-.275h.521a1.44 1.44 0 001.446-1.433v-4.37a1.44 1.44 0 00-1.446-1.432h-.52v-2.22a.212.212 0 00-.212-.212h-.525v-.26c0-.159.132-.29.295-.29h8.324c.163 0 .295.131.295.29v1.963h-.034c-.04 0-.08.011-.114.034-.232.15-.419.335-.556.55-.287.454-.281.928-.279 1.083v.007l.002 9.029h-.773a.212.212 0 000 .423h.773l-.002 10.036h-.163a.82.82 0 000 1.64h3.699a.82.82 0 000-1.64zM15.45 6.055h.52c.564 0 1.022.453 1.022 1.01v.756H15.45V6.055zm0 2.19h1.542v2.008H15.45V8.245zm0 2.432h1.542v.756c0 .557-.458 1.01-1.021 1.01h-.521v-1.766zm-9.517.55h-.805v-.55h.805v.55zm-1.018-.974a.278.278 0 01-.278-.278V9.01c0-.153.125-.278.278-.278H8.85c.154 0 .278.125.278.278v1.244H4.915zm4.213.424v2.009H7.586v-2.01h1.542zM5.507 13.57a4.038 4.038 0 011.867-.462H9.34a4.04 4.04 0 011.867.462 4.003 4.003 0 011.442 1.304H4.065c.271-.402.73-.928 1.442-1.304zm8.12 2.286c.421.347.662.856.662 1.397v8.45c0 1.003-.825 1.82-1.84 1.82H4.266a1.832 1.832 0 01-1.84-1.82v-8.45c0-.54.24-1.05.66-1.397l.678-.558h9.187l.677.558zm.382-1.712h-1.39a4.348 4.348 0 00-.944-.792h3.329a1.016 1.016 0 01-.995.792zm1.018-1.216h-2.034v-8.09h2.034v8.09zm0-9.306v.792h-2.034v-.792h2.034zm8.306-1.397h-8.325a.717.717 0 00-.719.714v.259h-.56v-.266c0-.693.571-1.256 1.272-1.256h8.339c.7 0 1.271.563 1.271 1.256v1.969h-.56V2.94a.717.717 0 00-.718-.714zm-.052 3.487c.094-.148.221-.278.377-.388h1.347a1.372 1.372 0 01.588 1.036h-2.52c.015-.175.061-.415.208-.648zm2.313 1.072v8.82H23.07v-8.82h2.524zm-2.524 9.243h2.524v10.036h-2.526l.002-10.036zm3.11 11.252h-3.698a.397.397 0 010-.792h3.698a.397.397 0 010 .792z"/></mask><path d="M26.18 26.064h-.163V16.028h.771a.212.212 0 000-.424h-.77V6.58a1.837 1.837 0 00-.28-1.094 1.798 1.798 0 00-.556-.551.212.212 0 00-.114-.033h-.034v-1.97a1.69 1.69 0 00-1.695-1.679h-8.338a1.69 1.69 0 00-1.695 1.68v.266h-.526a.212.212 0 00-.212.212v9.518h-1.783a4.485 4.485 0 00-1.234-.238V9.01a.703.703 0 00-.702-.702H4.915a.703.703 0 00-.702.702v.966c0 .314.207.58.492.67v.793a.21.21 0 00.211.211h1.229a.212.212 0 00.212-.211v-.761h.805v2.014a4.393 4.393 0 00-3.64 2.257l-.705.582A2.228 2.228 0 002 17.254v8.45c0 1.237 1.016 2.243 2.264 2.243h8.183a2.256 2.256 0 002.264-2.243v-8.45a2.23 2.23 0 00-.815-1.724l-.705-.581a4.46 4.46 0 00-.238-.38h1.055c.794 0 1.44-.641 1.44-1.428v-.275h.521a1.44 1.44 0 001.446-1.433v-4.37a1.44 1.44 0 00-1.446-1.432h-.52v-2.22a.212.212 0 00-.212-.212h-.525v-.26c0-.159.132-.29.295-.29h8.324c.163 0 .295.131.295.29v1.963h-.034c-.04 0-.08.011-.114.034-.232.15-.419.335-.556.55-.287.454-.281.928-.279 1.083v.007l.002 9.029h-.773a.212.212 0 000 .423h.773l-.002 10.036h-.163a.82.82 0 000 1.64h3.699a.82.82 0 000-1.64zM15.45 6.055h.52c.564 0 1.022.453 1.022 1.01v.756H15.45V6.055zm0 2.19h1.542v2.008H15.45V8.245zm0 2.432h1.542v.756c0 .557-.458 1.01-1.021 1.01h-.521v-1.766zm-9.517.55h-.805v-.55h.805v.55zm-1.018-.974a.278.278 0 01-.278-.278V9.01c0-.153.125-.278.278-.278H8.85c.154 0 .278.125.278.278v1.244H4.915zm4.213.424v2.009H7.586v-2.01h1.542zM5.507 13.57a4.038 4.038 0 011.867-.462H9.34a4.04 4.04 0 011.867.462 4.003 4.003 0 011.442 1.304H4.065c.271-.402.73-.928 1.442-1.304zm8.12 2.286c.421.347.662.856.662 1.397v8.45c0 1.003-.825 1.82-1.84 1.82H4.266a1.832 1.832 0 01-1.84-1.82v-8.45c0-.54.24-1.05.66-1.397l.678-.558h9.187l.677.558zm.382-1.712h-1.39a4.348 4.348 0 00-.944-.792h3.329a1.016 1.016 0 01-.995.792zm1.018-1.216h-2.034v-8.09h2.034v8.09zm0-9.306v.792h-2.034v-.792h2.034zm8.306-1.397h-8.325a.717.717 0 00-.719.714v.259h-.56v-.266c0-.693.571-1.256 1.272-1.256h8.339c.7 0 1.271.563 1.271 1.256v1.969h-.56V2.94a.717.717 0 00-.718-.714zm-.052 3.487c.094-.148.221-.278.377-.388h1.347a1.372 1.372 0 01.588 1.036h-2.52c.015-.175.061-.415.208-.648zm2.313 1.072v8.82H23.07v-8.82h2.524zm-2.524 9.243h2.524v10.036h-2.526l.002-10.036zm3.11 11.252h-3.698a.397.397 0 010-.792h3.698a.397.397 0 010 .792z" fill="#444"/><path d="M26.18 26.064h-.163V16.028h.771a.212.212 0 000-.424h-.77V6.58a1.837 1.837 0 00-.28-1.094 1.798 1.798 0 00-.556-.551.212.212 0 00-.114-.033h-.034v-1.97a1.69 1.69 0 00-1.695-1.679h-8.338a1.69 1.69 0 00-1.695 1.68v.266h-.526a.212.212 0 00-.212.212v9.518h-1.783a4.485 4.485 0 00-1.234-.238V9.01a.703.703 0 00-.702-.702H4.915a.703.703 0 00-.702.702v.966c0 .314.207.58.492.67v.793a.21.21 0 00.211.211h1.229a.212.212 0 00.212-.211v-.761h.805v2.014a4.393 4.393 0 00-3.64 2.257l-.705.582A2.228 2.228 0 002 17.254v8.45c0 1.237 1.016 2.243 2.264 2.243h8.183a2.256 2.256 0 002.264-2.243v-8.45a2.23 2.23 0 00-.815-1.724l-.705-.581a4.46 4.46 0 00-.238-.38h1.055c.794 0 1.44-.641 1.44-1.428v-.275h.521a1.44 1.44 0 001.446-1.433v-4.37a1.44 1.44 0 00-1.446-1.432h-.52v-2.22a.212.212 0 00-.212-.212h-.525v-.26c0-.159.132-.29.295-.29h8.324c.163 0 .295.131.295.29v1.963h-.034c-.04 0-.08.011-.114.034-.232.15-.419.335-.556.55-.287.454-.281.928-.279 1.083v.007l.002 9.029h-.773a.212.212 0 000 .423h.773l-.002 10.036h-.163a.82.82 0 000 1.64h3.699a.82.82 0 000-1.64h0zM15.45 6.055h.52c.564 0 1.022.453 1.022 1.01v.756H15.45V6.055zm0 2.19h1.542v2.008H15.45V8.245zm0 2.432h1.542v.756c0 .557-.458 1.01-1.021 1.01h-.521v-1.766zm-9.517.55h-.805v-.55h.805v.55zm-1.018-.974a.278.278 0 01-.278-.278V9.01c0-.153.125-.278.278-.278H8.85c.154 0 .278.125.278.278v1.244H4.915zm4.213.424v2.009H7.586v-2.01h1.542zM5.507 13.57a4.038 4.038 0 011.867-.462H9.34a4.04 4.04 0 011.867.462 4.003 4.003 0 011.442 1.304H4.065c.271-.402.73-.928 1.442-1.304h0zm8.12 2.286c.421.347.662.856.662 1.397v8.45c0 1.003-.825 1.82-1.84 1.82H4.266a1.832 1.832 0 01-1.84-1.82v-8.45c0-.54.24-1.05.66-1.397l.678-.558h9.187l.677.558zm.382-1.712h-1.39a4.348 4.348 0 00-.944-.792h3.329a1.016 1.016 0 01-.995.792zm1.018-1.216h-2.034v-8.09h2.034v8.09zm0-9.306v.792h-2.034v-.792h2.034zm8.306-1.397h-8.325a.717.717 0 00-.719.714v.259h-.56v-.266c0-.693.571-1.256 1.272-1.256h8.339c.7 0 1.271.563 1.271 1.256v1.969h-.56V2.94a.717.717 0 00-.718-.714h0zm-.052 3.487c.094-.148.221-.278.377-.388h1.347a1.372 1.372 0 01.588 1.036h-2.52c.015-.175.061-.415.208-.648h0zm2.313 1.072v8.82H23.07v-8.82h2.524zm-2.524 9.243h2.524v10.036h-2.526l.002-10.036h0zm3.11 11.252h-3.698a.397.397 0 010-.792h3.698a.397.397 0 010 .792z" stroke="#444" stroke-width=".4" mask="url(#a)"/></svg>