<svg width="29" height="29" fill="none" xmlns="http://www.w3.org/2000/svg"><path d="M6.4 27.079h16.2c.24 0 .4-.16.4-.401V1.819c0-.24-.16-.4-.4-.4H6.4c-.24 0-.4.16-.4.4v24.859c0 .24.2.4.4.4zM6.803 2.22h15.396v24.057H6.802V2.22z" fill="#444"/><path d="M9.89 18.779h4.17c.24 0 .4-.16.4-.4V3.983a.42.42 0 00-.2-.36c-.12-.08-.28-.04-.401.04L9.689 6.55c-.12.08-.16.2-.16.32v11.508c-.04.24.16.401.36.401zm.4-11.667l3.368-2.326v13.231H10.29V7.112zm10.344-.562l-4.17-2.886a.475.475 0 00-.4-.04c-.12.08-.2.2-.2.36v14.394c0 .24.16.401.4.401h4.17c.24 0 .4-.16.4-.4l.001-11.508c-.04-.12-.08-.24-.2-.32zm-.641 11.427h-3.368V4.747l3.368 2.325v10.905zm.401 2.205H9.889c-.24 0-.4.16-.4.401v3.93c0 .24.16.4.4.4h10.505c.24 0 .4-.16.4-.4v-3.93c0-.24-.16-.4-.4-.4zm-.401 3.93H10.29v-3.128h9.703v3.127zM8.166 12.965c-.24 0-.401.16-.401.401v1.724c0 .24.16.401.4.401.241 0 .401-.16.401-.4v-1.725c0-.2-.2-.4-.4-.4z" fill="#444"/></svg>