<svg width="29" height="29" fill="none" xmlns="http://www.w3.org/2000/svg"><path d="M24.982 23.78a.485.485 0 01-.487-.488V6.286c0-.27.217-.487.487-.487.271 0 .488.216.488.487v17.006a.485.485 0 01-.488.487zm-3.404 0a.485.485 0 01-.488-.488v-11.34c-1.13-.134-2.227-.71-3.296-1.272-1.165-.616-2.261-1.191-3.331-1.191-1.07 0-2.167.575-3.33 1.191-1.07.562-2.167 1.138-3.298 1.273v11.34c0 .27-.216.487-.487.487a.486.486 0 01-.488-.488v-11.8c0-.27.217-.487.488-.487 1.063 0 2.166-.575 3.33-1.191 1.22-.644 2.478-1.3 3.785-1.3 1.306 0 2.566.663 3.784 1.3 1.164.616 2.268 1.191 3.33 1.191.272 0 .488.217.488.487v11.8c0 .27-.216.488-.487.488zm-17.637 0a.485.485 0 01-.487-.488V6.286c0-.27.217-.487.487-.487.271 0 .488.216.488.487v17.006a.485.485 0 01-.488.487z" fill="#444"/><path d="M26.512 23.78H2.527a.485.485 0 01-.488-.488c0-.27.217-.488.488-.488h23.985c.27 0 .487.217.487.488 0 .27-.217.487-.487.487zM3.827 6.557a.482.482 0 01-.44-.284l-1.34-2.877a.48.48 0 01.44-.69h23.958a.479.479 0 01.44.69l-1.34 2.877a.493.493 0 01-.44.284H3.826zm20.96-.975l.886-1.902H3.245l.887 1.902h20.654z" fill="#444"/><path d="M18.389 23.34a.486.486 0 01-.298-.873c1.178-.915 1.51-2.168.995-3.67-.345 1.435-1.219 1.624-1.543 1.638-.887.054-1.659-.758-1.72-1.753-.06-.975.447-1.49.813-1.862.399-.406.575-.59.297-1.266a3.345 3.345 0 00-.338-.61c.014 1.158-.9 1.68-1.923 2.268-.25.143-.514.298-.792.468-.718.447-.602.792-.095 1.678.19.332.366.637.42.969.081.981-.426 1.333-.65 1.442-.521.257-1.205.101-1.74-.4-.595-.548-1.049-1.618-.528-2.958.25-.637-.162-1.198-.643-1.611.02.616-.19 1.056-.406 1.516-.095.21-.203.433-.298.704-.508 1.462-.284 2.634.664 3.473a.49.49 0 01.04.69.491.491 0 01-.69.041c-1.232-1.097-1.564-2.694-.934-4.515.108-.312.23-.569.338-.8.305-.656.474-1.015.088-1.99a.49.49 0 01.122-.541.482.482 0 01.548-.075c1.787.914 2.566 2.207 2.072 3.467-.434 1.117.101 1.726.277 1.888.271.25.549.291.65.237.088-.04.129-.21.108-.447-.02-.114-.162-.358-.304-.602-.407-.704-1.151-2.01.426-2.992.291-.183.569-.339.826-.488 1.415-.812 1.794-1.029 1.117-2.498a.496.496 0 01.054-.5.479.479 0 01.467-.19c.786.122 1.659 1.137 2.011 2.004.521 1.272-.074 1.875-.508 2.322-.331.338-.568.582-.535 1.123.028.501.4.874.698.84.413-.02.826-.792.758-2.424a.496.496 0 01.338-.487c.21-.068.44.014.556.203 2.37 3.696.467 5.768-.46 6.485a.494.494 0 01-.299.102l.02-.007zm8.082 2.186H2.561a.485.485 0 01-.488-.488c0-.27.217-.487.488-.487h23.91c.271 0 .488.217.488.488 0 .27-.217.487-.488.487z" fill="#444"/><path d="M2.527 25.505a.485.485 0 01-.488-.487v-1.726c0-.271.217-.488.488-.488.27 0 .487.217.487.488v1.726c0 .27-.217.487-.487.487zm23.985 0a.485.485 0 01-.488-.487v-1.726c0-.271.217-.488.488-.488.27 0 .488.217.488.488v1.726c0 .27-.217.487-.488.487z" fill="#444"/></svg>