<svg width="29" height="29" fill="none" xmlns="http://www.w3.org/2000/svg"><path d="M22.638 11.903c.395-.915.604-2.39-.108-3.54-.553-.896-1.41-1.496-2.369-1.687l.065-.126.024-.047.02-.049a3.97 3.97 0 00-2.232-5.143 4.213 4.213 0 00-1.55-.282c-1.577 0-3.5.828-3.99 2.645-.108.401-.226 1.165-.317 1.828a6.17 6.17 0 00-1.173-.118c-1.502 0-2.724.626-3.535 1.81A3.97 3.97 0 008.496 12.7l.186.135a3.347 3.347 0 00-2.526 3.734c-.005 1.953 1.824 3.67 4.223 3.938l.029.003c.41 1.41 1.751 2.523 3.437 2.71.081.01.163.016.246.02a40.115 40.115 0 001.266 4.265.522.522 0 10.983-.35 39.195 39.195 0 01-1.192-3.985c1.6-.305 2.84-1.491 3.03-3.005l1.183.042.092.004.09-.013a3.452 3.452 0 002.937-3.892 3.466 3.466 0 00-2.121-2.717l.687-.16c.664-.145 1.229-.685 1.592-1.525zm-4.505 1.133s-1.225 1.16.332 1.4l.267-.035a2.405 2.405 0 01.666 4.761l-1.98-.07-.345.073c.075.27.104.552.072.84-.122 1.097-1.047 1.935-2.227 2.145a31.46 31.46 0 01-.52-3.36c.275-.46 1.284-1.78 3.827-1.906a.417.417 0 10-.041-.834c-2.004.099-3.204.86-3.88 1.53a25.617 25.617 0 01.076-3.974c1.1-2.16 2.765-2.864 4-3.065a.417.417 0 00-.134-.825 5.987 5.987 0 00-3.598 1.998 20.48 20.48 0 011.248-4.226.522.522 0 10-.963-.405 21.497 21.497 0 00-1.287 4.31c-.478-1.132-1.134-1.813-1.696-2.215a.417.417 0 10-.486.68c.695.496 1.563 1.514 1.884 3.574a26.395 26.395 0 00-.116 3.58c-.778-.716-1.712-1.132-2.305-1.341a.418.418 0 00-.279.787c.714.253 1.988.839 2.665 1.946.098 1.186.274 2.44.542 3.762-1.502-.214-2.6-1.38-2.53-2.68a4.897 4.897 0 01-.832-.017c-1.917-.213-3.35-1.528-3.292-2.975a2.297 2.297 0 013.028-2.572.802.802 0 00.18.023c.514 0 .357-.681.307-.748-.318-.422-1.621-1.353-1.621-1.353a2.92 2.92 0 01-.76-4.06c.599-.875 1.495-1.356 2.672-1.356.612 0 1.299.13 2.059.402 0 0 .25-2.18.44-2.884.32-1.185 1.686-1.873 2.982-1.872.407 0 .807.068 1.166.21a2.92 2.92 0 011.644 3.788l-.985 1.905c.382-.22.786-.322 1.184-.322.843 0 1.654.462 2.145 1.257.738 1.192.051 3.317-.824 3.495l-2.684.63z" fill="#444"/></svg>