<svg width="29" height="29" fill="none" xmlns="http://www.w3.org/2000/svg"><mask id="a" maskUnits="userSpaceOnUse" x=".999" y="1.131" width="27" height="26" fill="#000"><path fill="#fff" d="M.999 1.131h27v26h-27z"/><path d="M15.282 24.302a1.118 1.118 0 00-.636-.31l-.558-.073a1.11 1.11 0 00-1.242 1.233l.019.155c.063.52.489.929 1.012.97l.597.048a1.071 1.071 0 00.407-.043c.477-.144.8-.575.803-1.072v-.04a1.114 1.114 0 00-.33-.797l-.072-.07zm-.147.904a.575.575 0 01-.617.572l-.598-.048a.561.561 0 01-.51-.49l-.02-.154a.558.558 0 01.628-.622l.557.072a.558.558 0 01.322.157l.072.07a.562.562 0 01.166.402v.041zm-2.103-8.357l-.014-.04-.002-.003-.024-.063A2.313 2.313 0 009.841 15.5l-.215.103a2.017 2.017 0 00-.954 2.655l.08.173a2.162 2.162 0 002.573 1.165l.395-.116a2.007 2.007 0 001.313-2.631zm-.6 1.405c-.187.341-.495.59-.868.7l-.394.116a1.613 1.613 0 01-1.92-.87l-.08-.172a1.466 1.466 0 01.694-1.93l.215-.103a1.764 1.764 0 01.85-.171c.691.035 1.3.474 1.552 1.118l.038.1c.149.397.117.84-.087 1.212zm-2.26 4.408a1.923 1.923 0 00-.218-.205l-1.267-1.012a1.911 1.911 0 00-1.419-.409c-.512.06-.97.314-1.29.719a1.93 1.93 0 00-.412 1.19v.99c0 .923.658 1.718 1.565 1.888l1.398.264a1.911 1.911 0 001.603-.427l.05-.043c.4-.341.638-.818.67-1.343a1.906 1.906 0 00-.5-1.416l-.18-.196zm-.346 2.537l-.05.043a1.368 1.368 0 01-1.146.306l-1.397-.264a1.374 1.374 0 01-1.119-1.349v-.989a1.378 1.378 0 011.217-1.364 1.364 1.364 0 011.014.291l1.267 1.013c.055.045.108.094.155.146l.18.197c.254.277.381.636.358 1.011a1.362 1.362 0 01-.479.96zM3.088 11.363l2.16.455a1.371 1.371 0 001.1-.242l1.123-.835a1.37 1.37 0 00.484-1.527l-.217-.66a1.376 1.376 0 00-1.008-.911l-3.066-.675a1.372 1.372 0 00-1.665 1.338v1.717c0 .644.458 1.208 1.088 1.34zm-.54-3.057a.82.82 0 01.998-.802l3.067.675a.824.824 0 01.604.546l.217.66a.82.82 0 01-.29.915l-1.123.836a.821.821 0 01-.66.145l-2.16-.454a.825.825 0 01-.653-.804V8.306zm1.915 14.565a1.113 1.113 0 00-.72-.946 1.113 1.113 0 00-.748-.008l-.146.051a1.112 1.112 0 00-.735 1.194l.102.762c.01.057.035.111.116.252a1.104 1.104 0 001.186.53l.06-.012c.29-.06.55-.24.708-.49l.055-.085c.129-.204.189-.448.168-.688l-.046-.56zm-.585.953l-.054.086a.562.562 0 01-.358.247l-.06.013a.558.558 0 01-.598-.268 2.188 2.188 0 01-.055-.098l-.095-.715a.561.561 0 01.371-.602l.146-.051a.562.562 0 01.74.481l.048.56a.56.56 0 01-.085.347zm22.654-11.198a1.083 1.083 0 00-1.561-.176c-.231.195-.37.482-.381.785l-.08 2.225c-.012.339.066.676.227.975l.796 1.484a.706.706 0 00.727.363.705.705 0 00.597-.668l.141-3.489a2.347 2.347 0 00-.466-1.5zm-.223 4.966a.155.155 0 01-.292.068l-.797-1.485a1.368 1.368 0 01-.161-.695l.079-2.226a.532.532 0 01.955-.299 1.8 1.8 0 01.357 1.148l-.141 3.49zm.002 5.676c-.004-.03-.01-.06-.016-.09l-.506-2.346a1.44 1.44 0 00-.689-.943l-.46-.265a1.475 1.475 0 00-1.761.223 1.448 1.448 0 00-.397 1.35l.367 1.608c.077.335.271.631.547.836l1.33.984c.247.182.55.282.858.282h.013a.831.831 0 00.817-.958l-.103-.68zm-.526 1.012a.285.285 0 01-.193.079h-.009a.897.897 0 01-.53-.175l-1.33-.984a.892.892 0 01-.338-.517l-.368-1.608a.896.896 0 01.246-.835.922.922 0 011.103-.14l.46.265a.891.891 0 01.427.584l.505 2.343a.8.8 0 01.01.057l.103.682a.288.288 0 01-.086.25zm-8.315-4.273l-1.26-.219a3.386 3.386 0 00-1.998.259 1.57 1.57 0 00-.873 1.776c.098.425.398.777.8.943l1.845.76a3.081 3.081 0 003.139-.48l.022-.018a1.35 1.35 0 00.233-1.823 2.954 2.954 0 00-1.908-1.198zm1.574 2.227a.797.797 0 01-.25.371l-.022.018a2.512 2.512 0 01-2.579.395l-1.844-.76a.802.802 0 01-.475-.559 1.02 1.02 0 01.567-1.154 2.84 2.84 0 011.675-.217l1.26.219a2.41 2.41 0 011.557.977c.146.205.188.47.11.71zm2.785 1.615l-.513-.066a1.118 1.118 0 00-1.076.503 1.111 1.111 0 00-.166.73l.007.061c.053.44.379.801.81.902l.723.168a1.049 1.049 0 00.544-.017 1.05 1.05 0 00.752-1.005v-.036a1.247 1.247 0 00-1.08-1.24zm.533 1.272a.505.505 0 01-.623.492l-.724-.169a.51.51 0 01-.389-.433l-.008-.062a.558.558 0 01.628-.621l.513.066a.698.698 0 01.604.691l-.001.036zM6.117 19.407c.22-.403.255-.881.094-1.312l-.122-.315a1.582 1.582 0 00-1.392-1.004l-.29-.015a1.59 1.59 0 00-.764.154l-.319.153a1.586 1.586 0 00-.75 2.088l.118.256c.102.22.255.415.444.567l.093.075a1.573 1.573 0 001.5.265l.51-.174a1.58 1.58 0 00.878-.738zm-1.054.218l-.511.174c-.336.115-.702.05-.979-.172l-.093-.076a1.034 1.034 0 01-.29-.37l-.118-.256a1.035 1.035 0 01.49-1.362l.318-.153a1.035 1.035 0 01.499-.1l.29.014c.405.02.761.278.909.655l.119.308a1.03 1.03 0 01-.634 1.338zm6.742-5.68l3.105.302a2.179 2.179 0 001.6-.495c.396-.333.592-.838.526-1.35l-.08-.619a1.513 1.513 0 00-1.497-1.315h-2.01c-.777 0-1.535.218-2.193.63l-.104.064c-.53.332-.804.966-.68 1.579a1.502 1.502 0 001.333 1.204zm-.362-2.318l.104-.065a3.584 3.584 0 011.901-.545h2.01c.482 0 .892.36.954.837l.08.617a.956.956 0 01-.336.86c-.33.277-.766.412-1.193.37l-3.105-.303a.955.955 0 01-.848-.766.966.966 0 01.433-1.005zm-.678-2.544a1.217 1.217 0 00-.156-.88l-.08-.131a1.172 1.172 0 00-1.33-.51h-.001l-.082.025a.96.96 0 00-.518 1.46l.102.15c.168.247.373.463.61.645l.053.041a.758.758 0 001.086-.172l.133-.193a1.17 1.17 0 00.183-.435zm-.538-.108a.63.63 0 01-.098.232l-.132.194a.21.21 0 01-.299.048l-.054-.042a2.26 2.26 0 01-.49-.519l-.103-.15a.412.412 0 01.222-.625l.082-.024a.621.621 0 01.706.27l.08.131a.67.67 0 01.086.485zm11.03 4.064a1.79 1.79 0 00.942-.014 3.888 3.888 0 002.204-1.646l.574-.9c.253-.396.377-.853.36-1.321a1.993 1.993 0 00-1.179-1.754 2.008 2.008 0 00-2.148.321l-.454.399a4.551 4.551 0 00-1.254 1.817l-.275.736a1.793 1.793 0 001.23 2.362zm-.716-2.17l.276-.735a3.994 3.994 0 011.102-1.598l.454-.399a1.458 1.458 0 012.415 1.041c.014.357-.081.704-.273 1.005l-.574.9a3.34 3.34 0 01-1.893 1.415 1.245 1.245 0 01-1.445-.62 1.244 1.244 0 01-.062-1.009zm1.249-4.968l2.873.148.068.001a1.327 1.327 0 001.315-1.497l-.14-1.084a1.324 1.324 0 00-1.258-1.154l-2.228-.097a1.325 1.325 0 00-.893.294l-.94.762c-.5.406-.637 1.11-.324 1.673.312.564.883.92 1.527.954zm-.857-2.2l.94-.762a.776.776 0 01.523-.173l2.228.097a.776.776 0 01.737.677l.14 1.084a.778.778 0 01-.81.876l-2.873-.148a1.3 1.3 0 01-1.076-.67.776.776 0 01.191-.982zm-9.562 3.781a1.281 1.281 0 00.921 1.224l.983.283a5.449 5.449 0 002.46.127l1.647-.296a2.277 2.277 0 001.866-1.97l.087-.705a3.812 3.812 0 00-.316-2.055 2.562 2.562 0 00-2.5-1.483l-1.457.104a1.277 1.277 0 00-1.173 1.111l-.14 1.112a.729.729 0 01-.426.572l-.936.415a1.71 1.71 0 00-1.016 1.561zm1.239-1.06l.935-.414a1.28 1.28 0 00.748-1.005l.14-1.112a.727.727 0 01.668-.632l1.457-.104a2.011 2.011 0 011.962 1.164c.251.55.345 1.158.27 1.759l-.086.704a1.73 1.73 0 01-1.419 1.497l-1.646.296a4.904 4.904 0 01-2.212-.113l-.983-.283a.73.73 0 01-.498-.506.729.729 0 01-.026-.19c0-.459.271-.875.69-1.06zM2.78 14.24l-.164.258a.788.788 0 00.215 1.076l.103.072a1.961 1.961 0 001.625.284l1.27-.338a3.174 3.174 0 001.56-.964l.71-.8a.862.862 0 00.144-.917.857.857 0 00-1.005-.484l-3.076.808a2.343 2.343 0 00-1.381 1.005zm4.598-1.282a.31.31 0 01.363.175.31.31 0 01-.052.331l-.71.8a2.627 2.627 0 01-1.292.797l-1.27.339a1.412 1.412 0 01-1.17-.205l-.103-.072a.241.241 0 01-.066-.329l.165-.258c.244-.382.62-.655 1.058-.77l3.077-.808zm.59-6.818c.024 0 .048 0 .073-.002l2.309-.149c.39-.025.743-.256.923-.602l.419-.81a1.674 1.674 0 00-1.612-2.44l-.444.033a2.28 2.28 0 00-1.693.955L7.056 4.37a1.12 1.12 0 00.911 1.77zm-.464-1.45l.886-1.247c.3-.422.77-.687 1.287-.726l.443-.033.084-.003a1.128 1.128 0 011 1.644l-.419.81a.574.574 0 01-.47.307l-2.309.148a.57.57 0 01-.502-.901zM2.73 4.351c.107.448.41.814.84 1.01a1.48 1.48 0 002.017-.874 1.402 1.402 0 00-.601-1.642L4.76 2.71a1.293 1.293 0 00-1.805.49l-.11.2a1.294 1.294 0 00-.122.921l.007.03zm.598-.688l.11-.201a.745.745 0 011.04-.282l.224.136a.85.85 0 01.365.995.938.938 0 01-1.281.545.928.928 0 01-.522-.633l-.007-.03a.746.746 0 01.07-.53zm14.522 15.29h.032l1.694-.024a3.85 3.85 0 003.215-1.818l.278-.448a1.424 1.424 0 00-1.151-2.171l-.508-.02a1.59 1.59 0 00-.093-.001l-3.47.085c-.412.01-.798.197-1.06.514l-.729.877a1.658 1.658 0 00-.128 1.944 2.28 2.28 0 001.92 1.062zm-1.37-2.655l.729-.878a.874.874 0 01.65-.315l3.47-.085h.059l.509.02a.875.875 0 01.707 1.334l-.278.447a3.3 3.3 0 01-2.757 1.56l-1.694.023a1.727 1.727 0 01-1.48-.805 1.11 1.11 0 01.087-1.301z"/></mask><path d="M15.282 24.302a1.118 1.118 0 00-.636-.31l-.558-.073a1.11 1.11 0 00-1.242 1.233l.019.155c.063.52.489.929 1.012.97l.597.048a1.071 1.071 0 00.407-.043c.477-.144.8-.575.803-1.072v-.04a1.114 1.114 0 00-.33-.797l-.072-.07zm-.147.904a.575.575 0 01-.617.572l-.598-.048a.561.561 0 01-.51-.49l-.02-.154a.558.558 0 01.628-.622l.557.072a.558.558 0 01.322.157l.072.07a.562.562 0 01.166.402v.041zm-2.103-8.357l-.014-.04-.002-.003-.024-.063A2.313 2.313 0 009.841 15.5l-.215.103a2.017 2.017 0 00-.954 2.655l.08.173a2.162 2.162 0 002.573 1.165l.395-.116a2.007 2.007 0 001.313-2.631zm-.6 1.405c-.187.341-.495.59-.868.7l-.394.116a1.613 1.613 0 01-1.92-.87l-.08-.172a1.466 1.466 0 01.694-1.93l.215-.103a1.764 1.764 0 01.85-.171c.691.035 1.3.474 1.552 1.118l.038.1c.149.397.117.84-.087 1.212zm-2.26 4.408a1.923 1.923 0 00-.218-.205l-1.267-1.012a1.911 1.911 0 00-1.419-.409c-.512.06-.97.314-1.29.719a1.93 1.93 0 00-.412 1.19v.99c0 .923.658 1.718 1.565 1.888l1.398.264a1.911 1.911 0 001.603-.427l.05-.043c.4-.341.638-.818.67-1.343a1.906 1.906 0 00-.5-1.416l-.18-.196zm-.346 2.537l-.05.043a1.368 1.368 0 01-1.146.306l-1.397-.264a1.374 1.374 0 01-1.119-1.349v-.989a1.378 1.378 0 011.217-1.364 1.364 1.364 0 011.014.291l1.267 1.013c.055.045.108.094.155.146l.18.197c.254.277.381.636.358 1.011a1.362 1.362 0 01-.479.96zM3.088 11.363l2.16.455a1.371 1.371 0 001.1-.242l1.123-.835a1.37 1.37 0 00.484-1.527l-.217-.66a1.376 1.376 0 00-1.008-.911l-3.066-.675a1.372 1.372 0 00-1.665 1.338v1.717c0 .644.458 1.208 1.088 1.34zm-.54-3.057a.82.82 0 01.998-.802l3.067.675a.824.824 0 01.604.546l.217.66a.82.82 0 01-.29.915l-1.123.836a.821.821 0 01-.66.145l-2.16-.454a.825.825 0 01-.653-.804V8.306zm1.915 14.565a1.113 1.113 0 00-.72-.946 1.113 1.113 0 00-.748-.008l-.146.051a1.112 1.112 0 00-.735 1.194l.102.762c.01.057.035.111.116.252a1.104 1.104 0 001.186.53l.06-.012c.29-.06.55-.24.708-.49l.055-.085c.129-.204.189-.448.168-.688l-.046-.56zm-.585.953l-.054.086a.562.562 0 01-.358.247l-.06.013a.558.558 0 01-.598-.268 2.188 2.188 0 01-.055-.098l-.095-.715a.561.561 0 01.371-.602l.146-.051a.562.562 0 01.74.481l.048.56a.56.56 0 01-.085.347zm22.654-11.198a1.083 1.083 0 00-1.561-.176c-.231.195-.37.482-.381.785l-.08 2.225c-.012.339.066.676.227.975l.796 1.484a.706.706 0 00.727.363.705.705 0 00.597-.668l.141-3.489a2.347 2.347 0 00-.466-1.5zm-.223 4.966a.155.155 0 01-.292.068l-.797-1.485a1.368 1.368 0 01-.161-.695l.079-2.226a.532.532 0 01.955-.299 1.8 1.8 0 01.357 1.148l-.141 3.49zm.002 5.676c-.004-.03-.01-.06-.016-.09l-.506-2.346a1.44 1.44 0 00-.689-.943l-.46-.265a1.475 1.475 0 00-1.761.223 1.448 1.448 0 00-.397 1.35l.367 1.608c.077.335.271.631.547.836l1.33.984c.247.182.55.282.858.282h.013a.831.831 0 00.817-.958l-.103-.68zm-.526 1.012a.285.285 0 01-.193.079h-.009a.897.897 0 01-.53-.175l-1.33-.984a.892.892 0 01-.338-.517l-.368-1.608a.896.896 0 01.246-.835.922.922 0 011.103-.14l.46.265a.891.891 0 01.427.584l.505 2.343a.8.8 0 01.01.057l.103.682a.288.288 0 01-.086.25zm-8.315-4.273l-1.26-.219a3.386 3.386 0 00-1.998.259 1.57 1.57 0 00-.873 1.776c.098.425.398.777.8.943l1.845.76a3.081 3.081 0 003.139-.48l.022-.018a1.35 1.35 0 00.233-1.823 2.954 2.954 0 00-1.908-1.198zm1.574 2.227a.797.797 0 01-.25.371l-.022.018a2.512 2.512 0 01-2.579.395l-1.844-.76a.802.802 0 01-.475-.559 1.02 1.02 0 01.567-1.154 2.84 2.84 0 011.675-.217l1.26.219a2.41 2.41 0 011.557.977c.146.205.188.47.11.71zm2.785 1.615l-.513-.066a1.118 1.118 0 00-1.076.503 1.111 1.111 0 00-.166.73l.007.061c.053.44.379.801.81.902l.723.168a1.049 1.049 0 00.544-.017 1.05 1.05 0 00.752-1.005v-.036a1.247 1.247 0 00-1.08-1.24zm.533 1.272a.505.505 0 01-.623.492l-.724-.169a.51.51 0 01-.389-.433l-.008-.062a.558.558 0 01.628-.621l.513.066a.698.698 0 01.604.691l-.001.036zM6.117 19.407c.22-.403.255-.881.094-1.312l-.122-.315a1.582 1.582 0 00-1.392-1.004l-.29-.015a1.59 1.59 0 00-.764.154l-.319.153a1.586 1.586 0 00-.75 2.088l.118.256c.102.22.255.415.444.567l.093.075a1.573 1.573 0 001.5.265l.51-.174a1.58 1.58 0 00.878-.738zm-1.054.218l-.511.174c-.336.115-.702.05-.979-.172l-.093-.076a1.034 1.034 0 01-.29-.37l-.118-.256a1.035 1.035 0 01.49-1.362l.318-.153a1.035 1.035 0 01.499-.1l.29.014c.405.02.761.278.909.655l.119.308a1.03 1.03 0 01-.634 1.338zm6.742-5.68l3.105.302a2.179 2.179 0 001.6-.495c.396-.333.592-.838.526-1.35l-.08-.619a1.513 1.513 0 00-1.497-1.315h-2.01c-.777 0-1.535.218-2.193.63l-.104.064c-.53.332-.804.966-.68 1.579a1.502 1.502 0 001.333 1.204zm-.362-2.318l.104-.065a3.584 3.584 0 011.901-.545h2.01c.482 0 .892.36.954.837l.08.617a.956.956 0 01-.336.86c-.33.277-.766.412-1.193.37l-3.105-.303a.955.955 0 01-.848-.766.966.966 0 01.433-1.005zm-.678-2.544a1.217 1.217 0 00-.156-.88l-.08-.131a1.172 1.172 0 00-1.33-.51h-.001l-.082.025a.96.96 0 00-.518 1.46l.102.15c.168.247.373.463.61.645l.053.041a.758.758 0 001.086-.172l.133-.193a1.17 1.17 0 00.183-.435zm-.538-.108a.63.63 0 01-.098.232l-.132.194a.21.21 0 01-.299.048l-.054-.042a2.26 2.26 0 01-.49-.519l-.103-.15a.412.412 0 01.222-.625l.082-.024a.621.621 0 01.706.27l.08.131a.67.67 0 01.086.485zm11.03 4.064a1.79 1.79 0 00.942-.014 3.888 3.888 0 002.204-1.646l.574-.9c.253-.396.377-.853.36-1.321a1.993 1.993 0 00-1.179-1.754 2.008 2.008 0 00-2.148.321l-.454.399a4.551 4.551 0 00-1.254 1.817l-.275.736a1.793 1.793 0 001.23 2.362zm-.716-2.17l.276-.735a3.994 3.994 0 011.102-1.598l.454-.399a1.458 1.458 0 012.415 1.041c.014.357-.081.704-.273 1.005l-.574.9a3.34 3.34 0 01-1.893 1.415 1.245 1.245 0 01-1.445-.62 1.244 1.244 0 01-.062-1.009zm1.249-4.968l2.873.148.068.001a1.327 1.327 0 001.315-1.497l-.14-1.084a1.324 1.324 0 00-1.258-1.154l-2.228-.097a1.325 1.325 0 00-.893.294l-.94.762c-.5.406-.637 1.11-.324 1.673.312.564.883.92 1.527.954zm-.857-2.2l.94-.762a.776.776 0 01.523-.173l2.228.097a.776.776 0 01.737.677l.14 1.084a.778.778 0 01-.81.876l-2.873-.148a1.3 1.3 0 01-1.076-.67.776.776 0 01.191-.982zm-9.562 3.781a1.281 1.281 0 00.921 1.224l.983.283a5.449 5.449 0 002.46.127l1.647-.296a2.277 2.277 0 001.866-1.97l.087-.705a3.812 3.812 0 00-.316-2.055 2.562 2.562 0 00-2.5-1.483l-1.457.104a1.277 1.277 0 00-1.173 1.111l-.14 1.112a.729.729 0 01-.426.572l-.936.415a1.71 1.71 0 00-1.016 1.561zm1.239-1.06l.935-.414a1.28 1.28 0 00.748-1.005l.14-1.112a.727.727 0 01.668-.632l1.457-.104a2.011 2.011 0 011.962 1.164c.251.55.345 1.158.27 1.759l-.086.704a1.73 1.73 0 01-1.419 1.497l-1.646.296a4.904 4.904 0 01-2.212-.113l-.983-.283a.73.73 0 01-.498-.506.729.729 0 01-.026-.19c0-.459.271-.875.69-1.06zM2.78 14.24l-.164.258a.788.788 0 00.215 1.076l.103.072a1.961 1.961 0 001.625.284l1.27-.338a3.174 3.174 0 001.56-.964l.71-.8a.862.862 0 00.144-.917.857.857 0 00-1.005-.484l-3.076.808a2.343 2.343 0 00-1.381 1.005zm4.598-1.282a.31.31 0 01.363.175.31.31 0 01-.052.331l-.71.8a2.627 2.627 0 01-1.292.797l-1.27.339a1.412 1.412 0 01-1.17-.205l-.103-.072a.241.241 0 01-.066-.329l.165-.258c.244-.382.62-.655 1.058-.77l3.077-.808zm.59-6.818c.024 0 .048 0 .073-.002l2.309-.149c.39-.025.743-.256.923-.602l.419-.81a1.674 1.674 0 00-1.612-2.44l-.444.033a2.28 2.28 0 00-1.693.955L7.056 4.37a1.12 1.12 0 00.911 1.77zm-.464-1.45l.886-1.247c.3-.422.77-.687 1.287-.726l.443-.033.084-.003a1.128 1.128 0 011 1.644l-.419.81a.574.574 0 01-.47.307l-2.309.148a.57.57 0 01-.502-.901zM2.73 4.351c.107.448.41.814.84 1.01a1.48 1.48 0 002.017-.874 1.402 1.402 0 00-.601-1.642L4.76 2.71a1.293 1.293 0 00-1.805.49l-.11.2a1.294 1.294 0 00-.122.921l.007.03zm.598-.688l.11-.201a.745.745 0 011.04-.282l.224.136a.85.85 0 01.365.995.938.938 0 01-1.281.545.928.928 0 01-.522-.633l-.007-.03a.746.746 0 01.07-.53zm14.522 15.29h.032l1.694-.024a3.85 3.85 0 003.215-1.818l.278-.448a1.424 1.424 0 00-1.151-2.171l-.508-.02a1.59 1.59 0 00-.093-.001l-3.47.085c-.412.01-.798.197-1.06.514l-.729.877a1.658 1.658 0 00-.128 1.944 2.28 2.28 0 001.92 1.062zm-1.37-2.655l.729-.878a.874.874 0 01.65-.315l3.47-.085h.059l.509.02a.875.875 0 01.707 1.334l-.278.447a3.3 3.3 0 01-2.757 1.56l-1.694.023a1.727 1.727 0 01-1.48-.805 1.11 1.11 0 01.087-1.301z" fill="#444"/><path d="M15.282 24.302h0a1.118 1.118 0 00-.636-.31l-.558-.073a1.11 1.11 0 00-1.242 1.233l.019.155c.063.52.489.929 1.012.97l.597.048a1.071 1.071 0 00.407-.043c.477-.144.8-.575.803-1.072v-.04a1.114 1.114 0 00-.33-.797l-.072-.07zm-.147.904a.575.575 0 01-.617.572l-.598-.048a.561.561 0 01-.51-.49l-.02-.154a.558.558 0 01.628-.622l.557.072a.558.558 0 01.322.157l.072.07a.562.562 0 01.166.402v.041zm-2.103-8.357l-.014-.04-.002-.003-.024-.063A2.313 2.313 0 009.841 15.5l-.215.103a2.017 2.017 0 00-.954 2.655l.08.173a2.162 2.162 0 002.573 1.165l.395-.116a2.007 2.007 0 001.313-2.631h0zm-.6 1.405c-.187.341-.495.59-.868.7l-.394.116a1.613 1.613 0 01-1.92-.87l-.08-.172a1.466 1.466 0 01.694-1.93l.215-.103a1.764 1.764 0 01.85-.171c.691.035 1.3.474 1.552 1.118l.038.1c.149.397.117.84-.087 1.212h0zm-2.26 4.408a1.923 1.923 0 00-.218-.205l-1.267-1.012a1.911 1.911 0 00-1.419-.409c-.512.06-.97.314-1.29.719a1.93 1.93 0 00-.412 1.19v.99c0 .923.658 1.718 1.565 1.888l1.398.264a1.911 1.911 0 001.603-.427l.05-.043c.4-.341.638-.818.67-1.343a1.906 1.906 0 00-.5-1.416l-.18-.196zm-.346 2.537l-.05.043a1.368 1.368 0 01-1.146.306l-1.397-.264a1.374 1.374 0 01-1.119-1.349v-.989a1.378 1.378 0 011.217-1.364 1.364 1.364 0 011.014.291l1.267 1.013c.055.045.108.094.155.146h0l.18.197c.254.277.381.636.358 1.011a1.362 1.362 0 01-.479.96h0zM3.088 11.363l2.16.455a1.371 1.371 0 001.1-.242l1.123-.835a1.37 1.37 0 00.484-1.527l-.217-.66a1.376 1.376 0 00-1.008-.911l-3.066-.675a1.372 1.372 0 00-1.665 1.338v1.717c0 .644.458 1.208 1.088 1.34h0zm-.54-3.057a.82.82 0 01.998-.802l3.067.675a.824.824 0 01.604.546l.217.66a.82.82 0 01-.29.915l-1.123.836a.821.821 0 01-.66.145l-2.16-.454a.825.825 0 01-.653-.804V8.306zm1.915 14.565a1.113 1.113 0 00-.72-.946 1.113 1.113 0 00-.748-.008l-.146.051a1.112 1.112 0 00-.735 1.194l.102.762c.01.057.035.111.116.252a1.104 1.104 0 001.186.53l.06-.012c.29-.06.55-.24.708-.49l.055-.085c.129-.204.189-.448.168-.688l-.046-.56zm-.585.953l-.054.086a.562.562 0 01-.358.247l-.06.013a.558.558 0 01-.598-.268 2.188 2.188 0 01-.055-.098l-.095-.715a.561.561 0 01.371-.602l.146-.051a.562.562 0 01.74.481l.048.56a.56.56 0 01-.085.347h0zm22.654-11.198a1.083 1.083 0 00-1.561-.176c-.231.195-.37.482-.381.785l-.08 2.225c-.012.339.066.676.227.975l.796 1.484a.706.706 0 00.727.363.705.705 0 00.597-.668l.141-3.489a2.347 2.347 0 00-.466-1.5h0zm-.223 4.966a.155.155 0 01-.292.068l-.797-1.485a1.368 1.368 0 01-.161-.695l.079-2.226a.532.532 0 01.955-.299 1.8 1.8 0 01.357 1.148l-.141 3.49zm.002 5.676c-.004-.03-.01-.06-.016-.09l-.506-2.346a1.44 1.44 0 00-.689-.943l-.46-.265a1.475 1.475 0 00-1.761.223 1.448 1.448 0 00-.397 1.35l.367 1.608c.077.335.271.631.547.836l1.33.984c.247.182.55.282.858.282h.013a.831.831 0 00.817-.958l-.103-.68zm-.526 1.012a.285.285 0 01-.193.079h-.009a.897.897 0 01-.53-.175l-1.33-.984a.892.892 0 01-.338-.517l-.368-1.608a.896.896 0 01.246-.835.922.922 0 011.103-.14l.46.265a.891.891 0 01.427.584l.505 2.343a.8.8 0 01.01.057l.103.682a.288.288 0 01-.086.25h0zm-8.315-4.273l-1.26-.219a3.386 3.386 0 00-1.998.259 1.57 1.57 0 00-.873 1.776c.098.425.398.777.8.943l1.845.76a3.081 3.081 0 003.139-.48l.022-.018a1.35 1.35 0 00.233-1.823 2.954 2.954 0 00-1.908-1.198h0zm1.574 2.227a.797.797 0 01-.25.371l-.022.018a2.512 2.512 0 01-2.579.395l-1.844-.76a.802.802 0 01-.475-.559 1.02 1.02 0 01.567-1.154 2.84 2.84 0 011.675-.217l1.26.219a2.41 2.41 0 011.557.977c.146.205.188.47.11.71h0zm2.785 1.615s0 0 0 0l-.513-.066a1.118 1.118 0 00-1.076.503 1.111 1.111 0 00-.166.73l.007.061c.053.44.379.801.81.902l.723.168a1.049 1.049 0 00.544-.017 1.05 1.05 0 00.752-1.005v-.036a1.247 1.247 0 00-1.08-1.24h0zm.533 1.272a.505.505 0 01-.623.492l-.724-.169a.51.51 0 01-.389-.433l-.008-.062a.558.558 0 01.628-.621l.513.066a.698.698 0 01.604.691l-.001.036zM6.117 19.407c.22-.403.255-.881.094-1.312v0l-.122-.315a1.582 1.582 0 00-1.392-1.004l-.29-.015a1.59 1.59 0 00-.764.154l-.319.153a1.586 1.586 0 00-.75 2.088l.118.256c.102.22.255.415.444.567l.093.075a1.573 1.573 0 001.5.265l.51-.174a1.58 1.58 0 00.878-.738h0zm-1.054.218l-.511.174c-.336.115-.702.05-.979-.172l-.093-.076a1.034 1.034 0 01-.29-.37l-.118-.256a1.035 1.035 0 01.49-1.362l.318-.153a1.035 1.035 0 01.499-.1l.29.014c.405.02.761.278.909.655l.119.308a1.03 1.03 0 01-.634 1.338h0zm6.742-5.68l3.105.302a2.179 2.179 0 001.6-.495c.396-.333.592-.838.526-1.35l-.08-.619a1.513 1.513 0 00-1.497-1.315h-2.01c-.777 0-1.535.218-2.193.63l-.104.064c-.53.332-.804.966-.68 1.579a1.502 1.502 0 001.333 1.204h0zm-.362-2.318l.104-.065a3.584 3.584 0 011.901-.545h2.01c.482 0 .892.36.954.837l.08.617a.956.956 0 01-.336.86c-.33.277-.766.412-1.193.37l-3.105-.303a.955.955 0 01-.848-.766.966.966 0 01.433-1.005h0zm-.678-2.544a1.217 1.217 0 00-.156-.88l-.08-.131a1.172 1.172 0 00-1.33-.51h-.001l-.082.025a.96.96 0 00-.518 1.46l.102.15c.168.247.373.463.61.645l.053.041a.758.758 0 001.086-.172l.133-.193a1.17 1.17 0 00.183-.435h0zm-.538-.108a.63.63 0 01-.098.232l-.132.194a.21.21 0 01-.299.048l-.054-.042a2.26 2.26 0 01-.49-.519l-.103-.15a.412.412 0 01.222-.625l.082-.024a.621.621 0 01.706.27l.08.131a.67.67 0 01.086.485h0zm11.03 4.064a1.79 1.79 0 00.942-.014 3.888 3.888 0 002.204-1.646l.574-.9c.253-.396.377-.853.36-1.321a1.993 1.993 0 00-1.179-1.754 2.008 2.008 0 00-2.148.321l-.454.399a4.551 4.551 0 00-1.254 1.817l-.275.736a1.793 1.793 0 001.23 2.362h0zm-.716-2.17l.276-.735a3.994 3.994 0 011.102-1.598l.454-.399a1.458 1.458 0 012.415 1.041c.014.357-.081.704-.273 1.005l-.574.9a3.34 3.34 0 01-1.893 1.415 1.245 1.245 0 01-1.445-.62 1.244 1.244 0 01-.062-1.009v0zm1.249-4.968l2.873.148.068.001a1.327 1.327 0 001.315-1.497l-.14-1.084a1.324 1.324 0 00-1.258-1.154l-2.228-.097a1.325 1.325 0 00-.893.294l-.94.762c-.5.406-.637 1.11-.324 1.673.312.564.883.92 1.527.954h0zm-.857-2.2l.94-.762a.776.776 0 01.523-.173l2.228.097a.776.776 0 01.737.677l.14 1.084a.778.778 0 01-.81.876l-2.873-.148a1.3 1.3 0 01-1.076-.67.776.776 0 01.191-.982h0zm-9.562 3.781a1.281 1.281 0 00.921 1.224l.983.283a5.449 5.449 0 002.46.127l1.647-.296a2.277 2.277 0 001.866-1.97l.087-.705a3.812 3.812 0 00-.316-2.055 2.562 2.562 0 00-2.5-1.483l-1.457.104a1.277 1.277 0 00-1.173 1.111l-.14 1.112a.729.729 0 01-.426.572l-.936.415a1.71 1.71 0 00-1.016 1.561h0zm1.239-1.06l.935-.414a1.28 1.28 0 00.748-1.005l.14-1.112a.727.727 0 01.668-.632l1.457-.104a2.011 2.011 0 011.962 1.164c.251.55.345 1.158.27 1.759l-.086.704a1.73 1.73 0 01-1.419 1.497l-1.646.296a4.904 4.904 0 01-2.212-.113l-.983-.283a.73.73 0 01-.498-.506h0a.729.729 0 01-.026-.19c0-.459.271-.875.69-1.06h0zM2.78 14.24l-.164.258a.788.788 0 00.215 1.076l.103.072a1.961 1.961 0 001.625.284l1.27-.338a3.174 3.174 0 001.56-.964l.71-.8a.862.862 0 00.144-.917.857.857 0 00-1.005-.484h0l-3.076.808a2.343 2.343 0 00-1.381 1.005h0zm4.598-1.282h0a.31.31 0 01.363.175.31.31 0 01-.052.331l-.71.8a2.627 2.627 0 01-1.292.797l-1.27.339a1.412 1.412 0 01-1.17-.205l-.103-.072a.241.241 0 01-.066-.329l.165-.258c.244-.382.62-.655 1.058-.77l3.077-.808zm.59-6.818c.024 0 .048 0 .073-.002l2.309-.149c.39-.025.743-.256.923-.602l.419-.81a1.674 1.674 0 00-1.612-2.44l-.444.033a2.28 2.28 0 00-1.693.955L7.056 4.37a1.12 1.12 0 00.911 1.77h0zm-.464-1.45l.886-1.247c.3-.422.77-.687 1.287-.726l.443-.033.084-.003a1.128 1.128 0 011 1.644l-.419.81a.574.574 0 01-.47.307l-2.309.148a.568.568 0 01-.605-.513v0a.57.57 0 01.103-.388h0zM2.73 4.351c.107.448.41.814.84 1.01a1.48 1.48 0 002.017-.874 1.402 1.402 0 00-.601-1.642L4.76 2.71a1.293 1.293 0 00-1.805.49l-.11.2a1.294 1.294 0 00-.122.921l.007.03zm.598-.688l.11-.201a.745.745 0 011.04-.282l.224.136a.85.85 0 01.365.995.938.938 0 01-1.281.545.928.928 0 01-.522-.633v0l-.007-.03a.746.746 0 01.07-.53h0zm14.522 15.29h.032l1.694-.024a3.85 3.85 0 003.215-1.818l.278-.448a1.424 1.424 0 00-1.151-2.171l-.508-.02a1.59 1.59 0 00-.093-.001l-3.47.085c-.412.01-.798.197-1.06.514l-.729.877a1.658 1.658 0 00-.128 1.944 2.28 2.28 0 001.92 1.062h0zm-1.37-2.655l.729-.878a.874.874 0 01.65-.315l3.47-.085h.059l.509.02a.875.875 0 01.707 1.334l-.278.447v0a3.3 3.3 0 01-2.757 1.56l-1.694.023a1.727 1.727 0 01-1.48-.805 1.11 1.11 0 01.087-1.301h0z" stroke="#444" stroke-width=".4" mask="url(#a)"/></svg>