<svg width="29" height="29" fill="none" xmlns="http://www.w3.org/2000/svg"><mask id="a" maskUnits="userSpaceOnUse" x="3.554" y="1" width="22" height="26" fill="#000"><path fill="#fff" d="M3.554 1h22v26h-22z"/><path d="M22.798 4.426l1.65 21.059-4.95.388-.194-2.717-3.687.291.194 2.717-5.046.388-.194-2.717-4.367.388c-.583-7.084-1.068-14.07-1.65-21.155l4.949-.389.291 2.718 3.688-.292-.194-2.717L18.237 2l.194 2.717 4.367-.291zm-.582.68l-3.688.29 1.553 19.797 3.688-.29-1.553-19.798zm-4.561-2.427l-3.688.291 1.553 19.797 3.687-.291-1.552-19.797zm-4.173 3.105l-3.688.292 1.553 19.797 3.785-.292-1.65-19.797zM8.92 3.358l-3.688.292 1.553 19.894 3.785-.291L8.92 3.358z"/></mask><path d="M22.798 4.426l1.65 21.059-4.95.388-.194-2.717-3.687.291.194 2.717-5.046.388-.194-2.717-4.367.388c-.583-7.084-1.068-14.07-1.65-21.155l4.949-.389.291 2.718 3.688-.292-.194-2.717L18.237 2l.194 2.717 4.367-.291zm-.582.68l-3.688.29 1.553 19.797 3.688-.29-1.553-19.798zm-4.561-2.427l-3.688.291 1.553 19.797 3.687-.291-1.552-19.797zm-4.173 3.105l-3.688.292 1.553 19.797 3.785-.292-1.65-19.797zM8.92 3.358l-3.688.292 1.553 19.894 3.785-.291L8.92 3.358z" fill="#444"/><path d="M22.798 4.426l1.65 21.059-4.95.388-.194-2.717-3.687.291.194 2.717-5.046.388-.194-2.717-4.367.388c-.583-7.084-1.068-14.07-1.65-21.155l4.949-.389.291 2.718 3.688-.292-.194-2.717L18.237 2l.194 2.717 4.367-.291zm-.582.68l-3.688.29 1.553 19.797 3.688-.29-1.553-19.798zm-4.561-2.427l-3.688.291 1.553 19.797 3.687-.291-1.552-19.797zm-4.173 3.105l-3.688.292 1.553 19.797 3.785-.292-1.65-19.797zM8.92 3.358l-3.688.292 1.553 19.894 3.785-.291L8.92 3.358z" stroke="#444" stroke-width=".2" mask="url(#a)"/></svg>