<svg width="29" height="29" fill="none" xmlns="http://www.w3.org/2000/svg"><mask id="a" maskUnits="userSpaceOnUse" x="4.3" y="17.063" width="8" height="4" fill="#000"><path fill="#fff" d="M4.3 17.063h8v4h-8z"/><path d="M11.807 20.307H5.524a.224.224 0 01-.224-.224v-1.795c0-.124.1-.225.224-.225h6.283c.124 0 .225.101.225.225v1.795c0 .124-.1.224-.225.224zM5.75 19.86h5.834v-1.347H5.749v1.346z"/></mask><path d="M11.807 20.307H5.524a.224.224 0 01-.224-.224v-1.795c0-.124.1-.225.224-.225h6.283c.124 0 .225.101.225.225v1.795c0 .124-.1.224-.225.224zM5.75 19.86h5.834v-1.347H5.749v1.346z" fill="#444"/><path d="M11.807 20.307H5.524a.224.224 0 01-.224-.224v-1.795c0-.124.1-.225.224-.225h6.283c.124 0 .225.101.225.225v1.795c0 .124-.1.224-.225.224zM5.75 19.86h5.834v-1.347H5.749v1.346z" stroke="#444" stroke-width=".2" mask="url(#a)"/><mask id="b" maskUnits="userSpaceOnUse" x="15.969" y="5.395" width="8" height="2" fill="#000"><path fill="#fff" d="M15.969 5.395h8v2h-8z"/><path d="M23.476 6.844h-6.283a.224.224 0 110-.449h6.283a.224.224 0 110 .449z"/></mask><path d="M23.476 6.844h-6.283a.224.224 0 110-.449h6.283a.224.224 0 110 .449z" fill="#444"/><path d="M23.476 6.844h-6.283a.224.224 0 110-.449h6.283a.224.224 0 110 .449h0z" stroke="#444" stroke-width=".2" mask="url(#b)"/><mask id="c" maskUnits="userSpaceOnUse" x="10.582" y="5.395" width="14" height="14" fill="#000"><path fill="#fff" d="M10.582 5.395h14v14h-14z"/><path d="M11.806 18.512a.224.224 0 01-.158-.383L23.316 6.461a.224.224 0 11.317.317L11.966 18.447a.224.224 0 01-.16.065z"/></mask><path d="M11.806 18.512a.224.224 0 01-.158-.383L23.316 6.461a.224.224 0 11.317.317L11.966 18.447a.224.224 0 01-.16.065z" fill="#444"/><path d="M11.806 18.512a.224.224 0 01-.158-.383L23.316 6.461a.224.224 0 11.317.317L11.966 18.447a.224.224 0 01-.16.065h0z" stroke="#444" stroke-width=".2" mask="url(#c)"/><mask id="d" maskUnits="userSpaceOnUse" x="10.582" y="7.191" width="14" height="14" fill="#000"><path fill="#fff" d="M10.582 7.191h14v14h-14z"/><path d="M11.806 20.307a.224.224 0 01-.159-.383l11.67-11.668a.224.224 0 11.316.317L11.965 20.242a.223.223 0 01-.159.066z"/></mask><path d="M11.806 20.307a.224.224 0 01-.159-.383l11.67-11.668a.224.224 0 11.316.317L11.965 20.242a.223.223 0 01-.159.066z" fill="#444"/><path d="M11.806 20.307a.224.224 0 01-.159-.383l11.67-11.668a.224.224 0 11.316.317L11.965 20.242a.223.223 0 01-.159.066h0z" stroke="#444" stroke-width=".2" mask="url(#d)"/><mask id="e" maskUnits="userSpaceOnUse" x="4.3" y="5.395" width="14" height="14" fill="#000"><path fill="#fff" d="M4.3 5.395h14v14h-14z"/><path d="M5.524 18.512a.224.224 0 01-.158-.383L17.034 6.461a.224.224 0 11.317.317L5.683 18.447a.224.224 0 01-.159.065z"/></mask><path d="M5.524 18.512a.224.224 0 01-.158-.383L17.034 6.461a.224.224 0 11.317.317L5.683 18.447a.224.224 0 01-.159.065z" fill="#444"/><path d="M5.524 18.512a.224.224 0 01-.158-.383L17.034 6.461a.224.224 0 11.317.317L5.683 18.447a.224.224 0 01-.159.065h0z" stroke="#444" stroke-width=".2" mask="url(#e)"/><mask id="f" maskUnits="userSpaceOnUse" x="22.25" y="5.395" width="2" height="4" fill="#000"><path fill="#fff" d="M22.25 5.395h2v4h-2z"/><path d="M23.474 8.64a.224.224 0 01-.224-.225V6.62a.224.224 0 11.449 0v1.795c0 .124-.1.224-.225.224z"/></mask><path d="M23.474 8.64a.224.224 0 01-.224-.225V6.62a.224.224 0 11.449 0v1.795c0 .124-.1.224-.225.224z" fill="#444"/><path d="M23.474 8.64a.224.224 0 01-.224-.225V6.62a.224.224 0 11.449 0v1.795c0 .124-.1.224-.225.224z" stroke="#444" stroke-width=".2" mask="url(#f)"/><mask id="g" maskUnits="userSpaceOnUse" x="8.854" y="13.231" width="7" height="6" fill="#000"><path fill="#fff" d="M8.854 13.231h7v6h-7z"/><path d="M10.17 18.447l-.316-.317 3.14-3.142c1.36-1.359 2.529-.476 2.541-.467a.224.224 0 11-.275.354c-.034-.025-.877-.64-1.948.43l-3.141 3.142z"/></mask><path d="M10.17 18.447l-.316-.317 3.14-3.142c1.36-1.359 2.529-.476 2.541-.467a.224.224 0 11-.275.354c-.034-.025-.877-.64-1.948.43l-3.141 3.142z" fill="#444"/><path d="M10.17 18.447l-.316-.317 3.14-3.142c1.36-1.359 2.529-.476 2.541-.467a.224.224 0 11-.275.354c-.034-.025-.877-.64-1.948.43l-3.141 3.142z" stroke="#444" stroke-width=".2" mask="url(#g)"/><mask id="h" maskUnits="userSpaceOnUse" x="10.358" y="8.088" width="3" height="3" fill="#000"><path fill="#fff" d="M10.358 8.088h3v3h-3z"/><path d="M11.583 10.883a.224.224 0 01-.159-.383l1.347-1.346a.224.224 0 11.317.317l-1.346 1.346a.222.222 0 01-.16.066z"/></mask><path d="M11.583 10.883a.224.224 0 01-.159-.383l1.347-1.346a.224.224 0 11.317.317l-1.346 1.346a.222.222 0 01-.16.066z" fill="#444"/><path d="M11.583 10.883a.224.224 0 01-.159-.383l1.347-1.346a.224.224 0 11.317.317l-1.346 1.346a.222.222 0 01-.16.066h0z" stroke="#444" stroke-width=".2" mask="url(#h)"/><mask id="i" maskUnits="userSpaceOnUse" x="-.861" y="19.756" width="8" height="4" fill="#000"><path fill="#fff" d="M-.861 19.756h8v4h-8z"/><path d="M6.646 23H.363a.224.224 0 01-.224-.224V20.98c0-.124.1-.225.224-.225h6.283c.124 0 .224.1.224.225v1.795c0 .124-.1.224-.224.224zm-6.058-.449h5.834v-1.346H.588v1.346z"/></mask><path d="M6.646 23H.363a.224.224 0 01-.224-.224V20.98c0-.124.1-.225.224-.225h6.283c.124 0 .224.1.224.225v1.795c0 .124-.1.224-.224.224zm-6.058-.449h5.834v-1.346H.588v1.346z" fill="#444"/><path d="M6.646 23H.363a.224.224 0 01-.224-.224V20.98c0-.124.1-.225.224-.225h6.283c.124 0 .224.1.224.225v1.795c0 .124-.1.224-.224.224zm-6.058-.449h5.834v-1.346H.588v1.346z" stroke="#444" stroke-width=".2" mask="url(#i)"/><mask id="j" maskUnits="userSpaceOnUse" x="10.807" y="8.087" width="4" height="2" fill="#000"><path fill="#fff" d="M10.807 8.087h4v2h-4z"/><path d="M13.603 9.536H12.03a.224.224 0 110-.45h1.572a.224.224 0 110 .45z"/></mask><path d="M13.603 9.536H12.03a.224.224 0 110-.45h1.572a.224.224 0 110 .45z" fill="#444"/><path d="M13.603 9.536H12.03a.224.224 0 110-.45h1.572a.224.224 0 110 .45z" stroke="#444" stroke-width=".2" mask="url(#j)"/><mask id="k" maskUnits="userSpaceOnUse" x="5.422" y="19.77" width="4" height="4" fill="#000"><path fill="#fff" d="M5.422 19.77h4v4h-4z"/><path d="M6.646 23a.224.224 0 01-.159-.383l1.782-1.781a.224.224 0 11.317.317l-1.781 1.781a.222.222 0 01-.159.066z"/></mask><path d="M6.646 23a.224.224 0 01-.159-.383l1.782-1.781a.224.224 0 11.317.317l-1.781 1.781a.222.222 0 01-.159.066z" fill="#444"/><path d="M6.646 23a.224.224 0 01-.159-.383l1.782-1.781a.224.224 0 11.317.317l-1.781 1.781a.222.222 0 01-.159.066h0z" stroke="#444" stroke-width=".2" mask="url(#k)"/><mask id="l" maskUnits="userSpaceOnUse" x="-.861" y="8.088" width="14" height="14" fill="#000"><path fill="#fff" d="M-.861 8.088h14v14h-14z"/><path d="M.363 21.205a.224.224 0 01-.159-.383L11.873 9.154a.224.224 0 11.317.317L.522 21.14a.224.224 0 01-.159.065z"/></mask><path d="M.363 21.205a.224.224 0 01-.159-.383L11.873 9.154a.224.224 0 11.317.317L.522 21.14a.224.224 0 01-.159.065z" fill="#444"/><path d="M.363 21.205a.224.224 0 01-.159-.383L11.873 9.154a.224.224 0 11.317.317L.522 21.14a.224.224 0 01-.159.065h0z" stroke="#444" stroke-width=".2" mask="url(#l)"/><mask id="m" maskUnits="userSpaceOnUse" x="9.46" y="19.756" width="8" height="4" fill="#000"><path fill="#fff" d="M9.46 19.756h8v4h-8z"/><path d="M16.968 23h-6.284a.224.224 0 01-.224-.224V20.98c0-.124.1-.225.224-.225h6.284c.123 0 .224.1.224.225v1.795c0 .124-.1.224-.224.224zm-6.059-.449h5.835v-1.346h-5.835v1.346z"/></mask><path d="M16.968 23h-6.284a.224.224 0 01-.224-.224V20.98c0-.124.1-.225.224-.225h6.284c.123 0 .224.1.224.225v1.795c0 .124-.1.224-.224.224zm-6.059-.449h5.835v-1.346h-5.835v1.346z" fill="#444"/><path d="M16.968 23h-6.284a.224.224 0 01-.224-.224V20.98c0-.124.1-.225.224-.225h6.284c.123 0 .224.1.224.225v1.795c0 .124-.1.224-.224.224zm-6.059-.449h5.835v-1.346h-5.835v1.346z" stroke="#444" stroke-width=".2" mask="url(#m)"/><mask id="n" maskUnits="userSpaceOnUse" x="22.253" y="8.088" width="7" height="2" fill="#000"><path fill="#fff" d="M22.253 8.088h7v2h-7z"/><path d="M28.636 9.537h-5.159a.224.224 0 110-.45h5.16a.224.224 0 110 .45z"/></mask><path d="M28.636 9.537h-5.159a.224.224 0 110-.45h5.16a.224.224 0 110 .45z" fill="#444"/><path d="M28.636 9.537h-5.159a.224.224 0 110-.45h5.16a.224.224 0 110 .45z" stroke="#444" stroke-width=".2" mask="url(#n)"/><mask id="o" maskUnits="userSpaceOnUse" x="15.743" y="8.088" width="14" height="14" fill="#000"><path fill="#fff" d="M15.743 8.088h14v14h-14z"/><path d="M16.968 21.205a.224.224 0 01-.159-.383L28.477 9.154a.224.224 0 11.317.317L17.126 21.139a.224.224 0 01-.159.066z"/></mask><path d="M16.968 21.205a.224.224 0 01-.159-.383L28.477 9.154a.224.224 0 11.317.317L17.126 21.139a.224.224 0 01-.159.066z" fill="#444"/><path d="M16.968 21.205a.224.224 0 01-.159-.383L28.477 9.154a.224.224 0 11.317.317L17.126 21.139a.224.224 0 01-.159.066h0z" stroke="#444" stroke-width=".2" mask="url(#o)"/><mask id="p" maskUnits="userSpaceOnUse" x="15.743" y="9.883" width="14" height="14" fill="#000"><path fill="#fff" d="M15.743 9.883h14v14h-14z"/><path d="M16.968 23a.224.224 0 01-.16-.383l11.67-11.668a.224.224 0 11.316.317L17.127 22.934a.224.224 0 01-.16.066z"/></mask><path d="M16.968 23a.224.224 0 01-.16-.383l11.67-11.668a.224.224 0 11.316.317L17.127 22.934a.224.224 0 01-.16.066z" fill="#444"/><path d="M16.968 23a.224.224 0 01-.16-.383l11.67-11.668a.224.224 0 11.316.317L17.127 22.934a.224.224 0 01-.16.066h0z" stroke="#444" stroke-width=".2" mask="url(#p)"/><mask id="q" maskUnits="userSpaceOnUse" x="27.412" y="8.088" width="2" height="4" fill="#000"><path fill="#fff" d="M27.412 8.088h2v4h-2z"/><path d="M28.636 11.332a.224.224 0 01-.224-.224V9.312a.224.224 0 11.449 0v1.796c0 .124-.1.224-.225.224z"/></mask><path d="M28.636 11.332a.224.224 0 01-.224-.224V9.312a.224.224 0 11.449 0v1.796c0 .124-.1.224-.225.224z" fill="#444"/><path d="M28.636 11.332a.224.224 0 01-.224-.224V9.312a.224.224 0 11.449 0v1.796c0 .124-.1.224-.225.224z" stroke="#444" stroke-width=".2" mask="url(#q)"/><mask id="r" maskUnits="userSpaceOnUse" x="11.705" y="17.961" width="4" height="4" fill="#000"><path fill="#fff" d="M11.705 17.961h4v4h-4z"/><path d="M12.93 21.205a.224.224 0 01-.16-.383l1.796-1.795a.224.224 0 11.317.317l-1.795 1.795a.222.222 0 01-.158.066z"/></mask><path d="M12.93 21.205a.224.224 0 01-.16-.383l1.796-1.795a.224.224 0 11.317.317l-1.795 1.795a.222.222 0 01-.158.066z" fill="#444"/><path d="M12.93 21.205a.224.224 0 01-.16-.383l1.796-1.795a.224.224 0 11.317.317l-1.795 1.795a.222.222 0 01-.158.066h0z" stroke="#444" stroke-width=".2" mask="url(#r)"/><mask id="s" maskUnits="userSpaceOnUse" x="13.948" y="16.614" width="5" height="5" fill="#000"><path fill="#fff" d="M13.948 16.614h5v5h-5z"/><path d="M15.173 21.204a.224.224 0 01-.159-.383l3.141-3.14a.224.224 0 01.318.316l-3.142 3.141a.224.224 0 01-.158.066z"/></mask><path d="M15.173 21.204a.224.224 0 01-.159-.383l3.141-3.14a.224.224 0 01.318.316l-3.142 3.141a.224.224 0 01-.158.066z" fill="#444"/><path d="M15.173 21.204a.224.224 0 01-.159-.383l3.141-3.14a.224.224 0 01.318.316l-3.142 3.141a.224.224 0 01-.158.066h0z" stroke="#444" stroke-width=".2" mask="url(#s)"/><mask id="t" maskUnits="userSpaceOnUse" x="21.054" y="8.107" width="4" height="4" fill="#000"><path fill="#fff" d="M21.054 8.107h4v4h-4z"/><path d="M22.37 11.407l-.316-.318 1.917-1.916a.224.224 0 01.317.318l-1.917 1.916z"/></mask><path d="M22.37 11.407l-.316-.318 1.917-1.916a.224.224 0 01.317.318l-1.917 1.916z" fill="#444"/><path d="M22.37 11.407l-.316-.318 1.917-1.916a.224.224 0 01.317.318l-1.917 1.916z" stroke="#444" stroke-width=".2" mask="url(#t)"/><mask id="u" maskUnits="userSpaceOnUse" x="15.296" y="5.396" width="4" height="4" fill="#000"><path fill="#fff" d="M15.296 5.396h4v4h-4z"/><path d="M16.52 9.089a.224.224 0 01-.158-.383l2.244-2.245a.224.224 0 11.317.317L16.68 9.023a.223.223 0 01-.159.066z"/></mask><path d="M16.52 9.089a.224.224 0 01-.158-.383l2.244-2.245a.224.224 0 11.317.317L16.68 9.023a.223.223 0 01-.159.066z" fill="#444"/><path d="M16.52 9.089a.224.224 0 01-.158-.383l2.244-2.245a.224.224 0 11.317.317L16.68 9.023a.223.223 0 01-.159.066h0z" stroke="#444" stroke-width=".2" mask="url(#u)"/><mask id="v" maskUnits="userSpaceOnUse" x="15.296" y="5.395" width="7" height="7" fill="#000"><path fill="#fff" d="M15.296 5.395h7v7h-7z"/><path d="M16.52 11.331a.224.224 0 01-.159-.383l4.488-4.487a.224.224 0 11.317.317l-4.487 4.487a.223.223 0 01-.159.066z"/></mask><path d="M16.52 11.331a.224.224 0 01-.159-.383l4.488-4.487a.224.224 0 11.317.317l-4.487 4.487a.223.223 0 01-.159.066z" fill="#444"/><path d="M16.52 11.331a.224.224 0 01-.159-.383l4.488-4.487a.224.224 0 11.317.317l-4.487 4.487a.223.223 0 01-.159.066h0z" stroke="#444" stroke-width=".2" mask="url(#v)"/></svg>