<svg width="37" height="37" fill="none" xmlns="http://www.w3.org/2000/svg"><g clip-path="url(#clip0_5_49703)"><path d="M6.701 32.775V30.87c0-.73-.444-1.207-1.174-1.207-.384 0-.794.127-1.08.537-.223-.35-.537-.537-1.016-.537a1.08 1.08 0 00-.92.445v-.384h-.604v3.05h.604v-1.745c0-.537.317-.794.762-.794s.698.286.698.794v1.746h.604V31.03c0-.537.317-.794.762-.794s.699.286.699.794v1.746H6.7zm9.91-3.017h-1.113v-.92h-.602v.92h-.635v.537h.635v1.432c0 .699.254 1.112 1.016 1.112.29-.006.572-.082.825-.222l-.191-.537c-.172.107-.37.162-.572.159-.318 0-.476-.191-.476-.509v-1.46h1.111v-.508l.001-.004zm5.652-.095a.95.95 0 00-.826.445v-.384h-.603v3.05h.603V31.06c0-.509.254-.826.668-.826.139.006.277.027.412.064l.191-.572a2.148 2.148 0 00-.445-.064zm-8.543.317c-.317-.222-.762-.317-1.238-.317-.763 0-1.239.35-1.239.953 0 .508.35.794 1.016.89l.318.031c.35.064.572.19.572.35 0 .222-.254.383-.731.383a1.675 1.675 0 01-1.016-.317l-.318.476c.445.317.985.383 1.304.383.89 0 1.366-.412 1.366-.984 0-.537-.384-.794-1.048-.89l-.318-.031c-.286-.032-.537-.128-.537-.318 0-.222.254-.383.604-.383.383 0 .762.159.953.254l.312-.48zm9.21 1.271c0 .92.604 1.588 1.588 1.588.445 0 .763-.095 1.08-.35l-.317-.476a1.284 1.284 0 01-.794.286c-.537 0-.953-.412-.953-1.016 0-.603.41-1.013.953-1.013.29.003.569.104.794.286l.317-.476c-.317-.254-.635-.35-1.08-.35-.953-.063-1.588.604-1.588 1.525v-.004zm-4.256-1.588c-.89 0-1.492.635-1.492 1.588 0 .953.634 1.588 1.555 1.588.448.01.886-.136 1.239-.413l-.318-.444a1.517 1.517 0 01-.89.317c-.412 0-.857-.254-.92-.793h2.256v-.254c0-.953-.572-1.588-1.43-1.588v-.001zm-.031.572c.445 0 .762.286.794.762h-1.651c.095-.445.383-.762.857-.762zm-8.226 1.016v-1.524h-.603v.383c-.223-.286-.537-.445-.985-.445-.857 0-1.493.667-1.493 1.588s.635 1.588 1.493 1.588c.445 0 .762-.158.985-.444v.383h.603v-1.529zm-2.445 0c0-.572.35-1.016.953-1.016.572 0 .92.445.92 1.016 0 .603-.383 1.016-.92 1.016-.603.031-.953-.445-.953-1.016zm23.47-1.588a.95.95 0 00-.825.445v-.384h-.604v3.05h.603V31.06c0-.509.254-.826.667-.826.14.006.278.027.413.064l.19-.572a2.148 2.148 0 00-.444-.064zm-2.35 1.588v-1.524h-.603v.383c-.222-.286-.537-.445-.985-.445-.857 0-1.493.667-1.493 1.588s.635 1.588 1.493 1.588c.445 0 .763-.158.985-.444v.383h.604v-1.529zm-2.445 0c0-.572.35-1.016.953-1.016.572 0 .92.445.92 1.016 0 .603-.383 1.016-.92 1.016-.603.031-.953-.445-.953-1.016zm8.575 0v-2.732h-.603v1.589c-.222-.286-.537-.445-.985-.445-.857 0-1.493.667-1.493 1.588 0 .92.635 1.588 1.493 1.588.445 0 .763-.159.985-.445v.384h.603V31.25zm-2.445 0c0-.572.35-1.016.953-1.016.572 0 .92.445.92 1.016 0 .603-.383 1.016-.92 1.016-.604.032-.954-.444-.954-1.016h.001z" fill="#000"/><path d="M24.042 6.605h-11.02v17.976h11.02V6.605z" fill="#FF5F00"/><path d="M14.133 15.593a11.464 11.464 0 014.351-8.988 11.433 11.433 0 100 17.976 11.464 11.464 0 01-4.35-8.988z" fill="#EB001B"/><path d="M37 15.593a11.422 11.422 0 01-18.48 8.988 11.458 11.458 0 000-17.976A11.422 11.422 0 0137 15.593z" fill="#F79E1B"/></g><defs><clipPath id="clip0_5_49703"><path fill="#fff" d="M0 0h37v37H0z"/></clipPath></defs></svg>