<svg width="23" height="13" fill="none" xmlns="http://www.w3.org/2000/svg"><path fill-rule="evenodd" clip-rule="evenodd" d="M11.253 12.946h1.375s.415-.046.627-.272c.195-.208.189-.598.189-.598s-.027-1.828.83-2.097c.843-.265 1.927 1.766 3.076 2.547.868.592 1.528.462 1.528.462l3.072-.042s1.607-.098.845-1.35c-.063-.103-.444-.926-2.284-2.618-1.926-1.771-1.668-1.485.652-4.548 1.413-1.866 1.978-3.005 1.802-3.493-.169-.465-1.208-.342-1.208-.342L18.3.616s-.257-.034-.447.078c-.186.11-.305.368-.305.368S17 2.506 16.27 3.734c-1.54 2.59-2.156 2.727-2.408 2.567-.585-.375-.44-1.507-.44-2.31 0-2.511.385-3.558-.748-3.829-.376-.09-.652-.15-1.614-.159-1.234-.013-2.278.004-2.87.29-.393.192-.696.617-.512.641.229.03.747.139 1.021.509.355.478.342 1.55.342 1.55s.204 2.956-.475 3.323c-.467.252-1.106-.262-2.479-2.612-.704-1.205-1.235-2.535-1.235-2.535S4.75.919 4.567.787a1.445 1.445 0 00-.531-.213L.75.596S.256.609.075.822c-.161.189-.013.58-.013.58s2.573 5.964 5.486 8.97c2.672 2.755 5.705 2.574 5.705 2.574z" fill="#07F"/></svg>