<svg width="32" height="32" viewBox="0 0 32 32" fill="none" xmlns="http://www.w3.org/2000/svg">
	<path d="M28 13C27.7348 13 27.4804 13.1054 27.2929 13.2929C27.1054 13.4804 27 13.7348 27 14V22C27 22.2652 26.8946 22.5196 26.7071 22.7071C26.5196 22.8946 26.2652 23 26 23H6C5.73478 23 5.48043 22.8946 5.29289 22.7071C5.10536 22.5196 5 22.2652 5 22V14C5 13.7348 4.89464 13.4804 4.70711 13.2929C4.51957 13.1054 4.26522 13 4 13C3.73478 13 3.48043 13.1054 3.29289 13.2929C3.10536 13.4804 3 13.7348 3 14V22C3.0007 22.7954 3.31723 23.5579 3.88 24.12C4.44207 24.6828 5.20462 24.9993 6 25H26C26.7954 24.9993 27.5579 24.6828 28.12 24.12C28.6828 23.5579 28.9993 22.7954 29 22V14C29 13.7348 28.8946 13.4804 28.7071 13.2929C28.5196 13.1054 28.2652 13 28 13Z" fill="#231F20" />
	<path d="M15.4 18.8C15.5731 18.9298 15.7836 19 16 19C16.2164 19 16.4269 18.9298 16.6 18.8L28.41 9.94C28.5942 9.80107 28.7248 9.6027 28.7794 9.37852C28.8341 9.15434 28.8096 8.91815 28.71 8.71C28.5611 8.40232 28.3616 8.12177 28.12 7.88C27.5579 7.31723 26.7954 7.0007 26 7H6C5.20462 7.0007 4.44207 7.31723 3.88 7.88C3.63835 8.12177 3.43892 8.40232 3.29 8.71C3.19041 8.91815 3.16588 9.15434 3.22056 9.37852C3.27524 9.6027 3.40576 9.80107 3.59 9.94L15.4 18.8ZM6 9H26C26.0928 8.98539 26.1872 8.98539 26.28 9L16 16.75L5.72 9C5.81276 8.98539 5.90724 8.98539 6 9Z" fill="#231F20" />
</svg>