<svg width="37" height="37" viewBox="0 0 37 37" fill="none" xmlns="http://www.w3.org/2000/svg">
	<g clip-path="url(#clip0_5_49703)">
		<path d="M6.70128 32.7754V30.8698C6.70128 30.1391 6.25653 29.6629 5.52651 29.6629C5.1431 29.6629 4.73285 29.7902 4.44682 30.1996C4.22444 29.85 3.91005 29.6629 3.43078 29.6629C3.25259 29.6552 3.07527 29.6918 2.91468 29.7694C2.7541 29.847 2.61526 29.9632 2.51059 30.1076V29.7242H1.9071V32.7731H2.51059V31.0286C2.51059 30.4918 2.82806 30.2349 3.27282 30.2349C3.71757 30.2349 3.97139 30.5209 3.97139 31.0286V32.7754H4.57488V31.0286C4.57488 30.4918 4.89235 30.2349 5.33711 30.2349C5.78186 30.2349 6.03568 30.5209 6.03568 31.0286V32.7754H6.70128ZM16.6102 29.758H15.4983V28.8378H14.8963V29.758H14.2614V30.2947H14.8963V31.7272C14.8963 32.4257 15.1501 32.839 15.9124 32.839C16.2011 32.833 16.4841 32.7567 16.7367 32.6167L16.5458 32.0799C16.3744 32.187 16.1757 32.2421 15.9737 32.2386C15.6562 32.2386 15.4975 32.0477 15.4975 31.7302V30.2702H16.6094V29.7618L16.6102 29.758ZM22.2632 29.6629C22.0988 29.6592 21.9363 29.6983 21.7916 29.7762C21.6468 29.8542 21.5247 29.9684 21.4373 30.1076V29.7242H20.8338V32.7731H21.4373V31.0608C21.4373 30.5524 21.6912 30.2349 22.1045 30.2349C22.2439 30.2406 22.3823 30.2619 22.517 30.2986L22.708 29.7265C22.5623 29.6898 22.4133 29.6685 22.2632 29.6629ZM13.72 29.9803C13.4026 29.758 12.9578 29.6629 12.4816 29.6629C11.7194 29.6629 11.2432 30.0125 11.2432 30.616C11.2432 31.1244 11.5929 31.4097 12.2592 31.5055L12.5767 31.537C12.9264 31.6006 13.1487 31.7279 13.1487 31.8867C13.1487 32.109 12.8949 32.2701 12.418 32.2701C12.0538 32.2776 11.6971 32.1661 11.4019 31.9526L11.0844 32.4288C11.5292 32.7463 12.069 32.8122 12.388 32.8122C13.2776 32.8122 13.7538 32.3997 13.7538 31.8276C13.7538 31.2908 13.3703 31.0339 12.7055 30.9381L12.388 30.9067C12.102 30.8752 11.8513 30.7794 11.8513 30.5892C11.8513 30.3668 12.1051 30.2058 12.4548 30.2058C12.8382 30.2058 13.217 30.3645 13.4079 30.4596L13.72 29.9803ZM22.9303 31.251C22.9303 32.1711 23.5338 32.839 24.5184 32.839C24.9632 32.839 25.2807 32.744 25.5981 32.4894L25.2806 32.0132C25.0559 32.1952 24.7762 32.296 24.487 32.2992C23.9502 32.2992 23.5338 31.8867 23.5338 31.2832C23.5338 30.6797 23.9448 30.2702 24.487 30.2702C24.7762 30.2734 25.0559 30.3742 25.2806 30.5562L25.5981 30.08C25.2807 29.8262 24.9632 29.7303 24.5184 29.7303C23.5653 29.6667 22.9303 30.3338 22.9303 31.2548V31.251ZM18.6745 29.6629C17.7849 29.6629 17.1815 30.2978 17.1815 31.251C17.1815 32.2041 17.8164 32.839 18.7373 32.839C19.1854 32.8485 19.6229 32.7028 19.9758 32.4265L19.6583 31.9817C19.4031 32.1795 19.0915 32.2907 18.7688 32.2992C18.3562 32.2992 17.9115 32.0454 17.8486 31.5055H20.1038V31.2517C20.1038 30.2986 19.5318 29.6636 18.6745 29.6636V29.6629ZM18.643 30.2349C19.0878 30.2349 19.4052 30.5209 19.4367 30.9971H17.7857C17.8808 30.5524 18.1691 30.2349 18.643 30.2349ZM10.4173 31.251V29.7265H9.81382V30.1099C9.59144 29.8239 9.27704 29.6652 8.82922 29.6652C7.97191 29.6652 7.33621 30.3323 7.33621 31.2533C7.33621 32.1742 7.97114 32.8413 8.82922 32.8413C9.27398 32.8413 9.59144 32.6826 9.81382 32.3966V32.78H10.4173V31.251ZM7.97191 31.251C7.97191 30.6789 8.32158 30.2349 8.92507 30.2349C9.49712 30.2349 9.84526 30.6797 9.84526 31.251C9.84526 31.8544 9.46185 32.267 8.92507 32.267C8.32158 32.2984 7.97191 31.8222 7.97191 31.251ZM31.4428 29.6629C31.2785 29.6592 31.116 29.6983 30.9712 29.7762C30.8264 29.8542 30.7044 29.9684 30.617 30.1076V29.7242H30.0135V32.7731H30.6162V31.0608C30.6162 30.5524 30.87 30.2349 31.2833 30.2349C31.4228 30.2406 31.5612 30.2619 31.6959 30.2986L31.8868 29.7265C31.7412 29.6898 31.5921 29.6685 31.4421 29.6629H31.4428ZM29.0925 31.251V29.7265H28.489V30.1099C28.2667 29.8239 27.9523 29.6652 27.5044 29.6652C26.6471 29.6652 26.0114 30.3323 26.0114 31.2533C26.0114 32.1742 26.6464 32.8413 27.5044 32.8413C27.9492 32.8413 28.2667 32.6826 28.489 32.3966V32.78H29.0925V31.251ZM26.6471 31.251C26.6471 30.6789 26.9968 30.2349 27.6003 30.2349C28.1723 30.2349 28.5205 30.6797 28.5205 31.251C28.5205 31.8544 28.1371 32.267 27.6003 32.267C26.9968 32.2984 26.6471 31.8222 26.6471 31.251ZM35.2225 31.251V28.5195H34.619V30.1076C34.3966 29.8216 34.0822 29.6629 33.6344 29.6629C32.7771 29.6629 32.1414 30.33 32.1414 31.251C32.1414 32.1719 32.7763 32.839 33.6344 32.839C34.0792 32.839 34.3966 32.6803 34.619 32.3943V32.7777H35.2225V31.251ZM32.7771 31.251C32.7771 30.6789 33.1268 30.2349 33.7303 30.2349C34.3023 30.2349 34.6505 30.6797 34.6505 31.251C34.6505 31.8544 34.2671 32.267 33.7303 32.267C33.126 32.2992 32.7763 31.823 32.7763 31.251H32.7771Z" fill="black" />
		<path d="M24.0422 6.60522H13.0214V24.5811H24.0422V6.60522Z" fill="#FF5F00" />
		<path d="M14.1333 15.5933C14.1337 13.864 14.5253 12.1572 15.2788 10.6007C16.0323 9.04416 17.1281 7.67829 18.4843 6.60532C16.7977 5.27926 14.7721 4.45451 12.6389 4.22533C10.5057 3.99616 8.35109 4.37182 6.42133 5.30936C4.49157 6.2469 2.86454 7.7085 1.72622 9.52707C0.587911 11.3456 -0.0157471 13.4478 -0.0157471 15.5933C-0.0157471 17.7387 0.587911 19.8409 1.72622 21.6594C2.86454 23.478 4.49157 24.9396 6.42133 25.8772C8.35109 26.8147 10.5057 27.1904 12.6389 26.9612C14.7721 26.732 16.7977 25.9072 18.4843 24.5812C17.1281 23.5082 16.0323 22.1423 15.2788 20.5858C14.5253 19.0293 14.1337 17.3225 14.1333 15.5933Z" fill="#EB001B" />
		<path d="M37.0008 15.5932C37.0023 17.7371 36.4005 19.8381 35.264 21.656C34.1276 23.4739 32.5024 24.9353 30.5745 25.873C28.6465 26.8106 26.4935 27.1867 24.3619 26.9583C22.2302 26.7298 20.2058 25.906 18.5203 24.5811C19.8768 23.5084 20.9729 22.1426 21.7264 20.5861C22.48 19.0295 22.8714 17.3226 22.8714 15.5932C22.8714 13.8638 22.48 12.1569 21.7264 10.6003C20.9729 9.04377 19.8768 7.67796 18.5203 6.60527C20.2058 5.28036 22.2302 4.45657 24.3619 4.22812C26.4935 3.99967 28.6465 4.37579 30.5745 5.31345C32.5024 6.25112 34.1276 7.71247 35.264 9.53037C36.4005 11.3483 37.0023 13.4493 37.0008 15.5932Z" fill="#F79E1B" />
	</g>
	<defs>
		<clipPath id="clip0_5_49703">
			<rect width="37" height="37" fill="white" />
		</clipPath>
	</defs>
</svg>