<svg width="45" height="14" viewBox="0 0 45 14" fill="none" xmlns="http://www.w3.org/2000/svg">
	<g clip-path="url(#clip0_5_49710)">
		<path d="M32.1797 6.40161V13.2056H35.9489V9.17361H40.2207C42.0174 9.16101 43.5439 8.00811 44.1219 6.40161H32.1797Z" fill="#37A72E" />
		<path d="M31.6777 0.794678C31.8976 3.57298 34.5235 5.77168 37.7274 5.77168C37.7399 5.77168 44.2795 5.77168 44.2795 5.77168C44.3298 5.51968 44.3549 5.25508 44.3549 4.98418C44.3549 2.67838 42.5017 0.813578 40.2088 0.794678H31.6777Z" fill="url(#paint0_linear_5_49710)" />
		<path d="M26.099 5.70238V5.69608V5.70238C26.143 5.62678 26.2121 5.58268 26.3 5.58268C26.4257 5.58268 26.5199 5.68348 26.5262 5.80318V13.1427H30.2954V0.794678H26.5262C26.0487 0.813578 25.5085 1.16008 25.3075 1.59478L22.3109 8.04598C22.3046 8.07118 22.2921 8.09638 22.2795 8.12158C22.2355 8.18458 22.1602 8.22868 22.0722 8.22868C21.934 8.22868 21.8209 8.11528 21.8209 7.97668V0.794678H18.0517V13.1427H21.8209C22.2921 13.1175 22.8198 12.771 23.0208 12.3426L26.099 5.72128C26.0927 5.71498 26.099 5.70868 26.099 5.70238Z" fill="#37A72E" />
		<path d="M12.0272 5.91653L9.82219 13.1426H7.10834L4.90962 5.91023C4.89078 5.79683 4.79026 5.70863 4.66462 5.70863C4.52642 5.70863 4.41962 5.82203 4.41962 5.95433V13.1363H0.650391V0.78833H3.88565H4.8468C5.53783 0.78833 6.26655 1.33013 6.46757 1.99163L8.30193 8.00813C8.39616 8.31053 8.54065 8.30423 8.63488 8.00813L10.4692 1.99163C10.6703 1.32383 11.399 0.78833 12.09 0.78833H13.0512H16.2864V13.1363H12.5172V5.95433C12.5172 5.95433 12.5172 5.95433 12.5172 5.94803C12.5172 5.80943 12.4041 5.70233 12.2722 5.70233C12.1465 5.70863 12.046 5.79683 12.0272 5.91653Z" fill="#37A72E" />
	</g>
	<defs>
		<linearGradient id="paint0_linear_5_49710" x1="31.6793" y1="3.28318" x2="44.3541" y2="3.28318" gradientUnits="userSpaceOnUse">
			<stop stop-color="#00A0E5" />
			<stop offset="1" stop-color="#0077C3" />
		</linearGradient>
		<clipPath id="clip0_5_49710">
			<rect width="45" height="14" fill="white" />
		</clipPath>
	</defs>
</svg>