<svg width="43" height="20" viewBox="0 0 43 20" fill="none" xmlns="http://www.w3.org/2000/svg">
	<path d="M17.4422 4.25L15.2891 17.4167H18.6844L20.8375 4.25H17.4422Z" fill="#0072FF" />
	<path d="M37.0691 4.25C36.241 4.25 35.6613 4.5 35.3301 5.33333L30.2785 17.5H33.8394C33.8394 17.5 34.4191 15.8333 34.5848 15.5C34.9988 15.5 38.3941 15.5 38.891 15.5C38.9738 16 39.3051 17.5 39.3051 17.5H42.4519L39.7191 4.25H37.0691ZM35.4957 12.75C35.7441 12 36.8207 9.08333 36.8207 9.08333C36.8207 9.08333 37.0691 8.33333 37.2348 7.83333L37.4832 9C37.4832 9 38.1457 12.1667 38.3113 12.8333H35.4957V12.75Z" fill="#0072FF" />
	<path d="M27.6285 9.58333C26.4691 9 25.7238 8.58333 25.7238 7.91667C25.7238 7.33333 26.3035 6.75 27.6285 6.75C28.7051 6.75 29.5332 7 30.1957 7.25L30.5269 7.41667L31.0238 4.58333C30.3613 4.33333 29.2848 4 27.9598 4C24.6473 4 22.2457 5.83333 22.2457 8.33333C22.2457 10.25 23.9019 11.3333 25.2269 11.9167C26.5519 12.5833 26.966 13 26.966 13.5833C26.966 14.5 25.8894 14.8333 24.8957 14.8333C23.5707 14.8333 22.8254 14.6667 21.666 14.1667L21.2519 13.9167L20.7551 16.8333C21.5832 17.1667 22.991 17.5 24.5644 17.5C28.1254 17.5 30.4441 15.75 30.4441 13C30.5269 11.6667 29.616 10.5 27.6285 9.58333Z" fill="#0072FF" />
	<path d="M12.4738 4.25L9.16133 13.25L8.83008 11.4167L7.6707 5.33333C7.50508 4.5 6.84258 4.25 6.09727 4.25H0.714453C0.631641 4.25 0.631641 4.33333 0.548828 4.33333C0.548828 4.41667 0.548828 4.5 0.631641 4.5C1.45977 4.75 2.20508 5 2.86758 5.33333C3.61289 5.66667 4.10977 6.33333 4.3582 7.08333L7.09102 17.4167H10.652L15.952 4.25H12.4738Z" fill="#0072FF" />
</svg>