<svg width="28" height="28" viewBox="0 0 28 28" fill="none" xmlns="http://www.w3.org/2000/svg">
<g id="1220365_whatsapp_chat_communication_message_phone_icon 1" clip-path="url(#clip0_2669_41374)">
<g id="Group">
<path id="Vector" d="M27.366 13.2229C27.3332 16.6901 26.4418 19.4026 24.5879 21.7596C22.5973 24.2917 20.0051 25.8995 16.8332 26.5503C14.3832 27.0479 11.9988 26.8292 9.65821 25.9815C9.13868 25.7901 8.63008 25.5659 8.14336 25.2979C7.99571 25.2159 7.86993 25.205 7.70586 25.2596C5.49102 25.9761 3.27071 26.687 1.0504 27.3925C0.951958 27.4253 0.820708 27.5182 0.744146 27.4471C0.656646 27.3596 0.766021 27.2284 0.798833 27.1245C1.2418 25.8065 1.68477 24.4831 2.13321 23.1651C2.40665 22.3612 2.66915 21.5628 2.95352 20.7643C3.03008 20.5565 3.00274 20.3979 2.8879 20.2065C2.32461 19.244 1.90899 18.2159 1.61368 17.1385C1.06133 15.1151 1.00118 13.0698 1.43321 11.0245C1.90352 8.79324 2.8879 6.80261 4.40274 5.08543C6.23477 3.0073 8.49336 1.63464 11.1785 0.972926C12.8902 0.551832 14.6184 0.486207 16.3574 0.770582C18.6324 1.14246 20.6832 2.0448 22.4715 3.49949C24.3309 5.01433 25.6871 6.89558 26.5402 9.15418C27.0106 10.3737 27.3824 12.3698 27.366 13.2229ZM4.08008 24.144C5.43633 23.7065 6.73243 23.2909 8.01758 22.8698C8.18711 22.8151 8.32383 22.8261 8.47149 22.9245C8.96368 23.2526 9.49415 23.5151 10.041 23.7448C11.8184 24.4995 13.6668 24.7729 15.5754 24.5268C17.916 24.2261 19.9723 23.2854 21.7004 21.6503C23.877 19.5886 25.0418 17.062 25.1457 14.0761C25.2441 11.1503 24.3035 8.57996 22.3402 6.39793C20.4754 4.32527 18.1348 3.14402 15.3731 2.84871C12.9723 2.59168 10.7246 3.11121 8.64649 4.35808C6.86915 5.42996 5.50743 6.89011 4.56133 8.73308C3.5168 10.762 3.16133 12.9167 3.46211 15.1753C3.68633 16.8815 4.29883 18.4511 5.28321 19.862C5.39258 20.0206 5.4254 20.1518 5.35977 20.3378C5.15743 20.8956 4.97696 21.4589 4.78555 22.0167C4.55586 22.7057 4.33165 23.3948 4.08008 24.144Z" fill="#51C85D"/>
<path id="Vector_2" d="M7.7111 10.6478C7.73844 9.3462 8.19781 8.37823 9.06735 7.60713C9.34625 7.35557 9.69078 7.2462 10.0791 7.30088C10.2431 7.32276 10.4072 7.33917 10.5713 7.32823C10.8775 7.31182 11.0853 7.45948 11.1892 7.72745C11.5556 8.67901 11.9111 9.63057 12.2666 10.5876C12.3869 10.9157 12.1791 11.1728 12.0041 11.4079C11.8017 11.6868 11.5556 11.9329 11.315 12.179C11.0689 12.4306 11.0361 12.5728 11.2056 12.879C12.1955 14.6782 13.5845 16.0618 15.4713 16.9149C15.5369 16.9423 15.6025 16.9806 15.6681 17.0134C15.9197 17.1282 16.1439 17.1009 16.3353 16.8821C16.6853 16.472 17.0681 16.0946 17.3908 15.6626C17.6041 15.3782 17.7517 15.329 18.0744 15.4712C19.0369 15.8868 19.9392 16.4118 20.858 16.9204C21.0275 17.0134 21.0877 17.1556 21.0822 17.3524C21.033 18.9657 20.1088 19.8079 18.4845 20.1798C17.697 20.3603 16.9697 20.1634 16.2478 19.9009C14.733 19.354 13.2728 18.7087 12.0478 17.6259C11.0744 16.7618 10.2158 15.7993 9.48844 14.722C8.93063 13.8907 8.35094 13.0759 8.02828 12.1079C7.84235 11.5939 7.70563 11.0689 7.7111 10.6478Z" fill="#51C85D"/>
</g>
</g>
<defs>
<clipPath id="clip0_2669_41374">
<rect width="28" height="28" fill="white"/>
</clipPath>
</defs>
</svg>
