<svg width="29" height="29" viewBox="0 0 29 29" fill="none" xmlns="http://www.w3.org/2000/svg">
	<mask id="path-1-inside-1_1529_358844" fill="white">
		<path d="M22.2018 9.43014C21.4419 8.23263 20.6101 7.98101 20.0458 7.98101H9.48342C8.91909 7.98101 8.08722 8.23296 7.34886 9.39897C7.25294 9.53351 5 12.7382 5 17.9912C5 23.2439 7.25295 26.4488 7.32734 26.5508C8.08724 27.7492 8.9191 28 9.48342 28H20.0458C20.6101 28 21.442 27.7486 22.1803 26.582C22.2762 26.4484 24.5292 23.2437 24.5292 17.9913C24.5295 12.7386 22.2765 9.53299 22.2018 9.43014ZM20.0458 9.32052C20.3637 9.32052 20.7368 9.6223 21.0909 10.1785C21.0981 10.1879 21.3226 10.5133 21.6213 11.1063H19.5126C19.3696 10.4835 19.208 9.88579 19.0255 9.32059L20.0458 9.32052ZM15.4343 9.32052H17.6082C17.8059 9.88048 17.9828 10.4778 18.1367 11.1063H15.4341L15.4343 9.32052ZM11.9191 9.32052H14.0948V11.1063H11.3919C11.5457 10.4775 11.7214 9.88013 11.9191 9.32052H11.9191ZM8.45812 10.1477C8.79167 9.62167 9.16477 9.31988 9.48278 9.31988H10.504C10.3225 9.88513 10.1624 10.4837 10.02 11.1056H7.90909C8.21305 10.5027 8.44476 10.1679 8.45815 10.1476L8.45812 10.1477ZM7.3267 12.4458H22.2031C22.3068 12.7214 22.409 13.0176 22.5068 13.3386H7.02362C7.12142 13.0176 7.22418 12.722 7.32727 12.4458H7.3267ZM18.9223 17.9909C18.9223 19.1246 18.8588 20.2336 18.7473 21.3027H15.4336V14.6781H18.743C18.857 15.7479 18.9224 16.8554 18.9224 17.9909H18.9223ZM14.0947 14.6781V21.3031H10.7813C10.6692 20.2333 10.6063 19.1246 10.6063 17.9912C10.6063 16.8558 10.6714 15.7486 10.7847 14.6785L14.0947 14.6781ZM6.33903 17.9909C6.33903 16.7604 6.47669 15.6514 6.68068 14.6781H9.43942C9.32949 15.7514 9.2672 16.8591 9.2672 17.9909C9.2672 19.1202 9.32668 20.2295 9.43475 21.3027H6.68103C6.47642 20.3305 6.33907 19.2214 6.33907 17.9909H6.33903ZM9.48302 26.6605C9.16504 26.6605 8.79194 26.3587 8.43787 25.8031C8.43101 25.7938 8.20616 25.4674 7.90749 24.8745H10.0153C10.1586 25.4964 10.3202 26.095 10.5027 26.6602L9.48302 26.6605ZM14.0948 26.6605H11.9201C11.7223 26.1006 11.5442 25.5051 11.3906 24.8748H14.0948L14.0948 26.6605ZM17.61 26.6605H15.4343V24.8748H18.1403C17.9859 25.5042 17.8077 26.1006 17.61 26.6605H17.61ZM21.071 25.8327C20.7371 26.3587 20.3637 26.6605 20.0458 26.6605H19.0261C19.2096 26.0953 19.3712 25.4973 19.516 24.8748H21.6198C21.3161 25.4777 21.0838 25.8134 21.071 25.8328L21.071 25.8327ZM22.2018 23.5353H7.32542C7.22233 23.2597 7.12019 22.9635 7.02239 22.6424H22.5055C22.4077 22.9629 22.3056 23.2594 22.2019 23.5353H22.2018ZM20.095 21.3029C20.2021 20.2287 20.2619 19.12 20.2619 17.9911C20.2619 16.8593 20.199 15.7515 20.0897 14.6783H22.849C23.052 15.6515 23.19 16.7596 23.19 17.9911C23.19 19.2216 23.052 20.3297 22.8483 21.3029H20.095ZM10.542 5.72407C10.3476 6.03987 10.446 6.45221 10.7606 6.64565C10.8699 6.7126 10.9914 6.74531 11.111 6.74531C11.3355 6.74531 11.5551 6.63287 11.6815 6.42702C12.3847 5.28619 11.9736 4.52072 11.7017 4.01429C11.4682 3.57797 11.3713 3.39858 11.6852 2.87785C11.8765 2.56143 11.774 2.14971 11.4576 1.95851C11.1405 1.76667 10.7294 1.86975 10.5382 2.18617C9.83065 3.36 10.2467 4.13424 10.5217 4.64713C10.7534 5.07879 10.8406 5.24011 10.542 5.7241L10.542 5.72407ZM14.1964 4.45967C14.002 4.77453 14.1005 5.18687 14.415 5.38124C14.5243 5.4482 14.6458 5.4809 14.7654 5.4809C14.9905 5.4809 15.2095 5.36754 15.3359 5.16261C16.0391 4.02091 15.628 3.25568 15.3562 2.74901C15.1226 2.31362 15.0257 2.1333 15.3396 1.61257C15.5309 1.29521 15.4284 0.883498 15.1114 0.692271C14.7949 0.501051 14.3835 0.604443 14.192 0.920867C13.4844 2.0947 13.9005 2.86981 14.1755 3.38278C14.4085 3.81381 14.4944 3.97483 14.1964 4.45975L14.1964 4.45967ZM17.8511 5.72407C17.6564 6.03987 17.7546 6.45221 18.0697 6.64565C18.1787 6.7126 18.3002 6.74531 18.4201 6.74531C18.6446 6.74531 18.8639 6.63287 18.9903 6.42702C19.6935 5.28619 19.2825 4.52072 19.0106 4.01429C18.777 3.57797 18.6801 3.39858 18.9941 2.87785C19.1853 2.56143 19.0828 2.14971 18.7664 1.95851C18.4494 1.76667 18.0383 1.86975 17.8471 2.18617C17.1389 3.36 17.5549 4.13424 17.8306 4.64713C18.0629 5.07879 18.1495 5.24011 17.8511 5.7241L17.8511 5.72407Z" />
	</mask>
	<path d="M22.2018 9.43014C21.4419 8.23263 20.6101 7.98101 20.0458 7.98101H9.48342C8.91909 7.98101 8.08722 8.23296 7.34886 9.39897C7.25294 9.53351 5 12.7382 5 17.9912C5 23.2439 7.25295 26.4488 7.32734 26.5508C8.08724 27.7492 8.9191 28 9.48342 28H20.0458C20.6101 28 21.442 27.7486 22.1803 26.582C22.2762 26.4484 24.5292 23.2437 24.5292 17.9913C24.5295 12.7386 22.2765 9.53299 22.2018 9.43014ZM20.0458 9.32052C20.3637 9.32052 20.7368 9.6223 21.0909 10.1785C21.0981 10.1879 21.3226 10.5133 21.6213 11.1063H19.5126C19.3696 10.4835 19.208 9.88579 19.0255 9.32059L20.0458 9.32052ZM15.4343 9.32052H17.6082C17.8059 9.88048 17.9828 10.4778 18.1367 11.1063H15.4341L15.4343 9.32052ZM11.9191 9.32052H14.0948V11.1063H11.3919C11.5457 10.4775 11.7214 9.88013 11.9191 9.32052H11.9191ZM8.45812 10.1477C8.79167 9.62167 9.16477 9.31988 9.48278 9.31988H10.504C10.3225 9.88513 10.1624 10.4837 10.02 11.1056H7.90909C8.21305 10.5027 8.44476 10.1679 8.45815 10.1476L8.45812 10.1477ZM7.3267 12.4458H22.2031C22.3068 12.7214 22.409 13.0176 22.5068 13.3386H7.02362C7.12142 13.0176 7.22418 12.722 7.32727 12.4458H7.3267ZM18.9223 17.9909C18.9223 19.1246 18.8588 20.2336 18.7473 21.3027H15.4336V14.6781H18.743C18.857 15.7479 18.9224 16.8554 18.9224 17.9909H18.9223ZM14.0947 14.6781V21.3031H10.7813C10.6692 20.2333 10.6063 19.1246 10.6063 17.9912C10.6063 16.8558 10.6714 15.7486 10.7847 14.6785L14.0947 14.6781ZM6.33903 17.9909C6.33903 16.7604 6.47669 15.6514 6.68068 14.6781H9.43942C9.32949 15.7514 9.2672 16.8591 9.2672 17.9909C9.2672 19.1202 9.32668 20.2295 9.43475 21.3027H6.68103C6.47642 20.3305 6.33907 19.2214 6.33907 17.9909H6.33903ZM9.48302 26.6605C9.16504 26.6605 8.79194 26.3587 8.43787 25.8031C8.43101 25.7938 8.20616 25.4674 7.90749 24.8745H10.0153C10.1586 25.4964 10.3202 26.095 10.5027 26.6602L9.48302 26.6605ZM14.0948 26.6605H11.9201C11.7223 26.1006 11.5442 25.5051 11.3906 24.8748H14.0948L14.0948 26.6605ZM17.61 26.6605H15.4343V24.8748H18.1403C17.9859 25.5042 17.8077 26.1006 17.61 26.6605H17.61ZM21.071 25.8327C20.7371 26.3587 20.3637 26.6605 20.0458 26.6605H19.0261C19.2096 26.0953 19.3712 25.4973 19.516 24.8748H21.6198C21.3161 25.4777 21.0838 25.8134 21.071 25.8328L21.071 25.8327ZM22.2018 23.5353H7.32542C7.22233 23.2597 7.12019 22.9635 7.02239 22.6424H22.5055C22.4077 22.9629 22.3056 23.2594 22.2019 23.5353H22.2018ZM20.095 21.3029C20.2021 20.2287 20.2619 19.12 20.2619 17.9911C20.2619 16.8593 20.199 15.7515 20.0897 14.6783H22.849C23.052 15.6515 23.19 16.7596 23.19 17.9911C23.19 19.2216 23.052 20.3297 22.8483 21.3029H20.095ZM10.542 5.72407C10.3476 6.03987 10.446 6.45221 10.7606 6.64565C10.8699 6.7126 10.9914 6.74531 11.111 6.74531C11.3355 6.74531 11.5551 6.63287 11.6815 6.42702C12.3847 5.28619 11.9736 4.52072 11.7017 4.01429C11.4682 3.57797 11.3713 3.39858 11.6852 2.87785C11.8765 2.56143 11.774 2.14971 11.4576 1.95851C11.1405 1.76667 10.7294 1.86975 10.5382 2.18617C9.83065 3.36 10.2467 4.13424 10.5217 4.64713C10.7534 5.07879 10.8406 5.24011 10.542 5.7241L10.542 5.72407ZM14.1964 4.45967C14.002 4.77453 14.1005 5.18687 14.415 5.38124C14.5243 5.4482 14.6458 5.4809 14.7654 5.4809C14.9905 5.4809 15.2095 5.36754 15.3359 5.16261C16.0391 4.02091 15.628 3.25568 15.3562 2.74901C15.1226 2.31362 15.0257 2.1333 15.3396 1.61257C15.5309 1.29521 15.4284 0.883498 15.1114 0.692271C14.7949 0.501051 14.3835 0.604443 14.192 0.920867C13.4844 2.0947 13.9005 2.86981 14.1755 3.38278C14.4085 3.81381 14.4944 3.97483 14.1964 4.45975L14.1964 4.45967ZM17.8511 5.72407C17.6564 6.03987 17.7546 6.45221 18.0697 6.64565C18.1787 6.7126 18.3002 6.74531 18.4201 6.74531C18.6446 6.74531 18.8639 6.63287 18.9903 6.42702C19.6935 5.28619 19.2825 4.52072 19.0106 4.01429C18.777 3.57797 18.6801 3.39858 18.9941 2.87785C19.1853 2.56143 19.0828 2.14971 18.7664 1.95851C18.4494 1.76667 18.0383 1.86975 17.8471 2.18617C17.1389 3.36 17.5549 4.13424 17.8306 4.64713C18.0629 5.07879 18.1495 5.24011 17.8511 5.7241L17.8511 5.72407Z" fill="#444444" stroke="white" stroke-width="0.4" mask="url(#path-1-inside-1_1529_358844)" />
</svg>