<svg width="29" height="29" viewBox="0 0 29 29" fill="none" xmlns="http://www.w3.org/2000/svg">
	<path d="M21.3637 23.3504V24.7839C21.3637 24.9784 21.5216 25.1364 21.7164 25.1364H25.5823H25.5821C25.7769 25.1364 25.9345 24.9784 25.9345 24.7839V22.9859C25.9345 22.7914 25.7769 22.6335 25.5821 22.6335H23.5024C24.3945 22.3018 25.2168 21.8062 25.9269 21.1726C25.9583 21.1403 25.9824 21.1015 25.9974 21.0589C25.9993 21.0395 25.9993 21.0199 25.9974 21.0002C26.0009 20.977 26.0009 20.9529 25.9974 20.9297V7.2679C26.0009 7.24467 26.0009 7.22063 25.9974 7.19741C25.9993 7.17774 25.9993 7.15807 25.9974 7.13867C25.9815 7.09523 25.9578 7.05534 25.9269 7.02119C25.8094 6.90371 22.9814 4.06396 14.5095 4.06396C6.03745 4.06396 3.20969 6.90375 3.09219 7.02119H3.09191C3.06104 7.05534 3.03727 7.09523 3.02142 7.13867C3.01951 7.15807 3.01951 7.17774 3.02142 7.19741C3.0176 7.22063 3.0176 7.24467 3.02142 7.2679V20.9297C3.0176 20.9529 3.0176 20.977 3.02142 21.0002C3.01951 21.0199 3.01951 21.0395 3.02142 21.0589C3.03645 21.1015 3.06049 21.1403 3.09191 21.1726C3.79273 21.8029 4.60413 22.2982 5.48498 22.6335H3.40532C3.21052 22.6335 3.05288 22.7914 3.05288 22.9859V24.7839C3.05288 24.9784 3.21052 25.1364 3.40532 25.1364H7.27123H7.27096C7.46576 25.1364 7.62368 24.9784 7.62368 24.7839V23.3504C9.87057 23.9042 12.1795 24.1673 14.4936 24.1337C16.8077 24.1673 19.1166 23.9042 21.3635 23.3504H21.3637ZM13.7848 23.4209H13.0993H12.8408L12.4491 23.4012H12.1865L11.8182 23.3739L11.5636 23.3542L11.2111 23.3189L10.9688 23.2367L10.624 23.1935L10.4008 23.1662L10.056 23.1154L9.86421 23.0881L9.68799 23.0567V19.6489C11.2778 19.8961 12.8848 20.0155 14.4938 20.0054C16.1041 20.0155 17.7125 19.8964 19.3037 19.6489V23.0604L19.1471 23.0878L18.9474 23.1151L18.6067 23.1659L18.3797 23.1973L18.0428 23.2364L17.7961 23.2637L17.4475 23.299L17.189 23.3186L16.8208 23.346H16.5544L16.1626 23.3656H14.5023L13.7848 23.4209ZM8.79484 22.8919L8.40305 22.8018L8.29732 22.7783V5.41513C8.52053 5.36022 8.75167 5.31322 8.99046 5.2624V22.927L8.86915 22.9035L8.79484 22.8919ZM6.91871 24.4312H3.75796V23.3386H6.91871V24.4312ZM7.14193 22.4728L6.99712 22.4338L6.77008 22.3594L6.63703 22.3125L6.40999 22.234L6.30044 22.195L6.06547 22.101L5.98706 22.0737L5.69336 21.9524L5.41141 21.8231H5.38791L5.16087 21.7136L5.09366 21.6505V18.3211C5.89912 18.6899 6.73514 18.9872 7.59249 19.2101V22.5941H7.54932L7.39659 22.5509L7.14193 22.4728ZM4.31011 21.2158L4.19645 21.1414L4.16121 21.1179L4.04755 21.0395L3.83609 20.883L3.77352 20.8281H3.75385L3.72243 20.8007L3.72271 7.42082C3.94182 7.24023 4.1735 7.07521 4.41585 6.9274V21.2585H4.34536L4.31011 21.2158ZM5.31665 6.4258L5.40681 6.37471L5.66936 6.25722L5.74778 6.2258L5.96306 6.13564L6.08055 6.08865L6.27644 6.01434L6.41359 5.96352L6.61331 5.89303L6.76603 5.84221L6.96958 5.77555L7.13406 5.72064L7.35344 5.65807L7.52584 5.60725H7.58075V8.99917C6.72781 9.21883 5.89557 9.51225 5.09368 9.87645V6.53531L5.16799 6.49625L5.31665 6.4258ZM5.09371 10.6832C5.89475 10.2912 6.73161 9.97648 7.59253 9.74315V13.7462H5.09371V10.6832ZM5.09371 14.4707H7.59253V18.4659C6.73189 18.2312 5.89531 17.9165 5.09371 17.5258V14.4707ZM10.0405 5.07822L10.3812 5.03123L10.6082 4.99981L10.9451 4.96074L11.1918 4.93342L11.5404 4.89818L11.7989 4.87468L12.1672 4.84736H12.4336L12.8253 4.82386H16.1383L16.5301 4.84736H16.7926L17.1609 4.87468L17.4156 4.89818L17.768 4.93342L18.0109 4.96074L18.3478 4.99981L18.5748 5.03123L18.9117 5.07822L19.1114 5.10964L19.2914 5.14106V8.54472H19.292C17.7044 8.30102 16.1 8.18326 14.4938 8.19201C12.8837 8.18272 11.2754 8.30047 9.68389 8.54472V5.13721L9.84044 5.10989L10.0405 5.07822ZM20.7018 5.41892V22.7821L20.6078 22.8055L20.2553 22.8799L20.1458 22.9034L20.0086 22.9307L20.0084 5.27029C20.2474 5.31728 20.4783 5.3681 20.7018 5.41892ZM21.5949 5.65388L21.8378 5.72819L21.9826 5.77136L22.2097 5.84567L22.3427 5.89267L22.5659 5.97108L22.6796 6.01425L22.9066 6.10031L22.9968 6.13556L23.2514 6.24129H23.2905C23.4823 6.32352 23.6588 6.40576 23.8233 6.48418L23.8741 6.5115H23.9055V9.84494C23.1 9.47638 22.264 9.17885 21.4067 8.9559V5.59134H21.4419L21.5949 5.65388ZM25.304 7.42426L25.3038 20.7727L25.2606 20.8118L25.2019 20.8588H25.2021C25.1557 20.8967 25.1073 20.932 25.0571 20.9645C25.0483 20.9743 25.0377 20.9825 25.0259 20.988L24.9592 21.0388L24.9005 21.0779L24.8262 21.1249L24.7557 21.1719L24.6773 21.2227V6.93071C24.8978 7.07989 25.1071 7.24491 25.3038 7.42414L25.304 7.42426ZM23.6822 21.7673L23.5803 21.8181L23.3178 21.9356L23.2393 21.967L23.0241 22.0572L22.9066 22.1042L22.7107 22.1785L22.5735 22.2293L22.3738 22.2998L22.2211 22.3506L22.0175 22.4173L21.8531 22.4681L21.6337 22.5347L21.4613 22.5856H21.4064L21.4066 19.2095C22.2599 18.986 23.0921 18.6884 23.8937 18.3204V21.6498L23.8194 21.685L23.6822 21.7673ZM25.2488 24.4305H22.0686V23.338H25.2293L25.2488 24.4305ZM23.8937 17.5333C23.0926 17.9254 22.2558 18.2401 21.3948 18.4732V14.4507H23.8937V17.5333ZM23.8937 13.7458H21.4066V9.73102C22.2648 9.9668 23.0978 10.2854 23.8937 10.6829V13.7458ZM19.2914 13.7458H15.962H15.9623C15.8628 13.2923 15.5609 12.9095 15.1432 12.7068C14.7254 12.5044 14.2381 12.5044 13.8203 12.7068C13.4026 12.9096 13.1007 13.2923 13.0012 13.7458H9.67183V9.26492C11.2663 9.0092 12.8788 8.88598 14.4935 8.89691C16.1049 8.89445 17.7136 9.02559 19.3034 9.28842L19.2914 13.7458ZM15.2924 14.0592H15.2927C15.3036 14.3893 15.1134 14.6933 14.8115 14.8275C14.5096 14.9616 14.1564 14.899 13.9189 14.6695C13.6812 14.44 13.6067 14.0892 13.7304 13.783C13.8542 13.4764 14.1514 13.2759 14.4817 13.2756C14.9243 13.2669 15.2915 13.6166 15.3044 14.0592L15.2924 14.0592ZM9.67191 14.451H13.0248V14.4507C13.1434 14.8786 13.4439 15.233 13.8466 15.4193C14.2496 15.6059 14.714 15.6059 15.117 15.4193C15.5198 15.233 15.8203 14.8786 15.9389 14.4507H19.2917V18.9316C17.7052 19.1863 16.1004 19.3092 14.4936 19.2997C12.8822 19.3021 11.2735 19.171 9.68366 18.9081L9.67191 14.451Z" fill="#444444" />
</svg>