<svg width="29" height="29" viewBox="0 0 29 29" fill="none" xmlns="http://www.w3.org/2000/svg">
	<mask id="path-1-inside-1_1529_358761" fill="white">
		<path d="M25.9886 11.6906L25.9995 10.2984H2.99878V11.5761L3.34576 13.4928H2.99878V14.7706H3.57703L4.84963 21.7984L4.27653 21.7986V23.0764H5.0815L5.65975 26.2709H23.3386L23.9193 23.0764H24.722V21.7986H24.1514L25.4292 14.7708L25.9997 14.7706V13.4928H25.6617L25.9886 11.6906ZM24.3626 13.4928H22.4765L22.7264 11.5761H24.7109L24.3626 13.4928ZM12.6941 13.4928L12.6111 11.5761H16.3877L16.3047 13.4928H12.6941ZM16.2482 14.7706L15.9429 21.799H13.055L12.7495 14.7711L16.2482 14.7706ZM11.4149 13.4928H7.80965L7.55979 11.5761H11.3319L11.4149 13.4928ZM11.4705 14.7706L11.776 21.7984H8.89253L7.97568 14.7706H11.4705ZM11.8316 23.0766L11.9146 24.9933H9.30903L9.05917 23.0766H11.8316ZM13.1106 23.0766H15.8873L15.8043 24.9933H13.1942L13.1106 23.0766ZM17.1663 23.0766H19.9385L19.6887 24.9933H17.0831L17.1663 23.0766ZM17.2219 21.7989L17.5274 14.771H21.0216L20.1048 21.7989H17.2219ZM17.583 13.4928L17.6661 11.5761H21.4381L21.1883 13.4928H17.583ZM4.28697 11.5761H6.27149L6.52135 13.4928H4.63524L4.28697 11.5761ZM4.86774 14.7706H6.68797L7.60483 21.7984H6.14609L4.86774 14.7706ZM6.37735 23.0766H7.77082L8.02067 24.9933H6.72622L6.37735 23.0766ZM22.2709 24.9933H20.9764L21.2263 23.0766H22.6198L22.2709 24.9933ZM22.8516 21.7989H21.3929L22.3098 14.771H24.13L22.8516 21.7989ZM4.27579 9.65938H2.99805V7.74265C2.99805 6.06485 4.28412 5.18693 5.55376 5.18693C6.8234 5.18693 8.10947 6.06485 8.10947 7.74265V9.65938H6.83173V7.74265C6.83173 6.79967 6.14357 6.4649 5.55398 6.4649C4.96417 6.4649 4.27623 6.79969 4.27623 7.74265L4.27579 9.65938ZM6.00726 7.28893C6.0648 7.35289 6.10951 7.42306 6.14139 7.49986C6.17347 7.57644 6.19251 7.65966 6.19251 7.74266C6.19251 7.90888 6.12213 8.07488 6.00726 8.19639C5.88597 8.31126 5.71975 8.38164 5.55375 8.38164C5.38753 8.38164 5.22089 8.31126 5.10002 8.19639C4.9845 8.07488 4.91477 7.90888 4.91477 7.74266C4.91477 7.65966 4.9276 7.57644 4.96589 7.49986C4.99777 7.42328 5.04247 7.35289 5.10002 7.28893C5.3364 7.05255 5.77088 7.05255 6.00724 7.28893H6.00726ZM10.026 6.46747L8.74824 6.46491C8.74824 6.37998 8.76557 4.36034 10.2707 3.0321C11.249 2.16831 12.5988 1.80742 14.2779 1.96508C15.3582 1.03793 16.8828 0.689908 18.3362 1.05529C19.6746 1.39265 20.704 2.27504 21.2286 3.50553C21.7486 3.50874 22.275 3.59559 22.7754 3.80331C23.9543 4.2919 25.3598 5.59342 25.3598 9.02043H24.082C24.082 7.51826 23.7708 5.59835 22.2859 4.98374C20.9635 4.43419 19.3022 5.11851 18.7834 5.63855L17.88 4.73517C18.3049 4.31032 19.0384 3.90194 19.8875 3.67839C19.4874 2.99083 18.8371 2.49971 18.0231 2.29391C16.9139 2.0141 15.7083 2.32386 14.9493 3.0824L14.7283 3.30338L14.4183 3.26445C12.9827 3.08561 11.8729 3.32648 11.1242 3.98196C10.0509 4.92193 10.0259 6.45208 10.0259 6.46752L10.026 6.46747ZM17.6737 8.22632L16.4349 8.53629C16.1697 7.47886 15.2261 7.10367 14.4983 7.10367C13.7706 7.10367 12.8269 7.47868 12.5623 8.53673L11.3235 8.22676C11.682 6.79069 12.9579 5.82592 14.4983 5.82592C16.0388 5.82592 17.3146 6.79069 17.6737 8.22632Z" />
	</mask>
	<path d="M25.9886 11.6906L25.9995 10.2984H2.99878V11.5761L3.34576 13.4928H2.99878V14.7706H3.57703L4.84963 21.7984L4.27653 21.7986V23.0764H5.0815L5.65975 26.2709H23.3386L23.9193 23.0764H24.722V21.7986H24.1514L25.4292 14.7708L25.9997 14.7706V13.4928H25.6617L25.9886 11.6906ZM24.3626 13.4928H22.4765L22.7264 11.5761H24.7109L24.3626 13.4928ZM12.6941 13.4928L12.6111 11.5761H16.3877L16.3047 13.4928H12.6941ZM16.2482 14.7706L15.9429 21.799H13.055L12.7495 14.7711L16.2482 14.7706ZM11.4149 13.4928H7.80965L7.55979 11.5761H11.3319L11.4149 13.4928ZM11.4705 14.7706L11.776 21.7984H8.89253L7.97568 14.7706H11.4705ZM11.8316 23.0766L11.9146 24.9933H9.30903L9.05917 23.0766H11.8316ZM13.1106 23.0766H15.8873L15.8043 24.9933H13.1942L13.1106 23.0766ZM17.1663 23.0766H19.9385L19.6887 24.9933H17.0831L17.1663 23.0766ZM17.2219 21.7989L17.5274 14.771H21.0216L20.1048 21.7989H17.2219ZM17.583 13.4928L17.6661 11.5761H21.4381L21.1883 13.4928H17.583ZM4.28697 11.5761H6.27149L6.52135 13.4928H4.63524L4.28697 11.5761ZM4.86774 14.7706H6.68797L7.60483 21.7984H6.14609L4.86774 14.7706ZM6.37735 23.0766H7.77082L8.02067 24.9933H6.72622L6.37735 23.0766ZM22.2709 24.9933H20.9764L21.2263 23.0766H22.6198L22.2709 24.9933ZM22.8516 21.7989H21.3929L22.3098 14.771H24.13L22.8516 21.7989ZM4.27579 9.65938H2.99805V7.74265C2.99805 6.06485 4.28412 5.18693 5.55376 5.18693C6.8234 5.18693 8.10947 6.06485 8.10947 7.74265V9.65938H6.83173V7.74265C6.83173 6.79967 6.14357 6.4649 5.55398 6.4649C4.96417 6.4649 4.27623 6.79969 4.27623 7.74265L4.27579 9.65938ZM6.00726 7.28893C6.0648 7.35289 6.10951 7.42306 6.14139 7.49986C6.17347 7.57644 6.19251 7.65966 6.19251 7.74266C6.19251 7.90888 6.12213 8.07488 6.00726 8.19639C5.88597 8.31126 5.71975 8.38164 5.55375 8.38164C5.38753 8.38164 5.22089 8.31126 5.10002 8.19639C4.9845 8.07488 4.91477 7.90888 4.91477 7.74266C4.91477 7.65966 4.9276 7.57644 4.96589 7.49986C4.99777 7.42328 5.04247 7.35289 5.10002 7.28893C5.3364 7.05255 5.77088 7.05255 6.00724 7.28893H6.00726ZM10.026 6.46747L8.74824 6.46491C8.74824 6.37998 8.76557 4.36034 10.2707 3.0321C11.249 2.16831 12.5988 1.80742 14.2779 1.96508C15.3582 1.03793 16.8828 0.689908 18.3362 1.05529C19.6746 1.39265 20.704 2.27504 21.2286 3.50553C21.7486 3.50874 22.275 3.59559 22.7754 3.80331C23.9543 4.2919 25.3598 5.59342 25.3598 9.02043H24.082C24.082 7.51826 23.7708 5.59835 22.2859 4.98374C20.9635 4.43419 19.3022 5.11851 18.7834 5.63855L17.88 4.73517C18.3049 4.31032 19.0384 3.90194 19.8875 3.67839C19.4874 2.99083 18.8371 2.49971 18.0231 2.29391C16.9139 2.0141 15.7083 2.32386 14.9493 3.0824L14.7283 3.30338L14.4183 3.26445C12.9827 3.08561 11.8729 3.32648 11.1242 3.98196C10.0509 4.92193 10.0259 6.45208 10.0259 6.46752L10.026 6.46747ZM17.6737 8.22632L16.4349 8.53629C16.1697 7.47886 15.2261 7.10367 14.4983 7.10367C13.7706 7.10367 12.8269 7.47868 12.5623 8.53673L11.3235 8.22676C11.682 6.79069 12.9579 5.82592 14.4983 5.82592C16.0388 5.82592 17.3146 6.79069 17.6737 8.22632Z" fill="#444444" stroke="white" stroke-width="0.4" mask="url(#path-1-inside-1_1529_358761)" />
</svg>