<svg width="29" height="29" viewBox="0 0 29 29" fill="none" xmlns="http://www.w3.org/2000/svg">
	<path d="M19.1801 2.2067L13.3535 7.96447C13.2485 8.06815 13.1894 8.2093 13.189 8.35676C13.1886 8.5044 13.247 8.64592 13.3513 8.75016L16.6055 12.0044L17.7933 13.1924L16.7226 14.263L12.5801 10.1205L11.8899 9.33169C11.7606 9.18404 11.5631 9.11579 11.3704 9.15215C11.1777 9.1885 11.0185 9.32409 10.9521 9.50864L5.03292 25.9116C4.96114 26.1104 5.0088 26.3328 5.15589 26.4849C5.30298 26.6368 5.52369 26.6917 5.72492 26.6264L22.5039 21.1839C22.6874 21.1244 22.8265 20.974 22.8716 20.7865C22.9166 20.5991 22.861 20.4018 22.7247 20.2654L17.5058 15.0466L18.9682 13.5843C19.072 13.4804 19.1304 13.3394 19.1304 13.1925C19.1304 13.0456 19.072 12.9047 18.9682 12.8008L17.7803 11.6128L23.1715 6.22156V6.22175C23.8851 5.50803 24.1646 4.46839 23.9053 3.49295C23.646 2.51751 22.887 1.75408 21.9132 1.48884C20.9393 1.22379 19.898 1.49719 19.18 2.20645L19.1801 2.2067ZM21.3018 20.4093L6.45918 25.2235L11.6752 10.7683L11.7588 10.8639C11.767 10.8731 11.7753 10.882 11.784 10.8906L15.9396 15.0461L13.9279 17.0578H13.9275C13.7112 17.2742 13.7112 17.6248 13.9275 17.8413C14.1438 18.0575 14.4945 18.0575 14.7109 17.8413L16.7227 15.8295L21.3018 20.4093ZM20.2314 7.59553L17.7822 5.14646L18.4356 4.50079L20.8808 6.94634L20.2314 7.59553ZM16.9941 5.92508L19.448 8.379L16.9972 10.8297L14.5287 8.36119L16.9941 5.92508ZM22.3881 5.43895L21.6642 6.16288L19.2237 3.72197L19.9591 2.99506L19.9593 2.99524C20.3961 2.56344 21.0299 2.39686 21.6226 2.55807C22.2154 2.71943 22.6775 3.18427 22.8353 3.77795C22.993 4.37168 22.8227 5.00453 22.3881 5.4389L22.3881 5.43895Z" fill="#444444" />
</svg>