<svg width="29" height="29" viewBox="0 0 29 29" fill="none" xmlns="http://www.w3.org/2000/svg">
	<path d="M24.701 1C22.8812 1 21.4015 2.53425 21.4015 4.42121C21.4015 5.20507 21.6607 5.92732 22.0926 6.5041L18.2046 10.4683C17.3243 9.6059 16.1419 9.07419 14.8351 9.07419C13.7821 9.07419 12.8046 9.42688 12 10.0149L10.3368 8.12228C10.5798 7.73584 10.7256 7.2711 10.7256 6.77292C10.7256 5.40671 9.65092 4.29234 8.33326 4.29234C7.01566 4.29234 5.94095 5.40665 5.94095 6.77292C5.94095 8.13914 7.0156 9.2535 8.33326 9.2535C8.78144 9.2535 9.19188 9.11922 9.55372 8.89518L11.1954 10.7596C10.4071 11.6612 9.92101 12.8594 9.92101 14.1696C9.92101 14.8136 10.0399 15.4238 10.2503 15.9893L6.61611 19.1361C6.03821 18.3914 5.15271 17.9154 4.15917 17.9154C2.41486 17.91 1 19.3826 1 21.1857C1 22.9888 2.41481 24.4614 4.15917 24.4614C5.90348 24.4614 7.31834 22.9944 7.31834 21.1857C7.31834 20.8162 7.25347 20.4635 7.14544 20.1274L10.7582 17.0031C11.6439 18.3637 13.1396 19.2596 14.8351 19.2596C15.9638 19.2596 17.0005 18.8621 17.8322 18.1957L20.4458 21.012C19.8356 21.7512 19.4629 22.7143 19.4629 23.7614C19.4629 26.0964 21.2936 28 23.5507 28C25.8027 28 27.6385 26.1018 27.6385 23.7614C27.6385 21.421 25.8078 19.5228 23.5507 19.5228C22.6975 19.5228 21.909 19.7972 21.2502 20.2619L18.6095 17.423C19.3169 16.5384 19.7487 15.4018 19.7487 14.1642C19.7487 13.1115 19.4409 12.1317 18.9064 11.3141L22.8807 7.26578C23.4046 7.6241 24.0309 7.83688 24.7005 7.83688C26.5203 7.83688 28 6.30263 28 4.41568C28.0002 2.53436 26.5208 1.00005 24.7009 1.00005L24.701 1ZM4.15904 23.3413C3.01432 23.3413 2.07997 22.3725 2.07997 21.1855C2.07997 19.9985 3.01426 19.0297 4.15904 19.0297C5.30382 19.0297 6.23812 19.9985 6.23812 21.1855C6.23812 22.3725 5.304 23.3413 4.15904 23.3413ZM7.02123 6.7671C7.02123 6.01671 7.60976 5.40647 8.33345 5.40647C9.05714 5.40647 9.64567 6.01671 9.64567 6.7671C9.64567 7.51749 9.05714 8.12774 8.33345 8.12774C7.60976 8.12774 7.02123 7.51749 7.02123 6.7671ZM26.5535 23.7613C26.5535 25.4802 25.2036 26.8802 23.5456 26.8802C21.8879 26.8802 20.5377 25.4804 20.5377 23.7613C20.5377 22.0423 21.8876 20.6424 23.5456 20.6424C25.2088 20.648 26.5535 22.0477 26.5535 23.7613ZM14.835 18.1452C12.7182 18.1452 11.0009 16.359 11.0009 14.1697C11.0009 11.9804 12.7235 10.1942 14.835 10.1942C16.9463 10.1942 18.669 11.9748 18.669 14.1697C18.6692 16.3643 16.9466 18.1452 14.835 18.1452ZM24.7009 6.72253C23.475 6.72253 22.4816 5.69233 22.4816 4.42127C22.4816 3.1502 23.4751 2.12 24.7009 2.12C25.9266 2.12 26.9203 3.1502 26.9203 4.42127C26.9203 5.68675 25.9265 6.72253 24.7009 6.72253Z" fill="#444444" />
</svg>