<svg width="29" height="29" viewBox="0 0 29 29" fill="none" xmlns="http://www.w3.org/2000/svg">
	<mask id="path-1-outside-1_1529_358838" maskUnits="userSpaceOnUse" x="1.00098" y="0.253052" width="27" height="28" fill="black">
		<rect fill="white" x="1.00098" y="0.253052" width="27" height="28" />
		<path d="M26.1802 26.0638H26.0171L26.0173 16.0279H26.7884C26.9053 16.0279 27.0003 15.9331 27.0003 15.816C27.0003 15.6991 26.9055 15.6041 26.7884 15.6041H26.0171L26.0173 6.57969C26.0313 6.35196 26.0123 5.91343 25.738 5.48576C25.5959 5.264 25.4086 5.07854 25.1816 4.93463C25.1477 4.91322 25.1085 4.90167 25.0682 4.90167H25.0343L25.0342 2.93295C25.0342 2.00658 24.2739 1.25305 23.3392 1.25305H15.0007C14.0659 1.25305 13.3056 2.00663 13.3056 2.93295V3.19903H12.7802C12.6633 3.19903 12.5683 3.29381 12.5683 3.41093V12.9287H10.7853C10.3896 12.7926 9.97305 12.7125 9.55148 12.6915V9.00917C9.55148 8.62206 9.23661 8.30717 8.84948 8.30717L4.91485 8.30699C4.52774 8.30699 4.21285 8.62185 4.21285 9.00899V9.97464C4.21285 10.2886 4.4201 10.555 4.70497 10.6444L4.70441 11.4376C4.70441 11.5546 4.79919 11.6495 4.91631 11.6495H6.14504C6.26197 11.6495 6.35694 11.5548 6.35694 11.4376V10.6766H7.16209V12.6914C6.51357 12.7236 5.87692 12.8964 5.30901 13.1963C4.36405 13.6956 3.81754 14.4176 3.52167 14.9487L2.8169 15.53C2.29814 15.9575 2.00098 16.5859 2.00098 17.254V25.7036C2.00098 26.9407 3.01673 27.9469 4.26519 27.9469H12.4483C13.6967 27.9469 14.7125 26.9407 14.7125 25.7037V17.2542C14.7125 16.5861 14.4153 15.9577 13.8969 15.5301L13.1922 14.9488C13.1261 14.8302 13.0468 14.7018 12.9538 14.5686H14.0091C14.8034 14.5686 15.4497 13.9279 15.4497 13.1406V12.866H15.9705C16.7673 12.866 17.4156 12.2234 17.4156 11.4333V7.06394C17.4156 6.27409 16.7672 5.63129 15.9705 5.63129H15.4497V3.41103C15.4497 3.2941 15.3549 3.19914 15.2378 3.19914H14.7125V2.93994C14.7125 2.78 14.8449 2.64985 15.0078 2.64985H23.332C23.4948 2.64985 23.6273 2.78 23.6273 2.93994V4.90175H23.5935C23.5527 4.90175 23.5128 4.91348 23.4786 4.93564C23.2469 5.08516 23.06 5.27062 22.923 5.48663C22.6355 5.94022 22.642 6.41372 22.6442 6.5694L22.6444 6.57592L22.6464 15.6046H21.8731C21.7562 15.6046 21.6612 15.6994 21.6612 15.8165C21.6612 15.9335 21.756 16.0284 21.8731 16.0284H22.6462C22.6451 18.9017 22.644 22.3043 22.6442 26.0644H22.4811C22.029 26.0644 21.6613 26.4321 21.6613 26.8842C21.6613 27.3363 22.029 27.704 22.4811 27.704H26.18C26.6321 27.704 26.9998 27.3363 26.9998 26.8842C27 26.4319 26.6321 26.0642 26.18 26.0642L26.1802 26.0638ZM15.4498 6.05537H15.9706C16.5339 6.05537 16.9921 6.50803 16.9921 7.06421V7.82074H15.4498L15.4498 6.05537ZM15.4498 8.24455H16.9921V10.2533H15.4498V8.24455ZM15.4498 10.6769H16.9921V11.4334C16.9921 11.9898 16.5338 12.4423 15.9706 12.4423H15.4497L15.4498 10.6769ZM5.93344 11.2262H5.12829C5.12829 11.0327 5.12847 10.8256 5.12866 10.6769H5.93343L5.93344 11.2262ZM4.91531 10.2533C4.76188 10.2533 4.63713 10.1285 4.63713 9.97508V9.00943C4.63713 8.856 4.76188 8.73125 4.91531 8.73125H8.85012C9.00356 8.73125 9.12831 8.856 9.12831 9.00943V10.2533L4.91531 10.2533ZM9.12831 10.6769V12.6856H7.58603V10.6769H9.12831ZM5.50705 13.5712C6.22598 13.1913 6.91959 13.1103 7.3741 13.1092H9.33962C9.7947 13.1104 10.4881 13.1913 11.2072 13.5712C11.9193 13.9473 12.378 14.473 12.6492 14.8746L4.0652 14.8748C4.33631 14.473 4.79509 13.9475 5.50715 13.5712L5.50705 13.5712ZM13.6277 15.8572C14.0481 16.2039 14.2891 16.7132 14.2891 17.2543V25.7038C14.2891 26.7073 13.4635 27.5234 12.4487 27.5234H4.2656C3.2508 27.5234 2.4252 26.7073 2.4252 25.704V17.2545C2.4252 16.7133 2.66633 16.2041 3.08659 15.8574L3.76399 15.2988H12.9505L13.6277 15.8572ZM14.0094 14.1451H12.6189C12.3718 13.8691 12.0612 13.5932 11.6746 13.3526H15.0035C14.9048 13.8049 14.4967 14.1451 14.0094 14.1451ZM15.0265 12.9288H12.9926V4.83912H15.0265V12.9288ZM15.0265 3.62264V4.41511H12.9926V3.62264H15.0265ZM23.3325 2.22593H15.0083C14.6117 2.22593 14.2892 2.5462 14.2892 2.93985V3.19904H13.7299V2.93296C13.7299 2.2403 14.3002 1.67683 15.0013 1.67683H23.3398C24.0408 1.67683 24.6112 2.24026 24.6112 2.93296V4.90168H24.0518V2.93987C24.0518 2.54624 23.7293 2.22596 23.3329 2.22596L23.3325 2.22593ZM23.2813 5.71348C23.3754 5.56508 23.502 5.43492 23.6584 5.32544H25.0046C25.1567 5.43083 25.2835 5.56136 25.3815 5.71442C25.5293 5.94512 25.58 6.18066 25.5932 6.36108H23.0739C23.0878 6.18605 23.134 5.94585 23.2813 5.71346L23.2813 5.71348ZM25.5938 6.78491V15.6044H23.0705L23.07 6.78491H25.5938ZM23.0703 16.0281H25.5938V26.0641H23.0685C23.0681 22.3043 23.0692 18.9015 23.0703 16.0281H23.0703ZM26.1805 27.2801H22.4816C22.2631 27.2801 22.0853 27.1022 22.0853 26.8838C22.0853 26.6654 22.2631 26.4876 22.4816 26.4876H26.1805C26.3989 26.4876 26.5767 26.6654 26.5767 26.8838C26.5767 27.1022 26.3991 27.2801 26.1805 27.2801Z" />
	</mask>
	<path d="M26.1802 26.0638H26.0171L26.0173 16.0279H26.7884C26.9053 16.0279 27.0003 15.9331 27.0003 15.816C27.0003 15.6991 26.9055 15.6041 26.7884 15.6041H26.0171L26.0173 6.57969C26.0313 6.35196 26.0123 5.91343 25.738 5.48576C25.5959 5.264 25.4086 5.07854 25.1816 4.93463C25.1477 4.91322 25.1085 4.90167 25.0682 4.90167H25.0343L25.0342 2.93295C25.0342 2.00658 24.2739 1.25305 23.3392 1.25305H15.0007C14.0659 1.25305 13.3056 2.00663 13.3056 2.93295V3.19903H12.7802C12.6633 3.19903 12.5683 3.29381 12.5683 3.41093V12.9287H10.7853C10.3896 12.7926 9.97305 12.7125 9.55148 12.6915V9.00917C9.55148 8.62206 9.23661 8.30717 8.84948 8.30717L4.91485 8.30699C4.52774 8.30699 4.21285 8.62185 4.21285 9.00899V9.97464C4.21285 10.2886 4.4201 10.555 4.70497 10.6444L4.70441 11.4376C4.70441 11.5546 4.79919 11.6495 4.91631 11.6495H6.14504C6.26197 11.6495 6.35694 11.5548 6.35694 11.4376V10.6766H7.16209V12.6914C6.51357 12.7236 5.87692 12.8964 5.30901 13.1963C4.36405 13.6956 3.81754 14.4176 3.52167 14.9487L2.8169 15.53C2.29814 15.9575 2.00098 16.5859 2.00098 17.254V25.7036C2.00098 26.9407 3.01673 27.9469 4.26519 27.9469H12.4483C13.6967 27.9469 14.7125 26.9407 14.7125 25.7037V17.2542C14.7125 16.5861 14.4153 15.9577 13.8969 15.5301L13.1922 14.9488C13.1261 14.8302 13.0468 14.7018 12.9538 14.5686H14.0091C14.8034 14.5686 15.4497 13.9279 15.4497 13.1406V12.866H15.9705C16.7673 12.866 17.4156 12.2234 17.4156 11.4333V7.06394C17.4156 6.27409 16.7672 5.63129 15.9705 5.63129H15.4497V3.41103C15.4497 3.2941 15.3549 3.19914 15.2378 3.19914H14.7125V2.93994C14.7125 2.78 14.8449 2.64985 15.0078 2.64985H23.332C23.4948 2.64985 23.6273 2.78 23.6273 2.93994V4.90175H23.5935C23.5527 4.90175 23.5128 4.91348 23.4786 4.93564C23.2469 5.08516 23.06 5.27062 22.923 5.48663C22.6355 5.94022 22.642 6.41372 22.6442 6.5694L22.6444 6.57592L22.6464 15.6046H21.8731C21.7562 15.6046 21.6612 15.6994 21.6612 15.8165C21.6612 15.9335 21.756 16.0284 21.8731 16.0284H22.6462C22.6451 18.9017 22.644 22.3043 22.6442 26.0644H22.4811C22.029 26.0644 21.6613 26.4321 21.6613 26.8842C21.6613 27.3363 22.029 27.704 22.4811 27.704H26.18C26.6321 27.704 26.9998 27.3363 26.9998 26.8842C27 26.4319 26.6321 26.0642 26.18 26.0642L26.1802 26.0638ZM15.4498 6.05537H15.9706C16.5339 6.05537 16.9921 6.50803 16.9921 7.06421V7.82074H15.4498L15.4498 6.05537ZM15.4498 8.24455H16.9921V10.2533H15.4498V8.24455ZM15.4498 10.6769H16.9921V11.4334C16.9921 11.9898 16.5338 12.4423 15.9706 12.4423H15.4497L15.4498 10.6769ZM5.93344 11.2262H5.12829C5.12829 11.0327 5.12847 10.8256 5.12866 10.6769H5.93343L5.93344 11.2262ZM4.91531 10.2533C4.76188 10.2533 4.63713 10.1285 4.63713 9.97508V9.00943C4.63713 8.856 4.76188 8.73125 4.91531 8.73125H8.85012C9.00356 8.73125 9.12831 8.856 9.12831 9.00943V10.2533L4.91531 10.2533ZM9.12831 10.6769V12.6856H7.58603V10.6769H9.12831ZM5.50705 13.5712C6.22598 13.1913 6.91959 13.1103 7.3741 13.1092H9.33962C9.7947 13.1104 10.4881 13.1913 11.2072 13.5712C11.9193 13.9473 12.378 14.473 12.6492 14.8746L4.0652 14.8748C4.33631 14.473 4.79509 13.9475 5.50715 13.5712L5.50705 13.5712ZM13.6277 15.8572C14.0481 16.2039 14.2891 16.7132 14.2891 17.2543V25.7038C14.2891 26.7073 13.4635 27.5234 12.4487 27.5234H4.2656C3.2508 27.5234 2.4252 26.7073 2.4252 25.704V17.2545C2.4252 16.7133 2.66633 16.2041 3.08659 15.8574L3.76399 15.2988H12.9505L13.6277 15.8572ZM14.0094 14.1451H12.6189C12.3718 13.8691 12.0612 13.5932 11.6746 13.3526H15.0035C14.9048 13.8049 14.4967 14.1451 14.0094 14.1451ZM15.0265 12.9288H12.9926V4.83912H15.0265V12.9288ZM15.0265 3.62264V4.41511H12.9926V3.62264H15.0265ZM23.3325 2.22593H15.0083C14.6117 2.22593 14.2892 2.5462 14.2892 2.93985V3.19904H13.7299V2.93296C13.7299 2.2403 14.3002 1.67683 15.0013 1.67683H23.3398C24.0408 1.67683 24.6112 2.24026 24.6112 2.93296V4.90168H24.0518V2.93987C24.0518 2.54624 23.7293 2.22596 23.3329 2.22596L23.3325 2.22593ZM23.2813 5.71348C23.3754 5.56508 23.502 5.43492 23.6584 5.32544H25.0046C25.1567 5.43083 25.2835 5.56136 25.3815 5.71442C25.5293 5.94512 25.58 6.18066 25.5932 6.36108H23.0739C23.0878 6.18605 23.134 5.94585 23.2813 5.71346L23.2813 5.71348ZM25.5938 6.78491V15.6044H23.0705L23.07 6.78491H25.5938ZM23.0703 16.0281H25.5938V26.0641H23.0685C23.0681 22.3043 23.0692 18.9015 23.0703 16.0281H23.0703ZM26.1805 27.2801H22.4816C22.2631 27.2801 22.0853 27.1022 22.0853 26.8838C22.0853 26.6654 22.2631 26.4876 22.4816 26.4876H26.1805C26.3989 26.4876 26.5767 26.6654 26.5767 26.8838C26.5767 27.1022 26.3991 27.2801 26.1805 27.2801Z" fill="#444444" />
	<path d="M26.1802 26.0638H26.0171L26.0173 16.0279H26.7884C26.9053 16.0279 27.0003 15.9331 27.0003 15.816C27.0003 15.6991 26.9055 15.6041 26.7884 15.6041H26.0171L26.0173 6.57969C26.0313 6.35196 26.0123 5.91343 25.738 5.48576C25.5959 5.264 25.4086 5.07854 25.1816 4.93463C25.1477 4.91322 25.1085 4.90167 25.0682 4.90167H25.0343L25.0342 2.93295C25.0342 2.00658 24.2739 1.25305 23.3392 1.25305H15.0007C14.0659 1.25305 13.3056 2.00663 13.3056 2.93295V3.19903H12.7802C12.6633 3.19903 12.5683 3.29381 12.5683 3.41093V12.9287H10.7853C10.3896 12.7926 9.97305 12.7125 9.55148 12.6915V9.00917C9.55148 8.62206 9.23661 8.30717 8.84948 8.30717L4.91485 8.30699C4.52774 8.30699 4.21285 8.62185 4.21285 9.00899V9.97464C4.21285 10.2886 4.4201 10.555 4.70497 10.6444L4.70441 11.4376C4.70441 11.5546 4.79919 11.6495 4.91631 11.6495H6.14504C6.26197 11.6495 6.35694 11.5548 6.35694 11.4376V10.6766H7.16209V12.6914C6.51357 12.7236 5.87692 12.8964 5.30901 13.1963C4.36405 13.6956 3.81754 14.4176 3.52167 14.9487L2.8169 15.53C2.29814 15.9575 2.00098 16.5859 2.00098 17.254V25.7036C2.00098 26.9407 3.01673 27.9469 4.26519 27.9469H12.4483C13.6967 27.9469 14.7125 26.9407 14.7125 25.7037V17.2542C14.7125 16.5861 14.4153 15.9577 13.8969 15.5301L13.1922 14.9488C13.1261 14.8302 13.0468 14.7018 12.9538 14.5686H14.0091C14.8034 14.5686 15.4497 13.9279 15.4497 13.1406V12.866H15.9705C16.7673 12.866 17.4156 12.2234 17.4156 11.4333V7.06394C17.4156 6.27409 16.7672 5.63129 15.9705 5.63129H15.4497V3.41103C15.4497 3.2941 15.3549 3.19914 15.2378 3.19914H14.7125V2.93994C14.7125 2.78 14.8449 2.64985 15.0078 2.64985H23.332C23.4948 2.64985 23.6273 2.78 23.6273 2.93994V4.90175H23.5935C23.5527 4.90175 23.5128 4.91348 23.4786 4.93564C23.2469 5.08516 23.06 5.27062 22.923 5.48663C22.6355 5.94022 22.642 6.41372 22.6442 6.5694L22.6444 6.57592L22.6464 15.6046H21.8731C21.7562 15.6046 21.6612 15.6994 21.6612 15.8165C21.6612 15.9335 21.756 16.0284 21.8731 16.0284H22.6462C22.6451 18.9017 22.644 22.3043 22.6442 26.0644H22.4811C22.029 26.0644 21.6613 26.4321 21.6613 26.8842C21.6613 27.3363 22.029 27.704 22.4811 27.704H26.18C26.6321 27.704 26.9998 27.3363 26.9998 26.8842C27 26.4319 26.6321 26.0642 26.18 26.0642L26.1802 26.0638ZM15.4498 6.05537H15.9706C16.5339 6.05537 16.9921 6.50803 16.9921 7.06421V7.82074H15.4498L15.4498 6.05537ZM15.4498 8.24455H16.9921V10.2533H15.4498V8.24455ZM15.4498 10.6769H16.9921V11.4334C16.9921 11.9898 16.5338 12.4423 15.9706 12.4423H15.4497L15.4498 10.6769ZM5.93344 11.2262H5.12829C5.12829 11.0327 5.12847 10.8256 5.12866 10.6769H5.93343L5.93344 11.2262ZM4.91531 10.2533C4.76188 10.2533 4.63713 10.1285 4.63713 9.97508V9.00943C4.63713 8.856 4.76188 8.73125 4.91531 8.73125H8.85012C9.00356 8.73125 9.12831 8.856 9.12831 9.00943V10.2533L4.91531 10.2533ZM9.12831 10.6769V12.6856H7.58603V10.6769H9.12831ZM5.50705 13.5712C6.22598 13.1913 6.91959 13.1103 7.3741 13.1092H9.33962C9.7947 13.1104 10.4881 13.1913 11.2072 13.5712C11.9193 13.9473 12.378 14.473 12.6492 14.8746L4.0652 14.8748C4.33631 14.473 4.79509 13.9475 5.50715 13.5712L5.50705 13.5712ZM13.6277 15.8572C14.0481 16.2039 14.2891 16.7132 14.2891 17.2543V25.7038C14.2891 26.7073 13.4635 27.5234 12.4487 27.5234H4.2656C3.2508 27.5234 2.4252 26.7073 2.4252 25.704V17.2545C2.4252 16.7133 2.66633 16.2041 3.08659 15.8574L3.76399 15.2988H12.9505L13.6277 15.8572ZM14.0094 14.1451H12.6189C12.3718 13.8691 12.0612 13.5932 11.6746 13.3526H15.0035C14.9048 13.8049 14.4967 14.1451 14.0094 14.1451ZM15.0265 12.9288H12.9926V4.83912H15.0265V12.9288ZM15.0265 3.62264V4.41511H12.9926V3.62264H15.0265ZM23.3325 2.22593H15.0083C14.6117 2.22593 14.2892 2.5462 14.2892 2.93985V3.19904H13.7299V2.93296C13.7299 2.2403 14.3002 1.67683 15.0013 1.67683H23.3398C24.0408 1.67683 24.6112 2.24026 24.6112 2.93296V4.90168H24.0518V2.93987C24.0518 2.54624 23.7293 2.22596 23.3329 2.22596L23.3325 2.22593ZM23.2813 5.71348C23.3754 5.56508 23.502 5.43492 23.6584 5.32544H25.0046C25.1567 5.43083 25.2835 5.56136 25.3815 5.71442C25.5293 5.94512 25.58 6.18066 25.5932 6.36108H23.0739C23.0878 6.18605 23.134 5.94585 23.2813 5.71346L23.2813 5.71348ZM25.5938 6.78491V15.6044H23.0705L23.07 6.78491H25.5938ZM23.0703 16.0281H25.5938V26.0641H23.0685C23.0681 22.3043 23.0692 18.9015 23.0703 16.0281H23.0703ZM26.1805 27.2801H22.4816C22.2631 27.2801 22.0853 27.1022 22.0853 26.8838C22.0853 26.6654 22.2631 26.4876 22.4816 26.4876H26.1805C26.3989 26.4876 26.5767 26.6654 26.5767 26.8838C26.5767 27.1022 26.3991 27.2801 26.1805 27.2801Z" stroke="#444444" stroke-width="0.4" mask="url(#path-1-outside-1_1529_358838)" />
</svg>