<svg width="29" height="29" viewBox="0 0 29 29" fill="none" xmlns="http://www.w3.org/2000/svg">
	<path d="M6.40092 27.0787H22.5991C22.8396 27.0787 23 26.9183 23 26.6778V1.81938C23 1.57887 22.8396 1.41846 22.5991 1.41846H6.40092C6.16041 1.41846 6 1.57886 6 1.81938V26.6778C6 26.9183 6.20046 27.0787 6.40092 27.0787ZM6.80184 2.2203H22.1981V26.2768L6.80184 26.277V2.2203Z" fill="#444444" />
	<path d="M9.88949 18.779H14.0593C14.2998 18.779 14.4602 18.6186 14.4602 18.3781V3.98412C14.4602 3.82372 14.3801 3.70355 14.2597 3.62326C14.1394 3.54315 13.9792 3.5832 13.8588 3.66331L9.68903 6.55005C9.56868 6.63016 9.52863 6.75051 9.52863 6.87086V18.3781C9.48839 18.6186 9.68903 18.7791 9.88949 18.7791V18.779ZM10.2904 7.11159L13.6583 4.78618V18.0173H10.2904V7.11159Z" fill="#444444" />
	<path d="M20.6344 6.55027L16.4647 3.66353C16.3443 3.58342 16.1841 3.58342 16.0637 3.62348C15.9434 3.70359 15.8633 3.82394 15.8633 3.98434V18.3783C15.8633 18.6189 16.0237 18.7793 16.2642 18.7793H20.434C20.6745 18.7793 20.8349 18.6189 20.8349 18.3783L20.8351 6.87108C20.7948 6.75073 20.7548 6.63057 20.6344 6.55027V6.55027ZM19.993 17.9772H16.6251V4.74612L19.993 7.07153V17.9772Z" fill="#444444" />
	<path d="M20.3937 20.1821H9.8892C9.64869 20.1821 9.48828 20.3425 9.48828 20.5831V24.5123C9.48828 24.7528 9.64868 24.9132 9.8892 24.9132H20.3937C20.6343 24.9132 20.7947 24.7528 20.7947 24.5123V20.5831C20.7945 20.3425 20.6341 20.1821 20.3936 20.1821H20.3937ZM19.9928 24.1114H10.2902V20.9839H19.9928V24.1114Z" fill="#444444" />
	<path d="M8.16557 12.9653C7.92506 12.9653 7.76465 13.1257 7.76465 13.3663V15.0903C7.76465 15.3308 7.92505 15.4912 8.16557 15.4912C8.40609 15.4912 8.56649 15.3308 8.56649 15.0903V13.3663C8.56667 13.1658 8.36621 12.9653 8.16557 12.9653Z" fill="#444444" />
</svg>