<svg width="29" height="29" viewBox="0 0 29 29" fill="none" xmlns="http://www.w3.org/2000/svg">
	<path d="M12.7553 5.13167L8.70273 1.07794C8.60313 0.97834 8.46782 0.922363 8.3271 0.922363C8.18638 0.922363 8.05127 0.97834 7.95166 1.07794L3.89774 5.13167C1.45577 7.57403 1.45616 11.5477 3.89774 13.9892C5.08097 15.1725 6.65413 15.8243 8.32751 15.8243C10.0003 15.8243 11.5729 15.1731 12.7557 13.9898C15.1975 11.5479 15.1975 7.57384 12.7553 5.13127L12.7553 5.13167ZM12.0048 13.2391C11.0225 14.2218 9.71667 14.7627 8.32748 14.7627C6.93769 14.7627 5.63092 14.2214 4.64861 13.2385C2.62048 11.211 2.62048 7.91065 4.64841 5.88267L8.32708 2.20435L12.0044 5.88267C14.0323 7.91139 14.0325 11.2115 12.0048 13.2395L12.0048 13.2391Z" fill="#444444" />
	<path d="M11.6282 6.25783C11.4211 6.05071 11.085 6.05052 10.8772 6.25783C10.6699 6.46494 10.6699 6.80119 10.8772 7.00868C12.2843 8.41621 12.2849 10.7057 10.8781 12.1127C10.6708 12.32 10.6708 12.6561 10.8781 12.8636C10.9818 12.9672 11.1177 13.0191 11.2536 13.0191C11.3895 13.0191 11.5252 12.9672 11.629 12.8636C13.4496 11.0427 13.4492 8.07964 11.6282 6.25783H11.6282Z" fill="#444444" />
	<path d="M18.9429 15.2063C18.7435 15.0073 18.3913 15.0073 18.1919 15.2063L15.1106 18.2883C14.1885 19.2102 13.6807 20.438 13.6807 21.7452C13.6807 23.0524 14.1883 24.2802 15.1106 25.2021C16.0341 26.1256 17.2619 26.6341 18.5681 26.6341C19.8737 26.6341 21.1016 26.1261 22.025 25.2024C22.9469 24.2806 23.4548 23.0527 23.4546 21.7455C23.4546 20.4378 22.9465 19.2105 22.0245 18.2881L18.9429 15.2063ZM21.2741 24.4517C20.5512 25.1746 19.59 25.5723 18.5681 25.5723C17.5456 25.5723 16.5843 25.1741 15.8615 24.4511C15.1398 23.7298 14.7425 22.7685 14.7425 21.7451C14.7425 20.7215 15.1397 19.7602 15.8615 19.0391L18.5675 16.333L21.2736 19.0391C21.9947 19.7608 22.3926 20.7221 22.3926 21.7456C22.3929 22.7691 21.9955 23.7303 21.2742 24.4517L21.2741 24.4517Z" fill="#444444" />
	<path d="M20.7997 21.7454C20.7997 22.3438 20.5685 22.9047 20.1481 23.3253C19.7259 23.7469 19.1649 23.9791 18.5681 23.9791C18.2747 23.9791 18.0371 24.2171 18.0371 24.5101C18.0371 24.8035 18.2745 25.0411 18.5681 25.0411C19.4485 25.0411 20.2764 24.6983 20.8987 24.0762C21.5197 23.4551 21.8615 22.6276 21.8615 21.7456C21.8615 21.4526 21.6241 21.2146 21.3305 21.2146C21.0377 21.2146 20.7997 21.4526 20.7997 21.7454H20.7997Z" fill="#444444" />
	<path d="M23.2242 5.36737C23.1246 5.26777 22.9897 5.21179 22.8488 5.21179C22.7077 5.21179 22.5729 5.26777 22.4733 5.36737L20.6182 7.22215C20.0235 7.81685 19.6961 8.60882 19.6963 9.45198C19.6963 10.2953 20.024 11.0871 20.6188 11.6818C21.2147 12.2777 22.0066 12.6058 22.8488 12.6058C23.6916 12.6058 24.4837 12.2779 25.0784 11.6826C25.6731 11.0877 26.0009 10.2959 26.0009 9.45252C26.0009 8.60941 25.6731 7.81759 25.0784 7.22269L23.2242 5.36737ZM24.3271 10.9319C23.933 11.3265 23.4078 11.544 22.849 11.544C22.2903 11.544 21.7651 11.3263 21.3696 10.9312C20.9756 10.5369 20.7583 10.0117 20.7583 9.45223C20.7583 8.8928 20.975 8.36743 21.369 7.97325L22.8485 6.49427L24.3273 7.97379C24.7216 8.36814 24.9388 8.89335 24.9388 9.45277C24.9388 10.0121 24.7217 10.5374 24.3271 10.9319H24.3271Z" fill="#444444" />
	<path d="M23.2954 8.44244C23.1398 8.59763 23.1398 8.84992 23.2954 9.00552C23.4147 9.12481 23.4799 9.28348 23.4803 9.45276C23.4803 9.62185 23.4149 9.78013 23.296 9.89903C23.1404 10.0542 23.1404 10.3065 23.296 10.4621C23.3738 10.5399 23.4757 10.5787 23.5776 10.5787C23.6797 10.5787 23.7814 10.5397 23.8592 10.4621C24.1289 10.193 24.2771 9.8344 24.2769 9.45257C24.2767 9.07077 24.1283 8.71214 23.859 8.44249C23.7034 8.28691 23.4512 8.28691 23.2954 8.44249L23.2954 8.44244Z" fill="#444444" />
</svg>