<svg width="29" height="29" viewBox="0 0 29 29" fill="none" xmlns="http://www.w3.org/2000/svg">
	<mask id="path-1-outside-1_1529_358741" maskUnits="userSpaceOnUse" x="4.36621" y="1" width="20" height="5" fill="black">
		<rect fill="white" x="4.36621" y="1" width="20" height="5" />
		<path d="M22.4151 5.04498H6.58675C6.26321 5.04427 5.95331 4.91542 5.72445 4.68675C5.49577 4.45789 5.36692 4.14796 5.36621 3.82444V3.22054C5.36692 2.897 5.49577 2.5871 5.72445 2.35823C5.9533 2.12956 6.26323 2.00071 6.58675 2H22.4151C22.7386 2.00071 23.0485 2.12956 23.2774 2.35823C23.5061 2.58709 23.6349 2.89702 23.6356 3.22054V3.82444C23.6349 4.14799 23.5061 4.45788 23.2774 4.68675C23.0486 4.91543 22.7386 5.04428 22.4151 5.04498ZM6.58675 2.50759C6.3979 2.50812 6.21683 2.58352 6.0834 2.71715C5.94977 2.8506 5.87436 3.03167 5.87383 3.2205V3.8244C5.87437 4.01326 5.94977 4.19433 6.0834 4.32776C6.21685 4.46139 6.39792 4.53679 6.58675 4.53732H22.4151C22.604 4.53679 22.785 4.46139 22.9185 4.32776C23.0521 4.19431 23.1275 4.01324 23.128 3.8244V3.2205C23.1275 3.03165 23.0521 2.85058 22.9185 2.71715C22.785 2.58352 22.6039 2.50812 22.4151 2.50759H6.58675Z" />
	</mask>
	<path d="M22.4151 5.04498H6.58675C6.26321 5.04427 5.95331 4.91542 5.72445 4.68675C5.49577 4.45789 5.36692 4.14796 5.36621 3.82444V3.22054C5.36692 2.897 5.49577 2.5871 5.72445 2.35823C5.9533 2.12956 6.26323 2.00071 6.58675 2H22.4151C22.7386 2.00071 23.0485 2.12956 23.2774 2.35823C23.5061 2.58709 23.6349 2.89702 23.6356 3.22054V3.82444C23.6349 4.14799 23.5061 4.45788 23.2774 4.68675C23.0486 4.91543 22.7386 5.04428 22.4151 5.04498ZM6.58675 2.50759C6.3979 2.50812 6.21683 2.58352 6.0834 2.71715C5.94977 2.8506 5.87436 3.03167 5.87383 3.2205V3.8244C5.87437 4.01326 5.94977 4.19433 6.0834 4.32776C6.21685 4.46139 6.39792 4.53679 6.58675 4.53732H22.4151C22.604 4.53679 22.785 4.46139 22.9185 4.32776C23.0521 4.19431 23.1275 4.01324 23.128 3.8244V3.2205C23.1275 3.03165 23.0521 2.85058 22.9185 2.71715C22.785 2.58352 22.6039 2.50812 22.4151 2.50759H6.58675Z" fill="#444444" />
	<path d="M22.4151 5.04498H6.58675C6.26321 5.04427 5.95331 4.91542 5.72445 4.68675C5.49577 4.45789 5.36692 4.14796 5.36621 3.82444V3.22054C5.36692 2.897 5.49577 2.5871 5.72445 2.35823C5.9533 2.12956 6.26323 2.00071 6.58675 2H22.4151C22.7386 2.00071 23.0485 2.12956 23.2774 2.35823C23.5061 2.58709 23.6349 2.89702 23.6356 3.22054V3.82444C23.6349 4.14799 23.5061 4.45788 23.2774 4.68675C23.0486 4.91543 22.7386 5.04428 22.4151 5.04498ZM6.58675 2.50759C6.3979 2.50812 6.21683 2.58352 6.0834 2.71715C5.94977 2.8506 5.87436 3.03167 5.87383 3.2205V3.8244C5.87437 4.01326 5.94977 4.19433 6.0834 4.32776C6.21685 4.46139 6.39792 4.53679 6.58675 4.53732H22.4151C22.604 4.53679 22.785 4.46139 22.9185 4.32776C23.0521 4.19431 23.1275 4.01324 23.128 3.8244V3.2205C23.1275 3.03165 23.0521 2.85058 22.9185 2.71715C22.785 2.58352 22.6039 2.50812 22.4151 2.50759H6.58675Z" stroke="#444444" stroke-width="0.4" mask="url(#path-1-outside-1_1529_358741)" />
	<mask id="path-2-outside-2_1529_358741" maskUnits="userSpaceOnUse" x="1.83008" y="3.53687" width="25" height="5" fill="black">
		<rect fill="white" x="1.83008" y="3.53687" width="25" height="5" />
		<path d="M22.3058 7.5822H6.69537C5.87271 7.59707 5.06473 7.36167 4.37886 6.90716L3.19884 6.085C3.05069 5.98748 2.93812 5.84447 2.8783 5.67738C2.8183 5.51048 2.81423 5.32853 2.86644 5.15899C2.92945 4.97349 3.04999 4.81296 3.2107 4.70112C3.37159 4.58926 3.56398 4.53174 3.75973 4.53722H25.241C25.4368 4.53174 25.6292 4.58926 25.7901 4.70112C25.9508 4.81298 26.0713 4.97352 26.1343 5.15899C26.1865 5.32855 26.1825 5.5105 26.1225 5.67738C26.0626 5.84447 25.9501 5.98748 25.8019 6.085L24.6246 6.90716C23.9378 7.36222 23.129 7.59761 22.3054 7.5822H22.3058ZM3.76014 5.04481C3.58279 5.03012 3.41695 5.13313 3.35164 5.29844C3.30863 5.43561 3.36651 5.58447 3.49111 5.65632L4.67096 6.48093C5.27431 6.87333 5.98125 7.07668 6.70092 7.06449H22.3059C23.0256 7.0767 23.7325 6.87333 24.3357 6.48093L25.5155 5.65632H25.5157C25.6382 5.58287 25.6941 5.43455 25.65 5.29844C25.5847 5.13313 25.4189 5.03012 25.2415 5.04481H3.76014Z" />
	</mask>
	<path d="M22.3058 7.5822H6.69537C5.87271 7.59707 5.06473 7.36167 4.37886 6.90716L3.19884 6.085C3.05069 5.98748 2.93812 5.84447 2.8783 5.67738C2.8183 5.51048 2.81423 5.32853 2.86644 5.15899C2.92945 4.97349 3.04999 4.81296 3.2107 4.70112C3.37159 4.58926 3.56398 4.53174 3.75973 4.53722H25.241C25.4368 4.53174 25.6292 4.58926 25.7901 4.70112C25.9508 4.81298 26.0713 4.97352 26.1343 5.15899C26.1865 5.32855 26.1825 5.5105 26.1225 5.67738C26.0626 5.84447 25.9501 5.98748 25.8019 6.085L24.6246 6.90716C23.9378 7.36222 23.129 7.59761 22.3054 7.5822H22.3058ZM3.76014 5.04481C3.58279 5.03012 3.41695 5.13313 3.35164 5.29844C3.30863 5.43561 3.36651 5.58447 3.49111 5.65632L4.67096 6.48093C5.27431 6.87333 5.98125 7.07668 6.70092 7.06449H22.3059C23.0256 7.0767 23.7325 6.87333 24.3357 6.48093L25.5155 5.65632H25.5157C25.6382 5.58287 25.6941 5.43455 25.65 5.29844C25.5847 5.13313 25.4189 5.03012 25.2415 5.04481H3.76014Z" fill="#444444" />
	<path d="M22.3058 7.5822H6.69537C5.87271 7.59707 5.06473 7.36167 4.37886 6.90716L3.19884 6.085C3.05069 5.98748 2.93812 5.84447 2.8783 5.67738C2.8183 5.51048 2.81423 5.32853 2.86644 5.15899C2.92945 4.97349 3.04999 4.81296 3.2107 4.70112C3.37159 4.58926 3.56398 4.53174 3.75973 4.53722H25.241C25.4368 4.53174 25.6292 4.58926 25.7901 4.70112C25.9508 4.81298 26.0713 4.97352 26.1343 5.15899C26.1865 5.32855 26.1825 5.5105 26.1225 5.67738C26.0626 5.84447 25.9501 5.98748 25.8019 6.085L24.6246 6.90716C23.9378 7.36222 23.129 7.59761 22.3054 7.5822H22.3058ZM3.76014 5.04481C3.58279 5.03012 3.41695 5.13313 3.35164 5.29844C3.30863 5.43561 3.36651 5.58447 3.49111 5.65632L4.67096 6.48093C5.27431 6.87333 5.98125 7.07668 6.70092 7.06449H22.3059C23.0256 7.0767 23.7325 6.87333 24.3357 6.48093L25.5155 5.65632H25.5157C25.6382 5.58287 25.6941 5.43455 25.65 5.29844C25.5847 5.13313 25.4189 5.03012 25.2415 5.04481H3.76014Z" stroke="#444444" stroke-width="0.4" mask="url(#path-2-outside-2_1529_358741)" />
	<mask id="path-3-outside-3_1529_358741" maskUnits="userSpaceOnUse" x="10.0537" y="12.2087" width="9" height="11" fill="black">
		<rect fill="white" x="10.0537" y="12.2087" width="9" height="11" />
		<path d="M15.2467 22.8066H13.3309C12.5472 22.8084 11.8181 22.4054 11.4025 21.7408C10.99 21.0946 10.9401 20.2811 11.2705 19.5892L11.2958 19.536C12.0875 17.9526 11.9048 17.3943 11.8288 17.2524V17.2522C11.7155 17.0168 11.8057 16.734 12.0342 16.6078C12.1307 16.5494 12.6305 16.3033 13.1635 17.1152C13.5923 17.7699 13.8739 18.2874 13.9247 18.7519C14.1079 18.5297 14.2396 18.2697 14.3104 17.9906C14.4315 17.5074 14.2964 16.9959 13.9525 16.6356C13.6092 16.252 13.389 15.7739 13.3207 15.2635C13.2524 14.753 13.3389 14.2339 13.5695 13.7734C13.6812 13.5527 13.9019 13.1847 14.1835 13.21V13.2102C14.3028 13.2225 14.403 13.3057 14.4373 13.4208C14.894 14.8316 15.7568 15.8872 16.5181 16.8183C17.8477 18.4423 18.9971 19.843 16.8885 22.0961H16.8884C16.462 22.5482 15.8683 22.8051 15.2468 22.8066L15.2467 22.8066ZM12.2957 17.0544C12.4834 17.4376 12.5291 18.2114 11.7527 19.7644L11.7298 19.8101C11.4744 20.3444 11.5128 20.9728 11.8314 21.4721C12.1566 21.9864 12.7224 22.2986 13.3309 22.2992H15.2492C15.7294 22.2979 16.188 22.0999 16.5179 21.7512C18.322 19.8228 17.4491 18.7545 16.1271 17.1408C15.3938 16.2477 14.5717 15.2429 14.0694 13.9057C13.8506 14.2835 13.7575 14.7208 13.803 15.1548C13.8486 15.5889 14.0308 15.9973 14.323 16.3213C15.1503 17.278 14.8761 18.3513 14.3434 19.0313C14.1963 19.2191 13.8232 19.6403 13.5288 19.4931C13.3923 19.4202 13.3306 19.2577 13.3842 19.1124C13.4984 18.7014 13.2269 18.1736 12.7219 17.4023C12.5265 17.1028 12.3667 17.0343 12.3058 17.0419C12.3019 17.0456 12.2985 17.0499 12.2957 17.0546L12.2957 17.0544Z" />
	</mask>
	<path d="M15.2467 22.8066H13.3309C12.5472 22.8084 11.8181 22.4054 11.4025 21.7408C10.99 21.0946 10.9401 20.2811 11.2705 19.5892L11.2958 19.536C12.0875 17.9526 11.9048 17.3943 11.8288 17.2524V17.2522C11.7155 17.0168 11.8057 16.734 12.0342 16.6078C12.1307 16.5494 12.6305 16.3033 13.1635 17.1152C13.5923 17.7699 13.8739 18.2874 13.9247 18.7519C14.1079 18.5297 14.2396 18.2697 14.3104 17.9906C14.4315 17.5074 14.2964 16.9959 13.9525 16.6356C13.6092 16.252 13.389 15.7739 13.3207 15.2635C13.2524 14.753 13.3389 14.2339 13.5695 13.7734C13.6812 13.5527 13.9019 13.1847 14.1835 13.21V13.2102C14.3028 13.2225 14.403 13.3057 14.4373 13.4208C14.894 14.8316 15.7568 15.8872 16.5181 16.8183C17.8477 18.4423 18.9971 19.843 16.8885 22.0961H16.8884C16.462 22.5482 15.8683 22.8051 15.2468 22.8066L15.2467 22.8066ZM12.2957 17.0544C12.4834 17.4376 12.5291 18.2114 11.7527 19.7644L11.7298 19.8101C11.4744 20.3444 11.5128 20.9728 11.8314 21.4721C12.1566 21.9864 12.7224 22.2986 13.3309 22.2992H15.2492C15.7294 22.2979 16.188 22.0999 16.5179 21.7512C18.322 19.8228 17.4491 18.7545 16.1271 17.1408C15.3938 16.2477 14.5717 15.2429 14.0694 13.9057C13.8506 14.2835 13.7575 14.7208 13.803 15.1548C13.8486 15.5889 14.0308 15.9973 14.323 16.3213C15.1503 17.278 14.8761 18.3513 14.3434 19.0313C14.1963 19.2191 13.8232 19.6403 13.5288 19.4931C13.3923 19.4202 13.3306 19.2577 13.3842 19.1124C13.4984 18.7014 13.2269 18.1736 12.7219 17.4023C12.5265 17.1028 12.3667 17.0343 12.3058 17.0419C12.3019 17.0456 12.2985 17.0499 12.2957 17.0546L12.2957 17.0544Z" fill="#444444" />
	<path d="M15.2467 22.8066H13.3309C12.5472 22.8084 11.8181 22.4054 11.4025 21.7408C10.99 21.0946 10.9401 20.2811 11.2705 19.5892L11.2958 19.536C12.0875 17.9526 11.9048 17.3943 11.8288 17.2524V17.2522C11.7155 17.0168 11.8057 16.734 12.0342 16.6078C12.1307 16.5494 12.6305 16.3033 13.1635 17.1152C13.5923 17.7699 13.8739 18.2874 13.9247 18.7519C14.1079 18.5297 14.2396 18.2697 14.3104 17.9906C14.4315 17.5074 14.2964 16.9959 13.9525 16.6356C13.6092 16.252 13.389 15.7739 13.3207 15.2635C13.2524 14.753 13.3389 14.2339 13.5695 13.7734C13.6812 13.5527 13.9019 13.1847 14.1835 13.21V13.2102C14.3028 13.2225 14.403 13.3057 14.4373 13.4208C14.894 14.8316 15.7568 15.8872 16.5181 16.8183C17.8477 18.4423 18.9971 19.843 16.8885 22.0961H16.8884C16.462 22.5482 15.8683 22.8051 15.2468 22.8066L15.2467 22.8066ZM12.2957 17.0544C12.4834 17.4376 12.5291 18.2114 11.7527 19.7644L11.7298 19.8101C11.4744 20.3444 11.5128 20.9728 11.8314 21.4721C12.1566 21.9864 12.7224 22.2986 13.3309 22.2992H15.2492C15.7294 22.2979 16.188 22.0999 16.5179 21.7512C18.322 19.8228 17.4491 18.7545 16.1271 17.1408C15.3938 16.2477 14.5717 15.2429 14.0694 13.9057C13.8506 14.2835 13.7575 14.7208 13.803 15.1548C13.8486 15.5889 14.0308 15.9973 14.323 16.3213C15.1503 17.278 14.8761 18.3513 14.3434 19.0313C14.1963 19.2191 13.8232 19.6403 13.5288 19.4931C13.3923 19.4202 13.3306 19.2577 13.3842 19.1124C13.4984 18.7014 13.2269 18.1736 12.7219 17.4023C12.5265 17.1028 12.3667 17.0343 12.3058 17.0419C12.3019 17.0456 12.2985 17.0499 12.2957 17.0546L12.2957 17.0544Z" stroke="#444444" stroke-width="0.4" mask="url(#path-3-outside-3_1529_358741)" />
	<mask id="path-4-outside-4_1529_358741" maskUnits="userSpaceOnUse" x="1.82812" y="6.07471" width="25" height="20" fill="black">
		<rect fill="white" x="1.82812" y="6.07471" width="25" height="20" />
		<path d="M24.9518 25.3441H20.5899V16.2094C20.5899 14.0338 19.4294 12.0233 17.5451 10.9357C15.661 9.84792 13.3396 9.84792 11.4554 10.9357C9.57108 12.0236 8.41054 14.034 8.41054 16.2094V25.3441H4.04867C3.72512 25.3433 3.41522 25.2145 3.18636 24.9858C2.95768 24.757 2.82883 24.447 2.82812 24.1235V23.5196C2.82883 23.1961 2.95769 22.8862 3.18636 22.6573C3.41521 22.4286 3.72515 22.2998 4.04867 22.2991H5.36548V7.07471H23.6347V22.2991H24.9515C25.2751 22.2998 25.585 22.4286 25.8138 22.6573C26.0425 22.8862 26.1714 23.1961 26.1721 23.5196V24.1235C26.1714 24.4471 26.0425 24.757 25.8138 24.9858C25.585 25.2145 25.2751 25.3433 24.9515 25.3441H24.9518ZM21.0976 24.8364H24.9518C25.1407 24.8359 25.3217 24.7605 25.4552 24.6269C25.5888 24.4934 25.6642 24.3124 25.6647 24.1235V23.5196C25.6642 23.3308 25.5888 23.1497 25.4552 23.0163C25.3217 22.8826 25.1406 22.8072 24.9518 22.8067H23.1273V7.58234H5.87305V22.8067H4.04858C3.85972 22.8072 3.67866 22.8826 3.54522 23.0163C3.41159 23.1497 3.33619 23.3308 3.33566 23.5196V24.1235C3.33619 24.3124 3.41159 24.4934 3.54522 24.6269C3.67867 24.7605 3.85974 24.8359 4.04858 24.8364H7.90279V16.2093C7.90279 13.8522 9.16034 11.6742 11.2014 10.4961C13.2427 9.31765 15.7574 9.31765 17.7987 10.4961C19.8398 11.6745 21.0973 13.8524 21.0973 16.2093L21.0976 24.8364Z" />
	</mask>
	<path d="M24.9518 25.3441H20.5899V16.2094C20.5899 14.0338 19.4294 12.0233 17.5451 10.9357C15.661 9.84792 13.3396 9.84792 11.4554 10.9357C9.57108 12.0236 8.41054 14.034 8.41054 16.2094V25.3441H4.04867C3.72512 25.3433 3.41522 25.2145 3.18636 24.9858C2.95768 24.757 2.82883 24.447 2.82812 24.1235V23.5196C2.82883 23.1961 2.95769 22.8862 3.18636 22.6573C3.41521 22.4286 3.72515 22.2998 4.04867 22.2991H5.36548V7.07471H23.6347V22.2991H24.9515C25.2751 22.2998 25.585 22.4286 25.8138 22.6573C26.0425 22.8862 26.1714 23.1961 26.1721 23.5196V24.1235C26.1714 24.4471 26.0425 24.757 25.8138 24.9858C25.585 25.2145 25.2751 25.3433 24.9515 25.3441H24.9518ZM21.0976 24.8364H24.9518C25.1407 24.8359 25.3217 24.7605 25.4552 24.6269C25.5888 24.4934 25.6642 24.3124 25.6647 24.1235V23.5196C25.6642 23.3308 25.5888 23.1497 25.4552 23.0163C25.3217 22.8826 25.1406 22.8072 24.9518 22.8067H23.1273V7.58234H5.87305V22.8067H4.04858C3.85972 22.8072 3.67866 22.8826 3.54522 23.0163C3.41159 23.1497 3.33619 23.3308 3.33566 23.5196V24.1235C3.33619 24.3124 3.41159 24.4934 3.54522 24.6269C3.67867 24.7605 3.85974 24.8359 4.04858 24.8364H7.90279V16.2093C7.90279 13.8522 9.16034 11.6742 11.2014 10.4961C13.2427 9.31765 15.7574 9.31765 17.7987 10.4961C19.8398 11.6745 21.0973 13.8524 21.0973 16.2093L21.0976 24.8364Z" fill="#444444" />
	<path d="M24.9518 25.3441H20.5899V16.2094C20.5899 14.0338 19.4294 12.0233 17.5451 10.9357C15.661 9.84792 13.3396 9.84792 11.4554 10.9357C9.57108 12.0236 8.41054 14.034 8.41054 16.2094V25.3441H4.04867C3.72512 25.3433 3.41522 25.2145 3.18636 24.9858C2.95768 24.757 2.82883 24.447 2.82812 24.1235V23.5196C2.82883 23.1961 2.95769 22.8862 3.18636 22.6573C3.41521 22.4286 3.72515 22.2998 4.04867 22.2991H5.36548V7.07471H23.6347V22.2991H24.9515C25.2751 22.2998 25.585 22.4286 25.8138 22.6573C26.0425 22.8862 26.1714 23.1961 26.1721 23.5196V24.1235C26.1714 24.4471 26.0425 24.757 25.8138 24.9858C25.585 25.2145 25.2751 25.3433 24.9515 25.3441H24.9518ZM21.0976 24.8364H24.9518C25.1407 24.8359 25.3217 24.7605 25.4552 24.6269C25.5888 24.4934 25.6642 24.3124 25.6647 24.1235V23.5196C25.6642 23.3308 25.5888 23.1497 25.4552 23.0163C25.3217 22.8826 25.1406 22.8072 24.9518 22.8067H23.1273V7.58234H5.87305V22.8067H4.04858C3.85972 22.8072 3.67866 22.8826 3.54522 23.0163C3.41159 23.1497 3.33619 23.3308 3.33566 23.5196V24.1235C3.33619 24.3124 3.41159 24.4934 3.54522 24.6269C3.67867 24.7605 3.85974 24.8359 4.04858 24.8364H7.90279V16.2093C7.90279 13.8522 9.16034 11.6742 11.2014 10.4961C13.2427 9.31765 15.7574 9.31765 17.7987 10.4961C19.8398 11.6745 21.0973 13.8524 21.0973 16.2093L21.0976 24.8364Z" stroke="#444444" stroke-width="0.4" mask="url(#path-4-outside-4_1529_358741)" />
	<mask id="path-5-outside-5_1529_358741" maskUnits="userSpaceOnUse" x="6.90332" y="21.2991" width="15" height="5" fill="black">
		<rect fill="white" x="6.90332" y="21.2991" width="15" height="5" />
		<path d="M21.0978 25.3441H7.90332V23.5196C7.90403 23.1961 8.03288 22.8862 8.26156 22.6573C8.49041 22.4286 8.80034 22.2998 9.12386 22.2991H19.8774C20.201 22.2998 20.5109 22.4286 20.7397 22.6573C20.9684 22.8862 21.0973 23.1961 21.098 23.5196L21.0978 25.3441ZM8.4108 24.8365H20.5903V23.5197C20.5898 23.3308 20.5144 23.1497 20.3807 23.0163C20.2473 22.8827 20.0662 22.8073 19.8774 22.8067H9.12381C8.93495 22.8073 8.75389 22.8827 8.62045 23.0163C8.48682 23.1498 8.41142 23.3308 8.41089 23.5197L8.4108 24.8365Z" />
	</mask>
	<path d="M21.0978 25.3441H7.90332V23.5196C7.90403 23.1961 8.03288 22.8862 8.26156 22.6573C8.49041 22.4286 8.80034 22.2998 9.12386 22.2991H19.8774C20.201 22.2998 20.5109 22.4286 20.7397 22.6573C20.9684 22.8862 21.0973 23.1961 21.098 23.5196L21.0978 25.3441ZM8.4108 24.8365H20.5903V23.5197C20.5898 23.3308 20.5144 23.1497 20.3807 23.0163C20.2473 22.8827 20.0662 22.8073 19.8774 22.8067H9.12381C8.93495 22.8073 8.75389 22.8827 8.62045 23.0163C8.48682 23.1498 8.41142 23.3308 8.41089 23.5197L8.4108 24.8365Z" fill="#444444" />
	<path d="M21.0978 25.3441H7.90332V23.5196C7.90403 23.1961 8.03288 22.8862 8.26156 22.6573C8.49041 22.4286 8.80034 22.2998 9.12386 22.2991H19.8774C20.201 22.2998 20.5109 22.4286 20.7397 22.6573C20.9684 22.8862 21.0973 23.1961 21.098 23.5196L21.0978 25.3441ZM8.4108 24.8365H20.5903V23.5197C20.5898 23.3308 20.5144 23.1497 20.3807 23.0163C20.2473 22.8827 20.0662 22.8073 19.8774 22.8067H9.12381C8.93495 22.8073 8.75389 22.8827 8.62045 23.0163C8.48682 23.1498 8.41142 23.3308 8.41089 23.5197L8.4108 24.8365Z" stroke="#444444" stroke-width="0.4" mask="url(#path-5-outside-5_1529_358741)" />
</svg>