<svg width="29" height="29" viewBox="0 0 29 29" fill="none" xmlns="http://www.w3.org/2000/svg">
	<path d="M24.9824 23.7791C24.7117 23.7791 24.4951 23.5626 24.4951 23.2916V6.28612C24.4951 6.0154 24.7117 5.79883 24.9824 5.79883C25.2533 5.79883 25.4699 6.0154 25.4699 6.28612V23.2916C25.4699 23.5626 25.2533 23.7791 24.9824 23.7791Z" fill="#444444" />
	<path d="M21.5777 23.7796C21.307 23.7796 21.0904 23.5628 21.0904 23.2921V11.9529C19.9599 11.8175 18.8631 11.242 17.7936 10.6801C16.6291 10.0641 15.5325 9.48875 14.4628 9.48875C13.3932 9.48875 12.2964 10.0641 11.1322 10.6801C10.0624 11.242 8.96583 11.8175 7.83532 11.9529V23.2921C7.83532 23.5628 7.61855 23.7796 7.34784 23.7796C7.07693 23.7796 6.86035 23.5628 6.86035 23.2921V11.4924C6.86035 11.2217 7.07693 11.0051 7.34784 11.0051C8.4107 11.0051 9.51418 10.4295 10.6784 9.81352C11.8971 9.17045 13.1563 8.51367 14.4628 8.51367C15.7692 8.51367 17.0285 9.17713 18.2471 9.81352C19.4114 10.4295 20.5148 11.0051 21.5777 11.0051C21.8486 11.0051 22.0652 11.2217 22.0652 11.4924V23.2921C22.0652 23.5628 21.8486 23.7796 21.5777 23.7796H21.5777Z" fill="#444444" />
	<path d="M3.94139 23.7791C3.67068 23.7791 3.4541 23.5626 3.4541 23.2916V6.28612C3.4541 6.0154 3.67068 5.79883 3.94139 5.79883C4.2123 5.79883 4.42888 6.0154 4.42888 6.28612V23.2916C4.42888 23.5626 4.2123 23.7791 3.94139 23.7791Z" fill="#444444" />
	<path d="M26.5117 23.7792H2.52655C2.25564 23.7792 2.03906 23.5626 2.03906 23.2919C2.03906 23.0212 2.25564 22.8044 2.52655 22.8044H26.5117C26.7824 22.8044 26.9992 23.0212 26.9992 23.2919C26.9992 23.5626 26.7824 23.7792 26.5117 23.7792Z" fill="#444444" />
	<path d="M3.82691 6.55712C3.6374 6.55712 3.4683 6.44884 3.38689 6.27286L2.04662 3.3956C1.97874 3.24671 1.98561 3.07074 2.07369 2.92852C2.16157 2.78629 2.31734 2.70508 2.48663 2.70508H26.4446C26.6139 2.70508 26.7695 2.79316 26.8576 2.92852C26.9457 3.07074 26.9592 3.24671 26.8846 3.3956L25.5442 6.27286C25.463 6.44197 25.2937 6.55712 25.1042 6.55712H3.82691ZM24.7863 5.58215L25.6731 3.67986H3.24485L4.13154 5.58215H24.7863Z" fill="#444444" />
	<path d="M18.3889 23.3392C18.2467 23.3392 18.0978 23.2715 18.003 23.1497C17.8404 22.9397 17.8743 22.6282 18.0909 22.4658C19.2689 21.5519 19.6006 20.2995 19.0861 18.7966C18.7408 20.2318 17.8674 20.4213 17.5426 20.4349C16.6557 20.489 15.884 19.6766 15.8232 18.6815C15.7622 17.7067 16.2698 17.1921 16.6355 16.8198C17.0349 16.4137 17.2109 16.2309 16.9333 15.5539C16.8452 15.3373 16.7234 15.1343 16.5947 14.9446C16.6085 16.1024 15.6945 16.6237 14.6722 17.2125C14.4217 17.3548 14.1577 17.5103 13.8801 17.6796C13.1625 18.1265 13.2777 18.4717 13.7854 19.3585C13.9751 19.6902 14.151 19.9949 14.2052 20.3266C14.2864 21.3082 13.7787 21.6602 13.5553 21.7686C13.034 22.0258 12.3502 21.8701 11.8154 21.3692C11.2196 20.8207 10.7661 19.7512 11.2873 18.4108C11.5378 17.7744 11.1249 17.2126 10.6442 16.7996C10.6644 17.4156 10.4547 17.8556 10.238 18.316C10.1432 18.5259 10.0349 18.7494 9.94016 19.0201C9.43249 20.4824 9.65591 21.6535 10.6036 22.4929C10.8067 22.6689 10.8202 22.9804 10.6442 23.1834C10.4614 23.3865 10.1567 23.4 9.9537 23.224C8.72155 22.1274 8.3898 20.5298 9.01951 18.7086C9.12779 18.3972 9.24962 18.1401 9.35791 17.9098C9.66256 17.2532 9.83186 16.8944 9.44599 15.9196C9.37144 15.7299 9.41891 15.5133 9.56781 15.378C9.7167 15.2426 9.93328 15.2087 10.1161 15.3034C11.9034 16.2174 12.6819 17.5103 12.1877 18.7696C11.7543 19.8866 12.2893 20.4959 12.4653 20.6583C12.736 20.9088 13.0136 20.9495 13.1152 20.8953C13.2031 20.8547 13.2437 20.6854 13.2235 20.4484C13.2031 20.3335 13.061 20.0896 12.9188 19.846C12.5125 19.1419 11.7679 17.8354 13.3453 16.8538C13.6364 16.6709 13.914 16.5154 14.1712 16.3663C15.5862 15.5539 15.9652 15.3374 15.2881 13.8682C15.2138 13.7058 15.234 13.5163 15.3423 13.3674C15.4508 13.2183 15.6267 13.1506 15.8094 13.1777C16.5947 13.2997 17.468 14.3151 17.8201 15.1816C18.3414 16.4544 17.7456 17.0568 17.3125 17.5037C16.9807 17.8421 16.7438 18.0859 16.7775 18.6274C16.8046 19.1284 17.1769 19.5007 17.4749 19.4668C17.8879 19.4466 18.3008 18.6748 18.2331 17.0433C18.2263 16.8267 18.3616 16.6236 18.5715 16.5558C18.7815 16.4881 19.0116 16.5695 19.1267 16.759C21.4961 20.4553 19.5938 22.5268 18.6663 23.2444C18.5784 23.3121 18.4701 23.3458 18.3685 23.3458L18.3889 23.3392Z" fill="#444444" />
	<path d="M26.4715 25.5258H2.56073C2.28982 25.5258 2.07324 25.3092 2.07324 25.0385C2.07324 24.7676 2.28982 24.551 2.56073 24.551H26.4715C26.7424 24.551 26.959 24.7676 26.959 25.0385C26.959 25.3092 26.7424 25.5258 26.4715 25.5258Z" fill="#444444" />
	<path d="M2.52655 25.5053C2.25564 25.5053 2.03906 25.2887 2.03906 25.018V23.2917C2.03906 23.021 2.25564 22.8042 2.52655 22.8042C2.79727 22.8042 3.01384 23.021 3.01384 23.2917V25.018C3.01384 25.2887 2.79727 25.5053 2.52655 25.5053Z" fill="#444444" />
	<path d="M26.5119 25.5053C26.241 25.5053 26.0244 25.2887 26.0244 25.018V23.2917C26.0244 23.021 26.2414 22.8042 26.5121 22.8042C26.7828 22.8042 26.9996 23.021 26.9996 23.2917L26.9992 25.018C26.9992 25.2887 26.7826 25.5053 26.5119 25.5053Z" fill="#444444" />
</svg>