<svg width="29" height="29" viewBox="0 0 29 29" fill="none" xmlns="http://www.w3.org/2000/svg">
	<mask id="path-1-outside-1_1529_358832" maskUnits="userSpaceOnUse" x="3.02539" y="2.1853" width="23" height="23" fill="black">
		<rect fill="white" x="3.02539" y="2.1853" width="23" height="23" />
		<path d="M24.9403 15.9401L14.7273 3.28197C14.6242 3.15308 14.4033 3.15308 14.2965 3.28197L4.08749 15.9401C4.02129 16.0211 4.00644 16.1317 4.05057 16.2273L7.95084 24.7384C7.99497 24.8378 8.09438 24.9005 8.20121 24.9005H20.8224C20.9292 24.9005 21.0286 24.8378 21.0727 24.7384L24.973 16.2273C25.0174 16.1314 25.0064 16.0211 24.94 15.9401H24.9403ZM20.5429 17.1811L14.7902 9.61303V4.23588L24.2588 15.9734L20.5429 17.1811ZM10.9933 21.2545H18.0385L20.285 24.3482H8.7466L10.9933 21.2545ZM18.0279 20.7057H11.0011L8.92394 17.52L14.5145 10.1655L20.1051 17.52L18.0279 20.7057ZM8.48553 17.1811L4.76942 15.9732L14.238 4.23568V9.61283L8.48553 17.1811ZM4.81724 16.5698L8.4117 17.7373L10.5184 20.9708L8.26075 24.0792L4.81724 16.5698ZM20.7717 24.0792L18.5141 20.9709L20.6207 17.7374L24.2152 16.5699L20.7717 24.0792Z" />
	</mask>
	<path d="M24.9403 15.9401L14.7273 3.28197C14.6242 3.15308 14.4033 3.15308 14.2965 3.28197L4.08749 15.9401C4.02129 16.0211 4.00644 16.1317 4.05057 16.2273L7.95084 24.7384C7.99497 24.8378 8.09438 24.9005 8.20121 24.9005H20.8224C20.9292 24.9005 21.0286 24.8378 21.0727 24.7384L24.973 16.2273C25.0174 16.1314 25.0064 16.0211 24.94 15.9401H24.9403ZM20.5429 17.1811L14.7902 9.61303V4.23588L24.2588 15.9734L20.5429 17.1811ZM10.9933 21.2545H18.0385L20.285 24.3482H8.7466L10.9933 21.2545ZM18.0279 20.7057H11.0011L8.92394 17.52L14.5145 10.1655L20.1051 17.52L18.0279 20.7057ZM8.48553 17.1811L4.76942 15.9732L14.238 4.23568V9.61283L8.48553 17.1811ZM4.81724 16.5698L8.4117 17.7373L10.5184 20.9708L8.26075 24.0792L4.81724 16.5698ZM20.7717 24.0792L18.5141 20.9709L20.6207 17.7374L24.2152 16.5699L20.7717 24.0792Z" fill="#444444" />
	<path d="M24.9403 15.9401L14.7273 3.28197C14.6242 3.15308 14.4033 3.15308 14.2965 3.28197L4.08749 15.9401C4.02129 16.0211 4.00644 16.1317 4.05057 16.2273L7.95084 24.7384C7.99497 24.8378 8.09438 24.9005 8.20121 24.9005H20.8224C20.9292 24.9005 21.0286 24.8378 21.0727 24.7384L24.973 16.2273C25.0174 16.1314 25.0064 16.0211 24.94 15.9401H24.9403ZM20.5429 17.1811L14.7902 9.61303V4.23588L24.2588 15.9734L20.5429 17.1811ZM10.9933 21.2545H18.0385L20.285 24.3482H8.7466L10.9933 21.2545ZM18.0279 20.7057H11.0011L8.92394 17.52L14.5145 10.1655L20.1051 17.52L18.0279 20.7057ZM8.48553 17.1811L4.76942 15.9732L14.238 4.23568V9.61283L8.48553 17.1811ZM4.81724 16.5698L8.4117 17.7373L10.5184 20.9708L8.26075 24.0792L4.81724 16.5698ZM20.7717 24.0792L18.5141 20.9709L20.6207 17.7374L24.2152 16.5699L20.7717 24.0792Z" stroke="#444444" stroke-width="0.4" stroke-linejoin="round" mask="url(#path-1-outside-1_1529_358832)" />
</svg>