<svg width="29" height="29" viewBox="0 0 29 29" fill="none" xmlns="http://www.w3.org/2000/svg">
	<mask id="path-1-outside-1_1529_358729" maskUnits="userSpaceOnUse" x="4.00098" y="0" width="21" height="28" fill="black">
		<rect fill="white" x="4.00098" width="21" height="28" />
		<path d="M23.1368 12.52C23.6549 12.3474 24.0003 11.8724 24.0003 11.3109C24.0003 10.5769 23.4389 10.0154 22.7048 10.0154H6.29645C5.56243 10.0154 5.00098 10.5769 5.00098 11.3109C5.00098 11.8723 5.38953 12.3473 5.8645 12.52C5.99402 15.931 8.15304 18.8674 11.1756 20.1201L9.23253 23.5308C8.9735 23.4444 8.71447 23.4013 8.45545 23.4013C7.24641 23.4013 6.29645 24.3513 6.29645 25.5603C6.29645 26.7694 7.24641 27.7193 8.45545 27.7193C9.66449 27.7193 10.6144 26.7694 10.6144 25.5603C10.6144 25.4308 10.6144 25.2579 10.5714 25.1284H19.6823L21.0208 27.5034C21.3208 27.9528 22.0344 27.6627 21.7985 27.0715L17.826 20.1625C20.8482 18.8673 22.9642 15.9744 23.1368 12.52ZM6.29661 10.879H22.705C22.964 10.879 23.1369 11.0516 23.1369 11.311C23.1369 11.57 22.9643 11.7429 22.705 11.7429L6.29661 11.7426C6.03757 11.7426 5.86468 11.57 5.86468 11.3107C5.86468 11.0519 6.03727 10.879 6.29661 10.879ZM8.4556 26.8556C7.72158 26.8556 7.16013 26.2942 7.16013 25.5601C7.16013 24.8261 7.72156 24.2647 8.4556 24.2647C9.18962 24.2647 9.75108 24.8261 9.75108 25.5601C9.75078 26.2945 9.18965 26.8556 8.4556 26.8556ZM19.1642 24.265H10.1828C10.0964 24.1785 10.0533 24.0924 9.96684 24.0059L11.9963 20.4217C12.7737 20.681 13.6372 20.8106 14.5007 20.8106C15.3643 20.8106 16.2278 20.681 17.0052 20.422L19.1642 24.265ZM14.5008 19.947C10.3554 19.947 6.98741 16.7085 6.77159 12.6065H22.2732C22.0142 16.7085 18.6461 19.947 14.5008 19.947ZM14.1122 4.66128C14.5872 3.71132 14.5872 2.54539 14.1122 1.59535C14.0258 1.37939 14.1122 1.12036 14.2848 1.03392C14.5008 0.947474 14.7598 1.03392 14.8463 1.20651C15.4508 2.41555 15.4508 3.84048 14.8463 5.04952C14.3713 5.99948 14.3713 7.16542 14.8463 8.11545C15.0592 8.64737 14.374 8.98468 14.1122 8.46093C13.5077 7.2953 13.5077 5.82722 14.1122 4.66128ZM11.5213 4.66128C11.9963 3.71132 11.9963 2.54539 11.5213 1.59535C11.4348 1.37939 11.5213 1.12036 11.6939 1.03392C11.9098 0.947474 12.1689 1.03392 12.2553 1.20651C12.8598 2.41555 12.8598 3.84048 12.2553 5.04952C11.7803 5.99948 11.7803 7.16542 12.2553 8.11545C12.4683 8.64737 11.783 8.98468 11.5213 8.46093C10.9168 7.2953 10.9168 5.82722 11.5213 4.66128ZM16.7028 4.66128C17.1781 3.71132 17.1781 2.54539 16.7028 1.59535C16.617 1.37939 16.7028 1.12036 16.8754 1.03392C17.0914 0.947474 17.3504 1.03392 17.4368 1.20651C18.0413 2.41555 18.0413 3.84048 17.4368 5.04952C16.9618 5.99948 16.9618 7.16542 17.4368 8.11545C17.6498 8.64797 16.9646 8.98414 16.7028 8.46093C16.0983 7.2953 16.0983 5.82722 16.7028 4.66128Z" />
	</mask>
	<path d="M23.1368 12.52C23.6549 12.3474 24.0003 11.8724 24.0003 11.3109C24.0003 10.5769 23.4389 10.0154 22.7048 10.0154H6.29645C5.56243 10.0154 5.00098 10.5769 5.00098 11.3109C5.00098 11.8723 5.38953 12.3473 5.8645 12.52C5.99402 15.931 8.15304 18.8674 11.1756 20.1201L9.23253 23.5308C8.9735 23.4444 8.71447 23.4013 8.45545 23.4013C7.24641 23.4013 6.29645 24.3513 6.29645 25.5603C6.29645 26.7694 7.24641 27.7193 8.45545 27.7193C9.66449 27.7193 10.6144 26.7694 10.6144 25.5603C10.6144 25.4308 10.6144 25.2579 10.5714 25.1284H19.6823L21.0208 27.5034C21.3208 27.9528 22.0344 27.6627 21.7985 27.0715L17.826 20.1625C20.8482 18.8673 22.9642 15.9744 23.1368 12.52ZM6.29661 10.879H22.705C22.964 10.879 23.1369 11.0516 23.1369 11.311C23.1369 11.57 22.9643 11.7429 22.705 11.7429L6.29661 11.7426C6.03757 11.7426 5.86468 11.57 5.86468 11.3107C5.86468 11.0519 6.03727 10.879 6.29661 10.879ZM8.4556 26.8556C7.72158 26.8556 7.16013 26.2942 7.16013 25.5601C7.16013 24.8261 7.72156 24.2647 8.4556 24.2647C9.18962 24.2647 9.75108 24.8261 9.75108 25.5601C9.75078 26.2945 9.18965 26.8556 8.4556 26.8556ZM19.1642 24.265H10.1828C10.0964 24.1785 10.0533 24.0924 9.96684 24.0059L11.9963 20.4217C12.7737 20.681 13.6372 20.8106 14.5007 20.8106C15.3643 20.8106 16.2278 20.681 17.0052 20.422L19.1642 24.265ZM14.5008 19.947C10.3554 19.947 6.98741 16.7085 6.77159 12.6065H22.2732C22.0142 16.7085 18.6461 19.947 14.5008 19.947ZM14.1122 4.66128C14.5872 3.71132 14.5872 2.54539 14.1122 1.59535C14.0258 1.37939 14.1122 1.12036 14.2848 1.03392C14.5008 0.947474 14.7598 1.03392 14.8463 1.20651C15.4508 2.41555 15.4508 3.84048 14.8463 5.04952C14.3713 5.99948 14.3713 7.16542 14.8463 8.11545C15.0592 8.64737 14.374 8.98468 14.1122 8.46093C13.5077 7.2953 13.5077 5.82722 14.1122 4.66128ZM11.5213 4.66128C11.9963 3.71132 11.9963 2.54539 11.5213 1.59535C11.4348 1.37939 11.5213 1.12036 11.6939 1.03392C11.9098 0.947474 12.1689 1.03392 12.2553 1.20651C12.8598 2.41555 12.8598 3.84048 12.2553 5.04952C11.7803 5.99948 11.7803 7.16542 12.2553 8.11545C12.4683 8.64737 11.783 8.98468 11.5213 8.46093C10.9168 7.2953 10.9168 5.82722 11.5213 4.66128ZM16.7028 4.66128C17.1781 3.71132 17.1781 2.54539 16.7028 1.59535C16.617 1.37939 16.7028 1.12036 16.8754 1.03392C17.0914 0.947474 17.3504 1.03392 17.4368 1.20651C18.0413 2.41555 18.0413 3.84048 17.4368 5.04952C16.9618 5.99948 16.9618 7.16542 17.4368 8.11545C17.6498 8.64797 16.9646 8.98414 16.7028 8.46093C16.0983 7.2953 16.0983 5.82722 16.7028 4.66128Z" fill="#444444" />
	<path d="M23.1368 12.52C23.6549 12.3474 24.0003 11.8724 24.0003 11.3109C24.0003 10.5769 23.4389 10.0154 22.7048 10.0154H6.29645C5.56243 10.0154 5.00098 10.5769 5.00098 11.3109C5.00098 11.8723 5.38953 12.3473 5.8645 12.52C5.99402 15.931 8.15304 18.8674 11.1756 20.1201L9.23253 23.5308C8.9735 23.4444 8.71447 23.4013 8.45545 23.4013C7.24641 23.4013 6.29645 24.3513 6.29645 25.5603C6.29645 26.7694 7.24641 27.7193 8.45545 27.7193C9.66449 27.7193 10.6144 26.7694 10.6144 25.5603C10.6144 25.4308 10.6144 25.2579 10.5714 25.1284H19.6823L21.0208 27.5034C21.3208 27.9528 22.0344 27.6627 21.7985 27.0715L17.826 20.1625C20.8482 18.8673 22.9642 15.9744 23.1368 12.52ZM6.29661 10.879H22.705C22.964 10.879 23.1369 11.0516 23.1369 11.311C23.1369 11.57 22.9643 11.7429 22.705 11.7429L6.29661 11.7426C6.03757 11.7426 5.86468 11.57 5.86468 11.3107C5.86468 11.0519 6.03727 10.879 6.29661 10.879ZM8.4556 26.8556C7.72158 26.8556 7.16013 26.2942 7.16013 25.5601C7.16013 24.8261 7.72156 24.2647 8.4556 24.2647C9.18962 24.2647 9.75108 24.8261 9.75108 25.5601C9.75078 26.2945 9.18965 26.8556 8.4556 26.8556ZM19.1642 24.265H10.1828C10.0964 24.1785 10.0533 24.0924 9.96684 24.0059L11.9963 20.4217C12.7737 20.681 13.6372 20.8106 14.5007 20.8106C15.3643 20.8106 16.2278 20.681 17.0052 20.422L19.1642 24.265ZM14.5008 19.947C10.3554 19.947 6.98741 16.7085 6.77159 12.6065H22.2732C22.0142 16.7085 18.6461 19.947 14.5008 19.947ZM14.1122 4.66128C14.5872 3.71132 14.5872 2.54539 14.1122 1.59535C14.0258 1.37939 14.1122 1.12036 14.2848 1.03392C14.5008 0.947474 14.7598 1.03392 14.8463 1.20651C15.4508 2.41555 15.4508 3.84048 14.8463 5.04952C14.3713 5.99948 14.3713 7.16542 14.8463 8.11545C15.0592 8.64737 14.374 8.98468 14.1122 8.46093C13.5077 7.2953 13.5077 5.82722 14.1122 4.66128ZM11.5213 4.66128C11.9963 3.71132 11.9963 2.54539 11.5213 1.59535C11.4348 1.37939 11.5213 1.12036 11.6939 1.03392C11.9098 0.947474 12.1689 1.03392 12.2553 1.20651C12.8598 2.41555 12.8598 3.84048 12.2553 5.04952C11.7803 5.99948 11.7803 7.16542 12.2553 8.11545C12.4683 8.64737 11.783 8.98468 11.5213 8.46093C10.9168 7.2953 10.9168 5.82722 11.5213 4.66128ZM16.7028 4.66128C17.1781 3.71132 17.1781 2.54539 16.7028 1.59535C16.617 1.37939 16.7028 1.12036 16.8754 1.03392C17.0914 0.947474 17.3504 1.03392 17.4368 1.20651C18.0413 2.41555 18.0413 3.84048 17.4368 5.04952C16.9618 5.99948 16.9618 7.16542 17.4368 8.11545C17.6498 8.64797 16.9646 8.98414 16.7028 8.46093C16.0983 7.2953 16.0983 5.82722 16.7028 4.66128Z" stroke="#444444" stroke-width="0.2" mask="url(#path-1-outside-1_1529_358729)" />
</svg>