<svg width="29" height="29" viewBox="0 0 29 29" fill="none" xmlns="http://www.w3.org/2000/svg">
	<path d="M22.6381 11.9026C23.0333 10.9885 23.2423 9.51275 22.5302 8.36212C21.977 7.46742 21.1204 6.86659 20.161 6.67559L20.2256 6.55044L20.2501 6.50325L20.2695 6.45399C21.0721 4.4209 20.071 2.11358 18.0378 1.31074C17.5634 1.12406 17.0421 1.02905 16.4887 1.02905C14.9107 1.02905 12.9888 1.85665 12.498 3.67393C12.3895 4.07536 12.2718 4.83871 12.1812 5.50224C11.7742 5.42324 11.3819 5.38353 11.0075 5.38353C9.50635 5.38353 8.28442 6.00991 7.47327 7.19481C6.24095 8.99549 6.70017 11.4618 8.49606 12.6991C8.55801 12.7432 8.61996 12.7885 8.68212 12.8341C7.21405 13.1858 6.11914 14.5092 6.11914 16.0837C6.11914 16.2433 6.13141 16.4032 6.15614 16.5682C6.15074 18.5211 7.97971 20.2386 10.3789 20.5059C10.3887 20.5072 10.3982 20.508 10.408 20.5093C10.8181 21.9198 12.1594 23.0315 13.8445 23.2192C13.9262 23.2284 14.0083 23.2352 14.0906 23.2398C14.4097 24.5944 14.8265 26.0157 15.3573 27.5041C15.4333 27.7178 15.6344 27.8511 15.8489 27.8511C15.9071 27.8511 15.9664 27.8413 16.0241 27.8207C16.2956 27.7238 16.4372 27.4253 16.3405 27.1538C15.845 25.7635 15.4533 24.4362 15.1481 23.1687C16.748 22.8644 17.9889 21.6778 18.1781 20.164L19.3615 20.2064L19.453 20.2097L19.5432 20.1972C21.4258 19.9339 22.7434 18.1876 22.4802 16.3048C22.3062 15.0606 21.468 14.0414 20.359 13.588L21.0456 13.4271C21.7096 13.2834 22.275 12.7431 22.6382 11.9027L22.6381 11.9026ZM18.1335 13.0364C18.1335 13.0364 16.9078 14.1957 18.4646 14.4366L18.7318 14.4011C18.8447 14.3853 18.9567 14.3776 19.0679 14.3776C20.2479 14.3776 21.2775 15.247 21.4459 16.4485C21.6299 17.7636 20.7131 18.9784 19.3982 19.1622L17.4182 19.0915L17.0725 19.1649C17.1481 19.4343 17.1774 19.7168 17.1452 20.005C17.0228 21.1017 16.0977 21.9399 14.9178 22.1499C14.6716 20.9741 14.5028 19.8549 14.3977 18.7901C14.6733 18.3305 15.6824 17.0094 18.2252 16.8843C18.4555 16.873 18.6333 16.6772 18.6218 16.4467C18.6106 16.2163 18.4123 16.0382 18.184 16.05C16.1798 16.1488 14.9799 16.9098 14.3035 17.5792C14.223 16.1467 14.259 14.8219 14.3798 13.6064C15.4803 11.4456 17.145 10.7424 18.3801 10.5407C18.6077 10.5035 18.7622 10.289 18.7249 10.0612C18.6877 9.83353 18.4732 9.67886 18.2458 9.71628C17.1617 9.89339 15.7936 10.4031 14.6478 11.7138C14.9529 10.0608 15.4063 8.65107 15.8955 7.48799C16.0073 7.2221 15.8824 6.91611 15.6165 6.80424C15.3504 6.6924 15.0448 6.81734 14.9327 7.08322C14.4317 8.2752 13.9659 9.71293 13.6459 11.3927C13.168 10.2607 12.5119 9.57952 11.9496 9.17809C11.7619 9.04401 11.501 9.08746 11.3669 9.27559C11.2328 9.46331 11.2763 9.7242 11.4644 9.85827C12.1587 10.3539 13.0266 11.3723 13.3478 13.4322C13.2346 14.5394 13.189 15.7328 13.2323 17.0115C12.4537 16.2956 11.5201 15.8804 10.9269 15.6705C10.7098 15.5936 10.471 15.7075 10.3936 15.9249C10.3167 16.1422 10.4306 16.3808 10.6481 16.4582C11.3617 16.7109 12.6364 17.2966 13.3135 18.4041C13.4112 19.5905 13.5869 20.8447 13.8553 22.166C12.3533 21.9521 11.2557 20.7856 11.3241 19.486C11.2171 19.4931 11.109 19.4968 10.9998 19.4968C10.8333 19.4968 10.6645 19.4881 10.4932 19.4692C8.57633 19.2555 7.14237 17.9406 7.2008 16.494C7.17669 16.3607 7.16234 16.2243 7.16234 16.0842C7.16234 14.8155 8.19073 13.7871 9.45944 13.7871C9.72969 13.7871 9.98788 13.8364 10.229 13.9218C10.297 13.9376 10.3569 13.9447 10.4097 13.9447C10.9229 13.9447 10.7662 13.2637 10.7157 13.1969C10.398 12.7751 9.09503 11.8442 9.09503 11.8442C7.76416 10.9331 7.42346 9.11617 8.33439 7.78493C8.93373 6.90912 9.8305 6.42808 11.0072 6.42808C11.6187 6.42808 12.3056 6.55821 13.0656 6.83013C13.0656 6.83013 13.3153 4.65048 13.5055 3.94635C13.8256 2.76119 15.192 2.07334 16.4884 2.07356C16.8953 2.07356 17.2954 2.14153 17.6542 2.2831C19.1545 2.87558 19.89 4.57169 19.2982 6.07158L18.3132 7.97684C18.6947 7.75773 19.099 7.65462 19.4969 7.65462C20.3397 7.65462 21.1506 8.11695 21.6422 8.91168C22.3802 10.1043 21.6931 12.2293 20.818 12.4073L18.1335 13.0364Z" fill="#444444" />
</svg>