<svg width="29" height="29" viewBox="0 0 29 29" fill="none" xmlns="http://www.w3.org/2000/svg">
	<mask id="path-1-outside-1_1529_358785" maskUnits="userSpaceOnUse" x="1.4043" y="5.30334" width="26" height="5" fill="black">
		<rect fill="white" x="1.4043" y="5.30334" width="26" height="5" />
		<path d="M25.9177 10.0887H3.08094C2.70829 10.0887 2.4043 9.78472 2.4043 9.41208V6.97999C2.4043 6.60733 2.7083 6.30334 3.08094 6.30334H25.9141C26.29 6.30334 26.594 6.60735 26.594 6.97999V9.41208C26.594 9.78474 26.29 10.0887 25.9174 10.0887H25.9177ZM3.08094 6.9571C3.06787 6.9571 3.05806 6.9669 3.05806 6.97998V9.41207C3.05806 9.42515 3.06787 9.43495 3.08094 9.43495H25.9177C25.9308 9.43495 25.9406 9.42515 25.9406 9.41207V6.97998C25.9406 6.9669 25.9308 6.9571 25.9144 6.9571H3.08094Z" />
	</mask>
	<path d="M25.9177 10.0887H3.08094C2.70829 10.0887 2.4043 9.78472 2.4043 9.41208V6.97999C2.4043 6.60733 2.7083 6.30334 3.08094 6.30334H25.9141C26.29 6.30334 26.594 6.60735 26.594 6.97999V9.41208C26.594 9.78474 26.29 10.0887 25.9174 10.0887H25.9177ZM3.08094 6.9571C3.06787 6.9571 3.05806 6.9669 3.05806 6.97998V9.41207C3.05806 9.42515 3.06787 9.43495 3.08094 9.43495H25.9177C25.9308 9.43495 25.9406 9.42515 25.9406 9.41207V6.97998C25.9406 6.9669 25.9308 6.9571 25.9144 6.9571H3.08094Z" fill="#444444" />
	<path d="M25.9177 10.0887H3.08094C2.70829 10.0887 2.4043 9.78472 2.4043 9.41208V6.97999C2.4043 6.60733 2.7083 6.30334 3.08094 6.30334H25.9141C26.29 6.30334 26.594 6.60735 26.594 6.97999V9.41208C26.594 9.78474 26.29 10.0887 25.9174 10.0887H25.9177ZM3.08094 6.9571C3.06787 6.9571 3.05806 6.9669 3.05806 6.97998V9.41207C3.05806 9.42515 3.06787 9.43495 3.08094 9.43495H25.9177C25.9308 9.43495 25.9406 9.42515 25.9406 9.41207V6.97998C25.9406 6.9669 25.9308 6.9571 25.9144 6.9571H3.08094Z" stroke="#444444" stroke-width="0.2" mask="url(#path-1-outside-1_1529_358785)" />
	<mask id="path-2-outside-2_1529_358785" maskUnits="userSpaceOnUse" x="1.4043" y="9.7428" width="26" height="5" fill="black">
		<rect fill="white" x="1.4043" y="9.7428" width="26" height="5" />
		<path d="M25.9177 14.5282H3.08094C2.70829 14.5282 2.4043 14.2242 2.4043 13.8515V11.4194C2.4043 11.0468 2.7083 10.7428 3.08094 10.7428H25.9141C26.29 10.7428 26.594 11.0468 26.594 11.4194V13.8515C26.594 14.2242 26.29 14.5282 25.9174 14.5282H25.9177ZM3.08094 11.3965C3.06787 11.3965 3.05806 11.4064 3.05806 11.4194V13.8515C3.05806 13.8646 3.06787 13.8744 3.08094 13.8744H25.9177C25.9308 13.8744 25.9406 13.8646 25.9406 13.8515V11.4194C25.9406 11.4064 25.9308 11.3965 25.9144 11.3965H3.08094Z" />
	</mask>
	<path d="M25.9177 14.5282H3.08094C2.70829 14.5282 2.4043 14.2242 2.4043 13.8515V11.4194C2.4043 11.0468 2.7083 10.7428 3.08094 10.7428H25.9141C26.29 10.7428 26.594 11.0468 26.594 11.4194V13.8515C26.594 14.2242 26.29 14.5282 25.9174 14.5282H25.9177ZM3.08094 11.3965C3.06787 11.3965 3.05806 11.4064 3.05806 11.4194V13.8515C3.05806 13.8646 3.06787 13.8744 3.08094 13.8744H25.9177C25.9308 13.8744 25.9406 13.8646 25.9406 13.8515V11.4194C25.9406 11.4064 25.9308 11.3965 25.9144 11.3965H3.08094Z" fill="#444444" />
	<path d="M25.9177 14.5282H3.08094C2.70829 14.5282 2.4043 14.2242 2.4043 13.8515V11.4194C2.4043 11.0468 2.7083 10.7428 3.08094 10.7428H25.9141C26.29 10.7428 26.594 11.0468 26.594 11.4194V13.8515C26.594 14.2242 26.29 14.5282 25.9174 14.5282H25.9177ZM3.08094 11.3965C3.06787 11.3965 3.05806 11.4064 3.05806 11.4194V13.8515C3.05806 13.8646 3.06787 13.8744 3.08094 13.8744H25.9177C25.9308 13.8744 25.9406 13.8646 25.9406 13.8515V11.4194C25.9406 11.4064 25.9308 11.3965 25.9144 11.3965H3.08094Z" stroke="#444444" stroke-width="0.2" mask="url(#path-2-outside-2_1529_358785)" />
	<mask id="path-3-outside-3_1529_358785" maskUnits="userSpaceOnUse" x="-0.000976562" y="14.9269" width="29" height="5" fill="black">
		<rect fill="white" x="-0.000976562" y="14.9269" width="29" height="5" />
		<path d="M27.4772 18.8427H1.52205C1.23438 18.8427 0.999023 18.6074 0.999023 18.3197V16.4499C0.999023 16.1622 1.23438 15.9269 1.52205 15.9269H27.4772C27.7649 15.9269 28.0002 16.1622 28.0002 16.4499V18.3197C28.0002 18.6074 27.7649 18.8427 27.4772 18.8427ZM1.65295 18.1889H27.3463V16.5806H1.65295V18.1889Z" />
	</mask>
	<path d="M27.4772 18.8427H1.52205C1.23438 18.8427 0.999023 18.6074 0.999023 18.3197V16.4499C0.999023 16.1622 1.23438 15.9269 1.52205 15.9269H27.4772C27.7649 15.9269 28.0002 16.1622 28.0002 16.4499V18.3197C28.0002 18.6074 27.7649 18.8427 27.4772 18.8427ZM1.65295 18.1889H27.3463V16.5806H1.65295V18.1889Z" fill="#444444" />
	<path d="M27.4772 18.8427H1.52205C1.23438 18.8427 0.999023 18.6074 0.999023 18.3197V16.4499C0.999023 16.1622 1.23438 15.9269 1.52205 15.9269H27.4772C27.7649 15.9269 28.0002 16.1622 28.0002 16.4499V18.3197C28.0002 18.6074 27.7649 18.8427 27.4772 18.8427ZM1.65295 18.1889H27.3463V16.5806H1.65295V18.1889Z" stroke="#444444" stroke-width="0.2" mask="url(#path-3-outside-3_1529_358785)" />
	<mask id="path-4-outside-4_1529_358785" maskUnits="userSpaceOnUse" x="5.6543" y="3.95691" width="4" height="4" fill="black">
		<rect fill="white" x="5.6543" y="3.95691" width="4" height="4" />
		<path d="M8.83468 6.95422H6.6543V5.42436C6.6543 5.16612 6.86351 4.95691 7.12175 4.95691H8.36392C8.62216 4.95691 8.83464 5.16612 8.83464 5.42436L8.83468 6.95422ZM7.30811 6.30041H8.18093V5.61068H7.30811V6.30041Z" />
	</mask>
	<path d="M8.83468 6.95422H6.6543V5.42436C6.6543 5.16612 6.86351 4.95691 7.12175 4.95691H8.36392C8.62216 4.95691 8.83464 5.16612 8.83464 5.42436L8.83468 6.95422ZM7.30811 6.30041H8.18093V5.61068H7.30811V6.30041Z" fill="#444444" />
	<path d="M8.83468 6.95422H6.6543V5.42436C6.6543 5.16612 6.86351 4.95691 7.12175 4.95691H8.36392C8.62216 4.95691 8.83464 5.16612 8.83464 5.42436L8.83468 6.95422ZM7.30811 6.30041H8.18093V5.61068H7.30811V6.30041Z" stroke="#444444" stroke-width="0.2" mask="url(#path-4-outside-4_1529_358785)" />
	<mask id="path-5-outside-5_1529_358785" maskUnits="userSpaceOnUse" x="5.6543" y="12.8744" width="4" height="4" fill="black">
		<rect fill="white" x="5.6543" y="12.8744" width="4" height="4" />
		<path d="M8.83468 16.5778H6.6543V13.8744H8.83468V16.5778ZM7.30811 15.924H8.18093V14.5281H7.30811V15.924Z" />
	</mask>
	<path d="M8.83468 16.5778H6.6543V13.8744H8.83468V16.5778ZM7.30811 15.924H8.18093V14.5281H7.30811V15.924Z" fill="#444444" />
	<path d="M8.83468 16.5778H6.6543V13.8744H8.83468V16.5778ZM7.30811 15.924H8.18093V14.5281H7.30811V15.924Z" stroke="#444444" stroke-width="0.2" mask="url(#path-5-outside-5_1529_358785)" />
	<mask id="path-6-outside-6_1529_358785" maskUnits="userSpaceOnUse" x="19.1641" y="3.95691" width="4" height="4" fill="black">
		<rect fill="white" x="19.1641" y="3.95691" width="4" height="4" />
		<path d="M22.3444 6.95422H20.1641V5.42436C20.1641 5.16612 20.3733 4.95691 20.6315 4.95691H21.8737C22.1319 4.95691 22.3444 5.16612 22.3444 5.42436L22.3444 6.95422ZM20.8179 6.30041H21.6907V5.61068H20.8179V6.30041Z" />
	</mask>
	<path d="M22.3444 6.95422H20.1641V5.42436C20.1641 5.16612 20.3733 4.95691 20.6315 4.95691H21.8737C22.1319 4.95691 22.3444 5.16612 22.3444 5.42436L22.3444 6.95422ZM20.8179 6.30041H21.6907V5.61068H20.8179V6.30041Z" fill="#444444" />
	<path d="M22.3444 6.95422H20.1641V5.42436C20.1641 5.16612 20.3733 4.95691 20.6315 4.95691H21.8737C22.1319 4.95691 22.3444 5.16612 22.3444 5.42436L22.3444 6.95422ZM20.8179 6.30041H21.6907V5.61068H20.8179V6.30041Z" stroke="#444444" stroke-width="0.2" mask="url(#path-6-outside-6_1529_358785)" />
	<mask id="path-7-outside-7_1529_358785" maskUnits="userSpaceOnUse" x="19.1641" y="12.8744" width="4" height="4" fill="black">
		<rect fill="white" x="19.1641" y="12.8744" width="4" height="4" />
		<path d="M22.3444 16.5778H20.1641V13.8744H22.3444V16.5778ZM20.8179 15.924H21.6907V14.5281H20.8179V15.924Z" />
	</mask>
	<path d="M22.3444 16.5778H20.1641V13.8744H22.3444V16.5778ZM20.8179 15.924H21.6907V14.5281H20.8179V15.924Z" fill="#444444" />
	<path d="M22.3444 16.5778H20.1641V13.8744H22.3444V16.5778ZM20.8179 15.924H21.6907V14.5281H20.8179V15.924Z" stroke="#444444" stroke-width="0.2" mask="url(#path-7-outside-7_1529_358785)" />
	<mask id="path-8-outside-8_1529_358785" maskUnits="userSpaceOnUse" x="1.4043" y="17.1926" width="6" height="8" fill="black">
		<rect fill="white" x="1.4043" y="17.1926" width="6" height="8" />
		<path d="M3.84979 24.2433H2.80046C2.68277 24.2433 2.5749 24.1943 2.49972 24.1061C2.42781 24.0211 2.39185 23.9067 2.40819 23.7955L3.08813 18.1926H6.32759L4.2224 23.9851C4.16356 24.1387 4.01319 24.2434 3.84974 24.2434L3.84979 24.2433ZM3.09138 23.5895H3.66997L5.39267 18.8463H3.6634L3.09138 23.5895Z" />
	</mask>
	<path d="M3.84979 24.2433H2.80046C2.68277 24.2433 2.5749 24.1943 2.49972 24.1061C2.42781 24.0211 2.39185 23.9067 2.40819 23.7955L3.08813 18.1926H6.32759L4.2224 23.9851C4.16356 24.1387 4.01319 24.2434 3.84974 24.2434L3.84979 24.2433ZM3.09138 23.5895H3.66997L5.39267 18.8463H3.6634L3.09138 23.5895Z" fill="#444444" />
	<path d="M3.84979 24.2433H2.80046C2.68277 24.2433 2.5749 24.1943 2.49972 24.1061C2.42781 24.0211 2.39185 23.9067 2.40819 23.7955L3.08813 18.1926H6.32759L4.2224 23.9851C4.16356 24.1387 4.01319 24.2434 3.84974 24.2434L3.84979 24.2433ZM3.09138 23.5895H3.66997L5.39267 18.8463H3.6634L3.09138 23.5895Z" stroke="#444444" stroke-width="0.2" mask="url(#path-8-outside-8_1529_358785)" />
	<mask id="path-9-outside-9_1529_358785" maskUnits="userSpaceOnUse" x="21.668" y="17.1926" width="6" height="8" fill="black">
		<rect fill="white" x="21.668" y="17.1926" width="6" height="8" />
		<path d="M26.1952 24.2434H25.1458C24.9824 24.2434 24.832 24.1387 24.7732 23.9851L22.668 18.1926H25.9074L26.5939 23.8119C26.6037 23.923 26.5645 24.0342 26.4893 24.1159C26.4141 24.1976 26.3062 24.2434 26.1951 24.2434L26.1952 24.2434ZM25.3256 23.5895H25.9075L25.3289 18.8463H23.5996L25.3256 23.5895Z" />
	</mask>
	<path d="M26.1952 24.2434H25.1458C24.9824 24.2434 24.832 24.1387 24.7732 23.9851L22.668 18.1926H25.9074L26.5939 23.8119C26.6037 23.923 26.5645 24.0342 26.4893 24.1159C26.4141 24.1976 26.3062 24.2434 26.1951 24.2434L26.1952 24.2434ZM25.3256 23.5895H25.9075L25.3289 18.8463H23.5996L25.3256 23.5895Z" fill="#444444" />
	<path d="M26.1952 24.2434H25.1458C24.9824 24.2434 24.832 24.1387 24.7732 23.9851L22.668 18.1926H25.9074L26.5939 23.8119C26.6037 23.923 26.5645 24.0342 26.4893 24.1159C26.4141 24.1976 26.3062 24.2434 26.1951 24.2434L26.1952 24.2434ZM25.3256 23.5895H25.9075L25.3289 18.8463H23.5996L25.3256 23.5895Z" stroke="#444444" stroke-width="0.2" mask="url(#path-9-outside-9_1529_358785)" />
</svg>