<svg width="29" height="29" viewBox="0 0 29 29" fill="none" xmlns="http://www.w3.org/2000/svg">
	<mask id="path-1-outside-1_1529_358723" maskUnits="userSpaceOnUse" x="2.60254" y="1" width="23" height="25" fill="black">
		<rect fill="white" x="2.60254" y="1" width="23" height="25" />
		<path d="M3.95404 2H25.0449C25.2389 2 25.3964 2.1573 25.3964 2.3515V24.8485C25.3964 25.0427 25.2389 25.1999 25.0449 25.1999H3.95404C3.76 25.1999 3.60254 25.0427 3.60254 24.8485V2.3515C3.60254 2.1573 3.76 2 3.95404 2V2ZM4.30553 2.703V24.4969H24.6934V2.703H4.30553ZM10.9842 4.81213H22.2329C22.427 4.81213 22.5844 4.96943 22.5844 5.16363V22.0362C22.5844 22.2304 22.427 22.3877 22.2329 22.3877H10.9842C10.79 22.3877 10.6327 22.2304 10.6327 22.0362V5.16363C10.6327 4.96943 10.79 4.81213 10.9842 4.81213ZM11.3357 5.51513V21.6847H21.8814V5.51513H11.3357ZM7.11747 13.2134C6.31529 13.0504 5.71147 12.3413 5.71147 11.4909C5.71147 10.5202 6.49828 9.73339 7.46912 9.73339C8.43979 9.73339 9.2266 10.5202 9.2266 11.4909C9.2266 12.3413 8.62282 13.0504 7.8206 13.2134V16.4121C7.8206 16.6063 7.66314 16.7636 7.4691 16.7636C7.2749 16.7636 7.11744 16.6063 7.11744 16.4121L7.11747 13.2134ZM7.46913 12.5455C8.05141 12.5455 8.52361 12.0733 8.52361 11.4909C8.52361 10.9084 8.05141 10.4364 7.46913 10.4364C6.88669 10.4364 6.41448 10.9085 6.41448 11.4909C6.41448 12.0733 6.88669 12.5455 7.46913 12.5455ZM17.4145 10.5393C17.5517 10.4021 17.7744 10.4021 17.9116 10.5393C18.0488 10.6765 18.0488 10.8992 17.9116 11.0364L14.3965 14.5516C14.2593 14.6888 14.0366 14.6888 13.8993 14.5516C13.7621 14.4143 13.7621 14.1918 13.8993 14.0544L17.4145 10.5393ZM18.4691 13.3514C18.6064 13.2142 18.8289 13.2142 18.9661 13.3514C19.1035 13.4887 19.1035 13.7113 18.9661 13.8486L16.8571 15.9577C16.7197 16.0949 16.4972 16.0949 16.36 15.9577C16.2228 15.8203 16.2228 15.5978 16.36 15.4606L18.4691 13.3514Z" />
	</mask>
	<path d="M3.95404 2H25.0449C25.2389 2 25.3964 2.1573 25.3964 2.3515V24.8485C25.3964 25.0427 25.2389 25.1999 25.0449 25.1999H3.95404C3.76 25.1999 3.60254 25.0427 3.60254 24.8485V2.3515C3.60254 2.1573 3.76 2 3.95404 2V2ZM4.30553 2.703V24.4969H24.6934V2.703H4.30553ZM10.9842 4.81213H22.2329C22.427 4.81213 22.5844 4.96943 22.5844 5.16363V22.0362C22.5844 22.2304 22.427 22.3877 22.2329 22.3877H10.9842C10.79 22.3877 10.6327 22.2304 10.6327 22.0362V5.16363C10.6327 4.96943 10.79 4.81213 10.9842 4.81213ZM11.3357 5.51513V21.6847H21.8814V5.51513H11.3357ZM7.11747 13.2134C6.31529 13.0504 5.71147 12.3413 5.71147 11.4909C5.71147 10.5202 6.49828 9.73339 7.46912 9.73339C8.43979 9.73339 9.2266 10.5202 9.2266 11.4909C9.2266 12.3413 8.62282 13.0504 7.8206 13.2134V16.4121C7.8206 16.6063 7.66314 16.7636 7.4691 16.7636C7.2749 16.7636 7.11744 16.6063 7.11744 16.4121L7.11747 13.2134ZM7.46913 12.5455C8.05141 12.5455 8.52361 12.0733 8.52361 11.4909C8.52361 10.9084 8.05141 10.4364 7.46913 10.4364C6.88669 10.4364 6.41448 10.9085 6.41448 11.4909C6.41448 12.0733 6.88669 12.5455 7.46913 12.5455ZM17.4145 10.5393C17.5517 10.4021 17.7744 10.4021 17.9116 10.5393C18.0488 10.6765 18.0488 10.8992 17.9116 11.0364L14.3965 14.5516C14.2593 14.6888 14.0366 14.6888 13.8993 14.5516C13.7621 14.4143 13.7621 14.1918 13.8993 14.0544L17.4145 10.5393ZM18.4691 13.3514C18.6064 13.2142 18.8289 13.2142 18.9661 13.3514C19.1035 13.4887 19.1035 13.7113 18.9661 13.8486L16.8571 15.9577C16.7197 16.0949 16.4972 16.0949 16.36 15.9577C16.2228 15.8203 16.2228 15.5978 16.36 15.4606L18.4691 13.3514Z" fill="#444444" />
	<path d="M3.95404 2H25.0449C25.2389 2 25.3964 2.1573 25.3964 2.3515V24.8485C25.3964 25.0427 25.2389 25.1999 25.0449 25.1999H3.95404C3.76 25.1999 3.60254 25.0427 3.60254 24.8485V2.3515C3.60254 2.1573 3.76 2 3.95404 2V2ZM4.30553 2.703V24.4969H24.6934V2.703H4.30553ZM10.9842 4.81213H22.2329C22.427 4.81213 22.5844 4.96943 22.5844 5.16363V22.0362C22.5844 22.2304 22.427 22.3877 22.2329 22.3877H10.9842C10.79 22.3877 10.6327 22.2304 10.6327 22.0362V5.16363C10.6327 4.96943 10.79 4.81213 10.9842 4.81213ZM11.3357 5.51513V21.6847H21.8814V5.51513H11.3357ZM7.11747 13.2134C6.31529 13.0504 5.71147 12.3413 5.71147 11.4909C5.71147 10.5202 6.49828 9.73339 7.46912 9.73339C8.43979 9.73339 9.2266 10.5202 9.2266 11.4909C9.2266 12.3413 8.62282 13.0504 7.8206 13.2134V16.4121C7.8206 16.6063 7.66314 16.7636 7.4691 16.7636C7.2749 16.7636 7.11744 16.6063 7.11744 16.4121L7.11747 13.2134ZM7.46913 12.5455C8.05141 12.5455 8.52361 12.0733 8.52361 11.4909C8.52361 10.9084 8.05141 10.4364 7.46913 10.4364C6.88669 10.4364 6.41448 10.9085 6.41448 11.4909C6.41448 12.0733 6.88669 12.5455 7.46913 12.5455ZM17.4145 10.5393C17.5517 10.4021 17.7744 10.4021 17.9116 10.5393C18.0488 10.6765 18.0488 10.8992 17.9116 11.0364L14.3965 14.5516C14.2593 14.6888 14.0366 14.6888 13.8993 14.5516C13.7621 14.4143 13.7621 14.1918 13.8993 14.0544L17.4145 10.5393ZM18.4691 13.3514C18.6064 13.2142 18.8289 13.2142 18.9661 13.3514C19.1035 13.4887 19.1035 13.7113 18.9661 13.8486L16.8571 15.9577C16.7197 16.0949 16.4972 16.0949 16.36 15.9577C16.2228 15.8203 16.2228 15.5978 16.36 15.4606L18.4691 13.3514Z" stroke="#444444" stroke-width="0.4" mask="url(#path-1-outside-1_1529_358723)" />
</svg>