<svg width="29" height="29" viewBox="0 0 29 29" fill="none" xmlns="http://www.w3.org/2000/svg">
	<mask id="path-1-outside-1_1529_358867" maskUnits="userSpaceOnUse" x="18.7842" y="17.8" width="6" height="6" fill="black">
		<rect fill="white" x="18.7842" y="17.8" width="6" height="6" />
		<path d="M21.6574 18.8C20.6246 18.8 19.7842 19.6395 19.7842 20.6715C19.7842 21.7055 20.6245 22.5466 21.6574 22.5466C22.6896 22.5466 23.5291 21.7055 23.5291 20.6715C23.5291 19.6395 22.6897 18.8 21.6574 18.8ZM21.6574 22.2716C20.7759 22.2716 20.0589 21.5535 20.0589 20.6712C20.0589 19.791 20.7763 19.0746 21.6574 19.0746C22.538 19.0746 23.2544 19.7909 23.2544 20.6712C23.2544 21.5537 22.538 22.2716 21.6574 22.2716Z" />
	</mask>
	<path d="M21.6574 18.8C20.6246 18.8 19.7842 19.6395 19.7842 20.6715C19.7842 21.7055 20.6245 22.5466 21.6574 22.5466C22.6896 22.5466 23.5291 21.7055 23.5291 20.6715C23.5291 19.6395 22.6897 18.8 21.6574 18.8ZM21.6574 22.2716C20.7759 22.2716 20.0589 21.5535 20.0589 20.6712C20.0589 19.791 20.7763 19.0746 21.6574 19.0746C22.538 19.0746 23.2544 19.7909 23.2544 20.6712C23.2544 21.5537 22.538 22.2716 21.6574 22.2716Z" fill="#444444" />
	<path d="M21.6574 18.8C20.6246 18.8 19.7842 19.6395 19.7842 20.6715C19.7842 21.7055 20.6245 22.5466 21.6574 22.5466C22.6896 22.5466 23.5291 21.7055 23.5291 20.6715C23.5291 19.6395 22.6897 18.8 21.6574 18.8ZM21.6574 22.2716C20.7759 22.2716 20.0589 21.5535 20.0589 20.6712C20.0589 19.791 20.7763 19.0746 21.6574 19.0746C22.538 19.0746 23.2544 19.7909 23.2544 20.6712C23.2544 21.5537 22.538 22.2716 21.6574 22.2716Z" stroke="#444444" stroke-width="0.6" mask="url(#path-1-outside-1_1529_358867)" />
	<mask id="path-2-outside-2_1529_358867" maskUnits="userSpaceOnUse" x="15.3135" y="14.3278" width="12" height="12" fill="black">
		<rect fill="white" x="15.3135" y="14.3278" width="12" height="12" />
		<path d="M21.6569 15.3278C18.7105 15.3278 16.3135 17.7251 16.3135 20.6712C16.3135 23.6173 18.7106 26.0146 21.6569 26.0146C24.6026 26.0148 26.9994 23.6175 26.9994 20.6712C26.9994 17.7248 24.6028 15.3278 21.6569 15.3278ZM21.6569 25.7403C18.8618 25.7403 16.5883 23.4666 16.5883 20.6717C16.5883 17.8766 18.862 15.6031 21.6569 15.6031C24.4513 15.6031 26.7245 17.8768 26.7245 20.6717C26.7245 23.4668 24.4515 25.7403 21.6569 25.7403Z" />
	</mask>
	<path d="M21.6569 15.3278C18.7105 15.3278 16.3135 17.7251 16.3135 20.6712C16.3135 23.6173 18.7106 26.0146 21.6569 26.0146C24.6026 26.0148 26.9994 23.6175 26.9994 20.6712C26.9994 17.7248 24.6028 15.3278 21.6569 15.3278ZM21.6569 25.7403C18.8618 25.7403 16.5883 23.4666 16.5883 20.6717C16.5883 17.8766 18.862 15.6031 21.6569 15.6031C24.4513 15.6031 26.7245 17.8768 26.7245 20.6717C26.7245 23.4668 24.4515 25.7403 21.6569 25.7403Z" fill="#444444" />
	<path d="M21.6569 15.3278C18.7105 15.3278 16.3135 17.7251 16.3135 20.6712C16.3135 23.6173 18.7106 26.0146 21.6569 26.0146C24.6026 26.0148 26.9994 23.6175 26.9994 20.6712C26.9994 17.7248 24.6028 15.3278 21.6569 15.3278ZM21.6569 25.7403C18.8618 25.7403 16.5883 23.4666 16.5883 20.6717C16.5883 17.8766 18.862 15.6031 21.6569 15.6031C24.4513 15.6031 26.7245 17.8768 26.7245 20.6717C26.7245 23.4668 24.4515 25.7403 21.6569 25.7403Z" stroke="#444444" stroke-width="0.6" mask="url(#path-2-outside-2_1529_358867)" />
	<mask id="path-3-outside-3_1529_358867" maskUnits="userSpaceOnUse" x="4.46875" y="5.65295" width="6" height="6" fill="black">
		<rect fill="white" x="4.46875" y="5.65295" width="6" height="6" />
		<path d="M9.21392 8.5244C9.21392 7.49237 8.37336 6.65295 7.34019 6.65295C6.30816 6.65295 5.46875 7.49237 5.46875 8.5244C5.46875 9.55836 6.30816 10.3997 7.34019 10.3997C8.37336 10.3997 9.21392 9.55856 9.21392 8.5244ZM5.74391 8.5244C5.74391 7.64411 6.4601 6.92772 7.34059 6.92772C8.22222 6.92772 8.93955 7.64406 8.93955 8.5244C8.93955 9.40722 8.22222 10.1249 7.34059 10.1249C6.4601 10.1249 5.74391 9.40722 5.74391 8.5244Z" />
	</mask>
	<path d="M9.21392 8.5244C9.21392 7.49237 8.37336 6.65295 7.34019 6.65295C6.30816 6.65295 5.46875 7.49237 5.46875 8.5244C5.46875 9.55836 6.30816 10.3997 7.34019 10.3997C8.37336 10.3997 9.21392 9.55856 9.21392 8.5244ZM5.74391 8.5244C5.74391 7.64411 6.4601 6.92772 7.34059 6.92772C8.22222 6.92772 8.93955 7.64406 8.93955 8.5244C8.93955 9.40722 8.22222 10.1249 7.34059 10.1249C6.4601 10.1249 5.74391 9.40722 5.74391 8.5244Z" fill="#444444" />
	<path d="M9.21392 8.5244C9.21392 7.49237 8.37336 6.65295 7.34019 6.65295C6.30816 6.65295 5.46875 7.49237 5.46875 8.5244C5.46875 9.55836 6.30816 10.3997 7.34019 10.3997C8.37336 10.3997 9.21392 9.55856 9.21392 8.5244ZM5.74391 8.5244C5.74391 7.64411 6.4601 6.92772 7.34059 6.92772C8.22222 6.92772 8.93955 7.64406 8.93955 8.5244C8.93955 9.40722 8.22222 10.1249 7.34059 10.1249C6.4601 10.1249 5.74391 9.40722 5.74391 8.5244Z" stroke="#444444" stroke-width="0.6" mask="url(#path-3-outside-3_1529_358867)" />
	<mask id="path-4-outside-4_1529_358867" maskUnits="userSpaceOnUse" x="0.999023" y="2.18494" width="12" height="12" fill="black">
		<rect fill="white" x="0.999023" y="2.18494" width="12" height="12" />
		<path d="M12.6839 8.52441C12.6839 5.58011 10.2868 3.18494 7.34048 3.18494C4.39519 3.18494 1.99902 5.58031 1.99902 8.52441C1.99902 11.4708 4.39519 13.8678 7.34048 13.8678C10.2869 13.868 12.6839 11.4707 12.6839 8.52441ZM2.27383 8.52441C2.27383 5.7318 4.54693 3.45925 7.34048 3.45925C10.1356 3.45925 12.4091 5.7316 12.4091 8.52441C12.4091 11.3195 10.1354 13.593 7.34048 13.593C4.54673 13.5932 2.27383 11.3193 2.27383 8.52441Z" />
	</mask>
	<path d="M12.6839 8.52441C12.6839 5.58011 10.2868 3.18494 7.34048 3.18494C4.39519 3.18494 1.99902 5.58031 1.99902 8.52441C1.99902 11.4708 4.39519 13.8678 7.34048 13.8678C10.2869 13.868 12.6839 11.4707 12.6839 8.52441ZM2.27383 8.52441C2.27383 5.7318 4.54693 3.45925 7.34048 3.45925C10.1356 3.45925 12.4091 5.7316 12.4091 8.52441C12.4091 11.3195 10.1354 13.593 7.34048 13.593C4.54673 13.5932 2.27383 11.3193 2.27383 8.52441Z" fill="#444444" />
	<path d="M12.6839 8.52441C12.6839 5.58011 10.2868 3.18494 7.34048 3.18494C4.39519 3.18494 1.99902 5.58031 1.99902 8.52441C1.99902 11.4708 4.39519 13.8678 7.34048 13.8678C10.2869 13.868 12.6839 11.4707 12.6839 8.52441ZM2.27383 8.52441C2.27383 5.7318 4.54693 3.45925 7.34048 3.45925C10.1356 3.45925 12.4091 5.7316 12.4091 8.52441C12.4091 11.3195 10.1354 13.593 7.34048 13.593C4.54673 13.5932 2.27383 11.3193 2.27383 8.52441Z" stroke="#444444" stroke-width="0.6" mask="url(#path-4-outside-4_1529_358867)" />
	<mask id="path-5-outside-5_1529_358867" maskUnits="userSpaceOnUse" x="5.80371" y="3.05042" width="17" height="23" fill="black">
		<rect fill="white" x="5.80371" y="3.05042" width="17" height="23" />
		<path d="M22.2607 4.11746C22.2359 4.0758 22.191 4.05061 22.1427 4.05061L18.197 4.05042C18.1464 4.05042 18.1001 4.07793 18.0761 4.12269L6.82026 24.9438C6.7972 24.9863 6.79836 25.0378 6.82297 25.0795C6.84777 25.1211 6.89273 25.1463 6.94098 25.1463H10.8867C10.9373 25.1463 10.9836 25.1188 11.0076 25.0741L22.263 4.25291C22.2864 4.21067 22.2852 4.15893 22.2604 4.11765L22.2607 4.11746ZM10.8055 24.8716H7.17213L18.2792 4.32531H21.9125L10.8055 24.8716Z" />
	</mask>
	<path d="M22.2607 4.11746C22.2359 4.0758 22.191 4.05061 22.1427 4.05061L18.197 4.05042C18.1464 4.05042 18.1001 4.07793 18.0761 4.12269L6.82026 24.9438C6.7972 24.9863 6.79836 25.0378 6.82297 25.0795C6.84777 25.1211 6.89273 25.1463 6.94098 25.1463H10.8867C10.9373 25.1463 10.9836 25.1188 11.0076 25.0741L22.263 4.25291C22.2864 4.21067 22.2852 4.15893 22.2604 4.11765L22.2607 4.11746ZM10.8055 24.8716H7.17213L18.2792 4.32531H21.9125L10.8055 24.8716Z" fill="#444444" />
	<path d="M22.2607 4.11746C22.2359 4.0758 22.191 4.05061 22.1427 4.05061L18.197 4.05042C18.1464 4.05042 18.1001 4.07793 18.0761 4.12269L6.82026 24.9438C6.7972 24.9863 6.79836 25.0378 6.82297 25.0795C6.84777 25.1211 6.89273 25.1463 6.94098 25.1463H10.8867C10.9373 25.1463 10.9836 25.1188 11.0076 25.0741L22.263 4.25291C22.2864 4.21067 22.2852 4.15893 22.2604 4.11765L22.2607 4.11746ZM10.8055 24.8716H7.17213L18.2792 4.32531H21.9125L10.8055 24.8716Z" stroke="#444444" stroke-width="0.6" mask="url(#path-5-outside-5_1529_358867)" />
</svg>