<svg width="29" height="29" viewBox="0 0 29 29" fill="none" xmlns="http://www.w3.org/2000/svg">
	<g clip-path="url(#clip0_272_63477)">
		<mask id="path-1-outside-1_272_63477" maskUnits="userSpaceOnUse" x="9.67188" y="15.2168" width="9" height="19" fill="black">
			<rect fill="white" x="9.67188" y="15.2168" width="9" height="19" />
			<path d="M17.1303 18.6265V16.9775H11.4329V18.6265H17.1303ZM11.7413 30.8294V19.3873H10.6719V16.2168H17.891V19.3873H16.8215V30.8294H17.891V33.9999H10.6719V30.8294H11.7413ZM17.1303 31.5904H11.4329V33.2393H17.1303V31.5904ZM16.0607 19.3875H12.5025V30.8296H16.0607V19.3875Z" />
		</mask>
		<path d="M17.1303 18.6265V16.9775H11.4329V18.6265H17.1303ZM11.7413 30.8294V19.3873H10.6719V16.2168H17.891V19.3873H16.8215V30.8294H17.891V33.9999H10.6719V30.8294H11.7413ZM17.1303 31.5904H11.4329V33.2393H17.1303V31.5904ZM16.0607 19.3875H12.5025V30.8296H16.0607V19.3875Z" fill="#444444" />
		<path d="M17.1303 18.6265V16.9775H11.4329V18.6265H17.1303ZM11.7413 30.8294V19.3873H10.6719V16.2168H17.891V19.3873H16.8215V30.8294H17.891V33.9999H10.6719V30.8294H11.7413ZM17.1303 31.5904H11.4329V33.2393H17.1303V31.5904ZM16.0607 19.3875H12.5025V30.8296H16.0607V19.3875Z" stroke="#444444" stroke-width="0.2" mask="url(#path-1-outside-1_272_63477)" />
	</g>
	<mask id="path-2-outside-2_272_63477" maskUnits="userSpaceOnUse" x="6" y="1" width="13" height="15" fill="black">
		<rect fill="white" x="6" y="1" width="13" height="15" />
		<path d="M9.78786 8.10572C10.1687 8.77963 10.8182 9.23781 11.567 9.35686C10.9004 9.63876 10.4284 10.3084 10.4284 11.088C10.4284 12.0351 11.1254 12.8192 12.0215 12.9383C12.0647 14.0837 12.9955 15 14.1297 15C15.2898 15 16.2337 14.0352 16.2337 12.8547C16.2337 12.1234 15.87 11.4671 15.303 11.0794C15.5282 10.793 15.6623 10.4405 15.6926 10.0617C16.9827 9.94707 18 8.84583 18 7.50222C18 7.00879 17.8615 6.53301 17.593 6.11459C17.6363 5.92517 17.658 5.7534 17.658 5.5816C17.658 4.16318 16.5238 3.00898 15.1298 3.00898C14.896 3.00898 14.6622 3.04426 14.4329 3.11464C14.0045 2.42734 13.26 2 12.446 2C11.4417 2 10.5845 2.63439 10.2511 3.55065C9.96545 3.42735 9.66232 3.36569 9.35078 3.36569C8.0563 3.36569 7 4.44057 7 5.76205C7.00438 7.22449 8.32039 8.3963 9.78788 8.10571L9.78786 8.10572ZM9.35078 4.22034C9.67983 4.22034 10.0001 4.33493 10.273 4.55072C10.3939 4.64319 10.5586 4.6651 10.6971 4.59919C10.8356 4.53753 10.9352 4.40104 10.9482 4.24671C11.0217 3.45375 11.6625 2.8502 12.4418 2.8502C13.0522 2.8502 13.6019 3.22458 13.8401 3.80176C13.8618 3.86788 14.0868 4.56393 13.5933 4.84579C13.3898 4.96038 13.3163 5.22017 13.4289 5.42723C13.5068 5.56818 13.6497 5.64748 13.7968 5.64748C13.8662 5.64748 13.9353 5.62984 14.0003 5.59455C14.7016 5.19806 14.7969 4.46672 14.7232 3.92505C14.8573 3.88977 14.9916 3.86786 15.1258 3.86786C16.0565 3.86786 16.8141 4.63875 16.8141 5.58585C16.8141 5.73126 16.7882 5.88986 16.7318 6.07928C16.6929 6.21151 16.7188 6.35246 16.8011 6.46258C17.0349 6.77085 17.1561 7.13223 17.1561 7.50661C17.1561 8.45371 16.3985 9.22034 15.4678 9.22034C15.4289 9.22034 15.3942 9.21588 15.3552 9.21162L15.2858 9.2029C15.1473 9.18972 15.0173 9.23819 14.9308 9.34385C14.84 9.44525 14.8053 9.58621 14.8312 9.71823C14.8485 9.79307 14.8529 9.86365 14.8529 9.93402C14.8529 10.3041 14.6538 10.6432 14.3291 10.8195C14.1733 10.9032 14.0868 11.075 14.1083 11.2513C14.13 11.4275 14.2556 11.5729 14.4244 11.6125C14.9958 11.7579 15.3942 12.2688 15.3942 12.8636C15.3942 13.5773 14.8272 14.1542 14.1301 14.1542C13.4287 14.1542 12.8617 13.5728 12.8617 12.8636C12.8617 12.7798 12.8703 12.6918 12.8876 12.5949C12.9135 12.4584 12.8703 12.313 12.7708 12.216C12.6929 12.1367 12.5847 12.0927 12.4764 12.0927C12.4505 12.0927 12.4244 12.0972 12.3985 12.1014C12.3553 12.1102 12.312 12.1146 12.2686 12.1146C11.7187 12.1146 11.2684 11.6609 11.2684 11.1014C11.2684 10.5418 11.7187 10.0837 12.2686 10.0837C12.2989 10.0837 12.3292 10.0881 12.3595 10.0924L12.4157 10.1011C12.6409 10.1319 12.84 9.97781 12.8832 9.7531C12.9394 9.43145 13.1256 9.24649 13.5023 8.88528L13.6537 8.73987C13.8182 8.57681 13.8269 8.31255 13.6711 8.14078C13.5152 7.969 13.2555 7.95582 13.0823 8.11441C12.775 8.39632 12.381 8.55045 11.974 8.55045C11.277 8.55045 10.6622 8.12313 10.4069 7.45792C10.3246 7.24214 10.0866 7.13627 9.8743 7.21131C8.81361 7.59887 7.84399 6.79272 7.84399 5.77078C7.83981 4.91189 8.51942 4.22033 9.35072 4.22033L9.35078 4.22034Z" />
	</mask>
	<path d="M9.78786 8.10572C10.1687 8.77963 10.8182 9.23781 11.567 9.35686C10.9004 9.63876 10.4284 10.3084 10.4284 11.088C10.4284 12.0351 11.1254 12.8192 12.0215 12.9383C12.0647 14.0837 12.9955 15 14.1297 15C15.2898 15 16.2337 14.0352 16.2337 12.8547C16.2337 12.1234 15.87 11.4671 15.303 11.0794C15.5282 10.793 15.6623 10.4405 15.6926 10.0617C16.9827 9.94707 18 8.84583 18 7.50222C18 7.00879 17.8615 6.53301 17.593 6.11459C17.6363 5.92517 17.658 5.7534 17.658 5.5816C17.658 4.16318 16.5238 3.00898 15.1298 3.00898C14.896 3.00898 14.6622 3.04426 14.4329 3.11464C14.0045 2.42734 13.26 2 12.446 2C11.4417 2 10.5845 2.63439 10.2511 3.55065C9.96545 3.42735 9.66232 3.36569 9.35078 3.36569C8.0563 3.36569 7 4.44057 7 5.76205C7.00438 7.22449 8.32039 8.3963 9.78788 8.10571L9.78786 8.10572ZM9.35078 4.22034C9.67983 4.22034 10.0001 4.33493 10.273 4.55072C10.3939 4.64319 10.5586 4.6651 10.6971 4.59919C10.8356 4.53753 10.9352 4.40104 10.9482 4.24671C11.0217 3.45375 11.6625 2.8502 12.4418 2.8502C13.0522 2.8502 13.6019 3.22458 13.8401 3.80176C13.8618 3.86788 14.0868 4.56393 13.5933 4.84579C13.3898 4.96038 13.3163 5.22017 13.4289 5.42723C13.5068 5.56818 13.6497 5.64748 13.7968 5.64748C13.8662 5.64748 13.9353 5.62984 14.0003 5.59455C14.7016 5.19806 14.7969 4.46672 14.7232 3.92505C14.8573 3.88977 14.9916 3.86786 15.1258 3.86786C16.0565 3.86786 16.8141 4.63875 16.8141 5.58585C16.8141 5.73126 16.7882 5.88986 16.7318 6.07928C16.6929 6.21151 16.7188 6.35246 16.8011 6.46258C17.0349 6.77085 17.1561 7.13223 17.1561 7.50661C17.1561 8.45371 16.3985 9.22034 15.4678 9.22034C15.4289 9.22034 15.3942 9.21588 15.3552 9.21162L15.2858 9.2029C15.1473 9.18972 15.0173 9.23819 14.9308 9.34385C14.84 9.44525 14.8053 9.58621 14.8312 9.71823C14.8485 9.79307 14.8529 9.86365 14.8529 9.93402C14.8529 10.3041 14.6538 10.6432 14.3291 10.8195C14.1733 10.9032 14.0868 11.075 14.1083 11.2513C14.13 11.4275 14.2556 11.5729 14.4244 11.6125C14.9958 11.7579 15.3942 12.2688 15.3942 12.8636C15.3942 13.5773 14.8272 14.1542 14.1301 14.1542C13.4287 14.1542 12.8617 13.5728 12.8617 12.8636C12.8617 12.7798 12.8703 12.6918 12.8876 12.5949C12.9135 12.4584 12.8703 12.313 12.7708 12.216C12.6929 12.1367 12.5847 12.0927 12.4764 12.0927C12.4505 12.0927 12.4244 12.0972 12.3985 12.1014C12.3553 12.1102 12.312 12.1146 12.2686 12.1146C11.7187 12.1146 11.2684 11.6609 11.2684 11.1014C11.2684 10.5418 11.7187 10.0837 12.2686 10.0837C12.2989 10.0837 12.3292 10.0881 12.3595 10.0924L12.4157 10.1011C12.6409 10.1319 12.84 9.97781 12.8832 9.7531C12.9394 9.43145 13.1256 9.24649 13.5023 8.88528L13.6537 8.73987C13.8182 8.57681 13.8269 8.31255 13.6711 8.14078C13.5152 7.969 13.2555 7.95582 13.0823 8.11441C12.775 8.39632 12.381 8.55045 11.974 8.55045C11.277 8.55045 10.6622 8.12313 10.4069 7.45792C10.3246 7.24214 10.0866 7.13627 9.8743 7.21131C8.81361 7.59887 7.84399 6.79272 7.84399 5.77078C7.83981 4.91189 8.51942 4.22033 9.35072 4.22033L9.35078 4.22034Z" fill="#444444" />
	<path d="M9.78786 8.10572C10.1687 8.77963 10.8182 9.23781 11.567 9.35686C10.9004 9.63876 10.4284 10.3084 10.4284 11.088C10.4284 12.0351 11.1254 12.8192 12.0215 12.9383C12.0647 14.0837 12.9955 15 14.1297 15C15.2898 15 16.2337 14.0352 16.2337 12.8547C16.2337 12.1234 15.87 11.4671 15.303 11.0794C15.5282 10.793 15.6623 10.4405 15.6926 10.0617C16.9827 9.94707 18 8.84583 18 7.50222C18 7.00879 17.8615 6.53301 17.593 6.11459C17.6363 5.92517 17.658 5.7534 17.658 5.5816C17.658 4.16318 16.5238 3.00898 15.1298 3.00898C14.896 3.00898 14.6622 3.04426 14.4329 3.11464C14.0045 2.42734 13.26 2 12.446 2C11.4417 2 10.5845 2.63439 10.2511 3.55065C9.96545 3.42735 9.66232 3.36569 9.35078 3.36569C8.0563 3.36569 7 4.44057 7 5.76205C7.00438 7.22449 8.32039 8.3963 9.78788 8.10571L9.78786 8.10572ZM9.35078 4.22034C9.67983 4.22034 10.0001 4.33493 10.273 4.55072C10.3939 4.64319 10.5586 4.6651 10.6971 4.59919C10.8356 4.53753 10.9352 4.40104 10.9482 4.24671C11.0217 3.45375 11.6625 2.8502 12.4418 2.8502C13.0522 2.8502 13.6019 3.22458 13.8401 3.80176C13.8618 3.86788 14.0868 4.56393 13.5933 4.84579C13.3898 4.96038 13.3163 5.22017 13.4289 5.42723C13.5068 5.56818 13.6497 5.64748 13.7968 5.64748C13.8662 5.64748 13.9353 5.62984 14.0003 5.59455C14.7016 5.19806 14.7969 4.46672 14.7232 3.92505C14.8573 3.88977 14.9916 3.86786 15.1258 3.86786C16.0565 3.86786 16.8141 4.63875 16.8141 5.58585C16.8141 5.73126 16.7882 5.88986 16.7318 6.07928C16.6929 6.21151 16.7188 6.35246 16.8011 6.46258C17.0349 6.77085 17.1561 7.13223 17.1561 7.50661C17.1561 8.45371 16.3985 9.22034 15.4678 9.22034C15.4289 9.22034 15.3942 9.21588 15.3552 9.21162L15.2858 9.2029C15.1473 9.18972 15.0173 9.23819 14.9308 9.34385C14.84 9.44525 14.8053 9.58621 14.8312 9.71823C14.8485 9.79307 14.8529 9.86365 14.8529 9.93402C14.8529 10.3041 14.6538 10.6432 14.3291 10.8195C14.1733 10.9032 14.0868 11.075 14.1083 11.2513C14.13 11.4275 14.2556 11.5729 14.4244 11.6125C14.9958 11.7579 15.3942 12.2688 15.3942 12.8636C15.3942 13.5773 14.8272 14.1542 14.1301 14.1542C13.4287 14.1542 12.8617 13.5728 12.8617 12.8636C12.8617 12.7798 12.8703 12.6918 12.8876 12.5949C12.9135 12.4584 12.8703 12.313 12.7708 12.216C12.6929 12.1367 12.5847 12.0927 12.4764 12.0927C12.4505 12.0927 12.4244 12.0972 12.3985 12.1014C12.3553 12.1102 12.312 12.1146 12.2686 12.1146C11.7187 12.1146 11.2684 11.6609 11.2684 11.1014C11.2684 10.5418 11.7187 10.0837 12.2686 10.0837C12.2989 10.0837 12.3292 10.0881 12.3595 10.0924L12.4157 10.1011C12.6409 10.1319 12.84 9.97781 12.8832 9.7531C12.9394 9.43145 13.1256 9.24649 13.5023 8.88528L13.6537 8.73987C13.8182 8.57681 13.8269 8.31255 13.6711 8.14078C13.5152 7.969 13.2555 7.95582 13.0823 8.11441C12.775 8.39632 12.381 8.55045 11.974 8.55045C11.277 8.55045 10.6622 8.12313 10.4069 7.45792C10.3246 7.24214 10.0866 7.13627 9.8743 7.21131C8.81361 7.59887 7.84399 6.79272 7.84399 5.77078C7.83981 4.91189 8.51942 4.22033 9.35072 4.22033L9.35078 4.22034Z" stroke="#444444" stroke-width="0.2" mask="url(#path-2-outside-2_272_63477)" />
	<defs>
		<clipPath id="clip0_272_63477">
			<rect width="29" height="29" fill="white" />
		</clipPath>
	</defs>
</svg>