<svg width="29" height="29" viewBox="0 0 29 29" fill="none" xmlns="http://www.w3.org/2000/svg">
	<mask id="path-1-outside-1_1529_358767" maskUnits="userSpaceOnUse" x="0.999023" y="1.13135" width="27" height="26" fill="black">
		<rect fill="white" x="0.999023" y="1.13135" width="27" height="26" />
		<path d="M15.2822 24.3023H15.282C15.1107 24.1333 14.8848 24.0231 14.6458 23.9917L14.0881 23.9195C13.6651 23.8667 13.2418 24.0627 13.0121 24.4227C12.8741 24.6386 12.8152 24.8981 12.8462 25.1527L12.8649 25.3066C12.9283 25.8271 13.3537 26.2356 13.8766 26.2773L14.4738 26.3249C14.5036 26.3274 14.5335 26.3284 14.5633 26.3284C14.6711 26.3284 14.7779 26.3125 14.8814 26.2815C15.3578 26.1381 15.6803 25.7075 15.6837 25.2099L15.6839 25.1691C15.6858 24.8719 15.5658 24.5821 15.3541 24.3731L15.2822 24.3023ZM15.1348 25.2063C15.1331 25.4616 14.9677 25.6824 14.7229 25.7561C14.6565 25.7762 14.587 25.7841 14.5176 25.7778L13.9203 25.7301C13.6563 25.7089 13.4418 25.5029 13.4096 25.2399L13.3909 25.0861C13.3752 24.9576 13.4048 24.8269 13.4747 24.7178C13.5779 24.5559 13.758 24.4593 13.9472 24.4593C13.9706 24.4593 13.9943 24.4606 14.0179 24.4639L14.5752 24.5356C14.696 24.5515 14.8102 24.6072 14.8969 24.6926L14.9687 24.7636C15.0755 24.8688 15.1362 25.0154 15.1352 25.1653L15.1348 25.2063ZM13.0324 16.8485L13.0177 16.8091C13.0173 16.8079 13.0169 16.807 13.0165 16.8058L12.992 16.7429C12.6622 15.8973 11.8634 15.3212 10.9568 15.2753C10.574 15.2544 10.187 15.3335 9.84098 15.4996L9.62643 15.6026C8.64137 16.0753 8.21319 17.2665 8.67233 18.2581L8.75252 18.4311C8.89166 18.7314 9.10124 18.9997 9.35924 19.2072C9.74795 19.5198 10.2274 19.6844 10.7143 19.6844C10.9187 19.6844 11.1244 19.6555 11.3254 19.5961L11.7195 19.4799C12.2324 19.3286 12.6565 18.9868 12.9134 18.5176C13.1941 18.0045 13.2376 17.3961 13.0324 16.8485H13.0324ZM12.4322 18.2543C12.2454 18.5953 11.9372 18.8435 11.5642 18.9538L11.1701 19.07C10.6635 19.2194 10.1148 19.1109 9.70331 18.7798C9.51096 18.6252 9.35421 18.4248 9.25067 18.2009L9.17048 18.0279C8.83688 17.3071 9.14789 16.4412 9.86407 16.0977L10.0786 15.9947C10.3161 15.8806 10.5779 15.8215 10.8411 15.8215C10.8704 15.8215 10.8998 15.8221 10.9293 15.8236C11.6204 15.8586 12.2294 16.2979 12.4809 16.9423L12.5188 17.0412C12.6675 17.4389 12.6361 17.8812 12.4321 18.2542L12.4322 18.2543ZM10.1724 22.6616C10.1055 22.5883 10.0322 22.5198 9.95426 22.4574L8.68708 21.4445C8.2842 21.1226 7.77987 20.9781 7.26811 21.0365C6.75615 21.0953 6.29813 21.3504 5.97893 21.755C5.71232 22.0928 5.56552 22.5155 5.56552 22.9458V23.9349C5.56552 24.858 6.22393 25.6525 7.13148 25.8234L8.52865 26.0866C8.64846 26.1093 8.76865 26.1202 8.88789 26.1202C9.34053 26.1202 9.77996 25.9602 10.1317 25.66L10.1823 25.6171C10.5821 25.2756 10.8202 24.7987 10.8525 24.2739C10.8849 23.7493 10.7075 23.2465 10.3526 22.8584L10.1724 22.6616ZM9.82641 25.1994L9.77608 25.2423C9.45799 25.5137 9.04036 25.6247 8.63041 25.5476L7.23324 25.2844C6.58502 25.1619 6.11437 24.5947 6.11437 23.9351V22.946C6.11437 22.6386 6.21925 22.3366 6.40987 22.0953C6.63781 21.8061 6.96509 21.6239 7.33104 21.5819C7.38425 21.5758 7.43746 21.5728 7.49028 21.5728C7.80014 21.5728 8.09871 21.6771 8.34467 21.8734L9.61185 22.8863C9.66736 22.9307 9.7198 22.9799 9.76746 23.0321L9.76765 23.0323L9.94774 23.2291C10.2011 23.5062 10.328 23.8654 10.3049 24.2404C10.2817 24.6149 10.1116 24.9558 9.82641 25.1994L9.82641 25.1994ZM3.08751 11.3635L5.24813 11.8175C5.34134 11.8372 5.43569 11.8467 5.52967 11.8467C5.82192 11.8467 6.10939 11.7531 6.34765 11.5759L7.47054 10.7405C7.94424 10.3881 8.1389 9.77473 7.95457 9.21397L7.73772 8.55365C7.58729 8.09546 7.20127 7.74654 6.73042 7.64282L3.66356 6.968C3.34528 6.89795 3.01148 6.94407 2.72421 7.09718C2.27693 7.33585 1.99902 7.799 1.99902 8.30601V10.0226C1.99921 10.667 2.45683 11.231 3.08747 11.3635L3.08751 11.3635ZM2.54796 8.30603C2.54796 8.0021 2.71447 7.7244 2.9828 7.58143C3.15544 7.48937 3.35506 7.462 3.54606 7.50392L6.61291 8.17874C6.89521 8.24075 7.12659 8.44994 7.21674 8.7248L7.43359 9.38512C7.54402 9.7212 7.42746 10.089 7.14363 10.3004L6.02074 11.1358C5.83183 11.2763 5.59164 11.3293 5.3614 11.2807L3.20078 10.8267C2.82278 10.7471 2.54835 10.4091 2.54835 10.0227L2.54796 8.30603ZM4.46263 22.8711C4.42665 22.4448 4.14435 22.0737 3.74337 21.925C3.50356 21.8362 3.23773 21.8333 2.9954 21.9171L2.84898 21.9681C2.35368 22.1397 2.04437 22.6418 2.11365 23.1615L2.21566 23.924C2.22619 23.9809 2.25107 24.035 2.33202 24.1757C2.53241 24.524 2.8995 24.7303 3.28975 24.7303C3.36535 24.7303 3.44191 24.7225 3.51808 24.7068L3.57799 24.6942C3.8689 24.6333 4.12708 24.4545 4.28613 24.2044L4.34067 24.1187C4.46986 23.9152 4.52977 23.6712 4.50948 23.4314L4.46263 22.8711ZM3.87791 23.8242L3.82355 23.9099C3.74317 24.0364 3.61283 24.1264 3.46642 24.157L3.4067 24.1696C3.1688 24.2188 2.92842 24.1116 2.80782 23.9019C2.78486 23.8623 2.76534 23.8282 2.75309 23.8039L2.65777 23.089C2.62275 22.8266 2.77893 22.5735 3.02907 22.4867L3.17529 22.4358C3.29778 22.3935 3.43195 22.3949 3.55291 22.4396C3.75521 22.5147 3.8976 22.702 3.91578 22.9172L3.96286 23.4777C3.9732 23.5985 3.94296 23.7218 3.87788 23.8241L3.87791 23.8242ZM26.5317 12.6257C26.3543 12.3889 26.0836 12.2341 25.7895 12.2008C25.4953 12.1673 25.1967 12.2582 24.9707 12.4496C24.7397 12.6454 24.6008 12.9315 24.5897 13.2346L24.5104 15.4601C24.4982 15.7989 24.5763 16.1359 24.7368 16.4347L25.5328 17.9186C25.6567 18.1492 25.8974 18.29 26.1539 18.29C26.1889 18.29 26.2243 18.2874 26.2599 18.2818C26.5922 18.2311 26.8435 17.9501 26.8569 17.6142L26.9981 14.125C27.0198 13.588 26.8542 13.0553 26.5317 12.6256L26.5317 12.6257ZM26.3089 17.5924C26.306 17.6666 26.2505 17.7286 26.1774 17.7397C26.1104 17.7499 26.0477 17.7175 26.0167 17.6596L25.2203 16.1755C25.1058 15.9623 25.0501 15.7219 25.0587 15.48L25.138 13.2545C25.1435 13.1054 25.2118 12.9646 25.3255 12.8685C25.4226 12.7864 25.542 12.7428 25.667 12.7428C25.6873 12.7428 25.7077 12.7439 25.728 12.7462C25.8748 12.7627 26.0042 12.8369 26.093 12.955C26.3397 13.284 26.4666 13.6917 26.4501 14.1032L26.3089 17.5924ZM26.311 23.2681C26.3068 23.238 26.3011 23.2082 26.2947 23.1772L25.7889 20.8325C25.7034 20.4353 25.4524 20.0914 25.1003 19.8887L24.6402 19.624C24.0708 19.2967 23.3471 19.3886 22.8786 19.847C22.523 20.1945 22.3711 20.7117 22.4817 21.1965L22.8493 22.8047C22.9259 23.1395 23.1201 23.4365 23.3963 23.6409L24.7269 24.625C24.9734 24.8072 25.2769 24.9071 25.5835 24.9071H25.5969C25.8086 24.905 26.0097 24.8239 26.1634 24.6778C26.3603 24.4905 26.4539 24.2181 26.4137 23.949L26.311 23.2681ZM25.7853 24.2803C25.7328 24.3301 25.6639 24.3578 25.5916 24.3586H25.5834C25.3937 24.3586 25.2058 24.2968 25.0534 24.1842L23.7229 23.2001C23.552 23.0734 23.432 22.8899 23.3845 22.6828L23.0169 21.0745C22.9485 20.7746 23.0425 20.4548 23.2626 20.2397C23.4387 20.0674 23.6724 19.9779 23.9082 19.9779C24.0655 19.9779 24.2242 20.0179 24.3665 20.1L24.8267 20.3647C25.0445 20.49 25.1997 20.7028 25.2527 20.9486L25.7583 23.2922C25.7622 23.3102 25.7656 23.3283 25.7683 23.3469C25.7685 23.3475 25.7685 23.3482 25.7685 23.3488L25.8711 24.0309C25.8846 24.1228 25.8525 24.216 25.7853 24.2803L25.7853 24.2803ZM17.4702 20.0066L16.2099 19.788C15.5304 19.6699 14.8395 19.7595 14.2123 20.0467C13.5392 20.3547 13.1719 21.1019 13.339 21.823C13.4374 22.2477 13.7367 22.6003 14.1398 22.7664L15.984 23.5259C16.2772 23.6464 16.5858 23.7209 16.9012 23.7471C16.9875 23.754 17.0734 23.7576 17.1592 23.7576C17.8767 23.7576 18.5661 23.5092 19.123 23.0455L19.1447 23.0275C19.3422 22.8629 19.488 22.6464 19.5665 22.4017C19.6957 21.9974 19.6254 21.55 19.3782 21.2047C18.9213 20.5662 18.2436 20.1409 17.4702 20.0066L17.4702 20.0066ZM19.0438 22.2342C18.9975 22.3794 18.911 22.5077 18.794 22.6051L18.7724 22.6231C18.2598 23.0501 17.6108 23.2552 16.9465 23.1999C16.6874 23.1783 16.4338 23.1172 16.193 23.0181L14.3489 22.2586C14.1099 22.1603 13.9321 21.9511 13.8737 21.699C13.7652 21.2307 14.0039 20.7455 14.441 20.5453C14.8163 20.3734 15.219 20.286 15.6261 20.286C15.7894 20.286 15.9532 20.2999 16.1165 20.3284L17.3768 20.547C18.0074 20.6565 18.5599 21.0033 18.9326 21.5237C19.0788 21.7287 19.1205 21.9943 19.0438 22.2341L19.0438 22.2342ZM21.8291 23.8495C21.8289 23.8495 21.8289 23.8493 21.8287 23.8493L21.3158 23.7831C20.8934 23.7303 20.4695 23.9259 20.2396 24.2863C20.1018 24.5022 20.0428 24.7613 20.0736 25.0159L20.0811 25.0773C20.1345 25.5162 20.4597 25.8785 20.8905 25.9787L21.614 26.1474C21.6929 26.1659 21.7732 26.1749 21.8536 26.1749C21.9564 26.1749 22.0592 26.16 22.1583 26.1301C22.6052 25.9956 22.9076 25.5918 22.9105 25.1253L22.9107 25.0891C22.9132 24.7561 22.7784 24.4311 22.5413 24.1971C22.3497 24.0076 22.0967 23.8843 21.8292 23.8495L21.8291 23.8495ZM22.3619 25.1213C22.3604 25.3458 22.2151 25.5399 22.0002 25.6044C21.9152 25.6304 21.8245 25.6333 21.7388 25.613L21.0151 25.4444C20.808 25.3961 20.6516 25.222 20.626 25.0109L20.6185 24.9494C20.603 24.821 20.6325 24.6907 20.7024 24.5816C20.8055 24.4197 20.9854 24.3228 21.1745 24.3228C21.1981 24.3228 21.222 24.3243 21.2457 24.3276L21.7587 24.3938C21.9081 24.4133 22.0494 24.4822 22.1564 24.5879C22.2886 24.7184 22.3638 24.8999 22.3625 25.0851L22.3619 25.1213ZM6.11683 19.4074C6.3377 19.0039 6.37195 18.5257 6.21062 18.095V18.0948L6.08889 17.78C5.86324 17.2014 5.31701 16.8075 4.69692 16.7762L4.40638 16.7614C4.1459 16.7482 3.88027 16.8012 3.64313 16.9149L3.32408 17.068C2.54935 17.4397 2.21285 18.3764 2.574 19.1561L2.69228 19.4118C2.79391 19.6313 2.94721 19.8273 3.13554 19.9787L3.22913 20.0543C3.51488 20.284 3.86265 20.4038 4.21689 20.4038C4.38781 20.4038 4.56044 20.3758 4.72812 20.3188L5.23954 20.1448C5.61505 20.0171 5.92646 19.7553 6.11686 19.4074L6.11683 19.4074ZM5.06303 19.6252L4.55161 19.7992C4.21553 19.9136 3.84959 19.8489 3.5734 19.6267L3.47962 19.5511C3.35656 19.4522 3.25646 19.3241 3.19043 19.1812L3.07196 18.9255C2.83636 18.4165 3.05588 17.8053 3.56154 17.5628L3.88039 17.4099C4.01953 17.3431 4.17303 17.3082 4.3271 17.3082C4.34432 17.3082 4.36136 17.3086 4.37858 17.3094L4.66912 17.3241C5.07391 17.3446 5.43046 17.6018 5.57765 17.9794L5.69669 18.2874C5.80196 18.5685 5.77956 18.8807 5.63564 19.144C5.51123 19.371 5.30779 19.5419 5.06297 19.6252L5.06303 19.6252ZM11.8054 13.9446L14.9097 14.247C14.9784 14.2537 15.0473 14.2571 15.1158 14.2571C15.6215 14.2571 16.1198 14.078 16.5093 13.7515C16.9055 13.4191 17.1023 12.9142 17.0358 12.4012L16.9558 11.7834C16.8586 11.0334 16.215 10.4678 15.4586 10.4678L13.4482 10.4682C12.6723 10.4684 11.9142 10.6858 11.2558 11.0973L11.1515 11.1625C10.6216 11.4938 10.3482 12.1279 10.4717 12.7406C10.604 13.3959 11.1399 13.8799 11.8053 13.9446L11.8054 13.9446ZM11.4425 11.6274L11.5468 11.5622C12.1177 11.2054 12.7753 11.0167 13.4483 11.0167L15.4586 11.0163C15.94 11.0163 16.3498 11.3763 16.4116 11.8537L16.4916 12.4714C16.5339 12.798 16.4087 13.1191 16.1564 13.3308C15.8265 13.6079 15.3903 13.7427 14.9629 13.7007L11.8584 13.3983C11.4349 13.357 11.0938 13.0491 11.0098 12.6318C10.9313 12.2419 11.1053 11.8383 11.4425 11.6274L11.4425 11.6274ZM10.7652 9.08327C10.8266 8.77934 10.7711 8.4666 10.6088 8.20247L10.5284 8.07155C10.2517 7.62121 9.7047 7.41202 9.19808 7.56263H9.19789L9.11636 7.58694C8.95903 7.63364 8.81568 7.72072 8.70142 7.83843C8.38524 8.16417 8.3416 8.67288 8.59768 9.04784L8.69969 9.19751C8.86793 9.44364 9.0731 9.66029 9.30911 9.84156L9.36327 9.88328C9.49839 9.98683 9.66126 10.0395 9.82471 10.0395C9.96653 10.0395 10.1085 9.99984 10.2331 9.92041C10.3191 9.86529 10.392 9.79467 10.4494 9.71065L10.5817 9.51773C10.672 9.38586 10.7338 9.23983 10.7652 9.08327L10.7652 9.08327ZM10.2273 8.97475C10.2105 9.05858 10.1774 9.13705 10.1292 9.20748L9.99691 9.40059C9.98102 9.42356 9.96092 9.44327 9.93739 9.45839C9.86313 9.50567 9.76705 9.50146 9.69796 9.44825L9.64379 9.40653C9.45355 9.26069 9.28857 9.08614 9.15305 8.88805L9.05104 8.73858C8.94137 8.578 8.96013 8.36039 9.09544 8.22088C9.14444 8.17055 9.20568 8.13323 9.27324 8.11332L9.35497 8.08902C9.6233 8.00863 9.91401 8.12002 10.061 8.35907L10.1414 8.48998C10.2306 8.63505 10.2612 8.80731 10.2273 8.97477L10.2273 8.97475ZM21.2568 13.0385C21.4036 13.0764 21.5539 13.0954 21.7041 13.0954C21.871 13.0954 22.0379 13.072 22.1994 13.0255C23.1106 12.7631 23.8932 12.1784 24.4031 11.3788L24.9773 10.4781C25.2297 10.0827 25.3537 9.62583 25.3363 9.15772C25.3082 8.39157 24.8567 7.71959 24.1581 7.4042C23.4425 7.08094 22.5995 7.20746 22.0101 7.72517L21.5565 8.12364C20.9971 8.61532 20.5632 9.24384 20.3023 9.94149L20.0269 10.677C19.8491 11.1519 19.8815 11.682 20.1157 12.1318C20.35 12.5813 20.7657 12.9119 21.2568 13.0386L21.2568 13.0385ZM20.541 10.8693L20.8165 10.1338C21.0459 9.52057 21.4272 8.96804 21.9191 8.53609L22.3726 8.13742C22.6431 7.89991 22.9868 7.77589 23.3348 7.77589C23.5373 7.77589 23.7415 7.81818 23.9329 7.9045C24.4401 8.13341 24.7677 8.62146 24.7884 9.17801C24.8016 9.53456 24.7069 9.88193 24.5151 10.1832L23.9409 11.0839C23.5028 11.7706 22.8305 12.273 22.0477 12.4983C21.8344 12.5597 21.6086 12.5626 21.3939 12.5075C21.0534 12.4196 20.7651 12.1905 20.6027 11.8785C20.4402 11.5664 20.4178 11.1987 20.541 10.8693V10.8693ZM21.7898 5.90065L24.6626 6.04859C24.6854 6.04974 24.7082 6.05031 24.7309 6.05031C24.9734 6.05031 25.2098 5.98447 25.418 5.85815C25.8668 5.586 26.1132 5.07383 26.0458 4.55364L25.9053 3.46921C25.8222 2.82824 25.2932 2.34269 24.6478 2.31457L22.4198 2.21753C22.0972 2.20299 21.7787 2.30806 21.527 2.51227L20.5875 3.27401C20.087 3.67976 19.9503 4.38353 20.2627 4.94713C20.575 5.51117 21.1457 5.86752 21.7898 5.90064L21.7898 5.90065ZM20.933 3.70043L21.8726 2.93869C22.0113 2.82615 22.1839 2.76529 22.3623 2.76529C22.3736 2.76529 22.3849 2.76548 22.396 2.76587L24.6238 2.8629C25.0024 2.87936 25.3124 3.16415 25.3608 3.53963L25.5015 4.62406C25.5409 4.92914 25.3964 5.22941 25.1333 5.38884C25.0001 5.46941 24.8487 5.50769 24.6906 5.50042L21.818 5.35248C21.3646 5.32913 20.9625 5.07802 20.7424 4.68108C20.5594 4.35074 20.6394 3.9385 20.933 3.70038L20.933 3.70043ZM11.3714 7.48248C11.3714 7.59617 11.3866 7.70909 11.4162 7.81818C11.5326 8.24402 11.8685 8.58433 12.2926 8.70643L13.2748 8.9893C13.7623 9.12959 14.2706 9.20041 14.7788 9.20041C15.0997 9.20041 15.4203 9.17227 15.7355 9.11562L17.3822 8.81973C18.3744 8.64135 19.1241 7.84956 19.2481 6.84916L19.335 6.14543C19.4219 5.444 19.3126 4.73337 19.0186 4.09029C18.5786 3.12816 17.5736 2.53217 16.5185 2.60738L15.0618 2.71131C14.4582 2.75437 13.9648 3.22155 13.889 3.82195L13.7483 4.93411C13.7167 5.18445 13.5537 5.40359 13.3228 5.50599L12.3873 5.92073C11.7703 6.19422 11.3714 6.80726 11.3714 7.48248L11.3714 7.48248ZM12.6099 6.42235L13.5454 6.00761C13.9508 5.8279 14.2371 5.44303 14.2928 5.003L14.4335 3.89084C14.4766 3.54902 14.7575 3.28319 15.1011 3.2587L16.5577 3.15477C16.6048 3.15152 16.6517 3.1496 16.6982 3.1496C17.4741 3.1496 18.1941 3.60626 18.5197 4.3184C18.7714 4.86882 18.8651 5.47706 18.7905 6.07785L18.7036 6.78158C18.6094 7.54199 18.0395 8.14391 17.2854 8.27919L15.6387 8.57508C14.9063 8.70675 14.1414 8.66752 13.4266 8.46177L12.4444 8.1789C12.2031 8.10942 12.0119 7.91555 11.9456 7.67326H11.9454C11.9286 7.61144 11.92 7.54714 11.92 7.48226C11.9204 7.02426 12.191 6.60817 12.61 6.42233L12.6099 6.42235ZM2.78084 14.2401L2.61567 14.4981C2.38504 14.858 2.47959 15.3307 2.8306 15.5741L2.93357 15.6459C3.26601 15.8765 3.65626 15.9965 4.05224 15.9965C4.22162 15.9965 4.39177 15.9745 4.55886 15.9301L5.82815 15.5917C6.43389 15.4302 6.97402 15.0972 7.3899 14.6283L8.09975 13.8287C8.32234 13.5776 8.3786 13.2172 8.24291 12.9108C8.07162 12.5228 7.64942 12.3205 7.23849 12.4271H7.23868L4.16208 13.2352C3.5902 13.3854 3.09985 13.7424 2.78084 14.2402L2.78084 14.2401ZM7.37783 12.958H7.37802C7.40463 12.9509 7.43142 12.9475 7.45783 12.9475C7.57822 12.9475 7.68999 13.0177 7.7409 13.1328C7.78989 13.2436 7.7698 13.3737 7.68922 13.4644L6.97937 14.2641C6.63525 14.652 6.18818 14.9278 5.68671 15.0614L4.41761 15.3997C4.01512 15.5071 3.5885 15.4321 3.24651 15.195L3.14354 15.1234C3.03617 15.0487 3.00708 14.904 3.0777 14.794L3.24306 14.536C3.48747 14.1544 3.86335 13.8809 4.30147 13.7658L7.37783 12.958ZM7.96711 6.14024C7.9916 6.14024 8.01629 6.13947 8.04098 6.13775L10.3497 5.98942C10.7396 5.96435 11.0931 5.73334 11.2726 5.38672L11.6919 4.57716C11.9249 4.1272 11.9427 3.60258 11.7404 3.1381C11.4563 2.48602 10.7884 2.08106 10.0795 2.13638L9.63567 2.16968C8.95507 2.22079 8.33806 2.56873 7.94261 3.12491L7.05647 4.37107C6.89934 4.59213 6.82776 4.86235 6.85475 5.13183C6.91293 5.71023 7.39448 6.14027 7.9671 6.14027L7.96711 6.14024ZM7.50375 4.68932L8.38989 3.44316C8.69037 3.02057 9.15947 2.75589 9.67662 2.71704L10.1203 2.68373C10.1484 2.68182 10.1763 2.68067 10.2043 2.68067C10.6493 2.68067 11.0575 2.94479 11.237 3.3574C11.3731 3.66975 11.3612 4.02228 11.2045 4.32488L10.7851 5.13463C10.6937 5.31148 10.5134 5.42918 10.3147 5.442L8.00597 5.59033C7.6942 5.60928 7.43159 5.38478 7.40097 5.07739V5.0772C7.387 4.93978 7.42375 4.80179 7.50375 4.68925L7.50375 4.68932ZM2.73125 4.35171C2.83843 4.79994 3.14045 5.16607 3.57011 5.36127C3.76629 5.45046 3.97547 5.49409 4.18295 5.49409C4.53951 5.49409 4.89188 5.36567 5.16841 5.11993C5.36018 4.94939 5.50526 4.73083 5.58755 4.48778C5.79636 3.8721 5.54353 3.18174 4.98657 2.84641L4.7613 2.71053C4.52494 2.56833 4.25468 2.50574 3.97928 2.53005C3.54693 2.56833 3.16472 2.81847 2.95649 3.19972L2.84682 3.40069C2.69313 3.68222 2.6495 4.00931 2.72395 4.32206L2.73125 4.35171ZM3.32876 3.66366L3.43823 3.46289C3.55823 3.24317 3.77853 3.09886 4.02751 3.07685C4.0499 3.07494 4.0721 3.07398 4.0943 3.07398C4.22962 3.07398 4.3611 3.11035 4.47823 3.18097L4.7035 3.31685C5.04111 3.52011 5.19444 3.93852 5.06772 4.31191C5.01585 4.46483 4.92456 4.60264 4.80379 4.71001C4.528 4.95499 4.13279 5.0147 3.78673 4.85718C3.52261 4.73718 3.33237 4.50636 3.26483 4.22425V4.22387L3.25775 4.19459C3.21507 4.0143 3.24014 3.82578 3.32875 3.66367L3.32876 3.66366ZM17.8512 18.9543C17.8617 18.9543 17.8722 18.9543 17.8827 18.9541L19.5769 18.93C20.1637 18.9218 20.7503 18.7761 21.2734 18.5091C21.8971 18.1905 22.4223 17.7072 22.7923 17.1116L23.0702 16.6644C23.2687 16.3443 23.332 15.9658 23.2484 15.5981C23.1062 14.9732 22.5592 14.5185 21.9188 14.493L21.4106 14.4727C21.38 14.4716 21.3492 14.4712 21.3178 14.4719L17.8473 14.5573C17.4364 14.5674 17.0504 14.7544 16.7878 15.0706L16.0594 15.9482C15.6 16.5017 15.5481 17.2829 15.9306 17.8923C16.3428 18.5495 17.0764 18.9543 17.8511 18.9543L17.8512 18.9543ZM16.4816 16.2986L17.21 15.4211C17.3712 15.227 17.6085 15.112 17.8607 15.1057L21.3302 15.0205C21.3375 15.0203 21.3446 15.0203 21.3518 15.0203C21.3637 15.0203 21.3754 15.0205 21.3876 15.0209L21.8967 15.0412C22.2901 15.057 22.626 15.3361 22.7134 15.7198C22.7647 15.9455 22.7257 16.1782 22.6037 16.3748L22.326 16.8219V16.8221C22.0089 17.3327 21.5586 17.7471 21.0238 18.0202C20.5752 18.2491 20.0722 18.374 19.5691 18.3811L17.8749 18.4052C17.2793 18.414 16.7118 18.1053 16.3953 17.6004C16.1392 17.1926 16.1738 16.6693 16.4816 16.2986L16.4816 16.2986Z" />
	</mask>
	<path d="M15.2822 24.3023H15.282C15.1107 24.1333 14.8848 24.0231 14.6458 23.9917L14.0881 23.9195C13.6651 23.8667 13.2418 24.0627 13.0121 24.4227C12.8741 24.6386 12.8152 24.8981 12.8462 25.1527L12.8649 25.3066C12.9283 25.8271 13.3537 26.2356 13.8766 26.2773L14.4738 26.3249C14.5036 26.3274 14.5335 26.3284 14.5633 26.3284C14.6711 26.3284 14.7779 26.3125 14.8814 26.2815C15.3578 26.1381 15.6803 25.7075 15.6837 25.2099L15.6839 25.1691C15.6858 24.8719 15.5658 24.5821 15.3541 24.3731L15.2822 24.3023ZM15.1348 25.2063C15.1331 25.4616 14.9677 25.6824 14.7229 25.7561C14.6565 25.7762 14.587 25.7841 14.5176 25.7778L13.9203 25.7301C13.6563 25.7089 13.4418 25.5029 13.4096 25.2399L13.3909 25.0861C13.3752 24.9576 13.4048 24.8269 13.4747 24.7178C13.5779 24.5559 13.758 24.4593 13.9472 24.4593C13.9706 24.4593 13.9943 24.4606 14.0179 24.4639L14.5752 24.5356C14.696 24.5515 14.8102 24.6072 14.8969 24.6926L14.9687 24.7636C15.0755 24.8688 15.1362 25.0154 15.1352 25.1653L15.1348 25.2063ZM13.0324 16.8485L13.0177 16.8091C13.0173 16.8079 13.0169 16.807 13.0165 16.8058L12.992 16.7429C12.6622 15.8973 11.8634 15.3212 10.9568 15.2753C10.574 15.2544 10.187 15.3335 9.84098 15.4996L9.62643 15.6026C8.64137 16.0753 8.21319 17.2665 8.67233 18.2581L8.75252 18.4311C8.89166 18.7314 9.10124 18.9997 9.35924 19.2072C9.74795 19.5198 10.2274 19.6844 10.7143 19.6844C10.9187 19.6844 11.1244 19.6555 11.3254 19.5961L11.7195 19.4799C12.2324 19.3286 12.6565 18.9868 12.9134 18.5176C13.1941 18.0045 13.2376 17.3961 13.0324 16.8485H13.0324ZM12.4322 18.2543C12.2454 18.5953 11.9372 18.8435 11.5642 18.9538L11.1701 19.07C10.6635 19.2194 10.1148 19.1109 9.70331 18.7798C9.51096 18.6252 9.35421 18.4248 9.25067 18.2009L9.17048 18.0279C8.83688 17.3071 9.14789 16.4412 9.86407 16.0977L10.0786 15.9947C10.3161 15.8806 10.5779 15.8215 10.8411 15.8215C10.8704 15.8215 10.8998 15.8221 10.9293 15.8236C11.6204 15.8586 12.2294 16.2979 12.4809 16.9423L12.5188 17.0412C12.6675 17.4389 12.6361 17.8812 12.4321 18.2542L12.4322 18.2543ZM10.1724 22.6616C10.1055 22.5883 10.0322 22.5198 9.95426 22.4574L8.68708 21.4445C8.2842 21.1226 7.77987 20.9781 7.26811 21.0365C6.75615 21.0953 6.29813 21.3504 5.97893 21.755C5.71232 22.0928 5.56552 22.5155 5.56552 22.9458V23.9349C5.56552 24.858 6.22393 25.6525 7.13148 25.8234L8.52865 26.0866C8.64846 26.1093 8.76865 26.1202 8.88789 26.1202C9.34053 26.1202 9.77996 25.9602 10.1317 25.66L10.1823 25.6171C10.5821 25.2756 10.8202 24.7987 10.8525 24.2739C10.8849 23.7493 10.7075 23.2465 10.3526 22.8584L10.1724 22.6616ZM9.82641 25.1994L9.77608 25.2423C9.45799 25.5137 9.04036 25.6247 8.63041 25.5476L7.23324 25.2844C6.58502 25.1619 6.11437 24.5947 6.11437 23.9351V22.946C6.11437 22.6386 6.21925 22.3366 6.40987 22.0953C6.63781 21.8061 6.96509 21.6239 7.33104 21.5819C7.38425 21.5758 7.43746 21.5728 7.49028 21.5728C7.80014 21.5728 8.09871 21.6771 8.34467 21.8734L9.61185 22.8863C9.66736 22.9307 9.7198 22.9799 9.76746 23.0321L9.76765 23.0323L9.94774 23.2291C10.2011 23.5062 10.328 23.8654 10.3049 24.2404C10.2817 24.6149 10.1116 24.9558 9.82641 25.1994L9.82641 25.1994ZM3.08751 11.3635L5.24813 11.8175C5.34134 11.8372 5.43569 11.8467 5.52967 11.8467C5.82192 11.8467 6.10939 11.7531 6.34765 11.5759L7.47054 10.7405C7.94424 10.3881 8.1389 9.77473 7.95457 9.21397L7.73772 8.55365C7.58729 8.09546 7.20127 7.74654 6.73042 7.64282L3.66356 6.968C3.34528 6.89795 3.01148 6.94407 2.72421 7.09718C2.27693 7.33585 1.99902 7.799 1.99902 8.30601V10.0226C1.99921 10.667 2.45683 11.231 3.08747 11.3635L3.08751 11.3635ZM2.54796 8.30603C2.54796 8.0021 2.71447 7.7244 2.9828 7.58143C3.15544 7.48937 3.35506 7.462 3.54606 7.50392L6.61291 8.17874C6.89521 8.24075 7.12659 8.44994 7.21674 8.7248L7.43359 9.38512C7.54402 9.7212 7.42746 10.089 7.14363 10.3004L6.02074 11.1358C5.83183 11.2763 5.59164 11.3293 5.3614 11.2807L3.20078 10.8267C2.82278 10.7471 2.54835 10.4091 2.54835 10.0227L2.54796 8.30603ZM4.46263 22.8711C4.42665 22.4448 4.14435 22.0737 3.74337 21.925C3.50356 21.8362 3.23773 21.8333 2.9954 21.9171L2.84898 21.9681C2.35368 22.1397 2.04437 22.6418 2.11365 23.1615L2.21566 23.924C2.22619 23.9809 2.25107 24.035 2.33202 24.1757C2.53241 24.524 2.8995 24.7303 3.28975 24.7303C3.36535 24.7303 3.44191 24.7225 3.51808 24.7068L3.57799 24.6942C3.8689 24.6333 4.12708 24.4545 4.28613 24.2044L4.34067 24.1187C4.46986 23.9152 4.52977 23.6712 4.50948 23.4314L4.46263 22.8711ZM3.87791 23.8242L3.82355 23.9099C3.74317 24.0364 3.61283 24.1264 3.46642 24.157L3.4067 24.1696C3.1688 24.2188 2.92842 24.1116 2.80782 23.9019C2.78486 23.8623 2.76534 23.8282 2.75309 23.8039L2.65777 23.089C2.62275 22.8266 2.77893 22.5735 3.02907 22.4867L3.17529 22.4358C3.29778 22.3935 3.43195 22.3949 3.55291 22.4396C3.75521 22.5147 3.8976 22.702 3.91578 22.9172L3.96286 23.4777C3.9732 23.5985 3.94296 23.7218 3.87788 23.8241L3.87791 23.8242ZM26.5317 12.6257C26.3543 12.3889 26.0836 12.2341 25.7895 12.2008C25.4953 12.1673 25.1967 12.2582 24.9707 12.4496C24.7397 12.6454 24.6008 12.9315 24.5897 13.2346L24.5104 15.4601C24.4982 15.7989 24.5763 16.1359 24.7368 16.4347L25.5328 17.9186C25.6567 18.1492 25.8974 18.29 26.1539 18.29C26.1889 18.29 26.2243 18.2874 26.2599 18.2818C26.5922 18.2311 26.8435 17.9501 26.8569 17.6142L26.9981 14.125C27.0198 13.588 26.8542 13.0553 26.5317 12.6256L26.5317 12.6257ZM26.3089 17.5924C26.306 17.6666 26.2505 17.7286 26.1774 17.7397C26.1104 17.7499 26.0477 17.7175 26.0167 17.6596L25.2203 16.1755C25.1058 15.9623 25.0501 15.7219 25.0587 15.48L25.138 13.2545C25.1435 13.1054 25.2118 12.9646 25.3255 12.8685C25.4226 12.7864 25.542 12.7428 25.667 12.7428C25.6873 12.7428 25.7077 12.7439 25.728 12.7462C25.8748 12.7627 26.0042 12.8369 26.093 12.955C26.3397 13.284 26.4666 13.6917 26.4501 14.1032L26.3089 17.5924ZM26.311 23.2681C26.3068 23.238 26.3011 23.2082 26.2947 23.1772L25.7889 20.8325C25.7034 20.4353 25.4524 20.0914 25.1003 19.8887L24.6402 19.624C24.0708 19.2967 23.3471 19.3886 22.8786 19.847C22.523 20.1945 22.3711 20.7117 22.4817 21.1965L22.8493 22.8047C22.9259 23.1395 23.1201 23.4365 23.3963 23.6409L24.7269 24.625C24.9734 24.8072 25.2769 24.9071 25.5835 24.9071H25.5969C25.8086 24.905 26.0097 24.8239 26.1634 24.6778C26.3603 24.4905 26.4539 24.2181 26.4137 23.949L26.311 23.2681ZM25.7853 24.2803C25.7328 24.3301 25.6639 24.3578 25.5916 24.3586H25.5834C25.3937 24.3586 25.2058 24.2968 25.0534 24.1842L23.7229 23.2001C23.552 23.0734 23.432 22.8899 23.3845 22.6828L23.0169 21.0745C22.9485 20.7746 23.0425 20.4548 23.2626 20.2397C23.4387 20.0674 23.6724 19.9779 23.9082 19.9779C24.0655 19.9779 24.2242 20.0179 24.3665 20.1L24.8267 20.3647C25.0445 20.49 25.1997 20.7028 25.2527 20.9486L25.7583 23.2922C25.7622 23.3102 25.7656 23.3283 25.7683 23.3469C25.7685 23.3475 25.7685 23.3482 25.7685 23.3488L25.8711 24.0309C25.8846 24.1228 25.8525 24.216 25.7853 24.2803L25.7853 24.2803ZM17.4702 20.0066L16.2099 19.788C15.5304 19.6699 14.8395 19.7595 14.2123 20.0467C13.5392 20.3547 13.1719 21.1019 13.339 21.823C13.4374 22.2477 13.7367 22.6003 14.1398 22.7664L15.984 23.5259C16.2772 23.6464 16.5858 23.7209 16.9012 23.7471C16.9875 23.754 17.0734 23.7576 17.1592 23.7576C17.8767 23.7576 18.5661 23.5092 19.123 23.0455L19.1447 23.0275C19.3422 22.8629 19.488 22.6464 19.5665 22.4017C19.6957 21.9974 19.6254 21.55 19.3782 21.2047C18.9213 20.5662 18.2436 20.1409 17.4702 20.0066L17.4702 20.0066ZM19.0438 22.2342C18.9975 22.3794 18.911 22.5077 18.794 22.6051L18.7724 22.6231C18.2598 23.0501 17.6108 23.2552 16.9465 23.1999C16.6874 23.1783 16.4338 23.1172 16.193 23.0181L14.3489 22.2586C14.1099 22.1603 13.9321 21.9511 13.8737 21.699C13.7652 21.2307 14.0039 20.7455 14.441 20.5453C14.8163 20.3734 15.219 20.286 15.6261 20.286C15.7894 20.286 15.9532 20.2999 16.1165 20.3284L17.3768 20.547C18.0074 20.6565 18.5599 21.0033 18.9326 21.5237C19.0788 21.7287 19.1205 21.9943 19.0438 22.2341L19.0438 22.2342ZM21.8291 23.8495C21.8289 23.8495 21.8289 23.8493 21.8287 23.8493L21.3158 23.7831C20.8934 23.7303 20.4695 23.9259 20.2396 24.2863C20.1018 24.5022 20.0428 24.7613 20.0736 25.0159L20.0811 25.0773C20.1345 25.5162 20.4597 25.8785 20.8905 25.9787L21.614 26.1474C21.6929 26.1659 21.7732 26.1749 21.8536 26.1749C21.9564 26.1749 22.0592 26.16 22.1583 26.1301C22.6052 25.9956 22.9076 25.5918 22.9105 25.1253L22.9107 25.0891C22.9132 24.7561 22.7784 24.4311 22.5413 24.1971C22.3497 24.0076 22.0967 23.8843 21.8292 23.8495L21.8291 23.8495ZM22.3619 25.1213C22.3604 25.3458 22.2151 25.5399 22.0002 25.6044C21.9152 25.6304 21.8245 25.6333 21.7388 25.613L21.0151 25.4444C20.808 25.3961 20.6516 25.222 20.626 25.0109L20.6185 24.9494C20.603 24.821 20.6325 24.6907 20.7024 24.5816C20.8055 24.4197 20.9854 24.3228 21.1745 24.3228C21.1981 24.3228 21.222 24.3243 21.2457 24.3276L21.7587 24.3938C21.9081 24.4133 22.0494 24.4822 22.1564 24.5879C22.2886 24.7184 22.3638 24.8999 22.3625 25.0851L22.3619 25.1213ZM6.11683 19.4074C6.3377 19.0039 6.37195 18.5257 6.21062 18.095V18.0948L6.08889 17.78C5.86324 17.2014 5.31701 16.8075 4.69692 16.7762L4.40638 16.7614C4.1459 16.7482 3.88027 16.8012 3.64313 16.9149L3.32408 17.068C2.54935 17.4397 2.21285 18.3764 2.574 19.1561L2.69228 19.4118C2.79391 19.6313 2.94721 19.8273 3.13554 19.9787L3.22913 20.0543C3.51488 20.284 3.86265 20.4038 4.21689 20.4038C4.38781 20.4038 4.56044 20.3758 4.72812 20.3188L5.23954 20.1448C5.61505 20.0171 5.92646 19.7553 6.11686 19.4074L6.11683 19.4074ZM5.06303 19.6252L4.55161 19.7992C4.21553 19.9136 3.84959 19.8489 3.5734 19.6267L3.47962 19.5511C3.35656 19.4522 3.25646 19.3241 3.19043 19.1812L3.07196 18.9255C2.83636 18.4165 3.05588 17.8053 3.56154 17.5628L3.88039 17.4099C4.01953 17.3431 4.17303 17.3082 4.3271 17.3082C4.34432 17.3082 4.36136 17.3086 4.37858 17.3094L4.66912 17.3241C5.07391 17.3446 5.43046 17.6018 5.57765 17.9794L5.69669 18.2874C5.80196 18.5685 5.77956 18.8807 5.63564 19.144C5.51123 19.371 5.30779 19.5419 5.06297 19.6252L5.06303 19.6252ZM11.8054 13.9446L14.9097 14.247C14.9784 14.2537 15.0473 14.2571 15.1158 14.2571C15.6215 14.2571 16.1198 14.078 16.5093 13.7515C16.9055 13.4191 17.1023 12.9142 17.0358 12.4012L16.9558 11.7834C16.8586 11.0334 16.215 10.4678 15.4586 10.4678L13.4482 10.4682C12.6723 10.4684 11.9142 10.6858 11.2558 11.0973L11.1515 11.1625C10.6216 11.4938 10.3482 12.1279 10.4717 12.7406C10.604 13.3959 11.1399 13.8799 11.8053 13.9446L11.8054 13.9446ZM11.4425 11.6274L11.5468 11.5622C12.1177 11.2054 12.7753 11.0167 13.4483 11.0167L15.4586 11.0163C15.94 11.0163 16.3498 11.3763 16.4116 11.8537L16.4916 12.4714C16.5339 12.798 16.4087 13.1191 16.1564 13.3308C15.8265 13.6079 15.3903 13.7427 14.9629 13.7007L11.8584 13.3983C11.4349 13.357 11.0938 13.0491 11.0098 12.6318C10.9313 12.2419 11.1053 11.8383 11.4425 11.6274L11.4425 11.6274ZM10.7652 9.08327C10.8266 8.77934 10.7711 8.4666 10.6088 8.20247L10.5284 8.07155C10.2517 7.62121 9.7047 7.41202 9.19808 7.56263H9.19789L9.11636 7.58694C8.95903 7.63364 8.81568 7.72072 8.70142 7.83843C8.38524 8.16417 8.3416 8.67288 8.59768 9.04784L8.69969 9.19751C8.86793 9.44364 9.0731 9.66029 9.30911 9.84156L9.36327 9.88328C9.49839 9.98683 9.66126 10.0395 9.82471 10.0395C9.96653 10.0395 10.1085 9.99984 10.2331 9.92041C10.3191 9.86529 10.392 9.79467 10.4494 9.71065L10.5817 9.51773C10.672 9.38586 10.7338 9.23983 10.7652 9.08327L10.7652 9.08327ZM10.2273 8.97475C10.2105 9.05858 10.1774 9.13705 10.1292 9.20748L9.99691 9.40059C9.98102 9.42356 9.96092 9.44327 9.93739 9.45839C9.86313 9.50567 9.76705 9.50146 9.69796 9.44825L9.64379 9.40653C9.45355 9.26069 9.28857 9.08614 9.15305 8.88805L9.05104 8.73858C8.94137 8.578 8.96013 8.36039 9.09544 8.22088C9.14444 8.17055 9.20568 8.13323 9.27324 8.11332L9.35497 8.08902C9.6233 8.00863 9.91401 8.12002 10.061 8.35907L10.1414 8.48998C10.2306 8.63505 10.2612 8.80731 10.2273 8.97477L10.2273 8.97475ZM21.2568 13.0385C21.4036 13.0764 21.5539 13.0954 21.7041 13.0954C21.871 13.0954 22.0379 13.072 22.1994 13.0255C23.1106 12.7631 23.8932 12.1784 24.4031 11.3788L24.9773 10.4781C25.2297 10.0827 25.3537 9.62583 25.3363 9.15772C25.3082 8.39157 24.8567 7.71959 24.1581 7.4042C23.4425 7.08094 22.5995 7.20746 22.0101 7.72517L21.5565 8.12364C20.9971 8.61532 20.5632 9.24384 20.3023 9.94149L20.0269 10.677C19.8491 11.1519 19.8815 11.682 20.1157 12.1318C20.35 12.5813 20.7657 12.9119 21.2568 13.0386L21.2568 13.0385ZM20.541 10.8693L20.8165 10.1338C21.0459 9.52057 21.4272 8.96804 21.9191 8.53609L22.3726 8.13742C22.6431 7.89991 22.9868 7.77589 23.3348 7.77589C23.5373 7.77589 23.7415 7.81818 23.9329 7.9045C24.4401 8.13341 24.7677 8.62146 24.7884 9.17801C24.8016 9.53456 24.7069 9.88193 24.5151 10.1832L23.9409 11.0839C23.5028 11.7706 22.8305 12.273 22.0477 12.4983C21.8344 12.5597 21.6086 12.5626 21.3939 12.5075C21.0534 12.4196 20.7651 12.1905 20.6027 11.8785C20.4402 11.5664 20.4178 11.1987 20.541 10.8693V10.8693ZM21.7898 5.90065L24.6626 6.04859C24.6854 6.04974 24.7082 6.05031 24.7309 6.05031C24.9734 6.05031 25.2098 5.98447 25.418 5.85815C25.8668 5.586 26.1132 5.07383 26.0458 4.55364L25.9053 3.46921C25.8222 2.82824 25.2932 2.34269 24.6478 2.31457L22.4198 2.21753C22.0972 2.20299 21.7787 2.30806 21.527 2.51227L20.5875 3.27401C20.087 3.67976 19.9503 4.38353 20.2627 4.94713C20.575 5.51117 21.1457 5.86752 21.7898 5.90064L21.7898 5.90065ZM20.933 3.70043L21.8726 2.93869C22.0113 2.82615 22.1839 2.76529 22.3623 2.76529C22.3736 2.76529 22.3849 2.76548 22.396 2.76587L24.6238 2.8629C25.0024 2.87936 25.3124 3.16415 25.3608 3.53963L25.5015 4.62406C25.5409 4.92914 25.3964 5.22941 25.1333 5.38884C25.0001 5.46941 24.8487 5.50769 24.6906 5.50042L21.818 5.35248C21.3646 5.32913 20.9625 5.07802 20.7424 4.68108C20.5594 4.35074 20.6394 3.9385 20.933 3.70038L20.933 3.70043ZM11.3714 7.48248C11.3714 7.59617 11.3866 7.70909 11.4162 7.81818C11.5326 8.24402 11.8685 8.58433 12.2926 8.70643L13.2748 8.9893C13.7623 9.12959 14.2706 9.20041 14.7788 9.20041C15.0997 9.20041 15.4203 9.17227 15.7355 9.11562L17.3822 8.81973C18.3744 8.64135 19.1241 7.84956 19.2481 6.84916L19.335 6.14543C19.4219 5.444 19.3126 4.73337 19.0186 4.09029C18.5786 3.12816 17.5736 2.53217 16.5185 2.60738L15.0618 2.71131C14.4582 2.75437 13.9648 3.22155 13.889 3.82195L13.7483 4.93411C13.7167 5.18445 13.5537 5.40359 13.3228 5.50599L12.3873 5.92073C11.7703 6.19422 11.3714 6.80726 11.3714 7.48248L11.3714 7.48248ZM12.6099 6.42235L13.5454 6.00761C13.9508 5.8279 14.2371 5.44303 14.2928 5.003L14.4335 3.89084C14.4766 3.54902 14.7575 3.28319 15.1011 3.2587L16.5577 3.15477C16.6048 3.15152 16.6517 3.1496 16.6982 3.1496C17.4741 3.1496 18.1941 3.60626 18.5197 4.3184C18.7714 4.86882 18.8651 5.47706 18.7905 6.07785L18.7036 6.78158C18.6094 7.54199 18.0395 8.14391 17.2854 8.27919L15.6387 8.57508C14.9063 8.70675 14.1414 8.66752 13.4266 8.46177L12.4444 8.1789C12.2031 8.10942 12.0119 7.91555 11.9456 7.67326H11.9454C11.9286 7.61144 11.92 7.54714 11.92 7.48226C11.9204 7.02426 12.191 6.60817 12.61 6.42233L12.6099 6.42235ZM2.78084 14.2401L2.61567 14.4981C2.38504 14.858 2.47959 15.3307 2.8306 15.5741L2.93357 15.6459C3.26601 15.8765 3.65626 15.9965 4.05224 15.9965C4.22162 15.9965 4.39177 15.9745 4.55886 15.9301L5.82815 15.5917C6.43389 15.4302 6.97402 15.0972 7.3899 14.6283L8.09975 13.8287C8.32234 13.5776 8.3786 13.2172 8.24291 12.9108C8.07162 12.5228 7.64942 12.3205 7.23849 12.4271H7.23868L4.16208 13.2352C3.5902 13.3854 3.09985 13.7424 2.78084 14.2402L2.78084 14.2401ZM7.37783 12.958H7.37802C7.40463 12.9509 7.43142 12.9475 7.45783 12.9475C7.57822 12.9475 7.68999 13.0177 7.7409 13.1328C7.78989 13.2436 7.7698 13.3737 7.68922 13.4644L6.97937 14.2641C6.63525 14.652 6.18818 14.9278 5.68671 15.0614L4.41761 15.3997C4.01512 15.5071 3.5885 15.4321 3.24651 15.195L3.14354 15.1234C3.03617 15.0487 3.00708 14.904 3.0777 14.794L3.24306 14.536C3.48747 14.1544 3.86335 13.8809 4.30147 13.7658L7.37783 12.958ZM7.96711 6.14024C7.9916 6.14024 8.01629 6.13947 8.04098 6.13775L10.3497 5.98942C10.7396 5.96435 11.0931 5.73334 11.2726 5.38672L11.6919 4.57716C11.9249 4.1272 11.9427 3.60258 11.7404 3.1381C11.4563 2.48602 10.7884 2.08106 10.0795 2.13638L9.63567 2.16968C8.95507 2.22079 8.33806 2.56873 7.94261 3.12491L7.05647 4.37107C6.89934 4.59213 6.82776 4.86235 6.85475 5.13183C6.91293 5.71023 7.39448 6.14027 7.9671 6.14027L7.96711 6.14024ZM7.50375 4.68932L8.38989 3.44316C8.69037 3.02057 9.15947 2.75589 9.67662 2.71704L10.1203 2.68373C10.1484 2.68182 10.1763 2.68067 10.2043 2.68067C10.6493 2.68067 11.0575 2.94479 11.237 3.3574C11.3731 3.66975 11.3612 4.02228 11.2045 4.32488L10.7851 5.13463C10.6937 5.31148 10.5134 5.42918 10.3147 5.442L8.00597 5.59033C7.6942 5.60928 7.43159 5.38478 7.40097 5.07739V5.0772C7.387 4.93978 7.42375 4.80179 7.50375 4.68925L7.50375 4.68932ZM2.73125 4.35171C2.83843 4.79994 3.14045 5.16607 3.57011 5.36127C3.76629 5.45046 3.97547 5.49409 4.18295 5.49409C4.53951 5.49409 4.89188 5.36567 5.16841 5.11993C5.36018 4.94939 5.50526 4.73083 5.58755 4.48778C5.79636 3.8721 5.54353 3.18174 4.98657 2.84641L4.7613 2.71053C4.52494 2.56833 4.25468 2.50574 3.97928 2.53005C3.54693 2.56833 3.16472 2.81847 2.95649 3.19972L2.84682 3.40069C2.69313 3.68222 2.6495 4.00931 2.72395 4.32206L2.73125 4.35171ZM3.32876 3.66366L3.43823 3.46289C3.55823 3.24317 3.77853 3.09886 4.02751 3.07685C4.0499 3.07494 4.0721 3.07398 4.0943 3.07398C4.22962 3.07398 4.3611 3.11035 4.47823 3.18097L4.7035 3.31685C5.04111 3.52011 5.19444 3.93852 5.06772 4.31191C5.01585 4.46483 4.92456 4.60264 4.80379 4.71001C4.528 4.95499 4.13279 5.0147 3.78673 4.85718C3.52261 4.73718 3.33237 4.50636 3.26483 4.22425V4.22387L3.25775 4.19459C3.21507 4.0143 3.24014 3.82578 3.32875 3.66367L3.32876 3.66366ZM17.8512 18.9543C17.8617 18.9543 17.8722 18.9543 17.8827 18.9541L19.5769 18.93C20.1637 18.9218 20.7503 18.7761 21.2734 18.5091C21.8971 18.1905 22.4223 17.7072 22.7923 17.1116L23.0702 16.6644C23.2687 16.3443 23.332 15.9658 23.2484 15.5981C23.1062 14.9732 22.5592 14.5185 21.9188 14.493L21.4106 14.4727C21.38 14.4716 21.3492 14.4712 21.3178 14.4719L17.8473 14.5573C17.4364 14.5674 17.0504 14.7544 16.7878 15.0706L16.0594 15.9482C15.6 16.5017 15.5481 17.2829 15.9306 17.8923C16.3428 18.5495 17.0764 18.9543 17.8511 18.9543L17.8512 18.9543ZM16.4816 16.2986L17.21 15.4211C17.3712 15.227 17.6085 15.112 17.8607 15.1057L21.3302 15.0205C21.3375 15.0203 21.3446 15.0203 21.3518 15.0203C21.3637 15.0203 21.3754 15.0205 21.3876 15.0209L21.8967 15.0412C22.2901 15.057 22.626 15.3361 22.7134 15.7198C22.7647 15.9455 22.7257 16.1782 22.6037 16.3748L22.326 16.8219V16.8221C22.0089 17.3327 21.5586 17.7471 21.0238 18.0202C20.5752 18.2491 20.0722 18.374 19.5691 18.3811L17.8749 18.4052C17.2793 18.414 16.7118 18.1053 16.3953 17.6004C16.1392 17.1926 16.1738 16.6693 16.4816 16.2986L16.4816 16.2986Z" fill="#444444" />
	<path d="M15.2822 24.3023H15.282C15.1107 24.1333 14.8848 24.0231 14.6458 23.9917L14.0881 23.9195C13.6651 23.8667 13.2418 24.0627 13.0121 24.4227C12.8741 24.6386 12.8152 24.8981 12.8462 25.1527L12.8649 25.3066C12.9283 25.8271 13.3537 26.2356 13.8766 26.2773L14.4738 26.3249C14.5036 26.3274 14.5335 26.3284 14.5633 26.3284C14.6711 26.3284 14.7779 26.3125 14.8814 26.2815C15.3578 26.1381 15.6803 25.7075 15.6837 25.2099L15.6839 25.1691C15.6858 24.8719 15.5658 24.5821 15.3541 24.3731L15.2822 24.3023ZM15.1348 25.2063C15.1331 25.4616 14.9677 25.6824 14.7229 25.7561C14.6565 25.7762 14.587 25.7841 14.5176 25.7778L13.9203 25.7301C13.6563 25.7089 13.4418 25.5029 13.4096 25.2399L13.3909 25.0861C13.3752 24.9576 13.4048 24.8269 13.4747 24.7178C13.5779 24.5559 13.758 24.4593 13.9472 24.4593C13.9706 24.4593 13.9943 24.4606 14.0179 24.4639L14.5752 24.5356C14.696 24.5515 14.8102 24.6072 14.8969 24.6926L14.9687 24.7636C15.0755 24.8688 15.1362 25.0154 15.1352 25.1653L15.1348 25.2063ZM13.0324 16.8485L13.0177 16.8091C13.0173 16.8079 13.0169 16.807 13.0165 16.8058L12.992 16.7429C12.6622 15.8973 11.8634 15.3212 10.9568 15.2753C10.574 15.2544 10.187 15.3335 9.84098 15.4996L9.62643 15.6026C8.64137 16.0753 8.21319 17.2665 8.67233 18.2581L8.75252 18.4311C8.89166 18.7314 9.10124 18.9997 9.35924 19.2072C9.74795 19.5198 10.2274 19.6844 10.7143 19.6844C10.9187 19.6844 11.1244 19.6555 11.3254 19.5961L11.7195 19.4799C12.2324 19.3286 12.6565 18.9868 12.9134 18.5176C13.1941 18.0045 13.2376 17.3961 13.0324 16.8485H13.0324ZM12.4322 18.2543C12.2454 18.5953 11.9372 18.8435 11.5642 18.9538L11.1701 19.07C10.6635 19.2194 10.1148 19.1109 9.70331 18.7798C9.51096 18.6252 9.35421 18.4248 9.25067 18.2009L9.17048 18.0279C8.83688 17.3071 9.14789 16.4412 9.86407 16.0977L10.0786 15.9947C10.3161 15.8806 10.5779 15.8215 10.8411 15.8215C10.8704 15.8215 10.8998 15.8221 10.9293 15.8236C11.6204 15.8586 12.2294 16.2979 12.4809 16.9423L12.5188 17.0412C12.6675 17.4389 12.6361 17.8812 12.4321 18.2542L12.4322 18.2543ZM10.1724 22.6616C10.1055 22.5883 10.0322 22.5198 9.95426 22.4574L8.68708 21.4445C8.2842 21.1226 7.77987 20.9781 7.26811 21.0365C6.75615 21.0953 6.29813 21.3504 5.97893 21.755C5.71232 22.0928 5.56552 22.5155 5.56552 22.9458V23.9349C5.56552 24.858 6.22393 25.6525 7.13148 25.8234L8.52865 26.0866C8.64846 26.1093 8.76865 26.1202 8.88789 26.1202C9.34053 26.1202 9.77996 25.9602 10.1317 25.66L10.1823 25.6171C10.5821 25.2756 10.8202 24.7987 10.8525 24.2739C10.8849 23.7493 10.7075 23.2465 10.3526 22.8584L10.1724 22.6616ZM9.82641 25.1994L9.77608 25.2423C9.45799 25.5137 9.04036 25.6247 8.63041 25.5476L7.23324 25.2844C6.58502 25.1619 6.11437 24.5947 6.11437 23.9351V22.946C6.11437 22.6386 6.21925 22.3366 6.40987 22.0953C6.63781 21.8061 6.96509 21.6239 7.33104 21.5819C7.38425 21.5758 7.43746 21.5728 7.49028 21.5728C7.80014 21.5728 8.09871 21.6771 8.34467 21.8734L9.61185 22.8863C9.66736 22.9307 9.7198 22.9799 9.76746 23.0321L9.76765 23.0323L9.94774 23.2291C10.2011 23.5062 10.328 23.8654 10.3049 24.2404C10.2817 24.6149 10.1116 24.9558 9.82641 25.1994L9.82641 25.1994ZM3.08751 11.3635L5.24813 11.8175C5.34134 11.8372 5.43569 11.8467 5.52967 11.8467C5.82192 11.8467 6.10939 11.7531 6.34765 11.5759L7.47054 10.7405C7.94424 10.3881 8.1389 9.77473 7.95457 9.21397L7.73772 8.55365C7.58729 8.09546 7.20127 7.74654 6.73042 7.64282L3.66356 6.968C3.34528 6.89795 3.01148 6.94407 2.72421 7.09718C2.27693 7.33585 1.99902 7.799 1.99902 8.30601V10.0226C1.99921 10.667 2.45683 11.231 3.08747 11.3635L3.08751 11.3635ZM2.54796 8.30603C2.54796 8.0021 2.71447 7.7244 2.9828 7.58143C3.15544 7.48937 3.35506 7.462 3.54606 7.50392L6.61291 8.17874C6.89521 8.24075 7.12659 8.44994 7.21674 8.7248L7.43359 9.38512C7.54402 9.7212 7.42746 10.089 7.14363 10.3004L6.02074 11.1358C5.83183 11.2763 5.59164 11.3293 5.3614 11.2807L3.20078 10.8267C2.82278 10.7471 2.54835 10.4091 2.54835 10.0227L2.54796 8.30603ZM4.46263 22.8711C4.42665 22.4448 4.14435 22.0737 3.74337 21.925C3.50356 21.8362 3.23773 21.8333 2.9954 21.9171L2.84898 21.9681C2.35368 22.1397 2.04437 22.6418 2.11365 23.1615L2.21566 23.924C2.22619 23.9809 2.25107 24.035 2.33202 24.1757C2.53241 24.524 2.8995 24.7303 3.28975 24.7303C3.36535 24.7303 3.44191 24.7225 3.51808 24.7068L3.57799 24.6942C3.8689 24.6333 4.12708 24.4545 4.28613 24.2044L4.34067 24.1187C4.46986 23.9152 4.52977 23.6712 4.50948 23.4314L4.46263 22.8711ZM3.87791 23.8242L3.82355 23.9099C3.74317 24.0364 3.61283 24.1264 3.46642 24.157L3.4067 24.1696C3.1688 24.2188 2.92842 24.1116 2.80782 23.9019C2.78486 23.8623 2.76534 23.8282 2.75309 23.8039L2.65777 23.089C2.62275 22.8266 2.77893 22.5735 3.02907 22.4867L3.17529 22.4358C3.29778 22.3935 3.43195 22.3949 3.55291 22.4396C3.75521 22.5147 3.8976 22.702 3.91578 22.9172L3.96286 23.4777C3.9732 23.5985 3.94296 23.7218 3.87788 23.8241L3.87791 23.8242ZM26.5317 12.6257C26.3543 12.3889 26.0836 12.2341 25.7895 12.2008C25.4953 12.1673 25.1967 12.2582 24.9707 12.4496C24.7397 12.6454 24.6008 12.9315 24.5897 13.2346L24.5104 15.4601C24.4982 15.7989 24.5763 16.1359 24.7368 16.4347L25.5328 17.9186C25.6567 18.1492 25.8974 18.29 26.1539 18.29C26.1889 18.29 26.2243 18.2874 26.2599 18.2818C26.5922 18.2311 26.8435 17.9501 26.8569 17.6142L26.9981 14.125C27.0198 13.588 26.8542 13.0553 26.5317 12.6256L26.5317 12.6257ZM26.3089 17.5924C26.306 17.6666 26.2505 17.7286 26.1774 17.7397C26.1104 17.7499 26.0477 17.7175 26.0167 17.6596L25.2203 16.1755C25.1058 15.9623 25.0501 15.7219 25.0587 15.48L25.138 13.2545C25.1435 13.1054 25.2118 12.9646 25.3255 12.8685C25.4226 12.7864 25.542 12.7428 25.667 12.7428C25.6873 12.7428 25.7077 12.7439 25.728 12.7462C25.8748 12.7627 26.0042 12.8369 26.093 12.955C26.3397 13.284 26.4666 13.6917 26.4501 14.1032L26.3089 17.5924ZM26.311 23.2681C26.3068 23.238 26.3011 23.2082 26.2947 23.1772L25.7889 20.8325C25.7034 20.4353 25.4524 20.0914 25.1003 19.8887L24.6402 19.624C24.0708 19.2967 23.3471 19.3886 22.8786 19.847C22.523 20.1945 22.3711 20.7117 22.4817 21.1965L22.8493 22.8047C22.9259 23.1395 23.1201 23.4365 23.3963 23.6409L24.7269 24.625C24.9734 24.8072 25.2769 24.9071 25.5835 24.9071H25.5969C25.8086 24.905 26.0097 24.8239 26.1634 24.6778C26.3603 24.4905 26.4539 24.2181 26.4137 23.949L26.311 23.2681ZM25.7853 24.2803C25.7328 24.3301 25.6639 24.3578 25.5916 24.3586H25.5834C25.3937 24.3586 25.2058 24.2968 25.0534 24.1842L23.7229 23.2001C23.552 23.0734 23.432 22.8899 23.3845 22.6828L23.0169 21.0745C22.9485 20.7746 23.0425 20.4548 23.2626 20.2397C23.4387 20.0674 23.6724 19.9779 23.9082 19.9779C24.0655 19.9779 24.2242 20.0179 24.3665 20.1L24.8267 20.3647C25.0445 20.49 25.1997 20.7028 25.2527 20.9486L25.7583 23.2922C25.7622 23.3102 25.7656 23.3283 25.7683 23.3469C25.7685 23.3475 25.7685 23.3482 25.7685 23.3488L25.8711 24.0309C25.8846 24.1228 25.8525 24.216 25.7853 24.2803L25.7853 24.2803ZM17.4702 20.0066L16.2099 19.788C15.5304 19.6699 14.8395 19.7595 14.2123 20.0467C13.5392 20.3547 13.1719 21.1019 13.339 21.823C13.4374 22.2477 13.7367 22.6003 14.1398 22.7664L15.984 23.5259C16.2772 23.6464 16.5858 23.7209 16.9012 23.7471C16.9875 23.754 17.0734 23.7576 17.1592 23.7576C17.8767 23.7576 18.5661 23.5092 19.123 23.0455L19.1447 23.0275C19.3422 22.8629 19.488 22.6464 19.5665 22.4017C19.6957 21.9974 19.6254 21.55 19.3782 21.2047C18.9213 20.5662 18.2436 20.1409 17.4702 20.0066L17.4702 20.0066ZM19.0438 22.2342C18.9975 22.3794 18.911 22.5077 18.794 22.6051L18.7724 22.6231C18.2598 23.0501 17.6108 23.2552 16.9465 23.1999C16.6874 23.1783 16.4338 23.1172 16.193 23.0181L14.3489 22.2586C14.1099 22.1603 13.9321 21.9511 13.8737 21.699C13.7652 21.2307 14.0039 20.7455 14.441 20.5453C14.8163 20.3734 15.219 20.286 15.6261 20.286C15.7894 20.286 15.9532 20.2999 16.1165 20.3284L17.3768 20.547C18.0074 20.6565 18.5599 21.0033 18.9326 21.5237C19.0788 21.7287 19.1205 21.9943 19.0438 22.2341L19.0438 22.2342ZM21.8291 23.8495C21.8289 23.8495 21.8289 23.8493 21.8287 23.8493L21.3158 23.7831C20.8934 23.7303 20.4695 23.9259 20.2396 24.2863C20.1018 24.5022 20.0428 24.7613 20.0736 25.0159L20.0811 25.0773C20.1345 25.5162 20.4597 25.8785 20.8905 25.9787L21.614 26.1474C21.6929 26.1659 21.7732 26.1749 21.8536 26.1749C21.9564 26.1749 22.0592 26.16 22.1583 26.1301C22.6052 25.9956 22.9076 25.5918 22.9105 25.1253L22.9107 25.0891C22.9132 24.7561 22.7784 24.4311 22.5413 24.1971C22.3497 24.0076 22.0967 23.8843 21.8292 23.8495L21.8291 23.8495ZM22.3619 25.1213C22.3604 25.3458 22.2151 25.5399 22.0002 25.6044C21.9152 25.6304 21.8245 25.6333 21.7388 25.613L21.0151 25.4444C20.808 25.3961 20.6516 25.222 20.626 25.0109L20.6185 24.9494C20.603 24.821 20.6325 24.6907 20.7024 24.5816C20.8055 24.4197 20.9854 24.3228 21.1745 24.3228C21.1981 24.3228 21.222 24.3243 21.2457 24.3276L21.7587 24.3938C21.9081 24.4133 22.0494 24.4822 22.1564 24.5879C22.2886 24.7184 22.3638 24.8999 22.3625 25.0851L22.3619 25.1213ZM6.11683 19.4074C6.3377 19.0039 6.37195 18.5257 6.21062 18.095V18.0948L6.08889 17.78C5.86324 17.2014 5.31701 16.8075 4.69692 16.7762L4.40638 16.7614C4.1459 16.7482 3.88027 16.8012 3.64313 16.9149L3.32408 17.068C2.54935 17.4397 2.21285 18.3764 2.574 19.1561L2.69228 19.4118C2.79391 19.6313 2.94721 19.8273 3.13554 19.9787L3.22913 20.0543C3.51488 20.284 3.86265 20.4038 4.21689 20.4038C4.38781 20.4038 4.56044 20.3758 4.72812 20.3188L5.23954 20.1448C5.61505 20.0171 5.92646 19.7553 6.11686 19.4074L6.11683 19.4074ZM5.06303 19.6252L4.55161 19.7992C4.21553 19.9136 3.84959 19.8489 3.5734 19.6267L3.47962 19.5511C3.35656 19.4522 3.25646 19.3241 3.19043 19.1812L3.07196 18.9255C2.83636 18.4165 3.05588 17.8053 3.56154 17.5628L3.88039 17.4099C4.01953 17.3431 4.17303 17.3082 4.3271 17.3082C4.34432 17.3082 4.36136 17.3086 4.37858 17.3094L4.66912 17.3241C5.07391 17.3446 5.43046 17.6018 5.57765 17.9794L5.69669 18.2874C5.80196 18.5685 5.77956 18.8807 5.63564 19.144C5.51123 19.371 5.30779 19.5419 5.06297 19.6252L5.06303 19.6252ZM11.8054 13.9446L14.9097 14.247C14.9784 14.2537 15.0473 14.2571 15.1158 14.2571C15.6215 14.2571 16.1198 14.078 16.5093 13.7515C16.9055 13.4191 17.1023 12.9142 17.0358 12.4012L16.9558 11.7834C16.8586 11.0334 16.215 10.4678 15.4586 10.4678L13.4482 10.4682C12.6723 10.4684 11.9142 10.6858 11.2558 11.0973L11.1515 11.1625C10.6216 11.4938 10.3482 12.1279 10.4717 12.7406C10.604 13.3959 11.1399 13.8799 11.8053 13.9446L11.8054 13.9446ZM11.4425 11.6274L11.5468 11.5622C12.1177 11.2054 12.7753 11.0167 13.4483 11.0167L15.4586 11.0163C15.94 11.0163 16.3498 11.3763 16.4116 11.8537L16.4916 12.4714C16.5339 12.798 16.4087 13.1191 16.1564 13.3308C15.8265 13.6079 15.3903 13.7427 14.9629 13.7007L11.8584 13.3983C11.4349 13.357 11.0938 13.0491 11.0098 12.6318C10.9313 12.2419 11.1053 11.8383 11.4425 11.6274L11.4425 11.6274ZM10.7652 9.08327C10.8266 8.77934 10.7711 8.4666 10.6088 8.20247L10.5284 8.07155C10.2517 7.62121 9.7047 7.41202 9.19808 7.56263H9.19789L9.11636 7.58694C8.95903 7.63364 8.81568 7.72072 8.70142 7.83843C8.38524 8.16417 8.3416 8.67288 8.59768 9.04784L8.69969 9.19751C8.86793 9.44364 9.0731 9.66029 9.30911 9.84156L9.36327 9.88328C9.49839 9.98683 9.66126 10.0395 9.82471 10.0395C9.96653 10.0395 10.1085 9.99984 10.2331 9.92041C10.3191 9.86529 10.392 9.79467 10.4494 9.71065L10.5817 9.51773C10.672 9.38586 10.7338 9.23983 10.7652 9.08327L10.7652 9.08327ZM10.2273 8.97475C10.2105 9.05858 10.1774 9.13705 10.1292 9.20748L9.99691 9.40059C9.98102 9.42356 9.96092 9.44327 9.93739 9.45839C9.86313 9.50567 9.76705 9.50146 9.69796 9.44825L9.64379 9.40653C9.45355 9.26069 9.28857 9.08614 9.15305 8.88805L9.05104 8.73858C8.94137 8.578 8.96013 8.36039 9.09544 8.22088C9.14444 8.17055 9.20568 8.13323 9.27324 8.11332L9.35497 8.08902C9.6233 8.00863 9.91401 8.12002 10.061 8.35907L10.1414 8.48998C10.2306 8.63505 10.2612 8.80731 10.2273 8.97477L10.2273 8.97475ZM21.2568 13.0385C21.4036 13.0764 21.5539 13.0954 21.7041 13.0954C21.871 13.0954 22.0379 13.072 22.1994 13.0255C23.1106 12.7631 23.8932 12.1784 24.4031 11.3788L24.9773 10.4781C25.2297 10.0827 25.3537 9.62583 25.3363 9.15772C25.3082 8.39157 24.8567 7.71959 24.1581 7.4042C23.4425 7.08094 22.5995 7.20746 22.0101 7.72517L21.5565 8.12364C20.9971 8.61532 20.5632 9.24384 20.3023 9.94149L20.0269 10.677C19.8491 11.1519 19.8815 11.682 20.1157 12.1318C20.35 12.5813 20.7657 12.9119 21.2568 13.0386L21.2568 13.0385ZM20.541 10.8693L20.8165 10.1338C21.0459 9.52057 21.4272 8.96804 21.9191 8.53609L22.3726 8.13742C22.6431 7.89991 22.9868 7.77589 23.3348 7.77589C23.5373 7.77589 23.7415 7.81818 23.9329 7.9045C24.4401 8.13341 24.7677 8.62146 24.7884 9.17801C24.8016 9.53456 24.7069 9.88193 24.5151 10.1832L23.9409 11.0839C23.5028 11.7706 22.8305 12.273 22.0477 12.4983C21.8344 12.5597 21.6086 12.5626 21.3939 12.5075C21.0534 12.4196 20.7651 12.1905 20.6027 11.8785C20.4402 11.5664 20.4178 11.1987 20.541 10.8693V10.8693ZM21.7898 5.90065L24.6626 6.04859C24.6854 6.04974 24.7082 6.05031 24.7309 6.05031C24.9734 6.05031 25.2098 5.98447 25.418 5.85815C25.8668 5.586 26.1132 5.07383 26.0458 4.55364L25.9053 3.46921C25.8222 2.82824 25.2932 2.34269 24.6478 2.31457L22.4198 2.21753C22.0972 2.20299 21.7787 2.30806 21.527 2.51227L20.5875 3.27401C20.087 3.67976 19.9503 4.38353 20.2627 4.94713C20.575 5.51117 21.1457 5.86752 21.7898 5.90064L21.7898 5.90065ZM20.933 3.70043L21.8726 2.93869C22.0113 2.82615 22.1839 2.76529 22.3623 2.76529C22.3736 2.76529 22.3849 2.76548 22.396 2.76587L24.6238 2.8629C25.0024 2.87936 25.3124 3.16415 25.3608 3.53963L25.5015 4.62406C25.5409 4.92914 25.3964 5.22941 25.1333 5.38884C25.0001 5.46941 24.8487 5.50769 24.6906 5.50042L21.818 5.35248C21.3646 5.32913 20.9625 5.07802 20.7424 4.68108C20.5594 4.35074 20.6394 3.9385 20.933 3.70038L20.933 3.70043ZM11.3714 7.48248C11.3714 7.59617 11.3866 7.70909 11.4162 7.81818C11.5326 8.24402 11.8685 8.58433 12.2926 8.70643L13.2748 8.9893C13.7623 9.12959 14.2706 9.20041 14.7788 9.20041C15.0997 9.20041 15.4203 9.17227 15.7355 9.11562L17.3822 8.81973C18.3744 8.64135 19.1241 7.84956 19.2481 6.84916L19.335 6.14543C19.4219 5.444 19.3126 4.73337 19.0186 4.09029C18.5786 3.12816 17.5736 2.53217 16.5185 2.60738L15.0618 2.71131C14.4582 2.75437 13.9648 3.22155 13.889 3.82195L13.7483 4.93411C13.7167 5.18445 13.5537 5.40359 13.3228 5.50599L12.3873 5.92073C11.7703 6.19422 11.3714 6.80726 11.3714 7.48248L11.3714 7.48248ZM12.6099 6.42235L13.5454 6.00761C13.9508 5.8279 14.2371 5.44303 14.2928 5.003L14.4335 3.89084C14.4766 3.54902 14.7575 3.28319 15.1011 3.2587L16.5577 3.15477C16.6048 3.15152 16.6517 3.1496 16.6982 3.1496C17.4741 3.1496 18.1941 3.60626 18.5197 4.3184C18.7714 4.86882 18.8651 5.47706 18.7905 6.07785L18.7036 6.78158C18.6094 7.54199 18.0395 8.14391 17.2854 8.27919L15.6387 8.57508C14.9063 8.70675 14.1414 8.66752 13.4266 8.46177L12.4444 8.1789C12.2031 8.10942 12.0119 7.91555 11.9456 7.67326H11.9454C11.9286 7.61144 11.92 7.54714 11.92 7.48226C11.9204 7.02426 12.191 6.60817 12.61 6.42233L12.6099 6.42235ZM2.78084 14.2401L2.61567 14.4981C2.38504 14.858 2.47959 15.3307 2.8306 15.5741L2.93357 15.6459C3.26601 15.8765 3.65626 15.9965 4.05224 15.9965C4.22162 15.9965 4.39177 15.9745 4.55886 15.9301L5.82815 15.5917C6.43389 15.4302 6.97402 15.0972 7.3899 14.6283L8.09975 13.8287C8.32234 13.5776 8.3786 13.2172 8.24291 12.9108C8.07162 12.5228 7.64942 12.3205 7.23849 12.4271H7.23868L4.16208 13.2352C3.5902 13.3854 3.09985 13.7424 2.78084 14.2402L2.78084 14.2401ZM7.37783 12.958H7.37802C7.40463 12.9509 7.43142 12.9475 7.45783 12.9475C7.57822 12.9475 7.68999 13.0177 7.7409 13.1328C7.78989 13.2436 7.7698 13.3737 7.68922 13.4644L6.97937 14.2641C6.63525 14.652 6.18818 14.9278 5.68671 15.0614L4.41761 15.3997C4.01512 15.5071 3.5885 15.4321 3.24651 15.195L3.14354 15.1234C3.03617 15.0487 3.00708 14.904 3.0777 14.794L3.24306 14.536C3.48747 14.1544 3.86335 13.8809 4.30147 13.7658L7.37783 12.958ZM7.96711 6.14024C7.9916 6.14024 8.01629 6.13947 8.04098 6.13775L10.3497 5.98942C10.7396 5.96435 11.0931 5.73334 11.2726 5.38672L11.6919 4.57716C11.9249 4.1272 11.9427 3.60258 11.7404 3.1381C11.4563 2.48602 10.7884 2.08106 10.0795 2.13638L9.63567 2.16968C8.95507 2.22079 8.33806 2.56873 7.94261 3.12491L7.05647 4.37107C6.89934 4.59213 6.82776 4.86235 6.85475 5.13183C6.91293 5.71023 7.39448 6.14027 7.9671 6.14027L7.96711 6.14024ZM7.50375 4.68932L8.38989 3.44316C8.69037 3.02057 9.15947 2.75589 9.67662 2.71704L10.1203 2.68373C10.1484 2.68182 10.1763 2.68067 10.2043 2.68067C10.6493 2.68067 11.0575 2.94479 11.237 3.3574C11.3731 3.66975 11.3612 4.02228 11.2045 4.32488L10.7851 5.13463C10.6937 5.31148 10.5134 5.42918 10.3147 5.442L8.00597 5.59033C7.6942 5.60928 7.43159 5.38478 7.40097 5.07739V5.0772C7.387 4.93978 7.42375 4.80179 7.50375 4.68925L7.50375 4.68932ZM2.73125 4.35171C2.83843 4.79994 3.14045 5.16607 3.57011 5.36127C3.76629 5.45046 3.97547 5.49409 4.18295 5.49409C4.53951 5.49409 4.89188 5.36567 5.16841 5.11993C5.36018 4.94939 5.50526 4.73083 5.58755 4.48778C5.79636 3.8721 5.54353 3.18174 4.98657 2.84641L4.7613 2.71053C4.52494 2.56833 4.25468 2.50574 3.97928 2.53005C3.54693 2.56833 3.16472 2.81847 2.95649 3.19972L2.84682 3.40069C2.69313 3.68222 2.6495 4.00931 2.72395 4.32206L2.73125 4.35171ZM3.32876 3.66366L3.43823 3.46289C3.55823 3.24317 3.77853 3.09886 4.02751 3.07685C4.0499 3.07494 4.0721 3.07398 4.0943 3.07398C4.22962 3.07398 4.3611 3.11035 4.47823 3.18097L4.7035 3.31685C5.04111 3.52011 5.19444 3.93852 5.06772 4.31191C5.01585 4.46483 4.92456 4.60264 4.80379 4.71001C4.528 4.95499 4.13279 5.0147 3.78673 4.85718C3.52261 4.73718 3.33237 4.50636 3.26483 4.22425V4.22387L3.25775 4.19459C3.21507 4.0143 3.24014 3.82578 3.32875 3.66367L3.32876 3.66366ZM17.8512 18.9543C17.8617 18.9543 17.8722 18.9543 17.8827 18.9541L19.5769 18.93C20.1637 18.9218 20.7503 18.7761 21.2734 18.5091C21.8971 18.1905 22.4223 17.7072 22.7923 17.1116L23.0702 16.6644C23.2687 16.3443 23.332 15.9658 23.2484 15.5981C23.1062 14.9732 22.5592 14.5185 21.9188 14.493L21.4106 14.4727C21.38 14.4716 21.3492 14.4712 21.3178 14.4719L17.8473 14.5573C17.4364 14.5674 17.0504 14.7544 16.7878 15.0706L16.0594 15.9482C15.6 16.5017 15.5481 17.2829 15.9306 17.8923C16.3428 18.5495 17.0764 18.9543 17.8511 18.9543L17.8512 18.9543ZM16.4816 16.2986L17.21 15.4211C17.3712 15.227 17.6085 15.112 17.8607 15.1057L21.3302 15.0205C21.3375 15.0203 21.3446 15.0203 21.3518 15.0203C21.3637 15.0203 21.3754 15.0205 21.3876 15.0209L21.8967 15.0412C22.2901 15.057 22.626 15.3361 22.7134 15.7198C22.7647 15.9455 22.7257 16.1782 22.6037 16.3748L22.326 16.8219V16.8221C22.0089 17.3327 21.5586 17.7471 21.0238 18.0202C20.5752 18.2491 20.0722 18.374 19.5691 18.3811L17.8749 18.4052C17.2793 18.414 16.7118 18.1053 16.3953 17.6004C16.1392 17.1926 16.1738 16.6693 16.4816 16.2986L16.4816 16.2986Z" stroke="#444444" stroke-width="0.4" mask="url(#path-1-outside-1_1529_358767)" />
</svg>