<svg width="29" height="29" viewBox="0 0 29 29" fill="none" xmlns="http://www.w3.org/2000/svg">
	<mask id="path-1-outside-1_1529_358779" maskUnits="userSpaceOnUse" x="3" y="1.78027" width="25" height="25" fill="black">
		<rect fill="white" x="3" y="1.78027" width="25" height="25" />
		<path d="M27 25.9267L27 3.07335C27 2.91148 26.869 2.78027 26.7069 2.78027L3.85361 2.78027C3.69174 2.78027 3.56053 2.91128 3.56053 3.07335L3.56053 25.9267C3.56053 26.0885 3.69154 26.2197 3.85361 26.2197L26.7069 26.2195C26.869 26.2195 27 26.0885 27 25.9265L27 25.9267ZM15.7313 25.6338L15.7313 18.4948L26.414 18.4948L26.414 25.6338L15.7313 25.6338ZM20.6359 10.9303L20.6359 17.9088L9.86901 17.9088L9.86881 10.9303L20.6359 10.9303ZM21.2218 17.9088L21.2218 10.9303L26.4142 10.9303L26.4142 17.9088L21.2218 17.9088ZM9.28245 10.9303L9.28245 17.9088L4.14653 17.9086L4.14653 10.9301L9.28245 10.9303ZM26.4141 10.3442L21.0084 10.3442C20.9826 10.3368 20.9571 10.3283 20.9289 10.3283C20.9007 10.3283 20.8751 10.3368 20.8494 10.3442L15.7315 10.3442L15.7315 3.3663L26.4141 3.3663L26.4141 10.3442ZM15.1454 3.3663L15.1454 10.3442L9.65497 10.3442C9.62922 10.3368 9.60367 10.3283 9.57547 10.3283C9.54727 10.3283 9.52172 10.3368 9.49597 10.3442L4.14679 10.3442L4.14679 3.3663L15.1454 3.3663ZM4.14674 18.4946L15.1454 18.4946L15.1454 25.6336L4.14674 25.6336L4.14674 18.4946Z" />
	</mask>
	<path d="M27 25.9267L27 3.07335C27 2.91148 26.869 2.78027 26.7069 2.78027L3.85361 2.78027C3.69174 2.78027 3.56053 2.91128 3.56053 3.07335L3.56053 25.9267C3.56053 26.0885 3.69154 26.2197 3.85361 26.2197L26.7069 26.2195C26.869 26.2195 27 26.0885 27 25.9265L27 25.9267ZM15.7313 25.6338L15.7313 18.4948L26.414 18.4948L26.414 25.6338L15.7313 25.6338ZM20.6359 10.9303L20.6359 17.9088L9.86901 17.9088L9.86881 10.9303L20.6359 10.9303ZM21.2218 17.9088L21.2218 10.9303L26.4142 10.9303L26.4142 17.9088L21.2218 17.9088ZM9.28245 10.9303L9.28245 17.9088L4.14653 17.9086L4.14653 10.9301L9.28245 10.9303ZM26.4141 10.3442L21.0084 10.3442C20.9826 10.3368 20.9571 10.3283 20.9289 10.3283C20.9007 10.3283 20.8751 10.3368 20.8494 10.3442L15.7315 10.3442L15.7315 3.3663L26.4141 3.3663L26.4141 10.3442ZM15.1454 3.3663L15.1454 10.3442L9.65497 10.3442C9.62922 10.3368 9.60367 10.3283 9.57547 10.3283C9.54727 10.3283 9.52172 10.3368 9.49597 10.3442L4.14679 10.3442L4.14679 3.3663L15.1454 3.3663ZM4.14674 18.4946L15.1454 18.4946L15.1454 25.6336L4.14674 25.6336L4.14674 18.4946Z" fill="#444444" />
	<path d="M27 25.9267L27 3.07335C27 2.91148 26.869 2.78027 26.7069 2.78027L3.85361 2.78027C3.69174 2.78027 3.56053 2.91128 3.56053 3.07335L3.56053 25.9267C3.56053 26.0885 3.69154 26.2197 3.85361 26.2197L26.7069 26.2195C26.869 26.2195 27 26.0885 27 25.9265L27 25.9267ZM15.7313 25.6338L15.7313 18.4948L26.414 18.4948L26.414 25.6338L15.7313 25.6338ZM20.6359 10.9303L20.6359 17.9088L9.86901 17.9088L9.86881 10.9303L20.6359 10.9303ZM21.2218 17.9088L21.2218 10.9303L26.4142 10.9303L26.4142 17.9088L21.2218 17.9088ZM9.28245 10.9303L9.28245 17.9088L4.14653 17.9086L4.14653 10.9301L9.28245 10.9303ZM26.4141 10.3442L21.0084 10.3442C20.9826 10.3368 20.9571 10.3283 20.9289 10.3283C20.9007 10.3283 20.8751 10.3368 20.8494 10.3442L15.7315 10.3442L15.7315 3.3663L26.4141 3.3663L26.4141 10.3442ZM15.1454 3.3663L15.1454 10.3442L9.65497 10.3442C9.62922 10.3368 9.60367 10.3283 9.57547 10.3283C9.54727 10.3283 9.52172 10.3368 9.49597 10.3442L4.14679 10.3442L4.14679 3.3663L15.1454 3.3663ZM4.14674 18.4946L15.1454 18.4946L15.1454 25.6336L4.14674 25.6336L4.14674 18.4946Z" stroke="#444444" stroke-width="0.6" mask="url(#path-1-outside-1_1529_358779)" />
</svg>