<svg width="29" height="29" viewBox="0 0 29 29" fill="none" xmlns="http://www.w3.org/2000/svg">
	<mask id="path-1-outside-1_1529_358805" maskUnits="userSpaceOnUse" x="4.2998" y="17.0632" width="8" height="4" fill="black">
		<rect fill="white" x="4.2998" y="17.0632" width="8" height="4" />
		<path d="M11.8073 20.3073H5.52429C5.40031 20.3073 5.2998 20.2074 5.2998 20.0828V18.2877C5.2998 18.1641 5.40011 18.0632 5.52429 18.0632H11.8073C11.9313 18.0632 12.0316 18.1641 12.0316 18.2877V20.0828C12.0318 20.2074 11.9313 20.3073 11.8073 20.3073ZM5.74872 19.8585H11.5829V18.5122H5.74872V19.8585Z" />
	</mask>
	<path d="M11.8073 20.3073H5.52429C5.40031 20.3073 5.2998 20.2074 5.2998 20.0828V18.2877C5.2998 18.1641 5.40011 18.0632 5.52429 18.0632H11.8073C11.9313 18.0632 12.0316 18.1641 12.0316 18.2877V20.0828C12.0318 20.2074 11.9313 20.3073 11.8073 20.3073ZM5.74872 19.8585H11.5829V18.5122H5.74872V19.8585Z" fill="#444444" />
	<path d="M11.8073 20.3073H5.52429C5.40031 20.3073 5.2998 20.2074 5.2998 20.0828V18.2877C5.2998 18.1641 5.40011 18.0632 5.52429 18.0632H11.8073C11.9313 18.0632 12.0316 18.1641 12.0316 18.2877V20.0828C12.0318 20.2074 11.9313 20.3073 11.8073 20.3073ZM5.74872 19.8585H11.5829V18.5122H5.74872V19.8585Z" stroke="#444444" stroke-width="0.2" mask="url(#path-1-outside-1_1529_358805)" />
	<mask id="path-2-outside-2_1529_358805" maskUnits="userSpaceOnUse" x="15.9688" y="5.39526" width="8" height="2" fill="black">
		<rect fill="white" x="15.9688" y="5.39526" width="8" height="2" />
		<path d="M23.4761 6.84404H17.193C17.0691 6.84404 16.9688 6.74373 16.9688 6.61975C16.9688 6.49577 17.0691 6.39526 17.193 6.39526H23.4761C23.6 6.39526 23.7003 6.49557 23.7003 6.61975C23.7003 6.74373 23.6 6.84404 23.4758 6.84404H23.4761Z" />
	</mask>
	<path d="M23.4761 6.84404H17.193C17.0691 6.84404 16.9688 6.74373 16.9688 6.61975C16.9688 6.49577 17.0691 6.39526 17.193 6.39526H23.4761C23.6 6.39526 23.7003 6.49557 23.7003 6.61975C23.7003 6.74373 23.6 6.84404 23.4758 6.84404H23.4761Z" fill="#444444" />
	<path d="M23.4761 6.84404H17.193C17.0691 6.84404 16.9688 6.74373 16.9688 6.61975C16.9688 6.49577 17.0691 6.39526 17.193 6.39526H23.4761C23.6 6.39526 23.7003 6.49557 23.7003 6.61975C23.7003 6.74373 23.6 6.84404 23.4758 6.84404H23.4761Z" stroke="#444444" stroke-width="0.2" mask="url(#path-2-outside-2_1529_358805)" />
	<mask id="path-3-outside-3_1529_358805" maskUnits="userSpaceOnUse" x="10.582" y="5.39539" width="14" height="14" fill="black">
		<rect fill="white" x="10.582" y="5.39539" width="14" height="14" />
		<path d="M11.8065 18.5124C11.7491 18.5124 11.6917 18.4905 11.6478 18.4466C11.5601 18.3589 11.5601 18.2169 11.6478 18.1294L23.3161 6.46114C23.4038 6.37347 23.5458 6.37347 23.6333 6.46114C23.7209 6.5488 23.7209 6.69084 23.6333 6.77831L11.9655 18.4466C11.9215 18.4905 11.8642 18.5124 11.8068 18.5124H11.8065Z" />
	</mask>
	<path d="M11.8065 18.5124C11.7491 18.5124 11.6917 18.4905 11.6478 18.4466C11.5601 18.3589 11.5601 18.2169 11.6478 18.1294L23.3161 6.46114C23.4038 6.37347 23.5458 6.37347 23.6333 6.46114C23.7209 6.5488 23.7209 6.69084 23.6333 6.77831L11.9655 18.4466C11.9215 18.4905 11.8642 18.5124 11.8068 18.5124H11.8065Z" fill="#444444" />
	<path d="M11.8065 18.5124C11.7491 18.5124 11.6917 18.4905 11.6478 18.4466C11.5601 18.3589 11.5601 18.2169 11.6478 18.1294L23.3161 6.46114C23.4038 6.37347 23.5458 6.37347 23.6333 6.46114C23.7209 6.5488 23.7209 6.69084 23.6333 6.77831L11.9655 18.4466C11.9215 18.4905 11.8642 18.5124 11.8068 18.5124H11.8065Z" stroke="#444444" stroke-width="0.2" mask="url(#path-3-outside-3_1529_358805)" />
	<mask id="path-4-outside-4_1529_358805" maskUnits="userSpaceOnUse" x="10.582" y="7.19055" width="14" height="14" fill="black">
		<rect fill="white" x="10.582" y="7.19055" width="14" height="14" />
		<path d="M11.8065 20.3073C11.7491 20.3073 11.6917 20.2854 11.6478 20.2415C11.5601 20.1538 11.5601 20.0118 11.6478 19.9241L23.3161 8.2563C23.4038 8.16864 23.5458 8.16864 23.6333 8.2563C23.7209 8.34397 23.7209 8.48601 23.6333 8.57347L11.965 20.2418C11.9212 20.2857 11.8638 20.3076 11.8065 20.3076L11.8065 20.3073Z" />
	</mask>
	<path d="M11.8065 20.3073C11.7491 20.3073 11.6917 20.2854 11.6478 20.2415C11.5601 20.1538 11.5601 20.0118 11.6478 19.9241L23.3161 8.2563C23.4038 8.16864 23.5458 8.16864 23.6333 8.2563C23.7209 8.34397 23.7209 8.48601 23.6333 8.57347L11.965 20.2418C11.9212 20.2857 11.8638 20.3076 11.8065 20.3076L11.8065 20.3073Z" fill="#444444" />
	<path d="M11.8065 20.3073C11.7491 20.3073 11.6917 20.2854 11.6478 20.2415C11.5601 20.1538 11.5601 20.0118 11.6478 19.9241L23.3161 8.2563C23.4038 8.16864 23.5458 8.16864 23.6333 8.2563C23.7209 8.34397 23.7209 8.48601 23.6333 8.57347L11.965 20.2418C11.9212 20.2857 11.8638 20.3076 11.8065 20.3076L11.8065 20.3073Z" stroke="#444444" stroke-width="0.2" mask="url(#path-4-outside-4_1529_358805)" />
	<mask id="path-5-outside-5_1529_358805" maskUnits="userSpaceOnUse" x="4.2998" y="5.39539" width="14" height="14" fill="black">
		<rect fill="white" x="4.2998" y="5.39539" width="14" height="14" />
		<path d="M5.52424 18.5124C5.46686 18.5124 5.40949 18.4905 5.36555 18.4466C5.27789 18.3589 5.27789 18.2169 5.36555 18.1294L17.0339 6.46114C17.1215 6.37347 17.2636 6.37347 17.3512 6.46114C17.4389 6.5488 17.4389 6.69084 17.3512 6.77831L5.68293 18.4466C5.63899 18.4905 5.58161 18.5124 5.52424 18.5124H5.52424Z" />
	</mask>
	<path d="M5.52424 18.5124C5.46686 18.5124 5.40949 18.4905 5.36555 18.4466C5.27789 18.3589 5.27789 18.2169 5.36555 18.1294L17.0339 6.46114C17.1215 6.37347 17.2636 6.37347 17.3512 6.46114C17.4389 6.5488 17.4389 6.69084 17.3512 6.77831L5.68293 18.4466C5.63899 18.4905 5.58161 18.5124 5.52424 18.5124H5.52424Z" fill="#444444" />
	<path d="M5.52424 18.5124C5.46686 18.5124 5.40949 18.4905 5.36555 18.4466C5.27789 18.3589 5.27789 18.2169 5.36555 18.1294L17.0339 6.46114C17.1215 6.37347 17.2636 6.37347 17.3512 6.46114C17.4389 6.5488 17.4389 6.69084 17.3512 6.77831L5.68293 18.4466C5.63899 18.4905 5.58161 18.5124 5.52424 18.5124H5.52424Z" stroke="#444444" stroke-width="0.2" mask="url(#path-5-outside-5_1529_358805)" />
	<mask id="path-6-outside-6_1529_358805" maskUnits="userSpaceOnUse" x="22.25" y="5.39502" width="2" height="4" fill="black">
		<rect fill="white" x="22.25" y="5.39502" width="2" height="4" />
		<path d="M23.4745 8.63948C23.3505 8.63948 23.25 8.53918 23.25 8.415L23.2502 6.61951C23.2502 6.49553 23.3505 6.39502 23.4747 6.39502C23.5987 6.39502 23.699 6.49532 23.699 6.61951V8.415C23.699 8.53918 23.5987 8.63948 23.4745 8.63948Z" />
	</mask>
	<path d="M23.4745 8.63948C23.3505 8.63948 23.25 8.53918 23.25 8.415L23.2502 6.61951C23.2502 6.49553 23.3505 6.39502 23.4747 6.39502C23.5987 6.39502 23.699 6.49532 23.699 6.61951V8.415C23.699 8.53918 23.5987 8.63948 23.4745 8.63948Z" fill="#444444" />
	<path d="M23.4745 8.63948C23.3505 8.63948 23.25 8.53918 23.25 8.415L23.2502 6.61951C23.2502 6.49553 23.3505 6.39502 23.4747 6.39502C23.5987 6.39502 23.699 6.49532 23.699 6.61951V8.415C23.699 8.53918 23.5987 8.63948 23.4745 8.63948Z" stroke="#444444" stroke-width="0.2" mask="url(#path-6-outside-6_1529_358805)" />
	<mask id="path-7-outside-7_1529_358805" maskUnits="userSpaceOnUse" x="8.85352" y="13.2307" width="7" height="6" fill="black">
		<rect fill="white" x="8.85352" y="13.2307" width="7" height="6" />
		<path d="M10.1709 18.4467L9.85352 18.1295L12.9947 14.9883C14.3531 13.6292 15.5229 14.5115 15.5351 14.5213C15.6332 14.5973 15.6508 14.7382 15.5746 14.836C15.4992 14.9339 15.3581 14.9522 15.2598 14.8752C15.2259 14.8495 14.383 14.235 13.3119 15.3053L10.1709 18.4467Z" />
	</mask>
	<path d="M10.1709 18.4467L9.85352 18.1295L12.9947 14.9883C14.3531 13.6292 15.5229 14.5115 15.5351 14.5213C15.6332 14.5973 15.6508 14.7382 15.5746 14.836C15.4992 14.9339 15.3581 14.9522 15.2598 14.8752C15.2259 14.8495 14.383 14.235 13.3119 15.3053L10.1709 18.4467Z" fill="#444444" />
	<path d="M10.1709 18.4467L9.85352 18.1295L12.9947 14.9883C14.3531 13.6292 15.5229 14.5115 15.5351 14.5213C15.6332 14.5973 15.6508 14.7382 15.5746 14.836C15.4992 14.9339 15.3581 14.9522 15.2598 14.8752C15.2259 14.8495 14.383 14.235 13.3119 15.3053L10.1709 18.4467Z" stroke="#444444" stroke-width="0.2" mask="url(#path-7-outside-7_1529_358805)" />
	<mask id="path-8-outside-8_1529_358805" maskUnits="userSpaceOnUse" x="10.3584" y="8.08801" width="3" height="3" fill="black">
		<rect fill="white" x="10.3584" y="8.08801" width="3" height="3" />
		<path d="M11.5828 10.8833C11.5255 10.8833 11.4681 10.8614 11.4241 10.8175C11.3365 10.7298 11.3365 10.5878 11.4241 10.5001L12.7705 9.15376C12.8581 9.0661 13.0002 9.0661 13.0878 9.15376C13.1755 9.24143 13.1755 9.38347 13.0878 9.47093L11.7415 10.8173C11.6978 10.8614 11.6404 10.8833 11.5828 10.8833L11.5828 10.8833Z" />
	</mask>
	<path d="M11.5828 10.8833C11.5255 10.8833 11.4681 10.8614 11.4241 10.8175C11.3365 10.7298 11.3365 10.5878 11.4241 10.5001L12.7705 9.15376C12.8581 9.0661 13.0002 9.0661 13.0878 9.15376C13.1755 9.24143 13.1755 9.38347 13.0878 9.47093L11.7415 10.8173C11.6978 10.8614 11.6404 10.8833 11.5828 10.8833L11.5828 10.8833Z" fill="#444444" />
	<path d="M11.5828 10.8833C11.5255 10.8833 11.4681 10.8614 11.4241 10.8175C11.3365 10.7298 11.3365 10.5878 11.4241 10.5001L12.7705 9.15376C12.8581 9.0661 13.0002 9.0661 13.0878 9.15376C13.1755 9.24143 13.1755 9.38347 13.0878 9.47093L11.7415 10.8173C11.6978 10.8614 11.6404 10.8833 11.5828 10.8833L11.5828 10.8833Z" stroke="#444444" stroke-width="0.2" mask="url(#path-8-outside-8_1529_358805)" />
	<mask id="path-9-outside-9_1529_358805" maskUnits="userSpaceOnUse" x="-0.861328" y="19.7561" width="8" height="4" fill="black">
		<rect fill="white" x="-0.861328" y="19.7561" width="8" height="4" />
		<path d="M6.64597 23H0.362958C0.238977 23 0.138672 22.9001 0.138672 22.7757V20.9806C0.138672 20.857 0.238977 20.7561 0.362958 20.7561H6.64597C6.76995 20.7561 6.87046 20.8568 6.87046 20.9806V22.7757C6.87046 22.9001 6.77015 23 6.64597 23ZM0.587902 22.5512H6.42205V21.2049H0.587902V22.5512Z" />
	</mask>
	<path d="M6.64597 23H0.362958C0.238977 23 0.138672 22.9001 0.138672 22.7757V20.9806C0.138672 20.857 0.238977 20.7561 0.362958 20.7561H6.64597C6.76995 20.7561 6.87046 20.8568 6.87046 20.9806V22.7757C6.87046 22.9001 6.77015 23 6.64597 23ZM0.587902 22.5512H6.42205V21.2049H0.587902V22.5512Z" fill="#444444" />
	<path d="M6.64597 23H0.362958C0.238977 23 0.138672 22.9001 0.138672 22.7757V20.9806C0.138672 20.857 0.238977 20.7561 0.362958 20.7561H6.64597C6.76995 20.7561 6.87046 20.8568 6.87046 20.9806V22.7757C6.87046 22.9001 6.77015 23 6.64597 23ZM0.587902 22.5512H6.42205V21.2049H0.587902V22.5512Z" stroke="#444444" stroke-width="0.2" mask="url(#path-9-outside-9_1529_358805)" />
	<mask id="path-10-outside-10_1529_358805" maskUnits="userSpaceOnUse" x="10.8066" y="8.08691" width="4" height="2" fill="black">
		<rect fill="white" x="10.8066" y="8.08691" width="4" height="2" />
		<path d="M13.6026 9.53569H12.0309C11.9069 9.53569 11.8066 9.43538 11.8066 9.3112C11.8066 9.18722 11.9069 9.08691 12.0309 9.08691H13.6026C13.7265 9.08691 13.827 9.18722 13.827 9.3112C13.827 9.43538 13.7267 9.53569 13.6026 9.53569Z" />
	</mask>
	<path d="M13.6026 9.53569H12.0309C11.9069 9.53569 11.8066 9.43538 11.8066 9.3112C11.8066 9.18722 11.9069 9.08691 12.0309 9.08691H13.6026C13.7265 9.08691 13.827 9.18722 13.827 9.3112C13.827 9.43538 13.7267 9.53569 13.6026 9.53569Z" fill="#444444" />
	<path d="M13.6026 9.53569H12.0309C11.9069 9.53569 11.8066 9.43538 11.8066 9.3112C11.8066 9.18722 11.9069 9.08691 12.0309 9.08691H13.6026C13.7265 9.08691 13.827 9.18722 13.827 9.3112C13.827 9.43538 13.7267 9.53569 13.6026 9.53569Z" stroke="#444444" stroke-width="0.2" mask="url(#path-10-outside-10_1529_358805)" />
	<mask id="path-11-outside-11_1529_358805" maskUnits="userSpaceOnUse" x="5.42188" y="19.7701" width="4" height="4" fill="black">
		<rect fill="white" x="5.42188" y="19.7701" width="4" height="4" />
		<path d="M6.64631 22.9999C6.58893 22.9999 6.53156 22.9781 6.48762 22.9341C6.39996 22.8465 6.39996 22.7044 6.48762 22.617L8.26868 20.8359C8.35635 20.7482 8.49839 20.7482 8.58586 20.8359C8.67352 20.9236 8.67352 21.0656 8.58586 21.1531L6.8048 22.9341C6.76126 22.9781 6.70389 22.9999 6.64631 22.9999H6.64631Z" />
	</mask>
	<path d="M6.64631 22.9999C6.58893 22.9999 6.53156 22.9781 6.48762 22.9341C6.39996 22.8465 6.39996 22.7044 6.48762 22.617L8.26868 20.8359C8.35635 20.7482 8.49839 20.7482 8.58586 20.8359C8.67352 20.9236 8.67352 21.0656 8.58586 21.1531L6.8048 22.9341C6.76126 22.9781 6.70389 22.9999 6.64631 22.9999H6.64631Z" fill="#444444" />
	<path d="M6.64631 22.9999C6.58893 22.9999 6.53156 22.9781 6.48762 22.9341C6.39996 22.8465 6.39996 22.7044 6.48762 22.617L8.26868 20.8359C8.35635 20.7482 8.49839 20.7482 8.58586 20.8359C8.67352 20.9236 8.67352 21.0656 8.58586 21.1531L6.8048 22.9341C6.76126 22.9781 6.70389 22.9999 6.64631 22.9999H6.64631Z" stroke="#444444" stroke-width="0.2" mask="url(#path-11-outside-11_1529_358805)" />
	<mask id="path-12-outside-12_1529_358805" maskUnits="userSpaceOnUse" x="-0.861328" y="8.08777" width="14" height="14" fill="black">
		<rect fill="white" x="-0.861328" y="8.08777" width="14" height="14" />
		<path d="M0.363104 21.205C0.305728 21.205 0.248352 21.1831 0.204422 21.1392C0.116755 21.0515 0.116755 20.9095 0.204422 20.8218L11.8727 9.15352C11.9604 9.06585 12.1024 9.06585 12.1899 9.15352C12.2776 9.24118 12.2776 9.38322 12.1899 9.47069L0.522106 21.1395C0.478171 21.1832 0.420794 21.2051 0.363423 21.2051L0.363104 21.205Z" />
	</mask>
	<path d="M0.363104 21.205C0.305728 21.205 0.248352 21.1831 0.204422 21.1392C0.116755 21.0515 0.116755 20.9095 0.204422 20.8218L11.8727 9.15352C11.9604 9.06585 12.1024 9.06585 12.1899 9.15352C12.2776 9.24118 12.2776 9.38322 12.1899 9.47069L0.522106 21.1395C0.478171 21.1832 0.420794 21.2051 0.363423 21.2051L0.363104 21.205Z" fill="#444444" />
	<path d="M0.363104 21.205C0.305728 21.205 0.248352 21.1831 0.204422 21.1392C0.116755 21.0515 0.116755 20.9095 0.204422 20.8218L11.8727 9.15352C11.9604 9.06585 12.1024 9.06585 12.1899 9.15352C12.2776 9.24118 12.2776 9.38322 12.1899 9.47069L0.522106 21.1395C0.478171 21.1832 0.420794 21.2051 0.363423 21.2051L0.363104 21.205Z" stroke="#444444" stroke-width="0.2" mask="url(#path-12-outside-12_1529_358805)" />
	<mask id="path-13-outside-13_1529_358805" maskUnits="userSpaceOnUse" x="9.45996" y="19.7561" width="8" height="4" fill="black">
		<rect fill="white" x="9.45996" y="19.7561" width="8" height="4" />
		<path d="M16.9675 23H10.6844C10.5605 23 10.46 22.9001 10.46 22.7757V20.9806C10.46 20.857 10.5603 20.7561 10.6844 20.7561H16.9675C17.0914 20.7561 17.1917 20.8568 17.1917 20.9806V22.7757C17.1919 22.9001 17.0916 23 16.9675 23ZM10.9094 22.5512H16.7435V21.2049H10.9094V22.5512Z" />
	</mask>
	<path d="M16.9675 23H10.6844C10.5605 23 10.46 22.9001 10.46 22.7757V20.9806C10.46 20.857 10.5603 20.7561 10.6844 20.7561H16.9675C17.0914 20.7561 17.1917 20.8568 17.1917 20.9806V22.7757C17.1919 22.9001 17.0916 23 16.9675 23ZM10.9094 22.5512H16.7435V21.2049H10.9094V22.5512Z" fill="#444444" />
	<path d="M16.9675 23H10.6844C10.5605 23 10.46 22.9001 10.46 22.7757V20.9806C10.46 20.857 10.5603 20.7561 10.6844 20.7561H16.9675C17.0914 20.7561 17.1917 20.8568 17.1917 20.9806V22.7757C17.1919 22.9001 17.0916 23 16.9675 23ZM10.9094 22.5512H16.7435V21.2049H10.9094V22.5512Z" stroke="#444444" stroke-width="0.2" mask="url(#path-13-outside-13_1529_358805)" />
	<mask id="path-14-outside-14_1529_358805" maskUnits="userSpaceOnUse" x="22.2529" y="8.08789" width="7" height="2" fill="black">
		<rect fill="white" x="22.2529" y="8.08789" width="7" height="2" />
		<path d="M28.6362 9.53666H23.4774C23.3532 9.53666 23.2529 9.43636 23.2529 9.31218C23.2529 9.1882 23.3532 9.08789 23.4774 9.08789H28.6362C28.7602 9.08789 28.8605 9.1882 28.8605 9.31218C28.8605 9.43636 28.7602 9.53666 28.6362 9.53666Z" />
	</mask>
	<path d="M28.6362 9.53666H23.4774C23.3532 9.53666 23.2529 9.43636 23.2529 9.31218C23.2529 9.1882 23.3532 9.08789 23.4774 9.08789H28.6362C28.7602 9.08789 28.8605 9.1882 28.8605 9.31218C28.8605 9.43636 28.7602 9.53666 28.6362 9.53666Z" fill="#444444" />
	<path d="M28.6362 9.53666H23.4774C23.3532 9.53666 23.2529 9.43636 23.2529 9.31218C23.2529 9.1882 23.3532 9.08789 23.4774 9.08789H28.6362C28.7602 9.08789 28.8605 9.1882 28.8605 9.31218C28.8605 9.43636 28.7602 9.53666 28.6362 9.53666Z" stroke="#444444" stroke-width="0.2" mask="url(#path-14-outside-14_1529_358805)" />
	<mask id="path-15-outside-15_1529_358805" maskUnits="userSpaceOnUse" x="15.7432" y="8.08777" width="14" height="14" fill="black">
		<rect fill="white" x="15.7432" y="8.08777" width="14" height="14" />
		<path d="M16.9676 21.205C16.9102 21.205 16.8528 21.1831 16.8089 21.1392C16.7212 21.0515 16.7212 20.9095 16.8089 20.8218L28.4772 9.15352C28.5649 9.06585 28.7069 9.06585 28.7944 9.15352C28.8821 9.24118 28.8821 9.38322 28.7944 9.47069L17.1261 21.139C17.0823 21.1827 17.025 21.2046 16.9674 21.2046L16.9676 21.205Z" />
	</mask>
	<path d="M16.9676 21.205C16.9102 21.205 16.8528 21.1831 16.8089 21.1392C16.7212 21.0515 16.7212 20.9095 16.8089 20.8218L28.4772 9.15352C28.5649 9.06585 28.7069 9.06585 28.7944 9.15352C28.8821 9.24118 28.8821 9.38322 28.7944 9.47069L17.1261 21.139C17.0823 21.1827 17.025 21.2046 16.9674 21.2046L16.9676 21.205Z" fill="#444444" />
	<path d="M16.9676 21.205C16.9102 21.205 16.8528 21.1831 16.8089 21.1392C16.7212 21.0515 16.7212 20.9095 16.8089 20.8218L28.4772 9.15352C28.5649 9.06585 28.7069 9.06585 28.7944 9.15352C28.8821 9.24118 28.8821 9.38322 28.7944 9.47069L17.1261 21.139C17.0823 21.1827 17.025 21.2046 16.9674 21.2046L16.9676 21.205Z" stroke="#444444" stroke-width="0.2" mask="url(#path-15-outside-15_1529_358805)" />
	<mask id="path-16-outside-16_1529_358805" maskUnits="userSpaceOnUse" x="15.7432" y="9.88293" width="14" height="14" fill="black">
		<rect fill="white" x="15.7432" y="9.88293" width="14" height="14" />
		<path d="M16.9676 23C16.9102 23 16.8528 22.9781 16.8089 22.9342C16.7212 22.8465 16.7212 22.7045 16.8089 22.617L28.4772 10.9487C28.5649 10.861 28.7069 10.861 28.7944 10.9487C28.8821 11.0364 28.8821 11.1784 28.7944 11.2661L17.1266 22.9344C17.0829 22.9781 17.0255 23 16.9679 23H16.9676Z" />
	</mask>
	<path d="M16.9676 23C16.9102 23 16.8528 22.9781 16.8089 22.9342C16.7212 22.8465 16.7212 22.7045 16.8089 22.617L28.4772 10.9487C28.5649 10.861 28.7069 10.861 28.7944 10.9487C28.8821 11.0364 28.8821 11.1784 28.7944 11.2661L17.1266 22.9344C17.0829 22.9781 17.0255 23 16.9679 23H16.9676Z" fill="#444444" />
	<path d="M16.9676 23C16.9102 23 16.8528 22.9781 16.8089 22.9342C16.7212 22.8465 16.7212 22.7045 16.8089 22.617L28.4772 10.9487C28.5649 10.861 28.7069 10.861 28.7944 10.9487C28.8821 11.0364 28.8821 11.1784 28.7944 11.2661L17.1266 22.9344C17.0829 22.9781 17.0255 23 16.9679 23H16.9676Z" stroke="#444444" stroke-width="0.2" mask="url(#path-16-outside-16_1529_358805)" />
	<mask id="path-17-outside-17_1529_358805" maskUnits="userSpaceOnUse" x="27.4121" y="8.08813" width="2" height="4" fill="black">
		<rect fill="white" x="27.4121" y="8.08813" width="2" height="4" />
		<path d="M28.6364 11.3322C28.5124 11.3322 28.4121 11.2319 28.4121 11.1079V9.31242C28.4121 9.18844 28.5124 9.08813 28.6364 9.08813C28.7604 9.08813 28.8607 9.18844 28.8607 9.31242V11.1079C28.8607 11.2319 28.7604 11.3322 28.6364 11.3322Z" />
	</mask>
	<path d="M28.6364 11.3322C28.5124 11.3322 28.4121 11.2319 28.4121 11.1079V9.31242C28.4121 9.18844 28.5124 9.08813 28.6364 9.08813C28.7604 9.08813 28.8607 9.18844 28.8607 9.31242V11.1079C28.8607 11.2319 28.7604 11.3322 28.6364 11.3322Z" fill="#444444" />
	<path d="M28.6364 11.3322C28.5124 11.3322 28.4121 11.2319 28.4121 11.1079V9.31242C28.4121 9.18844 28.5124 9.08813 28.6364 9.08813C28.7604 9.08813 28.8607 9.18844 28.8607 9.31242V11.1079C28.8607 11.2319 28.7604 11.3322 28.6364 11.3322Z" stroke="#444444" stroke-width="0.2" mask="url(#path-17-outside-17_1529_358805)" />
	<mask id="path-18-outside-18_1529_358805" maskUnits="userSpaceOnUse" x="11.7051" y="17.9611" width="4" height="4" fill="black">
		<rect fill="white" x="11.7051" y="17.9611" width="4" height="4" />
		<path d="M12.9295 21.2051C12.8721 21.2051 12.8148 21.1832 12.7708 21.1393C12.6832 21.0516 12.6832 20.9096 12.7708 20.8219L14.5659 19.0268C14.6536 18.9391 14.7956 18.9391 14.8833 19.0268C14.9709 19.1145 14.9709 19.2565 14.8833 19.344L13.0882 21.1391C13.0445 21.1832 12.9871 21.2051 12.9295 21.2051L12.9295 21.2051Z" />
	</mask>
	<path d="M12.9295 21.2051C12.8721 21.2051 12.8148 21.1832 12.7708 21.1393C12.6832 21.0516 12.6832 20.9096 12.7708 20.8219L14.5659 19.0268C14.6536 18.9391 14.7956 18.9391 14.8833 19.0268C14.9709 19.1145 14.9709 19.2565 14.8833 19.344L13.0882 21.1391C13.0445 21.1832 12.9871 21.2051 12.9295 21.2051L12.9295 21.2051Z" fill="#444444" />
	<path d="M12.9295 21.2051C12.8721 21.2051 12.8148 21.1832 12.7708 21.1393C12.6832 21.0516 12.6832 20.9096 12.7708 20.8219L14.5659 19.0268C14.6536 18.9391 14.7956 18.9391 14.8833 19.0268C14.9709 19.1145 14.9709 19.2565 14.8833 19.344L13.0882 21.1391C13.0445 21.1832 12.9871 21.2051 12.9295 21.2051L12.9295 21.2051Z" stroke="#444444" stroke-width="0.2" mask="url(#path-18-outside-18_1529_358805)" />
	<mask id="path-19-outside-19_1529_358805" maskUnits="userSpaceOnUse" x="13.9482" y="16.6145" width="5" height="5" fill="black">
		<rect fill="white" x="13.9482" y="16.6145" width="5" height="5" />
		<path d="M15.1727 21.204C15.1153 21.204 15.0577 21.1821 15.014 21.1382C14.9263 21.0505 14.9263 20.9085 15.014 20.8208L18.1554 17.6803C18.2431 17.5926 18.3851 17.5926 18.4728 17.6803C18.5604 17.7679 18.5604 17.91 18.4728 17.9974L15.3314 21.138C15.2874 21.1819 15.2301 21.204 15.1727 21.204L15.1727 21.204Z" />
	</mask>
	<path d="M15.1727 21.204C15.1153 21.204 15.0577 21.1821 15.014 21.1382C14.9263 21.0505 14.9263 20.9085 15.014 20.8208L18.1554 17.6803C18.2431 17.5926 18.3851 17.5926 18.4728 17.6803C18.5604 17.7679 18.5604 17.91 18.4728 17.9974L15.3314 21.138C15.2874 21.1819 15.2301 21.204 15.1727 21.204L15.1727 21.204Z" fill="#444444" />
	<path d="M15.1727 21.204C15.1153 21.204 15.0577 21.1821 15.014 21.1382C14.9263 21.0505 14.9263 20.9085 15.014 20.8208L18.1554 17.6803C18.2431 17.5926 18.3851 17.5926 18.4728 17.6803C18.5604 17.7679 18.5604 17.91 18.4728 17.9974L15.3314 21.138C15.2874 21.1819 15.2301 21.204 15.1727 21.204L15.1727 21.204Z" stroke="#444444" stroke-width="0.2" mask="url(#path-19-outside-19_1529_358805)" />
	<mask id="path-20-outside-20_1529_358805" maskUnits="userSpaceOnUse" x="21.0537" y="8.1073" width="4" height="4" fill="black">
		<rect fill="white" x="21.0537" y="8.1073" width="4" height="4" />
		<path d="M22.3709 11.4066L22.0537 11.0894L23.9708 9.1728C24.0584 9.08553 24.2005 9.08533 24.2879 9.173C24.3756 9.26067 24.3756 9.4029 24.2879 9.49057L22.3709 11.4066Z" />
	</mask>
	<path d="M22.3709 11.4066L22.0537 11.0894L23.9708 9.1728C24.0584 9.08553 24.2005 9.08533 24.2879 9.173C24.3756 9.26067 24.3756 9.4029 24.2879 9.49057L22.3709 11.4066Z" fill="#444444" />
	<path d="M22.3709 11.4066L22.0537 11.0894L23.9708 9.1728C24.0584 9.08553 24.2005 9.08533 24.2879 9.173C24.3756 9.26067 24.3756 9.4029 24.2879 9.49057L22.3709 11.4066Z" stroke="#444444" stroke-width="0.2" mask="url(#path-20-outside-20_1529_358805)" />
	<mask id="path-21-outside-21_1529_358805" maskUnits="userSpaceOnUse" x="15.2959" y="5.39551" width="4" height="4" fill="black">
		<rect fill="white" x="15.2959" y="5.39551" width="4" height="4" />
		<path d="M16.5203 9.08889C16.463 9.08889 16.4056 9.06702 16.3616 9.02309C16.274 8.93542 16.274 8.79338 16.3616 8.70592L18.6059 6.46126C18.6936 6.37359 18.8356 6.37359 18.9231 6.46126C19.0107 6.54892 19.0107 6.69096 18.9231 6.77843L16.6788 9.02309C16.6351 9.06702 16.5777 9.08889 16.5203 9.08889H16.5203Z" />
	</mask>
	<path d="M16.5203 9.08889C16.463 9.08889 16.4056 9.06702 16.3616 9.02309C16.274 8.93542 16.274 8.79338 16.3616 8.70592L18.6059 6.46126C18.6936 6.37359 18.8356 6.37359 18.9231 6.46126C19.0107 6.54892 19.0107 6.69096 18.9231 6.77843L16.6788 9.02309C16.6351 9.06702 16.5777 9.08889 16.5203 9.08889H16.5203Z" fill="#444444" />
	<path d="M16.5203 9.08889C16.463 9.08889 16.4056 9.06702 16.3616 9.02309C16.274 8.93542 16.274 8.79338 16.3616 8.70592L18.6059 6.46126C18.6936 6.37359 18.8356 6.37359 18.9231 6.46126C19.0107 6.54892 19.0107 6.69096 18.9231 6.77843L16.6788 9.02309C16.6351 9.06702 16.5777 9.08889 16.5203 9.08889H16.5203Z" stroke="#444444" stroke-width="0.2" mask="url(#path-21-outside-21_1529_358805)" />
	<mask id="path-22-outside-22_1529_358805" maskUnits="userSpaceOnUse" x="15.2959" y="5.3949" width="7" height="7" fill="black">
		<rect fill="white" x="15.2959" y="5.3949" width="7" height="7" />
		<path d="M16.5203 11.3311C16.463 11.3311 16.4056 11.3093 16.3616 11.2653C16.274 11.1777 16.274 11.0356 16.3616 10.948L20.849 6.46065C20.9366 6.37298 21.0787 6.37298 21.1661 6.46065C21.2538 6.54831 21.2538 6.69035 21.1661 6.77782L16.679 11.2653C16.6351 11.3093 16.5777 11.3311 16.5203 11.3311L16.5203 11.3311Z" />
	</mask>
	<path d="M16.5203 11.3311C16.463 11.3311 16.4056 11.3093 16.3616 11.2653C16.274 11.1777 16.274 11.0356 16.3616 10.948L20.849 6.46065C20.9366 6.37298 21.0787 6.37298 21.1661 6.46065C21.2538 6.54831 21.2538 6.69035 21.1661 6.77782L16.679 11.2653C16.6351 11.3093 16.5777 11.3311 16.5203 11.3311L16.5203 11.3311Z" fill="#444444" />
	<path d="M16.5203 11.3311C16.463 11.3311 16.4056 11.3093 16.3616 11.2653C16.274 11.1777 16.274 11.0356 16.3616 10.948L20.849 6.46065C20.9366 6.37298 21.0787 6.37298 21.1661 6.46065C21.2538 6.54831 21.2538 6.69035 21.1661 6.77782L16.679 11.2653C16.6351 11.3093 16.5777 11.3311 16.5203 11.3311L16.5203 11.3311Z" stroke="#444444" stroke-width="0.2" mask="url(#path-22-outside-22_1529_358805)" />
</svg>