<svg width="29" height="29" viewBox="0 0 29 29" fill="none" xmlns="http://www.w3.org/2000/svg">
	<mask id="path-1-outside-1_1529_358884" maskUnits="userSpaceOnUse" x="3.55371" y="1" width="22" height="26" fill="black">
		<rect fill="white" x="3.55371" y="1" width="22" height="26" />
		<path d="M22.7981 4.42596L24.4479 25.4849L19.4986 25.873L19.3045 23.1559L15.617 23.4471L15.811 26.1643L10.7646 26.5525L10.5706 23.8353L6.20355 24.2234C5.62129 17.1394 5.13597 10.1522 4.55371 3.06758L9.50299 2.67941L9.79423 5.39659L13.4818 5.10535L13.2877 2.38817L18.237 2L18.4311 4.71718L22.7981 4.42596ZM22.2158 5.10534L18.5282 5.39658L20.0809 25.1935L23.7685 24.9022L22.2158 5.10534ZM17.6547 2.67917L13.9671 2.97041L15.5198 22.7673L19.2074 22.476L17.6547 2.67917ZM13.4818 5.78449L9.79425 6.07573L11.3469 25.8726L15.1317 25.5814L13.4818 5.78449ZM8.92074 3.35832L5.23317 3.64956L6.78582 23.544L10.5706 23.2527L8.92074 3.35832Z" />
	</mask>
	<path d="M22.7981 4.42596L24.4479 25.4849L19.4986 25.873L19.3045 23.1559L15.617 23.4471L15.811 26.1643L10.7646 26.5525L10.5706 23.8353L6.20355 24.2234C5.62129 17.1394 5.13597 10.1522 4.55371 3.06758L9.50299 2.67941L9.79423 5.39659L13.4818 5.10535L13.2877 2.38817L18.237 2L18.4311 4.71718L22.7981 4.42596ZM22.2158 5.10534L18.5282 5.39658L20.0809 25.1935L23.7685 24.9022L22.2158 5.10534ZM17.6547 2.67917L13.9671 2.97041L15.5198 22.7673L19.2074 22.476L17.6547 2.67917ZM13.4818 5.78449L9.79425 6.07573L11.3469 25.8726L15.1317 25.5814L13.4818 5.78449ZM8.92074 3.35832L5.23317 3.64956L6.78582 23.544L10.5706 23.2527L8.92074 3.35832Z" fill="#444444" />
	<path d="M22.7981 4.42596L24.4479 25.4849L19.4986 25.873L19.3045 23.1559L15.617 23.4471L15.811 26.1643L10.7646 26.5525L10.5706 23.8353L6.20355 24.2234C5.62129 17.1394 5.13597 10.1522 4.55371 3.06758L9.50299 2.67941L9.79423 5.39659L13.4818 5.10535L13.2877 2.38817L18.237 2L18.4311 4.71718L22.7981 4.42596ZM22.2158 5.10534L18.5282 5.39658L20.0809 25.1935L23.7685 24.9022L22.2158 5.10534ZM17.6547 2.67917L13.9671 2.97041L15.5198 22.7673L19.2074 22.476L17.6547 2.67917ZM13.4818 5.78449L9.79425 6.07573L11.3469 25.8726L15.1317 25.5814L13.4818 5.78449ZM8.92074 3.35832L5.23317 3.64956L6.78582 23.544L10.5706 23.2527L8.92074 3.35832Z" stroke="#444444" stroke-width="0.2" mask="url(#path-1-outside-1_1529_358884)" />
</svg>