<svg width="40" height="40" fill="none" xmlns="http://www.w3.org/2000/svg"><path d="M33.683 13.033 20.85 20.467c-.517.3-1.167.3-1.7 0L6.317 13.033c-.917-.533-1.15-1.783-.45-2.566.483-.55 1.033-1 1.616-1.317l9.034-5c1.933-1.083 5.066-1.083 7 0l9.033 5c.583.317 1.133.783 1.617 1.317.666.783.433 2.033-.484 2.566ZM19.05 23.567v11.366c0 1.267-1.283 2.1-2.417 1.55C13.2 34.8 7.417 31.65 7.417 31.65c-2.034-1.15-3.7-4.05-3.7-6.433v-8.6c0-1.317 1.383-2.15 2.516-1.5l11.984 6.95c.5.316.833.883.833 1.5Zm1.9 0v11.366c0 1.267 1.283 2.1 2.417 1.55 3.433-1.683 9.216-4.833 9.216-4.833 2.034-1.15 3.7-4.05 3.7-6.433v-8.6c0-1.317-1.383-2.15-2.516-1.5l-11.984 6.95c-.5.316-.833.883-.833 1.5Z" fill="#616B75"/></svg>