<svg width="28" height="28" fill="none" xmlns="http://www.w3.org/2000/svg"><path d="M12.365 4.842a.413.413 0 0 1-.408.408h-1.318a4.58 4.58 0 0 0-4.574 4.573v10.769a.413.413 0 0 1-.408.408H4.84a2.504 2.504 0 0 1-2.508-2.508V4.842A2.504 2.504 0 0 1 4.84 2.333h5.017a2.504 2.504 0 0 1 2.508 2.509Zm13.301 0v13.65A2.504 2.504 0 0 1 23.158 21h-.735a.413.413 0 0 1-.408-.408V9.823A4.58 4.58 0 0 0 17.44 5.25h-1.4a.413.413 0 0 1-.408-.408 2.504 2.504 0 0 1 2.508-2.509h5.017a2.504 2.504 0 0 1 2.508 2.509Z" fill="#A9AFB4"/><path d="M17.441 7H10.64a2.818 2.818 0 0 0-2.824 2.823v13.02a2.818 2.818 0 0 0 2.824 2.824h1.901a.578.578 0 0 0 .584-.584v-2.916a.88.88 0 0 1 .875-.875c.478 0 .875.396.875.875v2.916c0 .327.256.584.583.584h1.995a2.813 2.813 0 0 0 2.812-2.812V9.823A2.818 2.818 0 0 0 17.44 7Zm-1.108 10.208h-4.667a.881.881 0 0 1-.875-.875c0-.478.397-.875.875-.875h4.667c.478 0 .875.397.875.875a.881.881 0 0 1-.875.875Zm0-3.5h-4.667a.881.881 0 0 1-.875-.875c0-.478.397-.875.875-.875h4.667c.478 0 .875.397.875.875a.881.881 0 0 1-.875.875Z" fill="#A9AFB4"/></svg>