<svg width="20" height="20" fill="none" xmlns="http://www.w3.org/2000/svg"><path d="M1.664 3.458c0-1.191.6-1.791 1.792-1.791h3.583c1.192 0 1.792.6 1.792 1.791V5M5.58 15H3.457c-1.192 0-1.792-.6-1.792-1.792V6.7m12.813.317v9.3c0 1.341-.667 2.016-2.009 2.016H7.603c-1.342 0-2.017-.675-2.017-2.016v-9.3C5.586 5.675 6.26 5 7.603 5h4.866c1.342 0 2.009.675 2.009 2.017Z" stroke="#202A30" stroke-miterlimit="10" stroke-linecap="round" stroke-linejoin="round"/><path d="M11.164 5V3.458c0-1.191.6-1.791 1.792-1.791h3.583c1.192 0 1.792.6 1.792 1.791v9.75c0 1.192-.6 1.792-1.792 1.792h-2.067M8.336 9.167h3.333m-3.333 2.5h3.333M10 18.333v-2.5" stroke="#202A30" stroke-miterlimit="10" stroke-linecap="round" stroke-linejoin="round"/></svg>