<svg width="30" height="30" fill="none" xmlns="http://www.w3.org/2000/svg"><path d="M10 15.25h8.75m-8.75 5h5.475M12.5 7.5h5C20 7.5 20 6.25 20 5c0-2.5-1.25-2.5-2.5-2.5h-5c-1.25 0-2.5 0-2.5 2.5s1.25 2.5 2.5 2.5Z" stroke="#8CCAF1" stroke-width="1.3" stroke-miterlimit="10" stroke-linecap="round" stroke-linejoin="round"/><path d="M20 5.025c4.163.225 6.25 1.762 6.25 7.475V20c0 5-1.25 7.5-7.5 7.5h-7.5C5 27.5 3.75 25 3.75 20v-7.5c0-5.7 2.088-7.25 6.25-7.475" stroke="#8CCAF1" stroke-width="1.3" stroke-miterlimit="10" stroke-linecap="round" stroke-linejoin="round"/></svg>