<svg width="22" height="22" fill="none" xmlns="http://www.w3.org/2000/svg"><path d="M8.535 13.475 9.91 14.85l3.667-3.667" stroke="#202A30" stroke-width="1.3" stroke-linecap="round" stroke-linejoin="round"/><path d="M9.165 5.5h3.667c1.833 0 1.833-.917 1.833-1.833 0-1.834-.916-1.834-1.833-1.834H9.165c-.916 0-1.833 0-1.833 1.834 0 1.833.917 1.833 1.833 1.833Z" stroke="#202A30" stroke-width="1.3" stroke-miterlimit="10" stroke-linecap="round" stroke-linejoin="round"/><path d="M14.667 3.685c3.052.165 4.583 1.293 4.583 5.482v5.5c0 3.666-.917 5.5-5.5 5.5h-5.5c-4.583 0-5.5-1.834-5.5-5.5v-5.5c0-4.18 1.53-5.317 4.583-5.482" stroke="#202A30" stroke-width="1.3" stroke-miterlimit="10" stroke-linecap="round" stroke-linejoin="round"/></svg>