<svg width="30" height="30" fill="none" xmlns="http://www.w3.org/2000/svg"><path d="M15 2.5v8.75l2.5-2.5m-2.5 2.5-2.5-2.5m-10.023 7.5h5.512c.475 0 .9.262 1.113.688l1.462 2.925a2.5 2.5 0 0 0 2.238 1.387h4.412a2.5 2.5 0 0 0 2.238-1.387l1.462-2.925a1.25 1.25 0 0 1 1.113-.688h5.45" stroke="#8CCAF1" stroke-width="1.3" stroke-linecap="round" stroke-linejoin="round"/><path d="M8.75 5.163c-4.425.65-6.25 3.25-6.25 8.587v5C2.5 25 5 27.5 11.25 27.5h7.5c6.25 0 8.75-2.5 8.75-8.75v-5c0-5.337-1.825-7.937-6.25-8.587" stroke="#8CCAF1" stroke-width="1.3" stroke-linecap="round" stroke-linejoin="round"/></svg>