<svg width="40" height="40" fill="none" xmlns="http://www.w3.org/2000/svg"><path d="M32.391 6.724c.22.347-.157.75-.558.66a8.947 8.947 0 0 0-2.533-.35h-5.667a.5.5 0 0 1-.4-.2L21.217 4.15c-.235-.333-.013-.817.394-.817H26.2a7.328 7.328 0 0 1 6.191 3.391Z" fill="#616B75"/><path d="M33.567 10.9a6.965 6.965 0 0 0-2.417-1.117 6.88 6.88 0 0 0-1.85-.25h-6.2c-.967 0-1.033-.083-1.55-.766l-2.333-3.1c-1.084-1.45-1.934-2.334-4.65-2.334H10.7A7.369 7.369 0 0 0 3.333 10.7v18.6a7.37 7.37 0 0 0 7.367 7.367h18.6a7.37 7.37 0 0 0 7.367-7.367V16.9a7.318 7.318 0 0 0-3.1-6Zm-9.584 16.333H16c-.65 0-1.15-.516-1.15-1.166 0-.634.5-1.167 1.15-1.167h7.983c.65 0 1.167.533 1.167 1.167a1.16 1.16 0 0 1-1.167 1.166Z" fill="#616B75"/></svg>