<svg width="24" height="24" fill="none" xmlns="http://www.w3.org/2000/svg"><path fill-rule="evenodd" clip-rule="evenodd" d="M21 21.25h1c.41 0 .75.34.75.75s-.34.75-.75.75H2c-.41 0-.75-.34-.75-.75s.34-.75.75-.75h.95L3 9.97c0-.61.28-1.19.77-1.57l7-5.44c.72-.57 1.74-.57 2.46 0L14.57 4h3.41c.55 0 1 .44 1 .99L19 7.44l1.23.96c.49.38.77.96.77 1.58v11.27ZM12.53 9.135l3.14 1.69c.22.13.37.37.37.64s-.14.52-.37.64l-3.14 1.69c-.17.09-.35.13-.53.13-.18 0-.36-.04-.53-.13l-3.14-1.69a.716.716 0 0 1-.37-.64c0-.27.14-.52.37-.64l3.14-1.69c.33-.18.73-.18 1.06 0Zm-1.58 5.252-2.92-1.46a.727.727 0 0 0-.7.03c-.2.13-.33.36-.33.61v2.76c0 .48.26.91.69 1.12l2.92 1.46c.1.04.21.07.32.07.13 0 .26-.04.38-.11.21-.13.34-.36.34-.61v-2.76c0-.47-.27-.9-.7-1.11Zm5.011-1.46c.23-.11.49-.1.7.03.21.13.34.36.34.6v2.76c0 .48-.26.91-.69 1.12l-2.92 1.46c-.1.05-.21.08-.32.08-.13 0-.26-.04-.38-.1a.718.718 0 0 1-.34-.61v-2.76c0-.48.26-.91.69-1.12l2.92-1.46Z" fill="#A9AFB4"/></svg>