<svg width="28" height="28" fill="none" xmlns="http://www.w3.org/2000/svg"><path d="M20.453 9.065a.862.862 0 0 0-.245 0 3.353 3.353 0 0 1-3.243-3.36 3.373 3.373 0 0 1 3.372-3.372 3.373 3.373 0 0 1 3.371 3.372 3.371 3.371 0 0 1-3.255 3.36Zm3.803 8.085c-1.307.875-3.139 1.202-4.83.98a7.62 7.62 0 0 0 .688-3.138c0-1.167-.257-2.275-.747-3.244 1.727-.233 3.558.094 4.877.969 1.843 1.213 1.843 3.208.012 4.433ZM7.513 9.065a.862.862 0 0 1 .245 0A3.353 3.353 0 0 0 11 5.705a3.366 3.366 0 1 0-6.731 0 3.353 3.353 0 0 0 3.243 3.36Zm.129 5.927c0 1.131.245 2.205.689 3.173-1.645.175-3.36-.175-4.62-1.003-1.844-1.225-1.844-3.22 0-4.445 1.248-.84 3.01-1.179 4.666-.992a7.417 7.417 0 0 0-.735 3.267Zm6.5 3.523a1.315 1.315 0 0 0-.304 0 3.996 3.996 0 0 1-3.861-4.002 4.023 4.023 0 0 1 4.025-4.013 4.013 4.013 0 0 1 4.013 4.013 4.006 4.006 0 0 1-3.873 4.002Zm-3.793 2.415c-1.762 1.178-1.762 3.115 0 4.282 2.006 1.341 5.296 1.341 7.303 0 1.762-1.179 1.762-3.115 0-4.282-1.995-1.342-5.285-1.342-7.303 0Z" fill="#A9AFB4"/></svg>