<svg width="30" height="30" fill="none" xmlns="http://www.w3.org/2000/svg"><path d="M24.375 15.625c0-1.725 1.4-3.125 3.125-3.125v-1.25c0-5-1.25-6.25-6.25-6.25H8.75c-5 0-6.25 1.25-6.25 6.25v.625a3.126 3.126 0 0 1 0 6.25v.625c0 5 1.25 6.25 6.25 6.25h12.5c5 0 6.25-1.25 6.25-6.25a3.126 3.126 0 0 1-3.125-3.125ZM11.25 18.438l7.5-7.5" stroke="#8CCAF1" stroke-width="1.3" stroke-linecap="round" stroke-linejoin="round"/><path d="M18.743 18.438h.011m-7.511-6.875h.011" stroke="#8CCAF1" stroke-width="2" stroke-linecap="round" stroke-linejoin="round"/></svg>