<svg width="40" height="40" viewBox="0 0 40 40" fill="none" xmlns="http://www.w3.org/2000/svg">
<path d="M33.6833 13.0333L20.85 20.4667C20.3333 20.7667 19.6833 20.7667 19.15 20.4667L6.31666 13.0333C5.39999 12.5 5.16666 11.25 5.86666 10.4667C6.34999 9.91666 6.89999 9.46666 7.48332 9.14999L16.5167 4.14999C18.45 3.06666 21.5833 3.06666 23.5167 4.14999L32.55 9.14999C33.1333 9.46666 33.6833 9.93333 34.1667 10.4667C34.8333 11.25 34.6 12.5 33.6833 13.0333Z" fill="#616B75"/>
<path d="M19.05 23.5667V34.9333C19.05 36.2 17.7667 37.0333 16.6333 36.4833C13.2 34.8 7.41667 31.65 7.41667 31.65C5.38334 30.5 3.71667 27.6 3.71667 25.2167V16.6167C3.71667 15.3 5.10001 14.4667 6.23334 15.1167L18.2167 22.0667C18.7167 22.3833 19.05 22.95 19.05 23.5667Z" fill="#616B75"/>
<path d="M20.95 23.5667V34.9333C20.95 36.2 22.2333 37.0333 23.3667 36.4833C26.8 34.8 32.5833 31.65 32.5833 31.65C34.6167 30.5 36.2833 27.6 36.2833 25.2167V16.6167C36.2833 15.3 34.9 14.4667 33.7667 15.1167L21.7833 22.0667C21.2833 22.3833 20.95 22.95 20.95 23.5667Z" fill="#616B75"/>
</svg>
