<svg width="20" height="20" viewBox="0 0 20 20" fill="none" xmlns="http://www.w3.org/2000/svg">
<path d="M1.66406 3.45844C1.66406 2.26677 2.26408 1.66675 3.45575 1.66675H7.03907C8.23074 1.66675 8.83071 2.26677 8.83071 3.45844V5.00008" stroke="#202A30" stroke-miterlimit="10" stroke-linecap="round" stroke-linejoin="round"/>
<path d="M5.58074 15H3.45575C2.26408 15 1.66406 14.3999 1.66406 13.2083V6.69995" stroke="#202A30" stroke-miterlimit="10" stroke-linecap="round" stroke-linejoin="round"/>
<path d="M14.4776 7.01665V16.3167C14.4776 17.6583 13.8109 18.3333 12.4693 18.3333H7.60259C6.26092 18.3333 5.58594 17.6583 5.58594 16.3167V7.01665C5.58594 5.67499 6.26092 5 7.60259 5H12.4693C13.8109 5 14.4776 5.67499 14.4776 7.01665Z" stroke="#202A30" stroke-miterlimit="10" stroke-linecap="round" stroke-linejoin="round"/>
<path d="M11.1641 5.00008V3.45844C11.1641 2.26677 11.764 1.66675 12.9557 1.66675H16.539C17.7307 1.66675 18.3307 2.26677 18.3307 3.45844V13.2084C18.3307 14.4001 17.7307 15.0001 16.539 15.0001H14.4724" stroke="#202A30" stroke-miterlimit="10" stroke-linecap="round" stroke-linejoin="round"/>
<path d="M8.33594 9.16675H11.6693" stroke="#202A30" stroke-miterlimit="10" stroke-linecap="round" stroke-linejoin="round"/>
<path d="M8.33594 11.6667H11.6693" stroke="#202A30" stroke-miterlimit="10" stroke-linecap="round" stroke-linejoin="round"/>
<path d="M10 18.3333V15.8333" stroke="#202A30" stroke-miterlimit="10" stroke-linecap="round" stroke-linejoin="round"/>
</svg>
