<svg width="18" height="18" viewBox="0 0 18 18" fill="none" xmlns="http://www.w3.org/2000/svg">
<path d="M17.2275 13.7475C17.2275 14.0175 17.1675 14.295 17.04 14.565C16.9125 14.835 16.7475 15.09 16.53 15.33C16.1625 15.735 15.7575 16.0275 15.3 16.215C14.85 16.4025 14.3625 16.5 13.8375 16.5C13.0725 16.5 12.255 16.32 11.3925 15.9525C10.53 15.585 9.6675 15.09 8.8125 14.4675C7.95 13.8375 7.1325 13.14 6.3525 12.3675C5.58 11.5875 4.8825 10.77 4.26 9.915C3.645 9.06 3.15 8.205 2.79 7.3575C2.43 6.5025 2.25 5.685 2.25 4.905C2.25 4.395 2.34 3.9075 2.52 3.4575C2.7 3 2.985 2.58 3.3825 2.205C3.8625 1.7325 4.3875 1.5 4.9425 1.5C5.1525 1.5 5.3625 1.545 5.55 1.635C5.745 1.725 5.9175 1.86 6.0525 2.055L7.7925 4.5075C7.9275 4.695 8.025 4.8675 8.0925 5.0325C8.16 5.19 8.1975 5.3475 8.1975 5.49C8.1975 5.67 8.145 5.85 8.04 6.0225C7.9425 6.195 7.8 6.375 7.62 6.555L7.05 7.1475C6.9675 7.23 6.93 7.3275 6.93 7.4475C6.93 7.5075 6.9375 7.56 6.9525 7.62C6.975 7.68 6.9975 7.725 7.0125 7.77C7.1475 8.0175 7.38 8.34 7.71 8.73C8.0475 9.12 8.4075 9.5175 8.7975 9.915C9.2025 10.3125 9.5925 10.68 9.99 11.0175C10.38 11.3475 10.7025 11.5725 10.9575 11.7075C10.995 11.7225 11.04 11.745 11.0925 11.7675C11.1525 11.79 11.2125 11.7975 11.28 11.7975C11.4075 11.7975 11.505 11.7525 11.5875 11.67L12.1575 11.1075C12.345 10.92 12.525 10.7775 12.6975 10.6875C12.87 10.5825 13.0425 10.53 13.23 10.53C13.3725 10.53 13.5225 10.56 13.6875 10.6275C13.8525 10.695 14.025 10.7925 14.2125 10.92L16.695 12.6825C16.89 12.8175 17.025 12.975 17.1075 13.1625C17.1825 13.35 17.2275 13.5375 17.2275 13.7475Z" stroke="#414B55" stroke-width="1.3" stroke-miterlimit="10"/>
</svg>
