<svg width="26" height="26" viewBox="0 0 26 26" fill="none" xmlns="http://www.w3.org/2000/svg">
<path d="M21.8065 6.87949H18.5628C18.4307 6.87949 18.3059 6.80612 18.2399 6.68872L17.3445 5.05951C16.8895 4.23757 16.0309 3.7312 15.0915 3.7312H10.9085C9.96911 3.7312 9.1105 4.23757 8.6555 5.05951L7.76015 6.68872C7.69413 6.80613 7.56934 6.87949 7.43724 6.87949H4.19355C2.77718 6.87949 1.625 8.03168 1.625 9.44804V19.7002C1.625 21.1166 2.77718 22.2688 4.19355 22.2688H21.8065C23.2228 22.2688 24.375 21.1166 24.375 19.7002V9.44804C24.375 8.03168 23.2228 6.87949 21.8065 6.87949ZM13 19.3407C10.3727 19.3407 8.22984 17.2051 8.22984 14.5705C8.22984 11.9432 10.3727 9.80033 13 9.80033C15.6273 9.80033 17.7702 11.9432 17.7702 14.5705C17.7702 17.2051 15.6273 19.3407 13 19.3407Z" fill="white"/>
<path d="M13.0002 17.1388C14.4188 17.1388 15.5687 15.9888 15.5687 14.5703C15.5687 13.1517 14.4188 12.0017 13.0002 12.0017C11.5816 12.0017 10.4316 13.1517 10.4316 14.5703C10.4316 15.9888 11.5816 17.1388 13.0002 17.1388Z" fill="white"/>
</svg>
