<svg width="30" height="30" viewBox="0 0 30 30" fill="none" xmlns="http://www.w3.org/2000/svg">
<path d="M15 2.5V11.25L17.5 8.75" stroke="#8CCAF1" stroke-width="1.3" stroke-linecap="round" stroke-linejoin="round"/>
<path d="M15 11.25L12.5 8.75" stroke="#8CCAF1" stroke-width="1.3" stroke-linecap="round" stroke-linejoin="round"/>
<path d="M2.47656 16.25H7.98906C8.46406 16.25 8.88906 16.5125 9.10156 16.9375L10.5641 19.8625C10.9891 20.7125 11.8516 21.25 12.8016 21.25H17.2141C18.1641 21.25 19.0266 20.7125 19.4516 19.8625L20.9141 16.9375C21.1266 16.5125 21.5641 16.25 22.0266 16.25H27.4766" stroke="#8CCAF1" stroke-width="1.3" stroke-linecap="round" stroke-linejoin="round"/>
<path d="M8.75 5.1626C4.325 5.8126 2.5 8.4126 2.5 13.7501V18.7501C2.5 25.0001 5 27.5001 11.25 27.5001H18.75C25 27.5001 27.5 25.0001 27.5 18.7501V13.7501C27.5 8.4126 25.675 5.8126 21.25 5.1626" stroke="#8CCAF1" stroke-width="1.3" stroke-linecap="round" stroke-linejoin="round"/>
</svg>
