<svg width="40" height="40" viewBox="0 0 40 40" fill="none" xmlns="http://www.w3.org/2000/svg">
<path d="M32.3911 6.72415C32.6115 7.07068 32.2339 7.47437 31.8333 7.38334C31.05 7.15001 30.1833 7.03334 29.3 7.03334H23.6331C23.4758 7.03334 23.3278 6.9594 23.2333 6.83371L21.2167 4.15001C20.9819 3.81742 21.2038 3.33334 21.6109 3.33334H26.2C28.8017 3.33334 31.0934 4.68456 32.3911 6.72415Z" fill="#616B75"/>
<path d="M33.5666 10.9C32.85 10.3833 32.0333 10 31.15 9.78334C30.55 9.61668 29.9333 9.53334 29.3 9.53334H23.1C22.1333 9.53334 22.0666 9.45001 21.55 8.76668L19.2166 5.66668C18.1333 4.21668 17.2833 3.33334 14.5666 3.33334H10.7C6.63331 3.33334 3.33331 6.63334 3.33331 10.7V29.3C3.33331 33.3667 6.63331 36.6667 10.7 36.6667H29.3C33.3666 36.6667 36.6666 33.3667 36.6666 29.3V16.9C36.6666 14.4167 35.45 12.2333 33.5666 10.9ZM23.9833 27.2333H16C15.35 27.2333 14.85 26.7167 14.85 26.0667C14.85 25.4333 15.35 24.9 16 24.9H23.9833C24.6333 24.9 25.15 25.4333 25.15 26.0667C25.15 26.7167 24.6333 27.2333 23.9833 27.2333Z" fill="#616B75"/>
</svg>
