<svg width="20" height="20" viewBox="0 0 20 20" fill="none" xmlns="http://www.w3.org/2000/svg">
<path d="M1.66406 18.3333H18.3307" stroke="#202A30" stroke-miterlimit="10" stroke-linecap="round" stroke-linejoin="round"/>
<path d="M2.5 8.30836C2.5 7.80003 2.74167 7.31674 3.14167 7.00008L8.975 2.4584C9.575 1.99173 10.4167 1.99173 11.025 2.4584L16.8583 6.99173C17.2667 7.3084 17.5 7.7917 17.5 8.30836V18.3334" stroke="#202A30" stroke-miterlimit="10" stroke-linecap="round" stroke-linejoin="round"/>
<path d="M2.46094 18.3333L2.48594 11.6917" stroke="#202A30" stroke-miterlimit="10" stroke-linecap="round" stroke-linejoin="round"/>
<path d="M15.8323 5.83325L15.8073 3.33325H12.1406" stroke="#202A30" stroke-miterlimit="10" stroke-linecap="round" stroke-linejoin="round"/>
<path d="M10.2915 7.57395L10.2915 7.57395L10.294 7.57528L13.4229 9.2593C13.497 9.30596 13.5409 9.38553 13.5409 9.46499C13.5409 9.56827 13.4878 9.63656 13.4396 9.6617L13.4396 9.66166L13.4339 9.66471L10.2957 11.3538C10.2032 11.4025 10.1048 11.425 10.0009 11.425C9.89706 11.425 9.79866 11.4025 9.70614 11.3538L6.5679 9.66471L6.56792 9.66467L6.56222 9.6617C6.51403 9.63656 6.46094 9.56827 6.46094 9.46499C6.46094 9.36171 6.51403 9.29342 6.56222 9.26828L6.56224 9.26832L6.5679 9.26527L9.70789 7.57528L9.70789 7.57529L9.71035 7.57395C9.89111 7.47535 10.1107 7.47535 10.2915 7.57395Z" stroke="#202A30" stroke-width="0.999996"/>
<path d="M8.72638 12.8344L8.72637 12.8344L8.73057 12.8365C8.9916 12.9639 9.14998 13.2213 9.14998 13.4972V16.2572C9.14998 16.3306 9.11281 16.3988 9.05175 16.4389C8.99761 16.4693 8.95588 16.4772 8.92998 16.4772C8.90897 16.4772 8.87058 16.4711 8.81273 16.4495L5.9136 15L5.91361 14.9999L5.90941 14.9979C5.65699 14.8746 5.5 14.6227 5.5 14.3272V11.5672C5.5 11.4929 5.53817 11.4226 5.59423 11.3821C5.66926 11.3416 5.74536 11.3439 5.80639 11.3744L8.72638 12.8344Z" stroke="#202A30" stroke-width="0.999996"/>
<path d="M11.261 12.8365L11.261 12.8365L11.2652 12.8344L14.1803 11.3768C14.2642 11.3378 14.3418 11.3473 14.3984 11.3823C14.4657 11.424 14.5015 11.4957 14.5015 11.5572V14.3172C14.5015 14.6127 14.3446 14.8646 14.0921 14.9879L14.0921 14.9879L14.0879 14.99L11.168 16.45C11.1255 16.4712 11.0917 16.4772 11.0716 16.4772C11.0453 16.4772 11.0008 16.4692 10.9389 16.4413C10.8844 16.4005 10.8516 16.3362 10.8516 16.2672V13.5072C10.8516 13.2116 11.0086 12.9597 11.261 12.8365Z" stroke="#202A30" stroke-width="0.999996"/>
</svg>
