<svg width="24" height="24" viewBox="0 0 24 24" fill="none" xmlns="http://www.w3.org/2000/svg">
<path fill-rule="evenodd" clip-rule="evenodd" d="M21 21.25H22C22.41 21.25 22.75 21.59 22.75 22C22.75 22.41 22.41 22.75 22 22.75H2C1.59 22.75 1.25 22.41 1.25 22C1.25 21.59 1.59 21.25 2 21.25H2.95L3 9.96997C3 9.35997 3.28 8.77997 3.77 8.39997L10.77 2.95997C11.49 2.38997 12.51 2.38997 13.23 2.95997L14.57 3.99997H17.98C18.53 3.99997 18.98 4.43997 18.98 4.98997L19 7.43997L20.23 8.39997C20.72 8.77997 21 9.35997 21 9.97997V21.25ZM12.5309 9.135L15.6709 10.825C15.8909 10.955 16.0409 11.195 16.0409 11.465C16.0409 11.735 15.9009 11.985 15.6709 12.105L12.5309 13.795C12.3609 13.885 12.1809 13.925 12.0009 13.925C11.8209 13.925 11.6409 13.885 11.4709 13.795L8.33094 12.105C8.10094 11.985 7.96094 11.735 7.96094 11.465C7.96094 11.195 8.10094 10.945 8.33094 10.825L11.4709 9.135C11.8009 8.955 12.2009 8.955 12.5309 9.135ZM10.95 14.3872L8.03 12.9272C7.81 12.8172 7.55 12.8272 7.33 12.9572C7.13 13.0872 7 13.3172 7 13.5672V16.3272C7 16.8072 7.26 17.2372 7.69 17.4472L10.61 18.9072C10.71 18.9472 10.82 18.9772 10.93 18.9772C11.06 18.9772 11.19 18.9372 11.31 18.8672C11.52 18.7372 11.65 18.5072 11.65 18.2572V15.4972C11.65 15.0272 11.38 14.5972 10.95 14.3872ZM15.9615 12.9272C16.1915 12.8172 16.4515 12.8272 16.6615 12.9572C16.8715 13.0872 17.0015 13.3172 17.0015 13.5572V16.3172C17.0015 16.7972 16.7415 17.2272 16.3115 17.4372L13.3916 18.8972C13.2916 18.9472 13.1816 18.9772 13.0716 18.9772C12.9416 18.9772 12.8116 18.9372 12.6916 18.8772C12.4816 18.7472 12.3516 18.5172 12.3516 18.2672V15.5072C12.3516 15.0272 12.6116 14.5972 13.0416 14.3872L15.9615 12.9272Z" fill="#A9AFB4"/>
</svg>
