<svg width="91" height="91" viewBox="0 0 91 91" fill="none" xmlns="http://www.w3.org/2000/svg">
<path d="M40.251 77.8875C41.7962 79.1037 43.6492 79.7115 45.5032 79.7115L45.5029 79.7127C47.365 79.7127 49.2282 79.0997 50.7841 77.8749C58.2708 71.9781 70.985 59.3421 72.0209 40.9588C72.4495 33.3408 69.7262 25.8109 64.547 20.2992C59.5576 14.99 52.8537 12.0432 45.6697 12.0005C45.6158 12.0005 45.5615 12 45.5077 12C38.4362 12 31.7875 14.7412 26.7708 19.7294C21.7145 24.7552 18.9297 31.4489 18.9297 38.5781C18.9297 58.1821 32.2885 71.6211 40.251 77.8875Z" fill="#414B55"/>
<circle cx="45.5" cy="38.5" r="12.5" fill="white"/>
</svg>
