<svg width="22" height="22" viewBox="0 0 22 22" fill="none" xmlns="http://www.w3.org/2000/svg">
<path d="M18.3346 7.56242V16.4999C18.3346 19.2499 16.6938 20.1666 14.668 20.1666H7.33464C5.3088 20.1666 3.66797 19.2499 3.66797 16.4999V7.56242C3.66797 4.58325 5.3088 3.89575 7.33464 3.89575C7.33464 4.46409 7.56378 4.97742 7.93961 5.35325C8.31544 5.72908 8.8288 5.95825 9.39714 5.95825H12.6055C13.7421 5.95825 14.668 5.03242 14.668 3.89575C16.6938 3.89575 18.3346 4.58325 18.3346 7.56242Z" stroke="#202A30" stroke-width="1.3" stroke-linecap="round" stroke-linejoin="round"/>
<path d="M14.6654 3.89575C14.6654 5.03242 13.7395 5.95825 12.6029 5.95825H9.39453C8.8262 5.95825 8.31284 5.72908 7.93701 5.35325C7.56117 4.97742 7.33203 4.46409 7.33203 3.89575C7.33203 2.75909 8.25786 1.83325 9.39453 1.83325H12.6029C13.1712 1.83325 13.6846 2.06242 14.0604 2.43826C14.4362 2.81409 14.6654 3.32742 14.6654 3.89575Z" stroke="#202A30" stroke-width="1.3" stroke-linecap="round" stroke-linejoin="round"/>
<path d="M7.33203 11.9167H10.9987" stroke="#202A30" stroke-width="1.3" stroke-linecap="round" stroke-linejoin="round"/>
<path d="M7.33203 15.5833H14.6654" stroke="#202A30" stroke-width="1.3" stroke-linecap="round" stroke-linejoin="round"/>
</svg>
