<svg width="40" height="40" viewBox="0 0 40 40" fill="none" xmlns="http://www.w3.org/2000/svg">
<path d="M26.6667 7.08333C26.6667 9.14999 24.9833 10.8333 22.9167 10.8333H17.0833C16.05 10.8333 15.1167 10.4167 14.4333 9.73333C13.75 9.04999 13.3333 8.11666 13.3333 7.08333C13.3333 5.01666 15.0167 3.33333 17.0833 3.33333H22.9167C23.95 3.33333 24.8833 3.75 25.5667 4.43333C26.25 5.11666 26.6667 6.04999 26.6667 7.08333Z" fill="#616B75"/>
<path d="M31.3833 8.38333C31 8.06667 30.5667 7.81667 30.1 7.63333C29.6167 7.45 29.1333 7.83333 29.0333 8.33333C28.4667 11.1833 25.95 13.3333 22.9167 13.3333H17.0833C15.4167 13.3333 13.85 12.6833 12.6667 11.5C11.8 10.6333 11.2 9.53333 10.9667 8.35C10.8667 7.85 10.3667 7.45 9.88333 7.65C7.95 8.43333 6.66667 10.2 6.66667 13.75V30C6.66667 35 9.65 36.6667 13.3333 36.6667H26.6667C30.35 36.6667 33.3333 35 33.3333 30V13.75C33.3333 11.0333 32.5833 9.36667 31.3833 8.38333ZM13.3333 20.4167H20C20.6833 20.4167 21.25 20.9833 21.25 21.6667C21.25 22.35 20.6833 22.9167 20 22.9167H13.3333C12.65 22.9167 12.0833 22.35 12.0833 21.6667C12.0833 20.9833 12.65 20.4167 13.3333 20.4167ZM26.6667 29.5833H13.3333C12.65 29.5833 12.0833 29.0167 12.0833 28.3333C12.0833 27.65 12.65 27.0833 13.3333 27.0833H26.6667C27.35 27.0833 27.9167 27.65 27.9167 28.3333C27.9167 29.0167 27.35 29.5833 26.6667 29.5833Z" fill="#616B75"/>
</svg>
