<svg width="18" height="18" viewBox="0 0 18 18" fill="none" xmlns="http://www.w3.org/2000/svg">
<path d="M5 12.4985L6.5 6.43994L9 11.9983L11.5 6.43994L13 12.4985" stroke="#414B55" stroke-width="1.3" stroke-linecap="round" stroke-linejoin="round"/>
<path d="M17.0844 11.0128C17.0844 12.6145 16.6829 14.1117 15.985 15.3973C15.9451 15.4708 15.8502 15.5373 15.7195 15.538C13.4064 15.5498 12.6827 15.546 11.7925 15.5413C11.2338 15.5383 10.6094 15.535 9.48524 15.535H9.46826H9.45133H9.43446H9.41765H9.40089H9.38418H9.36753H9.35093H9.33439H9.3179H9.30146H9.28508H9.26874H9.25247H9.23624H9.22007H9.20395H9.18787H9.17186H9.15589H9.13997H9.1241H9.10829H9.09252H9.0768H9.06114H9.04552H9.02995H9.01443H8.99896H8.98353H8.96816H8.95283H8.93755H8.92231H8.90713H8.89199H8.87689H8.86185H8.84684H8.83189H8.81698H8.80211H8.78729H8.77251H8.75778H8.74309H8.72845H8.71385H8.69929H8.68477H8.6703H8.65587H8.64148H8.62714H8.61283H8.59857H8.58435H8.57017H8.55603H8.54193H8.52787H8.51385H8.49987H8.48593H8.47202H8.45816H8.44434H8.43055H8.4168H8.40309H8.38942H8.37578H8.36218H8.34862H8.33509H8.3216H8.30815H8.29473H8.28135H8.268H8.25469H8.24141H8.22817H8.21496H8.20178H8.18864H8.17553H8.16245H8.14941H8.1364H8.12342H8.11047H8.09756H8.08467H8.07182H8.059H8.04621H8.03345H8.02072H8.00802H7.99535H7.98271H7.9701H7.95752H7.94496H7.93244H7.91994H7.90747H7.89503H7.88261H7.87022H7.85786H7.84553H7.83322H7.82093H7.80868H7.79645H7.78424H7.77206H7.7599H7.74777H7.73566H7.72358H7.71152H7.69948H7.68747H7.67548H7.66351H7.65156H7.63964H7.62774H7.61586H7.604H7.59216H7.58034H7.56855H7.55677H7.54501H7.53328H7.52156H7.50986H7.49818H7.48652H7.47488H7.46325H7.45165H7.44006H7.42849H7.41694H7.4054H7.39388H7.38237H7.37089H7.35941H7.34796H7.33652H7.32509H7.31368H7.30228H7.2909H7.27953H7.26818H7.25683H7.24551H7.23419H7.22289H7.2116H7.20032H7.18905H7.1778H7.16656H7.15533H7.1441H7.13289H7.12169H7.1105H7.09932H7.08815H7.07699H7.06584H7.0547H7.04356H7.03244H7.02132H7.01021H6.9991H6.98801H6.97692H6.96583H6.95476H6.94369H6.93262H6.92157H6.91051H6.89947H6.88842H6.87738H6.86635H6.85532H6.84429H6.83327H6.82225H6.81124H6.80022H6.78921H6.7782H6.7672H6.75619H6.74519H6.73419H6.72318H6.71218H6.70118H6.69018H6.67918H6.66818H6.65718H6.64618H6.63518H6.62417H6.61317H6.60216H6.59115H6.58014H6.56912H6.5581H6.54708H6.53606H6.52503H6.51399H6.50296H6.49192H6.48087H6.46982H6.45876H6.4477H6.43663H6.42556H6.41448H6.40339H6.3923H6.38119H6.37009H6.35897H6.34785H6.33671H6.32557H6.31442H6.30327H6.2921H6.28092H6.26973H6.25854H6.24733H6.23611H6.22488H6.21365H6.20239H6.19113H6.17986H6.16857H6.15727H6.14596H6.13464H6.1233H6.11195H6.10059H6.08921H6.07782H6.06641H6.05499H6.04355H6.0321H6.02063H6.00915H5.99765H5.98614H5.97461H5.96306H5.95149H5.93991H5.92831H5.91669H5.90505H5.8934H5.88173H5.87003H5.85832H5.84659H5.83484H5.82307H5.81128H5.79947H5.78764H5.77579H5.76391H5.75202H5.7401H5.72816H5.7162H5.70422H5.69221H5.68018H5.66813H5.65605H5.64395H5.63183H5.61968H5.60751H5.59531H5.58308H5.57084H5.55856H5.54626H5.53394H5.52158H5.5092H5.4968H5.48436H5.4719H5.45941H5.4469H5.43435H5.42178H5.40917H5.39654H5.38388H5.37119H5.35847H5.34572H5.33294H5.32013H5.30729H5.29441H5.28151H5.26857H5.2556H5.2426H5.22957H5.21651H5.20341H5.19028H5.17711H5.16391H5.15068H5.13741H5.12411H5.11077H5.0974H5.08399H5.07055H5.05707H5.04356H5.03001H5.01642H5.0028H4.98913H4.97544H4.9617H4.94793H4.93411H4.92026H4.90637H4.89244H4.87848H4.86447H4.85042H4.83633H4.82221H4.80804H4.79383H4.77958H4.76529H4.75096H4.73658H4.72217H4.70771H4.69321H4.67866H4.66407H4.64944H4.63477H4.62005H4.60529H4.59048H4.57563H4.56073H4.54579H4.5308H4.51577H4.50069H4.48557H4.47039H4.45518H4.43991H4.4246H4.40924H4.39383H4.37837H4.36287H4.34731H4.33171H4.31606H4.30036H4.28461H4.26881H4.25296H4.23705H4.2211H4.2051H4.18905H4.17294H4.15678H4.14057H4.12431H4.108H4.09163H4.07521H4.05874H4.04221H4.02563H4.009H3.99231H3.97556H3.95877H3.94191H3.925H3.90804H3.89102H3.87394H3.85681H3.83962H3.82237H3.80507H3.78771H3.77029H3.75281H3.73527H3.71768H3.70003H3.68232H3.66454H3.64671H3.62882H3.61087H3.59286H3.57479H3.55666H3.53846H3.52021H3.50189H3.48351H3.46507H3.44657H3.428H3.40937H3.39068H3.37193H3.35311H3.33422H3.31528H3.29626H3.27719H3.25804H3.23884H3.21956H3.20023H3.18082H3.16135H3.14181H3.12221H3.10254H3.0828H3.06299H3.04311H3.02317H3.00316H2.98308H2.96293H2.94271H2.92243H2.90207H2.88164H2.86114H2.84057H2.81994H2.79923H2.77844H2.75759H2.73667H2.71567H2.6946H2.67346H2.65224H2.63096H2.60959H2.58816H2.56665H2.54507H2.52341H2.50168H2.47987H2.45799H2.43603H2.414H2.39189H2.3697H2.34744H2.3251H2.30268H2.28019C2.14891 15.535 2.05368 15.4686 2.01338 15.3943C1.31646 14.1094 0.915625 12.6133 0.915625 11.0128C0.915625 6.16327 4.57634 2.30918 9 2.30918C13.4237 2.30918 17.0844 6.16327 17.0844 11.0128Z" stroke="#414B55" stroke-width="1.3" stroke-linejoin="round"/>
</svg>
