<svg width="20" height="20" viewBox="0 0 20 20" fill="none" xmlns="http://www.w3.org/2000/svg">
<path d="M14.9984 5.96675C14.9484 5.95842 14.8901 5.95842 14.8401 5.96675C13.6901 5.92508 12.7734 4.98342 12.7734 3.81675C12.7734 2.62508 13.7318 1.66675 14.9234 1.66675C16.1151 1.66675 17.0734 2.63342 17.0734 3.81675C17.0651 4.98342 16.1484 5.92508 14.9984 5.96675Z" stroke="#202A30" stroke-linecap="round" stroke-linejoin="round"/>
<path d="M14.1422 12.0333C15.2839 12.225 16.5422 12.025 17.4255 11.4333C18.6005 10.65 18.6005 9.36664 17.4255 8.58331C16.5339 7.99164 15.2589 7.79163 14.1172 7.99163" stroke="#202A30" stroke-linecap="round" stroke-linejoin="round"/>
<path d="M4.98125 5.96675C5.03125 5.95842 5.08958 5.95842 5.13958 5.96675C6.28958 5.92508 7.20625 4.98342 7.20625 3.81675C7.20625 2.62508 6.24792 1.66675 5.05625 1.66675C3.86458 1.66675 2.90625 2.63342 2.90625 3.81675C2.91458 4.98342 3.83125 5.92508 4.98125 5.96675Z" stroke="#202A30" stroke-linecap="round" stroke-linejoin="round"/>
<path d="M5.83646 12.0333C4.69479 12.225 3.43646 12.025 2.55312 11.4333C1.37813 10.65 1.37813 9.36664 2.55312 8.58331C3.44479 7.99164 4.71979 7.79163 5.86146 7.99163" stroke="#202A30" stroke-linecap="round" stroke-linejoin="round"/>
<path d="M9.99844 12.1916C9.94844 12.1833 9.8901 12.1833 9.8401 12.1916C8.6901 12.1499 7.77344 11.2083 7.77344 10.0416C7.77344 8.84994 8.73177 7.8916 9.92344 7.8916C11.1151 7.8916 12.0734 8.85827 12.0734 10.0416C12.0651 11.2083 11.1484 12.1583 9.99844 12.1916Z" stroke="#202A30" stroke-linecap="round" stroke-linejoin="round"/>
<path d="M12.4266 14.8166C11.1016 13.9332 8.9099 13.9332 7.57656 14.8166C6.40156 15.5999 6.40156 16.8832 7.57656 17.6666C8.9099 18.5582 11.0932 18.5582 12.4266 17.6666" stroke="#202A30" stroke-linecap="round" stroke-linejoin="round"/>
</svg>
