<svg width="28" height="28" viewBox="0 0 28 28" fill="none" xmlns="http://www.w3.org/2000/svg">
<path d="M20.4532 9.06492C20.3715 9.05325 20.2898 9.05325 20.2082 9.06492C18.3998 9.00659 16.9648 7.52492 16.9648 5.70492C16.9648 3.84992 18.4698 2.33325 20.3365 2.33325C22.1915 2.33325 23.7082 3.83825 23.7082 5.70492C23.6965 7.52492 22.2615 9.00659 20.4532 9.06492Z" fill="#A9AFB4"/>
<path d="M24.2555 17.15C22.9489 18.025 21.1172 18.3516 19.4255 18.13C19.8689 17.1733 20.1022 16.1116 20.1139 14.9916C20.1139 13.825 19.8572 12.7166 19.3672 11.7483C21.0939 11.515 22.9255 11.8416 24.2439 12.7166C26.0872 13.93 26.0872 15.925 24.2555 17.15Z" fill="#A9AFB4"/>
<path d="M7.51286 9.06492C7.59453 9.05325 7.6762 9.05325 7.75786 9.06492C9.5662 9.00659 11.0012 7.52492 11.0012 5.70492C11.0012 3.83825 9.4962 2.33325 7.62953 2.33325C5.77453 2.33325 4.26953 3.83825 4.26953 5.70492C4.26953 7.52492 5.70453 9.00659 7.51286 9.06492Z" fill="#A9AFB4"/>
<path d="M7.64229 14.9916C7.64229 16.1233 7.88729 17.1966 8.33062 18.165C6.68562 18.34 4.97062 17.99 3.71062 17.1616C1.86729 15.9366 1.86729 13.9416 3.71062 12.7166C4.95896 11.8766 6.72062 11.5383 8.37729 11.725C7.89896 12.705 7.64229 13.8133 7.64229 14.9916Z" fill="#A9AFB4"/>
<path d="M14.1416 18.515C14.0482 18.5033 13.9432 18.5033 13.8382 18.515C11.6916 18.445 9.97656 16.6833 9.97656 14.5133C9.98823 12.2967 11.7732 10.5 14.0016 10.5C16.2182 10.5 18.0149 12.2967 18.0149 14.5133C18.0032 16.6833 16.2999 18.445 14.1416 18.515Z" fill="#A9AFB4"/>
<path d="M10.3486 20.9301C8.58693 22.1084 8.58693 24.0451 10.3486 25.2117C12.3553 26.5534 15.6453 26.5534 17.6519 25.2117C19.4136 24.0334 19.4136 22.0967 17.6519 20.9301C15.6569 19.5884 12.3669 19.5884 10.3486 20.9301Z" fill="#A9AFB4"/>
</svg>
