<svg width="20" height="20" viewBox="0 0 20 20" fill="none" xmlns="http://www.w3.org/2000/svg">
<mask id="path-1-inside-1_525_56512" fill="white">
<path fill-rule="evenodd" clip-rule="evenodd" d="M10.0011 17.5713C14.1827 17.5713 17.5725 14.1815 17.5725 9.9999C17.5725 5.81831 14.1827 2.42847 10.0011 2.42847C5.81953 2.42847 2.42969 5.81831 2.42969 9.9999C2.42969 14.1815 5.81953 17.5713 10.0011 17.5713ZM10.0011 18.5713C14.735 18.5713 18.5725 14.7338 18.5725 9.9999C18.5725 5.26603 14.735 1.42847 10.0011 1.42847C5.26725 1.42847 1.42969 5.26603 1.42969 9.9999C1.42969 14.7338 5.26725 18.5713 10.0011 18.5713Z"/>
</mask>
<path d="M16.5725 9.9999C16.5725 13.6292 13.6304 16.5713 10.0011 16.5713V18.5713C14.735 18.5713 18.5725 14.7338 18.5725 9.9999H16.5725ZM10.0011 3.42847C13.6304 3.42847 16.5725 6.3706 16.5725 9.9999H18.5725C18.5725 5.26603 14.735 1.42847 10.0011 1.42847V3.42847ZM3.42969 9.9999C3.42969 6.3706 6.37182 3.42847 10.0011 3.42847V1.42847C5.26725 1.42847 1.42969 5.26603 1.42969 9.9999H3.42969ZM10.0011 16.5713C6.37182 16.5713 3.42969 13.6292 3.42969 9.9999H1.42969C1.42969 14.7338 5.26725 18.5713 10.0011 18.5713V16.5713ZM17.5725 9.9999C17.5725 14.1815 14.1827 17.5713 10.0011 17.5713V19.5713C15.2873 19.5713 19.5725 15.286 19.5725 9.9999H17.5725ZM10.0011 2.42847C14.1827 2.42847 17.5725 5.81831 17.5725 9.9999H19.5725C19.5725 4.71374 15.2873 0.428467 10.0011 0.428467V2.42847ZM2.42969 9.9999C2.42969 5.81831 5.81953 2.42847 10.0011 2.42847V0.428467C4.71496 0.428467 0.429688 4.71374 0.429688 9.9999H2.42969ZM10.0011 17.5713C5.81953 17.5713 2.42969 14.1815 2.42969 9.9999H0.429688C0.429688 15.286 4.71496 19.5713 10.0011 19.5713V17.5713Z" fill="#202A30" mask="url(#path-1-inside-1_525_56512)"/>
<path d="M7.01545 13.0741C6.8783 13.0741 6.76402 13.0398 6.67259 12.9713C6.58878 12.8951 6.54688 12.7998 6.54688 12.6855C6.54688 12.5713 6.58878 12.476 6.67259 12.3998C6.76402 12.3236 6.8783 12.2855 7.01545 12.2855H10.4783C10.6154 12.2855 10.7259 12.3236 10.8097 12.3998C10.9012 12.476 10.9469 12.5713 10.9469 12.6855C10.9469 12.7998 10.9012 12.8951 10.8097 12.9713C10.7259 13.0398 10.6154 13.0741 10.4783 13.0741H7.01545ZM7.01545 11.5084C6.8783 11.5084 6.76402 11.4665 6.67259 11.3827C6.58878 11.2913 6.54688 11.1808 6.54688 11.0513C6.54688 10.9065 6.58878 10.7922 6.67259 10.7084C6.76402 10.617 6.8783 10.5713 7.01545 10.5713H8.99259V11.5084H7.01545ZM8.20402 14.6398C8.05926 14.6398 7.94116 14.5941 7.84973 14.5027C7.7583 14.4113 7.71259 14.2932 7.71259 14.1484V6.20554C7.71259 6.06078 7.7583 5.94268 7.84973 5.85125C7.94116 5.75983 8.05926 5.71411 8.20402 5.71411H10.4897C11.0535 5.71411 11.5526 5.83983 11.9869 6.09125C12.4288 6.33506 12.7716 6.67792 13.0154 7.11983C13.2669 7.55411 13.3926 8.05697 13.3926 8.6284C13.3926 9.19221 13.2669 9.69125 13.0154 10.1255C12.7716 10.5522 12.4288 10.8913 11.9869 11.1427C11.5526 11.3865 11.0535 11.5084 10.4897 11.5084H8.69545V14.1484C8.69545 14.2932 8.64973 14.4113 8.5583 14.5027C8.46687 14.5941 8.34878 14.6398 8.20402 14.6398ZM8.69545 10.5713H10.4897C10.8707 10.5713 11.2059 10.4913 11.4954 10.3313C11.785 10.1636 12.0135 9.93506 12.1812 9.64554C12.3488 9.3484 12.4326 9.01316 12.4326 8.63983C12.4326 8.24364 12.3488 7.89697 12.1812 7.59983C12.0135 7.30268 11.785 7.0703 11.4954 6.90268C11.2059 6.72744 10.8707 6.63983 10.4897 6.63983H8.69545V10.5713Z" fill="#202A30"/>
</svg>
