<svg width="28" height="28" viewBox="0 0 28 28" fill="none" xmlns="http://www.w3.org/2000/svg">
<path fill-rule="evenodd" clip-rule="evenodd" d="M14 26C20.6274 26 26 20.6274 26 14C26 7.37258 20.6274 2 14 2C7.37258 2 2 7.37258 2 14C2 20.6274 7.37258 26 14 26ZM9.33616 18.16C9.46416 18.256 9.62416 18.304 9.81616 18.304H10.7922V19.808C10.7922 20.0107 10.8562 20.176 10.9842 20.304C11.1122 20.432 11.2775 20.496 11.4802 20.496C11.6828 20.496 11.8482 20.432 11.9762 20.304C12.1042 20.176 12.1682 20.0107 12.1682 19.808V18.304H14.6642C14.8562 18.304 15.0108 18.256 15.1282 18.16C15.2562 18.0533 15.3202 17.92 15.3202 17.76C15.3202 17.6 15.2562 17.4667 15.1282 17.36C15.0108 17.2533 14.8562 17.2 14.6642 17.2H12.1682V16.112H12.5842H14.6802C15.4695 16.112 16.1682 15.9413 16.7762 15.6C17.3948 15.248 17.8748 14.7733 18.2162 14.176C18.5682 13.568 18.7442 12.8693 18.7442 12.08C18.7442 11.28 18.5682 10.576 18.2162 9.968C17.8748 9.34933 17.3948 8.86933 16.7762 8.528C16.1682 8.176 15.4695 8 14.6802 8H11.4802C11.2775 8 11.1122 8.064 10.9842 8.192C10.8562 8.32 10.7922 8.48533 10.7922 8.688V14.8H9.81616C9.62416 14.8 9.46416 14.864 9.33616 14.992C9.21882 15.1093 9.16016 15.2693 9.16016 15.472C9.16016 15.6533 9.21882 15.808 9.33616 15.936C9.46416 16.0533 9.62416 16.112 9.81616 16.112H10.7922V17.2H9.81616C9.62416 17.2 9.46416 17.2533 9.33616 17.36C9.21882 17.4667 9.16016 17.6 9.16016 17.76C9.16016 17.92 9.21882 18.0533 9.33616 18.16ZM12.1682 14.8H12.5842H14.6802C15.2135 14.8 15.6828 14.688 16.0882 14.464C16.4935 14.2293 16.8135 13.9093 17.0482 13.504C17.2828 13.088 17.4002 12.6187 17.4002 12.096C17.4002 11.5413 17.2828 11.056 17.0482 10.64C16.8135 10.224 16.4935 9.89867 16.0882 9.664C15.6828 9.41867 15.2135 9.296 14.6802 9.296H12.1682V14.8Z" fill="#A9AFB4"/>
</svg>
