<svg width="30" height="30" viewBox="0 0 30 30" fill="none" xmlns="http://www.w3.org/2000/svg">
<path d="M24.375 15.625C24.375 13.9 25.775 12.5 27.5 12.5V11.25C27.5 6.25 26.25 5 21.25 5H8.75C3.75 5 2.5 6.25 2.5 11.25V11.875C4.225 11.875 5.625 13.275 5.625 15C5.625 16.725 4.225 18.125 2.5 18.125V18.75C2.5 23.75 3.75 25 8.75 25H21.25C26.25 25 27.5 23.75 27.5 18.75C25.775 18.75 24.375 17.35 24.375 15.625Z" stroke="#8CCAF1" stroke-width="1.3" stroke-linecap="round" stroke-linejoin="round"/>
<path d="M11.25 18.4375L18.75 10.9375" stroke="#8CCAF1" stroke-width="1.3" stroke-linecap="round" stroke-linejoin="round"/>
<path d="M18.7431 18.4375H18.7544" stroke="#8CCAF1" stroke-width="2" stroke-linecap="round" stroke-linejoin="round"/>
<path d="M11.2431 11.5625H11.2544" stroke="#8CCAF1" stroke-width="2" stroke-linecap="round" stroke-linejoin="round"/>
</svg>
