<svg width="20" height="20" viewBox="0 0 20 20" fill="none" xmlns="http://www.w3.org/2000/svg">
<path d="M2.5 4.14172C2.5 2.77506 3.61667 1.66675 5 1.66675H15C16.3833 1.66675 17.5 2.77506 17.5 4.14172V13.2334C17.5 14.6001 16.3833 15.7084 15 15.7084H14.3667C13.7 15.7084 13.0667 15.9667 12.6 16.4334L11.175 17.8417C10.525 18.4834 9.46668 18.4834 8.81668 17.8417L7.39166 16.4334C6.925 15.9667 6.28333 15.7084 5.625 15.7084H5C3.61667 15.7084 2.5 14.6001 2.5 13.2334V7.52511" stroke="#202A30" stroke-miterlimit="10" stroke-linecap="round" stroke-linejoin="round"/>
<path d="M9.99637 8.33326C11.0687 8.33326 11.938 7.46393 11.938 6.39158C11.938 5.31923 11.0687 4.44995 9.99637 4.44995C8.92402 4.44995 8.05469 5.31923 8.05469 6.39158C8.05469 7.46393 8.92402 8.33326 9.99637 8.33326Z" stroke="#202A30" stroke-linecap="round" stroke-linejoin="round"/>
<path d="M13.3307 13.0499C13.3307 11.5499 11.8391 10.3333 9.9974 10.3333C8.15573 10.3333 6.66406 11.5499 6.66406 13.0499" stroke="#202A30" stroke-linecap="round" stroke-linejoin="round"/>
</svg>
