<svg width="28" height="28" viewBox="0 0 28 28" fill="none" xmlns="http://www.w3.org/2000/svg">
<path d="M21 2.33325H7C5.06333 2.33325 3.5 3.88492 3.5 5.79825V18.5266C3.5 20.4399 5.06333 21.9916 7 21.9916H7.88667C8.82 21.9916 9.70667 22.3533 10.36 23.0066L12.355 24.9783C13.265 25.8766 14.7467 25.8766 15.6567 24.9783L17.6517 23.0066C18.305 22.3533 19.2033 21.9916 20.125 21.9916H21C22.9367 21.9916 24.5 20.4399 24.5 18.5266V5.79825C24.5 3.88492 22.9367 2.33325 21 2.33325ZM14 6.70825C15.505 6.70825 16.7183 7.92159 16.7183 9.42658C16.7183 10.9316 15.505 12.1449 14 12.1449C12.495 12.1449 11.2817 10.9199 11.2817 9.42658C11.2817 7.92159 12.495 6.70825 14 6.70825ZM17.1267 17.5699H10.8733C9.92833 17.5699 9.38 16.5199 9.905 15.7383C10.6983 14.5599 12.2383 13.7666 14 13.7666C15.7617 13.7666 17.3017 14.5599 18.095 15.7383C18.62 16.5199 18.06 17.5699 17.1267 17.5699Z" fill="#A9AFB4"/>
</svg>
