<svg width="18" height="18" fill="none" xmlns="http://www.w3.org/2000/svg"><path d="M9.004 1.512A7.494 7.494 0 001.516 9a7.494 7.494 0 007.488 7.488A7.494 7.494 0 0016.492 9a7.494 7.494 0 00-7.488-7.488zm0 .832A6.65 6.65 0 0115.66 9a6.65 6.65 0 01-6.656 6.656A6.65 6.65 0 012.348 9a6.65 6.65 0 016.656-6.656zm0 2.496c-1.356 0-2.496 1.14-2.496 2.496a.416.416 0 10.832 0c0-.877.787-1.664 1.664-1.664.876 0 1.664.787 1.664 1.664.006.721-.384 1.084-.897 1.54-.257.229-.533.462-.767.767a1.905 1.905 0 00-.416 1.164v.273a.416.416 0 10.832 0v-.273c0-.268.082-.45.24-.657.159-.207.398-.42.663-.656.53-.472 1.183-1.113 1.177-2.158v-.007c-.004-1.352-1.143-2.49-2.496-2.49zm0 7.28a.624.624 0 100 1.248.624.624 0 000-1.248z" fill="#959699"/></svg>