<svg width="23" height="23" fill="none" xmlns="http://www.w3.org/2000/svg"><mask id="a" maskUnits="userSpaceOnUse" x="0" y="0" width="23" height="23" fill="#000"><path fill="#fff" d="M0 0h23v23H0z"/><path d="M3.64 3.64A8.957 8.957 0 0110.017 1a8.96 8.96 0 016.376 2.64 8.957 8.957 0 012.64 6.376 8.95 8.95 0 01-2.22 5.925l5.008 5.008a.616.616 0 01-.871.87l-5.008-5.007a8.95 8.95 0 01-5.925 2.22 8.957 8.957 0 01-6.375-2.64A8.957 8.957 0 011 10.016a8.96 8.96 0 012.64-6.375zm.872 11.88c3.035 3.036 7.974 3.036 11.009 0 3.035-3.034 3.035-7.973 0-11.008a7.76 7.76 0 00-5.505-2.277 7.761 7.761 0 00-5.504 2.277c-3.035 3.035-3.035 7.974 0 11.009z"/></mask><path d="M3.64 3.64A8.957 8.957 0 0110.017 1a8.96 8.96 0 016.376 2.64 8.957 8.957 0 012.64 6.376 8.95 8.95 0 01-2.22 5.925l5.008 5.008a.616.616 0 01-.871.87l-5.008-5.007a8.95 8.95 0 01-5.925 2.22 8.957 8.957 0 01-6.375-2.64A8.957 8.957 0 011 10.016a8.96 8.96 0 012.64-6.375zm.872 11.88c3.035 3.036 7.974 3.036 11.009 0 3.035-3.034 3.035-7.973 0-11.008a7.76 7.76 0 00-5.505-2.277 7.761 7.761 0 00-5.504 2.277c-3.035 3.035-3.035 7.974 0 11.009z" fill="#fff"/><path d="M3.64 3.64A8.957 8.957 0 0110.017 1a8.96 8.96 0 016.376 2.64 8.957 8.957 0 012.64 6.376 8.95 8.95 0 01-2.22 5.925l5.008 5.008a.616.616 0 01-.871.87l-5.008-5.007a8.95 8.95 0 01-5.925 2.22 8.957 8.957 0 01-6.375-2.64A8.957 8.957 0 011 10.016a8.96 8.96 0 012.64-6.375zm.872 11.88c3.035 3.036 7.974 3.036 11.009 0 3.035-3.034 3.035-7.973 0-11.008a7.76 7.76 0 00-5.505-2.277 7.761 7.761 0 00-5.504 2.277c-3.035 3.035-3.035 7.974 0 11.009z" stroke="#fff" stroke-width=".8" mask="url(#a)"/></svg>