<svg width="348" height="81" fill="none" xmlns="http://www.w3.org/2000/svg"><g clip-path="url(#clip0_1758_432443)" fill-rule="evenodd" clip-rule="evenodd"><path d="M87.957 55.062V40.85h11.992L71.967 19.538l-15.99 12.434 5.751 3.409 10.239-6.965 9.994 7.112V49.74l5.996 5.322z" fill="#C95621"/><path d="M77.963 76.373v-5.334h3.997v5.334h-3.997zm0-12.434h3.997v5.334h-3.997V63.94zm-5.996 7.1h3.997v5.334h-3.997v-5.334zm0-7.1h3.997v5.334h-3.997V63.94zm3.997-21.312h-15.99v15.99l-5.996 3.556V37.306h1.999L37.252 20.58 17.99 37.306h1.998L20 76.152l-6.009.233V42.64H0l36.811-29.38v-.932h-.564v-.258c.822-.037.625-.392.294-.895-.368-.576-.6-1.3-1.017-1.778-.528-.613-.97-.699-1.631-1.655-1.202-1.717 1.103-3.127.588-4.856-.245.454-.637.33-.968.11-.38-.245-.503-.441-.233-.699.11-.11.22-.208.257-.355a1.101 1.101 0 01-.294-.147.99.99 0 00.33-.135c-.134-.148-.343-.209-.563-.233.049-.135.16-.197.294-.233-.049-.074-.172-.221-.196-.368-.025-.16.037-.245.147-.307.049-.073.086-.171.123-.257a.72.72 0 00.466-.172c.147.012.355.172.527.098.16-.073.257-.319.54-.098.306.245.208.834.024 1.104 1.079.294 1.484.87 1.741 1.986.233.993.147 2.207 1.52 2.55.626.148 1.251-.514 1.644-.919.686-.723 1.692-1.741 2.808-2.232 2.084-.932 3.642.662 3.028 1.717-.576-1.41-2.28-1.852-3.862-.05.98-.698 3.066-.931 3.041.516-.748-.662-2.121-.687-2.967.245.772-.184 1.912-.319 2.035.478-.589-.27-1.312-.196-2.158.099.6.11 1.594.453 1.214 1.275-.184-.368-.675-.589-1.104-.601.295.38.503.772.197 1.324-.086-.294-.246-.588-.491-.735-.061.049-.074.122-.05.196.087.49.075 1.312-.428 1.618a2.099 2.099 0 000-.956c-.05.466-.245.932-.564 1.19.085-.344.135-.761-.037-1.068.024.332-.012.785-.258 1.043a.569.569 0 00-.147-.393c-.233.442-.674.797-1.177 1.104-.233.147-.564.43-.736.723-.184.332-.92 1.766.05 1.803v.22h-.552v.896l38.331 29.429-.049-.025zM37.093 11.518c.147.442.05.748.478-.735.221-.773-1.091-1.08-.478.735z" fill="#90241F"/><path d="M97.95 71.051v5.334h-5.996V65.73h3.997L75.964 49.74 55.977 65.73h3.997v10.656h-5.996v-5.334H39.987L75.964 42.64l35.976 28.41H97.95zM37.988 44.406h3.997v5.334h-3.997v-5.334zm0-7.1h3.997v5.334h-3.997v-5.334zm-5.996 7.1h3.997v5.334h-3.997v-5.334zm0-7.1h3.997v5.334h-3.997v-5.334zm194.564-1.619c.625 1.607 1.496 2.833 2.624 3.654h-13.219c.699-.686 1.374-1.594 2.036-2.734v-5.395c-2.011.073-4.059 1.778-6.315 4.99-3.544 5.016-9.025 5.432-13.255 1.018 3.641-2.317 4.819-5.58 8.975-7.786-6.376-1.938-7.945-10.043-2.955-13.746 4.991-3.704 14.985-1.619 20.012-1.619h4.488c-1.055.822-1.852 2.121-2.379 3.887v17.719l-.012.012zm-8.559-17.056c-2.244-.307-8.289-1.055-8.044 4.144.196 4.206 5.089 3.507 8.044 3.311v-7.468.013zm-34.861 21.802c-9.087 0-16.444-6.082-16.444-13.587 0-7.504 7.357-13.586 16.444-13.586 9.086 0 16.443 6.082 16.443 13.586 0 7.505-7.369 13.587-16.443 13.587zm-.098-21.986c-3.728 0-6.757 3.715-6.757 8.301s3.029 8.302 6.757 8.302c3.739 0 6.756-3.716 6.756-8.302 0-4.586-3.029-8.301-6.756-8.301zM161.959 37.44c-5.592 3.801-15.034 1.9-21.496 1.9h-4.659c1.177-.993 2.011-2.256 2.477-3.789V17.797c-.356-1.496-.994-2.747-1.938-3.728h4.439c9.001 0 16.407-2.023 20.184 1.557 2.869 2.723 2.513 7.407-.834 9.197 6.376 1.582 6.928 9.148 1.827 12.618zm-15.107-18.97V24c3.029.135 8.056.663 8.265-2.452.257-3.863-5.96-3.299-8.265-3.078zm0 10.386v5.53c2.82.466 9.38 1.153 9.687-2.39.356-4.072-6.732-3.201-9.687-3.14zm-21.41-9.736v17.07c.564 1.104 1.496 2.158 2.784 3.14h-14.139c1.3-.994 2.22-2.036 2.784-3.14V19.121c-3.728-.233-6.266.319-7.615 1.643-.907-.883-1.545-3.114-1.901-6.695h27.59c-.368 3.58-.993 5.812-1.9 6.695-1.349-1.324-3.887-1.864-7.615-1.643h.012z" fill="#EE761C"/><path d="M345.389 73.504c.515 1.152 1.385 2.06 2.611 2.526h-12.948c.502-1.508.122-3.176-1.129-5.003h-11.281c-1.373 2.293-1.937 3.96-1.692 5.003h-10.3c1.054-.454 2.072-1.092 2.575-2.195l8.951-19.62c.724-1.594.319-2.992-.49-3.924h15.536c-.699 1.165-1.042 2.502-.466 3.814l8.633 19.411v-.012zm-16.971-18.001l-4.022 10.362h7.958l-3.949-10.362h.013zm-16.799 12.115a8.772 8.772 0 01-.221 1.753c-2.232 9.136-19.988 6.659-25.665 6.659h-4.647c1.103-.834 1.925-2.158 2.464-3.96V54.02c-.649-1.644-1.545-2.882-2.722-3.729h29.356c-.785 3.446-1.324 5.065-2.391 6.242-1.987-2.379-10.031-1.852-15.365-1.643v4.794c6.708-.049 19.473-1.986 19.203 7.934h-.012zm-19.203 2.967c2.33.32 10.104 1.386 9.822-3.42-.233-3.95-6.769-2.809-9.822-2.613v6.046-.013zm-25.505 5.899c-4.586.196-9.553-.466-12.692-.466h-4.647c1.104-.834 1.925-2.159 2.465-3.961v-18.05c-.65-1.643-1.545-2.882-2.722-3.728h13.709c-.724.7-1.423 1.631-2.109 2.784v4.941c17.915-2.734 19.766 5.359 19.582 8.792-.38 7.137-8.277 9.454-13.599 9.688h.013zm-5.984-13.722v7.603c2.33.319 10.374 1.594 10.177-4.23-.159-4.501-7.112-3.57-10.177-3.385v.012zM242.104 80.74v-5.285H219.91v3.065c-.908 1.386-3.053 2.121-6.45 2.232V76.03h-12.691c.502-1.508.122-3.176-1.128-5.003h-11.282c-1.373 2.293-1.937 3.96-1.692 5.003h-10.3c1.054-.454 2.072-1.092 2.575-2.195l8.951-19.62c.724-1.594.319-2.992-.49-3.924h15.536c-.699 1.165-1.042 2.502-.454 3.814l8.633 19.411c.478 1.067 1.263 1.925 2.342 2.403v-5.86h2.955l7.223-15.844c.723-1.594.318-2.992-.491-3.924h15.536c-.699 1.165-1.042 2.502-.453 3.814l7.099 15.953h3.238v8.473c-.908 1.386-3.054 2.122-6.45 2.232l-.013-.025zm-47.957-25.25l-4.022 10.361h7.97l-3.948-10.361zm35.744 0l-5.64 14.543h11.17l-5.542-14.543h.012zm-68.876 1.753c-2.845 2.784-3.017 7.885-.638 11.122 3.188 4.304 11.073 3.409 15.499-.307v5.371c-2.881 2.281-6.719 3.679-10.95 3.679-8.914 0-16.137-6.192-16.137-13.844 0-7.652 7.223-13.844 16.137-13.844 5.101 0 9.663 2.035 12.618 5.211l-5.15 5.224c-1.496-5.395-7.688-6.23-11.379-2.612zm-20.405 13.01c-1.655 3.802-5.002 6.242-8.951 6.5-2.195.134-4.586-.393-7.186-2.122l.27-6.61c2.048 3.054 6.266 5.102 8.903 1.546l-9.871-16.076c-.773-1.263-1.754-2.379-3.176-3.237h12.679c-.577.944-.969 2.084-.38 3.127l4.414 7.909 3.531-8.486c.307-.736.148-1.962-.282-2.55h10.803c-1.606.87-2.93 2.06-3.666 3.74l-7.075 16.247-.013.012z" fill="#90241F"/></g><defs><clipPath id="clip0_1758_432443"><path fill="#fff" d="M0 0h348v81H0z"/></clipPath></defs></svg>