<svg width="115" height="100" fill="none" xmlns="http://www.w3.org/2000/svg"><path d="M85.497 7.953L57.898 22.88l-26.73-3.298L61.195 5.28l24.3 2.673z" stroke="#505050" stroke-width="1.6" stroke-miterlimit="10" stroke-linecap="round" stroke-linejoin="round"/><path d="M63.105 8.75V3.545s1.18-1.18 5.728-1.18c4.756 0 5.728 1.18 5.728 1.18V8.75s-2.326.625-5.589.625c-3.124 0-5.867-.625-5.867-.625z" fill="#fff" stroke="#505050" stroke-width="1.6" stroke-miterlimit="10" stroke-linecap="round" stroke-linejoin="round"/><path d="M31.168 19.86l1.7 2.43v3.228m-.208.243l-1.909 1.632v17.496M57.76 22.95l1.944 2.047 24.682-13.886 1.11-3.159M59.287 24.859v24.856m13.087-31.313l2.222 2.846-8.61 10.623-6.7 2.395m24.857-22.183l2.222 2.534-7.811 9.616-3.958 1.285" stroke="#505050" stroke-width="1.6" stroke-miterlimit="10" stroke-linecap="round" stroke-linejoin="round"/><path d="M59.063 75.031v7.375l6.924-1.587 8.61-6.839V21.248" stroke="#505050" stroke-width="1.6" stroke-miterlimit="10" stroke-linecap="round" stroke-linejoin="round"/><path d="M86.365 14.617v49.851l-8.02 6.457-3.749.382m3.194.001v4.756l1.666.312 2.083 1.979L60.641 96.58l-5.902.972-1.77-.59v-2.95m-14.511-4.479l-2.847 2.014 1.423 2.43h1.424v-2.57m1.806 1.285l-1.806 1.285M37.66 82.52l-4.41-4.963-1.874-2.743" stroke="#505050" stroke-width="1.6" stroke-miterlimit="10" stroke-linecap="round" stroke-linejoin="round"/><path d="M59.287 49.819v28.466l-4.166.625-24.335-4.34-1.389-1.492V46.972l1.736-1.77 28.154 4.617z" fill="#FFAC62" stroke="#FF7500" stroke-width="1.389" stroke-miterlimit="10" stroke-linecap="round" stroke-linejoin="round"/><path d="M39.169 56.74l-6.3 7.058m12.014-8.091l-6.334 7.058" stroke="#fff" stroke-width="1.6" stroke-miterlimit="10" stroke-linecap="round" stroke-linejoin="round"/><path d="M58.627 63.08v11.595l1.285.174c.764.104 1.423-.382 1.423-1.007v-9.65c0-.556-.486-1.007-1.146-1.042l-1.562-.07z" fill="#fff" stroke="#505050" stroke-width="1.6" stroke-miterlimit="10" stroke-linecap="round" stroke-linejoin="round"/><path d="M78.31 28.886l-.173 41.866M66.021 35.863l-.138 44.332" stroke="#505050" stroke-width=".8" stroke-miterlimit="10" stroke-linecap="round" stroke-linejoin="round"/><path d="M32.834 25.761l-.14 19.545m26.28 37.144l-5.276 2.674-.73 9.616-14.51-2.673v-6.63" stroke="#505050" stroke-width="1.6" stroke-miterlimit="10" stroke-linecap="round" stroke-linejoin="round"/><path d="M77.512 76.584L53.42 96.44" stroke="#505050" stroke-width=".8" stroke-miterlimit="10" stroke-linecap="round" stroke-linejoin="round"/><path d="M53.42 85.055l-16.073-2.292v1.528c0 .555.416 1.041 1.007 1.11l12.983 2.049c.903.139 1.77-.451 1.91-1.32l.173-1.075z" stroke="#505050" stroke-width="1.6" stroke-miterlimit="10" stroke-linecap="round" stroke-linejoin="round"/><path d="M40.749 67.905l4.27.625c.52.07.868.486.868.972v2.639c0 .59-.556 1.076-1.18.971l-4.27-.59c-.521-.07-.903-.486-.903-.972v-2.673c0-.59.59-1.076 1.215-.972z" fill="#fff" stroke="#FF7500" stroke-width="1.389" stroke-miterlimit="10" stroke-linecap="round" stroke-linejoin="round"/><path d="M60.19 49.853L30.403 44.89l-1.389.972 1.424 1.424 1.041 2.43 21.107 3.159 2.812-1.944 4.061-.521.73-.556z" fill="#fff" stroke="#505050" stroke-width="1.6" stroke-miterlimit="10" stroke-linecap="round" stroke-linejoin="round"/></svg>