<svg width="115" height="100" fill="none" xmlns="http://www.w3.org/2000/svg"><path d="M37.966 8.05l-15.802 3.786c-.069.035-.103.07-.103.138 0 .069.034.138.137.138l52.673 5.508c1.17.138 2.375 0 3.511-.379l13.874-4.475c.103-.034.069-.172-.035-.172L40.995 7.809c-.998-.07-2.031 0-3.03.24z" stroke="#505050" stroke-width="1.6" stroke-miterlimit="10" stroke-linecap="round" stroke-linejoin="round"/><path d="M22.026 12.077L21.544 84.2l1.825.792s.654-8.985 1.652-11.774c.517-1.446 1.584-3.65 5.474-3.546 5.267.31 11.085 1.377 17.076 2.41 5.37.895 13.116 2.272 17.42 3.718 3.27 1.102 6.61 2.582 7.47 8.297.62 3.718.998 10.913.998 10.913s1.515.516 3.202.344c1.549-.172 2.237-.654 2.237-.654s.276-13.943.448-16.49c.172-2.548 1.17-3.202 2.34-3.856l8.986-4.579s.62 1.55.895 3.34c.586 3.821.551 12.083.551 12.083l.448.38v-72.95" stroke="#505050" stroke-width="1.6" stroke-miterlimit="10" stroke-linecap="round" stroke-linejoin="round"/><path d="M24.23 19.96v36.148c0 .482.344.895.826.964l44.616 7.436a.97.97 0 001.136-.964V24.436a.949.949 0 00-.895-.964l-44.616-4.44c-.585-.104-1.067.378-1.067.929z" stroke="#505050" stroke-width="1.6" stroke-miterlimit="10" stroke-linecap="round" stroke-linejoin="round"/><path d="M27.638 26.089v21.964s3.236 4.716 18.452 6.92c14.012 2.03 20.14-.586 20.14-.586V30.771s-3.064-4.441-18.728-6.197c-18.935-2.169-19.864 1.515-19.864 1.515z" fill="#FFAC62" stroke="#FF7500" stroke-width="1.6" stroke-miterlimit="10" stroke-linecap="round" stroke-linejoin="round"/><path d="M76.764 21.565v73.79" stroke="#505050" stroke-width=".8" stroke-miterlimit="10" stroke-linecap="round" stroke-linejoin="round"/><path d="M37.484 70.705v5.37s1.893-.688 2.926-.86c1.067-.172 2.375-.035 2.375-.035v-3.752m45.856-.172s.792 1.136 1.136 4.44c.241 2.17.516 8.986.516 8.986l2.1.964M70.67 43.44l-1.136-.07a.979.979 0 00-1.032.965V59.55c0 .482.344.895.86.964l1.205.172" stroke="#505050" stroke-width="1.6" stroke-miterlimit="10" stroke-linecap="round" stroke-linejoin="round"/><path d="M89.674 32.63l-9.812 4.096m9.812 14.114l-9.812 5.061" stroke="#505050" stroke-width=".8" stroke-miterlimit="10" stroke-linecap="round" stroke-linejoin="round"/><path d="M39.93 32.011l-6.3 7.058m12.014-8.09l-6.334 7.057" stroke="#fff" stroke-width="1.6" stroke-miterlimit="10" stroke-linecap="round" stroke-linejoin="round"/></svg>