<svg width="115" height="100" fill="none" xmlns="http://www.w3.org/2000/svg"><path d="M27.77 89.5V43.162l35.907 2.582v49.298L27.77 89.5zm-.378-2.479l-1.997-.344v-44.41m40.865 3.339v47.68l-2.445 1.653" stroke="#505050" stroke-width="1.6" stroke-miterlimit="10" stroke-linecap="round" stroke-linejoin="round"/><path d="M72.628 44.78l-1.618.448-3.546.379H62.54l-35.803-2.823-2.445-.964v-7.023c0-1.274 1.136-3.684 1.136-3.684l47.233 2.513v11.155h-.034z" stroke="#505050" stroke-width="1.6" stroke-miterlimit="10" stroke-linecap="round" stroke-linejoin="round"/><path d="M29.595 37.482s9.098-.278 14.907.103c5.909.388 15.044 1.894 15.044 1.894" stroke="#505050" stroke-width=".8" stroke-miterlimit="10" stroke-linecap="round" stroke-linejoin="round"/><path d="M71.974 45.606v48.232l-5.508-.792" stroke="#505050" stroke-width="1.6" stroke-miterlimit="10" stroke-linecap="round" stroke-linejoin="round"/><path d="M31.66 79.964V46.467l27.61 1.86v35.665l-27.61-4.028z" fill="#FFAC62" stroke="#FF7500" stroke-width="1.6" stroke-miterlimit="10" stroke-linecap="round" stroke-linejoin="round"/><path d="M46.154 31.87V13.797" stroke="#4F5050" stroke-width="1.6" stroke-miterlimit="10" stroke-linecap="round" stroke-linejoin="round"/><path d="M89.497 13.797v66.82l-9.57 6.507s-4.235.138-7.3.138M90.185 13.35s-7.952 1.41-22.067 1.204c-16.662-.275-23.031-1.721-23.031-1.721V9.734c3.856-.378 13.495-.344 23.685-.344 10.638 0 22.033.964 21.482.93l-.069 3.03z" stroke="#505050" stroke-width="1.6" stroke-miterlimit="10" stroke-linecap="round" stroke-linejoin="round"/><path d="M79.926 87.125V18.328" stroke="#505050" stroke-width=".8" stroke-miterlimit="10" stroke-linecap="round" stroke-linejoin="round"/><path d="M62.025 10.122V4.89s2.03-.275 4.785-.275c2.513 0 4.785.275 4.785.275v5.233s-1.928.276-4.647.276a59.869 59.869 0 01-4.923-.276z" fill="#fff" stroke="#505050" stroke-width="1.6" stroke-miterlimit="10" stroke-linecap="round" stroke-linejoin="round"/><path d="M35.362 84.986v2.375m4.097-1.755v2.34m3.89-1.756v2.376m4.028-1.756v2.341m4.131-1.721v2.375m4.062-1.755v2.34" stroke="#505050" stroke-width=".8" stroke-miterlimit="10" stroke-linecap="round" stroke-linejoin="round"/><path d="M43.746 58.14l-6.335 7.057m12.015-8.09l-6.334 7.057" stroke="#fff" stroke-width="1.6" stroke-miterlimit="10" stroke-linecap="round" stroke-linejoin="round"/></svg>