<svg width="115" height="100" fill="none" xmlns="http://www.w3.org/2000/svg"><path d="M86.402 16.235c4.964.348 8.47 1.215 8.47 2.222 0 1.32-6.144 2.395-13.712 2.395s-13.713-1.076-13.713-2.395c0-1.007 3.541-1.875 8.54-2.222m-7.95 52.073c0 2.326 5.867 4.2 13.123 4.2 7.255 0 13.122-1.874 13.122-4.2" stroke="#505050" stroke-width="1.6" stroke-miterlimit="10" stroke-linecap="round" stroke-linejoin="round"/><path d="M76.96 85.076c0 .937 2.047 1.7 4.582 1.7 2.534 0 4.582-.763 4.582-1.7" stroke="#505050" stroke-width=".8" stroke-miterlimit="10" stroke-linecap="round" stroke-linejoin="round"/><path d="M76.96 88.374c0 1.006 2.047 1.805 4.582 1.805 2.534 0 4.582-.799 4.582-1.805M67.447 18.457l.59 49.85m18.053 4.097v15.97M81.195 8.528c2.741 0 4.964-.528 4.964-1.18 0-.652-2.223-1.18-4.965-1.18-2.741 0-4.964.528-4.964 1.18 0 .652 2.223 1.18 4.965 1.18z" stroke="#505050" stroke-width="1.6" stroke-miterlimit="10" stroke-linecap="round" stroke-linejoin="round"/><path d="M76.23 11.584c0 .555 2.222 1.006 4.965 1.006 2.742 0 4.964-.451 4.964-1.006" stroke="#505050" stroke-width=".8" stroke-miterlimit="10" stroke-linecap="round" stroke-linejoin="round"/><path d="M76.23 17.832c0 .66 2.222 1.18 4.965 1.18 2.742 0 4.964-.52 4.964-1.18M76.23 7.452v10.241m9.929-10.345v10.484" stroke="#505050" stroke-width="1.6" stroke-miterlimit="10" stroke-linecap="round" stroke-linejoin="round"/><path d="M94.872 18.457l-.59 49.85" stroke="#4F5050" stroke-width="1.6" stroke-miterlimit="10" stroke-linecap="round" stroke-linejoin="round"/><path d="M76.96 72.44v16.003" stroke="#505050" stroke-width="1.6" stroke-miterlimit="10" stroke-linecap="round" stroke-linejoin="round"/><path d="M28.948 36.162c0 1.84 6.527 3.333 14.615 3.333 8.089 0 14.615-1.493 14.615-3.333" stroke="#505050" stroke-width=".8" stroke-miterlimit="10" stroke-linecap="round" stroke-linejoin="round"/><path d="M28.948 26.372v18.156L13.5 47.791" stroke="#505050" stroke-width="1.6" stroke-miterlimit="10" stroke-linecap="round" stroke-linejoin="round"/><path d="M22.63 45.882c3.472-.59 7.43 5.485 8.818 13.574 1.388 8.088-.313 15.135-3.784 15.726" stroke="#505050" stroke-width=".8" stroke-miterlimit="10" stroke-linecap="round" stroke-linejoin="round"/><path d="M58.178 26.372v61.411c0 2.743-6.526 4.964-14.615 4.964-8.088 0-14.615-2.221-14.615-4.964l-.035-12.532-10.588 1.874" stroke="#505050" stroke-width="1.6" stroke-miterlimit="10" stroke-linecap="round" stroke-linejoin="round"/><path d="M28.948 44.529s5.173 1.77 11.456 6.387c5.59 4.131 8.297 8.02 8.297 10.345 0 3.506-2.465 6.7-6.11 9.477-4.93 3.715-13.677 4.513-13.677 4.513" stroke="#505050" stroke-width="1.6" stroke-miterlimit="10" stroke-linecap="round" stroke-linejoin="round"/><path d="M43.563 30.017c8.128 0 14.717-1.631 14.717-3.645 0-2.013-6.589-3.645-14.717-3.645s-14.717 1.632-14.717 3.645c0 2.014 6.59 3.645 14.717 3.645zm-25.028 47.18c3.496-.6 5.196-7.692 3.797-15.84-1.399-8.147-5.366-14.265-8.862-13.665-3.496.6-5.196 7.692-3.797 15.84 1.398 8.147 5.366 14.265 8.862 13.665z" fill="#FFAC62" stroke="#FF7500" stroke-width="1.389" stroke-miterlimit="10" stroke-linecap="round" stroke-linejoin="round"/></svg>