<svg width="115" height="100" fill="none" xmlns="http://www.w3.org/2000/svg"><path d="M49.315 6.455a6.93 6.93 0 00-.382 1.458c-.104.799-.174 2.257-.174 2.257" stroke="#4F5050" stroke-width="1.389" stroke-miterlimit="10" stroke-linecap="round" stroke-linejoin="round"/><path d="M29.7 25.618c0 12.602 10.554 22.843 23.607 22.843 13.053 0 23.606-10.207 23.606-22.843S66.36 9.823 53.307 9.823 29.7 12.982 29.7 25.618z" fill="#fff" stroke="#505050" stroke-width="1.6" stroke-miterlimit="10" stroke-linecap="round" stroke-linejoin="round"/><path d="M29.77 23.708s3.923 2.743 24.058 2.743c18.294 0 22.946-2.95 22.946-2.95-1.11-10.867-11.213-13.713-23.502-13.713-12.324.034-22.495 2.881-23.502 13.92z" fill="#FFAC62"/><path d="M76.812 23.5C75.701 12.634 65.59 9.788 53.292 9.788c-12.37 0-22.515 2.881-23.557 13.886" stroke="#FF7500" stroke-width="1.6" stroke-miterlimit="10" stroke-linecap="round" stroke-linejoin="round"/><path d="M29.041 23.014c0 1.91 10.796 3.437 24.127 3.437 13.33 0 24.127-1.528 24.127-3.437M43.517 58.562c0 1.91 4.34 3.437 9.686 3.437s9.685-1.527 9.685-3.437M57.924 11.49c.035-.59.07-1.25-.035-1.875-.451-3.576-1.84-5.485-5.415-5.485-2.257 0-3.263 1.909-3.541 3.784m-6.145 38.742l.73 11.63m19.822-11.63l-.418 11.63" stroke="#505050" stroke-width="1.6" stroke-miterlimit="10" stroke-linecap="round" stroke-linejoin="round"/><path d="M62.922 47.21L76.08 77.97M45.53 47.593L30.222 95.118M48.829 62.38l-.66 11.249" stroke="#505050" stroke-width="2.3" stroke-miterlimit="10" stroke-linecap="round" stroke-linejoin="round"/><path d="M43.517 53.772c0 1.458 4.305 2.638 9.582 2.638 5.276 0 9.581-1.18 9.581-2.638" stroke="#505050" stroke-width=".8" stroke-miterlimit="10" stroke-linecap="round" stroke-linejoin="round"/><path d="M85.417 85.88c.974-3.807-.3-7.422-2.845-8.072-2.545-.651-5.397 1.908-6.37 5.716-.974 3.808.3 7.422 2.845 8.073 2.544.65 5.396-1.909 6.37-5.717z" stroke="#505050" stroke-width="1.6" stroke-miterlimit="10" stroke-linecap="round" stroke-linejoin="round"/><path d="M86.164 85.475c1.064-4.16-.679-8.2-3.892-9.021-3.214-.822-6.681 1.885-7.745 6.046-1.064 4.16.679 8.2 3.892 9.02 3.214.822 6.681-1.884 7.745-6.045zM51.258 74.954c.922-3.604-.289-7.025-2.704-7.643-2.414-.617-5.119 1.803-6.04 5.407-.921 3.603.29 7.025 2.704 7.642 2.415.618 5.119-1.803 6.04-5.406z" stroke="#505050" stroke-width="1.6" stroke-miterlimit="10" stroke-linecap="round" stroke-linejoin="round"/><path d="M48.17 73.63l26.348 8.852-40.998 3.957 14.65-12.81z" stroke="#505050" stroke-width=".8" stroke-miterlimit="10" stroke-linecap="round" stroke-linejoin="round"/><path d="M80.662 26.903L76.913 26" stroke="#505050" stroke-width="1.6" stroke-miterlimit="10" stroke-linecap="round" stroke-linejoin="round"/><path d="M77.052 22.632s3.957 1.354 4.513 2.396c.416.798-.799 1.874-.799 1.874" stroke="#505050" stroke-width=".8" stroke-miterlimit="10" stroke-linecap="round" stroke-linejoin="round"/><path d="M26.333 27.11s2.465.938 4.479 1.216c2.742.382 6.873.312 6.977.278v2.256l8.367.382m5.797 43.348c1.007-3.937-.647-7.76-3.693-8.54-3.046-.778-6.332 1.783-7.338 5.72-1.007 3.938.646 7.762 3.692 8.54 3.047.78 6.332-1.781 7.339-5.72z" stroke="#505050" stroke-width="1.6" stroke-miterlimit="10" stroke-linecap="round" stroke-linejoin="round"/><path d="M43.066 14.51l-4.097 4.582m7.811-5.277l-4.13 4.582" stroke="#fff" stroke-width="1.6" stroke-miterlimit="10" stroke-linecap="round" stroke-linejoin="round"/></svg>