<svg width="140" height="69" viewBox="0 0 140 69" fill="none" xmlns="http://www.w3.org/2000/svg">
<g clip-path="url(#clip0_676_62437)">
<path fill-rule="evenodd" clip-rule="evenodd" d="M67.5751 50.1594H69.7698V56.1417C69.7698 56.9559 69.699 57.8408 69.4158 58.5842C69.168 59.2568 68.6724 59.7877 68.0706 60.1771C67.3273 60.6373 66.4423 60.7789 65.5928 60.7789C64.7786 60.7789 63.8936 60.6727 63.1857 60.2479C62.5131 59.8939 62.0529 59.363 61.7697 58.6904C61.4512 57.9116 61.3804 56.9559 61.3804 56.1063V50.124H63.5751V56.1063C63.5751 56.6019 63.6105 57.3099 63.7874 57.77C63.8936 58.0532 64.106 58.2656 64.3892 58.4426C64.7432 58.655 65.1326 58.6904 65.522 58.6904C66.0529 58.6904 66.7609 58.6196 67.1503 58.1948C67.5751 57.7346 67.6105 56.6727 67.6105 56.1063V50.1594H67.5751Z" fill="#2B55A1"/>
<path fill-rule="evenodd" clip-rule="evenodd" d="M38.2657 57.9822V56.9202H35.4692V54.8671H40.4603V59.1149L40.2833 59.2211C39.6816 59.7167 38.9736 60.1415 38.2303 60.3893C37.5223 60.6724 36.7789 60.7786 36.0356 60.7786C35.0798 60.7786 34.1241 60.5663 33.2745 60.1415C32.4249 59.7167 31.7878 59.0441 31.3276 58.1946C30.9028 57.345 30.6904 56.3893 30.6904 55.4335C30.6904 54.4424 30.9028 53.522 31.3276 52.637C31.7524 51.7875 32.3541 51.0795 33.2037 50.6547C34.0533 50.1946 34.9736 50.0176 35.9294 50.0176C36.6373 50.0176 37.3099 50.1238 37.9825 50.3716C38.5842 50.6193 39.0798 50.9379 39.4692 51.4335C39.8586 51.9291 40.1064 52.5662 40.2833 53.168L40.3895 53.6282L38.3718 54.1946L38.2303 53.7344C38.1241 53.4158 37.9825 53.0264 37.7701 52.7432C37.5931 52.4955 37.3099 52.3539 37.0621 52.2123C36.7081 52.0707 36.3187 51.9999 35.9294 51.9999C35.5046 51.9999 35.0444 52.0707 34.6196 52.2123C34.301 52.3539 34.0179 52.5309 33.7701 52.7786C33.5577 53.0264 33.3807 53.2742 33.2391 53.5928C33.0267 54.1592 32.9205 54.7255 32.9205 55.3273C32.9205 55.9645 33.0267 56.6724 33.3099 57.2388C33.5577 57.699 33.9117 58.053 34.3718 58.3008C34.8674 58.5485 35.3984 58.6547 35.9294 58.6547C36.4249 58.6547 36.8851 58.5486 37.3453 58.3716C37.6639 58.3362 38.0179 58.1592 38.2657 57.9822Z" fill="#2B55A1"/>
<path fill-rule="evenodd" clip-rule="evenodd" d="M60.0353 52.6373C59.6459 51.8231 59.0442 51.1506 58.23 50.6904C57.4158 50.2302 56.5309 49.9824 55.6105 49.9824C54.1946 49.9824 52.9557 50.4426 51.9999 51.4692C50.938 52.5665 50.584 54.0178 50.584 55.5045C50.584 56.4249 50.7964 57.2745 51.1858 58.0886C51.5751 58.9028 52.1769 59.5753 52.9557 60.0709C53.7698 60.5665 54.6548 60.7789 55.6105 60.7789C56.4955 60.7789 57.345 60.5665 58.1592 60.1417C58.9734 59.6815 59.5751 59.0444 59.9999 58.1948C60.4601 57.3099 60.6371 56.3541 60.6371 55.3984C60.6371 54.4426 60.4601 53.5222 60.0353 52.6373ZM57.5928 57.9116C57.0619 58.5134 56.3893 58.7612 55.6105 58.7612C54.8318 58.7612 54.1592 58.478 53.6282 57.9116C53.0265 57.2745 52.8141 56.3895 52.8141 55.5045C52.8141 54.6196 52.9557 53.4161 53.6282 52.7789C54.1946 52.2479 54.8318 52.0001 55.6105 52.0001C56.1415 52.0001 56.6017 52.1417 57.0619 52.3895C57.4866 52.6727 57.8052 53.0621 58.0176 53.5222C58.2654 54.0886 58.3716 54.7258 58.3716 55.363C58.407 56.2833 58.23 57.2391 57.5928 57.9116Z" fill="#2B55A1"/>
<path fill-rule="evenodd" clip-rule="evenodd" d="M48.9912 57.3099C48.7081 56.8497 48.3541 56.4249 47.9647 56.0355C48.4249 55.8585 48.8496 55.6108 49.1682 55.2568C49.6992 54.6904 49.947 53.9824 49.947 53.2391C49.947 52.6373 49.8054 52.0709 49.4868 51.5754C49.1682 51.0798 48.7434 50.6904 48.2125 50.478C47.5753 50.2302 46.7611 50.1948 46.124 50.1948H41.416V60.6373H43.6107V56.3895H44.6019C44.7788 56.3895 45.0266 56.3895 45.2036 56.4249C45.3452 56.4603 45.4868 56.5311 45.6284 56.6019C45.8054 56.7081 46.0178 56.9559 46.1594 57.1329C46.478 57.5223 46.7612 57.9824 47.0443 58.4072L48.4603 60.6019H51.1505L48.9912 57.3099ZM47.5045 53.8408C47.3983 54.0178 47.2213 54.1594 47.0089 54.2302C46.655 54.3718 46.1948 54.3718 45.8054 54.3718H43.5753V52.1771H46.124C46.5134 52.1771 47.0443 52.2125 47.3629 52.4957C47.6107 52.7081 47.6815 52.9559 47.6815 53.2391C47.6815 53.4515 47.6461 53.6639 47.5045 53.8408Z" fill="#2B55A1"/>
<path fill-rule="evenodd" clip-rule="evenodd" d="M78.7962 51.8937C78.5838 51.4689 78.2652 51.0795 77.8758 50.7963C77.4864 50.5132 76.9908 50.3716 76.4953 50.2654C75.9997 50.1946 75.4687 50.1592 74.9731 50.1592H70.9023V60.6371H73.097V56.7787H75.0793C76.1413 56.7787 77.451 56.6017 78.2298 55.7875C78.8315 55.1149 79.1147 54.3008 79.1147 53.4158C79.1147 52.8848 79.0085 52.3539 78.7962 51.8937ZM76.5307 54.3716C76.2121 54.6548 75.5395 54.6902 75.1147 54.6902H73.1324V52.2477H75.0793C75.3625 52.2477 75.8581 52.2477 76.1413 52.3185C76.3537 52.3893 76.5307 52.4955 76.6723 52.7079C76.8138 52.9202 76.8846 53.2034 76.8846 53.4512C76.8846 53.7698 76.8138 54.1238 76.5307 54.3716Z" fill="#2B55A1"/>
<path d="M0 8L6.86726 17.0265V48.531H18.4425V33.0973L29.9469 48.531H42.7611H43.469L34.6195 36.3894L37.0973 34.5487L47.0796 48.531H61.1327L89.7345 8.0354L76.3186 8L54.0885 38.1947L43.4336 23.8938C44.531 17.0619 41.3097 10.8673 33.5929 8C23.0089 8.0354 10.7257 8 0 8ZM18.1593 17.9115H29.6991C29.6991 17.9115 29.7345 17.9115 29.7699 17.9115C31.8584 18.4779 33.3451 20.4248 33.3451 22.6549C33.3451 24.9204 31.823 26.7965 29.7345 27.3628C29.6991 27.3628 29.7345 27.3628 29.6991 27.3628H18.1593V17.9115Z" fill="#2B55A1"/>
<path d="M65.3806 47.5044L93.2744 8H107.611V33.8761L126.584 8H137.558H140L111.504 48.4956H96.2832V24.9204L79.3275 48.4956H64.6372L65.3806 47.5044Z" fill="#2B55A1"/>
</g>
<defs>
<clipPath id="clip0_676_62437">
<rect width="140" height="69" fill="white"/>
</clipPath>
</defs>
</svg>
