<svg width="73" height="73" viewBox="0 0 73 73" fill="none" xmlns="http://www.w3.org/2000/svg">
<rect width="73" height="73" fill="white"/>
<path d="M29.375 36C29.375 34.712 30.439 33.6667 31.7524 33.6667C33.0657 33.6667 34.125 34.712 34.125 36C34.125 37.288 33.0657 38.3333 31.7524 38.3333C30.439 38.3333 29.375 37.288 29.375 36ZM44.1 36L40.0625 42.0667L36.975 38.3333L29.375 47.6667H53.125L44.1 36ZM57.875 19.6667V15H8V50H12.75V19.6667H57.875ZM65 24.3333V57H17.5V24.3333H65ZM60.25 29H22.25V52.3333H60.25V29Z" fill="#E1E7EC"/>
</svg>
