<svg width="29" height="29" fill="none" xmlns="http://www.w3.org/2000/svg"><path d="M21.364 23.35v1.434c0 .194.158.352.352.352h3.866a.352.352 0 00.352-.352v-1.798a.352.352 0 00-.352-.352h-2.08a7.643 7.643 0 002.425-1.461.312.312 0 00.07-.114.303.303 0 000-.059.238.238 0 000-.07V7.268a.238.238 0 000-.07.303.303 0 000-.06.358.358 0 00-.07-.117c-.118-.117-2.946-2.957-11.418-2.957S3.21 6.904 3.092 7.021a.358.358 0 00-.07.118.302.302 0 000 .058.218.218 0 000 .07V20.93a.218.218 0 000 .07.301.301 0 000 .059.294.294 0 00.07.114c.7.63 1.512 1.125 2.393 1.46h-2.08a.352.352 0 00-.352.353v1.798c0 .194.158.352.352.352h3.866a.353.353 0 00.353-.352V23.35c2.247.554 4.556.817 6.87.784 2.314.033 4.623-.23 6.87-.784zm-7.58.07h-.942l-.392-.019h-.262l-.369-.027-.254-.02-.353-.035-.242-.082-.345-.043-.223-.028-.345-.05-.192-.028-.176-.031v-3.408a30.05 30.05 0 004.806.356c1.61.01 3.218-.109 4.81-.356v3.411l-.157.028-.2.027-.34.05-.227.032-.337.04-.247.027-.348.035-.259.02-.368.027h-.267l-.391.02h-1.66l-.718.055zm-4.99-.528l-.391-.09-.106-.024V5.415c.224-.055.455-.102.693-.153v17.665l-.12-.023-.075-.012zm-1.875 1.54H3.758v-1.093h3.16v1.092zm.223-1.96l-.145-.038-.227-.075-.133-.047-.227-.078-.11-.039-.235-.094-.078-.027-.294-.122-.282-.129h-.023l-.227-.11-.067-.063v-3.329c.805.369 1.641.666 2.498.89v3.383H7.55l-.152-.043-.255-.078zM4.31 21.217l-.114-.075-.035-.023-.113-.078-.212-.157-.062-.055h-.02l-.032-.027V7.42c.22-.18.451-.346.694-.494V21.26h-.07l-.036-.043zm1.007-14.79l.09-.051.262-.118.079-.031.215-.09.118-.047.195-.075.138-.05.2-.071.152-.05.204-.067.164-.055.22-.063.172-.05h.055V9c-.853.22-1.685.513-2.487.877v-3.34l.074-.04.149-.07zm-.223 4.257a14.041 14.041 0 012.499-.94v4.003h-2.5v-3.063zm0 3.788h2.499v3.995a14.369 14.369 0 01-2.5-.94V14.47zm4.946-9.393l.341-.047.227-.031.337-.04.247-.027.348-.035.259-.023.368-.028h.267l.391-.023h3.313l.392.023h.263l.368.028.255.023.352.035.243.028.337.039.227.031.337.047.2.032.18.031v3.404a30.528 30.528 0 00-4.798-.353 30.37 30.37 0 00-4.81.353V5.137l.156-.027.2-.032zm10.662.34v17.364l-.094.023-.353.075-.11.023-.136.028V5.27c.238.046.47.097.693.148zm.893.236l.243.074.145.043.227.075.133.047.223.078.114.043.227.086.09.036.254.105h.04c.191.083.368.165.532.243l.051.027h.032v3.334a15.2 15.2 0 00-2.5-.89V5.592h.036l.153.063zm3.709 1.77v13.349l-.043.039-.06.047h.001a1.627 1.627 0 01-.145.105.098.098 0 01-.031.024l-.067.05-.058.04-.075.047-.07.047-.079.05V6.932c.22.149.43.314.627.493zm-1.622 14.343l-.102.051-.262.118-.079.031-.215.09-.117.047-.196.075-.137.05-.2.07-.153.052-.204.066-.164.051-.22.067-.172.05h-.055V19.21a15.18 15.18 0 002.488-.889v3.33l-.075.035-.137.082zm1.567 2.663h-3.18v-1.092h3.16l.02 1.092zm-1.355-6.897c-.801.392-1.638.707-2.5.94v-4.022h2.5v3.082zm0-3.787h-2.487V9.73c.858.236 1.69.554 2.487.952v3.063zm-4.603 0h-3.329a1.516 1.516 0 00-2.96 0h-3.33V9.265a29.198 29.198 0 014.821-.368c1.612-.003 3.22.129 4.81.391l-.012 4.458zm-3.999.313a.811.811 0 11-.81-.783.807.807 0 01.822.783h-.012zm-5.62.392h3.353a1.512 1.512 0 002.914 0h3.353v4.48a29.18 29.18 0 01-4.798.369 29.215 29.215 0 01-4.81-.392l-.012-4.457z" fill="#444"/></svg>