<svg width="29" height="29" fill="none" xmlns="http://www.w3.org/2000/svg"><path d="M12.755 5.132L8.703 1.078a.532.532 0 00-.751 0L3.898 5.132a6.27 6.27 0 000 8.857 6.224 6.224 0 004.43 1.835 6.22 6.22 0 004.428-1.834 6.272 6.272 0 000-8.859zm-.75 8.107a5.165 5.165 0 01-3.678 1.524 5.167 5.167 0 01-3.678-1.524 5.207 5.207 0 010-7.356l3.678-3.679 3.677 3.679a5.209 5.209 0 010 7.356z" fill="#444"/><path d="M11.628 6.258a.531.531 0 00-.75.75 3.614 3.614 0 010 5.105.531.531 0 00.751.75 4.677 4.677 0 000-6.605zm7.315 8.948a.547.547 0 00-.751 0l-3.081 3.082a4.855 4.855 0 00-1.43 3.457c0 1.307.507 2.535 1.43 3.457a4.857 4.857 0 003.457 1.432 4.856 4.856 0 003.457-1.432 4.855 4.855 0 001.43-3.457 4.857 4.857 0 00-1.43-3.457l-3.082-3.082zm2.331 9.246a3.802 3.802 0 01-2.706 1.12 3.802 3.802 0 01-2.707-1.12 3.8 3.8 0 01-1.119-2.707c0-1.024.398-1.985 1.12-2.706l2.705-2.706 2.707 2.706a3.804 3.804 0 011.119 2.707 3.8 3.8 0 01-1.119 2.706z" fill="#444"/><path d="M20.8 21.745c0 .599-.232 1.16-.652 1.58a2.221 2.221 0 01-1.58.654.531.531 0 000 1.062c.88 0 1.708-.343 2.33-.965a3.273 3.273 0 00.963-2.33.531.531 0 00-1.061 0zm2.424-16.378a.53.53 0 00-.75 0l-1.856 1.855a3.131 3.131 0 00-.922 2.23c0 .843.328 1.635.923 2.23a3.133 3.133 0 002.23.924 3.13 3.13 0 002.23-.923A3.133 3.133 0 0026 9.453c0-.844-.328-1.635-.923-2.23l-1.854-1.856zm1.103 5.565c-.394.394-.92.612-1.478.612a2.08 2.08 0 01-1.48-.613 2.078 2.078 0 01-.61-1.479c0-.56.216-1.085.61-1.479l1.48-1.479 1.478 1.48c.395.394.612.92.612 1.479 0 .56-.217 1.084-.612 1.479z" fill="#444"/><path d="M23.295 8.442a.398.398 0 000 .564.63.63 0 01.001.893.398.398 0 10.563.563c.27-.269.418-.628.418-1.01 0-.381-.149-.74-.418-1.01a.399.399 0 00-.564 0z" fill="#444"/></svg>