<svg width="29" height="29" fill="none" xmlns="http://www.w3.org/2000/svg"><mask id="a" maskUnits="userSpaceOnUse" x="4.366" y="1" width="20" height="5" fill="#000"><path fill="#fff" d="M4.366 1h20v5h-20z"/><path d="M22.415 5.045H6.587a1.224 1.224 0 01-1.22-1.22V3.22A1.224 1.224 0 016.586 2h15.828a1.224 1.224 0 011.22 1.22v.604a1.224 1.224 0 01-1.22 1.221zM6.587 2.508a.714.714 0 00-.713.712v.604a.714.714 0 00.713.713h15.828a.714.714 0 00.713-.713v-.603a.714.714 0 00-.713-.713H6.587z"/></mask><path d="M22.415 5.045H6.587a1.224 1.224 0 01-1.22-1.22V3.22A1.224 1.224 0 016.586 2h15.828a1.224 1.224 0 011.22 1.22v.604a1.224 1.224 0 01-1.22 1.221zM6.587 2.508a.714.714 0 00-.713.712v.604a.714.714 0 00.713.713h15.828a.714.714 0 00.713-.713v-.603a.714.714 0 00-.713-.713H6.587z" fill="#444"/><path d="M22.415 5.045H6.587a1.224 1.224 0 01-1.22-1.22V3.22A1.224 1.224 0 016.586 2h15.828a1.224 1.224 0 011.22 1.22v.604a1.224 1.224 0 01-1.22 1.221zM6.587 2.508a.714.714 0 00-.713.712v.604a.714.714 0 00.713.713h15.828a.714.714 0 00.713-.713v-.603a.714.714 0 00-.713-.713H6.587z" stroke="#444" stroke-width=".4" mask="url(#a)"/><mask id="b" maskUnits="userSpaceOnUse" x="1.83" y="3.537" width="25" height="5" fill="#000"><path fill="#fff" d="M1.83 3.537h25v5h-25z"/><path d="M22.306 7.582H6.696a4.061 4.061 0 01-2.317-.675l-1.18-.822a.818.818 0 01-.333-.926.917.917 0 01.894-.622h21.48a.917.917 0 01.893.622.82.82 0 01-.332.926l-1.177.822a4.061 4.061 0 01-2.32.675zM3.76 5.045a.403.403 0 00-.408.253.307.307 0 00.14.358l1.179.825c.603.392 1.31.596 2.03.583h15.605a3.61 3.61 0 002.03-.583l1.18-.825a.307.307 0 00.134-.358.403.403 0 00-.409-.253H3.761z"/></mask><path d="M22.306 7.582H6.696a4.061 4.061 0 01-2.317-.675l-1.18-.822a.818.818 0 01-.333-.926.917.917 0 01.894-.622h21.48a.917.917 0 01.893.622.82.82 0 01-.332.926l-1.177.822a4.061 4.061 0 01-2.32.675zM3.76 5.045a.403.403 0 00-.408.253.307.307 0 00.14.358l1.179.825c.603.392 1.31.596 2.03.583h15.605a3.61 3.61 0 002.03-.583l1.18-.825a.307.307 0 00.134-.358.403.403 0 00-.409-.253H3.761z" fill="#444"/><path d="M22.306 7.582H6.696a4.061 4.061 0 01-2.317-.675l-1.18-.822a.818.818 0 01-.333-.926.917.917 0 01.894-.622h21.48a.917.917 0 01.893.622.82.82 0 01-.332.926l-1.177.822a4.061 4.061 0 01-2.32.675h0zM3.76 5.045a.403.403 0 00-.408.253.307.307 0 00.14.358l1.179.825c.603.392 1.31.596 2.03.583h15.605a3.61 3.61 0 002.03-.583l1.18-.825h0a.307.307 0 00.134-.358.403.403 0 00-.409-.253H3.761z" stroke="#444" stroke-width=".4" mask="url(#b)"/><mask id="c" maskUnits="userSpaceOnUse" x="10.054" y="12.209" width="9" height="11" fill="#000"><path fill="#fff" d="M10.054 12.209h9v11h-9z"/><path d="M15.247 22.807H13.33a2.268 2.268 0 01-1.928-1.066 2.22 2.22 0 01-.133-2.152l.026-.053c.792-1.583.609-2.142.533-2.284a.492.492 0 01.205-.644c.097-.059.596-.305 1.13.507.428.655.71 1.172.76 1.637a1.95 1.95 0 00.386-.761 1.451 1.451 0 00-.357-1.355 2.568 2.568 0 01-.383-2.863c.111-.22.332-.588.614-.563a.296.296 0 01.253.21c.457 1.412 1.32 2.467 2.081 3.398 1.33 1.624 2.48 3.025.37 5.278a2.264 2.264 0 01-1.641.71zm-2.951-5.753c.187.384.233 1.157-.543 2.71l-.023.046a1.715 1.715 0 00.101 1.662c.326.514.891.827 1.5.827h1.918c.48-.001.939-.2 1.269-.548 1.804-1.928.931-2.997-.39-4.61-.734-.893-1.556-1.898-2.059-3.235a2.063 2.063 0 00.254 2.415c.827.957.553 2.03.02 2.71-.147.188-.52.61-.814.462a.31.31 0 01-.145-.38c.114-.412-.157-.94-.662-1.71-.195-.3-.355-.369-.416-.361a.06.06 0 00-.01.013z"/></mask><path d="M15.247 22.807H13.33a2.268 2.268 0 01-1.928-1.066 2.22 2.22 0 01-.133-2.152l.026-.053c.792-1.583.609-2.142.533-2.284a.492.492 0 01.205-.644c.097-.059.596-.305 1.13.507.428.655.71 1.172.76 1.637a1.95 1.95 0 00.386-.761 1.451 1.451 0 00-.357-1.355 2.568 2.568 0 01-.383-2.863c.111-.22.332-.588.614-.563a.296.296 0 01.253.21c.457 1.412 1.32 2.467 2.081 3.398 1.33 1.624 2.48 3.025.37 5.278a2.264 2.264 0 01-1.641.71zm-2.951-5.753c.187.384.233 1.157-.543 2.71l-.023.046a1.715 1.715 0 00.101 1.662c.326.514.891.827 1.5.827h1.918c.48-.001.939-.2 1.269-.548 1.804-1.928.931-2.997-.39-4.61-.734-.893-1.556-1.898-2.059-3.235a2.063 2.063 0 00.254 2.415c.827.957.553 2.03.02 2.71-.147.188-.52.61-.814.462a.31.31 0 01-.145-.38c.114-.412-.157-.94-.662-1.71-.195-.3-.355-.369-.416-.361a.06.06 0 00-.01.013z" fill="#444"/><path d="M15.247 22.807H13.33a2.268 2.268 0 01-1.928-1.066 2.22 2.22 0 01-.133-2.152l.026-.053c.792-1.583.609-2.142.533-2.284v0a.492.492 0 01.205-.644c.097-.059.596-.305 1.13.507.428.655.71 1.172.76 1.637a1.95 1.95 0 00.386-.761 1.451 1.451 0 00-.357-1.355 2.568 2.568 0 01-.383-2.863c.111-.22.332-.588.614-.563v0a.296.296 0 01.253.21c.457 1.412 1.32 2.467 2.081 3.398 1.33 1.624 2.48 3.025.37 5.278h0a2.264 2.264 0 01-1.641.71h0zm-2.951-5.753c.187.384.233 1.157-.543 2.71l-.023.046a1.715 1.715 0 00.101 1.662c.326.514.891.827 1.5.827h1.918c.48-.001.939-.2 1.269-.548 1.804-1.928.931-2.997-.39-4.61-.734-.893-1.556-1.898-2.059-3.235a2.063 2.063 0 00.254 2.415c.827.957.553 2.03.02 2.71-.147.188-.52.61-.814.462a.31.31 0 01-.145-.38c.114-.412-.157-.94-.662-1.71-.195-.3-.355-.369-.416-.361a.06.06 0 00-.01.013h0z" stroke="#444" stroke-width=".4" mask="url(#c)"/><mask id="d" maskUnits="userSpaceOnUse" x="1.828" y="6.075" width="25" height="20" fill="#000"><path fill="#fff" d="M1.828 6.075h25v20h-25z"/><path d="M24.952 25.344H20.59V16.21a6.089 6.089 0 10-12.18 0v9.135H4.05a1.224 1.224 0 01-1.22-1.22v-.604a1.224 1.224 0 011.22-1.22h1.316V7.074h18.27v15.224h1.316a1.223 1.223 0 011.221 1.22v.605a1.223 1.223 0 01-1.22 1.22zm-3.854-.508h3.854a.714.714 0 00.713-.712v-.604a.714.714 0 00-.713-.713h-1.825V7.582H5.873v15.225H4.049a.714.714 0 00-.713.713v.604a.714.714 0 00.713.712h3.854V16.21a6.597 6.597 0 1113.194 0v8.627z"/></mask><path d="M24.952 25.344H20.59V16.21a6.089 6.089 0 10-12.18 0v9.135H4.05a1.224 1.224 0 01-1.22-1.22v-.604a1.224 1.224 0 011.22-1.22h1.316V7.074h18.27v15.224h1.316a1.223 1.223 0 011.221 1.22v.605a1.223 1.223 0 01-1.22 1.22zm-3.854-.508h3.854a.714.714 0 00.713-.712v-.604a.714.714 0 00-.713-.713h-1.825V7.582H5.873v15.225H4.049a.714.714 0 00-.713.713v.604a.714.714 0 00.713.712h3.854V16.21a6.597 6.597 0 1113.194 0v8.627z" fill="#444"/><path d="M24.952 25.344H20.59V16.21a6.089 6.089 0 10-12.18 0v9.135H4.05a1.224 1.224 0 01-1.22-1.22v-.604a1.224 1.224 0 011.22-1.22h1.316V7.074h18.27v15.224h1.316a1.223 1.223 0 011.221 1.22v.605a1.223 1.223 0 01-1.22 1.22h0zm-3.854-.508h3.854a.714.714 0 00.713-.712v-.604a.714.714 0 00-.713-.713h-1.825V7.582H5.873v15.225H4.049a.714.714 0 00-.713.713v.604a.714.714 0 00.713.712h3.854V16.21a6.597 6.597 0 1113.194 0v8.627z" stroke="#444" stroke-width=".4" mask="url(#d)"/><mask id="e" maskUnits="userSpaceOnUse" x="6.903" y="21.299" width="15" height="5" fill="#000"><path fill="#fff" d="M6.903 21.299h15v5h-15z"/><path d="M21.098 25.344H7.903V23.52a1.224 1.224 0 011.22-1.22h10.754a1.223 1.223 0 011.221 1.22v1.824zM8.41 24.836h12.18V23.52a.714.714 0 00-.714-.713H9.124a.715.715 0 00-.713.713v1.317z"/></mask><path d="M21.098 25.344H7.903V23.52a1.224 1.224 0 011.22-1.22h10.754a1.223 1.223 0 011.221 1.22v1.824zM8.41 24.836h12.18V23.52a.714.714 0 00-.714-.713H9.124a.715.715 0 00-.713.713v1.317z" fill="#444"/><path d="M21.098 25.344H7.903V23.52a1.224 1.224 0 011.22-1.22h10.754a1.223 1.223 0 011.221 1.22v1.824zM8.41 24.836h12.18V23.52a.714.714 0 00-.714-.713H9.124a.715.715 0 00-.713.713v1.317z" stroke="#444" stroke-width=".4" mask="url(#e)"/></svg>