<svg width="29" height="29" fill="none" xmlns="http://www.w3.org/2000/svg"><mask id="a" maskUnits="userSpaceOnUse" x="3.025" y="2.185" width="23" height="23" fill="#000"><path fill="#fff" d="M3.025 2.185h23v23h-23z"/><path d="M24.94 15.94L14.727 3.282c-.103-.129-.324-.129-.43 0L4.086 15.94a.272.272 0 00-.036.287l3.9 8.511c.044.1.143.163.25.163h12.621a.274.274 0 00.25-.163l3.901-8.51a.27.27 0 00-.033-.288zm-4.397 1.241L14.79 9.613V4.236l9.469 11.737-3.716 1.208zm-9.55 4.073h7.045l2.247 3.094H8.747l2.246-3.093zm7.035-.548H11L8.924 17.52l5.59-7.354 5.591 7.354-2.077 3.186zM8.486 17.18l-3.717-1.208 9.469-11.737v5.377L8.486 17.18zm-3.669-.611l3.595 1.167 2.106 3.234-2.257 3.108-3.444-7.51zm15.955 7.51l-2.258-3.11 2.107-3.233 3.594-1.167-3.443 7.51z"/></mask><path d="M24.94 15.94L14.727 3.282c-.103-.129-.324-.129-.43 0L4.086 15.94a.272.272 0 00-.036.287l3.9 8.511c.044.1.143.163.25.163h12.621a.274.274 0 00.25-.163l3.901-8.51a.27.27 0 00-.033-.288zm-4.397 1.241L14.79 9.613V4.236l9.469 11.737-3.716 1.208zm-9.55 4.073h7.045l2.247 3.094H8.747l2.246-3.093zm7.035-.548H11L8.924 17.52l5.59-7.354 5.591 7.354-2.077 3.186zM8.486 17.18l-3.717-1.208 9.469-11.737v5.377L8.486 17.18zm-3.669-.611l3.595 1.167 2.106 3.234-2.257 3.108-3.444-7.51zm15.955 7.51l-2.258-3.11 2.107-3.233 3.594-1.167-3.443 7.51z" fill="#444"/><path d="M24.94 15.94L14.727 3.282c-.103-.129-.324-.129-.43 0L4.086 15.94a.272.272 0 00-.036.287l3.9 8.511c.044.1.143.163.25.163h12.621a.274.274 0 00.25-.163l3.901-8.51a.27.27 0 00-.033-.288h0zm-4.397 1.241L14.79 9.613V4.236l9.469 11.737-3.716 1.208zm-9.55 4.073h7.045l2.247 3.094H8.747l2.246-3.093zm7.035-.548H11L8.924 17.52l5.59-7.354 5.591 7.354-2.077 3.186zM8.486 17.18l-3.717-1.208 9.469-11.737v5.377L8.486 17.18zm-3.669-.611l3.595 1.167 2.106 3.234-2.257 3.108-3.444-7.51zm15.955 7.51l-2.258-3.11 2.107-3.233 3.594-1.167-3.443 7.51z" stroke="#444" stroke-width=".4" stroke-linejoin="round" mask="url(#a)"/></svg>