<svg width="29" height="29" fill="none" xmlns="http://www.w3.org/2000/svg"><mask id="a" maskUnits="userSpaceOnUse" x="4.001" y="0" width="21" height="28" fill="#000"><path fill="#fff" d="M4.001 0h21v28h-21z"/><path d="M23.137 12.52c.518-.173.863-.648.863-1.21 0-.733-.561-1.295-1.295-1.295H6.296c-.734 0-1.295.562-1.295 1.296 0 .561.389 1.036.863 1.209.13 3.411 2.289 6.347 5.312 7.6l-1.943 3.41a2.443 2.443 0 00-.778-.129c-1.209 0-2.159.95-2.159 2.16 0 1.208.95 2.158 2.16 2.158 1.208 0 2.158-.95 2.158-2.159 0-.13 0-.302-.043-.432h9.111l1.339 2.375c.3.45 1.013.16.777-.431l-3.972-6.91a8.75 8.75 0 005.31-7.642zm-16.84-1.641h16.408c.259 0 .432.173.432.432s-.173.432-.432.432H6.297c-.26 0-.432-.173-.432-.432 0-.26.172-.432.432-.432zm2.159 15.977A1.272 1.272 0 017.16 25.56c0-.734.562-1.295 1.296-1.295s1.295.561 1.295 1.295c0 .735-.561 1.296-1.295 1.296zm10.708-2.591h-8.981c-.087-.087-.13-.173-.216-.26l2.03-3.583c.777.259 1.64.389 2.504.389.863 0 1.727-.13 2.504-.389l2.16 3.843zm-4.663-4.318a7.733 7.733 0 01-7.73-7.34h15.502c-.259 4.102-3.627 7.34-7.772 7.34zm-.389-15.286a3.476 3.476 0 000-3.066c-.086-.216 0-.475.173-.561.216-.087.475 0 .561.173a4.299 4.299 0 010 3.843 3.476 3.476 0 000 3.065c.213.532-.472.87-.734.346a4.207 4.207 0 010-3.8zm-2.59 0a3.476 3.476 0 000-3.066c-.087-.216 0-.475.172-.561.216-.087.475 0 .561.173a4.299 4.299 0 010 3.843 3.476 3.476 0 000 3.065c.213.532-.472.87-.734.346a4.207 4.207 0 010-3.8zm5.18 0a3.474 3.474 0 000-3.066c-.085-.216 0-.475.173-.561.216-.087.475 0 .562.173a4.299 4.299 0 010 3.843 3.476 3.476 0 000 3.065c.213.533-.472.87-.734.346a4.207 4.207 0 010-3.8z"/></mask><path d="M23.137 12.52c.518-.173.863-.648.863-1.21 0-.733-.561-1.295-1.295-1.295H6.296c-.734 0-1.295.562-1.295 1.296 0 .561.389 1.036.863 1.209.13 3.411 2.289 6.347 5.312 7.6l-1.943 3.41a2.443 2.443 0 00-.778-.129c-1.209 0-2.159.95-2.159 2.16 0 1.208.95 2.158 2.16 2.158 1.208 0 2.158-.95 2.158-2.159 0-.13 0-.302-.043-.432h9.111l1.339 2.375c.3.45 1.013.16.777-.431l-3.972-6.91a8.75 8.75 0 005.31-7.642zm-16.84-1.641h16.408c.259 0 .432.173.432.432s-.173.432-.432.432H6.297c-.26 0-.432-.173-.432-.432 0-.26.172-.432.432-.432zm2.159 15.977A1.272 1.272 0 017.16 25.56c0-.734.562-1.295 1.296-1.295s1.295.561 1.295 1.295c0 .735-.561 1.296-1.295 1.296zm10.708-2.591h-8.981c-.087-.087-.13-.173-.216-.26l2.03-3.583c.777.259 1.64.389 2.504.389.863 0 1.727-.13 2.504-.389l2.16 3.843zm-4.663-4.318a7.733 7.733 0 01-7.73-7.34h15.502c-.259 4.102-3.627 7.34-7.772 7.34zm-.389-15.286a3.476 3.476 0 000-3.066c-.086-.216 0-.475.173-.561.216-.087.475 0 .561.173a4.299 4.299 0 010 3.843 3.476 3.476 0 000 3.065c.213.532-.472.87-.734.346a4.207 4.207 0 010-3.8zm-2.59 0a3.476 3.476 0 000-3.066c-.087-.216 0-.475.172-.561.216-.087.475 0 .561.173a4.299 4.299 0 010 3.843 3.476 3.476 0 000 3.065c.213.532-.472.87-.734.346a4.207 4.207 0 010-3.8zm5.18 0a3.474 3.474 0 000-3.066c-.085-.216 0-.475.173-.561.216-.087.475 0 .562.173a4.299 4.299 0 010 3.843 3.476 3.476 0 000 3.065c.213.533-.472.87-.734.346a4.207 4.207 0 010-3.8z" fill="#444"/><path d="M23.137 12.52c.518-.173.863-.648.863-1.21 0-.733-.561-1.295-1.295-1.295H6.296c-.734 0-1.295.562-1.295 1.296 0 .561.389 1.036.863 1.209.13 3.411 2.289 6.347 5.312 7.6l-1.943 3.41a2.443 2.443 0 00-.778-.129c-1.209 0-2.159.95-2.159 2.16 0 1.208.95 2.158 2.16 2.158 1.208 0 2.158-.95 2.158-2.159 0-.13 0-.302-.043-.432h9.111l1.339 2.375c.3.45 1.013.16.777-.431l-3.972-6.91a8.75 8.75 0 005.31-7.642zm-16.84-1.641h16.408c.259 0 .432.173.432.432s-.173.432-.432.432H6.297c-.26 0-.432-.173-.432-.432 0-.26.172-.432.432-.432zm2.159 15.977A1.272 1.272 0 017.16 25.56c0-.734.562-1.295 1.296-1.295s1.295.561 1.295 1.295c0 .735-.561 1.296-1.295 1.296zm10.708-2.591h-8.981c-.087-.087-.13-.173-.216-.26l2.03-3.583c.777.259 1.64.389 2.504.389.863 0 1.727-.13 2.504-.389l2.16 3.843zm-4.663-4.318a7.733 7.733 0 01-7.73-7.34h15.502c-.259 4.102-3.627 7.34-7.772 7.34zm-.389-15.286a3.476 3.476 0 000-3.066c-.086-.216 0-.475.173-.561.216-.087.475 0 .561.173a4.299 4.299 0 010 3.843 3.476 3.476 0 000 3.065c.213.532-.472.87-.734.346a4.207 4.207 0 010-3.8zm-2.59 0a3.476 3.476 0 000-3.066c-.087-.216 0-.475.172-.561.216-.087.475 0 .561.173a4.299 4.299 0 010 3.843 3.476 3.476 0 000 3.065c.213.532-.472.87-.734.346a4.207 4.207 0 010-3.8zm5.18 0a3.474 3.474 0 000-3.066c-.085-.216 0-.475.173-.561.216-.087.475 0 .562.173a4.299 4.299 0 010 3.843 3.476 3.476 0 000 3.065c.213.533-.472.87-.734.346a4.207 4.207 0 010-3.8z" stroke="#444" stroke-width=".2" mask="url(#a)"/></svg>