<svg width="29" height="29" fill="none" xmlns="http://www.w3.org/2000/svg"><mask id="a" maskUnits="userSpaceOnUse" x="1.404" y="5.303" width="26" height="5" fill="#000"><path fill="#fff" d="M1.404 5.303h26v5h-26z"/><path d="M25.918 10.089H3.08a.678.678 0 01-.677-.677V6.98c0-.373.304-.677.677-.677h22.833c.376 0 .68.304.68.677v2.432a.678.678 0 01-.677.677zM3.08 6.957a.022.022 0 00-.023.023v2.432c0 .013.01.023.023.023h22.837c.013 0 .023-.01.023-.023V6.98c0-.013-.01-.023-.027-.023H3.081z"/></mask><path d="M25.918 10.089H3.08a.678.678 0 01-.677-.677V6.98c0-.373.304-.677.677-.677h22.833c.376 0 .68.304.68.677v2.432a.678.678 0 01-.677.677zM3.08 6.957a.022.022 0 00-.023.023v2.432c0 .013.01.023.023.023h22.837c.013 0 .023-.01.023-.023V6.98c0-.013-.01-.023-.027-.023H3.081z" fill="#444"/><path d="M25.918 10.089H3.08a.678.678 0 01-.677-.677V6.98c0-.373.304-.677.677-.677h22.833c.376 0 .68.304.68.677v2.432a.678.678 0 01-.677.677h0zM3.08 6.957a.022.022 0 00-.023.023v2.432c0 .013.01.023.023.023h22.837c.013 0 .023-.01.023-.023V6.98c0-.013-.01-.023-.027-.023H3.081z" stroke="#444" stroke-width=".2" mask="url(#a)"/><mask id="b" maskUnits="userSpaceOnUse" x="1.404" y="9.743" width="26" height="5" fill="#000"><path fill="#fff" d="M1.404 9.743h26v5h-26z"/><path d="M25.918 14.528H3.08a.678.678 0 01-.677-.677V11.42c0-.372.304-.676.677-.676h22.833c.376 0 .68.304.68.676v2.432a.678.678 0 01-.677.677zM3.08 11.396a.022.022 0 00-.023.023v2.432c0 .014.01.023.023.023h22.837c.013 0 .023-.01.023-.023V11.42c0-.013-.01-.023-.027-.023H3.081z"/></mask><path d="M25.918 14.528H3.08a.678.678 0 01-.677-.677V11.42c0-.372.304-.676.677-.676h22.833c.376 0 .68.304.68.676v2.432a.678.678 0 01-.677.677zM3.08 11.396a.022.022 0 00-.023.023v2.432c0 .014.01.023.023.023h22.837c.013 0 .023-.01.023-.023V11.42c0-.013-.01-.023-.027-.023H3.081z" fill="#444"/><path d="M25.918 14.528H3.08a.678.678 0 01-.677-.677V11.42c0-.372.304-.676.677-.676h22.833c.376 0 .68.304.68.676v2.432a.678.678 0 01-.677.677h0zM3.08 11.396a.022.022 0 00-.023.023v2.432c0 .014.01.023.023.023h22.837c.013 0 .023-.01.023-.023V11.42c0-.013-.01-.023-.027-.023H3.081z" stroke="#444" stroke-width=".2" mask="url(#b)"/><mask id="c" maskUnits="userSpaceOnUse" x="-.001" y="14.927" width="29" height="5" fill="#000"><path fill="#fff" d="M-.001 14.927h29v5h-29z"/><path d="M27.477 18.843H1.522A.525.525 0 011 18.32v-1.87c0-.288.235-.523.523-.523h25.955c.288 0 .523.235.523.523v1.87a.524.524 0 01-.523.523zm-25.824-.654h25.693V16.58H1.653v1.608z"/></mask><path d="M27.477 18.843H1.522A.525.525 0 011 18.32v-1.87c0-.288.235-.523.523-.523h25.955c.288 0 .523.235.523.523v1.87a.524.524 0 01-.523.523zm-25.824-.654h25.693V16.58H1.653v1.608z" fill="#444"/><path d="M27.477 18.843H1.522A.525.525 0 011 18.32v-1.87c0-.288.235-.523.523-.523h25.955c.288 0 .523.235.523.523v1.87a.524.524 0 01-.523.523zm-25.824-.654h25.693V16.58H1.653v1.608z" stroke="#444" stroke-width=".2" mask="url(#c)"/><mask id="d" maskUnits="userSpaceOnUse" x="5.654" y="3.957" width="4" height="4" fill="#000"><path fill="#fff" d="M5.654 3.957h4v4h-4z"/><path d="M8.835 6.954h-2.18v-1.53c0-.258.209-.467.467-.467h1.242c.258 0 .47.21.47.467v1.53zM7.308 6.3h.873v-.69h-.873v.69z"/></mask><path d="M8.835 6.954h-2.18v-1.53c0-.258.209-.467.467-.467h1.242c.258 0 .47.21.47.467v1.53zM7.308 6.3h.873v-.69h-.873v.69z" fill="#444"/><path d="M8.835 6.954h-2.18v-1.53c0-.258.209-.467.467-.467h1.242c.258 0 .47.21.47.467v1.53zM7.308 6.3h.873v-.69h-.873v.69z" stroke="#444" stroke-width=".2" mask="url(#d)"/><mask id="e" maskUnits="userSpaceOnUse" x="5.654" y="12.874" width="4" height="4" fill="#000"><path fill="#fff" d="M5.654 12.874h4v4h-4z"/><path d="M8.835 16.578h-2.18v-2.704h2.18v2.704zm-1.527-.654h.873v-1.396h-.873v1.396z"/></mask><path d="M8.835 16.578h-2.18v-2.704h2.18v2.704zm-1.527-.654h.873v-1.396h-.873v1.396z" fill="#444"/><path d="M8.835 16.578h-2.18v-2.704h2.18v2.704zm-1.527-.654h.873v-1.396h-.873v1.396z" stroke="#444" stroke-width=".2" mask="url(#e)"/><mask id="f" maskUnits="userSpaceOnUse" x="19.164" y="3.957" width="4" height="4" fill="#000"><path fill="#fff" d="M19.164 3.957h4v4h-4z"/><path d="M22.344 6.954h-2.18v-1.53c0-.258.21-.467.467-.467h1.243c.258 0 .47.21.47.467v1.53zM20.818 6.3h.873v-.69h-.873v.69z"/></mask><path d="M22.344 6.954h-2.18v-1.53c0-.258.21-.467.467-.467h1.243c.258 0 .47.21.47.467v1.53zM20.818 6.3h.873v-.69h-.873v.69z" fill="#444"/><path d="M22.344 6.954h-2.18v-1.53c0-.258.21-.467.467-.467h1.243c.258 0 .47.21.47.467v1.53zM20.818 6.3h.873v-.69h-.873v.69z" stroke="#444" stroke-width=".2" mask="url(#f)"/><mask id="g" maskUnits="userSpaceOnUse" x="19.164" y="12.874" width="4" height="4" fill="#000"><path fill="#fff" d="M19.164 12.874h4v4h-4z"/><path d="M22.344 16.578h-2.18v-2.704h2.18v2.704zm-1.526-.654h.873v-1.396h-.873v1.396z"/></mask><path d="M22.344 16.578h-2.18v-2.704h2.18v2.704zm-1.526-.654h.873v-1.396h-.873v1.396z" fill="#444"/><path d="M22.344 16.578h-2.18v-2.704h2.18v2.704zm-1.526-.654h.873v-1.396h-.873v1.396z" stroke="#444" stroke-width=".2" mask="url(#g)"/><mask id="h" maskUnits="userSpaceOnUse" x="1.404" y="17.193" width="6" height="8" fill="#000"><path fill="#fff" d="M1.404 17.193h6v8h-6z"/><path d="M3.85 24.243H2.8a.397.397 0 01-.392-.448l.68-5.602h3.24l-2.106 5.792a.404.404 0 01-.372.258zm-.759-.653h.579l1.723-4.744h-1.73l-.572 4.744z"/></mask><path d="M3.85 24.243H2.8a.397.397 0 01-.392-.448l.68-5.602h3.24l-2.106 5.792a.404.404 0 01-.372.258zm-.759-.653h.579l1.723-4.744h-1.73l-.572 4.744z" fill="#444"/><path d="M3.85 24.243H2.8a.397.397 0 01-.392-.448l.68-5.602h3.24l-2.106 5.792a.404.404 0 01-.372.258h0zm-.759-.653h.579l1.723-4.744h-1.73l-.572 4.744z" stroke="#444" stroke-width=".2" mask="url(#h)"/><mask id="i" maskUnits="userSpaceOnUse" x="21.668" y="17.193" width="6" height="8" fill="#000"><path fill="#fff" d="M21.668 17.193h6v8h-6z"/><path d="M26.195 24.243h-1.05a.404.404 0 01-.372-.258l-2.105-5.792h3.24l.686 5.619a.4.4 0 01-.399.431zm-.87-.653h.582l-.578-4.744h-1.73l1.727 4.744z"/></mask><path d="M26.195 24.243h-1.05a.404.404 0 01-.372-.258l-2.105-5.792h3.24l.686 5.619a.4.4 0 01-.399.431zm-.87-.653h.582l-.578-4.744h-1.73l1.727 4.744z" fill="#444"/><path d="M26.195 24.243h-1.05a.404.404 0 01-.372-.258l-2.105-5.792h3.24l.686 5.619a.4.4 0 01-.399.431h0zm-.87-.653h.582l-.578-4.744h-1.73l1.727 4.744z" stroke="#444" stroke-width=".2" mask="url(#i)"/></svg>