<svg width="29" height="29" fill="none" xmlns="http://www.w3.org/2000/svg"><mask id="a" maskUnits="userSpaceOnUse" x="2.603" y="1" width="23" height="25" fill="#000"><path fill="#fff" d="M2.603 1h23v25h-23z"/><path d="M3.954 2h21.09c.195 0 .352.157.352.352v22.497a.351.351 0 01-.351.35H3.954a.351.351 0 01-.351-.35V2.352c0-.195.157-.352.351-.352zm.352.703v21.794h20.387V2.703H4.306zm6.678 2.11h11.249a.35.35 0 01.351.35v16.873a.351.351 0 01-.351.352H10.984a.351.351 0 01-.351-.352V5.164c0-.195.157-.352.351-.352zm.352.702v16.17H21.88V5.515H11.336zm-4.219 7.698a1.758 1.758 0 11.704 0v3.2a.352.352 0 01-.704 0v-3.2zm.352-.667a1.055 1.055 0 100-2.11 1.055 1.055 0 000 2.11zm9.945-2.007a.352.352 0 01.498.497l-3.515 3.516a.352.352 0 01-.498-.498l3.516-3.515zm1.055 2.812a.352.352 0 01.497.498l-2.109 2.109a.352.352 0 01-.497-.497l2.11-2.11z"/></mask><path d="M3.954 2h21.09c.195 0 .352.157.352.352v22.497a.351.351 0 01-.351.35H3.954a.351.351 0 01-.351-.35V2.352c0-.195.157-.352.351-.352zm.352.703v21.794h20.387V2.703H4.306zm6.678 2.11h11.249a.35.35 0 01.351.35v16.873a.351.351 0 01-.351.352H10.984a.351.351 0 01-.351-.352V5.164c0-.195.157-.352.351-.352zm.352.702v16.17H21.88V5.515H11.336zm-4.219 7.698a1.758 1.758 0 11.704 0v3.2a.352.352 0 01-.704 0v-3.2zm.352-.667a1.055 1.055 0 100-2.11 1.055 1.055 0 000 2.11zm9.945-2.007a.352.352 0 01.498.497l-3.515 3.516a.352.352 0 01-.498-.498l3.516-3.515zm1.055 2.812a.352.352 0 01.497.498l-2.109 2.109a.352.352 0 01-.497-.497l2.11-2.11z" fill="#444"/><path d="M3.954 2h21.09c.195 0 .352.157.352.352v22.497a.351.351 0 01-.351.35H3.954a.351.351 0 01-.351-.35V2.352c0-.195.157-.352.351-.352v0zm.352.703v21.794h20.387V2.703H4.306zm6.678 2.11h11.249a.35.35 0 01.351.35v16.873a.351.351 0 01-.351.352H10.984a.351.351 0 01-.351-.352V5.164c0-.195.157-.352.351-.352zm.352.702v16.17H21.88V5.515H11.336zm-4.219 7.698a1.758 1.758 0 11.704 0v3.2a.352.352 0 01-.704 0v-3.2zm.352-.667a1.055 1.055 0 100-2.11 1.055 1.055 0 000 2.11zm9.945-2.007a.352.352 0 01.498.497l-3.515 3.516a.352.352 0 01-.498-.498l3.516-3.515zm1.055 2.812a.352.352 0 01.497.498l-2.109 2.109a.352.352 0 01-.497-.497l2.11-2.11z" stroke="#444" stroke-width=".4" mask="url(#a)"/></svg>