<svg width="29" height="29" fill="none" xmlns="http://www.w3.org/2000/svg"><mask id="a" maskUnits="userSpaceOnUse" x="18.784" y="17.8" width="6" height="6" fill="#000"><path fill="#fff" d="M18.784 17.8h6v6h-6z"/><path d="M21.657 18.8a1.874 1.874 0 000 3.747 1.874 1.874 0 000-3.747zm0 3.472a1.6 1.6 0 010-3.197 1.599 1.599 0 010 3.197z"/></mask><path d="M21.657 18.8a1.874 1.874 0 000 3.747 1.874 1.874 0 000-3.747zm0 3.472a1.6 1.6 0 010-3.197 1.599 1.599 0 010 3.197z" fill="#444"/><path d="M21.657 18.8a1.874 1.874 0 000 3.747 1.874 1.874 0 000-3.747zm0 3.472a1.6 1.6 0 010-3.197 1.599 1.599 0 010 3.197z" stroke="#444" stroke-width=".6" mask="url(#a)"/><mask id="b" maskUnits="userSpaceOnUse" x="15.313" y="14.328" width="12" height="12" fill="#000"><path fill="#fff" d="M15.313 14.328h12v12h-12z"/><path d="M21.657 15.328a5.35 5.35 0 00-5.343 5.343 5.35 5.35 0 005.343 5.344 5.349 5.349 0 005.342-5.344 5.349 5.349 0 00-5.342-5.343zm0 10.412a5.074 5.074 0 01-5.069-5.068 5.074 5.074 0 015.069-5.069 5.074 5.074 0 015.067 5.069 5.073 5.073 0 01-5.067 5.068z"/></mask><path d="M21.657 15.328a5.35 5.35 0 00-5.343 5.343 5.35 5.35 0 005.343 5.344 5.349 5.349 0 005.342-5.344 5.349 5.349 0 00-5.342-5.343zm0 10.412a5.074 5.074 0 01-5.069-5.068 5.074 5.074 0 015.069-5.069 5.074 5.074 0 015.067 5.069 5.073 5.073 0 01-5.067 5.068z" fill="#444"/><path d="M21.657 15.328a5.35 5.35 0 00-5.343 5.343 5.35 5.35 0 005.343 5.344 5.349 5.349 0 005.342-5.344 5.349 5.349 0 00-5.342-5.343zm0 10.412a5.074 5.074 0 01-5.069-5.068 5.074 5.074 0 015.069-5.069 5.074 5.074 0 015.067 5.069 5.073 5.073 0 01-5.067 5.068z" stroke="#444" stroke-width=".6" mask="url(#b)"/><mask id="c" maskUnits="userSpaceOnUse" x="4.469" y="5.653" width="6" height="6" fill="#000"><path fill="#fff" d="M4.469 5.653h6v6h-6z"/><path d="M9.214 8.524A1.873 1.873 0 107.34 10.4a1.877 1.877 0 001.874-1.875zm-3.47 0a1.599 1.599 0 113.197.004 1.599 1.599 0 01-3.197-.004z"/></mask><path d="M9.214 8.524A1.873 1.873 0 107.34 10.4a1.877 1.877 0 001.874-1.875zm-3.47 0a1.599 1.599 0 113.197.004 1.599 1.599 0 01-3.197-.004z" fill="#444"/><path d="M9.214 8.524A1.873 1.873 0 107.34 10.4a1.877 1.877 0 001.874-1.875zm-3.47 0a1.599 1.599 0 113.197.004 1.599 1.599 0 01-3.197-.004z" stroke="#444" stroke-width=".6" mask="url(#c)"/><mask id="d" maskUnits="userSpaceOnUse" x=".999" y="2.185" width="12" height="12" fill="#000"><path fill="#fff" d="M.999 2.185h12v12h-12z"/><path d="M12.684 8.524a5.347 5.347 0 00-5.344-5.34A5.347 5.347 0 002 8.525a5.348 5.348 0 005.341 5.344 5.35 5.35 0 005.344-5.344zm-10.41 0A5.072 5.072 0 017.34 3.46a5.073 5.073 0 015.07 5.065 5.074 5.074 0 01-5.07 5.069 5.073 5.073 0 01-5.066-5.069z"/></mask><path d="M12.684 8.524a5.347 5.347 0 00-5.344-5.34A5.347 5.347 0 002 8.525a5.348 5.348 0 005.341 5.344 5.35 5.35 0 005.344-5.344zm-10.41 0A5.072 5.072 0 017.34 3.46a5.073 5.073 0 015.07 5.065 5.074 5.074 0 01-5.07 5.069 5.073 5.073 0 01-5.066-5.069z" fill="#444"/><path d="M12.684 8.524a5.347 5.347 0 00-5.344-5.34A5.347 5.347 0 002 8.525a5.348 5.348 0 005.341 5.344 5.35 5.35 0 005.344-5.344zm-10.41 0A5.072 5.072 0 017.34 3.46a5.073 5.073 0 015.07 5.065 5.074 5.074 0 01-5.07 5.069 5.073 5.073 0 01-5.066-5.069z" stroke="#444" stroke-width=".6" mask="url(#d)"/><mask id="e" maskUnits="userSpaceOnUse" x="5.804" y="3.05" width="17" height="23" fill="#000"><path fill="#fff" d="M5.804 3.05h17v23h-17z"/><path d="M22.26 4.117a.137.137 0 00-.117-.066h-3.946a.137.137 0 00-.12.072L6.82 24.943a.137.137 0 00.12.203h3.947c.05 0 .097-.027.12-.072L22.264 4.253a.136.136 0 00-.003-.135zM10.806 24.872H7.173L18.28 4.325h3.634L10.806 24.872z"/></mask><path d="M22.26 4.117a.137.137 0 00-.117-.066h-3.946a.137.137 0 00-.12.072L6.82 24.943a.137.137 0 00.12.203h3.947c.05 0 .097-.027.12-.072L22.264 4.253a.136.136 0 00-.003-.135zM10.806 24.872H7.173L18.28 4.325h3.634L10.806 24.872z" fill="#444"/><path d="M22.26 4.117a.137.137 0 00-.117-.066h-3.946a.137.137 0 00-.12.072L6.82 24.943a.137.137 0 00.12.203h3.947c.05 0 .097-.027.12-.072L22.264 4.253a.136.136 0 00-.003-.135h0zM10.806 24.872H7.173L18.28 4.325h3.634L10.806 24.872z" stroke="#444" stroke-width=".6" mask="url(#e)"/></svg>