<svg width="29" height="29" fill="none" xmlns="http://www.w3.org/2000/svg"><g clip-path="url(#clip0_272_63477)"><mask id="a" maskUnits="userSpaceOnUse" x="9.672" y="15.217" width="9" height="19" fill="#000"><path fill="#fff" d="M9.672 15.217h9v19h-9z"/><path d="M17.13 18.627v-1.65h-5.697v1.65h5.697zm-5.389 12.202V19.387h-1.07v-3.17h7.22v3.17h-1.07V30.83h1.07V34h-7.22v-3.17h1.07zm5.39.761h-5.698v1.65h5.697v-1.65zm-1.07-12.203h-3.559V30.83h3.559V19.388z"/></mask><path d="M17.13 18.627v-1.65h-5.697v1.65h5.697zm-5.389 12.202V19.387h-1.07v-3.17h7.22v3.17h-1.07V30.83h1.07V34h-7.22v-3.17h1.07zm5.39.761h-5.698v1.65h5.697v-1.65zm-1.07-12.203h-3.559V30.83h3.559V19.388z" fill="#444"/><path d="M17.13 18.627v-1.65h-5.697v1.65h5.697zm-5.389 12.202V19.387h-1.07v-3.17h7.22v3.17h-1.07V30.83h1.07V34h-7.22v-3.17h1.07zm5.39.761h-5.698v1.65h5.697v-1.65zm-1.07-12.203h-3.559V30.83h3.559V19.388z" stroke="#444" stroke-width=".2" mask="url(#a)"/></g><mask id="b" maskUnits="userSpaceOnUse" x="6" y="1" width="13" height="15" fill="#000"><path fill="#fff" d="M6 1h13v15H6z"/><path d="M9.788 8.106a2.494 2.494 0 001.779 1.25 1.879 1.879 0 00-1.139 1.732c0 .947.697 1.731 1.593 1.85.044 1.146.974 2.062 2.109 2.062 1.16 0 2.104-.965 2.104-2.145 0-.732-.364-1.388-.931-1.776a1.88 1.88 0 00.39-1.017C16.983 9.947 18 8.846 18 7.502c0-.493-.139-.969-.407-1.387.043-.19.065-.362.065-.533 0-1.419-1.134-2.573-2.528-2.573a2.37 2.37 0 00-.697.106A2.343 2.343 0 0012.446 2a2.333 2.333 0 00-2.195 1.55 2.259 2.259 0 00-.9-.184C8.056 3.366 7 4.44 7 5.762c.004 1.462 1.32 2.634 2.788 2.344zM9.35 4.22c.329 0 .65.115.922.33.12.093.286.115.424.05a.43.43 0 00.251-.353c.074-.793.714-1.397 1.494-1.397.61 0 1.16.375 1.398.952.022.066.247.762-.247 1.044a.431.431 0 00-.164.581.42.42 0 00.571.168c.702-.397.797-1.128.723-1.67a1.6 1.6 0 01.403-.057c.93 0 1.688.77 1.688 1.718 0 .145-.026.304-.082.493a.434.434 0 00.07.384c.233.308.354.67.354 1.044 0 .947-.758 1.713-1.688 1.713-.04 0-.074-.004-.113-.008l-.07-.01a.4.4 0 00-.354.142.437.437 0 00-.1.374.938.938 0 01.022.216c0 .37-.2.71-.524.886a.43.43 0 00-.22.431.42.42 0 00.315.362c.572.145.97.656.97 1.25 0 .714-.567 1.291-1.264 1.291a1.281 1.281 0 01-1.268-1.29c0-.084.008-.172.026-.27a.423.423 0 00-.412-.501c-.026 0-.052.004-.078.008a.65.65 0 01-.13.014c-.55 0-1-.454-1-1.014s.45-1.017 1-1.017c.03 0 .061.004.091.008l.057.01a.42.42 0 00.467-.349c.056-.322.243-.507.62-.868l.15-.145a.434.434 0 00.018-.6.412.412 0 00-.589-.026 1.638 1.638 0 01-1.108.436 1.673 1.673 0 01-1.567-1.092.42.42 0 00-.533-.247c-1.06.388-2.03-.418-2.03-1.44-.004-.86.675-1.55 1.507-1.55z"/></mask><path d="M9.788 8.106a2.494 2.494 0 001.779 1.25 1.879 1.879 0 00-1.139 1.732c0 .947.697 1.731 1.593 1.85.044 1.146.974 2.062 2.109 2.062 1.16 0 2.104-.965 2.104-2.145 0-.732-.364-1.388-.931-1.776a1.88 1.88 0 00.39-1.017C16.983 9.947 18 8.846 18 7.502c0-.493-.139-.969-.407-1.387.043-.19.065-.362.065-.533 0-1.419-1.134-2.573-2.528-2.573a2.37 2.37 0 00-.697.106A2.343 2.343 0 0012.446 2a2.333 2.333 0 00-2.195 1.55 2.259 2.259 0 00-.9-.184C8.056 3.366 7 4.44 7 5.762c.004 1.462 1.32 2.634 2.788 2.344zM9.35 4.22c.329 0 .65.115.922.33.12.093.286.115.424.05a.43.43 0 00.251-.353c.074-.793.714-1.397 1.494-1.397.61 0 1.16.375 1.398.952.022.066.247.762-.247 1.044a.431.431 0 00-.164.581.42.42 0 00.571.168c.702-.397.797-1.128.723-1.67a1.6 1.6 0 01.403-.057c.93 0 1.688.77 1.688 1.718 0 .145-.026.304-.082.493a.434.434 0 00.07.384c.233.308.354.67.354 1.044 0 .947-.758 1.713-1.688 1.713-.04 0-.074-.004-.113-.008l-.07-.01a.4.4 0 00-.354.142.437.437 0 00-.1.374.938.938 0 01.022.216c0 .37-.2.71-.524.886a.43.43 0 00-.22.431.42.42 0 00.315.362c.572.145.97.656.97 1.25 0 .714-.567 1.291-1.264 1.291a1.281 1.281 0 01-1.268-1.29c0-.084.008-.172.026-.27a.423.423 0 00-.412-.501c-.026 0-.052.004-.078.008a.65.65 0 01-.13.014c-.55 0-1-.454-1-1.014s.45-1.017 1-1.017c.03 0 .061.004.091.008l.057.01a.42.42 0 00.467-.349c.056-.322.243-.507.62-.868l.15-.145a.434.434 0 00.018-.6.412.412 0 00-.589-.026 1.638 1.638 0 01-1.108.436 1.673 1.673 0 01-1.567-1.092.42.42 0 00-.533-.247c-1.06.388-2.03-.418-2.03-1.44-.004-.86.675-1.55 1.507-1.55z" fill="#444"/><path d="M9.788 8.106a2.494 2.494 0 001.779 1.25 1.879 1.879 0 00-1.139 1.732c0 .947.697 1.731 1.593 1.85.044 1.146.974 2.062 2.109 2.062 1.16 0 2.104-.965 2.104-2.145 0-.732-.364-1.388-.931-1.776a1.88 1.88 0 00.39-1.017C16.983 9.947 18 8.846 18 7.502c0-.493-.139-.969-.407-1.387.043-.19.065-.362.065-.533 0-1.419-1.134-2.573-2.528-2.573a2.37 2.37 0 00-.697.106A2.343 2.343 0 0012.446 2a2.333 2.333 0 00-2.195 1.55 2.259 2.259 0 00-.9-.184C8.056 3.366 7 4.44 7 5.762c.004 1.462 1.32 2.634 2.788 2.344h0zM9.35 4.22c.329 0 .65.115.922.33.12.093.286.115.424.05a.43.43 0 00.251-.353c.074-.793.714-1.397 1.494-1.397.61 0 1.16.375 1.398.952.022.066.247.762-.247 1.044a.431.431 0 00-.164.581.42.42 0 00.571.168c.702-.397.797-1.128.723-1.67a1.6 1.6 0 01.403-.057c.93 0 1.688.77 1.688 1.718 0 .145-.026.304-.082.493a.434.434 0 00.07.384c.233.308.354.67.354 1.044 0 .947-.758 1.713-1.688 1.713-.04 0-.074-.004-.113-.008l-.07-.01a.4.4 0 00-.354.142.437.437 0 00-.1.374.938.938 0 01.022.216c0 .37-.2.71-.524.886a.43.43 0 00-.22.431.42.42 0 00.315.362c.572.145.97.656.97 1.25 0 .714-.567 1.291-1.264 1.291a1.281 1.281 0 01-1.268-1.29c0-.084.008-.172.026-.27a.423.423 0 00-.412-.501c-.026 0-.052.004-.078.008a.65.65 0 01-.13.014c-.55 0-1-.454-1-1.014s.45-1.017 1-1.017c.03 0 .061.004.091.008l.057.01a.42.42 0 00.467-.349c.056-.322.243-.507.62-.868l.15-.145a.434.434 0 00.018-.6.412.412 0 00-.589-.026 1.638 1.638 0 01-1.108.436 1.673 1.673 0 01-1.567-1.092.42.42 0 00-.533-.247c-1.06.388-2.03-.418-2.03-1.44-.004-.86.675-1.55 1.507-1.55h0z" stroke="#444" stroke-width=".2" mask="url(#b)"/><defs><clipPath id="clip0_272_63477"><path fill="#fff" d="M0 0h29v29H0z"/></clipPath></defs></svg>