<svg width="29" height="29" fill="none" xmlns="http://www.w3.org/2000/svg"><mask id="a" maskUnits="userSpaceOnUse" x="3" y="1.78" width="25" height="25" fill="#000"><path fill="#fff" d="M3 1.78h25v25H3z"/><path d="M27 25.927V3.073a.293.293 0 00-.293-.293H3.854a.293.293 0 00-.293.293v22.854c0 .162.13.293.293.293h22.853a.293.293 0 00.293-.293zm-11.269-.293v-7.14h10.683v7.14H15.731zm4.905-14.704v6.979H9.869V10.93h10.767zm.586 6.979V10.93h5.192v6.979h-5.192zM9.282 10.93v6.979H4.147V10.93h5.135zm17.132-.586h-5.406c-.025-.007-.05-.016-.08-.016-.027 0-.053.009-.079.016h-5.117V3.366h10.682v6.978zM15.145 3.366v6.978h-5.49c-.026-.007-.051-.016-.08-.016-.028 0-.053.009-.079.016h-5.35V3.366h11zM4.147 18.495h10.998v7.139H4.147v-7.14z"/></mask><path d="M27 25.927V3.073a.293.293 0 00-.293-.293H3.854a.293.293 0 00-.293.293v22.854c0 .162.13.293.293.293h22.853a.293.293 0 00.293-.293zm-11.269-.293v-7.14h10.683v7.14H15.731zm4.905-14.704v6.979H9.869V10.93h10.767zm.586 6.979V10.93h5.192v6.979h-5.192zM9.282 10.93v6.979H4.147V10.93h5.135zm17.132-.586h-5.406c-.025-.007-.05-.016-.08-.016-.027 0-.053.009-.079.016h-5.117V3.366h10.682v6.978zM15.145 3.366v6.978h-5.49c-.026-.007-.051-.016-.08-.016-.028 0-.053.009-.079.016h-5.35V3.366h11zM4.147 18.495h10.998v7.139H4.147v-7.14z" fill="#444"/><path d="M27 25.927V3.073a.293.293 0 00-.293-.293H3.854a.293.293 0 00-.293.293v22.854c0 .162.13.293.293.293h22.853a.293.293 0 00.293-.293h0zm-11.269-.293v-7.14h10.683v7.14H15.731zm4.905-14.704v6.979H9.869V10.93h10.767zm.586 6.979V10.93h5.192v6.979h-5.192zM9.282 10.93v6.979H4.147V10.93h5.135zm17.132-.586h-5.406c-.025-.007-.05-.016-.08-.016-.027 0-.053.009-.079.016h-5.117V3.366h10.682v6.978zM15.145 3.366v6.978h-5.49c-.026-.007-.051-.016-.08-.016-.028 0-.053.009-.079.016h-5.35V3.366h11zM4.147 18.495h10.998v7.139H4.147v-7.14z" stroke="#444" stroke-width=".6" mask="url(#a)"/></svg>