<svg width="18" height="18" fill="none" xmlns="http://www.w3.org/2000/svg"><path d="M17.227 13.748c0 .27-.06.547-.187.817-.127.27-.293.525-.51.765a3.381 3.381 0 0 1-1.23.885 3.76 3.76 0 0 1-1.463.285c-.764 0-1.582-.18-2.444-.547a13.173 13.173 0 0 1-2.58-1.486 21.563 21.563 0 0 1-2.46-2.1A21.31 21.31 0 0 1 4.26 9.915c-.615-.855-1.11-1.71-1.47-2.557-.36-.855-.54-1.673-.54-2.453 0-.51.09-.998.27-1.448a3.46 3.46 0 0 1 .862-1.252c.48-.473 1.006-.705 1.56-.705.21 0 .42.045.608.135.195.09.368.225.503.42l1.74 2.453c.135.187.232.36.3.524.067.158.104.316.104.458 0 .18-.052.36-.157.532-.097.173-.24.353-.42.533l-.57.593a.401.401 0 0 0-.12.3c0 .06.008.112.022.172.023.06.045.105.06.15.136.248.368.57.698.96.337.39.698.787 1.087 1.185.405.398.795.765 1.193 1.103.39.33.713.554.967.69.038.014.083.037.135.06.06.022.12.03.188.03a.413.413 0 0 0 .308-.128l.57-.563c.187-.187.367-.33.54-.42a.999.999 0 0 1 .532-.157c.143 0 .293.03.457.098a2.9 2.9 0 0 1 .526.292l2.482 1.762c.195.136.33.293.413.48.075.188.12.375.12.585Z" stroke="#414B55" stroke-width="1.3" stroke-miterlimit="10"/></svg>