<svg width="20" height="20" fill="none" xmlns="http://www.w3.org/2000/svg"><path d="M14.998 5.967a.505.505 0 0 0-.158 0 2.144 2.144 0 0 1-2.067-2.15 2.15 2.15 0 1 1 2.225 2.15Zm-.856 6.066c1.142.192 2.4-.008 3.284-.6 1.175-.783 1.175-2.066 0-2.85-.892-.591-2.167-.791-3.309-.591M4.981 5.967a.505.505 0 0 1 .159 0 2.144 2.144 0 0 0 2.066-2.15c0-1.192-.958-2.15-2.15-2.15a2.15 2.15 0 0 0-.075 4.3Zm.855 6.066c-1.141.192-2.4-.008-3.283-.6-1.175-.783-1.175-2.066 0-2.85.892-.591 2.167-.791 3.308-.591m4.137 4.2a.507.507 0 0 0-.158 0 2.144 2.144 0 0 1-2.067-2.15 2.15 2.15 0 1 1 4.3 0c-.008 1.166-.925 2.116-2.075 2.15Zm2.429 2.625c-1.325-.884-3.517-.884-4.85 0-1.175.783-1.175 2.066 0 2.85 1.333.891 3.516.891 4.85 0" stroke="#202A30" stroke-linecap="round" stroke-linejoin="round"/></svg>