<svg width="28" height="28" fill="none" xmlns="http://www.w3.org/2000/svg"><path fill-rule="evenodd" clip-rule="evenodd" d="M14 26c6.627 0 12-5.373 12-12S20.627 2 14 2 2 7.373 2 14s5.373 12 12 12Zm-4.664-7.84a.778.778 0 0 0 .48.144h.976v1.504a.67.67 0 0 0 .192.496.671.671 0 0 0 .496.192.671.671 0 0 0 .496-.192.671.671 0 0 0 .192-.496v-1.504h2.496a.71.71 0 0 0 .464-.144.5.5 0 0 0 .192-.4.5.5 0 0 0-.192-.4.663.663 0 0 0-.464-.16h-2.496v-1.088h2.512c.79 0 1.488-.17 2.096-.512a3.77 3.77 0 0 0 1.44-1.424c.352-.608.528-1.307.528-2.096 0-.8-.176-1.504-.528-2.112a3.599 3.599 0 0 0-1.44-1.44C16.168 8.176 15.47 8 14.68 8h-3.2a.671.671 0 0 0-.496.192.671.671 0 0 0-.192.496V14.8h-.976a.651.651 0 0 0-.48.192c-.117.117-.176.277-.176.48 0 .181.059.336.176.464a.683.683 0 0 0 .48.176h.976V17.2h-.976a.724.724 0 0 0-.48.16.518.518 0 0 0-.176.4c0 .16.059.293.176.4Zm2.832-3.36h2.512c.534 0 1.003-.112 1.408-.336.405-.235.726-.555.96-.96.235-.416.352-.885.352-1.408 0-.555-.117-1.04-.352-1.456a2.558 2.558 0 0 0-.96-.976c-.405-.245-.875-.368-1.408-.368h-2.512V14.8Z" fill="#A9AFB4"/></svg>