<svg width="28" height="28" fill="none" xmlns="http://www.w3.org/2000/svg"><path d="M21 2.333H7c-1.937 0-3.5 1.552-3.5 3.465v12.729c0 1.913 1.563 3.465 3.5 3.465h.887c.933 0 1.82.361 2.473 1.015l1.995 1.971a2.36 2.36 0 0 0 3.302 0l1.995-1.971a3.506 3.506 0 0 1 2.473-1.015H21c1.937 0 3.5-1.552 3.5-3.465V5.798c0-1.913-1.563-3.465-3.5-3.465Zm-7 4.375a2.714 2.714 0 0 1 2.718 2.719A2.714 2.714 0 0 1 14 12.145a2.721 2.721 0 0 1-2.718-2.718A2.714 2.714 0 0 1 14 6.708Zm3.127 10.862h-6.254c-.945 0-1.493-1.05-.968-1.832.793-1.178 2.333-1.971 4.095-1.971 1.762 0 3.302.793 4.095 1.971.525.782-.035 1.832-.968 1.832Z" fill="#A9AFB4"/></svg>