<svg width="19" height="19" fill="none" xmlns="http://www.w3.org/2000/svg"><path d="M3.959 9.5h-.792v6.333a1.583 1.583 0 001.584 1.584h3.958V9.5h-4.75zm10.292 0h-3.959v7.917h3.959a1.583 1.583 0 001.583-1.584V9.5h-1.583zm.626-3.958c.116-.385.172-.786.165-1.188a2.774 2.774 0 00-2.77-2.77c-1.285 0-2.142 1.172-2.695 2.442-.546-1.2-1.447-2.443-2.847-2.443a2.774 2.774 0 00-2.771 2.771c0 .472.063.862.165 1.188h-2.54v3.166h7.125V7.125h1.583v1.583h7.125V5.542h-2.54zM5.542 4.354c0-.655.533-1.187 1.188-1.187.703 0 1.357 1.207 1.74 2.375H6.334c-.296 0-.792 0-.792-1.188zm6.73-1.187c.654 0 1.187.532 1.187 1.187 0 1.188-.496 1.188-.792 1.188h-1.96c.403-1.248.99-2.375 1.564-2.375z" fill="#999"/></svg>