<svg width="25" height="25" fill="none" xmlns="http://www.w3.org/2000/svg"><mask id="a" maskUnits="userSpaceOnUse" x="1.191" y="1.344" width="22" height="22" fill="#000"><path fill="#fff" d="M1.191 1.344h22v22h-22z"/><path d="M22.45 6.205a1.176 1.176 0 00-.902-.417H5.555L5.04 3.267a1.148 1.148 0 00-.406-.662 1.188 1.188 0 00-.741-.261H2.582a.387.387 0 00-.39.382c0 .212.174.383.39.383h1.312a.39.39 0 01.383.306l2.356 11.55c.09.433.328.823.677 1.103.348.28.785.434 1.236.436h10.706a1.98 1.98 0 001.243-.44c.35-.282.588-.676.674-1.113l1.53-7.798a1.127 1.127 0 00-.248-.948zm-.52.804l-1.53 7.798a1.145 1.145 0 01-.403.668 1.19 1.19 0 01-.745.264H8.547a1.188 1.188 0 01-.742-.262 1.147 1.147 0 01-.407-.662L5.713 6.554h15.835c.116 0 .227.05.3.139a.377.377 0 01.083.316zM10 18.324c-.518 0-1.015.202-1.38.56a1.895 1.895 0 00-.572 1.354c0 .507.205.994.571 1.353s.863.56 1.38.56c.518 0 1.015-.201 1.381-.56.366-.36.572-.846.572-1.353a1.9 1.9 0 00-.573-1.353 1.976 1.976 0 00-1.38-.56zm0 3.062c-.311 0-.609-.121-.829-.336a1.137 1.137 0 01-.343-.812c0-.305.124-.597.343-.812a1.184 1.184 0 011.657 0 1.134 1.134 0 010 1.624c-.22.215-.518.336-.828.336zm7.808-3.062c-.518 0-1.014.202-1.38.56a1.895 1.895 0 00-.572 1.354c0 .507.205.994.571 1.353.367.359.863.56 1.38.56.518 0 1.015-.201 1.381-.56.366-.36.572-.846.572-1.353 0-.508-.207-.994-.573-1.353a1.976 1.976 0 00-1.38-.56zm0 3.062c-.31 0-.609-.121-.828-.336a1.137 1.137 0 01-.343-.812c0-.305.123-.597.343-.812a1.184 1.184 0 011.656 0 1.136 1.136 0 010 1.624c-.22.215-.518.336-.828.336z"/></mask><path d="M22.45 6.205a1.176 1.176 0 00-.902-.417H5.555L5.04 3.267a1.148 1.148 0 00-.406-.662 1.188 1.188 0 00-.741-.261H2.582a.387.387 0 00-.39.382c0 .212.174.383.39.383h1.312a.39.39 0 01.383.306l2.356 11.55c.09.433.328.823.677 1.103.348.28.785.434 1.236.436h10.706a1.98 1.98 0 001.243-.44c.35-.282.588-.676.674-1.113l1.53-7.798a1.127 1.127 0 00-.248-.948zm-.52.804l-1.53 7.798a1.145 1.145 0 01-.403.668 1.19 1.19 0 01-.745.264H8.547a1.188 1.188 0 01-.742-.262 1.147 1.147 0 01-.407-.662L5.713 6.554h15.835c.116 0 .227.05.3.139a.377.377 0 01.083.316zM10 18.324c-.518 0-1.015.202-1.38.56a1.895 1.895 0 00-.572 1.354c0 .507.205.994.571 1.353s.863.56 1.38.56c.518 0 1.015-.201 1.381-.56.366-.36.572-.846.572-1.353a1.9 1.9 0 00-.573-1.353 1.976 1.976 0 00-1.38-.56zm0 3.062c-.311 0-.609-.121-.829-.336a1.137 1.137 0 01-.343-.812c0-.305.124-.597.343-.812a1.184 1.184 0 011.657 0 1.134 1.134 0 010 1.624c-.22.215-.518.336-.828.336zm7.808-3.062c-.518 0-1.014.202-1.38.56a1.895 1.895 0 00-.572 1.354c0 .507.205.994.571 1.353.367.359.863.56 1.38.56.518 0 1.015-.201 1.381-.56.366-.36.572-.846.572-1.353 0-.508-.207-.994-.573-1.353a1.976 1.976 0 00-1.38-.56zm0 3.062c-.31 0-.609-.121-.828-.336a1.137 1.137 0 01-.343-.812c0-.305.123-.597.343-.812a1.184 1.184 0 011.656 0 1.136 1.136 0 010 1.624c-.22.215-.518.336-.828.336z" fill="#231F20"/><path d="M22.45 6.205a1.176 1.176 0 00-.902-.417H5.555L5.04 3.267a1.148 1.148 0 00-.406-.662 1.188 1.188 0 00-.741-.261H2.582a.387.387 0 00-.39.382c0 .212.174.383.39.383h1.312a.39.39 0 01.383.306l2.356 11.55c.09.433.328.823.677 1.103.348.28.785.434 1.236.436h10.706a1.98 1.98 0 001.243-.44c.35-.282.588-.676.674-1.113l1.53-7.798a1.127 1.127 0 00-.248-.948zm-.52.804l-1.53 7.798a1.145 1.145 0 01-.403.668 1.19 1.19 0 01-.745.264H8.547a1.188 1.188 0 01-.742-.262 1.147 1.147 0 01-.407-.662L5.713 6.554h15.835c.116 0 .227.05.3.139a.377.377 0 01.083.316zM10 18.324c-.518 0-1.015.202-1.38.56a1.895 1.895 0 00-.572 1.354c0 .507.205.994.571 1.353s.863.56 1.38.56c.518 0 1.015-.201 1.381-.56.366-.36.572-.846.572-1.353a1.9 1.9 0 00-.573-1.353 1.976 1.976 0 00-1.38-.56zm0 3.062c-.311 0-.609-.121-.829-.336a1.137 1.137 0 01-.343-.812c0-.305.124-.597.343-.812a1.184 1.184 0 011.657 0 1.134 1.134 0 010 1.624c-.22.215-.518.336-.828.336zm7.808-3.062c-.518 0-1.014.202-1.38.56a1.895 1.895 0 00-.572 1.354c0 .507.205.994.571 1.353.367.359.863.56 1.38.56.518 0 1.015-.201 1.381-.56.366-.36.572-.846.572-1.353 0-.508-.207-.994-.573-1.353a1.976 1.976 0 00-1.38-.56zm0 3.062c-.31 0-.609-.121-.828-.336a1.137 1.137 0 01-.343-.812c0-.305.123-.597.343-.812a1.184 1.184 0 011.656 0 1.136 1.136 0 010 1.624c-.22.215-.518.336-.828.336z" stroke="#231F20" stroke-width=".6" mask="url(#a)"/></svg>