<svg width="24" height="22" fill="none" xmlns="http://www.w3.org/2000/svg"><path d="M12.166 4.813C5.086 4.813 2.255 11 2.255 11s2.832 6.188 9.912 6.188c7.08 0 9.911-6.188 9.911-6.188s-2.832-6.188-9.912-6.188z" stroke="#959699" stroke-width="1.5" stroke-linecap="round" stroke-linejoin="round"/><path d="M12.167 14.438c1.955 0 3.54-1.54 3.54-3.438 0-1.898-1.585-3.438-3.54-3.438S8.627 9.102 8.627 11c0 1.899 1.585 3.438 3.54 3.438z" stroke="#959699" stroke-width="1.5" stroke-linecap="round" stroke-linejoin="round"/><path transform="matrix(.65515 .7555 -.77412 .63304 4.102 2.86)" stroke="#959699" stroke-width="1.5" stroke-linecap="round" d="M.75-.75h21.221"/><path transform="matrix(.65515 .7555 -.77412 .63304 5.346 1.975)" stroke="#fff" stroke-width="1.5" stroke-linecap="round" d="M.75-.75h21.221"/></svg>