<svg width="25" height="25" fill="none" xmlns="http://www.w3.org/2000/svg"><path d="M19.015 15.246a9.795 9.795 0 00-3.711-2.235c1.48-.978 2.451-2.615 2.451-4.466 0-2.989-2.533-5.42-5.646-5.42s-5.645 2.431-5.645 5.42c0 1.851.972 3.488 2.451 4.466a9.796 9.796 0 00-3.71 2.235c-1.657 1.59-2.645 3.65-2.83 5.867-.035.42.31.762.732.762.421 0 .759-.343.8-.762.401-4.005 3.927-7.148 8.202-7.148 4.276 0 7.802 3.143 8.202 7.148.042.42.38.762.801.762.421 0 .766-.342.731-.762-.184-2.217-1.172-4.277-2.828-5.867zM12.109 12.5c-2.271 0-4.12-1.774-4.12-3.955 0-2.18 1.849-3.955 4.12-3.955 2.272 0 4.12 1.774 4.12 3.955 0 2.18-1.848 3.955-4.12 3.955z" fill="#231F20"/></svg>