<svg width="29" height="25" fill="none" xmlns="http://www.w3.org/2000/svg"><mask id="a" maskUnits="userSpaceOnUse" x="1.232" y=".188" width="27" height="25" fill="#000"><path fill="#fff" d="M1.232.188h27v25h-27z"/><path d="M26.448 5.62a1.43 1.43 0 00-1.079-.478H6.255l-.616-2.894a1.31 1.31 0 00-.486-.76 1.46 1.46 0 00-.886-.3H2.699c-.258 0-.467.197-.467.44 0 .242.21.439.467.439h1.568a.46.46 0 01.458.351L7.54 15.675c.107.497.393.945.81 1.266.416.322.938.499 1.477.5h12.798c.542 0 1.067-.179 1.485-.504a2.18 2.18 0 00.806-1.278l1.829-8.951a1.257 1.257 0 00-.297-1.087zm-.62.923l-1.83 8.951c-.06.3-.232.572-.482.767a1.45 1.45 0 01-.89.302H9.829c-.323 0-.636-.107-.886-.3a1.31 1.31 0 01-.486-.76L6.442 6.021h18.927c.14 0 .272.058.36.16a.42.42 0 01.099.362zM11.566 19.531a2.41 2.41 0 00-1.65.643c-.438.412-.684.97-.684 1.553 0 .582.246 1.141.684 1.553a2.41 2.41 0 001.65.643 2.41 2.41 0 001.65-.643c.437-.412.683-.97.683-1.553 0-.582-.247-1.14-.684-1.552a2.413 2.413 0 00-1.65-.644zm0 3.514c-.372 0-.728-.139-.99-.386a1.28 1.28 0 01-.41-.932c0-.35.147-.685.41-.932.262-.247.618-.386.99-.386.37 0 .727.14.99.386.262.247.41.583.41.932 0 .35-.148.685-.41.932a1.446 1.446 0 01-.99.386zm9.333-3.514a2.41 2.41 0 00-1.65.643 2.13 2.13 0 00-.683 1.553c0 .582.245 1.141.683 1.553a2.41 2.41 0 001.65.643 2.41 2.41 0 001.65-.643 2.13 2.13 0 00.683-1.553c0-.582-.247-1.14-.684-1.552a2.413 2.413 0 00-1.649-.644zm0 3.514c-.371 0-.727-.139-.99-.386a1.28 1.28 0 01-.41-.932c0-.35.148-.685.41-.932.263-.247.619-.386.99-.386s.727.14.99.386c.262.247.41.583.41.932 0 .35-.148.685-.41.932a1.446 1.446 0 01-.99.386z"/></mask><path d="M26.448 5.62a1.43 1.43 0 00-1.079-.478H6.255l-.616-2.894a1.31 1.31 0 00-.486-.76 1.46 1.46 0 00-.886-.3H2.699c-.258 0-.467.197-.467.44 0 .242.21.439.467.439h1.568a.46.46 0 01.458.351L7.54 15.675c.107.497.393.945.81 1.266.416.322.938.499 1.477.5h12.798c.542 0 1.067-.179 1.485-.504a2.18 2.18 0 00.806-1.278l1.829-8.951a1.257 1.257 0 00-.297-1.087zm-.62.923l-1.83 8.951c-.06.3-.232.572-.482.767a1.45 1.45 0 01-.89.302H9.829c-.323 0-.636-.107-.886-.3a1.31 1.31 0 01-.486-.76L6.442 6.021h18.927c.14 0 .272.058.36.16a.42.42 0 01.099.362zM11.566 19.531a2.41 2.41 0 00-1.65.643c-.438.412-.684.97-.684 1.553 0 .582.246 1.141.684 1.553a2.41 2.41 0 001.65.643 2.41 2.41 0 001.65-.643c.437-.412.683-.97.683-1.553 0-.582-.247-1.14-.684-1.552a2.413 2.413 0 00-1.65-.644zm0 3.514c-.372 0-.728-.139-.99-.386a1.28 1.28 0 01-.41-.932c0-.35.147-.685.41-.932.262-.247.618-.386.99-.386.37 0 .727.14.99.386.262.247.41.583.41.932 0 .35-.148.685-.41.932a1.446 1.446 0 01-.99.386zm9.333-3.514a2.41 2.41 0 00-1.65.643 2.13 2.13 0 00-.683 1.553c0 .582.245 1.141.683 1.553a2.41 2.41 0 001.65.643 2.41 2.41 0 001.65-.643 2.13 2.13 0 00.683-1.553c0-.582-.247-1.14-.684-1.552a2.413 2.413 0 00-1.649-.644zm0 3.514c-.371 0-.727-.139-.99-.386a1.28 1.28 0 01-.41-.932c0-.35.148-.685.41-.932.263-.247.619-.386.99-.386s.727.14.99.386c.262.247.41.583.41.932 0 .35-.148.685-.41.932a1.446 1.446 0 01-.99.386z" fill="#fff"/><path d="M26.448 5.62a1.43 1.43 0 00-1.079-.478H6.255l-.616-2.894a1.31 1.31 0 00-.486-.76 1.46 1.46 0 00-.886-.3H2.699c-.258 0-.467.197-.467.44 0 .242.21.439.467.439h1.568a.46.46 0 01.458.351L7.54 15.675c.107.497.393.945.81 1.266.416.322.938.499 1.477.5h12.798c.542 0 1.067-.179 1.485-.504a2.18 2.18 0 00.806-1.278l1.829-8.951a1.257 1.257 0 00-.297-1.087zm-.62.923l-1.83 8.951c-.06.3-.232.572-.482.767a1.45 1.45 0 01-.89.302H9.829c-.323 0-.636-.107-.886-.3a1.31 1.31 0 01-.486-.76L6.442 6.021h18.927c.14 0 .272.058.36.16a.42.42 0 01.099.362zM11.566 19.531a2.41 2.41 0 00-1.65.643c-.438.412-.684.97-.684 1.553 0 .582.246 1.141.684 1.553a2.41 2.41 0 001.65.643 2.41 2.41 0 001.65-.643c.437-.412.683-.97.683-1.553 0-.582-.247-1.14-.684-1.552a2.413 2.413 0 00-1.65-.644zm0 3.514c-.372 0-.728-.139-.99-.386a1.28 1.28 0 01-.41-.932c0-.35.147-.685.41-.932.262-.247.618-.386.99-.386.37 0 .727.14.99.386.262.247.41.583.41.932 0 .35-.148.685-.41.932a1.446 1.446 0 01-.99.386zm9.333-3.514a2.41 2.41 0 00-1.65.643 2.13 2.13 0 00-.683 1.553c0 .582.245 1.141.683 1.553a2.41 2.41 0 001.65.643 2.41 2.41 0 001.65-.643 2.13 2.13 0 00.683-1.553c0-.582-.247-1.14-.684-1.552a2.413 2.413 0 00-1.649-.644zm0 3.514c-.371 0-.727-.139-.99-.386a1.28 1.28 0 01-.41-.932c0-.35.148-.685.41-.932.263-.247.619-.386.99-.386s.727.14.99.386c.262.247.41.583.41.932 0 .35-.148.685-.41.932a1.446 1.446 0 01-.99.386z" stroke="#fff" mask="url(#a)"/></svg>