<svg width="39" height="39" fill="none" xmlns="http://www.w3.org/2000/svg"><mask id="a" fill="#fff"><path d="M16.678 33.355c3.7-.001 7.294-1.24 10.21-3.52L36.051 39 39 36.052l-9.165-9.164a16.577 16.577 0 003.521-10.21C33.356 7.481 25.874 0 16.678 0 7.482 0 0 7.482 0 16.677c0 9.196 7.482 16.678 16.678 16.678zm0-29.186c6.899 0 12.509 5.61 12.509 12.508 0 6.899-5.61 12.508-12.509 12.508-6.898 0-12.508-5.61-12.508-12.508C4.17 9.78 9.78 4.17 16.678 4.17z"/></mask><path d="M16.678 33.355c3.7-.001 7.294-1.24 10.21-3.52L36.051 39 39 36.052l-9.165-9.164a16.577 16.577 0 003.521-10.21C33.356 7.481 25.874 0 16.678 0 7.482 0 0 7.482 0 16.677c0 9.196 7.482 16.678 16.678 16.678zm0-29.186c6.899 0 12.509 5.61 12.509 12.508 0 6.899-5.61 12.508-12.509 12.508-6.898 0-12.508-5.61-12.508-12.508C4.17 9.78 9.78 4.17 16.678 4.17z" fill="#231F20" stroke="#fff" stroke-width="2" mask="url(#a)"/></svg>