<svg width="25" height="25" fill="none" xmlns="http://www.w3.org/2000/svg"><path d="M21.338 3.125H17.18l.52 5.208s1.042 1.042 2.605 1.042a3.364 3.364 0 002.227-.84.524.524 0 00.156-.484l-.734-4.404a.625.625 0 00-.616-.522z" stroke="#231F20" stroke-width="1.5"/><path d="M17.18 3.125l.52 5.208s-1.041 1.042-2.604 1.042c-1.562 0-2.604-1.042-2.604-1.042V3.125h4.688z" stroke="#231F20" stroke-width="1.5"/><path d="M12.493 3.125v5.208S11.452 9.375 9.89 9.375c-1.562 0-2.604-1.042-2.604-1.042l.521-5.208h4.687zm-4.687 0H3.648a.625.625 0 00-.617.522l-.734 4.404c-.03.18.02.363.156.484.342.303 1.106.84 2.228.84 1.562 0 2.604-1.042 2.604-1.042l.52-5.208zm-4.681 6.25v10.417c0 1.15.933 2.083 2.083 2.083h14.584c1.15 0 2.083-.933 2.083-2.083V9.375" stroke="#231F20" stroke-width="1.5"/><path d="M15.451 21.875v-6.25c0-1.15-.933-2.084-2.083-2.084h-2.084c-1.15 0-2.083.933-2.083 2.084v6.25" stroke="#231F20" stroke-width="1.5" stroke-miterlimit="16"/></svg>