<svg width="24" height="25" fill="none" xmlns="http://www.w3.org/2000/svg"><mask id="a" fill="#fff"><path d="M11.666 1.408a.65.65 0 01.665 0l5.033 2.996a.693.693 0 01.338.606v5.586l4.695 2.796a.68.68 0 01.247.255.72.72 0 01.091.349v5.992a.721.721 0 01-.09.35.686.686 0 01-.248.257l-5.033 2.996a.65.65 0 01-.665 0l-4.7-2.796-4.7 2.797a.65.65 0 01-.666 0L1.6 20.596a.687.687 0 01-.248-.256.722.722 0 01-.09-.35v-5.993a.72.72 0 01.09-.35.685.685 0 01.248-.256l4.695-2.795V5.011c0-.123.03-.244.09-.351a.685.685 0 01.248-.256l5.033-2.996zm-4.7 10.399l-3.68 2.19 3.68 2.191 3.68-2.19-3.68-2.191zm4.362 3.396l-3.691 2.196v4.381l3.69-2.196v-4.381zm1.342 4.381l3.69 2.196V17.4l-3.69-2.196v4.381zm.681-5.587l3.68 2.191 3.68-2.19-3.68-2.191-3.68 2.19zm3.01-3.401V6.214L12.67 8.412v4.382l3.69-2.198zm-5.034 2.198V8.412l-3.69-2.198v4.382l3.69 2.198zM8.32 5.01L12 7.2l3.68-2.19L12 2.819l-3.68 2.19zm13.074 10.192l-3.69 2.196v4.381l3.69-2.196v-4.381zM6.295 21.78V17.4l-3.691-2.196v4.381l3.69 2.196z"/></mask><path d="M11.666 1.408a.65.65 0 01.665 0l5.033 2.996a.693.693 0 01.338.606v5.586l4.695 2.796a.68.68 0 01.247.255.72.72 0 01.091.349v5.992a.721.721 0 01-.09.35.686.686 0 01-.248.257l-5.033 2.996a.65.65 0 01-.665 0l-4.7-2.796-4.7 2.797a.65.65 0 01-.666 0L1.6 20.596a.687.687 0 01-.248-.256.722.722 0 01-.09-.35v-5.993a.72.72 0 01.09-.35.685.685 0 01.248-.256l4.695-2.795V5.011c0-.123.03-.244.09-.351a.685.685 0 01.248-.256l5.033-2.996zm-4.7 10.399l-3.68 2.19 3.68 2.191 3.68-2.19-3.68-2.191zm4.362 3.396l-3.691 2.196v4.381l3.69-2.196v-4.381zm1.342 4.381l3.69 2.196V17.4l-3.69-2.196v4.381zm.681-5.587l3.68 2.191 3.68-2.19-3.68-2.191-3.68 2.19zm3.01-3.401V6.214L12.67 8.412v4.382l3.69-2.198zm-5.034 2.198V8.412l-3.69-2.198v4.382l3.69 2.198zM8.32 5.01L12 7.2l3.68-2.19L12 2.819l-3.68 2.19zm13.074 10.192l-3.69 2.196v4.381l3.69-2.196v-4.381zM6.295 21.78V17.4l-3.691-2.196v4.381l3.69 2.196z" fill="#231F20" stroke="#fff" stroke-width=".2" mask="url(#a)"/></svg>