<svg width="19" height="19" viewBox="0 0 19 19" fill="none" xmlns="http://www.w3.org/2000/svg">
	<path d="M3.95898 9.49992H3.16732V15.8333C3.16732 16.2532 3.33413 16.6559 3.63107 16.9528C3.928 17.2498 4.33072 17.4166 4.75065 17.4166H8.70898V9.49992H3.95898ZM14.2507 9.49992H10.2923V17.4166H14.2507C14.6706 17.4166 15.0733 17.2498 15.3702 16.9528C15.6672 16.6559 15.834 16.2532 15.834 15.8333V9.49992H14.2507ZM14.8769 5.54158C14.993 5.15666 15.0488 4.75609 15.0423 4.35409C15.0423 2.82617 13.7994 1.58325 12.2715 1.58325C10.9874 1.58325 10.13 2.7565 9.57665 4.02554C9.03119 2.82617 8.13028 1.58325 6.72982 1.58325C5.2019 1.58325 3.95898 2.82617 3.95898 4.35409C3.95898 4.82592 4.02153 5.21621 4.12444 5.54158H1.58398V8.70825H8.70898V7.12492H10.2923V8.70825H17.4173V5.54158H14.8769ZM5.54232 4.35409C5.54232 3.69938 6.07511 3.16659 6.72982 3.16659C7.43282 3.16659 8.08673 4.37388 8.4699 5.54158H6.33398C6.0379 5.54158 5.54232 5.54158 5.54232 4.35409ZM12.2715 3.16659C12.9262 3.16659 13.459 3.69938 13.459 4.35409C13.459 5.54158 12.9634 5.54158 12.6673 5.54158H10.7064C11.1101 4.29392 11.6967 3.16659 12.2715 3.16659Z" fill="#999999" />
</svg>