<svg width="25" height="25" viewBox="0 0 25 25" fill="none" xmlns="http://www.w3.org/2000/svg">
	<path d="M6.60302 8.94269C8.84748 8.94269 10.667 8.18369 10.667 7.24741C10.667 6.31113 8.84748 5.55212 6.60302 5.55212C4.35856 5.55212 2.53906 6.31113 2.53906 7.24741C2.53906 8.18369 4.35856 8.94269 6.60302 8.94269Z" stroke="#231F20" stroke-width="1.3" stroke-miterlimit="10" />
	<path d="M18.4295 16.6157C20.6968 16.6157 22.5348 15.8461 22.5348 14.8968C22.5348 13.9474 20.6968 13.1779 18.4295 13.1779C16.1622 13.1779 14.3242 13.9474 14.3242 14.8968C14.3242 15.8461 16.1622 16.6157 18.4295 16.6157Z" stroke="#231F20" stroke-width="1.3" stroke-miterlimit="10" />
	<path d="M2.54297 7.24744V19.1144" stroke="#231F20" stroke-width="1.3" stroke-miterlimit="10" stroke-linecap="round" />
	<path d="M10.665 7.24744V19.1381C10.665 20.0772 8.84564 20.8333 6.60102 20.8333C4.35639 20.8333 2.54297 20.0536 2.54297 19.1381" stroke="#231F20" stroke-width="1.3" stroke-miterlimit="10" />
	<path d="M10.6662 15.1804C10.6662 16.1196 8.82911 16.8757 6.53132 16.8757C4.23353 16.8757 2.39648 16.1137 2.39648 15.1804" stroke="#231F20" stroke-width="1.3" stroke-miterlimit="10" />
	<path d="M22.5353 14.8969V19.0849C22.5353 20.0359 20.6983 20.8038 18.4005 20.8038C16.1027 20.8038 14.2656 20.0359 14.2656 19.0849V14.8969" stroke="#231F20" stroke-width="1.3" stroke-miterlimit="10" />
	<path d="M10.6657 11.087C10.6657 12.0262 8.82868 12.7823 6.53089 12.7823C4.23311 12.7823 2.44922 12.0499 2.44922 11.087" stroke="#231F20" stroke-width="1.3" stroke-miterlimit="10" />
</svg>