<svg width="23" height="20" viewBox="0 0 23 20" fill="none" xmlns="http://www.w3.org/2000/svg">
	<path d="M5.68363 4.58502C7.89603 4.58502 9.68953 3.85638 9.68953 2.95755C9.68953 2.05872 7.89603 1.33008 5.68363 1.33008C3.47124 1.33008 1.67773 2.05872 1.67773 2.95755C1.67773 3.85638 3.47124 4.58502 5.68363 4.58502Z" stroke="#999999" stroke-width="1.5" stroke-miterlimit="10" />
	<path d="M17.3416 11.9512C19.5765 11.9512 21.3882 11.2124 21.3882 10.301C21.3882 9.38968 19.5765 8.65088 17.3416 8.65088C15.1067 8.65088 13.2949 9.38968 13.2949 10.301C13.2949 11.2124 15.1067 11.9512 17.3416 11.9512Z" stroke="#999999" stroke-width="1.5" stroke-miterlimit="10" />
	<path d="M1.68555 2.95752V14.3498" stroke="#999999" stroke-width="2" stroke-miterlimit="10" stroke-linecap="round" />
	<path d="M9.69152 2.95752V14.3725C9.69152 15.2741 7.89818 16 5.68562 16C3.47306 16 1.68555 15.2515 1.68555 14.3725" stroke="#999999" stroke-width="1.5" stroke-miterlimit="10" />
	<path d="M9.6906 10.5732C9.6906 11.4749 7.8798 12.2007 5.61483 12.2007C3.34987 12.2007 1.53906 11.4692 1.53906 10.5732" stroke="#999999" stroke-width="1.5" stroke-miterlimit="10" />
	<path d="M21.3879 10.301V14.3215C21.3879 15.2345 19.5771 15.9717 17.3121 15.9717C15.0471 15.9717 13.2363 15.2345 13.2363 14.3215V10.301" stroke="#999999" stroke-width="1.5" stroke-miterlimit="10" />
	<path d="M9.69093 6.64355C9.69093 7.54519 7.88013 8.27103 5.61516 8.27103C3.3502 8.27103 1.5918 7.56787 1.5918 6.64355" stroke="#999999" stroke-width="1.5" stroke-miterlimit="10" />
</svg>