<svg width="25" height="25" viewBox="0 0 25 25" fill="none" xmlns="http://www.w3.org/2000/svg">
	<mask id="path-1-outside-1_1529_383187" maskUnits="userSpaceOnUse" x="8.375" y="7.59375" width="13" height="9" fill="black">
		<rect fill="white" x="8.375" y="7.59375" width="13" height="9" />
		<path d="M20.9523 12.1589L17.4437 8.71291C17.3497 8.63235 17.228 8.58986 17.1033 8.59403C16.9786 8.5982 16.8601 8.64873 16.7719 8.73538C16.6837 8.82204 16.6322 8.93837 16.628 9.06085C16.6237 9.18334 16.667 9.30283 16.749 9.39519L19.4175 12.0164H9.88198C9.81612 12.0145 9.75054 12.0256 9.68912 12.049C9.6277 12.0724 9.57169 12.1077 9.52442 12.1528C9.47714 12.1979 9.43956 12.2518 9.41389 12.3114C9.38822 12.371 9.375 12.4351 9.375 12.4998C9.375 12.5645 9.38822 12.6286 9.41389 12.6882C9.43956 12.7478 9.47714 12.8017 9.52442 12.8468C9.57169 12.8918 9.6277 12.9271 9.68912 12.9506C9.75054 12.974 9.81612 12.9851 9.88198 12.9831H19.4158L16.7468 15.6048C16.6648 15.6972 16.6216 15.8167 16.6258 15.9391C16.6301 16.0616 16.6815 16.178 16.7697 16.2646C16.858 16.3513 16.9764 16.4018 17.1011 16.406C17.2258 16.4101 17.3475 16.3677 17.4415 16.2871L20.9502 12.8411C21.0421 12.7506 21.0938 12.6279 21.0938 12.5C21.0938 12.3721 21.0421 12.2494 20.9502 12.1589H20.9523Z" />
	</mask>
	<path d="M20.9523 12.1589L17.4437 8.71291C17.3497 8.63235 17.228 8.58986 17.1033 8.59403C16.9786 8.5982 16.8601 8.64873 16.7719 8.73538C16.6837 8.82204 16.6322 8.93837 16.628 9.06085C16.6237 9.18334 16.667 9.30283 16.749 9.39519L19.4175 12.0164H9.88198C9.81612 12.0145 9.75054 12.0256 9.68912 12.049C9.6277 12.0724 9.57169 12.1077 9.52442 12.1528C9.47714 12.1979 9.43956 12.2518 9.41389 12.3114C9.38822 12.371 9.375 12.4351 9.375 12.4998C9.375 12.5645 9.38822 12.6286 9.41389 12.6882C9.43956 12.7478 9.47714 12.8017 9.52442 12.8468C9.57169 12.8918 9.6277 12.9271 9.68912 12.9506C9.75054 12.974 9.81612 12.9851 9.88198 12.9831H19.4158L16.7468 15.6048C16.6648 15.6972 16.6216 15.8167 16.6258 15.9391C16.6301 16.0616 16.6815 16.178 16.7697 16.2646C16.858 16.3513 16.9764 16.4018 17.1011 16.406C17.2258 16.4101 17.3475 16.3677 17.4415 16.2871L20.9502 12.8411C21.0421 12.7506 21.0938 12.6279 21.0938 12.5C21.0938 12.3721 21.0421 12.2494 20.9502 12.1589H20.9523Z" fill="#231F20" />
	<path d="M20.9523 12.1589L17.4437 8.71291C17.3497 8.63235 17.228 8.58986 17.1033 8.59403C16.9786 8.5982 16.8601 8.64873 16.7719 8.73538C16.6837 8.82204 16.6322 8.93837 16.628 9.06085C16.6237 9.18334 16.667 9.30283 16.749 9.39519L19.4175 12.0164H9.88198C9.81612 12.0145 9.75054 12.0256 9.68912 12.049C9.6277 12.0724 9.57169 12.1077 9.52442 12.1528C9.47714 12.1979 9.43956 12.2518 9.41389 12.3114C9.38822 12.371 9.375 12.4351 9.375 12.4998C9.375 12.5645 9.38822 12.6286 9.41389 12.6882C9.43956 12.7478 9.47714 12.8017 9.52442 12.8468C9.57169 12.8918 9.6277 12.9271 9.68912 12.9506C9.75054 12.974 9.81612 12.9851 9.88198 12.9831H19.4158L16.7468 15.6048C16.6648 15.6972 16.6216 15.8167 16.6258 15.9391C16.6301 16.0616 16.6815 16.178 16.7697 16.2646C16.858 16.3513 16.9764 16.4018 17.1011 16.406C17.2258 16.4101 17.3475 16.3677 17.4415 16.2871L20.9502 12.8411C21.0421 12.7506 21.0938 12.6279 21.0938 12.5C21.0938 12.3721 21.0421 12.2494 20.9502 12.1589H20.9523Z" stroke="#231F20" stroke-width="0.2" stroke-linejoin="round" mask="url(#path-1-outside-1_1529_383187)" />
	<mask id="path-2-outside-2_1529_383187" maskUnits="userSpaceOnUse" x="2.90625" y="2.90625" width="13" height="19" fill="black">
		<rect fill="white" x="2.90625" y="2.90625" width="13" height="19" />
		<path d="M15.149 16.587C15.023 16.587 14.9023 16.6393 14.8132 16.7322C14.7242 16.8252 14.6742 16.9513 14.6742 17.0828V19.0979C14.6742 19.3646 14.5727 19.6204 14.3921 19.8089C14.2116 19.9975 13.9666 20.1035 13.7112 20.1035H5.81751C5.56212 20.1035 5.31718 19.9975 5.13659 19.8089C4.95601 19.6204 4.85455 19.3646 4.85455 19.0979V5.9021C4.85455 5.63541 4.95601 5.37963 5.13659 5.19105C5.31718 5.00247 5.56212 4.89653 5.81751 4.89653H13.7125C13.9679 4.89653 14.2128 5.00247 14.3934 5.19105C14.574 5.37963 14.6754 5.63541 14.6754 5.9021V7.86954C14.6754 8.00103 14.7255 8.12714 14.8145 8.22011C14.9035 8.31309 15.0243 8.36533 15.1502 8.36533C15.2761 8.36533 15.3969 8.31309 15.4859 8.22011C15.575 8.12714 15.625 8.00103 15.625 7.86954V5.9021C15.6244 5.37295 15.4229 4.86563 15.0646 4.49146C14.7063 4.11729 14.2205 3.90683 13.7137 3.90625H5.81751C5.31078 3.90683 4.82497 4.11729 4.46666 4.49146C4.10835 4.86563 3.9068 5.37295 3.90625 5.9021V19.0979C3.9068 19.6271 4.10835 20.1344 4.46666 20.5085C4.82497 20.8827 5.31078 21.0932 5.81751 21.0938H13.7125C14.2192 21.0932 14.705 20.8827 15.0633 20.5085C15.4216 20.1344 15.6232 19.6271 15.6237 19.0979V17.0828C15.6237 16.9513 15.5737 16.8252 15.4847 16.7322C15.3956 16.6393 15.2749 16.587 15.149 16.587Z" />
	</mask>
	<path d="M15.149 16.587C15.023 16.587 14.9023 16.6393 14.8132 16.7322C14.7242 16.8252 14.6742 16.9513 14.6742 17.0828V19.0979C14.6742 19.3646 14.5727 19.6204 14.3921 19.8089C14.2116 19.9975 13.9666 20.1035 13.7112 20.1035H5.81751C5.56212 20.1035 5.31718 19.9975 5.13659 19.8089C4.95601 19.6204 4.85455 19.3646 4.85455 19.0979V5.9021C4.85455 5.63541 4.95601 5.37963 5.13659 5.19105C5.31718 5.00247 5.56212 4.89653 5.81751 4.89653H13.7125C13.9679 4.89653 14.2128 5.00247 14.3934 5.19105C14.574 5.37963 14.6754 5.63541 14.6754 5.9021V7.86954C14.6754 8.00103 14.7255 8.12714 14.8145 8.22011C14.9035 8.31309 15.0243 8.36533 15.1502 8.36533C15.2761 8.36533 15.3969 8.31309 15.4859 8.22011C15.575 8.12714 15.625 8.00103 15.625 7.86954V5.9021C15.6244 5.37295 15.4229 4.86563 15.0646 4.49146C14.7063 4.11729 14.2205 3.90683 13.7137 3.90625H5.81751C5.31078 3.90683 4.82497 4.11729 4.46666 4.49146C4.10835 4.86563 3.9068 5.37295 3.90625 5.9021V19.0979C3.9068 19.6271 4.10835 20.1344 4.46666 20.5085C4.82497 20.8827 5.31078 21.0932 5.81751 21.0938H13.7125C14.2192 21.0932 14.705 20.8827 15.0633 20.5085C15.4216 20.1344 15.6232 19.6271 15.6237 19.0979V17.0828C15.6237 16.9513 15.5737 16.8252 15.4847 16.7322C15.3956 16.6393 15.2749 16.587 15.149 16.587Z" fill="#231F20" />
	<path d="M15.149 16.587C15.023 16.587 14.9023 16.6393 14.8132 16.7322C14.7242 16.8252 14.6742 16.9513 14.6742 17.0828V19.0979C14.6742 19.3646 14.5727 19.6204 14.3921 19.8089C14.2116 19.9975 13.9666 20.1035 13.7112 20.1035H5.81751C5.56212 20.1035 5.31718 19.9975 5.13659 19.8089C4.95601 19.6204 4.85455 19.3646 4.85455 19.0979V5.9021C4.85455 5.63541 4.95601 5.37963 5.13659 5.19105C5.31718 5.00247 5.56212 4.89653 5.81751 4.89653H13.7125C13.9679 4.89653 14.2128 5.00247 14.3934 5.19105C14.574 5.37963 14.6754 5.63541 14.6754 5.9021V7.86954C14.6754 8.00103 14.7255 8.12714 14.8145 8.22011C14.9035 8.31309 15.0243 8.36533 15.1502 8.36533C15.2761 8.36533 15.3969 8.31309 15.4859 8.22011C15.575 8.12714 15.625 8.00103 15.625 7.86954V5.9021C15.6244 5.37295 15.4229 4.86563 15.0646 4.49146C14.7063 4.11729 14.2205 3.90683 13.7137 3.90625H5.81751C5.31078 3.90683 4.82497 4.11729 4.46666 4.49146C4.10835 4.86563 3.9068 5.37295 3.90625 5.9021V19.0979C3.9068 19.6271 4.10835 20.1344 4.46666 20.5085C4.82497 20.8827 5.31078 21.0932 5.81751 21.0938H13.7125C14.2192 21.0932 14.705 20.8827 15.0633 20.5085C15.4216 20.1344 15.6232 19.6271 15.6237 19.0979V17.0828C15.6237 16.9513 15.5737 16.8252 15.4847 16.7322C15.3956 16.6393 15.2749 16.587 15.149 16.587Z" stroke="#231F20" stroke-width="0.2" stroke-linejoin="round" mask="url(#path-2-outside-2_1529_383187)" />
</svg>