<svg width="38" height="36" viewBox="0 0 38 36" fill="none" xmlns="http://www.w3.org/2000/svg">
	<g clip-path="url(#clip0_1529_384074)">
		<path d="M15.2353 31.3415C14.8901 31.3415 14.5834 31.3415 14.2383 31.3415C14.2383 30.8346 14.2383 30.3277 14.2383 29.8208C14.545 29.8208 14.8901 29.8208 15.2353 29.8208C15.2353 30.2887 15.2353 30.7956 15.2353 31.3415Z" fill="#666666" />
		<path d="M14.2383 32.1018C14.5834 32.1018 14.8901 32.1018 15.2353 32.1018C15.2353 32.6235 15.2353 33.1452 15.2353 33.707C14.8901 33.707 14.5834 33.707 14.2383 33.707C14.2383 33.1853 14.2383 32.6636 14.2383 32.1018Z" fill="#666666" />
		<path d="M16.8974 31.3415C16.5783 31.3415 16.2593 31.3415 15.9004 31.3415C15.9004 30.8198 15.9004 30.2981 15.9004 29.7363C16.2194 29.7363 16.5385 29.7363 16.8974 29.7363C16.8974 30.258 16.8974 30.7797 16.8974 31.3415Z" fill="#666666" />
		<path d="M16.8974 33.707C16.5523 33.707 16.2455 33.707 15.9004 33.707C15.9004 33.1853 15.9004 32.6636 15.9004 32.1018C16.2455 32.1018 16.5523 32.1018 16.8974 32.1018C16.8974 32.6636 16.8974 33.1452 16.8974 33.707Z" fill="#666666" />
		<path d="M19.8278 25.5307C19.6313 25.3707 19.3562 25.0906 19.3562 25.0906C19.3562 25.0906 19.3955 21.8895 19.3955 21.4493C20.4566 21.4493 22.6967 21.4493 22.7753 21.4493C19.9457 19.0085 16.9589 16.4477 14.1293 14.0068C13.1074 14.8871 12.0856 15.7274 11.1031 16.6077C10.7494 16.9278 10.3564 17.2079 10.3564 17.2079C10.3564 17.2079 9.96341 16.9278 9.5311 16.5677C7.76259 15.0472 6.03336 13.5267 4.26484 12.0062C3.98974 11.7661 3.71466 11.606 3.79326 11.0859C3.87186 10.5257 3.98975 10.2456 4.53995 10.0455C4.65785 10.0055 4.85435 9.84544 4.85435 9.7254C4.89365 9.40529 5.16877 9.36528 5.36527 9.20523C5.32597 9.08519 5.24737 8.96514 5.16877 8.8451C5.32597 8.80509 5.44385 8.80509 5.64036 8.72506C5.48315 8.60502 5.40457 8.56501 5.28667 8.525C5.28667 8.48498 5.32596 8.48498 5.32596 8.44497C5.48316 8.48498 5.67966 8.48498 5.83686 8.525C5.83686 8.48498 5.87617 8.44497 5.87617 8.40496C5.67967 8.28492 5.52246 8.20489 5.32596 8.08485C5.36526 8.04483 5.36526 8.00482 5.40456 7.96481C5.64037 8.08485 5.87617 8.20489 6.26918 8.36495C6.11197 8.12486 6.03337 7.84477 5.87617 7.80476C5.64037 7.72473 5.28667 7.72473 5.09017 7.88478C4.65786 8.20489 4.26486 8.60503 3.79326 9.00516C3.63606 8.76508 3.51814 8.60503 3.43954 8.40496C3.24304 7.96481 3.08584 7.48464 2.85004 7.0445C2.81074 6.96447 2.49634 7.0445 2.33914 7.08451C2.37844 7.40462 2.29983 7.88478 2.45704 7.96481C2.77144 8.20489 2.73213 8.36495 2.57493 8.60503C2.26053 9.16522 2.41773 9.60535 2.85004 10.0455C3.04654 10.2456 3.28235 10.5257 3.32165 10.8058C3.36095 11.0859 3.55744 11.406 3.16444 11.7261C1.55312 13.0465 -0.0188847 14.447 -1.5909 15.8074C-3.04501 17.0479 -4.49913 18.2883 -5.91394 19.5287C-6.62135 20.1689 -7.36805 20.7691 -8.19336 21.4893C-6.66064 21.4893 -5.12793 21.4893 -3.75242 21.4893C-3.75242 22.0095 -3.79174 23.0499 -3.79174 23.0499V25.5707C-3.79174 28.2116 -3.79174 30.8125 -3.79174 33.4534C-3.04503 33.4534 -2.3769 33.4534 -1.7088 33.4534C-1.7088 28.7318 -1.7088 24.0502 -1.7088 19.3686C-1.9446 19.3286 -2.1804 19.3286 -2.4948 19.2886C-0.411884 17.488 1.59244 15.7674 3.59676 14.0468C5.64038 15.8074 7.60539 17.528 9.68831 19.2886C9.33461 19.3286 9.0988 19.3286 8.8237 19.3286C8.8237 19.5287 8.8237 19.6887 8.8237 19.8888C8.8237 22.2896 8.8237 24.7304 8.8237 27.1312C8.8237 27.2113 8.8237 27.4914 8.8237 27.4914C8.8237 27.4914 8.66648 27.6514 8.58788 27.7314C7.48747 28.7318 6.30847 29.6921 5.20806 30.6524C4.97226 30.8525 4.77575 31.0526 4.46134 31.3327C5.67966 31.3327 6.74077 31.3327 7.80188 31.3327C8.27348 31.3327 8.6272 31.3327 8.6272 31.3327C8.6272 31.3327 8.6272 31.6928 8.6272 32.1729C8.6272 32.5331 8.6272 32.9332 8.6272 33.3733C9.21671 33.3733 9.76691 33.3733 10.2778 33.3733C10.3171 33.3733 10.5136 33.3733 10.5136 33.3733C10.5136 33.3733 10.5136 33.0932 10.5136 33.0532C10.5529 32.493 10.5136 31.9729 10.5136 31.4127C10.5136 30.7725 10.5136 30.0922 10.5136 29.452C10.2385 29.452 9.6883 29.452 9.57039 29.452C9.64899 29.372 9.8848 29.1319 9.9634 29.0919C11.7319 27.5714 13.5004 26.0909 15.2297 24.5704C15.3476 24.4503 15.5441 24.2903 15.5441 24.2903C15.5441 24.2903 15.7013 24.4503 15.8192 24.5304C17.2733 25.7708 18.7274 27.0112 20.1815 28.2916C20.5745 28.6117 21.0854 29.1319 21.5177 29.492C21.0461 29.492 20.6924 29.492 20.6924 29.492C20.6924 29.492 20.6924 29.9722 20.6924 30.2523C20.6924 30.4524 20.6924 30.6524 20.6924 30.8125C20.6924 31.6528 20.6924 32.533 20.6924 33.4534C21.2426 33.4534 22.5788 33.4534 22.5788 33.4534V31.3727C22.5788 31.3727 22.9325 31.3727 23.129 31.3727C24.308 31.4127 25.4871 31.3727 26.784 31.3727C26.5875 31.2126 26.5089 31.1326 26.391 31.0126C24.1902 29.252 22.0286 27.3313 19.8278 25.5307ZM17.3126 23.33C16.8017 22.8898 15.5834 21.8495 15.5834 21.8495C15.5834 21.8495 15.3869 22.0095 15.2297 22.1296C13.972 23.2499 12.6751 24.3303 11.3782 25.4107C11.2603 25.5307 11.1031 25.6107 10.9066 25.7708C10.9066 24.3303 10.9066 22.9698 10.9066 21.5694C12.3214 21.5694 15.2297 21.5694 15.3083 21.5694C14.2472 20.6491 13.0288 19.6087 11.8891 18.6084C12.6358 17.9682 13.3432 17.3279 14.0899 16.6877C14.7973 17.3279 17.2733 19.4487 17.2733 19.4487C17.2733 19.4487 17.3126 22.4097 17.3126 23.33Z" fill="#666666" />
		<path d="M3.27237 21.7104C2.92726 21.7104 2.6205 21.7104 2.27539 21.7104C2.27539 21.2035 2.27539 20.6966 2.27539 20.1897C2.58216 20.1897 2.92726 20.1897 3.27237 20.1897C3.27237 20.6576 3.27237 21.1645 3.27237 21.7104Z" fill="#666666" />
		<path d="M2.27539 24.1603C2.27539 23.6387 2.27539 23.117 2.27539 22.5552C2.64925 22.5552 2.98159 22.5552 3.35545 22.5552C3.35545 23.0769 3.35545 23.5985 3.35545 24.1603" fill="#666666" />
		<path d="M4.93448 21.7104C4.61545 21.7104 4.29641 21.7104 3.9375 21.7104C3.9375 21.2162 3.9375 20.7219 3.9375 20.1897C4.25653 20.1897 4.57557 20.1897 4.93448 20.1897C4.93448 20.6839 4.93448 21.1781 4.93448 21.7104Z" fill="#666666" />
		<path d="M4.93448 24.1603C4.58937 24.1603 4.28261 24.1603 3.9375 24.1603C3.9375 23.6387 3.9375 23.117 3.9375 22.5552C4.28261 22.5552 4.58937 22.5552 4.93448 22.5552C4.93448 23.117 4.93448 23.5985 4.93448 24.1603Z" fill="#666666" />
	</g>
	<defs>
		<clipPath id="clip0_1529_384074">
			<rect width="55" height="49" fill="white" transform="translate(-17 -6)" />
		</clipPath>
	</defs>
</svg>