<svg width="25" height="25" viewBox="0 0 25 25" fill="none" xmlns="http://www.w3.org/2000/svg">
	<mask id="path-1-outside-1_1529_383167" maskUnits="userSpaceOnUse" x="1.19141" y="1.34375" width="22" height="22" fill="black">
		<rect fill="white" x="1.19141" y="1.34375" width="22" height="22" />
		<path d="M22.4505 6.20532C22.2284 5.94067 21.8971 5.78759 21.5475 5.78811H5.55639L5.04136 3.26686C4.98768 3.007 4.84424 2.77311 4.63509 2.60498C4.42595 2.43669 4.16397 2.34444 3.8935 2.34375H2.58181C2.36622 2.34375 2.19141 2.51511 2.19141 2.72645C2.19141 2.93779 2.36622 3.10916 2.58181 3.10916H3.8935C4.07929 3.10898 4.23946 3.23695 4.27658 3.41532L6.63264 14.9651C6.72205 15.3983 6.96117 15.788 7.30976 16.0683C7.65817 16.3486 8.09477 16.5024 8.54564 16.5036H19.2522C19.7059 16.5031 20.1453 16.3479 20.4949 16.0649C20.8447 15.7816 21.083 15.3879 21.169 14.9514L22.6991 7.1526C22.7652 6.8162 22.6739 6.46875 22.4505 6.20532ZM21.9309 7.009L20.4008 14.8074C20.3494 15.0691 20.2067 15.3053 19.9972 15.4753C19.7875 15.6451 19.5241 15.7382 19.2523 15.7385H8.54705C8.27638 15.7379 8.01427 15.6458 7.8051 15.4775C7.59578 15.3094 7.45216 15.0755 7.39848 14.8154L5.71312 6.55385H21.5476C21.6641 6.55385 21.7745 6.60477 21.8486 6.69292C21.9229 6.78091 21.9529 6.89692 21.9309 7.009ZM9.99959 18.3242C9.48193 18.3242 8.98542 18.5258 8.61919 18.8846C8.25319 19.2435 8.04755 19.7303 8.04755 20.2377C8.04755 20.7452 8.25321 21.2319 8.61919 21.5909C8.98537 21.9497 9.48193 22.1512 9.99959 22.1512C10.5172 22.1512 11.0138 21.9496 11.38 21.5909C11.746 21.2319 11.9516 20.7452 11.9516 20.2377C11.9509 19.7305 11.7451 19.244 11.3793 18.8853C11.0133 18.5267 10.5171 18.3249 9.99959 18.3242ZM9.99959 21.3858C9.68901 21.3858 9.39095 21.2649 9.17139 21.0496C8.95182 20.8343 8.82839 20.5422 8.82839 20.2377C8.82839 19.9333 8.95178 19.6411 9.17139 19.4259C9.39099 19.2107 9.68905 19.0897 9.99959 19.0897C10.3101 19.0897 10.6082 19.2106 10.8278 19.4259C11.0474 19.6412 11.1708 19.9333 11.1708 20.2377C11.1708 20.5422 11.0474 20.8344 10.8278 21.0496C10.6082 21.2648 10.3101 21.3858 9.99959 21.3858ZM17.8077 18.3242C17.2901 18.3242 16.7936 18.5258 16.4274 18.8846C16.0613 19.2435 15.8557 19.7303 15.8557 20.2377C15.8557 20.7452 16.0614 21.2319 16.4274 21.5909C16.7935 21.9497 17.2901 22.1512 17.8077 22.1512C18.3254 22.1512 18.8219 21.9496 19.1881 21.5909C19.5541 21.2319 19.7598 20.7452 19.7598 20.2377C19.7591 19.7305 19.5533 19.244 19.1874 18.8853C18.8214 18.5267 18.3252 18.3249 17.8077 18.3242ZM17.8077 21.3858C17.4972 21.3858 17.1991 21.2649 16.9795 21.0496C16.76 20.8343 16.6365 20.5422 16.6365 20.2377C16.6365 19.9333 16.7599 19.6411 16.9795 19.4259C17.1992 19.2107 17.4972 19.0897 17.8077 19.0897C18.1183 19.0897 18.4164 19.2106 18.6359 19.4259C18.8555 19.6412 18.9789 19.9333 18.9789 20.2377C18.9789 20.5422 18.8556 20.8344 18.6359 21.0496C18.4163 21.2648 18.1183 21.3858 17.8077 21.3858Z" />
	</mask>
	<path d="M22.4505 6.20532C22.2284 5.94067 21.8971 5.78759 21.5475 5.78811H5.55639L5.04136 3.26686C4.98768 3.007 4.84424 2.77311 4.63509 2.60498C4.42595 2.43669 4.16397 2.34444 3.8935 2.34375H2.58181C2.36622 2.34375 2.19141 2.51511 2.19141 2.72645C2.19141 2.93779 2.36622 3.10916 2.58181 3.10916H3.8935C4.07929 3.10898 4.23946 3.23695 4.27658 3.41532L6.63264 14.9651C6.72205 15.3983 6.96117 15.788 7.30976 16.0683C7.65817 16.3486 8.09477 16.5024 8.54564 16.5036H19.2522C19.7059 16.5031 20.1453 16.3479 20.4949 16.0649C20.8447 15.7816 21.083 15.3879 21.169 14.9514L22.6991 7.1526C22.7652 6.8162 22.6739 6.46875 22.4505 6.20532ZM21.9309 7.009L20.4008 14.8074C20.3494 15.0691 20.2067 15.3053 19.9972 15.4753C19.7875 15.6451 19.5241 15.7382 19.2523 15.7385H8.54705C8.27638 15.7379 8.01427 15.6458 7.8051 15.4775C7.59578 15.3094 7.45216 15.0755 7.39848 14.8154L5.71312 6.55385H21.5476C21.6641 6.55385 21.7745 6.60477 21.8486 6.69292C21.9229 6.78091 21.9529 6.89692 21.9309 7.009ZM9.99959 18.3242C9.48193 18.3242 8.98542 18.5258 8.61919 18.8846C8.25319 19.2435 8.04755 19.7303 8.04755 20.2377C8.04755 20.7452 8.25321 21.2319 8.61919 21.5909C8.98537 21.9497 9.48193 22.1512 9.99959 22.1512C10.5172 22.1512 11.0138 21.9496 11.38 21.5909C11.746 21.2319 11.9516 20.7452 11.9516 20.2377C11.9509 19.7305 11.7451 19.244 11.3793 18.8853C11.0133 18.5267 10.5171 18.3249 9.99959 18.3242ZM9.99959 21.3858C9.68901 21.3858 9.39095 21.2649 9.17139 21.0496C8.95182 20.8343 8.82839 20.5422 8.82839 20.2377C8.82839 19.9333 8.95178 19.6411 9.17139 19.4259C9.39099 19.2107 9.68905 19.0897 9.99959 19.0897C10.3101 19.0897 10.6082 19.2106 10.8278 19.4259C11.0474 19.6412 11.1708 19.9333 11.1708 20.2377C11.1708 20.5422 11.0474 20.8344 10.8278 21.0496C10.6082 21.2648 10.3101 21.3858 9.99959 21.3858ZM17.8077 18.3242C17.2901 18.3242 16.7936 18.5258 16.4274 18.8846C16.0613 19.2435 15.8557 19.7303 15.8557 20.2377C15.8557 20.7452 16.0614 21.2319 16.4274 21.5909C16.7935 21.9497 17.2901 22.1512 17.8077 22.1512C18.3254 22.1512 18.8219 21.9496 19.1881 21.5909C19.5541 21.2319 19.7598 20.7452 19.7598 20.2377C19.7591 19.7305 19.5533 19.244 19.1874 18.8853C18.8214 18.5267 18.3252 18.3249 17.8077 18.3242ZM17.8077 21.3858C17.4972 21.3858 17.1991 21.2649 16.9795 21.0496C16.76 20.8343 16.6365 20.5422 16.6365 20.2377C16.6365 19.9333 16.7599 19.6411 16.9795 19.4259C17.1992 19.2107 17.4972 19.0897 17.8077 19.0897C18.1183 19.0897 18.4164 19.2106 18.6359 19.4259C18.8555 19.6412 18.9789 19.9333 18.9789 20.2377C18.9789 20.5422 18.8556 20.8344 18.6359 21.0496C18.4163 21.2648 18.1183 21.3858 17.8077 21.3858Z" fill="#231F20" />
	<path d="M22.4505 6.20532C22.2284 5.94067 21.8971 5.78759 21.5475 5.78811H5.55639L5.04136 3.26686C4.98768 3.007 4.84424 2.77311 4.63509 2.60498C4.42595 2.43669 4.16397 2.34444 3.8935 2.34375H2.58181C2.36622 2.34375 2.19141 2.51511 2.19141 2.72645C2.19141 2.93779 2.36622 3.10916 2.58181 3.10916H3.8935C4.07929 3.10898 4.23946 3.23695 4.27658 3.41532L6.63264 14.9651C6.72205 15.3983 6.96117 15.788 7.30976 16.0683C7.65817 16.3486 8.09477 16.5024 8.54564 16.5036H19.2522C19.7059 16.5031 20.1453 16.3479 20.4949 16.0649C20.8447 15.7816 21.083 15.3879 21.169 14.9514L22.6991 7.1526C22.7652 6.8162 22.6739 6.46875 22.4505 6.20532ZM21.9309 7.009L20.4008 14.8074C20.3494 15.0691 20.2067 15.3053 19.9972 15.4753C19.7875 15.6451 19.5241 15.7382 19.2523 15.7385H8.54705C8.27638 15.7379 8.01427 15.6458 7.8051 15.4775C7.59578 15.3094 7.45216 15.0755 7.39848 14.8154L5.71312 6.55385H21.5476C21.6641 6.55385 21.7745 6.60477 21.8486 6.69292C21.9229 6.78091 21.9529 6.89692 21.9309 7.009ZM9.99959 18.3242C9.48193 18.3242 8.98542 18.5258 8.61919 18.8846C8.25319 19.2435 8.04755 19.7303 8.04755 20.2377C8.04755 20.7452 8.25321 21.2319 8.61919 21.5909C8.98537 21.9497 9.48193 22.1512 9.99959 22.1512C10.5172 22.1512 11.0138 21.9496 11.38 21.5909C11.746 21.2319 11.9516 20.7452 11.9516 20.2377C11.9509 19.7305 11.7451 19.244 11.3793 18.8853C11.0133 18.5267 10.5171 18.3249 9.99959 18.3242ZM9.99959 21.3858C9.68901 21.3858 9.39095 21.2649 9.17139 21.0496C8.95182 20.8343 8.82839 20.5422 8.82839 20.2377C8.82839 19.9333 8.95178 19.6411 9.17139 19.4259C9.39099 19.2107 9.68905 19.0897 9.99959 19.0897C10.3101 19.0897 10.6082 19.2106 10.8278 19.4259C11.0474 19.6412 11.1708 19.9333 11.1708 20.2377C11.1708 20.5422 11.0474 20.8344 10.8278 21.0496C10.6082 21.2648 10.3101 21.3858 9.99959 21.3858ZM17.8077 18.3242C17.2901 18.3242 16.7936 18.5258 16.4274 18.8846C16.0613 19.2435 15.8557 19.7303 15.8557 20.2377C15.8557 20.7452 16.0614 21.2319 16.4274 21.5909C16.7935 21.9497 17.2901 22.1512 17.8077 22.1512C18.3254 22.1512 18.8219 21.9496 19.1881 21.5909C19.5541 21.2319 19.7598 20.7452 19.7598 20.2377C19.7591 19.7305 19.5533 19.244 19.1874 18.8853C18.8214 18.5267 18.3252 18.3249 17.8077 18.3242ZM17.8077 21.3858C17.4972 21.3858 17.1991 21.2649 16.9795 21.0496C16.76 20.8343 16.6365 20.5422 16.6365 20.2377C16.6365 19.9333 16.7599 19.6411 16.9795 19.4259C17.1992 19.2107 17.4972 19.0897 17.8077 19.0897C18.1183 19.0897 18.4164 19.2106 18.6359 19.4259C18.8555 19.6412 18.9789 19.9333 18.9789 20.2377C18.9789 20.5422 18.8556 20.8344 18.6359 21.0496C18.4163 21.2648 18.1183 21.3858 17.8077 21.3858Z" stroke="#231F20" stroke-width="0.6" mask="url(#path-1-outside-1_1529_383167)" />
</svg>