<svg width="17" height="17" viewBox="0 0 17 17" fill="none" xmlns="http://www.w3.org/2000/svg">
	<g clip-path="url(#clip0_1529_384057)">
		<path d="M8.5 17C13.1944 17 17 13.1944 17 8.5C17 3.80558 13.1944 0 8.5 0C3.80558 0 0 3.80558 0 8.5C0 13.1944 3.80558 17 8.5 17Z" fill="#FF0A00" />
		<path d="M7.47155 14.8915C7.47155 14.8915 3.20508 14.2601 3.20508 10.6251C3.20508 6.98999 8.78373 6.64308 7.54911 2.1333C7.54911 2.1333 11.7263 3.44044 10.7066 7.51088C10.7066 7.51088 11.2588 7.15813 11.6817 6.47149C11.6817 6.47149 13.7969 8.10535 13.7969 10.5916C13.7969 13.0778 10.8649 14.9069 9.47595 14.8899C9.47595 14.8899 10.9746 12.8664 9.61116 11.5619C7.67581 9.70999 8.50084 8.52078 8.50084 8.52078C8.50084 8.52078 3.78494 10.8277 7.47155 14.8915Z" fill="white" />
	</g>
	<defs>
		<clipPath id="clip0_1529_384057">
			<rect width="17" height="17" fill="white" />
		</clipPath>
	</defs>
</svg>