<svg width="25" height="25" viewBox="0 0 25 25" fill="none" xmlns="http://www.w3.org/2000/svg">
	<path d="M19.0147 15.2458C17.9511 14.2248 16.6851 13.4689 15.3038 13.0113C16.7832 12.0331 17.7551 10.396 17.7551 8.54492C17.7551 5.55638 15.2224 3.125 12.1094 3.125C8.99632 3.125 6.46362 5.55638 6.46362 8.54492C6.46362 10.396 7.43557 12.0331 8.91502 13.0113C7.53372 13.4689 6.2677 14.2248 5.20405 15.2458C3.54796 16.8357 2.5599 18.896 2.37534 21.1129C2.34038 21.5328 2.68533 21.875 3.10669 21.875C3.52805 21.875 3.86561 21.5323 3.90754 21.113C4.30816 17.1075 7.83366 13.9648 12.1094 13.9648C16.3851 13.9648 19.9106 17.1075 20.3112 21.113C20.3531 21.5323 20.6907 21.875 21.1121 21.875C21.5334 21.875 21.8784 21.5328 21.8434 21.1129C21.6588 18.896 20.6708 16.8357 19.0147 15.2458ZM12.1094 12.5C9.83768 12.5 7.9895 10.7258 7.9895 8.54492C7.9895 6.36406 9.83768 4.58984 12.1094 4.58984C14.3811 4.58984 16.2292 6.36406 16.2292 8.54492C16.2292 10.7258 14.3811 12.5 12.1094 12.5Z" fill="#231F20" />
</svg>