<svg width="19" height="19" viewBox="0 0 19 19" fill="none" xmlns="http://www.w3.org/2000/svg">
	<g clip-path="url(#clip0_1529_384049)">
		<path d="M15.8327 3.05566L3.16602 15.7223" stroke="#999999" stroke-width="1.5" stroke-linecap="round" stroke-linejoin="round" />
		<path d="M4.75022 7.27778C6.20763 7.27778 7.38911 6.09631 7.38911 4.63889C7.38911 3.18147 6.20763 2 4.75022 2C3.2928 2 2.11133 3.18147 2.11133 4.63889C2.11133 6.09631 3.2928 7.27778 4.75022 7.27778Z" stroke="#999999" stroke-width="1.5" stroke-miterlimit="10" />
		<path d="M14.2502 16.7778C15.7076 16.7778 16.8891 15.5963 16.8891 14.1389C16.8891 12.6815 15.7076 11.5 14.2502 11.5C12.7928 11.5 11.6113 12.6815 11.6113 14.1389C11.6113 15.5963 12.7928 16.7778 14.2502 16.7778Z" stroke="#999999" stroke-width="1.5" stroke-miterlimit="10" />
	</g>
	<defs>
		<clipPath id="clip0_1529_384049">
			<rect width="19" height="19" fill="white" />
		</clipPath>
	</defs>
</svg>