<svg width="45" height="14" fill="none" xmlns="http://www.w3.org/2000/svg"><g clip-path="url(#clip0_5_49710)"><path d="M32.18 6.402v6.804h3.769V9.174h4.272a4.183 4.183 0 003.9-2.772H32.18z" fill="#37A72E"/><path d="M31.678.795c.22 2.778 2.845 4.977 6.05 4.977h6.551A4.183 4.183 0 0040.21.795h-8.531z" fill="url(#paint0_linear_5_49710)"/><path d="M26.099 5.702v-.006.006a.225.225 0 01.201-.12c.126 0 .22.101.226.221v7.34h3.77V.795h-3.77c-.477.019-1.017.365-1.218.8L22.31 8.046a.385.385 0 01-.032.076.252.252 0 01-.458-.145V.795h-3.77v12.348h3.77c.471-.026.999-.372 1.2-.8l3.078-6.622c-.006-.006 0-.012 0-.019zm-14.072.215l-2.205 7.226H7.108L4.91 5.91a.245.245 0 00-.245-.201.246.246 0 00-.245.245v7.182H.65V.788h4.196c.692 0 1.42.542 1.622 1.204l1.834 6.016c.094.303.239.296.333 0l1.834-6.016c.201-.668.93-1.204 1.621-1.204h4.196v12.348h-3.769V5.948a.246.246 0 00-.245-.246.256.256 0 00-.245.215z" fill="#37A72E"/></g><defs><linearGradient id="paint0_linear_5_49710" x1="31.679" y1="3.283" x2="44.354" y2="3.283" gradientUnits="userSpaceOnUse"><stop stop-color="#00A0E5"/><stop offset="1" stop-color="#0077C3"/></linearGradient><clipPath id="clip0_5_49710"><path fill="#fff" d="M0 0h45v14H0z"/></clipPath></defs></svg>