<svg width="43" height="20" fill="none" xmlns="http://www.w3.org/2000/svg"><path d="M17.442 4.25L15.29 17.417h3.395L20.837 4.25h-3.395zm19.628 0c-.829 0-1.409.25-1.74 1.083L30.28 17.5h3.56s.58-1.667.746-2h4.306c.083.5.414 2 .414 2h3.147L39.719 4.25h-2.65zm-1.574 8.5c.248-.75 1.325-3.667 1.325-3.667l.414-1.25L37.483 9s.663 3.167.828 3.833h-2.815v-.083zm-7.868-3.167c-1.159-.583-1.904-1-1.904-1.666 0-.584.58-1.167 1.904-1.167 1.077 0 1.905.25 2.568.5l.33.167.498-2.834A8.663 8.663 0 0027.96 4c-3.313 0-5.714 1.833-5.714 4.333 0 1.917 1.656 3 2.98 3.584 1.326.666 1.74 1.083 1.74 1.666 0 .917-1.077 1.25-2.07 1.25-1.325 0-2.07-.166-3.23-.666l-.414-.25-.497 2.916c.828.334 2.236.667 3.81.667 3.56 0 5.88-1.75 5.88-4.5.082-1.333-.829-2.5-2.817-3.417zM12.474 4.25l-3.313 9-.33-1.833-1.16-6.084C7.505 4.5 6.843 4.25 6.097 4.25H.714c-.082 0-.082.083-.165.083 0 .084 0 .167.083.167.828.25 1.573.5 2.236.833.745.334 1.242 1 1.49 1.75l2.733 10.334h3.561l5.3-13.167h-3.478z" fill="#0072FF"/></svg>