<svg width="28" height="28" fill="none" xmlns="http://www.w3.org/2000/svg"><g fill="#51C85D" clip-path="url(#clip0_2669_41374)"><path d="M27.366 13.223c-.033 3.467-.924 6.18-2.778 8.537-1.99 2.532-4.583 4.14-7.755 4.79-2.45.498-4.834.28-7.175-.569a11.066 11.066 0 01-1.515-.683.493.493 0 00-.437-.038c-2.215.716-4.435 1.427-6.656 2.132-.098.033-.23.126-.306.055-.087-.087.022-.219.055-.322.443-1.319.886-2.642 1.334-3.96.274-.804.536-1.602.82-2.4.077-.209.05-.367-.065-.559a12.672 12.672 0 01-1.274-3.067 12.85 12.85 0 01-.18-6.114 12.843 12.843 0 012.969-5.94c1.832-2.078 4.09-3.45 6.776-4.112A12.815 12.815 0 0116.357.77c2.275.371 4.326 1.274 6.114 2.728a13.163 13.163 0 014.07 5.655c.47 1.22.841 3.216.825 4.069zM4.08 24.144c1.356-.438 2.652-.853 3.938-1.274a.48.48 0 01.453.054 9.224 9.224 0 001.57.82c1.777.756 3.626 1.029 5.534.783 2.341-.3 4.397-1.242 6.125-2.877 2.177-2.061 3.342-4.588 3.446-7.574.098-2.926-.843-5.496-2.806-7.678-1.865-2.073-4.205-3.254-6.967-3.55-2.4-.256-4.648.263-6.727 1.51a10.746 10.746 0 00-4.085 4.375c-1.044 2.029-1.4 4.184-1.099 6.442a10.487 10.487 0 001.821 4.687c.11.159.142.29.077.476-.203.558-.383 1.12-.574 1.679-.23.689-.454 1.378-.706 2.127z"/><path d="M7.711 10.648c.027-1.302.487-2.27 1.356-3.04.28-.252.624-.362 1.012-.307.164.022.328.038.492.027a.583.583 0 01.618.4c.367.951.722 1.903 1.078 2.86.12.328-.088.585-.263.82-.202.279-.448.525-.689.771-.246.252-.279.394-.11.7.99 1.8 2.38 3.183 4.266 4.036.066.027.131.066.197.098.252.115.476.088.667-.13.35-.411.733-.788 1.056-1.22.213-.285.36-.334.683-.192.963.416 1.865.94 2.784 1.45.17.092.23.235.224.431-.049 1.614-.973 2.456-2.598 2.828-.787.18-1.514-.017-2.236-.28-1.515-.546-2.975-1.191-4.2-2.274a15.402 15.402 0 01-2.56-2.904c-.557-.831-1.137-1.646-1.46-2.614-.186-.514-.322-1.04-.317-1.46z"/></g><defs><clipPath id="clip0_2669_41374"><path fill="#fff" d="M0 0h28v28H0z"/></clipPath></defs></svg>