<svg width="26" height="26" fill="none" xmlns="http://www.w3.org/2000/svg"><path d="M21.806 6.88h-3.243a.373.373 0 0 1-.323-.191l-.895-1.63a2.569 2.569 0 0 0-2.253-1.328h-4.184c-.939 0-1.797.507-2.252 1.329L7.76 6.689a.373.373 0 0 1-.323.19H4.194a2.571 2.571 0 0 0-2.569 2.569V19.7a2.571 2.571 0 0 0 2.569 2.569h17.612a2.571 2.571 0 0 0 2.569-2.569V9.448a2.571 2.571 0 0 0-2.569-2.569ZM13 19.34a4.775 4.775 0 0 1-4.77-4.77A4.78 4.78 0 0 1 13 9.8a4.78 4.78 0 0 1 4.77 4.77A4.775 4.775 0 0 1 13 19.34Z" fill="#fff"/><path d="M13 17.139a2.568 2.568 0 1 0 0-5.137 2.568 2.568 0 0 0 0 5.137Z" fill="#fff"/></svg>