<svg width="20" height="20" fill="none" xmlns="http://www.w3.org/2000/svg"><path d="M1.664 18.333h16.667M2.5 8.308c0-.508.242-.991.642-1.308l5.833-4.542a1.676 1.676 0 0 1 2.05 0l5.833 4.534c.409.316.642.8.642 1.316v10.025m-15.04 0 .026-6.641" stroke="#202A30" stroke-miterlimit="10" stroke-linecap="round" stroke-linejoin="round"/><path d="m15.832 5.833-.025-2.5h-3.666" stroke="#202A30" stroke-miterlimit="10" stroke-linecap="round" stroke-linejoin="round"/><path d="m10.291 7.574.003.001 3.129 1.684a.248.248 0 0 1 .118.206c0 .103-.053.172-.101.197l-.006.003-3.138 1.689a.622.622 0 0 1-.295.071.622.622 0 0 1-.295-.071l-3.138-1.69-.006-.002c-.048-.025-.101-.094-.101-.197 0-.103.053-.172.101-.197l.006-.003 3.14-1.69.002-.001a.605.605 0 0 1 .581 0Zm-1.565 5.26.005.002a.74.74 0 0 1 .419.661v2.76a.218.218 0 0 1-.098.182.257.257 0 0 1-.122.038.363.363 0 0 1-.117-.027L5.913 15l-.004-.002a.732.732 0 0 1-.409-.67v-2.76c0-.075.038-.145.094-.186a.226.226 0 0 1 .212-.008l2.92 1.46Zm2.535.002.004-.002 2.915-1.457a.225.225 0 0 1 .218.005.214.214 0 0 1 .104.175v2.76a.731.731 0 0 1-.41.67l-.004.003-2.92 1.46a.227.227 0 0 1-.096.027.342.342 0 0 1-.133-.036.218.218 0 0 1-.087-.174v-2.76c0-.295.157-.547.409-.67Z" stroke="#202A30"/></svg>