<svg width="22" height="22" fill="none" xmlns="http://www.w3.org/2000/svg"><path d="M18.335 7.562V16.5c0 2.75-1.641 3.667-3.667 3.667H7.335c-2.026 0-3.667-.917-3.667-3.667V7.562c0-2.979 1.64-3.666 3.667-3.666 0 .568.229 1.081.605 1.457.375.376.889.605 1.457.605h3.208a2.066 2.066 0 0 0 2.063-2.062c2.026 0 3.667.687 3.667 3.666Z" stroke="#202A30" stroke-width="1.3" stroke-linecap="round" stroke-linejoin="round"/><path d="M14.665 3.896a2.066 2.066 0 0 1-2.062 2.062H9.395a2.05 2.05 0 0 1-1.458-.605 2.05 2.05 0 0 1-.605-1.457c0-1.137.926-2.063 2.063-2.063h3.208c.568 0 1.082.23 1.457.605.376.376.605.89.605 1.458Zm-7.333 8.021h3.667m-3.667 3.666h7.333" stroke="#202A30" stroke-width="1.3" stroke-linecap="round" stroke-linejoin="round"/></svg>