<svg width="18" height="18" fill="none" xmlns="http://www.w3.org/2000/svg"><path d="M5 12.498 6.5 6.44 9 11.998l2.5-5.558 1.5 6.058" stroke="#414B55" stroke-width="1.3" stroke-linecap="round" stroke-linejoin="round"/><path d="M17.084 11.013a9.172 9.172 0 0 1-1.099 4.384.298.298 0 0 1-.265.141 311.08 311.08 0 0 1-3.928.003 383.28 383.28 0 0 0-2.307-.006H2.28a.3.3 0 0 1-.267-.14 9.172 9.172 0 0 1-1.097-4.382c0-4.85 3.66-8.704 8.084-8.704 4.424 0 8.084 3.854 8.084 8.704Z" stroke="#414B55" stroke-width="1.3" stroke-linejoin="round"/></svg>