<svg width="20" height="20" fill="none" xmlns="http://www.w3.org/2000/svg"><mask id="a" fill="#fff"><path fill-rule="evenodd" clip-rule="evenodd" d="M10.001 17.571a7.571 7.571 0 1 0 0-15.142 7.571 7.571 0 0 0 0 15.142Zm0 1a8.571 8.571 0 1 0 0-17.142 8.571 8.571 0 0 0 0 17.142Z"/></mask><path d="M16.573 10A6.571 6.571 0 0 1 10 16.57v2A8.571 8.571 0 0 0 18.573 10h-2ZM10 3.428A6.571 6.571 0 0 1 16.573 10h2A8.571 8.571 0 0 0 10 1.428v2ZM3.43 10A6.571 6.571 0 0 1 10 3.428v-2A8.571 8.571 0 0 0 1.43 10h2ZM10 16.57A6.571 6.571 0 0 1 3.43 10h-2A8.571 8.571 0 0 0 10 18.57v-2ZM17.573 10A7.571 7.571 0 0 1 10 17.57v2A9.571 9.571 0 0 0 19.573 10h-2ZM10 2.428A7.571 7.571 0 0 1 17.573 10h2A9.571 9.571 0 0 0 10 .428v2ZM2.43 10A7.571 7.571 0 0 1 10 2.428v-2A9.571 9.571 0 0 0 .43 10h2ZM10 17.57A7.571 7.571 0 0 1 2.43 10h-2A9.571 9.571 0 0 0 10 19.57v-2Z" fill="#202A30" mask="url(#a)"/><path d="M7.015 13.074a.556.556 0 0 1-.342-.103.37.37 0 0 1-.126-.286.37.37 0 0 1 .126-.285.517.517 0 0 1 .342-.114h3.463c.137 0 .248.038.332.114a.357.357 0 0 1 .137.285c0 .115-.046.21-.137.286a.507.507 0 0 1-.332.103H7.015Zm0-1.566a.488.488 0 0 1-.342-.125.473.473 0 0 1-.126-.332c0-.145.042-.259.126-.343a.465.465 0 0 1 .342-.137h1.978v.937H7.015Zm1.189 3.132a.48.48 0 0 1-.354-.137.48.48 0 0 1-.137-.355V6.206a.48.48 0 0 1 .137-.355.48.48 0 0 1 .354-.137h2.286c.563 0 1.063.126 1.497.377a2.57 2.57 0 0 1 1.028 1.029c.252.434.378.937.378 1.508 0 .564-.126 1.063-.378 1.498a2.692 2.692 0 0 1-1.028 1.017c-.434.243-.934.365-1.497.365H8.695v2.64a.48.48 0 0 1-.137.355.48.48 0 0 1-.354.137Zm.491-4.069h1.795c.38 0 .716-.08 1.005-.24a1.84 1.84 0 0 0 .686-.685c.168-.298.252-.633.252-1.006 0-.396-.084-.743-.252-1.04a1.904 1.904 0 0 0-1.692-.96H8.696v3.931Z" fill="#202A30"/></svg>