<svg width="20" height="20" fill="none" xmlns="http://www.w3.org/2000/svg"><path d="M2.5 4.142c0-1.367 1.117-2.475 2.5-2.475h10c1.383 0 2.5 1.108 2.5 2.475v9.091c0 1.367-1.117 2.475-2.5 2.475h-.633c-.667 0-1.3.259-1.767.725l-1.425 1.409a1.685 1.685 0 0 1-2.358 0l-1.425-1.409a2.504 2.504 0 0 0-1.767-.725H5c-1.383 0-2.5-1.108-2.5-2.475V7.525" stroke="#202A30" stroke-miterlimit="10" stroke-linecap="round" stroke-linejoin="round"/><path d="M9.996 8.333a1.942 1.942 0 1 0 0-3.883 1.942 1.942 0 0 0 0 3.883Zm3.334 4.717c0-1.5-1.49-2.717-3.333-2.717-1.841 0-3.333 1.217-3.333 2.717" stroke="#202A30" stroke-linecap="round" stroke-linejoin="round"/></svg>