<svg width="340" height="150" viewBox="0 0 340 150" fill="none" xmlns="http://www.w3.org/2000/svg">
<path d="M72.2489 107.682H19.003L17.8096 91.433L39.0161 58.0166M97.9538 116.862V135.774M71.9735 5.87231H98.0456V86.9346H112.734V107.774M43.4227 86.8428H72.1571V40.9412L70.5046 43.8789L43.4227 86.8428Z" stroke="#505050" stroke-width="1.6" stroke-miterlimit="10" stroke-linecap="round" stroke-linejoin="round"/>
<path d="M144.957 123.564C137.429 114.2 133.665 100.797 133.481 83.446V59.4853C133.481 41.3083 137.245 27.5378 144.773 18.1738C152.301 8.8099 163.134 4.03613 177.272 4.03613C191.409 4.03613 202.242 8.71808 209.77 17.9902C217.298 27.2623 221.062 40.6656 221.245 58.1083V82.0689H221.337C221.337 100.062 217.573 113.741 210.137 123.289C208.319 125.622 206.293 127.671 204.06 129.434M195.54 55.7214C195.54 44.9804 194.072 37.0853 191.134 32.2197C188.196 27.2623 183.606 24.8755 177.363 24.8755C171.304 24.8755 166.806 27.1705 163.96 31.8525C161.114 36.5345 159.554 43.8787 159.37 53.7935V85.3738C159.37 95.9312 160.839 103.826 163.685 108.967C166.531 114.108 171.213 116.679 177.547 116.679C183.881 116.679 188.38 114.2 191.226 109.243C193.98 104.285 195.449 96.7574 195.632 86.5673V55.7214H195.54Z" stroke="#505050" stroke-width="1.6" stroke-miterlimit="10" stroke-linecap="round" stroke-linejoin="round"/>
<path d="M295.698 107.682H242.452L241.259 91.4327L269.351 46.9999M321.495 116.311V135.774M295.423 5.87207H321.495V86.9344H336.183V107.774M266.964 86.8425H295.698V40.9409L294.046 43.8786L266.964 86.8425Z" stroke="#505050" stroke-width="1.6" stroke-miterlimit="10" stroke-linecap="round" stroke-linejoin="round"/>
<path d="M71.9737 5.87207L56.3672 15.0524" stroke="#505050" stroke-width="1.6" stroke-miterlimit="10" stroke-linejoin="round"/>
<path d="M295.698 5.87207L280.092 15.0524" stroke="#505050" stroke-width="1.6" stroke-miterlimit="10" stroke-linejoin="round"/>
<path d="M97.9542 5.87207L82.3477 15.0524" stroke="#505050" stroke-width="1.6" stroke-miterlimit="10" stroke-linejoin="round"/>
<path d="M320.669 5.87207L305.062 15.0524" stroke="#505050" stroke-width="1.6" stroke-miterlimit="10" stroke-linejoin="round"/>
<path d="M97.9542 86.8428L82.3477 96.0231" stroke="#505050" stroke-width="1.6" stroke-miterlimit="10" stroke-linejoin="round"/>
<path d="M112.092 86.8428L96.4854 96.0231" stroke="#505050" stroke-width="1.6" stroke-miterlimit="10" stroke-linejoin="round"/>
<path d="M321.954 86.4753L306.348 95.6557" stroke="#505050" stroke-width="1.6" stroke-miterlimit="10" stroke-linejoin="round"/>
<path d="M267.607 86.4753L252 95.6557" stroke="#505050" stroke-width="1.6" stroke-miterlimit="10" stroke-linejoin="round"/>
<path d="M335.725 87.21L320.118 96.3903" stroke="#505050" stroke-width="1.6" stroke-miterlimit="10" stroke-linejoin="round"/>
<path d="M336.276 107.682L320.669 116.862" stroke="#505050" stroke-width="1.6" stroke-miterlimit="10" stroke-linejoin="round"/>
<path d="M321.587 135.682L305.98 144.862" stroke="#505050" stroke-width="1.6" stroke-miterlimit="10" stroke-linejoin="round"/>
<path d="M112.734 107.682L97.1279 116.862" stroke="#505050" stroke-width="1.6" stroke-miterlimit="10" stroke-linejoin="round"/>
<path d="M97.9542 135.774L82.3477 144.954" stroke="#505050" stroke-width="1.6" stroke-miterlimit="10" stroke-linejoin="round"/>
<path d="M43.423 86.8428L27.8164 96.0231" stroke="#505050" stroke-width="1.6" stroke-miterlimit="10" stroke-linejoin="round"/>
<path d="M182.229 142.567L204.17 129.348" stroke="#505050" stroke-width="1.6" stroke-miterlimit="10" stroke-linecap="round" stroke-linejoin="round"/>
<path d="M135.318 21.3869L157.259 8.16724" stroke="#505050" stroke-width="1.6" stroke-miterlimit="10" stroke-linecap="round" stroke-linejoin="round"/>
<path d="M82.3474 96.0227H97.0359V116.862H82.3474V144.954H56.5507V116.862H3.30479L2.11133 100.613L56.2753 15.0522H82.3474V96.0227ZM27.8162 96.0227H56.5507V50.1211L54.8982 53.0588L27.8162 96.0227Z" fill="#FFAC62" stroke="#FF7500" stroke-width="1.6" stroke-miterlimit="10" stroke-linecap="round" stroke-linejoin="round"/>
<path d="M205.731 91.2491C205.731 109.243 201.967 122.921 194.531 132.469C187.095 142.016 176.17 146.79 161.849 146.79C147.711 146.79 136.878 142.108 129.35 132.744C121.823 123.38 118.059 109.977 117.875 92.6261V68.6655C117.875 50.4884 121.639 36.7179 129.167 27.354C136.695 17.9901 147.527 13.2163 161.665 13.2163C175.803 13.2163 186.636 17.8983 194.163 27.1704C201.691 36.4425 205.455 49.8458 205.639 67.2884V91.2491H205.731ZM179.934 64.9015C179.934 54.1606 178.465 46.2655 175.527 41.3999C172.59 36.4425 168 34.0556 161.757 34.0556C155.698 34.0556 151.2 36.3507 148.354 41.0327C145.508 45.7147 143.947 53.0589 143.763 62.9737V94.554C143.763 105.111 145.232 113.006 148.078 118.147C150.924 123.288 155.606 125.859 161.941 125.859C168.275 125.859 172.773 123.38 175.619 118.423C178.373 113.465 179.842 105.938 180.026 95.7475V64.9015H179.934Z" fill="#FFAC62" stroke="#FF7500" stroke-width="1.6" stroke-miterlimit="10" stroke-linecap="round" stroke-linejoin="round"/>
<path d="M305.888 96.0227H320.577V116.862H305.888V144.954H280.092V116.862H226.846L225.652 100.613L279.816 15.0522H305.888V96.0227ZM251.357 96.0227H280.092V50.1211L278.439 53.0588L251.357 96.0227Z" fill="#FFAC62" stroke="#FF7500" stroke-width="1.6" stroke-miterlimit="10" stroke-linecap="round" stroke-linejoin="round"/>
<path d="M52.1441 35.2493L44.249 46.4493" stroke="white" stroke-width="1.6" stroke-miterlimit="10" stroke-linecap="round" stroke-linejoin="round"/>
<path d="M58.9376 35.2493L43.8818 56.5476" stroke="white" stroke-width="1.6" stroke-miterlimit="10" stroke-linecap="round" stroke-linejoin="round"/>
<path d="M137.062 34.0557L129.167 45.2557" stroke="white" stroke-width="1.6" stroke-miterlimit="10" stroke-linecap="round" stroke-linejoin="round"/>
<path d="M138.347 41.9507L128.8 55.4458" stroke="white" stroke-width="1.6" stroke-miterlimit="10" stroke-linecap="round" stroke-linejoin="round"/>
<path d="M275.685 35.2493L267.79 46.4493" stroke="white" stroke-width="1.6" stroke-miterlimit="10" stroke-linecap="round" stroke-linejoin="round"/>
<path d="M282.479 35.2493L267.423 56.5476" stroke="white" stroke-width="1.6" stroke-miterlimit="10" stroke-linecap="round" stroke-linejoin="round"/>
</svg>
