<svg width="20" height="20" viewBox="0 0 20 20" fill="none" xmlns="http://www.w3.org/2000/svg">
	<g clip-path="url(#clip0_1529_369475)">
		<path d="M19.9169 18.1535C19.9481 17.9435 20.61 12.8973 17.6425 9.42479C15.8194 7.29104 13.0063 6.12291 9.37375 6.00729L9.35438 2.49916C9.35438 2.25791 9.215 2.03854 8.9975 1.93479C8.77938 1.83291 8.52125 1.86229 8.33438 2.01479L0.230003 8.66604C0.0850035 8.78479 0.000628473 8.96229 3.4734e-06 9.14979C-0.000621527 9.33729 0.0831285 9.51479 0.228128 9.63354L8.33313 16.3479C8.51938 16.5023 8.78 16.5342 8.99625 16.4304C9.21563 16.3273 9.35438 16.1067 9.35438 15.8654L9.37375 12.2785C18.1294 12.2723 18.7519 17.8823 18.7731 18.1142C18.8 18.4292 18.9994 18.6748 19.3156 18.6848C19.3231 18.6854 19.33 18.6854 19.3369 18.6854C19.6463 18.6854 19.8706 18.4598 19.9169 18.1535Z" fill="#666666" />
	</g>
	<defs>
		<clipPath id="clip0_1529_369475">
			<rect width="20" height="20" fill="white" />
		</clipPath>
	</defs>
</svg>