<svg width="42" height="42" viewBox="0 0 42 42" fill="none" xmlns="http://www.w3.org/2000/svg">
	<path d="M38.118 10.0312H3.882C3.08422 10.0312 2.4375 10.678 2.4375 11.4757V31.368C2.4375 32.1658 3.08422 32.8125 3.882 32.8125H38.118C38.9158 32.8125 39.5625 32.1658 39.5625 31.368V11.4757C39.5625 10.678 38.9158 10.0312 38.118 10.0312Z" stroke="#F58220" stroke-width="1.5" stroke-linecap="round" stroke-linejoin="round" />
	<path d="M13.4062 24.375H7.5C6.56802 24.375 5.8125 25.1305 5.8125 26.0625V27.75C5.8125 28.682 6.56802 29.4375 7.5 29.4375H13.4062C14.3382 29.4375 15.0938 28.682 15.0938 27.75V26.0625C15.0938 25.1305 14.3382 24.375 13.4062 24.375Z" stroke="#F58220" stroke-width="1.5" stroke-linecap="round" stroke-linejoin="round" />
	<path d="M39.5625 14.25H2.4375V17.625H39.5625V14.25Z" stroke="#F58220" stroke-width="1.5" stroke-linejoin="round" />
	<path d="M27.75 26.0625H35.3438" stroke="#F58220" stroke-width="1.5" stroke-linecap="round" stroke-linejoin="round" />
	<path d="M27.75 29.4375H33.6562" stroke="#F58220" stroke-width="1.5" stroke-linecap="round" stroke-linejoin="round" />
</svg>