<svg width="25" height="25" viewBox="0 0 25 25" fill="none" xmlns="http://www.w3.org/2000/svg">
	<g clip-path="url(#clip0_1458_317391)">
		<mask id="path-1-outside-1_1458_317391" maskUnits="userSpaceOnUse" x="1.07422" y="0.316406" width="25" height="24" fill="black">
			<rect fill="white" x="1.07422" y="0.316406" width="25" height="24" />
			<path d="M24.555 5.60146C24.3086 5.30779 23.941 5.13792 23.553 5.13849H5.80822L5.23672 2.34075C5.17715 2.05239 5.01798 1.79285 4.78589 1.60629C4.55381 1.41954 4.26311 1.31717 3.96297 1.31641H2.50744C2.2682 1.31641 2.07422 1.50656 2.07422 1.74108C2.07422 1.97559 2.2682 2.16575 2.50744 2.16575H3.96297C4.16914 2.16556 4.34687 2.30756 4.38807 2.50549L7.0025 15.3218C7.10172 15.8026 7.36707 16.2351 7.75388 16.546C8.1405 16.8571 8.62498 17.0278 9.12529 17.0291H21.006C21.5094 17.0285 21.997 16.8564 22.385 16.5422C22.7731 16.2279 23.0375 15.7911 23.133 15.3067L24.8309 6.65262C24.9042 6.27933 24.803 5.89378 24.555 5.60146ZM23.9785 6.49327L22.2806 15.1469C22.2235 15.4373 22.0651 15.6993 21.8327 15.888C21.6 16.0764 21.3077 16.1798 21.0061 16.1801H9.12686C8.82651 16.1794 8.53565 16.0772 8.30354 15.8904C8.07126 15.7039 7.9119 15.4444 7.85233 15.1558L5.98215 5.98821H23.5532C23.6823 5.98821 23.805 6.04471 23.8872 6.14254C23.9695 6.24017 24.0028 6.3689 23.9785 6.49327ZM10.7387 19.0494C10.1643 19.0494 9.6133 19.2731 9.20691 19.6712C8.80077 20.0695 8.57258 20.6096 8.57258 21.1727C8.57258 21.7358 8.8008 22.2759 9.20691 22.6743C9.61325 23.0724 10.1643 23.2961 10.7387 23.2961C11.3131 23.2961 11.8641 23.0724 12.2705 22.6743C12.6766 22.276 12.9048 21.7358 12.9048 21.1727C12.904 20.6098 12.6756 20.0701 12.2697 19.672C11.8635 19.274 11.3129 19.0501 10.7387 19.0494ZM10.7387 22.4467C10.394 22.4467 10.0633 22.3125 9.81967 22.0736C9.57602 21.8348 9.43905 21.5105 9.43905 21.1728C9.43905 20.835 9.57598 20.5107 9.81967 20.2719C10.0634 20.033 10.3941 19.8988 10.7387 19.8988C11.0833 19.8988 11.4141 20.033 11.6577 20.2719C11.9014 20.5107 12.0383 20.835 12.0383 21.1728C12.0383 21.5105 11.9014 21.8348 11.6577 22.0736C11.414 22.3125 11.0833 22.4467 10.7387 22.4467ZM19.4031 19.0494C18.8287 19.0494 18.2777 19.2731 17.8714 19.6712C17.4652 20.0695 17.237 20.6096 17.237 21.1727C17.237 21.7358 17.4652 22.2759 17.8714 22.6743C18.2777 23.0724 18.8287 23.2961 19.4031 23.2961C19.9776 23.2961 20.5285 23.0724 20.9349 22.6743C21.3411 22.276 21.5692 21.7358 21.5692 21.1727C21.5685 20.6098 21.3401 20.0701 20.9341 19.672C20.528 19.274 19.9774 19.0501 19.4031 19.0494ZM19.4031 22.4467C19.0585 22.4467 18.7278 22.3125 18.4841 22.0736C18.2405 21.8348 18.1035 21.5105 18.1035 21.1728C18.1035 20.835 18.2404 20.5107 18.4841 20.2719C18.7278 20.033 19.0585 19.8988 19.4031 19.8988C19.7477 19.8988 20.0785 20.033 20.3222 20.2719C20.5658 20.5107 20.7028 20.835 20.7028 21.1728C20.7028 21.5105 20.5659 21.8348 20.3222 22.0736C20.0785 22.3125 19.7477 22.4467 19.4031 22.4467Z" />
		</mask>
		<path d="M24.555 5.60146C24.3086 5.30779 23.941 5.13792 23.553 5.13849H5.80822L5.23672 2.34075C5.17715 2.05239 5.01798 1.79285 4.78589 1.60629C4.55381 1.41954 4.26311 1.31717 3.96297 1.31641H2.50744C2.2682 1.31641 2.07422 1.50656 2.07422 1.74108C2.07422 1.97559 2.2682 2.16575 2.50744 2.16575H3.96297C4.16914 2.16556 4.34687 2.30756 4.38807 2.50549L7.0025 15.3218C7.10172 15.8026 7.36707 16.2351 7.75388 16.546C8.1405 16.8571 8.62498 17.0278 9.12529 17.0291H21.006C21.5094 17.0285 21.997 16.8564 22.385 16.5422C22.7731 16.2279 23.0375 15.7911 23.133 15.3067L24.8309 6.65262C24.9042 6.27933 24.803 5.89378 24.555 5.60146ZM23.9785 6.49327L22.2806 15.1469C22.2235 15.4373 22.0651 15.6993 21.8327 15.888C21.6 16.0764 21.3077 16.1798 21.0061 16.1801H9.12686C8.82651 16.1794 8.53565 16.0772 8.30354 15.8904C8.07126 15.7039 7.9119 15.4444 7.85233 15.1558L5.98215 5.98821H23.5532C23.6823 5.98821 23.805 6.04471 23.8872 6.14254C23.9695 6.24017 24.0028 6.3689 23.9785 6.49327ZM10.7387 19.0494C10.1643 19.0494 9.6133 19.2731 9.20691 19.6712C8.80077 20.0695 8.57258 20.6096 8.57258 21.1727C8.57258 21.7358 8.8008 22.2759 9.20691 22.6743C9.61325 23.0724 10.1643 23.2961 10.7387 23.2961C11.3131 23.2961 11.8641 23.0724 12.2705 22.6743C12.6766 22.276 12.9048 21.7358 12.9048 21.1727C12.904 20.6098 12.6756 20.0701 12.2697 19.672C11.8635 19.274 11.3129 19.0501 10.7387 19.0494ZM10.7387 22.4467C10.394 22.4467 10.0633 22.3125 9.81967 22.0736C9.57602 21.8348 9.43905 21.5105 9.43905 21.1728C9.43905 20.835 9.57598 20.5107 9.81967 20.2719C10.0634 20.033 10.3941 19.8988 10.7387 19.8988C11.0833 19.8988 11.4141 20.033 11.6577 20.2719C11.9014 20.5107 12.0383 20.835 12.0383 21.1728C12.0383 21.5105 11.9014 21.8348 11.6577 22.0736C11.414 22.3125 11.0833 22.4467 10.7387 22.4467ZM19.4031 19.0494C18.8287 19.0494 18.2777 19.2731 17.8714 19.6712C17.4652 20.0695 17.237 20.6096 17.237 21.1727C17.237 21.7358 17.4652 22.2759 17.8714 22.6743C18.2777 23.0724 18.8287 23.2961 19.4031 23.2961C19.9776 23.2961 20.5285 23.0724 20.9349 22.6743C21.3411 22.276 21.5692 21.7358 21.5692 21.1727C21.5685 20.6098 21.3401 20.0701 20.9341 19.672C20.528 19.274 19.9774 19.0501 19.4031 19.0494ZM19.4031 22.4467C19.0585 22.4467 18.7278 22.3125 18.4841 22.0736C18.2405 21.8348 18.1035 21.5105 18.1035 21.1728C18.1035 20.835 18.2404 20.5107 18.4841 20.2719C18.7278 20.033 19.0585 19.8988 19.4031 19.8988C19.7477 19.8988 20.0785 20.033 20.3222 20.2719C20.5658 20.5107 20.7028 20.835 20.7028 21.1728C20.7028 21.5105 20.5659 21.8348 20.3222 22.0736C20.0785 22.3125 19.7477 22.4467 19.4031 22.4467Z" fill="#F58220" />
		<path d="M24.555 5.60146C24.3086 5.30779 23.941 5.13792 23.553 5.13849H5.80822L5.23672 2.34075C5.17715 2.05239 5.01798 1.79285 4.78589 1.60629C4.55381 1.41954 4.26311 1.31717 3.96297 1.31641H2.50744C2.2682 1.31641 2.07422 1.50656 2.07422 1.74108C2.07422 1.97559 2.2682 2.16575 2.50744 2.16575H3.96297C4.16914 2.16556 4.34687 2.30756 4.38807 2.50549L7.0025 15.3218C7.10172 15.8026 7.36707 16.2351 7.75388 16.546C8.1405 16.8571 8.62498 17.0278 9.12529 17.0291H21.006C21.5094 17.0285 21.997 16.8564 22.385 16.5422C22.7731 16.2279 23.0375 15.7911 23.133 15.3067L24.8309 6.65262C24.9042 6.27933 24.803 5.89378 24.555 5.60146ZM23.9785 6.49327L22.2806 15.1469C22.2235 15.4373 22.0651 15.6993 21.8327 15.888C21.6 16.0764 21.3077 16.1798 21.0061 16.1801H9.12686C8.82651 16.1794 8.53565 16.0772 8.30354 15.8904C8.07126 15.7039 7.9119 15.4444 7.85233 15.1558L5.98215 5.98821H23.5532C23.6823 5.98821 23.805 6.04471 23.8872 6.14254C23.9695 6.24017 24.0028 6.3689 23.9785 6.49327ZM10.7387 19.0494C10.1643 19.0494 9.6133 19.2731 9.20691 19.6712C8.80077 20.0695 8.57258 20.6096 8.57258 21.1727C8.57258 21.7358 8.8008 22.2759 9.20691 22.6743C9.61325 23.0724 10.1643 23.2961 10.7387 23.2961C11.3131 23.2961 11.8641 23.0724 12.2705 22.6743C12.6766 22.276 12.9048 21.7358 12.9048 21.1727C12.904 20.6098 12.6756 20.0701 12.2697 19.672C11.8635 19.274 11.3129 19.0501 10.7387 19.0494ZM10.7387 22.4467C10.394 22.4467 10.0633 22.3125 9.81967 22.0736C9.57602 21.8348 9.43905 21.5105 9.43905 21.1728C9.43905 20.835 9.57598 20.5107 9.81967 20.2719C10.0634 20.033 10.3941 19.8988 10.7387 19.8988C11.0833 19.8988 11.4141 20.033 11.6577 20.2719C11.9014 20.5107 12.0383 20.835 12.0383 21.1728C12.0383 21.5105 11.9014 21.8348 11.6577 22.0736C11.414 22.3125 11.0833 22.4467 10.7387 22.4467ZM19.4031 19.0494C18.8287 19.0494 18.2777 19.2731 17.8714 19.6712C17.4652 20.0695 17.237 20.6096 17.237 21.1727C17.237 21.7358 17.4652 22.2759 17.8714 22.6743C18.2777 23.0724 18.8287 23.2961 19.4031 23.2961C19.9776 23.2961 20.5285 23.0724 20.9349 22.6743C21.3411 22.276 21.5692 21.7358 21.5692 21.1727C21.5685 20.6098 21.3401 20.0701 20.9341 19.672C20.528 19.274 19.9774 19.0501 19.4031 19.0494ZM19.4031 22.4467C19.0585 22.4467 18.7278 22.3125 18.4841 22.0736C18.2405 21.8348 18.1035 21.5105 18.1035 21.1728C18.1035 20.835 18.2404 20.5107 18.4841 20.2719C18.7278 20.033 19.0585 19.8988 19.4031 19.8988C19.7477 19.8988 20.0785 20.033 20.3222 20.2719C20.5658 20.5107 20.7028 20.835 20.7028 21.1728C20.7028 21.5105 20.5659 21.8348 20.3222 22.0736C20.0785 22.3125 19.7477 22.4467 19.4031 22.4467Z" stroke="#F58220" stroke-width="0.5" mask="url(#path-1-outside-1_1458_317391)" />
	</g>
	<defs>
		<clipPath id="clip0_1458_317391">
			<rect width="25" height="25" fill="white" />
		</clipPath>
	</defs>
</svg>