<svg width="111" height="111" viewBox="0 0 111 111" fill="none" xmlns="http://www.w3.org/2000/svg">
<rect width="111" height="111" fill="white"/>
<path fill-rule="evenodd" clip-rule="evenodd" d="M8.58158 78.2953C12.0008 96.6875 36.7498 102.605 63.86 91.5113C90.9703 80.4181 110.176 56.5155 106.757 38.1233C104.304 24.9297 90.8751 18.1557 73.4724 19.4753C88.3714 19.2419 99.6767 25.7711 101.888 37.6634C105.15 55.2148 87.3683 77.8016 62.17 88.1125C36.9717 98.4234 13.8993 92.5537 10.6364 75.0023C9.20489 67.3019 11.8243 58.6322 17.3437 50.4552C10.4043 59.6766 6.96537 69.6016 8.58158 78.2953Z" fill="#FF4F31"/>
<path d="M67.6265 19.0315L79.2321 13.1071L71.7491 19.3404L78.2195 26.6193L67.6265 19.0315Z" fill="#FF4F31"/>
<path d="M5.98765 50.1352C6.12491 49.3078 6.84053 48.7012 7.67922 48.7012H107.488C108.547 48.7012 109.353 49.6517 109.179 50.6965L105.007 75.8454C104.87 76.6728 104.154 77.2795 103.315 77.2795H3.50698C2.44792 77.2795 1.64207 76.3289 1.8154 75.2841L5.98765 50.1352Z" fill="white"/>
<path d="M11.4815 54.2279L8.45732 71.7008H4.95312L7.97729 54.2279H11.4815ZM21.574 54.2279L13.3056 64.4884H8.93734L9.05735 61.2842H11.7815L17.1218 54.2279H21.574ZM14.9257 71.7008L11.4695 63.7324L14.2176 61.2962L18.9339 71.7008H14.9257Z" fill="#FF4F31"/>
<path d="M32.2306 68.8927L31.7386 71.7008H22.7021L23.1821 68.8927H32.2306ZM26.8903 54.2279L23.8542 71.7008H20.338L23.3621 54.2279H26.8903ZM32.3626 61.3442L31.8826 64.0804H24.0222L24.5022 61.3442H32.3626ZM34.7507 54.2279L34.2587 57.048H25.2342L25.7383 54.2279H34.7507Z" fill="#FF4F31"/>
<path d="M36.7549 54.2279H40.271L37.7269 68.8927H42.4432L44.9873 54.2279H48.5035L45.9473 68.8927H50.6156L53.1597 54.2279H56.6639L53.6278 71.7008H33.7187L36.7549 54.2279Z" fill="#FF4F31"/>
<path d="M70.7407 54.2279L70.2607 57.048H62.6283L60.0841 71.7008H56.5799L59.6041 54.2279H70.7407ZM60.7922 60.6002L64.5604 60.6122C65.6404 60.6362 66.6285 60.8522 67.5245 61.2602C68.4206 61.6683 69.1206 62.2683 69.6246 63.0603C70.1367 63.8444 70.3487 64.8204 70.2607 65.9885C70.1807 66.9406 69.9287 67.7766 69.5046 68.4966C69.0806 69.2087 68.5326 69.8047 67.8605 70.2847C67.1885 70.7648 66.4365 71.1248 65.6044 71.3648C64.7804 71.5968 63.9243 71.7088 63.0363 71.7008H56.5919L59.6161 54.2279H63.1443L60.6001 68.8927L63.1443 68.9047C63.7523 68.9047 64.3124 68.7887 64.8244 68.5566C65.3444 68.3246 65.7724 67.9926 66.1084 67.5606C66.4525 67.1206 66.6685 66.5885 66.7565 65.9645C66.8285 65.4365 66.7765 64.9884 66.6005 64.6204C66.4325 64.2444 66.1605 63.9564 65.7844 63.7564C65.4164 63.5484 64.9764 63.4364 64.4644 63.4204L60.3121 63.4084L60.7922 60.6002Z" fill="#FF4F31"/>
<path d="M84.8415 61.5603L84.3494 64.3804H77.113L77.6171 61.5603H84.8415ZM71.8208 65.8925H75.3009C75.3009 66.5405 75.389 67.1046 75.565 67.5846C75.741 68.0646 76.029 68.4446 76.429 68.7246C76.837 68.9967 77.3851 69.1447 78.0731 69.1687C78.8571 69.1927 79.5172 69.0407 80.0532 68.7126C80.5892 68.3766 81.0293 67.9326 81.3733 67.3806C81.7253 66.8205 81.9973 66.2085 82.1893 65.5445C82.3893 64.8724 82.5333 64.2164 82.6213 63.5764L82.7894 62.3523C82.8454 61.9363 82.8854 61.4843 82.9094 60.9962C82.9334 60.5002 82.9174 60.0082 82.8614 59.5201C82.8054 59.0321 82.6853 58.5881 82.5013 58.1881C82.3253 57.7801 82.0613 57.452 81.7093 57.204C81.3573 56.948 80.8973 56.808 80.3292 56.784C79.5772 56.76 78.9331 56.884 78.3971 57.156C77.8691 57.42 77.4411 57.8081 77.113 58.3201C76.793 58.8321 76.565 59.4361 76.429 60.1322L72.9368 60.1442C73.1368 58.8641 73.5929 57.7601 74.3049 56.832C75.0169 55.904 75.909 55.1919 76.981 54.6959C78.0531 54.1999 79.2292 53.9598 80.5092 53.9758C81.6773 53.9998 82.6613 54.2559 83.4614 54.7439C84.2614 55.2319 84.8895 55.88 85.3455 56.688C85.8095 57.488 86.1135 58.3841 86.2575 59.3761C86.4096 60.3602 86.4215 61.3642 86.2935 62.3883L86.1135 63.5764C85.9615 64.6724 85.6735 65.7285 85.2495 66.7445C84.8255 67.7606 84.2694 68.6646 83.5814 69.4567C82.9014 70.2407 82.0853 70.8608 81.1333 71.3168C80.1812 71.7648 79.0972 71.9768 77.8811 71.9528C76.649 71.9288 75.581 71.6688 74.6769 71.1728C73.7809 70.6768 73.0848 69.9807 72.5888 69.0847C72.1008 68.1806 71.8448 67.1166 71.8208 65.8925Z" fill="#FF4F31"/>
<path d="M93.71 54.2279L90.6858 71.7008H87.1816L90.2058 54.2279H93.71ZM103.803 54.2279L95.5341 64.4884H91.1658L91.2858 61.2842H94.01L99.3503 54.2279H103.803ZM97.1541 71.7008L93.698 63.7324L96.4461 61.2962L101.162 71.7008H97.1541Z" fill="#FF4F31"/>
<path d="M20.2419 23.3313L16.7541 44.0174H12.77L15.5347 28.1236L10.5156 29.669L11.0969 26.2946L19.7315 23.3313H20.2419Z" fill="#FF4F31"/>
<path d="M38.8012 31.8808L38.2625 35.4396C38.0923 36.5738 37.8182 37.675 37.4401 38.7431C37.0715 39.8017 36.5705 40.7564 35.9372 41.6071C35.3039 42.4578 34.5194 43.1289 33.5836 43.6204C32.6479 44.1025 31.5278 44.3293 30.2234 44.301C29.2309 44.2821 28.385 44.0978 27.6855 43.748C26.9955 43.3983 26.4284 42.9351 25.9841 42.3586C25.5493 41.7725 25.2185 41.1061 24.9916 40.3594C24.7742 39.6032 24.6466 38.8093 24.6088 37.9775C24.5805 37.1362 24.6183 36.295 24.7222 35.4537L25.2468 31.8808C25.417 30.756 25.6911 29.6643 26.0692 28.6056C26.4473 27.547 26.953 26.5971 27.5862 25.7558C28.2195 24.9051 29.0041 24.2435 29.9398 23.7709C30.8851 23.2888 32.0051 23.0619 33.3001 23.0903C34.2926 23.1092 35.1338 23.2935 35.8238 23.6433C36.5233 23.9835 37.0904 24.442 37.5252 25.0185C37.9695 25.5951 38.3003 26.2568 38.5177 27.0035C38.7445 27.7502 38.8721 28.5395 38.9005 29.3713C38.9383 30.2031 38.9052 31.0396 38.8012 31.8808ZM34.2075 35.9925L34.9022 31.2995C34.94 30.9592 34.9778 30.5764 35.0157 30.1511C35.0629 29.7163 35.0724 29.2767 35.044 28.8325C35.0251 28.3882 34.9495 27.9771 34.8172 27.599C34.6943 27.2114 34.4911 26.8995 34.2075 26.6632C33.9239 26.4175 33.5364 26.2804 33.0449 26.2521C32.3643 26.2237 31.7972 26.3702 31.3435 26.6916C30.8992 27.0035 30.54 27.4241 30.2659 27.9534C30.0013 28.4828 29.7981 29.0452 29.6563 29.6407C29.5145 30.2361 29.4011 30.7985 29.316 31.3279L28.6354 36.0067C28.5976 36.347 28.5551 36.7345 28.5078 37.1693C28.47 37.6041 28.4606 38.0484 28.4795 38.5021C28.5078 38.9558 28.5834 39.3764 28.7063 39.7639C28.8292 40.1515 29.0324 40.4681 29.316 40.7139C29.5996 40.9596 29.9871 41.0967 30.4786 41.125C31.1592 41.1629 31.7263 41.0211 32.18 40.6997C32.6337 40.3689 32.9929 39.9388 33.2575 39.4095C33.5317 38.8707 33.7396 38.2988 33.8814 37.6939C34.0232 37.0795 34.1319 36.5124 34.2075 35.9925Z" fill="#FF4F31"/>
<path d="M42.1048 28.4355L42.1898 27.3438C42.2749 26.4931 42.5301 25.7416 42.9555 25.0894C43.3808 24.4372 43.9385 23.9363 44.6285 23.5865C45.3185 23.2274 46.0936 23.0572 46.9537 23.0761C47.795 23.0856 48.5181 23.2746 49.123 23.6433C49.728 24.0119 50.1864 24.5176 50.4983 25.1603C50.8197 25.7936 50.952 26.5214 50.8953 27.3438L50.8102 28.4355C50.7252 29.2862 50.47 30.0376 50.0446 30.6898C49.6193 31.3326 49.0616 31.8288 48.3716 32.1786C47.691 32.5283 46.9254 32.6937 46.0747 32.6748C45.2429 32.6654 44.5198 32.481 43.9054 32.1219C43.3005 31.7532 42.8373 31.2523 42.5159 30.619C42.1946 29.9762 42.0575 29.2484 42.1048 28.4355ZM44.8979 27.3438L44.7561 28.478C44.7372 28.79 44.7656 29.0924 44.8412 29.3854C44.9168 29.6785 45.0539 29.9195 45.2524 30.1085C45.4603 30.2881 45.7439 30.3827 46.1031 30.3921C46.4906 30.4016 46.8214 30.3165 47.0955 30.1369C47.3791 29.9479 47.6059 29.7021 47.7761 29.3996C47.9462 29.0972 48.0596 28.7758 48.1164 28.4355L48.2723 27.3296C48.3007 27.0082 48.2771 26.701 48.2014 26.408C48.1353 26.1055 47.9982 25.8598 47.7903 25.6707C47.5823 25.4723 47.294 25.3683 46.9254 25.3588C46.5378 25.3494 46.2023 25.4392 45.9187 25.6282C45.6352 25.8078 45.4083 26.0536 45.2382 26.3655C45.068 26.6774 44.9546 27.0035 44.8979 27.3438ZM49.676 40.0475L49.761 38.9558C49.8367 38.1051 50.0919 37.3584 50.5267 36.7156C50.9615 36.0634 51.5239 35.5624 52.2139 35.2127C52.9039 34.8535 53.679 34.6787 54.5391 34.6881C55.3804 34.707 56.1034 34.9008 56.7084 35.2694C57.3133 35.6381 57.7718 36.139 58.0837 36.7723C58.405 37.4056 58.5421 38.1334 58.4948 38.9558L58.3956 40.0475C58.3105 40.9076 58.0553 41.6638 57.63 42.316C57.2141 42.9588 56.6611 43.4597 55.9711 43.8189C55.2811 44.1686 54.5108 44.3341 53.6601 44.3152C52.8188 44.2962 52.091 44.1072 51.4766 43.748C50.8717 43.3794 50.4085 42.8784 50.0871 42.2451C49.7658 41.6024 49.6287 40.8698 49.676 40.0475ZM52.4691 38.9558L52.3557 40.1042C52.3273 40.4067 52.3509 40.7044 52.4266 40.9974C52.5116 41.2905 52.6581 41.5315 52.8661 41.7205C53.074 41.9096 53.3481 42.0088 53.6884 42.0183C54.1043 42.0372 54.4493 41.9616 54.7234 41.7914C55.007 41.6118 55.2291 41.3708 55.3898 41.0683C55.5599 40.7564 55.6686 40.4161 55.7159 40.0475L55.8719 38.9416C55.8908 38.6202 55.8624 38.313 55.7868 38.02C55.7206 37.727 55.5836 37.486 55.3756 37.2969C55.1677 37.0984 54.8841 36.9944 54.5249 36.985C54.1374 36.9755 53.7971 37.0653 53.5041 37.2544C53.2205 37.434 52.989 37.675 52.8094 37.9775C52.6392 38.2799 52.5258 38.606 52.4691 38.9558ZM57.3748 26.4506L44.9263 42.4294L42.998 41.2668L55.4607 25.3021L57.3748 26.4506Z" fill="#FF4F31"/>
<path d="M23.0106 79.8759L27.7523 81.6807L32.2649 79.3615L30.4601 84.1032L32.7793 88.6158L28.0375 86.811L23.525 89.1302L25.3298 84.3884L23.0106 79.8759Z" fill="#FECA0A"/>
<path d="M89.3074 35.8651L94.0492 37.6699L98.5617 35.3507L96.757 40.0925L99.0762 44.605L94.3344 42.8002L89.8219 45.1194L91.6266 40.3777L89.3074 35.8651Z" fill="#FECA0A"/>
<path d="M39.2226 83.9071L42.3294 85.0896L45.2861 83.5701L44.1036 86.6769L45.6232 89.6336L42.5163 88.4511L39.5597 89.9706L40.7422 86.8638L39.2226 83.9071Z" fill="#FECA0A"/>
<path d="M82.082 27.894L85.1888 29.0765L88.1455 27.5569L86.963 30.6637L88.4825 33.6204L85.3757 32.4379L82.419 33.9575L83.6015 30.8506L82.082 27.894Z" fill="#FECA0A"/>
<path d="M55.0136 83.5421L56.6561 84.1672L58.2191 83.3639L57.594 85.0063L58.3973 86.5693L56.7548 85.9442L55.1918 86.7475L55.8169 85.1051L55.0136 83.5421Z" fill="#FECA0A"/>
</svg>
