<svg width="42" height="42" viewBox="0 0 42 42" fill="none" xmlns="http://www.w3.org/2000/svg">
	<mask id="path-1-outside-1_1529_393485" maskUnits="userSpaceOnUse" x="1.25" y="5" width="35" height="8" fill="black">
		<rect fill="white" x="1.25" y="5" width="35" height="8" />
		<path d="M2.87499 12.25C2.53 12.25 2.25 11.97 2.25 11.625C2.25 11.28 2.53 11 2.87499 11C20.8549 11 31.7073 11 34.8547 6.27883C35.0085 6.04884 35.2935 5.94634 35.556 6.02759C35.8185 6.10634 35.9997 6.34883 35.9997 6.62508V9.75006C35.9997 10.0951 35.7197 10.3751 35.3747 10.3751C35.0297 10.3751 34.7497 10.0951 34.7497 9.75006V8.28257C30.301 12.25 19.6024 12.25 2.87499 12.25Z" />
	</mask>
	<path d="M2.87499 12.25C2.53 12.25 2.25 11.97 2.25 11.625C2.25 11.28 2.53 11 2.87499 11C20.8549 11 31.7073 11 34.8547 6.27883C35.0085 6.04884 35.2935 5.94634 35.556 6.02759C35.8185 6.10634 35.9997 6.34883 35.9997 6.62508V9.75006C35.9997 10.0951 35.7197 10.3751 35.3747 10.3751C35.0297 10.3751 34.7497 10.0951 34.7497 9.75006V8.28257C30.301 12.25 19.6024 12.25 2.87499 12.25Z" fill="#F58220" />
	<path d="M2.87499 12.25C2.53 12.25 2.25 11.97 2.25 11.625C2.25 11.28 2.53 11 2.87499 11C20.8549 11 31.7073 11 34.8547 6.27883C35.0085 6.04884 35.2935 5.94634 35.556 6.02759C35.8185 6.10634 35.9997 6.34883 35.9997 6.62508V9.75006C35.9997 10.0951 35.7197 10.3751 35.3747 10.3751C35.0297 10.3751 34.7497 10.0951 34.7497 9.75006V8.28257C30.301 12.25 19.6024 12.25 2.87499 12.25Z" stroke="#F58220" stroke-width="0.4" mask="url(#path-1-outside-1_1529_393485)" />
	<mask id="path-2-outside-2_1529_393485" maskUnits="userSpaceOnUse" x="1.25" y="10" width="38" height="6" fill="black">
		<rect fill="white" x="1.25" y="10" width="38" height="6" />
		<path d="M18.4736 14.8223C16.2486 14.8223 13.8662 14.8048 11.3324 14.7886C8.6412 14.7698 5.81372 14.7498 2.87499 14.7498C2.53 14.7498 2.25 14.4698 2.25 14.1248C2.25 13.7798 2.53 13.4999 2.87499 13.4999C5.81747 13.4999 8.64745 13.5199 11.3399 13.5374C24.5798 13.6236 35.036 13.6998 37.421 11.1936C37.5985 11.0086 37.8697 10.9499 38.106 11.0449C38.3435 11.1386 38.4997 11.3699 38.4997 11.6249V14.1248C38.4997 14.4698 38.2197 14.7498 37.8747 14.7498C37.5297 14.7498 37.2497 14.4698 37.2497 14.1248V12.8649C34.2397 14.5373 27.736 14.8223 18.4736 14.8223Z" />
	</mask>
	<path d="M18.4736 14.8223C16.2486 14.8223 13.8662 14.8048 11.3324 14.7886C8.6412 14.7698 5.81372 14.7498 2.87499 14.7498C2.53 14.7498 2.25 14.4698 2.25 14.1248C2.25 13.7798 2.53 13.4999 2.87499 13.4999C5.81747 13.4999 8.64745 13.5199 11.3399 13.5374C24.5798 13.6236 35.036 13.6998 37.421 11.1936C37.5985 11.0086 37.8697 10.9499 38.106 11.0449C38.3435 11.1386 38.4997 11.3699 38.4997 11.6249V14.1248C38.4997 14.4698 38.2197 14.7498 37.8747 14.7498C37.5297 14.7498 37.2497 14.4698 37.2497 14.1248V12.8649C34.2397 14.5373 27.736 14.8223 18.4736 14.8223Z" fill="#F58220" />
	<path d="M18.4736 14.8223C16.2486 14.8223 13.8662 14.8048 11.3324 14.7886C8.6412 14.7698 5.81372 14.7498 2.87499 14.7498C2.53 14.7498 2.25 14.4698 2.25 14.1248C2.25 13.7798 2.53 13.4999 2.87499 13.4999C5.81747 13.4999 8.64745 13.5199 11.3399 13.5374C24.5798 13.6236 35.036 13.6998 37.421 11.1936C37.5985 11.0086 37.8697 10.9499 38.106 11.0449C38.3435 11.1386 38.4997 11.3699 38.4997 11.6249V14.1248C38.4997 14.4698 38.2197 14.7498 37.8747 14.7498C37.5297 14.7498 37.2497 14.4698 37.2497 14.1248V12.8649C34.2397 14.5373 27.736 14.8223 18.4736 14.8223Z" stroke="#F58220" stroke-width="0.4" mask="url(#path-2-outside-2_1529_393485)" />
	<mask id="path-3-outside-3_1529_393485" maskUnits="userSpaceOnUse" x="1.25" y="15" width="39" height="22" fill="black">
		<rect fill="white" x="1.25" y="15" width="39" height="22" />
		<path d="M2.87499 16C2.53 16 2.25 16.28 2.25 16.625C2.25 16.97 2.53 17.25 2.87499 17.25H38.4997V34.7498H2.87499C2.53 34.7498 2.25 35.0298 2.25 35.3748C2.25 35.7198 2.53 35.9998 2.87499 35.9998H39.1247C39.4697 35.9998 39.7497 35.7198 39.7497 35.3748V16.625C39.7497 16.28 39.4697 16 39.1247 16H2.87499Z" />
	</mask>
	<path d="M2.87499 16C2.53 16 2.25 16.28 2.25 16.625C2.25 16.97 2.53 17.25 2.87499 17.25H38.4997V34.7498H2.87499C2.53 34.7498 2.25 35.0298 2.25 35.3748C2.25 35.7198 2.53 35.9998 2.87499 35.9998H39.1247C39.4697 35.9998 39.7497 35.7198 39.7497 35.3748V16.625C39.7497 16.28 39.4697 16 39.1247 16H2.87499Z" fill="#F58220" />
	<path d="M2.87499 16C2.53 16 2.25 16.28 2.25 16.625C2.25 16.97 2.53 17.25 2.87499 17.25H38.4997V34.7498H2.87499C2.53 34.7498 2.25 35.0298 2.25 35.3748C2.25 35.7198 2.53 35.9998 2.87499 35.9998H39.1247C39.4697 35.9998 39.7497 35.7198 39.7497 35.3748V16.625C39.7497 16.28 39.4697 16 39.1247 16H2.87499Z" stroke="#F58220" stroke-width="0.4" mask="url(#path-3-outside-3_1529_393485)" />
	<mask id="path-4-outside-4_1529_393485" maskUnits="userSpaceOnUse" x="1.25" y="17.5" width="3" height="19" fill="black">
		<rect fill="white" x="1.25" y="17.5" width="3" height="19" />
		<path d="M2.25 19.125V35.3761C2.25 35.7211 2.53 36.0011 2.87499 36.0011C3.21999 36.0011 3.49999 35.7211 3.49999 35.3761V19.125C3.49999 18.78 3.21999 18.5 2.87499 18.5C2.53 18.5 2.25 18.78 2.25 19.125Z" />
	</mask>
	<path d="M2.25 19.125V35.3761C2.25 35.7211 2.53 36.0011 2.87499 36.0011C3.21999 36.0011 3.49999 35.7211 3.49999 35.3761V19.125C3.49999 18.78 3.21999 18.5 2.87499 18.5C2.53 18.5 2.25 18.78 2.25 19.125Z" fill="#F58220" />
	<path d="M2.25 19.125V35.3761C2.25 35.7211 2.53 36.0011 2.87499 36.0011C3.21999 36.0011 3.49999 35.7211 3.49999 35.3761V19.125C3.49999 18.78 3.21999 18.5 2.87499 18.5C2.53 18.5 2.25 18.78 2.25 19.125Z" stroke="#F58220" stroke-width="0.4" mask="url(#path-4-outside-4_1529_393485)" />
	<mask id="path-5-outside-5_1529_393485" maskUnits="userSpaceOnUse" x="16.25" y="20" width="9" height="8" fill="black">
		<rect fill="white" x="16.25" y="20" width="9" height="8" />
		<path d="M17.875 27.2499C17.53 27.2499 17.25 26.97 17.25 26.625C17.25 26.28 17.53 26 17.875 26H21.625C22.6587 26 23.4999 25.1587 23.4999 24.125C23.4999 23.0912 22.6587 22.25 21.625 22.25H18.5V21.625C18.5 21.28 18.78 21 19.125 21H21.625C23.3487 21 24.7499 22.4037 24.7499 24.125C24.7499 25.8475 23.3487 27.2499 21.625 27.2499H17.875Z" />
	</mask>
	<path d="M17.875 27.2499C17.53 27.2499 17.25 26.97 17.25 26.625C17.25 26.28 17.53 26 17.875 26H21.625C22.6587 26 23.4999 25.1587 23.4999 24.125C23.4999 23.0912 22.6587 22.25 21.625 22.25H18.5V21.625C18.5 21.28 18.78 21 19.125 21H21.625C23.3487 21 24.7499 22.4037 24.7499 24.125C24.7499 25.8475 23.3487 27.2499 21.625 27.2499H17.875Z" fill="#F58220" />
	<path d="M17.875 27.2499C17.53 27.2499 17.25 26.97 17.25 26.625C17.25 26.28 17.53 26 17.875 26H21.625C22.6587 26 23.4999 25.1587 23.4999 24.125C23.4999 23.0912 22.6587 22.25 21.625 22.25H18.5V21.625C18.5 21.28 18.78 21 19.125 21H21.625C23.3487 21 24.7499 22.4037 24.7499 24.125C24.7499 25.8475 23.3487 27.2499 21.625 27.2499H17.875Z" stroke="#F58220" stroke-width="0.4" mask="url(#path-5-outside-5_1529_393485)" />
	<mask id="path-6-outside-6_1529_393485" maskUnits="userSpaceOnUse" x="17.5" y="20.625" width="3" height="12" fill="black">
		<rect fill="white" x="17.5" y="20.625" width="3" height="12" />
		<path d="M19.125 32.2499C18.78 32.2499 18.5 31.9699 18.5 31.6249V22.25C18.5 21.905 18.78 21.625 19.125 21.625C19.47 21.625 19.75 21.905 19.75 22.25V31.6249C19.75 31.9699 19.47 32.2499 19.125 32.2499Z" />
	</mask>
	<path d="M19.125 32.2499C18.78 32.2499 18.5 31.9699 18.5 31.6249V22.25C18.5 21.905 18.78 21.625 19.125 21.625C19.47 21.625 19.75 21.905 19.75 22.25V31.6249C19.75 31.9699 19.47 32.2499 19.125 32.2499Z" fill="#F58220" />
	<path d="M19.125 32.2499C18.78 32.2499 18.5 31.9699 18.5 31.6249V22.25C18.5 21.905 18.78 21.625 19.125 21.625C19.47 21.625 19.75 21.905 19.75 22.25V31.6249C19.75 31.9699 19.47 32.2499 19.125 32.2499Z" stroke="#F58220" stroke-width="0.4" mask="url(#path-6-outside-6_1529_393485)" />
	<mask id="path-7-outside-7_1529_393485" maskUnits="userSpaceOnUse" x="16.25" y="27.5" width="8" height="3" fill="black">
		<rect fill="white" x="16.25" y="27.5" width="8" height="3" />
		<path d="M22.875 29.75H17.875C17.53 29.75 17.25 29.47 17.25 29.125C17.25 28.78 17.53 28.5 17.875 28.5H22.875C23.22 28.5 23.4999 28.78 23.4999 29.125C23.4999 29.47 23.22 29.75 22.875 29.75Z" />
	</mask>
	<path d="M22.875 29.75H17.875C17.53 29.75 17.25 29.47 17.25 29.125C17.25 28.78 17.53 28.5 17.875 28.5H22.875C23.22 28.5 23.4999 28.78 23.4999 29.125C23.4999 29.47 23.22 29.75 22.875 29.75Z" fill="#F58220" />
	<path d="M22.875 29.75H17.875C17.53 29.75 17.25 29.47 17.25 29.125C17.25 28.78 17.53 28.5 17.875 28.5H22.875C23.22 28.5 23.4999 28.78 23.4999 29.125C23.4999 29.47 23.22 29.75 22.875 29.75Z" stroke="#F58220" stroke-width="0.4" mask="url(#path-7-outside-7_1529_393485)" />
</svg>