<svg width="25" height="25" viewBox="0 0 25 25" fill="none" xmlns="http://www.w3.org/2000/svg">
	<mask id="path-1-outside-1_1458_317370" maskUnits="userSpaceOnUse" x="-0.53125" y="0.475098" width="24" height="3" fill="black">
		<rect fill="white" x="-0.53125" y="0.475098" width="24" height="3" />
		<path d="M0.46875 1.97661C0.46875 1.69963 0.693285 1.4751 0.970263 1.4751H22.5695C22.8465 1.4751 23.0711 1.69963 23.0711 1.97661C23.0711 2.25359 22.8465 2.47812 22.5695 2.47812H0.970262C0.693284 2.47812 0.46875 2.25359 0.46875 1.97661Z" />
	</mask>
	<path d="M0.46875 1.97661C0.46875 1.69963 0.693285 1.4751 0.970263 1.4751H22.5695C22.8465 1.4751 23.0711 1.69963 23.0711 1.97661C23.0711 2.25359 22.8465 2.47812 22.5695 2.47812H0.970262C0.693284 2.47812 0.46875 2.25359 0.46875 1.97661Z" fill="#231F20" />
	<path d="M0.46875 1.97661C0.46875 1.69963 0.693285 1.4751 0.970263 1.4751H22.5695C22.8465 1.4751 23.0711 1.69963 23.0711 1.97661C23.0711 2.25359 22.8465 2.47812 22.5695 2.47812H0.970262C0.693284 2.47812 0.46875 2.25359 0.46875 1.97661Z" stroke="#231F20" stroke-width="0.5" mask="url(#path-1-outside-1_1458_317370)" />
	<mask id="path-2-outside-2_1458_317370" maskUnits="userSpaceOnUse" x="-0.53125" y="5.49072" width="11" height="3" fill="black">
		<rect fill="white" x="-0.53125" y="5.49072" width="11" height="3" />
		<path d="M0.46875 6.99224C0.46875 6.71526 0.693285 6.49072 0.970263 6.49072H8.81156C9.08854 6.49072 9.31307 6.71526 9.31307 6.99224C9.31307 7.26921 9.08854 7.49375 8.81156 7.49375H0.970263C0.693285 7.49375 0.46875 7.26921 0.46875 6.99224Z" />
	</mask>
	<path d="M0.46875 6.99224C0.46875 6.71526 0.693285 6.49072 0.970263 6.49072H8.81156C9.08854 6.49072 9.31307 6.71526 9.31307 6.99224C9.31307 7.26921 9.08854 7.49375 8.81156 7.49375H0.970263C0.693285 7.49375 0.46875 7.26921 0.46875 6.99224Z" fill="#231F20" />
	<path d="M0.46875 6.99224C0.46875 6.71526 0.693285 6.49072 0.970263 6.49072H8.81156C9.08854 6.49072 9.31307 6.71526 9.31307 6.99224C9.31307 7.26921 9.08854 7.49375 8.81156 7.49375H0.970263C0.693285 7.49375 0.46875 7.26921 0.46875 6.99224Z" stroke="#231F20" stroke-width="0.5" mask="url(#path-2-outside-2_1458_317370)" />
	<mask id="path-3-outside-3_1458_317370" maskUnits="userSpaceOnUse" x="-0.53125" y="10.5063" width="9" height="3" fill="black">
		<rect fill="white" x="-0.53125" y="10.5063" width="9" height="3" />
		<path d="M0.46875 12.0079C0.46875 11.7309 0.693285 11.5063 0.970263 11.5063H6.84602C7.12299 11.5063 7.34753 11.7309 7.34753 12.0079C7.34753 12.2848 7.12299 12.5094 6.84602 12.5094H0.970262C0.693284 12.5094 0.46875 12.2848 0.46875 12.0079Z" />
	</mask>
	<path d="M0.46875 12.0079C0.46875 11.7309 0.693285 11.5063 0.970263 11.5063H6.84602C7.12299 11.5063 7.34753 11.7309 7.34753 12.0079C7.34753 12.2848 7.12299 12.5094 6.84602 12.5094H0.970262C0.693284 12.5094 0.46875 12.2848 0.46875 12.0079Z" fill="#231F20" />
	<path d="M0.46875 12.0079C0.46875 11.7309 0.693285 11.5063 0.970263 11.5063H6.84602C7.12299 11.5063 7.34753 11.7309 7.34753 12.0079C7.34753 12.2848 7.12299 12.5094 6.84602 12.5094H0.970262C0.693284 12.5094 0.46875 12.2848 0.46875 12.0079Z" stroke="#231F20" stroke-width="0.5" mask="url(#path-3-outside-3_1458_317370)" />
	<mask id="path-4-outside-4_1458_317370" maskUnits="userSpaceOnUse" x="-0.53125" y="15.522" width="9" height="3" fill="black">
		<rect fill="white" x="-0.53125" y="15.522" width="9" height="3" />
		<path d="M0.46875 17.0235C0.46875 16.7465 0.693282 16.522 0.970256 16.522H6.84602C7.123 16.522 7.34753 16.7465 7.34753 17.0235C7.34753 17.3005 7.123 17.525 6.84602 17.525H0.970255C0.693281 17.525 0.46875 17.3005 0.46875 17.0235Z" />
	</mask>
	<path d="M0.46875 17.0235C0.46875 16.7465 0.693282 16.522 0.970256 16.522H6.84602C7.123 16.522 7.34753 16.7465 7.34753 17.0235C7.34753 17.3005 7.123 17.525 6.84602 17.525H0.970255C0.693281 17.525 0.46875 17.3005 0.46875 17.0235Z" fill="#231F20" />
	<path d="M0.46875 17.0235C0.46875 16.7465 0.693282 16.522 0.970256 16.522H6.84602C7.123 16.522 7.34753 16.7465 7.34753 17.0235C7.34753 17.3005 7.123 17.525 6.84602 17.525H0.970255C0.693281 17.525 0.46875 17.3005 0.46875 17.0235Z" stroke="#231F20" stroke-width="0.5" mask="url(#path-4-outside-4_1458_317370)" />
	<mask id="path-5-outside-5_1458_317370" maskUnits="userSpaceOnUse" x="9.03162" y="4.48779" width="16" height="16" fill="black">
		<rect fill="white" x="9.03162" y="4.48779" width="16" height="16" />
		<path d="M17.0531 19.5307C13.1822 19.5307 10.0316 16.38 10.0316 12.5092C10.0316 8.63736 13.1823 5.48779 17.0531 5.48779C20.9239 5.48779 24.0745 8.63744 24.0745 12.5092C24.0745 16.3801 20.9239 19.5307 17.0531 19.5307ZM17.0531 6.49073C13.7338 6.49073 11.0346 9.18999 11.0346 12.5092C11.0346 15.8285 13.7338 18.5277 17.0531 18.5277C20.3723 18.5277 23.0716 15.8285 23.0716 12.5092C23.0716 9.18999 20.3721 6.49073 17.0531 6.49073Z" />
	</mask>
	<path d="M17.0531 19.5307C13.1822 19.5307 10.0316 16.38 10.0316 12.5092C10.0316 8.63736 13.1823 5.48779 17.0531 5.48779C20.9239 5.48779 24.0745 8.63744 24.0745 12.5092C24.0745 16.3801 20.9239 19.5307 17.0531 19.5307ZM17.0531 6.49073C13.7338 6.49073 11.0346 9.18999 11.0346 12.5092C11.0346 15.8285 13.7338 18.5277 17.0531 18.5277C20.3723 18.5277 23.0716 15.8285 23.0716 12.5092C23.0716 9.18999 20.3721 6.49073 17.0531 6.49073Z" fill="#231F20" />
	<path d="M17.0531 19.5307C13.1822 19.5307 10.0316 16.38 10.0316 12.5092C10.0316 8.63736 13.1823 5.48779 17.0531 5.48779C20.9239 5.48779 24.0745 8.63744 24.0745 12.5092C24.0745 16.3801 20.9239 19.5307 17.0531 19.5307ZM17.0531 6.49073C13.7338 6.49073 11.0346 9.18999 11.0346 12.5092C11.0346 15.8285 13.7338 18.5277 17.0531 18.5277C20.3723 18.5277 23.0716 15.8285 23.0716 12.5092C23.0716 9.18999 20.3721 6.49073 17.0531 6.49073Z" stroke="#231F20" stroke-width="0.5" mask="url(#path-5-outside-5_1458_317370)" />
	<mask id="path-6-outside-6_1458_317370" maskUnits="userSpaceOnUse" x="5.03491" y="15.5391" width="9" height="9" fill="black">
		<rect fill="white" x="5.03491" y="15.5391" width="9" height="9" />
		<path d="M6.38958 23.1702C6.1937 22.9743 6.1937 22.6567 6.38958 22.4608L11.9567 16.8937C12.1526 16.6979 12.4702 16.6978 12.666 16.8937C12.8619 17.0896 12.8619 17.4072 12.666 17.603L7.0989 23.1702C6.90302 23.366 6.58545 23.366 6.38958 23.1702Z" />
	</mask>
	<path d="M6.38958 23.1702C6.1937 22.9743 6.1937 22.6567 6.38958 22.4608L11.9567 16.8937C12.1526 16.6979 12.4702 16.6978 12.666 16.8937C12.8619 17.0896 12.8619 17.4072 12.666 17.603L7.0989 23.1702C6.90302 23.366 6.58545 23.366 6.38958 23.1702Z" fill="#231F20" />
	<path d="M6.38958 23.1702C6.1937 22.9743 6.1937 22.6567 6.38958 22.4608L11.9567 16.8937C12.1526 16.6979 12.4702 16.6978 12.666 16.8937C12.8619 17.0896 12.8619 17.4072 12.666 17.603L7.0989 23.1702C6.90302 23.366 6.58545 23.366 6.38958 23.1702Z" stroke="#231F20" stroke-width="0.5" mask="url(#path-6-outside-6_1458_317370)" />
</svg>