<svg width="27" height="27" viewBox="0 0 27 27" fill="none" xmlns="http://www.w3.org/2000/svg">
	<path d="M9.98438 9.23438H11.3906V20.4844H9.98438V9.23438Z" fill="#959699" />
	<path d="M12.7969 9.23438H14.2031V20.4844H12.7969V9.23438Z" fill="#959699" />
	<path d="M15.6094 9.23438H17.0156V20.4844H15.6094V9.23438Z" fill="#959699" />
	<path d="M4.35938 5.01562H22.6406V6.42188H4.35938V5.01562Z" fill="#959699" />
	<path d="M16.9687 5.71875H15.6562V4.3125C15.6562 3.89062 15.3281 3.5625 14.9062 3.5625H12.0937C11.6719 3.5625 11.3437 3.89062 11.3437 4.3125V5.71875H10.0312V4.3125C10.0312 3.1875 10.9687 2.25 12.0937 2.25H14.9062C16.0312 2.25 16.9687 3.1875 16.9687 4.3125V5.71875Z" fill="#959699" />
	<path d="M17.7188 24.7031H9.28125C8.15625 24.7031 7.17188 23.7656 7.07813 22.6406L5.76562 5.76562L7.17188 5.67188L8.48438 22.5469C8.53125 22.9688 8.90625 23.2969 9.28125 23.2969H17.7188C18.1406 23.2969 18.5156 22.9219 18.5156 22.5469L19.8281 5.67188L21.2344 5.76562L19.9219 22.6406C19.8281 23.8125 18.8438 24.7031 17.7188 24.7031Z" fill="#959699" />
</svg>