<svg width="64" height="64" viewBox="0 0 64 64" fill="none" xmlns="http://www.w3.org/2000/svg">
	<g clip-path="url(#clip0_1529_449827)">
		<path d="M54.629 9.37275C48.836 3.58013 40.8302 0 32.0088 0C23.1698 0 15.163 3.58013 9.37088 9.37275C3.59563 15.1674 0 23.1759 0 31.9996C0 40.8418 3.59563 48.8325 9.37088 54.6271C15.163 60.4204 23.1698 64 32.0088 64C40.8301 64 48.836 60.4204 54.629 54.6271C60.4038 48.8325 64 40.8418 64 31.9996C64 23.1759 60.4038 15.1674 54.629 9.37275Z" fill="#999999" />
		<path d="M44.375 19.2969H19.625C16.835 19.2969 14.5625 21.5694 14.5625 24.3594V39.6369C14.5625 42.4269 16.835 44.6994 19.625 44.6994H44.375C47.165 44.6994 49.4375 42.4269 49.4375 39.6369V24.3594C49.4375 21.5694 47.165 19.2969 44.375 19.2969ZM46.0625 39.6369C46.0625 40.5707 45.3088 41.3244 44.375 41.3244H19.625C18.6912 41.3244 17.9375 40.5707 17.9375 39.6369V24.4607L28.8613 33.0894C29.7838 33.8207 30.8975 34.1807 32 34.1807C33.1025 34.1807 34.2162 33.8207 35.1387 33.0894L46.0625 24.4719V39.6369Z" fill="white" />
	</g>
	<defs>
		<clipPath id="clip0_1529_449827">
			<rect width="64" height="64" fill="white" />
		</clipPath>
	</defs>
</svg>