<svg width="33" height="33" viewBox="0 0 33 33" fill="none" xmlns="http://www.w3.org/2000/svg">
	<path d="M15.2243 30.5428C15.5773 30.8377 16.0302 31 16.5 31C16.9696 31 17.4227 30.8377 17.7755 30.5433C19.1116 29.4289 20.3989 28.3825 21.5349 27.4595L21.5353 27.4592C24.8593 24.7576 27.7298 22.4245 29.7272 20.1258C31.9602 17.5563 33 15.1199 33 12.4583C33 9.87226 32.0705 7.4865 30.3823 5.74016C28.6741 3.97318 26.3299 3 23.7814 3C21.8766 3 20.132 3.57435 18.5965 4.70696C17.8213 5.27867 17.1191 5.97836 16.5 6.7945C15.8811 5.97836 15.1787 5.27867 14.4038 4.70696C12.8682 3.57435 11.1237 3 9.21881 3C6.67014 3 4.32616 3.97318 2.6179 5.74016C0.929787 7.4865 0 9.87226 0 12.4583C0 15.1199 1.04006 17.5563 3.27301 20.126C5.27055 22.4246 8.14149 24.758 11.4661 27.46L11.4719 27.4648C12.6059 28.3864 13.8912 29.4311 15.2243 30.5428Z" fill="#F58220" />
</svg>