<svg width="25" height="23" viewBox="0 0 25 23" fill="none" xmlns="http://www.w3.org/2000/svg">
	<path d="M12.5 22.5C12.1441 22.5 11.801 22.3725 11.5335 22.1408C10.5236 21.2673 9.5499 20.4464 8.69083 19.7224L8.68645 19.7186C6.16779 17.5956 3.99284 15.7622 2.47955 13.9562C0.787926 11.9371 0 10.0228 0 7.9315C0 5.89963 0.704384 4.02511 1.98326 2.65299C3.2774 1.26464 5.05314 0.5 6.98395 0.5C8.42705 0.5 9.74865 0.951274 10.9119 1.84118C11.499 2.29038 12.0312 2.84014 12.5 3.48139C12.969 2.84014 13.501 2.29038 14.0883 1.84118C15.2515 0.951274 16.5731 0.5 18.0162 0.5C19.9469 0.5 21.7228 1.26464 23.0169 2.65299C24.2958 4.02511 25 5.89963 25 7.9315C25 10.0228 24.2123 11.9371 22.5206 13.956C21.0073 15.7622 18.8326 17.5954 16.3143 19.7182C15.4537 20.4434 14.4785 21.2656 13.4663 22.1412C13.199 22.3725 12.8557 22.5 12.5 22.5ZM6.98395 1.94853C5.46703 1.94853 4.07352 2.54734 3.05977 3.63477C2.03094 4.73862 1.46427 6.2645 1.46427 7.9315C1.46427 9.69038 2.12517 11.2634 3.60699 13.0319C5.03922 14.7414 7.16953 16.537 9.63612 18.6162L9.64069 18.62C10.503 19.3469 11.4805 20.171 12.4979 21.0509C13.5214 20.1693 14.5004 19.3439 15.3645 18.6159C17.8308 16.5367 19.961 14.7414 21.3932 13.0319C22.8748 11.2634 23.5357 9.69038 23.5357 7.9315C23.5357 6.2645 22.9691 4.73862 21.9402 3.63477C20.9267 2.54734 19.533 1.94853 18.0162 1.94853C16.905 1.94853 15.8848 2.29793 14.9839 2.98691C14.1811 3.60119 13.6219 4.37771 13.294 4.92105C13.1254 5.20046 12.8286 5.36724 12.5 5.36724C12.1714 5.36724 11.8746 5.20046 11.706 4.92105C11.3783 4.37771 10.8191 3.60119 10.0161 2.98691C9.11522 2.29793 8.09498 1.94853 6.98395 1.94853Z" fill="#F58220" />
</svg>