<svg width="25" height="25" viewBox="0 0 25 25" fill="none" xmlns="http://www.w3.org/2000/svg">
	<path d="M12.5 23.5C12.1441 23.5 11.801 23.3725 11.5335 23.1408C10.5236 22.2673 9.5499 21.4464 8.69083 20.7224L8.68645 20.7186C6.16779 18.5956 3.99284 16.7622 2.47955 14.9562C0.787926 12.9371 0 11.0228 0 8.9315C0 6.89963 0.704384 5.02511 1.98326 3.65299C3.2774 2.26464 5.05314 1.5 6.98395 1.5C8.42705 1.5 9.74865 1.95127 10.9119 2.84118C11.499 3.29038 12.0312 3.84014 12.5 4.48139C12.969 3.84014 13.501 3.29038 14.0883 2.84118C15.2515 1.95127 16.5731 1.5 18.0162 1.5C19.9469 1.5 21.7228 2.26464 23.0169 3.65299C24.2958 5.02511 25 6.89963 25 8.9315C25 11.0228 24.2123 12.9371 22.5206 14.956C21.0073 16.7622 18.8326 18.5954 16.3143 20.7182C15.4537 21.4434 14.4785 22.2656 13.4663 23.1412C13.199 23.3725 12.8557 23.5 12.5 23.5ZM6.98395 2.94853C5.46703 2.94853 4.07352 3.54734 3.05977 4.63477C2.03095 5.73862 1.46427 7.2645 1.46427 8.9315C1.46427 10.6904 2.12517 12.2634 3.60699 14.0319C5.03922 15.7414 7.16953 17.537 9.63612 19.6162L9.64069 19.62C10.503 20.3469 11.4805 21.171 12.4979 22.0509C13.5214 21.1693 14.5004 20.3439 15.3645 19.6159C17.8309 17.5367 19.961 15.7414 21.3932 14.0319C22.8748 12.2634 23.5357 10.6904 23.5357 8.9315C23.5357 7.2645 22.9691 5.73862 21.9402 4.63477C20.9267 3.54734 19.533 2.94853 18.0162 2.94853C16.905 2.94853 15.8848 3.29793 14.9839 3.98691C14.1811 4.60119 13.6219 5.37771 13.294 5.92105C13.1254 6.20046 12.8286 6.36724 12.5 6.36724C12.1714 6.36724 11.8746 6.20046 11.706 5.92105C11.3783 5.37771 10.8191 4.60119 10.0161 3.98691C9.11522 3.29793 8.09498 2.94853 6.98395 2.94853Z" fill="#231F20" />
</svg>