<svg width="30" height="30" viewBox="0 0 30 30" fill="none" xmlns="http://www.w3.org/2000/svg">
	<g clip-path="url(#clip0_1529_392683)">
		<mask id="path-1-inside-1_1529_392683" fill="white">
			<path fill-rule="evenodd" clip-rule="evenodd" d="M9.89875 21.7213L3.8125 5H1.25C0.9175 5 0.6 4.86875 0.36625 4.63375C0.13125 4.4 0 4.08125 0 3.75C0 3.06 0.55875 2.5 1.25 2.5H5.5625L12.3987 21.2812C13.45 21.4075 14.3862 21.9062 15.0725 22.6413L29.145 17.52L30 19.8688L16.1888 24.895C16.2288 25.1325 16.25 25.3762 16.25 25.625C16.25 28.04 14.2887 30 11.875 30C9.46 30 7.5 28.04 7.5 25.625C7.5 23.9212 8.47625 22.4438 9.89875 21.7213ZM11.875 23.985C12.78 23.985 13.515 24.72 13.515 25.625C13.515 26.53 12.78 27.2663 11.875 27.2663C10.9688 27.2663 10.2338 26.53 10.2338 25.625C10.2338 24.72 10.9688 23.985 11.875 23.985ZM28.5175 15.845L14.245 21.04L10.825 11.6425L25.0975 6.4475L28.5175 15.845ZM17.63 11.8263L14.03 13.1362L15.74 17.835L25.3137 14.3512L23.6037 9.6525L19.9788 10.9713L20.8337 13.32L18.485 14.1762L17.63 11.8263ZM20.97 6.62L10.3975 10.4675L7.98875 3.8475L18.56 0L20.97 6.62ZM17.0662 3.20375L11.1925 5.3425L11.8925 7.26375L17.765 5.12625L17.0662 3.20375Z" />
		</mask>
		<path fill-rule="evenodd" clip-rule="evenodd" d="M9.89875 21.7213L3.8125 5H1.25C0.9175 5 0.6 4.86875 0.36625 4.63375C0.13125 4.4 0 4.08125 0 3.75C0 3.06 0.55875 2.5 1.25 2.5H5.5625L12.3987 21.2812C13.45 21.4075 14.3862 21.9062 15.0725 22.6413L29.145 17.52L30 19.8688L16.1888 24.895C16.2288 25.1325 16.25 25.3762 16.25 25.625C16.25 28.04 14.2887 30 11.875 30C9.46 30 7.5 28.04 7.5 25.625C7.5 23.9212 8.47625 22.4438 9.89875 21.7213ZM11.875 23.985C12.78 23.985 13.515 24.72 13.515 25.625C13.515 26.53 12.78 27.2663 11.875 27.2663C10.9688 27.2663 10.2338 26.53 10.2338 25.625C10.2338 24.72 10.9688 23.985 11.875 23.985ZM28.5175 15.845L14.245 21.04L10.825 11.6425L25.0975 6.4475L28.5175 15.845ZM17.63 11.8263L14.03 13.1362L15.74 17.835L25.3137 14.3512L23.6037 9.6525L19.9788 10.9713L20.8337 13.32L18.485 14.1762L17.63 11.8263ZM20.97 6.62L10.3975 10.4675L7.98875 3.8475L18.56 0L20.97 6.62ZM17.0662 3.20375L11.1925 5.3425L11.8925 7.26375L17.765 5.12625L17.0662 3.20375Z" fill="#F58220" stroke="white" stroke-width="0.5" mask="url(#path-1-inside-1_1529_392683)" />
	</g>
	<defs>
		<clipPath id="clip0_1529_392683">
			<rect width="30" height="30" fill="white" />
		</clipPath>
	</defs>
</svg>