<svg width="24" height="24" viewBox="0 0 24 24" fill="none" xmlns="http://www.w3.org/2000/svg">
	<path d="M11.5312 3.5C6.81979 3.5 3 7.31979 3 12.0312C3 16.7427 6.81979 20.5625 11.5312 20.5625C16.2427 20.5625 20.0625 16.7427 20.0625 12.0312C20.0625 7.31979 16.2427 3.5 11.5312 3.5ZM15.4688 13.3438H11.5312C11.3572 13.3438 11.1903 13.2746 11.0672 13.1515C10.9441 13.0285 10.875 12.8615 10.875 12.6875V6.78125C10.875 6.6072 10.9441 6.44028 11.0672 6.31721C11.1903 6.19414 11.3572 6.125 11.5312 6.125C11.7053 6.125 11.8722 6.19414 11.9953 6.31721C12.1184 6.44028 12.1875 6.6072 12.1875 6.78125V12.0312H15.4688C15.6428 12.0312 15.8097 12.1004 15.9328 12.2235C16.0559 12.3465 16.125 12.5135 16.125 12.6875C16.125 12.8615 16.0559 13.0285 15.9328 13.1515C15.8097 13.2746 15.6428 13.3438 15.4688 13.3438Z" fill="#57585A" />
</svg>