<svg width="24" height="24" viewBox="0 0 24 24" fill="none" xmlns="http://www.w3.org/2000/svg">
	<path d="M12 3C10.0109 3 8.10322 3.77581 6.6967 5.15676C5.29018 6.53771 4.5 8.41068 4.5 10.3636C4.5 16.9091 12 21 12 21C12 21 19.5 16.9091 19.5 10.3636C19.5 8.41068 18.7098 6.53771 17.3033 5.15676C15.8968 3.77581 13.9891 3 12 3ZM12 13.6364C11.3407 13.6364 10.6963 13.4444 10.1481 13.0848C9.59994 12.7252 9.17269 12.2141 8.9204 11.6161C8.66811 11.018 8.6021 10.36 8.73072 9.72516C8.85933 9.09031 9.1768 8.50717 9.64298 8.04947C10.1092 7.59177 10.7031 7.28007 11.3497 7.15379C11.9963 7.02751 12.6665 7.09233 13.2756 7.34003C13.8847 7.58774 14.4053 8.00721 14.7716 8.54541C15.1378 9.0836 15.3333 9.71635 15.3333 10.3636C15.3333 11.2316 14.9821 12.064 14.357 12.6778C13.7319 13.2916 12.8841 13.6364 12 13.6364Z" fill="#231F20" />
</svg>