<svg width="24" height="24" viewBox="0 0 24 24" fill="none" xmlns="http://www.w3.org/2000/svg">
<path d="M1 23C1 23 1 21.4875 1.12604 20.6969C1.22917 20.0724 2.09427 19.2474 5.77239 17.8953C9.39323 16.5661 9.16979 17.2135 9.16979 14.7672C9.16979 13.1802 8.36198 14.1026 7.84635 11.0891C7.64583 9.90313 7.48542 10.6938 7.05 8.79167C6.82083 7.79479 7.20469 7.72031 7.15885 7.24479C7.11302 6.76927 7.06719 6.34531 6.98125 5.37135C6.87812 4.16823 7.99531 1 12 1C16.0047 1 17.1219 4.16823 17.013 5.37708C16.9271 6.34531 16.8812 6.775 16.8354 7.25052C16.7896 7.72604 17.1734 7.80052 16.9443 8.7974C16.5089 10.6938 16.3484 9.90312 16.1479 11.0948C15.6323 14.1083 14.8245 13.1859 14.8245 14.7729C14.8245 17.225 14.601 16.5776 18.2219 17.901C21.9 19.2474 22.7708 20.0781 22.8682 20.7026C23 21.4875 23 23 23 23H12H1Z" fill="#F58220"/>
</svg>
