<svg width="24" height="24" viewBox="0 0 24 24" fill="none" xmlns="http://www.w3.org/2000/svg">
	<path d="M21 16.2159C21 16.446 20.9574 16.7464 20.8722 17.1172C20.7869 17.4879 20.6974 17.7798 20.6037 17.9929C20.4247 18.419 19.9048 18.8707 19.044 19.348C18.2429 19.7827 17.4503 20 16.6662 20C16.4361 20 16.2124 19.9851 15.995 19.9553C15.7777 19.9254 15.5327 19.8722 15.2599 19.7955C14.9872 19.7188 14.7848 19.657 14.6527 19.6101C14.5206 19.5632 14.2841 19.4759 13.9432 19.348C13.6023 19.2202 13.3935 19.1435 13.3168 19.1179C12.4815 18.8196 11.7358 18.4659 11.0795 18.0568C9.98864 17.3835 8.86151 16.4652 7.69815 15.3018C6.5348 14.1385 5.61648 13.0114 4.94318 11.9205C4.53409 11.2642 4.1804 10.5185 3.8821 9.68324C3.85653 9.60653 3.77983 9.39773 3.65199 9.05682C3.52415 8.71591 3.43679 8.4794 3.38991 8.3473C3.34304 8.2152 3.28125 8.01278 3.20455 7.74006C3.12784 7.46733 3.07457 7.2223 3.04474 7.00497C3.01491 6.78764 3 6.56392 3 6.33381C3 5.54972 3.21733 4.7571 3.65199 3.95597C4.12926 3.09517 4.58097 2.57528 5.0071 2.39631C5.22017 2.30256 5.51207 2.21307 5.88281 2.12784C6.25355 2.04261 6.55398 2 6.78409 2C6.90341 2 6.9929 2.01278 7.05256 2.03835C7.20597 2.08949 7.43182 2.41335 7.73011 3.00994C7.82386 3.17188 7.9517 3.40199 8.11364 3.70028C8.27557 3.99858 8.42472 4.26918 8.56108 4.51207C8.69744 4.75497 8.82955 4.98295 8.95739 5.19602C8.98295 5.23011 9.05753 5.33665 9.18111 5.51562C9.30469 5.6946 9.39631 5.84588 9.45597 5.96946C9.51562 6.09304 9.54545 6.21449 9.54545 6.33381C9.54545 6.50426 9.42401 6.71733 9.18111 6.97301C8.93821 7.22869 8.67401 7.46307 8.38849 7.67614C8.10298 7.8892 7.83878 8.11506 7.59588 8.35369C7.35298 8.59233 7.23153 8.78835 7.23153 8.94176C7.23153 9.01847 7.25284 9.11435 7.29545 9.2294C7.33807 9.34446 7.37429 9.43182 7.40412 9.49148C7.43395 9.55114 7.49361 9.65341 7.5831 9.7983C7.67259 9.94318 7.72159 10.0241 7.73011 10.0412C8.37784 11.2088 9.11932 12.2102 9.95455 13.0455C10.7898 13.8807 11.7912 14.6222 12.9588 15.2699C12.9759 15.2784 13.0568 15.3274 13.2017 15.4169C13.3466 15.5064 13.4489 15.5661 13.5085 15.5959C13.5682 15.6257 13.6555 15.6619 13.7706 15.7045C13.8857 15.7472 13.9815 15.7685 14.0582 15.7685C14.2116 15.7685 14.4077 15.647 14.6463 15.4041C14.8849 15.1612 15.1108 14.897 15.3239 14.6115C15.5369 14.326 15.7713 14.0618 16.027 13.8189C16.2827 13.576 16.4957 13.4545 16.6662 13.4545C16.7855 13.4545 16.907 13.4844 17.0305 13.544C17.1541 13.6037 17.3054 13.6953 17.4844 13.8189C17.6634 13.9425 17.7699 14.017 17.804 14.0426C18.017 14.1705 18.245 14.3026 18.4879 14.4389C18.7308 14.5753 19.0014 14.7244 19.2997 14.8864C19.598 15.0483 19.8281 15.1761 19.9901 15.2699C20.5866 15.5682 20.9105 15.794 20.9616 15.9474C20.9872 16.0071 21 16.0966 21 16.2159Z" fill="#57585A" />
</svg>