<svg width="19" height="19" viewBox="0 0 19 19" fill="none" xmlns="http://www.w3.org/2000/svg">
	<path d="M1.27855 5.66478H6.16035C6.40557 6.61129 7.25935 7.31543 8.28151 7.31543C9.30367 7.31543 10.1575 6.61129 10.4027 5.66478H17.7209C18.0234 5.66478 18.2689 5.41928 18.2689 5.1167C18.2689 4.81412 18.0234 4.56862 17.7209 4.56862H10.4027C10.1575 3.62211 9.30367 2.91797 8.28151 2.91797C7.25935 2.91797 6.40557 3.62211 6.16035 4.56862H1.27855C0.975962 4.56862 0.730469 4.81412 0.730469 5.1167C0.730469 5.41928 0.975962 5.66478 1.27855 5.66478ZM8.28151 4.01412C8.88954 4.01412 9.38409 4.50868 9.38409 5.1167C9.38409 5.72472 8.88954 6.21928 8.28151 6.21928C7.67349 6.21928 7.17894 5.72472 7.17894 5.1167C7.17894 4.50868 7.67349 4.01412 8.28151 4.01412Z" fill="#1D1D1B" />
	<path d="M17.7209 8.95143H16.5471C16.3019 8.00492 15.4481 7.30078 14.426 7.30078C13.4038 7.30078 12.55 8.00492 12.3048 8.95143H1.27855C0.975962 8.95143 0.730469 9.19693 0.730469 9.49951C0.730469 9.8021 0.975962 10.0476 1.27855 10.0476H12.3048C12.55 10.9941 13.4038 11.6982 14.426 11.6982C15.4481 11.6982 16.3019 10.9941 16.5471 10.0476H17.7209C18.0234 10.0476 18.2689 9.8021 18.2689 9.49951C18.2689 9.19693 18.0234 8.95143 17.7209 8.95143ZM14.426 10.6021C13.8179 10.6021 13.3234 10.1075 13.3234 9.49951C13.3234 8.89149 13.8179 8.39694 14.426 8.39694C15.034 8.39694 15.5285 8.89149 15.5285 9.49951C15.5285 10.1075 15.034 10.6021 14.426 10.6021Z" fill="#1D1D1B" />
	<path d="M17.7209 13.3382H7.10142C6.85624 12.3916 6.0025 11.6875 4.98092 11.6875C3.95876 11.6875 3.10498 12.3916 2.85975 13.3382H1.27855C0.975962 13.3382 0.730469 13.5836 0.730469 13.8862C0.730469 14.1888 0.975962 14.4343 1.27855 14.4343H2.85975C3.10498 15.3808 3.95876 16.085 4.98092 16.085C6.0025 16.085 6.85624 15.3808 7.10142 14.4343H17.7209C18.0234 14.4343 18.2689 14.1888 18.2689 13.8862C18.2689 13.5836 18.0234 13.3382 17.7209 13.3382ZM4.98092 14.9888C4.3729 14.9888 3.87834 14.4943 3.87834 13.8862C3.87834 13.2782 4.3729 12.7837 4.98092 12.7837C5.58823 12.7837 6.08278 13.2782 6.08278 13.8862C6.08278 14.4943 5.58823 14.9888 4.98092 14.9888Z" fill="#1D1D1B" />
</svg>