<svg width="42" height="42" viewBox="0 0 42 42" fill="none" xmlns="http://www.w3.org/2000/svg">
	<path d="M6.71875 40.839L10.9188 38.739L14.2788 40.419L17.6388 38.739L20.9988 40.419L24.3588 38.739L27.7188 40.419L31.0788 38.739L35.2788 40.839V0.839844H6.71875V40.839ZM8.39875 2.51984H33.5988V38.1207L31.0788 36.8607L27.7188 38.5407L24.3588 36.8607L20.9988 38.5407L17.6388 36.8607L14.2788 38.5407L10.9188 36.8607L8.39875 38.1207V2.51984Z" fill="#231F20" />
	<path d="M20.9988 13.4391C23.3147 13.4391 25.1988 11.5549 25.1988 9.23906C25.1988 6.92318 23.3147 5.03906 20.9988 5.03906C18.6829 5.03906 16.7988 6.92318 16.7988 9.23906C16.7988 11.5549 18.6829 13.4391 20.9988 13.4391ZM20.9988 6.71906C22.3882 6.71906 23.5188 7.8497 23.5188 9.23906C23.5188 10.6284 22.3882 11.7591 20.9988 11.7591C19.6095 11.7591 18.4788 10.6284 18.4788 9.23906C18.4788 7.8497 19.6095 6.71906 20.9988 6.71906Z" fill="#231F20" />
	<path d="M21.8378 18.4805H11.7578V20.1605H21.8378V18.4805Z" fill="#231F20" />
	<path d="M30.2389 18.4805H26.8789V20.1605H30.2389V18.4805Z" fill="#231F20" />
	<path d="M21.8378 22.6799H11.7578V24.3599H21.8378V22.6799Z" fill="#231F20" />
	<path d="M30.2389 22.6798H26.8789V24.3598H30.2389V22.6798Z" fill="#231F20" />
	<path d="M21.8378 26.8789H11.7578V28.5589H21.8378V26.8789Z" fill="#231F20" />
	<path d="M30.2389 26.8789H26.8789V28.5589H30.2389V26.8789Z" fill="#231F20" />
	<path d="M21.8378 31.0781H11.7578V32.7581H21.8378V31.0781Z" fill="#231F20" />
	<path d="M30.2389 31.0781H26.8789V32.7581H30.2389V31.0781Z" fill="#231F20" />
</svg>