<svg width="38" height="38" viewBox="0 0 38 38" fill="none" xmlns="http://www.w3.org/2000/svg">
	<path d="M27.2413 10.6875V26.8375H15.77C15.7231 26.1088 15.4005 25.4253 14.8679 24.9258C14.3352 24.4264 13.6324 24.1484 12.9022 24.1484C12.172 24.1484 11.4692 24.4264 10.9365 24.9258C10.4038 25.4253 10.0813 26.1088 10.0344 26.8375H7.125V10.6875H27.2413Z" stroke="#F58220" stroke-width="1.5" stroke-linecap="round" stroke-linejoin="round" />
	<path d="M36.8125 21.1375V26.8375H34.9006C34.8537 26.1088 34.5311 25.4253 33.9985 24.9258C33.4658 24.4264 32.763 24.1484 32.0328 24.1484C31.3026 24.1484 30.5997 24.4264 30.0671 24.9258C29.5344 25.4253 29.2119 26.1088 29.165 26.8375H27.2412V15.4375H31.2431L36.8125 21.1375Z" stroke="#F58220" stroke-width="1.5" stroke-linecap="round" stroke-linejoin="round" />
	<path d="M36.8125 21.1367V26.8367H34.9006C34.8537 26.108 34.5311 25.4245 33.9985 24.925C33.4658 24.4256 32.763 24.1476 32.0328 24.1476C31.3026 24.1476 30.5997 24.4256 30.0671 24.925C29.5344 25.4245 29.2119 26.108 29.165 26.8367H27.2412V21.1367H36.8125Z" stroke="#F58220" stroke-width="1.5" stroke-linecap="round" stroke-linejoin="round" />
	<path d="M12.8962 29.6883C14.4833 29.6883 15.77 28.4123 15.77 26.8383C15.77 25.2643 14.4833 23.9883 12.8962 23.9883C11.3091 23.9883 10.0225 25.2643 10.0225 26.8383C10.0225 28.4123 11.3091 29.6883 12.8962 29.6883Z" stroke="#F58220" stroke-width="1.5" stroke-linecap="round" stroke-linejoin="round" />
	<path d="M32.0271 29.6883C33.6142 29.6883 34.9008 28.4123 34.9008 26.8383C34.9008 25.2643 33.6142 23.9883 32.0271 23.9883C30.4399 23.9883 29.1533 25.2643 29.1533 26.8383C29.1533 28.4123 30.4399 29.6883 32.0271 29.6883Z" stroke="#F58220" stroke-width="1.5" stroke-linecap="round" stroke-linejoin="round" />
	<path d="M1.1875 12.5859H4.28687" stroke="#F58220" stroke-width="1.5" stroke-linecap="round" stroke-linejoin="round" />
	<path d="M1.1875 16.3867H4.28687" stroke="#F58220" stroke-width="1.5" stroke-linecap="round" stroke-linejoin="round" />
	<path d="M1.1875 20.1875H4.28687" stroke="#F58220" stroke-width="1.5" stroke-linecap="round" stroke-linejoin="round" />
</svg>