<svg width="20" height="20" viewBox="0 0 20 20" fill="none" xmlns="http://www.w3.org/2000/svg">
	<mask id="path-1-outside-1_1529_357914" maskUnits="userSpaceOnUse" x="-0.625" y="0.180176" width="20" height="2" fill="black">
		<rect fill="white" x="-0.625" y="0.180176" width="20" height="2" />
		<path d="M0.375 1.58139C0.375 1.3598 0.554628 1.18018 0.77621 1.18018H18.0556C18.2772 1.18018 18.4568 1.3598 18.4568 1.58139C18.4568 1.80297 18.2772 1.9826 18.0556 1.9826H0.776211C0.554629 1.9826 0.375 1.80297 0.375 1.58139Z" />
	</mask>
	<path d="M0.375 1.58139C0.375 1.3598 0.554628 1.18018 0.77621 1.18018H18.0556C18.2772 1.18018 18.4568 1.3598 18.4568 1.58139C18.4568 1.80297 18.2772 1.9826 18.0556 1.9826H0.776211C0.554629 1.9826 0.375 1.80297 0.375 1.58139Z" fill="#959699" />
	<path d="M0.375 1.58139C0.375 1.3598 0.554628 1.18018 0.77621 1.18018H18.0556C18.2772 1.18018 18.4568 1.3598 18.4568 1.58139C18.4568 1.80297 18.2772 1.9826 18.0556 1.9826H0.776211C0.554629 1.9826 0.375 1.80297 0.375 1.58139Z" stroke="#959699" stroke-width="0.3" mask="url(#path-1-outside-1_1529_357914)" />
	<mask id="path-2-outside-2_1529_357914" maskUnits="userSpaceOnUse" x="-0.625" y="4.19263" width="9" height="2" fill="black">
		<rect fill="white" x="-0.625" y="4.19263" width="9" height="2" />
		<path d="M0.375 5.59384C0.375 5.37225 0.554628 5.19263 0.776211 5.19263H7.04925C7.27083 5.19263 7.45046 5.37225 7.45046 5.59384C7.45046 5.81542 7.27083 5.99505 7.04925 5.99505H0.776211C0.554628 5.99505 0.375 5.81542 0.375 5.59384Z" />
	</mask>
	<path d="M0.375 5.59384C0.375 5.37225 0.554628 5.19263 0.776211 5.19263H7.04925C7.27083 5.19263 7.45046 5.37225 7.45046 5.59384C7.45046 5.81542 7.27083 5.99505 7.04925 5.99505H0.776211C0.554628 5.99505 0.375 5.81542 0.375 5.59384Z" fill="#959699" />
	<path d="M0.375 5.59384C0.375 5.37225 0.554628 5.19263 0.776211 5.19263H7.04925C7.27083 5.19263 7.45046 5.37225 7.45046 5.59384C7.45046 5.81542 7.27083 5.99505 7.04925 5.99505H0.776211C0.554628 5.99505 0.375 5.81542 0.375 5.59384Z" stroke="#959699" stroke-width="0.3" mask="url(#path-2-outside-2_1529_357914)" />
	<mask id="path-3-outside-3_1529_357914" maskUnits="userSpaceOnUse" x="-0.625" y="8.20508" width="7" height="2" fill="black">
		<rect fill="white" x="-0.625" y="8.20508" width="7" height="2" />
		<path d="M0.375 9.60629C0.375 9.38471 0.554628 9.20508 0.77621 9.20508H5.47681C5.69839 9.20508 5.87802 9.38471 5.87802 9.60629C5.87802 9.82787 5.69839 10.0075 5.47681 10.0075H0.77621C0.554628 10.0075 0.375 9.82787 0.375 9.60629Z" />
	</mask>
	<path d="M0.375 9.60629C0.375 9.38471 0.554628 9.20508 0.77621 9.20508H5.47681C5.69839 9.20508 5.87802 9.38471 5.87802 9.60629C5.87802 9.82787 5.69839 10.0075 5.47681 10.0075H0.77621C0.554628 10.0075 0.375 9.82787 0.375 9.60629Z" fill="#959699" />
	<path d="M0.375 9.60629C0.375 9.38471 0.554628 9.20508 0.77621 9.20508H5.47681C5.69839 9.20508 5.87802 9.38471 5.87802 9.60629C5.87802 9.82787 5.69839 10.0075 5.47681 10.0075H0.77621C0.554628 10.0075 0.375 9.82787 0.375 9.60629Z" stroke="#959699" stroke-width="0.3" mask="url(#path-3-outside-3_1529_357914)" />
	<mask id="path-4-outside-4_1529_357914" maskUnits="userSpaceOnUse" x="-0.625" y="12.2178" width="7" height="2" fill="black">
		<rect fill="white" x="-0.625" y="12.2178" width="7" height="2" />
		<path d="M0.375 13.619C0.375 13.3974 0.554625 13.2178 0.776204 13.2178H5.47682C5.6984 13.2178 5.87802 13.3974 5.87802 13.619C5.87802 13.8406 5.6984 14.0202 5.47682 14.0202H0.776205C0.554626 14.0202 0.375 13.8406 0.375 13.619Z" />
	</mask>
	<path d="M0.375 13.619C0.375 13.3974 0.554625 13.2178 0.776204 13.2178H5.47682C5.6984 13.2178 5.87802 13.3974 5.87802 13.619C5.87802 13.8406 5.6984 14.0202 5.47682 14.0202H0.776205C0.554626 14.0202 0.375 13.8406 0.375 13.619Z" fill="#959699" />
	<path d="M0.375 13.619C0.375 13.3974 0.554625 13.2178 0.776204 13.2178H5.47682C5.6984 13.2178 5.87802 13.3974 5.87802 13.619C5.87802 13.8406 5.6984 14.0202 5.47682 14.0202H0.776205C0.554626 14.0202 0.375 13.8406 0.375 13.619Z" stroke="#959699" stroke-width="0.3" mask="url(#path-4-outside-4_1529_357914)" />
	<mask id="path-5-outside-5_1529_357914" maskUnits="userSpaceOnUse" x="7.02539" y="3.39038" width="13" height="13" fill="black">
		<rect fill="white" x="7.02539" y="3.39038" width="13" height="13" />
		<path d="M13.6425 15.6247C10.5458 15.6247 8.02539 13.1042 8.02539 10.0075C8.02539 6.91003 10.5459 4.39038 13.6425 4.39038C16.7392 4.39038 19.2597 6.9101 19.2597 10.0075C19.2597 13.1042 16.7392 15.6247 13.6425 15.6247ZM13.6425 5.19273C10.9871 5.19273 8.82774 7.35214 8.82774 10.0075C8.82774 12.6629 10.9871 14.8223 13.6425 14.8223C16.2979 14.8223 18.4573 12.6629 18.4573 10.0075C18.4573 7.35214 16.2978 5.19273 13.6425 5.19273Z" />
	</mask>
	<path d="M13.6425 15.6247C10.5458 15.6247 8.02539 13.1042 8.02539 10.0075C8.02539 6.91003 10.5459 4.39038 13.6425 4.39038C16.7392 4.39038 19.2597 6.9101 19.2597 10.0075C19.2597 13.1042 16.7392 15.6247 13.6425 15.6247ZM13.6425 5.19273C10.9871 5.19273 8.82774 7.35214 8.82774 10.0075C8.82774 12.6629 10.9871 14.8223 13.6425 14.8223C16.2979 14.8223 18.4573 12.6629 18.4573 10.0075C18.4573 7.35214 16.2978 5.19273 13.6425 5.19273Z" fill="#959699" />
	<path d="M13.6425 15.6247C10.5458 15.6247 8.02539 13.1042 8.02539 10.0075C8.02539 6.91003 10.5459 4.39038 13.6425 4.39038C16.7392 4.39038 19.2597 6.9101 19.2597 10.0075C19.2597 13.1042 16.7392 15.6247 13.6425 15.6247ZM13.6425 5.19273C10.9871 5.19273 8.82774 7.35214 8.82774 10.0075C8.82774 12.6629 10.9871 14.8223 13.6425 14.8223C16.2979 14.8223 18.4573 12.6629 18.4573 10.0075C18.4573 7.35214 16.2978 5.19273 13.6425 5.19273Z" stroke="#959699" stroke-width="0.3" mask="url(#path-5-outside-5_1529_357914)" />
	<mask id="path-6-outside-6_1529_357914" maskUnits="userSpaceOnUse" x="4.82812" y="13.2314" width="6" height="6" fill="black">
		<rect fill="white" x="4.82812" y="13.2314" width="6" height="6" />
		<path d="M5.11186 18.5363C4.95516 18.3796 4.95516 18.1256 5.11186 17.9689L9.56556 13.5152C9.72226 13.3585 9.97632 13.3585 10.133 13.5152C10.2897 13.6719 10.2897 13.9259 10.133 14.0826L5.67931 18.5363C5.52261 18.693 5.26856 18.693 5.11186 18.5363Z" />
	</mask>
	<path d="M5.11186 18.5363C4.95516 18.3796 4.95516 18.1256 5.11186 17.9689L9.56556 13.5152C9.72226 13.3585 9.97632 13.3585 10.133 13.5152C10.2897 13.6719 10.2897 13.9259 10.133 14.0826L5.67931 18.5363C5.52261 18.693 5.26856 18.693 5.11186 18.5363Z" fill="#959699" />
	<path d="M5.11186 18.5363C4.95516 18.3796 4.95516 18.1256 5.11186 17.9689L9.56556 13.5152C9.72226 13.3585 9.97632 13.3585 10.133 13.5152C10.2897 13.6719 10.2897 13.9259 10.133 14.0826L5.67931 18.5363C5.52261 18.693 5.26856 18.693 5.11186 18.5363Z" stroke="#959699" stroke-width="0.3" mask="url(#path-6-outside-6_1529_357914)" />
</svg>