<svg width="26" height="26" viewBox="0 0 26 26" fill="none" xmlns="http://www.w3.org/2000/svg">
	<mask id="path-1-inside-1_1365_271645" fill="white">
		<path d="M11.2219 21.4428C13.4899 21.4423 15.6925 20.6831 17.479 19.2861L23.096 24.9027L24.9027 23.0961L19.2858 17.4794C20.6836 15.6928 21.4433 13.4898 21.4439 11.2214C21.4439 5.58557 16.858 1 11.2219 1C5.58581 1 1 5.58557 1 11.2214C1 16.8572 5.58581 21.4428 11.2219 21.4428ZM11.2219 3.55535C15.45 3.55535 18.8884 6.99356 18.8884 11.2214C18.8884 15.4492 15.45 18.8874 11.2219 18.8874C6.99388 18.8874 3.55548 15.4492 3.55548 11.2214C3.55548 6.99356 6.99388 3.55535 11.2219 3.55535Z" />
	</mask>
	<path d="M11.2219 21.4428C13.4899 21.4423 15.6925 20.6831 17.479 19.2861L23.096 24.9027L24.9027 23.0961L19.2858 17.4794C20.6836 15.6928 21.4433 13.4898 21.4439 11.2214C21.4439 5.58557 16.858 1 11.2219 1C5.58581 1 1 5.58557 1 11.2214C1 16.8572 5.58581 21.4428 11.2219 21.4428ZM11.2219 3.55535C15.45 3.55535 18.8884 6.99356 18.8884 11.2214C18.8884 15.4492 15.45 18.8874 11.2219 18.8874C6.99388 18.8874 3.55548 15.4492 3.55548 11.2214C3.55548 6.99356 6.99388 3.55535 11.2219 3.55535Z" fill="#231F20" stroke="white" stroke-width="1.08649" mask="url(#path-1-inside-1_1365_271645)" />
</svg>