<svg width="35" height="33" viewBox="0 0 35 33" fill="none" xmlns="http://www.w3.org/2000/svg">
	<mask id="path-1-outside-1_90_78263" maskUnits="userSpaceOnUse" x="0" y="-0.362305" width="35" height="34" fill="black">
		<rect fill="white" y="-0.362305" width="35" height="34" />
		<path d="M33.5665 6.84289C33.2096 6.41763 32.677 6.17164 32.115 6.17246H6.40922L5.58131 2.12105C5.49502 1.70347 5.26444 1.32763 4.92823 1.05747C4.59203 0.787045 4.1709 0.638799 3.73611 0.637695H1.62758C1.28101 0.637695 1 0.913061 1 1.25266C1 1.59227 1.28101 1.86763 1.62758 1.86763H3.73611C4.03478 1.86736 4.29225 2.07299 4.35193 2.35961L8.13929 20.919C8.28302 21.6152 8.66742 22.2414 9.22777 22.6917C9.78783 23.1423 10.4897 23.3893 11.2144 23.3913H28.4253C29.1545 23.3904 29.8609 23.1412 30.4229 22.6863C30.9852 22.2311 31.3682 21.5985 31.5066 20.8971L33.9662 8.36508C34.0724 7.82451 33.9257 7.2662 33.5665 6.84289ZM32.7313 8.13432L30.2717 20.6656C30.189 21.0862 29.9596 21.4656 29.6228 21.7388C29.2858 22.0117 28.8624 22.1613 28.4254 22.1619H11.2167C10.7816 22.1608 10.3603 22.0128 10.024 21.7424C9.68754 21.4722 9.45668 21.0964 9.37039 20.6785L6.66117 7.40295H32.1152C32.3023 7.40295 32.48 7.48476 32.599 7.62642C32.7184 7.76781 32.7666 7.95423 32.7313 8.13432ZM13.5517 26.3168C12.7195 26.3168 11.9214 26.6408 11.3327 27.2173C10.7443 27.7941 10.4138 28.5763 10.4138 29.3917C10.4138 30.2071 10.7444 30.9892 11.3327 31.5661C11.9213 32.1426 12.7195 32.4665 13.5517 32.4665C14.3838 32.4665 15.182 32.1426 15.7707 31.5661C16.359 30.9893 16.6896 30.2071 16.6896 29.3917C16.6885 28.5765 16.3576 27.7949 15.7695 27.2184C15.1812 26.6422 14.3835 26.318 13.5517 26.3168ZM13.5517 31.2366C13.0524 31.2366 12.5733 31.0422 12.2203 30.6963C11.8674 30.3504 11.669 29.8809 11.669 29.3917C11.669 28.9025 11.8673 28.433 12.2203 28.0871C12.5734 27.7413 13.0525 27.5468 13.5517 27.5468C14.0509 27.5468 14.5301 27.7412 14.883 28.0871C15.236 28.4331 15.4344 28.9025 15.4344 29.3917C15.4344 29.8809 15.236 30.3504 14.883 30.6963C14.53 31.0422 14.0509 31.2366 13.5517 31.2366ZM26.1033 26.3168C25.2712 26.3168 24.473 26.6408 23.8843 27.2173C23.296 27.7941 22.9654 28.5763 22.9654 29.3917C22.9654 30.2071 23.296 30.9892 23.8843 31.5661C24.473 32.1426 25.2712 32.4665 26.1033 32.4665C26.9354 32.4665 27.7336 32.1426 28.3223 31.5661C28.9107 30.9893 29.2412 30.2071 29.2412 29.3917C29.2401 28.5765 28.9092 27.7949 28.3212 27.2184C27.7328 26.6422 26.9352 26.318 26.1033 26.3168ZM26.1033 31.2366C25.604 31.2366 25.1249 31.0422 24.772 30.6963C24.419 30.3504 24.2206 29.8809 24.2206 29.3917C24.2206 28.9025 24.419 28.433 24.772 28.0871C25.125 27.7413 25.6041 27.5468 26.1033 27.5468C26.6025 27.5468 27.0817 27.7412 27.4346 28.0871C27.7876 28.4331 27.986 28.9025 27.986 29.3917C27.986 29.8809 27.7877 30.3504 27.4346 30.6963C27.0816 31.0422 26.6025 31.2366 26.1033 31.2366Z" />
	</mask>
	<path d="M33.5665 6.84289C33.2096 6.41763 32.677 6.17164 32.115 6.17246H6.40922L5.58131 2.12105C5.49502 1.70347 5.26444 1.32763 4.92823 1.05747C4.59203 0.787045 4.1709 0.638799 3.73611 0.637695H1.62758C1.28101 0.637695 1 0.913061 1 1.25266C1 1.59227 1.28101 1.86763 1.62758 1.86763H3.73611C4.03478 1.86736 4.29225 2.07299 4.35193 2.35961L8.13929 20.919C8.28302 21.6152 8.66742 22.2414 9.22777 22.6917C9.78783 23.1423 10.4897 23.3893 11.2144 23.3913H28.4253C29.1545 23.3904 29.8609 23.1412 30.4229 22.6863C30.9852 22.2311 31.3682 21.5985 31.5066 20.8971L33.9662 8.36508C34.0724 7.82451 33.9257 7.2662 33.5665 6.84289ZM32.7313 8.13432L30.2717 20.6656C30.189 21.0862 29.9596 21.4656 29.6228 21.7388C29.2858 22.0117 28.8624 22.1613 28.4254 22.1619H11.2167C10.7816 22.1608 10.3603 22.0128 10.024 21.7424C9.68754 21.4722 9.45668 21.0964 9.37039 20.6785L6.66117 7.40295H32.1152C32.3023 7.40295 32.48 7.48476 32.599 7.62642C32.7184 7.76781 32.7666 7.95423 32.7313 8.13432ZM13.5517 26.3168C12.7195 26.3168 11.9214 26.6408 11.3327 27.2173C10.7443 27.7941 10.4138 28.5763 10.4138 29.3917C10.4138 30.2071 10.7444 30.9892 11.3327 31.5661C11.9213 32.1426 12.7195 32.4665 13.5517 32.4665C14.3838 32.4665 15.182 32.1426 15.7707 31.5661C16.359 30.9893 16.6896 30.2071 16.6896 29.3917C16.6885 28.5765 16.3576 27.7949 15.7695 27.2184C15.1812 26.6422 14.3835 26.318 13.5517 26.3168ZM13.5517 31.2366C13.0524 31.2366 12.5733 31.0422 12.2203 30.6963C11.8674 30.3504 11.669 29.8809 11.669 29.3917C11.669 28.9025 11.8673 28.433 12.2203 28.0871C12.5734 27.7413 13.0525 27.5468 13.5517 27.5468C14.0509 27.5468 14.5301 27.7412 14.883 28.0871C15.236 28.4331 15.4344 28.9025 15.4344 29.3917C15.4344 29.8809 15.236 30.3504 14.883 30.6963C14.53 31.0422 14.0509 31.2366 13.5517 31.2366ZM26.1033 26.3168C25.2712 26.3168 24.473 26.6408 23.8843 27.2173C23.296 27.7941 22.9654 28.5763 22.9654 29.3917C22.9654 30.2071 23.296 30.9892 23.8843 31.5661C24.473 32.1426 25.2712 32.4665 26.1033 32.4665C26.9354 32.4665 27.7336 32.1426 28.3223 31.5661C28.9107 30.9893 29.2412 30.2071 29.2412 29.3917C29.2401 28.5765 28.9092 27.7949 28.3212 27.2184C27.7328 26.6422 26.9352 26.318 26.1033 26.3168ZM26.1033 31.2366C25.604 31.2366 25.1249 31.0422 24.772 30.6963C24.419 30.3504 24.2206 29.8809 24.2206 29.3917C24.2206 28.9025 24.419 28.433 24.772 28.0871C25.125 27.7413 25.6041 27.5468 26.1033 27.5468C26.6025 27.5468 27.0817 27.7412 27.4346 28.0871C27.7876 28.4331 27.986 28.9025 27.986 29.3917C27.986 29.8809 27.7877 30.3504 27.4346 30.6963C27.0816 31.0422 26.6025 31.2366 26.1033 31.2366Z" fill="white" />
	<path d="M33.5665 6.84289C33.2096 6.41763 32.677 6.17164 32.115 6.17246H6.40922L5.58131 2.12105C5.49502 1.70347 5.26444 1.32763 4.92823 1.05747C4.59203 0.787045 4.1709 0.638799 3.73611 0.637695H1.62758C1.28101 0.637695 1 0.913061 1 1.25266C1 1.59227 1.28101 1.86763 1.62758 1.86763H3.73611C4.03478 1.86736 4.29225 2.07299 4.35193 2.35961L8.13929 20.919C8.28302 21.6152 8.66742 22.2414 9.22777 22.6917C9.78783 23.1423 10.4897 23.3893 11.2144 23.3913H28.4253C29.1545 23.3904 29.8609 23.1412 30.4229 22.6863C30.9852 22.2311 31.3682 21.5985 31.5066 20.8971L33.9662 8.36508C34.0724 7.82451 33.9257 7.2662 33.5665 6.84289ZM32.7313 8.13432L30.2717 20.6656C30.189 21.0862 29.9596 21.4656 29.6228 21.7388C29.2858 22.0117 28.8624 22.1613 28.4254 22.1619H11.2167C10.7816 22.1608 10.3603 22.0128 10.024 21.7424C9.68754 21.4722 9.45668 21.0964 9.37039 20.6785L6.66117 7.40295H32.1152C32.3023 7.40295 32.48 7.48476 32.599 7.62642C32.7184 7.76781 32.7666 7.95423 32.7313 8.13432ZM13.5517 26.3168C12.7195 26.3168 11.9214 26.6408 11.3327 27.2173C10.7443 27.7941 10.4138 28.5763 10.4138 29.3917C10.4138 30.2071 10.7444 30.9892 11.3327 31.5661C11.9213 32.1426 12.7195 32.4665 13.5517 32.4665C14.3838 32.4665 15.182 32.1426 15.7707 31.5661C16.359 30.9893 16.6896 30.2071 16.6896 29.3917C16.6885 28.5765 16.3576 27.7949 15.7695 27.2184C15.1812 26.6422 14.3835 26.318 13.5517 26.3168ZM13.5517 31.2366C13.0524 31.2366 12.5733 31.0422 12.2203 30.6963C11.8674 30.3504 11.669 29.8809 11.669 29.3917C11.669 28.9025 11.8673 28.433 12.2203 28.0871C12.5734 27.7413 13.0525 27.5468 13.5517 27.5468C14.0509 27.5468 14.5301 27.7412 14.883 28.0871C15.236 28.4331 15.4344 28.9025 15.4344 29.3917C15.4344 29.8809 15.236 30.3504 14.883 30.6963C14.53 31.0422 14.0509 31.2366 13.5517 31.2366ZM26.1033 26.3168C25.2712 26.3168 24.473 26.6408 23.8843 27.2173C23.296 27.7941 22.9654 28.5763 22.9654 29.3917C22.9654 30.2071 23.296 30.9892 23.8843 31.5661C24.473 32.1426 25.2712 32.4665 26.1033 32.4665C26.9354 32.4665 27.7336 32.1426 28.3223 31.5661C28.9107 30.9893 29.2412 30.2071 29.2412 29.3917C29.2401 28.5765 28.9092 27.7949 28.3212 27.2184C27.7328 26.6422 26.9352 26.318 26.1033 26.3168ZM26.1033 31.2366C25.604 31.2366 25.1249 31.0422 24.772 30.6963C24.419 30.3504 24.2206 29.8809 24.2206 29.3917C24.2206 28.9025 24.419 28.433 24.772 28.0871C25.125 27.7413 25.6041 27.5468 26.1033 27.5468C26.6025 27.5468 27.0817 27.7412 27.4346 28.0871C27.7876 28.4331 27.986 28.9025 27.986 29.3917C27.986 29.8809 27.7877 30.3504 27.4346 30.6963C27.0816 31.0422 26.6025 31.2366 26.1033 31.2366Z" stroke="white" mask="url(#path-1-outside-1_90_78263)" />
</svg>