<svg width="23" height="21" viewBox="0 0 23 21" fill="none" xmlns="http://www.w3.org/2000/svg">
	<g clip-path="url(#clip0_1529_357925)">
		<mask id="path-1-outside-1_1529_357925" maskUnits="userSpaceOnUse" x="1.58203" y="0.151611" width="20" height="19" fill="black">
			<rect fill="white" x="1.58203" y="0.151611" width="20" height="19" />
			<path d="M20.6369 4.59304C20.439 4.35719 20.1438 4.22077 19.8322 4.22122H5.5809L5.12191 1.97429C5.07407 1.7427 4.94624 1.53425 4.75985 1.38442C4.57345 1.23444 4.33998 1.15222 4.09893 1.15161H2.92996C2.73783 1.15161 2.58203 1.30433 2.58203 1.49268C2.58203 1.68102 2.73783 1.83374 2.92996 1.83374H4.09893C4.26451 1.83359 4.40726 1.94763 4.44034 2.10659L6.54006 12.3997C6.61974 12.7859 6.83285 13.1332 7.14351 13.3829C7.45401 13.6328 7.84311 13.7698 8.24492 13.7709H17.7866C18.1909 13.7704 18.5825 13.6321 18.8941 13.3799C19.2058 13.1274 19.4182 12.7766 19.4949 12.3876L20.8585 5.43726C20.9174 5.13746 20.8361 4.82781 20.6369 4.59304ZM20.1739 5.30928L18.8103 12.2592C18.7644 12.4925 18.6372 12.7029 18.4505 12.8544C18.2637 13.0058 18.029 13.0887 17.7867 13.089H8.24619C8.00496 13.0884 7.77137 13.0064 7.58496 12.8564C7.39841 12.7066 7.27042 12.4981 7.22258 12.2664L5.72059 4.90366H19.8323C19.9361 4.90366 20.0345 4.94903 20.1006 5.0276C20.1667 5.10601 20.1934 5.2094 20.1739 5.30928ZM9.54069 15.3934C9.07935 15.3934 8.63686 15.5731 8.31048 15.8928C7.98429 16.2127 7.80103 16.6465 7.80103 17.0987C7.80103 17.551 7.98431 17.9847 8.31048 18.3046C8.63682 18.6244 9.07935 18.804 9.54069 18.804C10.002 18.804 10.4445 18.6244 10.7709 18.3046C11.0971 17.9847 11.2803 17.551 11.2803 17.0987C11.2797 16.6466 11.0963 16.2132 10.7703 15.8934C10.4441 15.5738 10.0019 15.394 9.54069 15.3934ZM9.54069 18.1219C9.2639 18.1219 8.99827 18.0141 8.80259 17.8223C8.60692 17.6304 8.49691 17.37 8.49691 17.0987C8.49691 16.8274 8.60688 16.567 8.80259 16.3752C8.99831 16.1834 9.26393 16.0756 9.54069 16.0756C9.81744 16.0756 10.0831 16.1834 10.2788 16.3752C10.4745 16.5671 10.5845 16.8274 10.5845 17.0987C10.5845 17.37 10.4745 17.6305 10.2788 17.8223C10.0831 18.0141 9.81744 18.1219 9.54069 18.1219ZM16.4993 15.3934C16.038 15.3934 15.5955 15.5731 15.2691 15.8928C14.9429 16.2127 14.7597 16.6465 14.7597 17.0987C14.7597 17.551 14.9429 17.9847 15.2691 18.3046C15.5955 18.6244 16.038 18.804 16.4993 18.804C16.9607 18.804 17.4031 18.6244 17.7295 18.3046C18.0557 17.9847 18.239 17.551 18.239 17.0987C18.2384 16.6466 18.0549 16.2132 17.7289 15.8934C17.4027 15.5738 16.9605 15.394 16.4993 15.3934ZM16.4993 18.1219C16.2225 18.1219 15.9569 18.0141 15.7612 17.8223C15.5656 17.6304 15.4555 17.37 15.4555 17.0987C15.4555 16.8274 15.5655 16.567 15.7612 16.3752C15.9569 16.1834 16.2226 16.0756 16.4993 16.0756C16.7761 16.0756 17.0417 16.1834 17.2374 16.3752C17.4331 16.5671 17.5431 16.8274 17.5431 17.0987C17.5431 17.37 17.4331 17.6305 17.2374 17.8223C17.0417 18.0141 16.7761 18.1219 16.4993 18.1219Z" />
		</mask>
		<path d="M20.6369 4.59304C20.439 4.35719 20.1438 4.22077 19.8322 4.22122H5.5809L5.12191 1.97429C5.07407 1.7427 4.94624 1.53425 4.75985 1.38442C4.57345 1.23444 4.33998 1.15222 4.09893 1.15161H2.92996C2.73783 1.15161 2.58203 1.30433 2.58203 1.49268C2.58203 1.68102 2.73783 1.83374 2.92996 1.83374H4.09893C4.26451 1.83359 4.40726 1.94763 4.44034 2.10659L6.54006 12.3997C6.61974 12.7859 6.83285 13.1332 7.14351 13.3829C7.45401 13.6328 7.84311 13.7698 8.24492 13.7709H17.7866C18.1909 13.7704 18.5825 13.6321 18.8941 13.3799C19.2058 13.1274 19.4182 12.7766 19.4949 12.3876L20.8585 5.43726C20.9174 5.13746 20.8361 4.82781 20.6369 4.59304ZM20.1739 5.30928L18.8103 12.2592C18.7644 12.4925 18.6372 12.7029 18.4505 12.8544C18.2637 13.0058 18.029 13.0887 17.7867 13.089H8.24619C8.00496 13.0884 7.77137 13.0064 7.58496 12.8564C7.39841 12.7066 7.27042 12.4981 7.22258 12.2664L5.72059 4.90366H19.8323C19.9361 4.90366 20.0345 4.94903 20.1006 5.0276C20.1667 5.10601 20.1934 5.2094 20.1739 5.30928ZM9.54069 15.3934C9.07935 15.3934 8.63686 15.5731 8.31048 15.8928C7.98429 16.2127 7.80103 16.6465 7.80103 17.0987C7.80103 17.551 7.98431 17.9847 8.31048 18.3046C8.63682 18.6244 9.07935 18.804 9.54069 18.804C10.002 18.804 10.4445 18.6244 10.7709 18.3046C11.0971 17.9847 11.2803 17.551 11.2803 17.0987C11.2797 16.6466 11.0963 16.2132 10.7703 15.8934C10.4441 15.5738 10.0019 15.394 9.54069 15.3934ZM9.54069 18.1219C9.2639 18.1219 8.99827 18.0141 8.80259 17.8223C8.60692 17.6304 8.49691 17.37 8.49691 17.0987C8.49691 16.8274 8.60688 16.567 8.80259 16.3752C8.99831 16.1834 9.26393 16.0756 9.54069 16.0756C9.81744 16.0756 10.0831 16.1834 10.2788 16.3752C10.4745 16.5671 10.5845 16.8274 10.5845 17.0987C10.5845 17.37 10.4745 17.6305 10.2788 17.8223C10.0831 18.0141 9.81744 18.1219 9.54069 18.1219ZM16.4993 15.3934C16.038 15.3934 15.5955 15.5731 15.2691 15.8928C14.9429 16.2127 14.7597 16.6465 14.7597 17.0987C14.7597 17.551 14.9429 17.9847 15.2691 18.3046C15.5955 18.6244 16.038 18.804 16.4993 18.804C16.9607 18.804 17.4031 18.6244 17.7295 18.3046C18.0557 17.9847 18.239 17.551 18.239 17.0987C18.2384 16.6466 18.0549 16.2132 17.7289 15.8934C17.4027 15.5738 16.9605 15.394 16.4993 15.3934ZM16.4993 18.1219C16.2225 18.1219 15.9569 18.0141 15.7612 17.8223C15.5656 17.6304 15.4555 17.37 15.4555 17.0987C15.4555 16.8274 15.5655 16.567 15.7612 16.3752C15.9569 16.1834 16.2226 16.0756 16.4993 16.0756C16.7761 16.0756 17.0417 16.1834 17.2374 16.3752C17.4331 16.5671 17.5431 16.8274 17.5431 17.0987C17.5431 17.37 17.4331 17.6305 17.2374 17.8223C17.0417 18.0141 16.7761 18.1219 16.4993 18.1219Z" fill="#959699" />
		<path d="M20.6369 4.59304C20.439 4.35719 20.1438 4.22077 19.8322 4.22122H5.5809L5.12191 1.97429C5.07407 1.7427 4.94624 1.53425 4.75985 1.38442C4.57345 1.23444 4.33998 1.15222 4.09893 1.15161H2.92996C2.73783 1.15161 2.58203 1.30433 2.58203 1.49268C2.58203 1.68102 2.73783 1.83374 2.92996 1.83374H4.09893C4.26451 1.83359 4.40726 1.94763 4.44034 2.10659L6.54006 12.3997C6.61974 12.7859 6.83285 13.1332 7.14351 13.3829C7.45401 13.6328 7.84311 13.7698 8.24492 13.7709H17.7866C18.1909 13.7704 18.5825 13.6321 18.8941 13.3799C19.2058 13.1274 19.4182 12.7766 19.4949 12.3876L20.8585 5.43726C20.9174 5.13746 20.8361 4.82781 20.6369 4.59304ZM20.1739 5.30928L18.8103 12.2592C18.7644 12.4925 18.6372 12.7029 18.4505 12.8544C18.2637 13.0058 18.029 13.0887 17.7867 13.089H8.24619C8.00496 13.0884 7.77137 13.0064 7.58496 12.8564C7.39841 12.7066 7.27042 12.4981 7.22258 12.2664L5.72059 4.90366H19.8323C19.9361 4.90366 20.0345 4.94903 20.1006 5.0276C20.1667 5.10601 20.1934 5.2094 20.1739 5.30928ZM9.54069 15.3934C9.07935 15.3934 8.63686 15.5731 8.31048 15.8928C7.98429 16.2127 7.80103 16.6465 7.80103 17.0987C7.80103 17.551 7.98431 17.9847 8.31048 18.3046C8.63682 18.6244 9.07935 18.804 9.54069 18.804C10.002 18.804 10.4445 18.6244 10.7709 18.3046C11.0971 17.9847 11.2803 17.551 11.2803 17.0987C11.2797 16.6466 11.0963 16.2132 10.7703 15.8934C10.4441 15.5738 10.0019 15.394 9.54069 15.3934ZM9.54069 18.1219C9.2639 18.1219 8.99827 18.0141 8.80259 17.8223C8.60692 17.6304 8.49691 17.37 8.49691 17.0987C8.49691 16.8274 8.60688 16.567 8.80259 16.3752C8.99831 16.1834 9.26393 16.0756 9.54069 16.0756C9.81744 16.0756 10.0831 16.1834 10.2788 16.3752C10.4745 16.5671 10.5845 16.8274 10.5845 17.0987C10.5845 17.37 10.4745 17.6305 10.2788 17.8223C10.0831 18.0141 9.81744 18.1219 9.54069 18.1219ZM16.4993 15.3934C16.038 15.3934 15.5955 15.5731 15.2691 15.8928C14.9429 16.2127 14.7597 16.6465 14.7597 17.0987C14.7597 17.551 14.9429 17.9847 15.2691 18.3046C15.5955 18.6244 16.038 18.804 16.4993 18.804C16.9607 18.804 17.4031 18.6244 17.7295 18.3046C18.0557 17.9847 18.239 17.551 18.239 17.0987C18.2384 16.6466 18.0549 16.2132 17.7289 15.8934C17.4027 15.5738 16.9605 15.394 16.4993 15.3934ZM16.4993 18.1219C16.2225 18.1219 15.9569 18.0141 15.7612 17.8223C15.5656 17.6304 15.4555 17.37 15.4555 17.0987C15.4555 16.8274 15.5655 16.567 15.7612 16.3752C15.9569 16.1834 16.2226 16.0756 16.4993 16.0756C16.7761 16.0756 17.0417 16.1834 17.2374 16.3752C17.4331 16.5671 17.5431 16.8274 17.5431 17.0987C17.5431 17.37 17.4331 17.6305 17.2374 17.8223C17.0417 18.0141 16.7761 18.1219 16.4993 18.1219Z" stroke="#959699" stroke-width="0.4" mask="url(#path-1-outside-1_1529_357925)" />
	</g>
	<defs>
		<clipPath id="clip0_1529_357925">
			<rect width="21.6216" height="19.4112" fill="white" transform="translate(0.917969 0.706299)" />
		</clipPath>
	</defs>
</svg>