<svg width="81" height="75" viewBox="0 0 81 75" fill="none" xmlns="http://www.w3.org/2000/svg">
	<path d="M36.2889 35.0615H32.6493L29.3933 30.1571H28.6262V35.0615H25.5742V22.9106H28.6262V27.864C29.105 27.8422 29.4613 27.7361 29.6952 27.5457C29.9346 27.3553 30.2175 26.9364 30.5439 26.289C30.6364 26.0986 30.7425 25.8728 30.8622 25.6117C30.9873 25.3505 31.0961 25.1221 31.1886 24.9262C31.5422 24.1918 31.972 23.6695 32.478 23.3594C32.9894 23.0438 33.6612 22.8861 34.4936 22.8861C34.7656 22.8861 34.9914 22.8915 35.1709 22.9024C35.3505 22.9078 35.4892 22.9106 35.5871 22.9106V25.5138H34.8853C34.5371 25.5138 34.2325 25.6226 33.9713 25.8402C33.7156 26.0523 33.4545 26.4794 33.1879 27.1214C32.9758 27.6328 32.7745 28.0217 32.584 28.2883C32.3991 28.5495 32.225 28.7263 32.0618 28.8188L36.2889 35.0615ZM46.6282 28.8106C46.6282 30.8562 46.0815 32.4502 44.988 33.5926C43.8999 34.7297 42.4256 35.2982 40.565 35.2982C39.6946 35.2982 38.8867 35.1867 38.1413 34.9636C37.4015 34.7405 36.8465 34.5393 36.4766 34.3597V31.6096H36.7622C36.8656 31.7021 37.0397 31.8463 37.2845 32.0421C37.5347 32.2326 37.7796 32.3903 38.0189 32.5155C38.3345 32.6787 38.6718 32.8119 39.0308 32.9153C39.3953 33.0187 39.7952 33.0704 40.2304 33.0704C40.5732 33.0704 40.9322 33.0214 41.3076 32.9235C41.683 32.8256 42.0285 32.6542 42.344 32.4094C42.6704 32.1537 42.9451 31.8273 43.1682 31.4301C43.3967 31.033 43.5409 30.5134 43.6007 29.8715H38.7615V27.5539H43.5354C43.4538 27.0751 43.3124 26.6698 43.1111 26.338C42.9098 26.0007 42.6595 25.7232 42.3603 25.5056C42.0665 25.2934 41.751 25.1411 41.4137 25.0486C41.0818 24.9507 40.7418 24.9017 40.3936 24.9017C39.9747 24.9017 39.5885 24.9561 39.2348 25.0649C38.8867 25.1683 38.5575 25.3016 38.2474 25.4648C37.9482 25.628 37.6898 25.7994 37.4722 25.9789C37.2546 26.153 37.0832 26.2917 36.9581 26.3951H36.6398V23.6205C37.1621 23.3648 37.7714 23.1445 38.4678 22.9595C39.1641 22.7691 39.9339 22.6739 40.7772 22.6739C42.5616 22.6739 43.9815 23.2261 45.037 24.3305C46.0978 25.4294 46.6282 26.9228 46.6282 28.8106ZM64.1325 35.0615H48.4399V22.9106H51.4837V32.7684H54.7643V22.9106H57.8081V32.7684H61.0886V22.9106H64.1325V35.0615Z" fill="#231F20" />
	<path d="M37.7353 48.955C37.7353 49.548 37.6211 50.0947 37.3926 50.5952C37.1695 51.0903 36.8621 51.4956 36.4704 51.8111C36.0026 52.1865 35.4966 52.4531 34.9526 52.6109C34.414 52.7632 33.7557 52.8394 32.9778 52.8394H27.9835V40.6884H36.8132V43.006H31.0192V45.2501H33.0267C33.7557 45.2501 34.4086 45.3045 34.9852 45.4133C35.5619 45.5167 36.0787 45.7479 36.5357 46.107C36.9546 46.4334 37.2593 46.8441 37.4497 47.3392C37.6401 47.8288 37.7353 48.3674 37.7353 48.955ZM34.5854 49.0447C34.5854 48.8434 34.5636 48.653 34.5201 48.4735C34.4766 48.294 34.3814 48.128 34.2345 47.9757C34.0876 47.8288 33.8863 47.7118 33.6306 47.6248C33.3749 47.5378 33.0213 47.4942 32.5697 47.4942H31.0192V50.5871H32.5697C33.1954 50.5871 33.6877 50.4538 34.0468 50.1872C34.4058 49.9206 34.5854 49.5398 34.5854 49.0447ZM48.8091 46.5884C48.8091 48.634 48.2623 50.228 47.1688 51.3705C46.0808 52.5075 44.6064 53.076 42.7459 53.076C41.8754 53.076 41.0675 52.9645 40.3222 52.7414C39.5823 52.5184 39.0274 52.3171 38.6575 52.1376V49.3875H38.9431C39.0464 49.48 39.2205 49.6241 39.4653 49.82C39.7156 50.0104 39.9604 50.1682 40.1998 50.2933C40.5153 50.4565 40.8526 50.5898 41.2117 50.6931C41.5762 50.7965 41.976 50.8482 42.4113 50.8482C42.754 50.8482 43.1131 50.7992 43.4885 50.7013C43.8638 50.6034 44.2093 50.432 44.5248 50.1872C44.8513 49.9315 45.126 49.6051 45.3491 49.2079C45.5775 48.8108 45.7217 48.2912 45.7816 47.6493H40.9424V45.3317H45.7163C45.6347 44.853 45.4932 44.4477 45.2919 44.1158C45.0906 43.7785 44.8404 43.501 44.5412 43.2834C44.2474 43.0713 43.9318 42.9189 43.5945 42.8264C43.2627 42.7285 42.9227 42.6795 42.5745 42.6795C42.1556 42.6795 41.7693 42.734 41.4157 42.8428C41.0675 42.9461 40.7384 43.0794 40.4283 43.2426C40.1291 43.4058 39.8706 43.5772 39.653 43.7567C39.4354 43.9308 39.264 44.0696 39.1389 44.1729H38.8207V41.3984C39.3429 41.1427 39.9522 40.9223 40.6486 40.7374C41.345 40.5469 42.1148 40.4517 42.958 40.4517C44.7425 40.4517 46.1624 41.0039 47.2178 42.1083C48.2787 43.2073 48.8091 44.7006 48.8091 46.5884ZM61.3354 52.8394H57.6959L54.4398 47.9349H53.6727V52.8394H50.6207V40.6884H53.6727V45.6418C54.1515 45.62 54.5078 45.514 54.7418 45.3235C54.9811 45.1331 55.264 44.7142 55.5905 44.0668C55.6829 43.8764 55.789 43.6506 55.9087 43.3895C56.0338 43.1284 56.1427 42.8999 56.2351 42.704C56.5888 41.9696 57.0185 41.4473 57.5245 41.1372C58.0359 40.8217 58.7078 40.6639 59.5401 40.6639C59.8122 40.6639 60.0379 40.6693 60.2175 40.6802C60.397 40.6857 60.5357 40.6884 60.6336 40.6884V43.2916H59.9318C59.5837 43.2916 59.279 43.4004 59.0179 43.618C58.7622 43.8302 58.501 44.2572 58.2345 44.8992C58.0223 45.4106 57.821 45.7996 57.6306 46.0662C57.4456 46.3273 57.2715 46.5041 57.1083 46.5966L61.3354 52.8394Z" fill="#231F20" />
	<path fill-rule="evenodd" clip-rule="evenodd" d="M43.912 74.2416C64.3915 74.2416 80.9933 57.6398 80.9933 37.1604C80.9933 16.6809 64.3915 0.0791016 43.912 0.0791016C34.0364 0.0791016 25.0624 3.93968 18.417 10.234C24.4789 5.19692 32.2689 2.16802 40.7664 2.16802C60.0921 2.16802 75.7586 17.8345 75.7586 37.1602C75.7586 56.4858 60.0921 72.1524 40.7664 72.1524C32.2675 72.1524 24.4763 69.1225 18.4141 64.0839C25.0598 70.3799 34.0349 74.2416 43.912 74.2416Z" fill="#F58220" />
	<path fill-rule="evenodd" clip-rule="evenodd" d="M43.9172 74.2416C64.3966 74.2416 80.9984 57.6398 80.9984 37.1604C80.9984 16.6809 64.3966 0.0791016 43.9172 0.0791016C39.9034 0.0791016 36.0385 0.71683 32.4184 1.89649C34.7766 1.8588 37.1838 1.94695 39.524 2.03265C41.3923 2.10107 43.2179 2.16792 44.9417 2.16792C61.9598 2.16792 75.7557 16.6653 75.7557 34.5487C75.7557 52.4322 61.9598 66.9295 44.9417 66.9295C27.9236 66.9295 16.7399 52.4322 16.7399 34.5487C16.7399 33.5134 14.142 33.5059 11.3624 33.4978C9.84171 33.4934 8.26665 33.4888 7.03284 33.3157C6.90265 34.5795 6.83594 35.8621 6.83594 37.1604C6.83594 57.6398 23.4378 74.2416 43.9172 74.2416Z" fill="#F58220" />
	<path d="M13.8583 19.7487L21.6309 37.5453L0.922547 34.2332L13.8583 19.7487Z" fill="#F58220" />
</svg>