<svg width="42" height="42" viewBox="0 0 42 42" fill="none" xmlns="http://www.w3.org/2000/svg">
	<path d="M6.72021 40.839L10.9202 38.739L14.2802 40.419L17.6402 38.739L21.0002 40.419L24.3602 38.739L27.7202 40.419L31.0802 38.739L35.2802 40.839V0.839844H6.72021V40.839ZM8.40021 2.51984H33.6002V38.1207L31.0802 36.8607L27.7202 38.5407L24.3602 36.8607L21.0002 38.5407L17.6402 36.8607L14.2802 38.5407L10.9202 36.8607L8.40021 38.1207V2.51984Z" fill="#231F20" />
	<path d="M21.0003 13.4391C23.3162 13.4391 25.2003 11.5549 25.2003 9.23906C25.2003 6.92318 23.3162 5.03906 21.0003 5.03906C18.6844 5.03906 16.8003 6.92318 16.8003 9.23906C16.8003 11.5549 18.6844 13.4391 21.0003 13.4391ZM21.0003 6.71906C22.3897 6.71906 23.5203 7.8497 23.5203 9.23906C23.5203 10.6284 22.3897 11.7591 21.0003 11.7591C19.6109 11.7591 18.4803 10.6284 18.4803 9.23906C18.4803 7.8497 19.6109 6.71906 21.0003 6.71906Z" fill="#231F20" />
	<path d="M21.8403 18.4805H11.7603V20.1605H21.8403V18.4805Z" fill="#231F20" />
	<path d="M30.2404 18.4805H26.8804V20.1605H30.2404V18.4805Z" fill="#231F20" />
	<path d="M21.8403 22.6797H11.7603V24.3597H21.8403V22.6797Z" fill="#231F20" />
	<path d="M30.2404 22.6797H26.8804V24.3597H30.2404V22.6797Z" fill="#231F20" />
	<path d="M21.8403 26.8789H11.7603V28.5589H21.8403V26.8789Z" fill="#231F20" />
	<path d="M30.2404 26.8789H26.8804V28.5589H30.2404V26.8789Z" fill="#231F20" />
	<path d="M21.8403 31.0781H11.7603V32.7581H21.8403V31.0781Z" fill="#231F20" />
	<path d="M30.2404 31.0781H26.8804V32.7581H30.2404V31.0781Z" fill="#231F20" />
</svg>