<svg width="334" height="286" viewBox="0 0 334 286" fill="none" xmlns="http://www.w3.org/2000/svg">
	<path d="M121.798 172.334L109.184 159.72L79.751 189.153C76.246 192.658 76.246 198.263 79.751 201.767L109.184 231.2L121.798 218.586L107.431 204.221H155.086V186.352L107.431 186.349L121.798 172.334Z" fill="#D7D7D7" />
	<path d="M190.302 150.434L202.916 137.82L173.483 108.387C169.978 104.882 164.373 104.882 160.869 108.387L131.436 137.82L144.05 150.434L158.415 136.067L158.415 183.722L176.284 183.722L176.287 136.067L190.302 150.434Z" fill="#D7D7D7" />
	<path d="M224.816 159.72L212.202 172.334L226.569 186.701H178.914V204.571H226.569L212.202 218.938L224.816 231.553L254.249 202.12C257.754 198.615 257.754 193.01 254.249 189.505L224.816 159.72Z" fill="#D7D7D7" />
	<path d="M202.916 253.452L190.302 240.838L175.935 255.205L175.935 207.55L158.065 207.55L158.065 255.205L143.698 240.838L131.083 253.452L160.516 282.885C164.021 286.39 169.626 286.39 173.131 282.885L202.916 253.452Z" fill="#D7D7D7" />
	<path d="M331.338 112.766L169.803 1.33916C168.051 0.28815 165.949 0.28815 164.196 1.33916L2.66181 112.766C0.559783 114.167 -0.141707 117.322 1.26127 119.774L7.9195 129.235C8.62099 130.286 9.672 130.988 11.0725 131.337C12.4731 131.687 13.5265 131.337 14.9271 130.636L39.8067 113.465V279.205C39.8067 282.008 41.9087 284.11 44.7122 284.11H56.2754C59.0789 284.11 61.1809 282.008 61.1809 279.205L61.1784 102.953C61.1784 100.15 62.579 97.3465 65.0329 95.9461L162.094 29.0197C163.494 27.9687 165.247 27.6192 166.999 27.6192C168.752 27.6192 170.504 27.9687 171.905 29.0197L268.966 95.9461C271.419 97.6986 272.82 100.15 272.82 102.953V279.205C272.82 282.008 274.922 284.11 277.726 284.11H289.289C292.092 284.11 294.194 282.008 294.194 279.205V113.115L319.074 130.285C320.125 130.987 321.528 131.336 322.928 130.987C324.329 130.637 325.382 129.936 326.081 128.885L332.74 119.423C333.441 118.372 333.791 116.969 333.441 115.569C333.089 114.518 332.388 113.464 331.337 112.765L331.338 112.766Z" fill="#D7D7D7" />
</svg>