<svg width="172" height="136" viewBox="0 0 172 136" fill="none" xmlns="http://www.w3.org/2000/svg">
	<g clip-path="url(#clip0_1758_432413)">
		<path fill-rule="evenodd" clip-rule="evenodd" d="M56.0397 40.8365C27.1177 50.9633 5.44655 76.1276 0.718908 106.766H0.427246C4.5173 74.5404 26.6158 48.1348 56.0397 37.6146V40.8365ZM105.683 35.417C138.628 43.9837 164.023 71.9901 168.431 106.772H168.14C163.032 73.6586 138.132 46.9478 105.677 38.6863V35.417H105.683Z" fill="#EE761C" />
		<path fill-rule="evenodd" clip-rule="evenodd" d="M107.101 43.9168V32.5827H115.6L95.7672 15.5781L84.4331 25.4946L88.5096 28.2146L95.7672 22.6662L102.849 28.3299V39.664L107.101 43.9168Z" fill="#C95621" />
		<path fill-rule="evenodd" clip-rule="evenodd" d="M100.013 60.914V56.6611H102.848V60.914H100.013ZM100.013 50.9975H102.848V55.2503H100.013V50.9975ZM95.7599 56.6611H98.5952V60.914H95.7599V56.6611ZM95.7599 50.9975H98.5952V55.2503H95.7599V50.9975ZM98.5952 33.9997H87.261V46.7514L83.0082 49.5866V29.7536H84.4258L71.1586 16.4118L57.5115 29.7536H58.9291L58.9359 60.7376L54.6763 60.9208V33.9997H44.7598L70.8466 10.565V9.81886H70.4464V9.61537C71.0229 9.58824 70.8873 9.30336 70.6566 8.90317C70.3921 8.44872 70.2293 7.8654 69.9377 7.49234C69.5578 7.00398 69.2458 6.93615 68.7778 6.17647C67.9232 4.80634 69.5578 3.68717 69.1916 2.30347C69.022 2.66296 68.7371 2.56122 68.5065 2.39843C68.2352 2.20851 68.147 2.04572 68.3437 1.84224C68.4251 1.76084 68.4997 1.67267 68.5268 1.55736C68.4454 1.53023 68.3776 1.48953 68.3166 1.43527C68.398 1.41492 68.4929 1.37422 68.5472 1.32674C68.4522 1.20465 68.303 1.16395 68.147 1.1436C68.1809 1.03508 68.2623 0.987599 68.3573 0.953685C68.3233 0.892639 68.2352 0.777331 68.2148 0.65524C68.1945 0.533149 68.242 0.458538 68.3166 0.411058C68.3505 0.350012 68.3776 0.275401 68.398 0.207572C68.5404 0.20079 68.6354 0.15331 68.7303 0.0719157C68.8321 0.0854814 68.9813 0.207572 69.0966 0.146527C69.2119 0.0922642 69.2797 -0.104438 69.4764 0.0719157C69.6935 0.261835 69.6257 0.736634 69.49 0.953685C70.2497 1.1843 70.5413 1.65232 70.7245 2.53409C70.8873 3.32768 70.8262 4.29762 71.8029 4.56216C72.2438 4.68425 72.6915 4.1484 72.9628 3.82283C73.4512 3.24628 74.1634 2.43234 74.9502 2.03894C76.4288 1.29283 77.5344 2.56122 77.0936 3.40907C76.6866 2.28312 75.4792 1.93041 74.3601 3.36838C75.0587 2.81218 76.5374 2.62905 76.517 3.78213C75.9812 3.24628 75.0112 3.23272 74.4143 3.97883C74.957 3.83639 75.7641 3.72108 75.8523 4.35867C75.4318 4.1484 74.9298 4.20266 74.3262 4.43328C74.7535 4.52824 75.4521 4.79277 75.1876 5.45071C75.0519 5.15226 74.7128 4.98269 74.4076 4.96913C74.6178 5.27435 74.7603 5.58636 74.5432 6.02725C74.4822 5.78985 74.3736 5.55245 74.1973 5.44392C74.1566 5.48462 74.1498 5.53888 74.1566 5.59993C74.2176 5.99333 74.2041 6.64449 73.8514 6.88867C73.9056 6.61736 73.8988 6.35961 73.8514 6.12221C73.8107 6.49526 73.675 6.86154 73.4444 7.07181C73.5054 6.79371 73.5394 6.46135 73.4173 6.22395C73.4308 6.48848 73.4037 6.84797 73.2341 7.05146C73.2341 6.92937 73.1934 6.80727 73.1324 6.73945C72.9696 7.08537 72.6508 7.37703 72.2981 7.62122C72.1353 7.73652 71.8979 7.96036 71.7758 8.19776C71.6469 8.46229 71.1179 9.60859 71.8097 9.63572V9.80529H71.4163V10.5175L98.5816 33.9861L98.5952 33.9997ZM71.0433 9.18805C71.1518 9.54076 71.0772 9.77816 71.3824 8.59794C71.5452 7.98071 70.6092 7.74331 71.0433 9.18805Z" fill="#90241F" />
		<path fill-rule="evenodd" clip-rule="evenodd" d="M114.182 56.6603V60.9132H109.929V52.4143H112.765L98.5954 39.6626L84.426 52.4143H87.2612V60.9132H83.0084V56.6603H73.0919L98.5954 33.9921L124.099 56.6603H114.182ZM71.6811 35.4097H74.5163V39.6626H71.6811V35.4097ZM71.6811 29.7393H74.5163V33.9921H71.6811V29.7393ZM67.4282 35.4097H70.2634V39.6626H67.4282V35.4097ZM67.4282 29.7393H70.2634V33.9921H67.4282V29.7393Z" fill="#EE761C" />
		<path fill-rule="evenodd" clip-rule="evenodd" d="M125.788 93.4176C126.215 94.6589 126.812 95.5949 127.578 96.2325H118.537C119.012 95.7034 119.473 95.0048 119.927 94.1298V89.9787C118.55 90.0397 117.153 91.3488 115.607 93.8178C113.185 97.6772 109.434 97.996 106.545 94.6046C109.034 92.8207 109.841 90.3043 112.676 88.6153C108.315 87.1231 107.243 80.8829 110.655 78.0409C114.067 75.1921 120.904 76.7929 124.343 76.7929H127.409C126.683 77.4304 126.14 78.4275 125.781 79.7909V93.4312L125.788 93.4176ZM119.934 80.2928C118.401 80.0554 114.264 79.4789 114.433 83.4875C114.569 86.7297 117.92 86.1871 119.934 86.0379V80.2928ZM96.0924 97.0735C89.8793 97.0735 84.8465 92.3934 84.8465 86.6144C84.8465 80.8354 89.8793 76.1553 96.0924 76.1553C102.306 76.1553 107.338 80.8354 107.338 86.6144C107.338 92.3934 102.299 97.0735 96.0924 97.0735ZM96.0246 80.1504C93.4743 80.1504 91.3987 83.0127 91.3987 86.5398C91.3987 90.0669 93.4675 92.9292 96.0246 92.9292C98.5817 92.9292 100.65 90.0669 100.65 86.5398C100.65 83.0127 98.5817 80.1504 96.0246 80.1504ZM81.6111 94.7742C77.7855 97.6976 71.3351 96.2393 66.9127 96.2393H63.7315C64.5387 95.4728 65.1084 94.5029 65.4272 93.3226V79.6552C65.183 78.5021 64.7421 77.5458 64.1046 76.7929H67.1365C73.2953 76.7929 78.3553 75.2396 80.9328 77.9934C82.893 80.0825 82.6488 83.691 80.363 85.0747C84.7244 86.2888 85.0974 92.1153 81.6111 94.7809V94.7742ZM71.2808 80.1775V84.4371C73.3496 84.5456 76.7885 84.9458 76.9309 82.5447C77.1005 79.5738 72.8612 80.0011 71.2808 80.1775ZM71.2808 88.1677V92.4205C73.2139 92.7732 77.6974 93.3091 77.9076 90.5824C78.145 87.4487 73.3089 88.1202 71.2808 88.1609V88.1677ZM56.6367 80.6794V93.8178C57.0165 94.6656 57.6541 95.4728 58.5426 96.2325H48.8771C49.7656 95.4728 50.3964 94.6656 50.7831 93.8178V80.6794C48.2327 80.5031 46.4963 80.9236 45.5806 81.941C44.9634 81.2628 44.5293 79.5467 44.2783 76.7929H63.1482C62.8972 79.5467 62.4699 81.2695 61.8459 81.941C60.9234 80.9236 59.187 80.5031 56.6434 80.6794H56.6367Z" fill="#EE761C" />
		<path fill-rule="evenodd" clip-rule="evenodd" d="M169.883 129.841C170.27 130.817 170.934 131.591 171.857 131.984H162.069C162.449 130.702 162.164 129.284 161.215 127.724H152.695C151.657 129.678 151.23 131.095 151.42 131.984H143.633C144.427 131.597 145.2 131.055 145.58 130.119L152.343 113.433C152.892 112.076 152.587 110.889 151.97 110.089H163.711C163.182 111.079 162.924 112.219 163.365 113.331L169.89 129.834L169.883 129.841ZM157.063 114.532L154.025 123.349H160.041L157.057 114.532H157.063ZM144.366 124.828C144.352 125.364 144.291 125.859 144.196 126.32C142.507 134.094 129.091 131.977 124.797 131.977H121.284C122.111 131.265 122.735 130.139 123.149 128.606V113.25C122.661 111.853 121.976 110.801 121.094 110.082H143.274C142.684 113.006 142.27 114.389 141.47 115.386C139.971 113.365 133.886 113.806 129.857 113.989V118.072C134.924 118.032 144.569 116.39 144.366 124.821V124.828ZM129.857 127.351C131.614 127.623 137.495 128.532 137.278 124.442C137.102 121.091 132.164 122.054 129.857 122.217V127.351ZM110.587 132.371C107.121 132.533 103.37 131.977 100.996 131.977H97.483C98.3105 131.265 98.9345 130.139 99.3482 128.606V113.25C98.8599 111.853 98.1748 110.801 97.293 110.082H107.65C107.108 110.679 106.579 111.466 106.056 112.449V116.648C119.588 114.328 120.992 121.213 120.857 124.123C120.572 130.187 114.603 132.167 110.581 132.357L110.587 132.371ZM106.063 120.704V127.168C107.82 127.44 113.904 128.532 113.748 123.573C113.633 119.748 108.369 120.535 106.063 120.697V120.704ZM91.8396 135.999V131.502H75.0657V134.107C74.3806 135.281 72.7595 135.918 70.1888 135.999V131.984H60.5979C60.9777 130.702 60.6928 129.284 59.7432 127.724H51.224C50.1862 129.678 49.7589 131.095 49.9488 131.984H42.1621C42.9557 131.597 43.729 131.055 44.1088 130.119L50.8713 113.433C51.4207 112.076 51.1155 110.889 50.4982 110.089H62.2393C61.7103 111.079 61.4525 112.219 61.8934 113.331L68.4185 129.834C68.778 130.736 69.3749 131.469 70.1888 131.882V126.897H72.4204L77.8806 113.426C78.43 112.07 78.1247 110.883 77.5075 110.082H89.2486C88.7195 111.073 88.4618 112.212 88.9027 113.324L94.2679 126.89H96.7165V134.094C96.0314 135.267 94.4103 135.905 91.8464 135.986L91.8396 135.999ZM55.5921 114.532L52.5534 123.349H58.5698L55.5854 114.532H55.5921ZM82.6014 114.532L78.3418 126.904H86.7864L82.6014 114.532ZM30.5499 116.024C28.3997 118.391 28.2641 122.732 30.0683 125.479C32.4762 129.142 38.4383 128.382 41.7823 125.222V129.786C39.605 131.726 36.7019 132.913 33.5072 132.913C26.7719 132.913 21.3117 127.643 21.3117 121.138C21.3117 114.634 26.7719 109.363 33.5072 109.363C37.3667 109.363 40.8056 111.093 43.0439 113.792L39.1505 118.235C38.0178 113.65 33.3444 112.945 30.5499 116.017V116.024ZM15.1325 127.094C13.8777 130.329 11.3545 132.405 8.36324 132.615C6.70145 132.73 4.89721 132.276 2.93019 130.811L3.12689 125.188C4.67338 127.785 7.86131 129.529 9.84868 126.504L2.39434 112.836C1.81102 111.764 1.07169 110.815 0 110.089H9.58415C9.14327 110.889 8.8516 111.866 9.29249 112.748L12.6229 119.476L15.2953 112.266C15.5259 111.636 15.4038 110.591 15.0783 110.096H23.238C22.0239 110.835 21.02 111.853 20.4706 113.277L15.1257 127.1L15.1325 127.094Z" fill="#90241F" />
	</g>
	<defs>
		<clipPath id="clip0_1758_432413">
			<rect width="172" height="136" fill="white" />
		</clipPath>
	</defs>
</svg>