<svg width="64" height="64" viewBox="0 0 64 64" fill="none" xmlns="http://www.w3.org/2000/svg">
	<g clip-path="url(#clip0_1529_449813)">
		<path d="M54.629 9.37275C48.836 3.58013 40.8302 0 32.0088 0C23.1698 0 15.163 3.58013 9.37088 9.37275C3.59563 15.1674 0 23.1759 0 31.9996C0 40.8418 3.59563 48.8325 9.37088 54.6271C15.163 60.4204 23.1698 64 32.0088 64C40.8301 64 48.836 60.4204 54.629 54.6271C60.4038 48.8325 64 40.8418 64 31.9996C64 23.1759 60.4038 15.1674 54.629 9.37275Z" fill="#999999" />
		<path fill-rule="evenodd" clip-rule="evenodd" d="M34.6127 21.0137C33.9046 20.9241 33.0011 20.6231 32.8418 21.5622C32.6648 22.5366 33.6739 22.4664 34.3294 22.6078C38.7937 23.5828 40.3169 25.1763 41.0609 29.5011C41.0956 29.6784 41.1143 29.9082 41.1143 30.1031C41.1673 30.6167 41.2912 31.0768 42.0703 30.9361C42.4603 30.8824 42.6019 30.6704 42.6197 30.3694C42.6729 30.1031 42.6197 29.7484 42.6553 29.5011C42.6729 25.3359 39.0414 21.5622 34.6127 21.0137ZM35.0207 24.4329C34.5601 24.4329 34.0992 24.4859 33.9223 24.9826C33.6563 25.6913 34.2059 25.8857 34.7544 25.9741C36.5793 26.2404 37.5361 27.3038 37.7308 29.0752C37.7484 29.3232 37.8374 29.5183 37.9433 29.6786C38.1029 29.8539 38.2976 29.9259 38.5456 29.9083C38.7048 29.9083 38.8288 29.8539 38.9347 29.8016C39.2367 29.5712 39.2893 29.1459 39.2541 28.7028C39.2894 26.7017 36.9866 24.3793 35.0207 24.4329ZM44.2669 38.4657C43.3638 37.7563 42.3714 37.1189 41.4506 36.4632C39.5554 35.1871 37.8194 35.0823 36.4201 37.1542C35.6229 38.3242 34.5064 38.3772 33.3554 37.8628C30.1492 36.4632 27.6869 34.2839 26.2347 31.0768C26.0217 30.5808 25.8804 30.1031 25.8623 29.6601C25.8091 28.8093 26.1633 28.0659 27.1203 27.4096C27.9172 26.8959 28.6963 26.2756 28.6434 25.1238C28.5728 23.6181 24.8523 18.6036 23.3652 18.0538C22.7623 17.8411 22.1601 17.8771 21.5402 18.0538C18.0859 19.2048 16.6689 21.9703 18.0327 25.2474C18.8121 27.0909 19.6448 28.8093 20.6367 30.4212C24.8704 37.5088 31.1053 42.6831 39.1478 46.0669C39.6968 46.2973 40.3169 46.4039 40.6532 46.4747C42.9031 46.5099 45.5242 44.3662 46.2862 42.2747C47.0303 40.2377 45.4719 39.4584 44.2669 38.4657ZM33.1964 19.0649C40.4051 20.1623 43.7177 23.5286 44.6384 30.6346C44.6384 30.7058 44.6384 30.7589 44.6384 30.8107C44.6922 31.4663 44.5684 32.3177 45.4359 32.3177C46.1982 32.3354 46.2334 31.7686 46.2334 31.2189C46.1982 31.0246 46.1982 30.8649 46.1982 30.7059C46.2864 23.9894 40.3171 17.7537 33.4088 17.5403C32.8596 17.6287 31.7966 17.1857 31.7084 18.3374C31.6902 19.1003 32.5936 18.9929 33.1964 19.0649Z" fill="white" />
	</g>
	<defs>
		<clipPath id="clip0_1529_449813">
			<rect width="64" height="64" fill="white" />
		</clipPath>
	</defs>
</svg>