<svg width="18" height="18" viewBox="0 0 18 18" fill="none" xmlns="http://www.w3.org/2000/svg">
	<path d="M9 2.25C7.50816 2.25 6.07742 2.83186 5.02252 3.86757C3.96763 4.90328 3.375 6.30801 3.375 7.77273C3.375 12.6818 9 15.75 9 15.75C9 15.75 14.625 12.6818 14.625 7.77273C14.625 6.30801 14.0324 4.90328 12.9775 3.86757C11.9226 2.83186 10.4918 2.25 9 2.25ZM9 10.2273C8.50555 10.2273 8.0222 10.0833 7.61107 9.81361C7.19995 9.5439 6.87952 9.16055 6.6903 8.71204C6.50108 8.26353 6.45157 7.77 6.54804 7.29387C6.6445 6.81773 6.8826 6.38038 7.23223 6.0371C7.58186 5.69383 8.02732 5.46005 8.51227 5.36535C8.99723 5.27064 9.49989 5.31924 9.95671 5.50502C10.4135 5.6908 10.804 6.00541 11.0787 6.40905C11.3534 6.8127 11.5 7.28726 11.5 7.77273C11.5 8.42371 11.2366 9.04804 10.7678 9.50835C10.2989 9.96867 9.66304 10.2273 9 10.2273Z" fill="#B5B7BA" />
</svg>