<svg width="26" height="25" viewBox="0 0 26 25" fill="none" xmlns="http://www.w3.org/2000/svg">
	<mask id="path-1-inside-1_1458_317398" fill="white">
		<path d="M21.8425 16.0493C20.4813 14.7562 18.8611 13.7989 17.0934 13.2194C18.9866 11.9806 20.2305 9.90739 20.2305 7.5631C20.2305 3.77836 16.9893 0.699219 13.0053 0.699219C9.02141 0.699219 5.78021 3.77836 5.78021 7.5631C5.78021 9.90739 7.02406 11.9806 8.91738 13.2194C7.14967 13.7989 5.52948 14.7562 4.16827 16.0493C2.05144 18.0603 0.787469 20.6656 0.549098 23.4692C0.503414 24.0065 0.944948 24.4445 1.48418 24.4445V24.4445C2.02342 24.4445 2.4553 24.006 2.51009 23.4695C3.02772 18.4016 7.53712 14.427 13.0053 14.427C18.4736 14.427 22.983 18.4016 23.5006 23.4695C23.5554 24.006 23.9873 24.4445 24.5265 24.4445V24.4445C25.0657 24.4445 25.5073 24.0065 25.4616 23.4692C25.2232 20.6656 23.9593 18.0603 21.8425 16.0493ZM13.0053 12.5719C10.0982 12.5719 7.73295 10.325 7.73295 7.5631C7.73295 4.80122 10.0982 2.55432 13.0053 2.55432C15.9125 2.55432 18.2777 4.80122 18.2777 7.5631C18.2777 10.325 15.9125 12.5719 13.0053 12.5719Z" />
	</mask>
	<path d="M21.8425 16.0493C20.4813 14.7562 18.8611 13.7989 17.0934 13.2194C18.9866 11.9806 20.2305 9.90739 20.2305 7.5631C20.2305 3.77836 16.9893 0.699219 13.0053 0.699219C9.02141 0.699219 5.78021 3.77836 5.78021 7.5631C5.78021 9.90739 7.02406 11.9806 8.91738 13.2194C7.14967 13.7989 5.52948 14.7562 4.16827 16.0493C2.05144 18.0603 0.787469 20.6656 0.549098 23.4692C0.503414 24.0065 0.944948 24.4445 1.48418 24.4445V24.4445C2.02342 24.4445 2.4553 24.006 2.51009 23.4695C3.02772 18.4016 7.53712 14.427 13.0053 14.427C18.4736 14.427 22.983 18.4016 23.5006 23.4695C23.5554 24.006 23.9873 24.4445 24.5265 24.4445V24.4445C25.0657 24.4445 25.5073 24.0065 25.4616 23.4692C25.2232 20.6656 23.9593 18.0603 21.8425 16.0493ZM13.0053 12.5719C10.0982 12.5719 7.73295 10.325 7.73295 7.5631C7.73295 4.80122 10.0982 2.55432 13.0053 2.55432C15.9125 2.55432 18.2777 4.80122 18.2777 7.5631C18.2777 10.325 15.9125 12.5719 13.0053 12.5719Z" fill="#F58220" stroke="white" stroke-width="0.4" mask="url(#path-1-inside-1_1458_317398)" />
</svg>