<svg width="26" height="25" viewBox="0 0 26 25" fill="none" xmlns="http://www.w3.org/2000/svg">
	<path d="M17.0386 13.1357L16.8645 13.2496L17.0622 13.3144C18.8161 13.8894 20.4233 14.8391 21.7736 16.1218C23.8732 18.1165 25.1257 20.6992 25.362 23.4777C25.4022 23.951 25.013 24.3445 24.5265 24.3445C24.0448 24.3445 23.6503 23.9512 23.6001 23.4594C23.0769 18.3369 18.5212 14.327 13.0053 14.327C7.48945 14.327 2.9338 18.3369 2.41061 23.4594C2.36037 23.9512 1.96587 24.3445 1.48418 24.3445C0.997677 24.3445 0.608499 23.951 0.648738 23.4777C0.884972 20.6992 2.1375 18.1165 4.23715 16.1218C5.58742 14.8391 7.19467 13.8894 8.94853 13.3144L9.14622 13.2496L8.97213 13.1357C7.10447 11.9137 5.88021 9.87068 5.88021 7.5631C5.88021 3.83836 9.07175 0.799219 13.0053 0.799219C16.9389 0.799219 20.1305 3.83836 20.1305 7.5631C20.1305 9.87068 18.9062 11.9137 17.0386 13.1357ZM7.63295 7.5631C7.63295 10.385 10.0478 12.6719 13.0053 12.6719C15.9629 12.6719 18.3777 10.385 18.3777 7.5631C18.3777 4.74122 15.9629 2.45432 13.0053 2.45432C10.0478 2.45432 7.63295 4.74122 7.63295 7.5631Z" fill="#231F20" stroke="white" stroke-width="0.2" />
</svg>