<svg width="64" height="64" viewBox="0 0 64 64" fill="none" xmlns="http://www.w3.org/2000/svg">
	<g clip-path="url(#clip0_1529_449820)">
		<path d="M54.629 9.37275C48.836 3.58013 40.8302 0 32.0088 0C23.1698 0 15.163 3.58013 9.37088 9.37275C3.59563 15.1674 0 23.1759 0 31.9996C0 40.8418 3.59563 48.8325 9.37088 54.6271C15.163 60.4204 23.1698 64 32.0088 64C40.8301 64 48.836 60.4204 54.629 54.6271C60.4038 48.8325 64 40.8418 64 31.9996C64 23.1759 60.4038 15.1674 54.629 9.37275Z" fill="#999999" />
		<path fill-rule="evenodd" clip-rule="evenodd" d="M31.6134 41.9121H33.7652C33.7652 41.9121 34.4152 41.8391 34.7471 41.4733C35.0525 41.1375 35.0428 40.5068 35.0428 40.5068C35.0428 40.5068 35.0007 37.5544 36.3408 37.1196C37.6618 36.6914 39.3582 39.9731 41.1562 41.2349C42.5159 42.1899 43.549 41.9805 43.549 41.9805L48.3566 41.9121C48.3566 41.9121 50.8716 41.7537 49.6791 39.7317C49.5814 39.5663 48.9846 38.236 46.1046 35.5025C43.0901 32.6415 43.4938 33.1043 47.125 28.1554C49.3365 25.1416 50.2206 23.3015 49.9445 22.5135C49.6811 21.7629 48.0546 21.9613 48.0546 21.9613L42.6415 21.9957C42.6415 21.9957 42.2402 21.9398 41.9426 22.1217C41.6518 22.3001 41.4646 22.7159 41.4646 22.7159C41.4646 22.7159 40.6079 25.0481 39.4652 27.0315C37.0548 31.2168 36.0911 31.4377 35.6972 31.1778C34.7808 30.5722 35.0095 28.7446 35.0095 27.4463C35.0095 23.3905 35.6112 21.6994 33.8381 21.2616C33.2496 21.1162 32.8166 21.0203 31.3118 21.0048C29.3804 20.9843 27.7456 21.0108 26.82 21.4745C26.2042 21.7829 25.7291 22.47 26.0185 22.5095C26.3762 22.5584 27.1865 22.7328 27.6161 23.331C28.1708 24.1026 28.1513 25.8357 28.1513 25.8357C28.1513 25.8357 28.4699 30.6101 27.4069 31.2033C26.6773 31.6101 25.6764 30.7795 23.5274 26.9826C22.4263 25.0376 21.595 22.8878 21.595 22.8878C21.595 22.8878 21.4347 22.486 21.1488 22.2711C20.8018 22.0107 20.317 21.9278 20.317 21.9278L15.1732 21.9623C15.1732 21.9623 14.401 21.9842 14.1175 22.3276C13.8653 22.6329 14.0975 23.2646 14.0975 23.2646C14.0975 23.2646 18.1246 32.8984 22.6844 37.7533C26.8654 42.2044 31.6134 41.9121 31.6134 41.9121Z" fill="white" />
	</g>
	<defs>
		<clipPath id="clip0_1529_449820">
			<rect width="64" height="64" fill="white" />
		</clipPath>
	</defs>
</svg>