<svg width="38" height="36" fill="none" xmlns="http://www.w3.org/2000/svg"><g clip-path="url(#clip0_1529_384098)" fill="#fff"><path d="M15.235 31.341h-.997v-1.52h.997v1.52zm-.997.761h.997v1.605h-.997v-1.605zm2.659-.761H15.9v-1.605h.997v1.605zm0 2.366H15.9v-1.605h.997v1.605z"/><path d="M19.828 25.53c-.197-.16-.472-.44-.472-.44s.04-3.2.04-3.64h3.38c-2.83-2.441-5.817-5.002-8.647-7.443-1.022.88-2.043 1.72-3.026 2.6-.354.32-.747.6-.747.6s-.393-.28-.825-.64c-1.768-1.52-3.498-3.04-5.266-4.56-.275-.24-.55-.401-.472-.921.079-.56.197-.84.747-1.04.118-.04.314-.2.314-.32.04-.32.315-.36.511-.52a1.63 1.63 0 00-.196-.36c.157-.04.275-.04.471-.12a1.084 1.084 0 00-.353-.201c0-.04.039-.04.039-.08.157.04.354.04.51.08 0-.04.04-.08.04-.12-.196-.12-.354-.2-.55-.32.04-.04.04-.08.079-.12.235.12.471.24.864.4-.157-.24-.236-.52-.393-.56-.236-.08-.59-.08-.786.08-.432.32-.825.72-1.297 1.12-.157-.24-.275-.4-.353-.6-.197-.44-.354-.92-.59-1.36-.04-.08-.354 0-.51.04.038.32-.04.8.117.88.314.24.275.4.118.64-.314.56-.157 1 .275 1.44.197.2.432.48.472.76.039.28.235.601-.158.921-1.61 1.32-3.183 2.721-4.755 4.081a413.952 413.952 0 00-4.323 3.722c-.707.64-1.454 1.24-2.28 1.96h4.442c0 .52-.04 1.56-.04 1.56v10.404h2.083V19.37c-.236-.04-.471-.04-.786-.08 2.083-1.801 4.087-3.522 6.092-5.242 2.043 1.76 4.008 3.481 6.091 5.242-.353.04-.59.04-.864.04v8.16l-.236.24c-1.1 1-2.28 1.961-3.38 2.921-.236.2-.432.4-.747.68h4.166v2.041h1.887v-.32c.039-.56 0-1.08 0-1.64v-1.961H9.57c.079-.08.315-.32.393-.36 1.769-1.52 3.537-3.001 5.267-4.522.118-.12.314-.28.314-.28s.157.16.275.24a356.221 356.221 0 014.362 3.762c.393.32.904.84 1.337 1.2h-.826v3.962h1.887v-2.08h.55c1.179.04 2.358 0 3.655 0-.197-.16-.275-.24-.393-.36-2.2-1.761-4.362-3.682-6.563-5.482zm-2.515-2.2c-.511-.44-1.73-1.48-1.73-1.48s-.196.16-.353.28c-1.258 1.12-2.555 2.2-3.852 3.28-.118.12-.275.2-.471.36v-4.2h4.401c-1.06-.92-2.28-1.961-3.419-2.962.747-.64 1.454-1.28 2.2-1.92.708.64 3.184 2.76 3.184 2.76s.04 2.962.04 3.882z"/><path d="M3.272 21.71h-.997v-1.52h.997v1.52zm-.997 2.45v-1.605h1.08v1.605m1.579-2.45h-.997v-1.52h.997v1.52zm0 2.45h-.997v-1.605h.997v1.605z"/></g><defs><clipPath id="clip0_1529_384098"><path fill="#fff" transform="translate(-17 -6)" d="M0 0h55v49H0z"/></clipPath></defs></svg>