<svg width="17" height="17" fill="none" xmlns="http://www.w3.org/2000/svg"><g clip-path="url(#clip0_1529_384057)"><path d="M8.5 17a8.5 8.5 0 100-17 8.5 8.5 0 000 17z" fill="#FF0A00"/><path d="M7.472 14.892s-4.267-.632-4.267-4.267c0-3.635 5.579-3.982 4.344-8.492 0 0 4.177 1.307 3.158 5.378 0 0 .552-.353.975-1.04 0 0 2.115 1.634 2.115 4.12 0 2.487-2.932 4.316-4.321 4.299 0 0 1.499-2.024.135-3.328C7.676 9.71 8.501 8.52 8.501 8.52s-4.716 2.307-1.03 6.37z" fill="#fff"/></g><defs><clipPath id="clip0_1529_384057"><path fill="#fff" d="M0 0h17v17H0z"/></clipPath></defs></svg>