<svg width="23" height="20" fill="none" xmlns="http://www.w3.org/2000/svg"><path d="M5.684 4.585c2.212 0 4.006-.729 4.006-1.627 0-.9-1.794-1.628-4.006-1.628-2.213 0-4.006.729-4.006 1.628 0 .898 1.793 1.627 4.006 1.627zm11.658 7.366c2.235 0 4.046-.739 4.046-1.65 0-.911-1.812-1.65-4.046-1.65-2.235 0-4.047.739-4.047 1.65 0 .911 1.812 1.65 4.047 1.65z" stroke="#999" stroke-width="1.5" stroke-miterlimit="10"/><path d="M1.686 2.958V14.35" stroke="#999" stroke-width="2" stroke-miterlimit="10" stroke-linecap="round"/><path d="M9.692 2.958v11.415c0 .901-1.794 1.627-4.006 1.627-2.213 0-4-.748-4-1.627" stroke="#999" stroke-width="1.5" stroke-miterlimit="10"/><path d="M9.69 10.573c0 .902-1.81 1.628-4.075 1.628s-4.076-.732-4.076-1.628m19.849-.272v4.02c0 .914-1.81 1.65-4.076 1.65-2.265 0-4.076-.736-4.076-1.65v-4.02M9.69 6.644c0 .901-1.81 1.627-4.075 1.627s-4.023-.703-4.023-1.627" stroke="#999" stroke-width="1.5" stroke-miterlimit="10"/></svg>