<svg width="25" height="25" fill="none" xmlns="http://www.w3.org/2000/svg"><path d="M6.603 8.943c2.244 0 4.064-.76 4.064-1.696 0-.936-1.82-1.695-4.064-1.695-2.244 0-4.064.76-4.064 1.695 0 .937 1.82 1.696 4.064 1.696zm11.827 7.673c2.267 0 4.105-.77 4.105-1.72 0-.949-1.838-1.718-4.105-1.718-2.268 0-4.106.77-4.106 1.719 0 .95 1.838 1.719 4.106 1.719z" stroke="#231F20" stroke-width="1.3" stroke-miterlimit="10"/><path d="M2.543 7.247v11.867" stroke="#231F20" stroke-width="1.3" stroke-miterlimit="10" stroke-linecap="round"/><path d="M10.665 7.247v11.891c0 .94-1.82 1.695-4.064 1.695-2.245 0-4.058-.78-4.058-1.695" stroke="#231F20" stroke-width="1.3" stroke-miterlimit="10"/><path d="M10.666 15.18c0 .94-1.837 1.696-4.135 1.696-2.297 0-4.135-.762-4.135-1.696m20.139-.283v4.188c0 .95-1.837 1.719-4.134 1.719-2.298 0-4.135-.768-4.135-1.72v-4.187m-3.6-3.81c0 .94-1.837 1.695-4.135 1.695s-4.082-.732-4.082-1.695" stroke="#231F20" stroke-width="1.3" stroke-miterlimit="10"/></svg>