<svg width="25" height="25" fill="none" xmlns="http://www.w3.org/2000/svg"><mask id="a" maskUnits="userSpaceOnUse" x="8.375" y="7.594" width="13" height="9" fill="#000"><path fill="#fff" d="M8.375 7.594h13v9h-13z"/><path d="M20.952 12.159l-3.508-3.446a.498.498 0 00-.672.022.48.48 0 00-.023.66l2.669 2.621H9.882a.501.501 0 00-.358.137.484.484 0 00-.149.347.476.476 0 00.15.347.496.496 0 00.357.136h9.534l-2.67 2.622a.479.479 0 00.024.66.497.497 0 00.672.022l3.508-3.446a.479.479 0 000-.682h.002z"/></mask><path d="M20.952 12.159l-3.508-3.446a.498.498 0 00-.672.022.48.48 0 00-.023.66l2.669 2.621H9.882a.501.501 0 00-.358.137.484.484 0 00-.149.347.476.476 0 00.15.347.496.496 0 00.357.136h9.534l-2.67 2.622a.479.479 0 00.024.66.497.497 0 00.672.022l3.508-3.446a.479.479 0 000-.682h.002z" fill="#231F20"/><path d="M20.952 12.159l-3.508-3.446a.498.498 0 00-.672.022.48.48 0 00-.023.66l2.669 2.621H9.882a.501.501 0 00-.358.137.484.484 0 00-.149.347.476.476 0 00.15.347.496.496 0 00.357.136h9.534l-2.67 2.622a.479.479 0 00.024.66.497.497 0 00.672.022l3.508-3.446a.479.479 0 000-.682h.002z" stroke="#231F20" stroke-width=".2" stroke-linejoin="round" mask="url(#a)"/><mask id="b" maskUnits="userSpaceOnUse" x="2.906" y="2.906" width="13" height="19" fill="#000"><path fill="#fff" d="M2.906 2.906h13v19h-13z"/><path d="M15.149 16.587a.465.465 0 00-.336.145.507.507 0 00-.139.35v2.016c0 .267-.101.522-.282.71a.943.943 0 01-.68.296H5.817a.943.943 0 01-.681-.295 1.028 1.028 0 01-.282-.711V5.902c0-.267.101-.522.282-.711a.943.943 0 01.68-.294h7.896c.255 0 .5.105.68.294.181.189.282.444.282.711V7.87c0 .131.05.257.14.35.088.093.21.145.335.145a.465.465 0 00.336-.145.507.507 0 00.139-.35V5.902a2.04 2.04 0 00-.56-1.41 1.873 1.873 0 00-1.351-.586H5.818a1.87 1.87 0 00-1.351.585 2.04 2.04 0 00-.56 1.411v13.196c0 .53.201 1.036.56 1.41.358.375.844.585 1.35.586h7.896a1.87 1.87 0 001.35-.585 2.04 2.04 0 00.56-1.411v-2.015a.507.507 0 00-.138-.35.465.465 0 00-.336-.146z"/></mask><path d="M15.149 16.587a.465.465 0 00-.336.145.507.507 0 00-.139.35v2.016c0 .267-.101.522-.282.71a.943.943 0 01-.68.296H5.817a.943.943 0 01-.681-.295 1.028 1.028 0 01-.282-.711V5.902c0-.267.101-.522.282-.711a.943.943 0 01.68-.294h7.896c.255 0 .5.105.68.294.181.189.282.444.282.711V7.87c0 .131.05.257.14.35.088.093.21.145.335.145a.465.465 0 00.336-.145.507.507 0 00.139-.35V5.902a2.04 2.04 0 00-.56-1.41 1.873 1.873 0 00-1.351-.586H5.818a1.87 1.87 0 00-1.351.585 2.04 2.04 0 00-.56 1.411v13.196c0 .53.201 1.036.56 1.41.358.375.844.585 1.35.586h7.896a1.87 1.87 0 001.35-.585 2.04 2.04 0 00.56-1.411v-2.015a.507.507 0 00-.138-.35.465.465 0 00-.336-.146z" fill="#231F20"/><path d="M15.149 16.587a.465.465 0 00-.336.145.507.507 0 00-.139.35v2.016c0 .267-.101.522-.282.71a.943.943 0 01-.68.296H5.817a.943.943 0 01-.681-.295 1.028 1.028 0 01-.282-.711V5.902c0-.267.101-.522.282-.711a.943.943 0 01.68-.294h7.896c.255 0 .5.105.68.294.181.189.282.444.282.711V7.87c0 .131.05.257.14.35.088.093.21.145.335.145a.465.465 0 00.336-.145.507.507 0 00.139-.35V5.902a2.04 2.04 0 00-.56-1.41 1.873 1.873 0 00-1.351-.586H5.818a1.87 1.87 0 00-1.351.585 2.04 2.04 0 00-.56 1.411v13.196c0 .53.201 1.036.56 1.41.358.375.844.585 1.35.586h7.896a1.87 1.87 0 001.35-.585 2.04 2.04 0 00.56-1.411v-2.015a.507.507 0 00-.138-.35.465.465 0 00-.336-.146z" stroke="#231F20" stroke-width=".2" stroke-linejoin="round" mask="url(#b)"/></svg>