<svg width="340" height="150" fill="none" xmlns="http://www.w3.org/2000/svg"><path d="M72.249 107.682H19.003L17.81 91.433l21.206-33.416m58.938 58.845v18.912M71.974 5.872h26.072v81.063h14.688v20.839M43.423 86.843h28.734V40.94l-1.652 2.938-27.082 42.964zm101.534 36.721c-7.528-9.364-11.292-22.767-11.476-40.118v-23.96c0-18.178 3.764-31.948 11.292-41.312 7.528-9.364 18.361-14.138 32.499-14.138 14.137 0 24.97 4.682 32.498 13.954 7.528 9.272 11.292 22.676 11.475 40.118v23.96h.092c0 17.994-3.764 31.673-11.2 41.221a35.905 35.905 0 01-6.077 6.145m-8.52-73.713c0-10.74-1.468-18.636-4.406-23.501-2.938-4.958-7.528-7.345-13.771-7.345-6.059 0-10.557 2.296-13.403 6.977-2.846 4.683-4.406 12.027-4.59 21.942v31.58c0 10.557 1.469 18.452 4.315 23.593 2.846 5.141 7.528 7.712 13.862 7.712 6.334 0 10.833-2.479 13.679-7.436 2.754-4.958 4.223-12.486 4.406-22.676V55.721h-.092zm100.158 51.961h-53.246l-1.193-16.25L269.351 47m52.144 69.311v19.463M295.423 5.872h26.072v81.062h14.688v20.84m-69.219-20.931h28.734V40.94l-1.652 2.938-27.082 42.964z" stroke="#505050" stroke-width="1.6" stroke-miterlimit="10" stroke-linecap="round" stroke-linejoin="round"/><path d="M71.974 5.872l-15.607 9.18m239.331-9.18l-15.606 9.18M97.954 5.872l-15.606 9.18m238.321-9.18l-15.607 9.18M97.954 86.843l-15.606 9.18m29.744-9.18l-15.607 9.18m225.469-9.548l-15.606 9.18m-38.741-9.18L252 95.655m83.725-8.445l-15.607 9.18m16.158 11.292l-15.607 9.18m.918 18.82l-15.607 9.18m-193.246-37.18l-15.606 9.18m.826 18.912l-15.606 9.18M43.423 86.843l-15.607 9.18" stroke="#505050" stroke-width="1.6" stroke-miterlimit="10" stroke-linejoin="round"/><path d="M182.229 142.567l21.941-13.219M135.318 21.387l21.941-13.22" stroke="#505050" stroke-width="1.6" stroke-miterlimit="10" stroke-linecap="round" stroke-linejoin="round"/><path d="M82.347 96.023h14.689v20.839H82.347v28.092H56.551v-28.092H3.305L2.11 100.613l54.164-85.56h26.072v80.97zm-54.53 0H56.55V50.12l-1.653 2.938-27.082 42.964zm177.914-4.773c0 17.993-3.764 31.671-11.2 41.219-7.436 9.547-18.361 14.321-32.682 14.321-14.138 0-24.971-4.682-32.499-14.046-7.527-9.364-11.291-22.767-11.475-40.118v-23.96c0-18.178 3.764-31.948 11.292-41.312 7.528-9.364 18.36-14.138 32.498-14.138 14.138 0 24.971 4.682 32.498 13.954 7.528 9.273 11.292 22.676 11.476 40.118V91.25h.092zM179.934 64.9c0-10.74-1.469-18.635-4.407-23.501-2.937-4.957-7.527-7.344-13.77-7.344-6.059 0-10.557 2.295-13.403 6.977s-4.407 12.026-4.591 21.94v31.581c0 10.557 1.469 18.452 4.315 23.593 2.846 5.141 7.528 7.712 13.863 7.712 6.334 0 10.832-2.479 13.678-7.436 2.754-4.958 4.223-12.485 4.407-22.675V64.9h-.092zm125.954 31.123h14.689v20.839h-14.689v28.092h-25.796v-28.092h-53.246l-1.194-16.249 54.164-85.56h26.072v80.97zm-54.531 0h28.735V50.12l-1.653 2.938-27.082 42.964z" fill="#FFAC62" stroke="#FF7500" stroke-width="1.6" stroke-miterlimit="10" stroke-linecap="round" stroke-linejoin="round"/><path d="M52.144 35.25l-7.895 11.2m14.689-11.2L43.882 56.547m93.18-22.491l-7.895 11.2m9.18-3.306L128.8 55.447M275.685 35.25l-7.895 11.2m14.689-11.2l-15.056 21.298" stroke="#fff" stroke-width="1.6" stroke-miterlimit="10" stroke-linecap="round" stroke-linejoin="round"/></svg>