<svg width="20" height="20" fill="none" xmlns="http://www.w3.org/2000/svg"><g clip-path="url(#clip0_1529_369475)"><path d="M19.917 18.154c.031-.21.693-5.257-2.275-8.73-1.823-2.133-4.636-3.301-8.268-3.417L9.354 2.5a.626.626 0 00-1.02-.484L.23 8.666a.628.628 0 00-.002.968l8.105 6.714a.624.624 0 001.021-.482l.02-3.588c8.755-.006 9.378 5.604 9.4 5.836.026.315.225.56.542.57a.26.26 0 00.02.001c.31 0 .535-.225.58-.531z" fill="#666"/></g><defs><clipPath id="clip0_1529_369475"><path fill="#fff" d="M0 0h20v20H0z"/></clipPath></defs></svg>