<svg width="42" height="42" fill="none" xmlns="http://www.w3.org/2000/svg"><path d="M38.118 10.031H3.882c-.798 0-1.445.647-1.445 1.445v19.892c0 .798.647 1.445 1.445 1.445h34.236c.798 0 1.444-.647 1.444-1.445V11.476c0-.798-.646-1.445-1.444-1.445z" stroke="#231F20" stroke-width="1.5" stroke-linecap="round" stroke-linejoin="round"/><path d="M13.406 24.375H7.5c-.932 0-1.688.756-1.688 1.688v1.687c0 .932.756 1.688 1.688 1.688h5.906c.932 0 1.688-.756 1.688-1.688v-1.688c0-.931-.756-1.687-1.688-1.687z" stroke="#231F20" stroke-width="1.5" stroke-linecap="round" stroke-linejoin="round"/><path d="M39.563 14.25H2.437v3.375h37.126V14.25z" stroke="#231F20" stroke-width="1.5" stroke-linejoin="round"/><path d="M27.75 26.063h7.594m-7.594 3.375h5.906" stroke="#231F20" stroke-width="1.5" stroke-linecap="round" stroke-linejoin="round"/></svg>