<svg width="25" height="25" fill="none" xmlns="http://www.w3.org/2000/svg"><g clip-path="url(#clip0_1458_317391)"><mask id="a" maskUnits="userSpaceOnUse" x="1.074" y=".316" width="25" height="24" fill="#000"><path fill="#fff" d="M1.074.316h25v24h-25z"/><path d="M24.555 5.601a1.305 1.305 0 00-1.002-.463H5.808l-.571-2.797a1.274 1.274 0 00-.451-.735 1.318 1.318 0 00-.823-.29H2.507c-.239 0-.433.19-.433.425s.194.425.433.425h1.456c.206 0 .384.142.425.34l2.615 12.816c.099.48.364.913.75 1.224a2.2 2.2 0 001.372.483h11.881c.503 0 .991-.173 1.379-.487s.652-.75.748-1.235l1.698-8.654a1.25 1.25 0 00-.276-1.052zm-.576.892l-1.698 8.654c-.057.29-.216.552-.448.741a1.317 1.317 0 01-.827.292H9.126c-.3 0-.59-.103-.822-.29a1.273 1.273 0 01-.452-.734l-1.87-9.168h17.571c.13 0 .252.057.334.155a.419.419 0 01.091.35zM10.739 19.05a2.19 2.19 0 00-1.532.622 2.103 2.103 0 00-.634 1.502c0 .563.228 1.103.634 1.501a2.19 2.19 0 001.532.622 2.19 2.19 0 001.531-.622c.407-.398.635-.938.635-1.501a2.11 2.11 0 00-.635-1.501 2.192 2.192 0 00-1.531-.623zm0 3.398c-.345 0-.676-.134-.92-.373a1.262 1.262 0 01-.38-.901c0-.338.137-.662.38-.901.244-.239.575-.373.92-.373.344 0 .675.134.919.373.243.239.38.563.38.9 0 .338-.137.663-.38.902a1.313 1.313 0 01-.92.373zm8.664-3.398a2.19 2.19 0 00-1.532.622 2.103 2.103 0 00-.634 1.502c0 .563.228 1.103.634 1.501a2.19 2.19 0 001.532.622 2.19 2.19 0 001.532-.622c.406-.398.634-.938.634-1.501s-.229-1.103-.635-1.501a2.192 2.192 0 00-1.53-.623zm0 3.398c-.345 0-.675-.134-.919-.373a1.262 1.262 0 01-.38-.901c0-.338.136-.662.38-.901s.574-.373.92-.373c.344 0 .674.134.918.373a1.26 1.26 0 010 1.802 1.313 1.313 0 01-.919.373z"/></mask><path d="M24.555 5.601a1.305 1.305 0 00-1.002-.463H5.808l-.571-2.797a1.274 1.274 0 00-.451-.735 1.318 1.318 0 00-.823-.29H2.507c-.239 0-.433.19-.433.425s.194.425.433.425h1.456c.206 0 .384.142.425.34l2.615 12.816c.099.48.364.913.75 1.224a2.2 2.2 0 001.372.483h11.881c.503 0 .991-.173 1.379-.487s.652-.75.748-1.235l1.698-8.654a1.25 1.25 0 00-.276-1.052zm-.576.892l-1.698 8.654c-.057.29-.216.552-.448.741a1.317 1.317 0 01-.827.292H9.126c-.3 0-.59-.103-.822-.29a1.273 1.273 0 01-.452-.734l-1.87-9.168h17.571c.13 0 .252.057.334.155a.419.419 0 01.091.35zM10.739 19.05a2.19 2.19 0 00-1.532.622 2.103 2.103 0 00-.634 1.502c0 .563.228 1.103.634 1.501a2.19 2.19 0 001.532.622 2.19 2.19 0 001.531-.622c.407-.398.635-.938.635-1.501a2.11 2.11 0 00-.635-1.501 2.192 2.192 0 00-1.531-.623zm0 3.398c-.345 0-.676-.134-.92-.373a1.262 1.262 0 01-.38-.901c0-.338.137-.662.38-.901.244-.239.575-.373.92-.373.344 0 .675.134.919.373.243.239.38.563.38.9 0 .338-.137.663-.38.902a1.313 1.313 0 01-.92.373zm8.664-3.398a2.19 2.19 0 00-1.532.622 2.103 2.103 0 00-.634 1.502c0 .563.228 1.103.634 1.501a2.19 2.19 0 001.532.622 2.19 2.19 0 001.532-.622c.406-.398.634-.938.634-1.501s-.229-1.103-.635-1.501a2.192 2.192 0 00-1.53-.623zm0 3.398c-.345 0-.675-.134-.919-.373a1.262 1.262 0 01-.38-.901c0-.338.136-.662.38-.901s.574-.373.92-.373c.344 0 .674.134.918.373a1.26 1.26 0 010 1.802 1.313 1.313 0 01-.919.373z" fill="#231F20"/><path d="M24.555 5.601a1.305 1.305 0 00-1.002-.463H5.808l-.571-2.797a1.274 1.274 0 00-.451-.735 1.318 1.318 0 00-.823-.29H2.507c-.239 0-.433.19-.433.425s.194.425.433.425h1.456c.206 0 .384.142.425.34l2.615 12.816c.099.48.364.913.75 1.224a2.2 2.2 0 001.372.483h11.881c.503 0 .991-.173 1.379-.487s.652-.75.748-1.235l1.698-8.654a1.25 1.25 0 00-.276-1.052zm-.576.892l-1.698 8.654c-.057.29-.216.552-.448.741a1.317 1.317 0 01-.827.292H9.126c-.3 0-.59-.103-.822-.29a1.273 1.273 0 01-.452-.734l-1.87-9.168h17.571c.13 0 .252.057.334.155a.419.419 0 01.091.35zM10.739 19.05a2.19 2.19 0 00-1.532.622 2.103 2.103 0 00-.634 1.502c0 .563.228 1.103.634 1.501a2.19 2.19 0 001.532.622 2.19 2.19 0 001.531-.622c.407-.398.635-.938.635-1.501a2.11 2.11 0 00-.635-1.501 2.192 2.192 0 00-1.531-.623zm0 3.398c-.345 0-.676-.134-.92-.373a1.262 1.262 0 01-.38-.901c0-.338.137-.662.38-.901.244-.239.575-.373.92-.373.344 0 .675.134.919.373.243.239.38.563.38.9 0 .338-.137.663-.38.902a1.313 1.313 0 01-.92.373zm8.664-3.398a2.19 2.19 0 00-1.532.622 2.103 2.103 0 00-.634 1.502c0 .563.228 1.103.634 1.501a2.19 2.19 0 001.532.622 2.19 2.19 0 001.532-.622c.406-.398.634-.938.634-1.501s-.229-1.103-.635-1.501a2.192 2.192 0 00-1.53-.623zm0 3.398c-.345 0-.675-.134-.919-.373a1.262 1.262 0 01-.38-.901c0-.338.136-.662.38-.901s.574-.373.92-.373c.344 0 .674.134.918.373a1.26 1.26 0 010 1.802 1.313 1.313 0 01-.919.373z" stroke="#231F20" stroke-width=".5" mask="url(#a)"/></g><defs><clipPath id="clip0_1458_317391"><path fill="#fff" d="M0 0h25v25H0z"/></clipPath></defs></svg>