<svg width="27" height="27" fill="none" xmlns="http://www.w3.org/2000/svg"><path d="M9.984 9.234h1.407v11.25H9.984V9.234zm2.813 0h1.406v11.25h-1.406V9.234zm2.813 0h1.406v11.25h-1.407V9.234zM4.36 5.016h18.28v1.406H4.36V5.016z" fill="#959699"/><path d="M16.969 5.719h-1.313V4.312a.74.74 0 00-.75-.75h-2.812a.74.74 0 00-.75.75V5.72H10.03V4.312a2.08 2.08 0 012.063-2.062h2.812a2.08 2.08 0 012.063 2.063v1.406z" fill="#959699"/><path d="M17.719 24.703H9.28c-1.125 0-2.11-.937-2.203-2.062L5.766 5.766l1.406-.094 1.312 16.875c.047.422.422.75.797.75h8.438c.422 0 .797-.375.797-.75l1.312-16.875 1.406.094-1.312 16.875c-.094 1.172-1.078 2.062-2.203 2.062z" fill="#959699"/></svg>