<svg width="64" height="64" fill="none" xmlns="http://www.w3.org/2000/svg"><g clip-path="url(#clip0_1529_449827)"><path d="M54.629 9.373C48.836 3.58 40.83 0 32.009 0A31.915 31.915 0 009.37 9.373C3.596 15.167 0 23.176 0 32c0 8.842 3.596 16.833 9.37 22.627A31.913 31.913 0 0032.01 64c8.821 0 16.827-3.58 22.62-9.373C60.404 48.833 64 40.842 64 32c0-8.824-3.596-16.833-9.371-22.627z" fill="#999"/><path d="M44.375 19.297h-24.75a5.07 5.07 0 00-5.063 5.062v15.278a5.07 5.07 0 005.063 5.062h24.75a5.07 5.07 0 005.063-5.062V24.359a5.07 5.07 0 00-5.063-5.062zm1.688 20.34c0 .934-.754 1.687-1.688 1.687h-24.75a1.685 1.685 0 01-1.688-1.687V24.46l10.924 8.628A5.048 5.048 0 0032 34.181c1.102 0 2.216-.36 3.139-1.092l10.923-8.617v15.165z" fill="#fff"/></g><defs><clipPath id="clip0_1529_449827"><path fill="#fff" d="M0 0h64v64H0z"/></clipPath></defs></svg>