<svg width="25" height="23" fill="none" xmlns="http://www.w3.org/2000/svg"><path d="M12.5 22.5c-.356 0-.699-.128-.966-.36a287.286 287.286 0 00-2.843-2.418l-.005-.003c-2.518-2.123-4.693-3.957-6.206-5.763C.788 11.937 0 10.023 0 7.932 0 5.9.704 4.024 1.983 2.652 3.277 1.265 5.053.5 6.984.5c1.443 0 2.765.451 3.928 1.341.587.45 1.12 1 1.588 1.64a7.988 7.988 0 011.588-1.64C15.252.951 16.573.5 18.016.5c1.93 0 3.707.765 5 2.153C24.297 4.025 25 5.9 25 7.931c0 2.092-.788 4.006-2.48 6.025-1.513 1.806-3.687 3.64-6.206 5.762a285.12 285.12 0 00-2.848 2.423c-.267.232-.61.359-.966.359zM6.984 1.949c-1.517 0-2.91.598-3.924 1.686-1.03 1.104-1.596 2.63-1.596 4.296 0 1.76.661 3.332 2.143 5.1 1.432 1.71 3.563 3.506 6.03 5.585l.004.004c.862.727 1.84 1.551 2.857 2.43a339.305 339.305 0 012.867-2.434c2.466-2.08 4.596-3.875 6.028-5.584 1.482-1.769 2.143-3.342 2.143-5.1 0-1.668-.567-3.193-1.596-4.297-1.013-1.088-2.407-1.686-3.924-1.686a4.89 4.89 0 00-3.032 1.038c-.803.614-1.362 1.39-1.69 1.934a.92.92 0 01-.794.446.92.92 0 01-.794-.446c-.328-.543-.887-1.32-1.69-1.934a4.891 4.891 0 00-3.032-1.038z" fill="#F58220"/></svg>