<svg width="33" height="33" fill="none" xmlns="http://www.w3.org/2000/svg"><path d="M15.224 30.543A1.99 1.99 0 0016.5 31c.47 0 .923-.162 1.276-.457a373.254 373.254 0 013.759-3.084c3.324-2.701 6.195-5.035 8.192-7.333C31.96 17.556 33 15.12 33 12.458c0-2.586-.93-4.971-2.618-6.718C28.674 3.973 26.33 3 23.782 3a8.56 8.56 0 00-5.186 1.707A10.348 10.348 0 0016.5 6.795a10.349 10.349 0 00-2.096-2.088A8.561 8.561 0 009.219 3c-2.549 0-4.893.973-6.601 2.74C.93 7.487 0 9.872 0 12.458c0 2.662 1.04 5.098 3.273 7.668 1.998 2.299 4.868 4.632 8.193 7.334l.006.005a378.48 378.48 0 013.752 3.078z" fill="#F58220"/></svg>