<svg width="30" height="30" fill="none" xmlns="http://www.w3.org/2000/svg"><g clip-path="url(#clip0_1529_392683)"><mask id="a" fill="#fff"><path fill-rule="evenodd" clip-rule="evenodd" d="M9.899 21.721L3.813 5H1.25A1.247 1.247 0 010 3.75C0 3.06.559 2.5 1.25 2.5h4.313l6.836 18.781a4.368 4.368 0 012.674 1.36l14.072-5.121.855 2.349-13.811 5.026A4.377 4.377 0 0111.875 30 4.377 4.377 0 017.5 25.625c0-1.704.976-3.181 2.399-3.904zm1.976 2.264a1.641 1.641 0 11-.002 3.282 1.641 1.641 0 01.002-3.282zm16.642-8.14L14.245 21.04l-3.42-9.397 14.273-5.196 3.42 9.398zM17.63 11.826l-3.6 1.31 1.71 4.699 9.574-3.484-1.71-4.699-3.625 1.32.855 2.348-2.349.856-.855-2.35zm3.34-5.206l-10.572 3.847-2.41-6.62L18.56 0l2.41 6.62zm-3.904-3.416l-5.873 2.139.7 1.92 5.872-2.137-.699-1.922z"/></mask><path fill-rule="evenodd" clip-rule="evenodd" d="M9.899 21.721L3.813 5H1.25A1.247 1.247 0 010 3.75C0 3.06.559 2.5 1.25 2.5h4.313l6.836 18.781a4.368 4.368 0 012.674 1.36l14.072-5.121.855 2.349-13.811 5.026A4.377 4.377 0 0111.875 30 4.377 4.377 0 017.5 25.625c0-1.704.976-3.181 2.399-3.904zm1.976 2.264a1.641 1.641 0 11-.002 3.282 1.641 1.641 0 01.002-3.282zm16.642-8.14L14.245 21.04l-3.42-9.397 14.273-5.196 3.42 9.398zM17.63 11.826l-3.6 1.31 1.71 4.699 9.574-3.484-1.71-4.699-3.625 1.32.855 2.348-2.349.856-.855-2.35zm3.34-5.206l-10.572 3.847-2.41-6.62L18.56 0l2.41 6.62zm-3.904-3.416l-5.873 2.139.7 1.92 5.872-2.137-.699-1.922z" fill="#F58220" stroke="#fff" stroke-width=".5" mask="url(#a)"/></g><defs><clipPath id="clip0_1529_392683"><path fill="#fff" d="M0 0h30v30H0z"/></clipPath></defs></svg>