<svg width="19" height="19" fill="none" xmlns="http://www.w3.org/2000/svg"><path d="M1.279 5.665H6.16a2.196 2.196 0 002.122 1.65 2.197 2.197 0 002.12-1.65h7.319a.548.548 0 000-1.096h-7.318a2.197 2.197 0 00-2.121-1.651 2.196 2.196 0 00-2.122 1.65H1.28a.548.548 0 000 1.097zm7.003-1.65a1.104 1.104 0 010 2.204 1.104 1.104 0 010-2.205zm9.438 4.936h-1.173a2.196 2.196 0 00-2.121-1.65 2.196 2.196 0 00-2.121 1.65H1.279a.548.548 0 000 1.097h11.026a2.196 2.196 0 002.121 1.65 2.196 2.196 0 002.121-1.65h1.174a.548.548 0 000-1.097zm-3.294 1.651a1.104 1.104 0 010-2.205 1.104 1.104 0 010 2.205zm3.294 2.736H7.102a2.196 2.196 0 00-2.12-1.65 2.196 2.196 0 00-2.121 1.65H1.279a.548.548 0 000 1.096h1.58a2.197 2.197 0 002.122 1.651 2.196 2.196 0 002.12-1.65h10.62a.548.548 0 000-1.097zm-12.74 1.65a1.104 1.104 0 010-2.204 1.104 1.104 0 010 2.205z" fill="#1D1D1B"/></svg>