<svg width="24" height="24" fill="none" xmlns="http://www.w3.org/2000/svg"><path d="M21 16.216c0 .23-.043.53-.128.901-.085.37-.175.663-.268.876-.18.426-.7.878-1.56 1.355-.801.435-1.594.652-2.378.652a4.9 4.9 0 01-.671-.045 5.541 5.541 0 01-.735-.16 10.395 10.395 0 01-.607-.185 49.99 49.99 0 01-.71-.262c-.34-.128-.55-.204-.626-.23a11.578 11.578 0 01-2.238-1.061c-1.09-.673-2.217-1.592-3.38-2.755-1.164-1.163-2.083-2.29-2.756-3.381a11.58 11.58 0 01-1.06-2.238 27.236 27.236 0 00-.231-.626 49.912 49.912 0 01-.262-.71 10.424 10.424 0 01-.185-.607 5.525 5.525 0 01-.16-.735A4.932 4.932 0 013 6.334c0-.784.217-1.577.652-2.378.477-.86.929-1.38 1.355-1.56.213-.093.505-.183.876-.268A4.22 4.22 0 016.784 2c.12 0 .209.013.269.038.153.051.379.375.677.972.094.162.222.392.384.69.162.299.31.57.447.812.136.243.269.471.396.684.026.034.1.14.224.32.124.179.215.33.275.453.06.124.09.245.09.365 0 .17-.122.383-.365.639s-.507.49-.793.703c-.285.213-.55.44-.792.678-.243.238-.364.434-.364.588 0 .076.02.172.063.287.043.115.08.203.11.262.029.06.089.162.178.307.09.145.139.226.147.243.648 1.168 1.39 2.17 2.225 3.005.835.835 1.836 1.576 3.004 2.224.017.008.098.057.243.147s.247.15.306.179c.06.03.148.066.263.108a.85.85 0 00.287.064c.154 0 .35-.121.588-.364.239-.243.465-.507.678-.793a6.17 6.17 0 01.703-.792c.256-.243.469-.365.64-.365.118 0 .24.03.363.09.124.06.275.151.454.275.18.123.286.198.32.224.213.128.441.26.684.396.243.136.513.285.812.447.298.162.528.29.69.384.597.298.92.524.972.677.025.06.038.15.038.269z" fill="#57585A"/></svg>