<svg width="42" height="42" fill="none" xmlns="http://www.w3.org/2000/svg"><path d="M6.72 40.839l4.2-2.1 3.36 1.68 3.36-1.68 3.36 1.68 3.36-1.68 3.36 1.68 3.36-1.68 4.2 2.1v-40H6.72v40zM8.4 2.519h25.2v35.602l-2.52-1.26-3.36 1.68-3.36-1.68L21 38.54l-3.36-1.68-3.36 1.68-3.36-1.68-2.52 1.26V2.52z" fill="#231F20"/><path d="M21 13.44c2.316 0 4.2-1.885 4.2-4.2 0-2.317-1.884-4.2-4.2-4.2a4.205 4.205 0 00-4.2 4.2c0 2.315 1.884 4.2 4.2 4.2zm0-6.72c1.39 0 2.52 1.13 2.52 2.52 0 1.388-1.13 2.52-2.52 2.52a2.524 2.524 0 01-2.52-2.52c0-1.39 1.13-2.52 2.52-2.52zm.84 11.76H11.76v1.68h10.08v-1.68zm8.4 0h-3.36v1.68h3.36v-1.68zm-8.4 4.2H11.76v1.68h10.08v-1.68zm8.4 0h-3.36v1.68h3.36v-1.68zm-8.4 4.199H11.76v1.68h10.08v-1.68zm8.4 0h-3.36v1.68h3.36v-1.68zm-8.4 4.199H11.76v1.68h10.08v-1.68zm8.4 0h-3.36v1.68h3.36v-1.68z" fill="#231F20"/></svg>