<svg width="26" height="26" fill="none" xmlns="http://www.w3.org/2000/svg"><mask id="a" fill="#fff"><path d="M11.222 21.443c2.268 0 4.47-.76 6.257-2.157l5.617 5.617 1.807-1.807-5.617-5.617a10.16 10.16 0 002.158-6.258C21.444 5.586 16.858 1 11.222 1 5.586 1 1 5.586 1 11.221c0 5.636 4.586 10.222 10.222 10.222zm0-17.888c4.228 0 7.666 3.439 7.666 7.666 0 4.228-3.438 7.666-7.666 7.666s-7.667-3.438-7.667-7.666c0-4.227 3.439-7.666 7.667-7.666z"/></mask><path d="M11.222 21.443c2.268 0 4.47-.76 6.257-2.157l5.617 5.617 1.807-1.807-5.617-5.617a10.16 10.16 0 002.158-6.258C21.444 5.586 16.858 1 11.222 1 5.586 1 1 5.586 1 11.221c0 5.636 4.586 10.222 10.222 10.222zm0-17.888c4.228 0 7.666 3.439 7.666 7.666 0 4.228-3.438 7.666-7.666 7.666s-7.667-3.438-7.667-7.666c0-4.227 3.439-7.666 7.667-7.666z" fill="#231F20" stroke="#fff" stroke-width="1.086" mask="url(#a)"/></svg>