<svg width="334" height="286" fill="none" xmlns="http://www.w3.org/2000/svg"><path d="M121.798 172.334l-12.614-12.614-29.433 29.433a8.88 8.88 0 000 12.614l29.433 29.433 12.614-12.614-14.367-14.365h47.655v-17.869l-47.655-.003 14.367-14.015zm68.504-21.9l12.614-12.614-29.433-29.433a8.88 8.88 0 00-12.614 0l-29.433 29.433 12.614 12.614 14.365-14.367v47.655h17.869l.003-47.655 14.015 14.367zm34.514 9.286l-12.614 12.614 14.367 14.367h-47.655v17.87h47.655l-14.367 14.367 12.614 12.615 29.433-29.433a8.882 8.882 0 000-12.615l-29.433-29.785zm-21.9 93.732l-12.614-12.614-14.367 14.367V207.55h-17.87v47.655l-14.367-14.367-12.615 12.614 29.433 29.433a8.882 8.882 0 0012.615 0l29.785-29.433z" fill="#D7D7D7"/><path d="M331.338 112.766L169.803 1.339a5.38 5.38 0 00-5.607 0L2.662 112.766c-2.102 1.401-2.804 4.556-1.4 7.008l6.658 9.461c.701 1.051 1.752 1.753 3.152 2.102 1.401.35 2.455 0 3.855-.701l24.88-17.171v165.74c0 2.803 2.102 4.905 4.905 4.905h11.563c2.804 0 4.906-2.102 4.906-4.905l-.003-176.252c0-2.803 1.401-5.606 3.855-7.007l97.061-66.926c1.4-1.051 3.153-1.4 4.905-1.4 1.753 0 3.505.349 4.906 1.4l97.061 66.926c2.453 1.753 3.854 4.204 3.854 7.007v176.252c0 2.803 2.102 4.905 4.906 4.905h11.563c2.803 0 4.905-2.102 4.905-4.905v-166.09l24.88 17.17c1.051.702 2.454 1.051 3.854.702 1.401-.35 2.454-1.051 3.153-2.102l6.659-9.462c.701-1.051 1.051-2.454.701-3.854-.352-1.051-1.053-2.105-2.104-2.804l.001.001z" fill="#D7D7D7"/></svg>