<svg width="64" height="64" fill="none" xmlns="http://www.w3.org/2000/svg"><g clip-path="url(#clip0_1529_449813)"><path d="M54.629 9.373C48.836 3.58 40.83 0 32.009 0A31.915 31.915 0 009.37 9.373C3.596 15.167 0 23.176 0 32c0 8.842 3.596 16.833 9.37 22.627A31.913 31.913 0 0032.01 64c8.821 0 16.827-3.58 22.62-9.373C60.404 48.833 64 40.842 64 32c0-8.824-3.596-16.833-9.371-22.627z" fill="#999"/><path fill-rule="evenodd" clip-rule="evenodd" d="M34.613 21.014c-.708-.09-1.612-.39-1.771.548-.177.975.832.904 1.487 1.046 4.465.975 5.988 2.568 6.732 6.893.035.177.053.407.053.602.053.514.177.974.956.833.39-.054.532-.266.55-.567.053-.266 0-.62.035-.868.018-4.165-3.614-7.939-8.042-8.487zm.408 3.419c-.46 0-.922.053-1.099.55-.266.708.284.903.832.991 1.825.266 2.782 1.33 2.977 3.101.017.248.106.443.212.604.16.175.355.247.603.23a.853.853 0 00.389-.107c.302-.23.354-.656.32-1.1.034-2-2.268-4.323-4.234-4.27zm9.246 14.033c-.903-.71-1.896-1.347-2.816-2.003-1.896-1.276-3.632-1.38-5.03.691-.798 1.17-1.915 1.223-3.066.709-3.206-1.4-5.668-3.58-7.12-6.786-.213-.496-.355-.974-.373-1.417-.053-.85.301-1.594 1.258-2.25.797-.514 1.576-1.134 1.523-2.286-.07-1.506-3.79-6.52-5.278-7.07-.603-.213-1.205-.177-1.825 0-3.454 1.15-4.871 3.916-3.507 7.193.78 1.844 1.612 3.562 2.604 5.174 4.233 7.088 10.468 12.262 18.51 15.646.55.23 1.17.337 1.506.408 2.25.035 4.871-2.109 5.633-4.2.744-2.037-.814-2.817-2.02-3.81zm-11.07-19.401c7.208 1.097 10.52 4.464 11.441 11.57v.176c.054.655-.07 1.507.798 1.507.762.017.797-.55.797-1.1-.035-.193-.035-.353-.035-.512.088-6.717-5.88-12.952-12.79-13.166-.548.089-1.611-.354-1.7.797-.018.763.886.656 1.488.728z" fill="#fff"/></g><defs><clipPath id="clip0_1529_449813"><path fill="#fff" d="M0 0h64v64H0z"/></clipPath></defs></svg>