<svg width="18" height="18" fill="none" xmlns="http://www.w3.org/2000/svg"><path d="M9 2.25a5.678 5.678 0 00-3.977 1.618 5.472 5.472 0 00-1.648 3.905C3.375 12.682 9 15.75 9 15.75s5.625-3.068 5.625-7.977a5.47 5.47 0 00-1.648-3.905A5.678 5.678 0 009 2.25zm0 7.977a2.54 2.54 0 01-1.389-.413 2.465 2.465 0 01-.92-1.102 2.413 2.413 0 01-.143-1.418c.096-.476.335-.914.684-1.257a2.52 2.52 0 011.28-.672 2.543 2.543 0 011.445.14c.457.186.847.5 1.122.904a2.423 2.423 0 01-.311 3.1A2.524 2.524 0 019 10.226z" fill="#B5B7BA"/></svg>