<svg width="26" height="25" fill="none" xmlns="http://www.w3.org/2000/svg"><path d="M17.039 13.136l-.175.114.198.064a12.462 12.462 0 014.712 2.808c2.1 1.994 3.352 4.577 3.588 7.356.04.473-.349.866-.835.866-.482 0-.877-.393-.927-.885-.523-5.122-5.079-9.132-10.595-9.132-5.516 0-10.071 4.01-10.594 9.132-.05.492-.445.886-.927.886-.486 0-.876-.394-.835-.867.236-2.779 1.489-5.362 3.588-7.356a12.462 12.462 0 014.712-2.808l.197-.064-.174-.114C7.104 11.914 5.88 9.87 5.88 7.563 5.88 3.838 9.072.8 13.005.8c3.934 0 7.126 3.04 7.126 6.764 0 2.308-1.225 4.35-3.092 5.573zM7.633 7.563c0 2.822 2.415 5.109 5.372 5.109 2.958 0 5.373-2.287 5.373-5.109s-2.415-5.109-5.373-5.109c-2.957 0-5.372 2.287-5.372 5.11z" fill="#231F20" stroke="#fff" stroke-width=".2"/></svg>