<svg width="140" height="69" fill="none" xmlns="http://www.w3.org/2000/svg"><g clip-path="url(#a)" fill="#2B55A1"><path fill-rule="evenodd" clip-rule="evenodd" d="M67.575 50.16h2.195v5.982c0 .814-.071 1.699-.354 2.442-.248.673-.744 1.204-1.345 1.593-.744.46-1.629.602-2.478.602-.814 0-1.7-.106-2.407-.531a3.033 3.033 0 0 1-1.416-1.558c-.319-.778-.39-1.734-.39-2.584v-5.982h2.195v5.982c0 .496.035 1.204.212 1.664.107.283.319.496.602.673.354.212.744.247 1.133.247.53 0 1.239-.07 1.628-.495.425-.46.46-1.522.46-2.089V50.16h-.035Zm-29.309 7.822V56.92h-2.797v-2.053h4.991v4.248l-.177.106c-.601.496-1.31.92-2.053 1.168-.708.283-1.451.39-2.194.39a6.196 6.196 0 0 1-2.761-.638c-.85-.424-1.487-1.097-1.947-1.946a6.196 6.196 0 0 1-.638-2.761c0-.992.213-1.912.638-2.797.424-.85 1.026-1.557 1.876-1.982.85-.46 1.77-.637 2.725-.637.708 0 1.38.106 2.053.354.602.247 1.098.566 1.487 1.062.39.495.637 1.132.814 1.734l.106.46-2.017.567-.142-.46c-.106-.32-.247-.709-.46-.992-.177-.248-.46-.39-.708-.53A3.066 3.066 0 0 0 35.93 52c-.424 0-.885.07-1.31.212a2.748 2.748 0 0 0-.849.567c-.212.247-.39.495-.53.814a4.855 4.855 0 0 0-.32 1.734c0 .638.107 1.345.39 1.912.248.46.602.814 1.062 1.062a3.457 3.457 0 0 0 1.557.354c.496 0 .956-.106 1.416-.283.319-.036.673-.213.92-.39Zm21.769-5.345a4.359 4.359 0 0 0-1.805-1.947 5.289 5.289 0 0 0-2.62-.708c-1.415 0-2.654.46-3.61 1.487-1.062 1.097-1.416 2.549-1.416 4.035 0 .92.212 1.77.602 2.585.39.814.99 1.486 1.77 1.982.814.495 1.699.708 2.654.708a5.44 5.44 0 0 0 2.55-.637A4.45 4.45 0 0 0 60 58.195c.46-.885.637-1.84.637-2.797 0-.955-.177-1.876-.602-2.76Zm-2.442 5.275c-.531.601-1.204.85-1.983.85-.778 0-1.45-.284-1.982-.85-.602-.637-.814-1.523-.814-2.407 0-.885.142-2.089.814-2.726.567-.531 1.204-.779 1.983-.779.53 0 .99.142 1.45.39.426.283.744.672.957 1.132.247.567.354 1.204.354 1.841.035.92-.142 1.876-.78 2.549Zm-8.602-.602a7.041 7.041 0 0 0-1.026-1.275c.46-.176.885-.424 1.203-.778a2.896 2.896 0 0 0 .779-2.018c0-.602-.142-1.168-.46-1.664-.319-.495-.744-.885-1.275-1.097-.637-.248-1.45-.283-2.088-.283h-4.708v10.442h2.195V56.39h.99c.178 0 .426 0 .603.036.141.035.283.106.424.177.177.106.39.354.531.53.319.39.602.85.885 1.275l1.416 2.195h2.69l-2.159-3.292Zm-1.486-3.47a.916.916 0 0 1-.496.39c-.354.142-.814.142-1.204.142h-2.23v-2.195h2.549c.39 0 .92.035 1.239.319.248.212.319.46.319.743 0 .213-.036.425-.178.602Zm31.291-1.946a3.06 3.06 0 0 0-.92-1.098c-.39-.283-.885-.424-1.38-.53a11.002 11.002 0 0 0-1.523-.107h-4.07v10.478h2.194V56.78h1.982c1.062 0 2.372-.177 3.15-.992.603-.672.886-1.486.886-2.371 0-.531-.106-1.062-.319-1.522Zm-2.265 2.478c-.319.283-.992.318-1.416.318h-1.983v-2.442h1.947c.284 0 .78 0 1.062.07.213.071.39.178.531.39.142.212.213.495.213.743 0 .319-.071.673-.354.92Z"/><path d="m0 8 6.867 9.026v31.505h11.575V33.097l11.505 15.434h13.522l-8.85-12.142 2.478-1.84L47.08 48.53h14.053L89.734 8.035 76.32 8 54.09 38.195 43.435 23.894C44.53 17.062 41.31 10.867 33.593 8 23.009 8.035 10.726 8 0 8Zm18.16 9.912h11.61c2.088.566 3.575 2.513 3.575 4.743a4.864 4.864 0 0 1-3.61 4.708H18.159v-9.451Zm47.22 29.592L93.275 8h14.337v25.876L126.584 8H140l-28.496 40.496h-15.22V24.92L79.326 48.496h-14.69l.744-.992Z"/></g><defs><clipPath id="a"><path fill="#fff" d="M0 0h140v69H0z"/></clipPath></defs></svg>